<svg xmlns="http://www.w3.org/2000/svg" viewBox="0 0 9.4 10.11"><defs><style>.cls-1{fill:#fff;}</style></defs><title>load_letter_02</title><g id="レイヤー_2" data-name="レイヤー 2"><g id="レイヤー_1-2" data-name="レイヤー 1"><path class="cls-1" d="M7.49,9a4.75,4.75,0,0,1-3.18,1.07c-3,0-4.31-2-4.31-4.94A5.1,5.1,0,0,1,1.89.93,5.14,5.14,0,0,1,5.11,0c3,0,4.29,1.79,4.29,4.71A5.16,5.16,0,0,1,7.49,9Zm-3-.63a2.8,2.8,0,0,0,1.66-.48,4.22,4.22,0,0,0,1-3c0-2.07-.87-3.29-2.31-3.29a2.63,2.63,0,0,0-1.73.49A4,4,0,0,0,2.2,5C2.2,7.15,3.09,8.41,4.53,8.41Z"/></g></g></svg>