<svg xmlns="http://www.w3.org/2000/svg" viewBox="0 0 320 48"><defs><style>.cls-1{fill:none;}.cls-2{fill:#fff;}</style></defs><title>load_text02_1</title><g id="レイヤー_2" data-name="レイヤー 2"><g id="レイヤー_1-2" data-name="レイヤー 1"><rect class="cls-1" width="320" height="48"/><path class="cls-2" d="M28,33l-1,6.23H10l.6-30.37h6.52l-.81,25A70.87,70.87,0,0,0,28,33Z"/><path class="cls-2" d="M65.16,36.8c-4.36,3.07-6.92,3.41-10.2,3.41-9.73,0-13.78-6.36-13.78-15.78,0-4.87,1.75-10.8,6.06-13.57a16.3,16.3,0,0,1,10.28-3c9.64,0,13.74,5.72,13.74,15.06C71.26,28.91,69,34.07,65.16,36.8Zm-9.47-2A9,9,0,0,0,61,33.26c1.92-1.79,3.25-5.38,3.25-9.64,0-6.62-2.78-10.54-7.38-10.54a8.49,8.49,0,0,0-5.55,1.58c-1.83,1.66-3.07,5.07-3.07,9.13C48.22,30.74,51.08,34.79,55.69,34.79Z"/><path class="cls-2" d="M94.08,31.08c-1,2.48-2.91,6.87-4.36,9.64l-6.1-1.58A143.1,143.1,0,0,0,94.54,12.52h3.12L96.08,8.26l6.06-1A207.15,207.15,0,0,0,113,38.21l-6.36,2.09c-1.11-2.52-2.77-7.09-3.88-10.5Zm4.73-15.57A72,72,0,0,1,95.7,25.83l6-.38A93.34,93.34,0,0,1,98.81,15.51Z"/><path class="cls-2" d="M154.18,23.15c0,5.46-2,11.17-6.1,13.82s-6.57,3.16-9.9,3.16a68.48,68.48,0,0,1-10.49-.9l1-24.53a14.65,14.65,0,0,0-2.43.85l-.94-5.88a53.47,53.47,0,0,1,13.57-1.54C150,8.13,154.18,14,154.18,23.15Zm-19.41-9.3-.38,19.88a15.63,15.63,0,0,0,4.43.68c2.39,0,4.18-.51,5.46-1.79,1.84-1.62,2.82-4.87,2.82-9,0-6.27-2.18-10.15-8.36-10.15A21.21,21.21,0,0,0,134.77,13.85Z"/><path class="cls-2" d="M177.72,8.86V39.23l-6.48.43V8.86Z"/><path class="cls-2" d="M202.81,39.23l-6.49,1,1.37-25.64-3-2.85,5.12-4.35c5.16,5.28,14.37,17.06,16.29,21.54h.17c-.29-2.52-.51-5.93-.59-8l-.39-12.07h6.57v29.9l-4.9,1c-3-5.24-10.67-15.44-13.53-18.94h-.17Z"/><path class="cls-2" d="M239.06,24.6c0-6.19,2.31-11.78,7-14.55a13.72,13.72,0,0,1,7.89-2.18,46.92,46.92,0,0,1,9.51,1l-1.53,6a33.21,33.21,0,0,0-8.41-1.5,9.74,9.74,0,0,0-3.88.6C247.72,15.43,246,19,246,24c0,4.87,1.66,10.71,7.63,10.71a9.45,9.45,0,0,0,5.42-1.54l-.43-9.34h6.06V38h-3.88a17.9,17.9,0,0,1-8.19,2.26C243.16,40.25,239.06,33.6,239.06,24.6Z"/><path class="cls-2" d="M287.26,38.85l-6.22.81-.6-7,6.82-.51Z"/><path class="cls-2" d="M310,38.85l-6.23.81-.6-7,6.83-.51Z"/></g></g></svg>