<svg xmlns="http://www.w3.org/2000/svg" viewBox="0 0 9.03 10"><defs><style>.cls-1{fill:#fff;}</style></defs><title>load_letter_04</title><g id="レイヤー_2" data-name="レイヤー 2"><g id="レイヤー_1-2" data-name="レイヤー 1"><path class="cls-1" d="M9,4.69A5.11,5.11,0,0,1,7.12,9,5,5,0,0,1,4,10,21.57,21.57,0,0,1,.75,9.72l.3-7.67a4.61,4.61,0,0,0-.76.27L0,.48A16.83,16.83,0,0,1,4.24,0C7.73,0,9,1.83,9,4.69ZM3,1.79,2.84,8a4.79,4.79,0,0,0,1.39.21,2.27,2.27,0,0,0,1.7-.56,3.72,3.72,0,0,0,.88-2.8c0-2-.68-3.17-2.61-3.17A6.49,6.49,0,0,0,3,1.79Z"/></g></g></svg>