<svg xmlns="http://www.w3.org/2000/svg" viewBox="0 0 100.87 10.45"><defs><style>.cls-1{fill:#fff;}</style></defs><title>load_text01</title><g id="レイヤー_2" data-name="レイヤー 2"><g id="レイヤー_1-2" data-name="レイヤー 1"><path class="cls-1" d="M5.64,8l-.32,2H0L.19.49h2L2,8.32A22,22,0,0,0,5.64,8Z"/><path class="cls-1" d="M17.24,9.23a4.74,4.74,0,0,1-3.19,1.06c-3,0-4.3-2-4.3-4.93a5.08,5.08,0,0,1,1.89-4.24A5.06,5.06,0,0,1,14.85.19c3,0,4.3,1.78,4.3,4.7A5.21,5.21,0,0,1,17.24,9.23Zm-3-.63a2.79,2.79,0,0,0,1.65-.48,4.22,4.22,0,0,0,1-3c0-2.07-.87-3.3-2.31-3.3a2.62,2.62,0,0,0-1.73.5,3.91,3.91,0,0,0-1,2.85C12,7.33,12.84,8.6,14.28,8.6Z"/><path class="cls-1" d="M26.28,7.44c-.31.77-.91,2.15-1.36,3L23,10a44.68,44.68,0,0,0,3.41-8.32h1L26.9.31,28.8,0a64.27,64.27,0,0,0,3.4,9.67l-2,.65C29.86,9.53,29.34,8.11,29,7Zm1.48-4.87a22.35,22.35,0,0,1-1,3.23l1.88-.12A28.15,28.15,0,0,1,27.76,2.57Z"/><path class="cls-1" d="M45.06,5a5.12,5.12,0,0,1-1.9,4.32,5,5,0,0,1-3.1,1A21.68,21.68,0,0,1,36.78,10l.31-7.67a4.61,4.61,0,0,0-.76.27L36,.75A16.72,16.72,0,0,1,40.28.27C43.77.27,45.06,2.09,45.06,5ZM39,2.05l-.12,6.22a5.08,5.08,0,0,0,1.38.21A2.28,2.28,0,0,0,42,7.92a3.78,3.78,0,0,0,.88-2.8c0-2-.68-3.17-2.61-3.17A7.5,7.5,0,0,0,39,2.05Z"/><path class="cls-1" d="M52.42.49V10l-2,.13V.49Z"/><path class="cls-1" d="M60.26,10l-2,.32.43-8-.95-.89L59.31,0a35.84,35.84,0,0,1,5.1,6.73h0c-.09-.78-.16-1.85-.19-2.5L64.15.49h2.06V9.84l-1.54.32a63.15,63.15,0,0,0-4.22-5.92h-.06Z"/><path class="cls-1" d="M71.59,5.41A5.09,5.09,0,0,1,73.76.87,4.31,4.31,0,0,1,76.23.19a14.88,14.88,0,0,1,3,.3l-.48,1.87a10.34,10.34,0,0,0-2.62-.47,3,3,0,0,0-1.21.19,4.1,4.1,0,0,0-1.13,3.16c0,1.52.53,3.35,2.39,3.35a3,3,0,0,0,1.69-.48l-.13-2.92H79.6V9.6H78.39a5.56,5.56,0,0,1-2.56.71C72.87,10.31,71.59,8.23,71.59,5.41Z"/><path class="cls-1" d="M86.66,9.87l-2,.25-.19-2.2,2.14-.16Z"/><path class="cls-1" d="M93.76,9.87l-1.94.25-.19-2.2,2.13-.16Z"/><path class="cls-1" d="M100.87,9.87l-2,.25-.19-2.2,2.14-.16Z"/></g></g></svg>