<svg xmlns="http://www.w3.org/2000/svg" viewBox="0 0 8.01 10.12"><defs><style>.cls-1{fill:#fff;}</style></defs><title>load_letter_07</title><g id="レイヤー_2" data-name="レイヤー 2"><g id="レイヤー_1-2" data-name="レイヤー 1"><path class="cls-1" d="M0,5.23A5.11,5.11,0,0,1,2.17.68,4.31,4.31,0,0,1,4.64,0a14.8,14.8,0,0,1,3,.31L7.13,2.17a10.32,10.32,0,0,0-2.62-.46,3.11,3.11,0,0,0-1.22.18A4.14,4.14,0,0,0,2.17,5.05c0,1.52.52,3.35,2.39,3.35a3,3,0,0,0,1.69-.48L6.12,5H8V9.41H6.8a5.56,5.56,0,0,1-2.56.71C1.28,10.12,0,8,0,5.23Z"/></g></g></svg>