<svg xmlns="http://www.w3.org/2000/svg" viewBox="0 0 257.69 167.95"><defs><style>.cls-1{fill:#2e3192;}</style></defs><title>ink_m05</title><g id="レイヤー_2" data-name="レイヤー 2"><g id="Content"><path class="cls-1" d="M82.55,9.21c-.43,2.2-3.82,5.1-.72,7.11-3.48,6.16-9,5.63-15.49,5.43-2.32-2.87-6.77-4.81-7.76-8,4.21-2.67-1.85-9.42,4.7-8.95C61.41.26,67.7,1,70.37.06,73.88-.39,77,1.89,79.28,3.94,80.19,5.8,80.31,8,82.55,9.21Zm168.68,63c-1-4.21,2.32-7.48,4-11.44l-5.56-2.8c-1.27-2.26,1.37-3.56.86-5.84-2.37-1.05-4.77-2.47-7.15-3.5-2.13-3.76-.34-6.56,1.41-10.13-8.64-2.25-18.06-4.86-25.34-11.06-16.06,3.56-29.24-4.26-45.42-3l-3.88,7.16c-3.81,1-6.76-3.51-9.88-4.13-4.05,4.09,4.83,3.62,1.19,8.07-5.22,3.75-12.3,1.42-17.26,2.83A13.17,13.17,0,0,0,150.68,43c-.55,4.3-4.57,8.76-6.38,11.18-2.35-.66-5.84-.86-7.69.79-.13,5,10.57,2.54,5.54,9.77-.49,5.43-6.52,1.11-7.86,5,.24,4.62,4.33,1.32,6.37,3.52,2.24,5.69-5.52,5.32-6.49,8.86,2,1.44,4.26.16,6.19.06,6.92,6.61-6.66,5.77-3.25,11.78,6.84,5.06,16.18,13.47,25.72,18.37,6.17,7-6.12,16.19-1,24.81,6.74,3.13,2-6.29,6.92-8.09,16.61-7.84,31.84-12.5,49.52-7.24l6.43,19.39c0-.39,3.76-2.13,4.63-.24-.54-10.43-6.43-19.39-5.8-29.48,1.2.7-.2,3.49,2.09,3-1.34-3.41-4.26-7.51-2.11-10.72,9.65-.5,8.19-6.23,18-3.65,2.22-2.06.15-4.65,1.18-7,1.85-1.64,4.16-1.76,5.44.5,4.21-1,2.62-9,5.55-12.29,1.5-.85,3.77-1.75,4-4.09C255.3,75.82,251.05,76.05,251.23,72.18Zm-240,91.12c5.91-1.41,4.68,6.27,10.56,4.33,5.52,1.62,5.47-4.63,10.06-5.15-.67-2.41,3.68-2.36,2.17-5.27,5-3-4.12-6,1.17-8.77-2.48-.68-4.73-2.2-3.52-5-3.17,1.8-4.71-1.65-6.45-3.74-1.4-.74-2.36,1.76-3.71,1.83-2.17.11-3.61-1.44-4.75-2.47,1.12,5.92-5.1,1.35-6.48,6C4.36,151.7,10.39,157.9,11.22,163.3ZM0,77.75c5.34,1.3,3,7.21,7.35,9.62,5.45,3.41,9.63,2.66,15.3.26,2.43-3.83,7-6.7,6.72-12.48C30.56,67.71,21.43,64.51,16,61.62c-5.83-.74-9.29,3.66-12.8,7C.69,70.86,4.15,76.48,0,77.75ZM21,92.52c2.75.67,1.55,3.72,3.79,5,2.82,1.76,5,1.37,7.9.13,1.25-2,3.62-3.45,3.47-6.44.61-3.84-4.1-5.49-6.9-7-3-.38-4.79,1.89-6.6,3.61C21.36,89,23.14,91.87,21,92.52Z"/></g></g></svg>