<svg xmlns="http://www.w3.org/2000/svg" viewBox="0 0 487.14 441.08"><defs><style>.cls-1{fill:#88a80d;}</style></defs><title>ink_l02</title><g id="レイヤー_2" data-name="レイヤー 2"><g id="Content"><path class="cls-1" d="M196.42,364.21l1.72-1.22C197.27,364,196.25,364.84,196.42,364.21Zm55-.65c.16.09.05-.47.49-.36l-.17-.09C251.49,363.09,251.42,363.33,251.44,363.56ZM181.73,410l-.14.05c-.17.17-.05.35.11.46C181.85,410.41,181.42,410.17,181.73,410Zm5.74,27.39c-.36.25-.68.59-.41,1s.42-.09.66-.18c.08-.25.55-.64.14-1Zm15.43-11.95c.19-.4.52-1,.07-1.36-.69.42-.75-.51-1.31-.53,0-.67.78-1.07,1-1.75-1.25-.39-3-.41-4.62-.73-.56,0-1,.46-1.41.73-1-.75-.43-2.13-1.22-3.07a1.35,1.35,0,0,0-1.19-.52c-1.54,1.62.85,3.43-.79,4.92a5.67,5.67,0,0,0-4.34,1c-.93,1.28-1.82-.4-2.73-.75-.53-.25-1,.41-1.43.36,1.71,1.16,3.86,2.5,4.54,4.38.29.34.48-.23.73-.15.91.67-.61.94,0,1.34a20,20,0,0,1-2.71,1.93c0,.15.5.16.24.36a4.1,4.1,0,0,1,3-.87c.09.24-.23.58-.34.74.15.11.37-.53.75-.39a2.76,2.76,0,0,1-.42,2.39l.75-.56c.42.08.48.56.62.79a6.22,6.22,0,0,1,.71-1.27.41.41,0,0,1,.56.3l.33-.62c.72-.48.17.78.92.39.75,1.13.45,2.63.63,3.91.25-.26,1,.37.91-.28-.41-.52,0-1.11-.34-1.72.38-.47.46-1.34,1.05-1.55.47.67,1.35-.43,1.64.52.31.23.39.76.58,1,.22-1.09,1.68-1.22,1.42-2.7l1.12-.46c.5,0,1,.57,1.44.43-.91-1.12-2.61-1.18-3.14-2.49,1.12-1.24,2.68-1.86,3.77-3.15a1.27,1.27,0,0,1,.44.28c.16-.17,1.13-.12.78-.61C205.33,424.24,203.48,425.91,202.9,425.39ZM186,405.84c1.23-.28-.27-1.19.36-1.92-.36-.54-1.29-.65-1.88-1.05-1.23.33-2.27.54-2.56,1.88.68.19.22.92.26,1.35.49.1.63.5.9.79a2.31,2.31,0,0,0,1.87.22C185.39,406.78,186.6,406.57,186,405.84Zm11.37,29.26c-.34.29.12.63.41.52C198.23,435.46,197.66,434.83,197.37,435.1Zm-15.13-44.87c.26.24,0,.51.12.79.35,0,.72.13,1.07.17.42.41.3.84.22,1.37a8.54,8.54,0,0,1,3.73.44c1.94-1.1,4-.6,6-1.4l.22-1.08c.46-.28,1,.18,1.45.14.36-.69-.77-.28-.47-1,.53-.69,1.54-.67,2.13-1.05a1.83,1.83,0,0,0-1-.36,3.71,3.71,0,0,1,.38-1.7,1.2,1.2,0,0,0,1-.41c-.18-.66-1.47.09-1.1-1.05-.15-.72.8-.4.82-1-.22-.59-.62,0-1-.2-.51-.65.51-.91.5-1.41-.32-.11-.57.15-.81.24-1.16-.59.64-1,0-1.66a26.51,26.51,0,0,0-4.07-1.37c-1.08-.68.15-2.35-.85-3.27-1-.14,0,.9-.58,1.33a9.79,9.79,0,0,1-5.13,2.81.37.37,0,0,0-.49-.07v.12c-.18,0-.35,0-.53,0l-1.61-2.26s-.4.42-.59.21c.48,1.33,1.6,2.27,1.92,3.6-.18,0-.11-.46-.39-.3.31.39.85.81.7,1.31-1.24.44-.82,1.13-2.2,1.18-.2.36.17.61.13,1s-.47.4-.73.15c-.51.3,0,1.28-.23,1.82-.17.17-.43.38-.37.69.37.09.91-.11,1,.41.3.5,0,1.06-.07,1.64Zm19.52,50.2c-.18.29.1.75.4.64A.79.79,0,0,0,201.76,440.43Zm-6.2-43c.72-1.55-.74-2.36-1.2-3.31-1,.59-1.22-.9-2.2-.21-1.11,0-.75,1.16-1.57,1.52.26.41-.55.64-.1,1.1-.76.83,1.1.88.27,1.68.5,0,1,.14.94.73.48-.51,1,0,1.4.33.3.05.34-.46.58-.55a1.29,1.29,0,0,1,1,.19C194.16,397.86,195.57,398.35,195.56,397.41Zm12.25,4.38c-.35,0-.52.41-.4.76a.54.54,0,0,0,.87.07C208.58,402.24,208.06,402,207.81,401.79Zm-10.55,2.9a1.46,1.46,0,0,0-1.46.42c-.13.44-.48.85-.28,1.39.1.74,1.06.79,1.66.9.58-.1.78-.62,1-1s-.32-.72,0-1C197.7,405.43,197.75,404.8,197.26,404.69Zm31,14.49c-.32.22-.62.52-.37.94s.37-.09.6-.17c.07-.22.49-.58.13-.9Zm9-2c-.31.26.1.57.37.48S237.5,417,237.24,417.19Zm3.94,4.84c-.16.25.08.67.35.57A.65.65,0,0,0,241.18,422ZM286.64,365c.08-.19-.07-.3-.23-.34s.31.15.13.43Zm-.08,6.7c.88-.65,1.66-1.15,1.48-2.33-.62.06-.47-.68-.65-1-.42.07-.66-.2-1-.35a2,2,0,0,0-1.58.41c-.26.41-1.17,1-.45,1.37-.92.62.59.88.31,1.67C285.16,371.72,286,371.52,286.56,371.65Zm-26.47-25.41a.68.68,0,0,0,.53.39C260.67,346.34,260.3,346.05,260.09,346.24Zm7.21,33.16c-.12.41.37.41.65.52.3-.07.29-.5.08-.74A.48.48,0,0,0,267.3,379.4Zm27.1-31.49c-.46-.15-.86-.46-.61-1-.61.31-.86-.35-1.16-.76-.26-.15-.46.3-.72.3a1.23,1.23,0,0,1-.86-.51c.15,1.12-1,.2-1.27,1.07-1.17,1.16-.11,2.38,0,3.4,1.12-.2.81,1.22,1.93.92,1,.36,1.07-.81,1.93-.86-.1-.46.72-.41.46-1C295.06,349,293.38,348.36,294.4,347.91Zm.56,3.63c.13-.17.59-.37.36-.75l-.35,0c-.34.1-.68.29-.57.72S294.75,351.56,295,351.54Zm8.36-.09c-.34.15-.06.52.19.51S303.61,351.31,303.32,351.45Zm2.15,5.27c-.21.18-.1.61.16.6A.61.61,0,0,0,305.47,356.72ZM247.27,374l.16-.05c.17-.15.06-.34-.08-.47C247.19,373.54,247.6,373.81,247.27,374Zm71.17-23.07c0-.11-.28.06-.3-.22l0,.11C318.16,351,318.31,351,318.44,350.94Zm19,7.61c.32-.05.11-.29.15-.48-.12-.14-.18-.58-.55-.47l-.07.29C337,358.21,337.09,358.54,337.47,358.55Zm-21.19-13c-.47,0-.89.53-1.37.74-.27.87-.55,1.58.15,2.28.38-.34.64.22.92.36.25-.25.55-.18.83-.24a1.63,1.63,0,0,0,.86-1c0-.4.31-1.21-.37-1.13C317.62,345.68,316.48,346.23,316.28,345.57ZM347,394.16c-.2,0-.55-.34-.78,0l.16.28c.22.25.52.45.83.19S347.1,394.34,347,394.16Zm-3.11-7.34c-.17-.32-.59.18-.35.37S344,387,343.9,386.82Zm3.64-3.94a.57.57,0,0,0-.44.37C347.34,383.35,347.66,383.09,347.54,382.88Zm-30.46.18c0,.27.37.35.62.22a.42.42,0,0,0,0-.67C317.33,382.42,317.23,382.84,317.08,383.06Zm-6.18-6.92c1.71.36-.14,1.59.16,2.49a2.89,2.89,0,0,1,1.2.53c.36.32-.12.62-.13.86.16-.14.43-.15.64-.26.3.39-.41.68,0,1,.94.64,2.28-.18,2.91.81a1.17,1.17,0,0,0,1.12.21c.53-1.39,2.12-1.93,3.05-2.66,0-.34-.42-.27-.57-.47-.16-.55.48-.21.57-.63.09-.69,0-1.55.4-2-.08-.32-.35.1-.54,0-.41-.1-.18-.59-.42-.78-.4-.56.38-.57.42-1-.22-.15-.34.14-.5.27,0-.94-1.55-.58-1.39-1.72-.31-.06-1,.2-1-.53a2,2,0,0,0-1.17,1.23c-.66.22-.91-.83-1.53-.45-.23.17-.22.85-.73.85-.55-.52-1.21-.12-1.88-.26-.24.4.65.52.47,1,0,.23-.21.2-.38.15-.87.34.37.86.21,1.31C311.61,376.35,311.22,376.06,310.9,376.14Zm36.29,30.48.05.16c.17.19.37.07.51-.1C347.69,406.52,347.41,407,347.19,406.62Zm30-5.28.13.44c.25.4.6.77,1.12.49s-.09-.45-.17-.73C378,401.45,377.57,400.91,377.16,401.34Zm-.84-9.08c-.59.42-1.21,0-1.89.29-.49-.45-1.43-.58-1.64-1.23.76-.47-.4-1.49.66-1.76.26-.32.84-.38,1.08-.57-1.17-.3-1.25-1.89-2.86-1.69l-.44-1.24c0-.54.67-1.11.53-1.55-1.26.94-1.41,2.78-2.87,3.29-1.29-1.28-1.89-3-3.24-4.27a1.48,1.48,0,0,1,.34-.46c-.18-.18-.08-1.23-.63-.88-1.42-.52.31,1.58-.28,2.18-.43-.22-1.1-.62-1.49-.14.42.77-.59.78-.64,1.4-.72,0-1.12-.91-1.86-1.16-.48,1.34-.59,3.3-1,5-.05.61.44,1.05.72,1.57-.87,1.05-2.34.36-3.41,1.17a1.49,1.49,0,0,0-.62,1.27c1.68,1.76,3.78-.75,5.31,1.11a6.21,6.21,0,0,0,.82,4.77c1.36,1.08-.53,2-.94,2.93-.31.58.39,1.08.31,1.58,1.36-1.8,2.92-4.08,5-4.72.38-.3-.23-.53-.13-.8.78-1,1,.71,1.46.09a21.37,21.37,0,0,1,2,3c.17-.05.2-.54.41-.24a4.5,4.5,0,0,1-.8-3.35c.27-.08.63.29.79.42.13-.16-.55-.43-.38-.84a3,3,0,0,1,2.57.58l-.56-.85c.1-.45.63-.49.88-.63a7.23,7.23,0,0,1-1.34-.84c-.1-.33.09-.51.36-.59l-.66-.4c-.49-.8.85-.14.47-1,1.27-.75,2.89-.36,4.28-.49C376.31,393,377,392.22,376.32,392.26Zm-33.39,9.51c-.24-1.36-1.31.23-2.07-.5-.6.37-.77,1.38-1.24,2,.3,1.35.48,2.49,1.91,2.88.26-.73,1-.19,1.49-.22.14-.52.58-.65.91-.94a2.46,2.46,0,0,0,.33-2C343.93,402.48,343.76,401.16,342.93,401.77Zm33-11.31c-.15-.49-.87.09-.58.42S376,390.79,375.94,390.46Zm-49.29,2.23c-.28-.51.25-1.1.23-1.57-.73-.43-.34.83-1.11.47-.73-.62-.66-1.72-1-2.38a2,2,0,0,0-.44,1.1,4.19,4.19,0,0,1-1.83-.51,1.35,1.35,0,0,0-.4-1.08c-.49.11-.31.81-.53,1.1a1.48,1.48,0,0,0-.32.14,1.13,1.13,0,0,1-.35-.09c-.79.13-.39-.89-1-.94-.65.2,0,.67-.27,1-.74.53-1-.6-1.51-.61-.13.34.13.62.22.89-.7,1.24-1.07-.74-1.81,0-.3.74-.75,1.68-1.14,2.66a.59.59,0,0,0-.19,0c-1.26-.37-1.71.83-2.38,1.29a.65.65,0,0,1,.05.8,1.86,1.86,0,0,0-1.64.38.79.79,0,0,0,0,.21,3.37,3.37,0,0,0-.19-.38l-.85,0c-.26-.32,0-.8-.05-1.12-.57-.2-.12.62-.7.47-.59-.32-.69-1.09-1.05-1.49a1.39,1.39,0,0,0-.15.81,2.92,2.92,0,0,1-1.34-.1.92.92,0,0,0-.42-.69c-.48.22.24,1.11-.67,1-.53.2-.39-.56-.83-.51-.42.23.07.46,0,.76-.44.46-.75-.29-1.13-.22,0,.25.18.41.27.59-.31.94-.84-.37-1.25.22a21.19,21.19,0,0,0-.58,3.24c-.39.9-1.8.15-2.38,1,0,.77.68-.09,1.07.29a6.91,6.91,0,0,1,2.9,4.34l-1.54,1.47s.37.26.23.43c1-.52,1.54-1.48,2.52-1.87,0,.15-.34.14-.19.33.26-.28.52-.74.92-.68.48.89.95.49,1.15,1.53.29.12.44-.19.71-.2a.35.35,0,0,1,.2.54c.28.35,1-.16,1.41,0,.14.1.33.27.56.19,0-.28-.18-.67.19-.83s.81-.12,1.26-.13v-.65c.16-.22.4,0,.59-.18,0-.27,0-.56,0-.83.26-.37.6-.33,1-.32a6.54,6.54,0,0,1-.1-2.89c-.9-1.15-.93-2.48-1.44-3.76.29.15,1-.25,1.3.22,1.73,2.1,3,4.11,2.84,6.84l-2.54,1.63c.05,0,.44.46.2.65,1.47-.45,2.55-1.62,4-1.9-.06.2-.51.1-.35.41.44-.32.92-.89,1.46-.69.42,1.36,1.19.94,1.17,2.44.38.25.68-.14,1.06-.08a.48.48,0,0,1,.12.8c.3.56,1.4,0,2,.35.17.18.39.47.73.43.12-.4-.07-1,.49-1.11.57-.3,1.16.06,1.79.16l.2-.9c.28-.26.56.07.87-.09.06-.38.18-.77.24-1.15.46-.44.93-.29,1.51-.17a9.27,9.27,0,0,1,.66-4c-1.09-2.17-.45-4.35-1.21-6.62Zm54.73-6.31c.3.21.82-.07.72-.4A.84.84,0,0,0,381.38,386.38Zm-40.94-8.08a.59.59,0,0,0,.13-.94c-.41-.35-.65.2-.93.47C339.58,378.21,340.06,378.42,340.44,378.3Zm4.82-9.58c-.56-.24-.09-.87-.37-1.2-.4-.89.68-.69.86-1.28-.27-.28-.51.1-.77.23.32-1.29-2-1.23-1.46-2.78-.41-.17-1.5,0-1.21-1a2.82,2.82,0,0,0-2,1.39c-1,.12-1-1.42-2-1.06-.37.18-.55,1.13-1.26,1-.63-.88-1.65-.51-2.55-.89-.44.5.76.91.37,1.57-.08.32-.35.22-.57.11-1.3.23.29,1.29-.07,1.88-.39.3-.85-.22-1.32-.19,1.76.75.42,1.64-.2,2.62-.14-.23-.35-.45,0-.65-.32-.09-.62-.29-.46-.66-.42.24-.62-.22-.85-.49-.19-.1-.32.23-.5.24a.88.88,0,0,1-.62-.33c.14.78-.68.18-.86.8-.78.87,0,1.69.12,2.4.78-.18.62.83,1.4.58.73.21.72-.62,1.33-.68,0-.15.06-.23.17-.31a4.06,4.06,0,0,1,1.49,1.06c.41.53-.34.83-.42,1.15.26-.14.64-.08,1-.18.17.32,0,.53-.21.74a2.31,2.31,0,0,1-.36-.25c-1.5.33-2.72-.39-4.23-.28l-.36.67c-.35.09-.62-.33-.92-.39-.37.38.45.34.12.75-.49.35-1.15.13-1.61.26a1.21,1.21,0,0,0,.6.44,2.68,2.68,0,0,1-.59,1,.86.86,0,0,0-.72.07c0,.47,1,.24.51.91,0,.5-.6.1-.73.47,0,.43.41.12.6.33.2.53-.52.49-.61.82.19.13.4,0,.58,0,.64.61-.62.53-.31,1.09a18.87,18.87,0,0,0,2.4,1.71c.57.65-.57,1.5-.1,2.31.63.29.18-.59.64-.76a6.2,6.2,0,0,1,4.61-.67l.59,1.81s.35-.2.43,0c-.05-1-.59-1.8-.53-2.74.11.07,0,.33.19.28-.12-.32-.4-.7-.2-1,.9,0,.77-.58,1.68-.33.2-.2,0-.44.11-.66a.3.3,0,0,1,.5.05c.39-.09.25-.84.52-1.14.14-.08.35-.17.37-.38-.22-.14-.61-.11-.6-.47s.22-.7.38-1.07l-.52-.26c-.11-.21.13-.33.08-.54-.22-.1-.44-.23-.66-.33a.55.55,0,0,1-.08-.29c.84.15,1.64.29,2,1.16a1.65,1.65,0,0,0,1.51.61c1.12-1.78,3.48-2.09,5-2.86,0-.49-.52-.5-.67-.81-.08-.81.72-.16,1-.72.31-.93.41-2.16,1.13-2.74C346,368.38,345.49,368.89,345.26,368.72Zm-.78,20,.24-.06c-.22-.16.17-.79-.31-.66-.35.37-.84.13-1.27.45h0l0,0v0c-.41-.21-1-.19-1.24-.6.46-.43-.48-1,.21-1.3.14-.26.53-.38.67-.55-.85,0-1.12-1.13-2.21-.77l-.47-.8c-.07-.38.31-.86.16-1.14-.75.82-.6,2.11-1.54,2.66-1.07-.7-1.72-1.82-2.82-2.5a1,1,0,0,1,.17-.37c-.15-.1-.23-.84-.56-.52-1.05-.16.43,1.05.11,1.55-.33-.1-.84-.28-1.05.1.4.48-.3.63-.25,1.06-.5.09-.9-.48-1.44-.55-.15,1,0,2.36,0,3.59,0,.43.45.67.72,1-.46.84-1.57.57-2.2,1.27a1.06,1.06,0,0,0-.25,1,1.13,1.13,0,0,0,.21.12,3.64,3.64,0,0,1-.69.42c.6,1.13-1,1.28-.34,2.38,0,1.21,1.23.87,1.58,1.79.45-.27.67.63,1.19.17.86.86,1-1.16,1.85-.22,0-.54.2-1.08.83-1a.68.68,0,0,1,0-1,3.31,3.31,0,0,0,.41.5c1.08.56-.1,1.43-.25,2.16-.13.43.42.69.43,1,.69-1.43,1.46-3.23,2.81-3.95.22-.26-.23-.34-.2-.54.41-.77.79.35,1-.14a16.25,16.25,0,0,1,1.78,1.83c.1-.05.06-.39.24-.22a3.16,3.16,0,0,1-1-2.2c.18-.1.47.11.6.18.07-.13-.44-.22-.38-.53a2.1,2.1,0,0,1,1.86.05l-.5-.51c0-.33.36-.43.52-.56a5,5,0,0,1-1-.4.3.3,0,0,1,.17-.45l-.51-.18c-.45-.5.57-.22.19-.75a2.08,2.08,0,0,1,.54-.35,1,1,0,0,0-.11.21,1.59,1.59,0,0,0,.38,1.62c.47.15.9.56,1.5.37.81-.07.91-1.12,1.07-1.76A1.31,1.31,0,0,0,344.48,388.73Zm-3.43-26.16h.1c.14-.08.1-.22,0-.32S341.29,362.48,341.05,362.57Zm-18.28-.28a.38.38,0,0,0-.56-.22c-.27.19,0,.43.14.64S322.78,362.54,322.77,362.29Zm-10.15,1.25c.23.35.66-.32,1,0,.18.1.08.25,0,.36-.07.83.83,0,1.13.34.12.28-.26.48-.32.77.94-1.24,1.23.72,2.06.83a2.63,2.63,0,0,1,.89-.77c.39-.16.45.34.64.43-.05-.17.05-.39,0-.61.42-.09.39.59.81.39.87-.51.73-1.91,1.76-2a1.05,1.05,0,0,0,.61-.83c-.92-1-.74-2.44-1-3.47-.3-.09-.39.24-.6.28-.51-.08,0-.46-.29-.7-.52-.33-1.25-.58-1.5-1.11-.29-.06-.05.33-.19.44-.23.3-.54-.08-.79,0-.6.11-.31-.52-.65-.72-.21.12,0,.33,0,.5-.74-.39-1.06,1-1.92.46-.17.23-.24.91-.79.58a1.7,1.7,0,0,0,.54,1.41c-.08.62-1,.42-1,1.06.05.25.61.51.41.91C312.92,362.37,313,363.05,312.62,363.54Zm17.22-.63a1,1,0,0,0,1,0c.17-.26.48-.46.46-.85s-.54-.73-.91-.93c-.4,0-.64.25-.88.48s.07.54-.22.62C329.7,362.34,329.54,362.74,329.84,362.91Zm93-53.31c-.14.23,0,.39.23.48.15-.09-.37-.25-.08-.57Zm13,28.36-.4.25c-.34.35-.62.79-.21,1.23s.43-.19.68-.35C436,338.8,436.42,338.26,435.9,338Zm15.35-9.65c-.4.25-1.13-.27-1.67-.14l-1.12.76c.61,1.55-.95,2-.95,3.27-.25-.19-.46-.75-.85-.93-.53-1-1.25.43-1.91-.2-.6.37-.49,1.34-.8,1.94.5.59.19,1.33.76,1.81.22.69-.72.17-.93.5-.49-1.35-.51-3.06-1.58-4.13-.73.59-.42-.91-1.1-.22l-.22.76a.45.45,0,0,0-.67-.21,6.69,6.69,0,0,0-.5,1.55c-.21-.22-.38-.73-.85-.72l-.7.78a3.1,3.1,0,0,0-.08-2.71c-.45-.06-.55.68-.74.59.09-.19.37-.64.21-.89a4.66,4.66,0,0,0-3.12,1.65c.24-.28-.25-.19-.35-.34a22.18,22.18,0,0,0,2.53-2.72c-.74-.31.87-.95-.29-1.48-.29,0-.36.64-.76.33-1.08-1.76-3.45-2.72-5.48-3.57a2,2,0,0,1,.11.32c-1.26.28-.26,1.81-1.26,2.14.2.11.56.12.48.42-.47.13-.78-.68-1.22,0-.1.32-.71.27-.65.75,0,.22.54.34.24.56-.69-.24-1.56.21-2.31.39-.48.07-.38-.74-.89-.35a.49.49,0,0,0-.06.27,5.79,5.79,0,0,1,.43,1.11c1.18,4.91-5.83,7.8-7.52,9.79-2.91,3.43-3.69-.66-7.57-.55-3.56.1-8.33,9.59-12.32,7.75-3.35-1.54-4.65-7.53-8.07-9.91-3.18-2.21-8.13-2.29-11.2-4.83s-8.11-3.12-10.93-5.65c-3.25-2.9.41-13.18-2.2-15.45-5-4.36-9.67.21-10.88,1.44,0,0,3.37,2.87,4.57,9.39S360,339.13,360,339.13c-1.83,1.87-2.4,2,1.36,6.8,2.48,3.15,6.25,5.88,8.75,9,3.94,4.91.86,3.78-1.33,5.32-4.17,2.94-4.36,11.69-8.19,10.57a41.14,41.14,0,0,1-12.05-6.16c-4.69-3.52-9.07-12.5-11.54-10.93a5.93,5.93,0,0,1-1.12.62v0l0,0a3.19,3.19,0,0,1-1.12.22l-.2.14a1,1,0,0,1-.35-.16l-.54-.09a2,2,0,0,0-.08,1c0-.24-.2,0-.31,0a10.6,10.6,0,0,1,0-1.13,18.32,18.32,0,0,1-3-1.18,18.29,18.29,0,0,0-2.51.94c.21-.26,0-.78.34-1a6.93,6.93,0,0,1,1.14-.44c-3-1.56-5.31-5.07-8.81-7.11-3-1.75-9.91,2.91-13.49,2.08.3.92,1.4,1.4,1.79,2.39-.34,0-.63-.58-1-.69l-1,.09c-.16,1.22-1.34,1-1.78,1.77-.09-.21,0-.64-.21-.9,0-.82-1-.17-1.17-.81-.52,0-.79.69-1.21,1,.12.56-.34.93-.14,1.44-.11.52-.53-.15-.78,0,.16-1.05.76-2.16.45-3.23-.69.12.05-.73-.63-.53l-.42.41c0-.22-.1-.38-.36-.37a4.79,4.79,0,0,0-.87.82c0-.21,0-.61-.3-.77l-.72.26a2.31,2.31,0,0,0,.91-1.78c-.27-.2-.59.24-.69.12.13-.09.47-.28.46-.5a3.4,3.4,0,0,0-2.6-.05c.25-.1-.1-.21-.11-.34a16.51,16.51,0,0,0,2.6-.86c-.37-.46.9-.3.34-1.05-.18-.13-.46.28-.61-.06-.07-1.64-1.45-3.22-2.51-4.56.36.16.86-.26,1.22.07.63.49.92,2,2,1.25a4.53,4.53,0,0,1,3.16.09c.46-.81-.09-.85.11-1.75-.24-.29-.71-.13-1.06-.09,0-.23.24,0,.33-.12-.93-.33-1.93,0-2.93-.23.2,0,.14-.44.1-.45l2-.09a5.29,5.29,0,0,0,.81-2.69,3.25,3.25,0,0,0-1.34-1.7c-3.4-1.79-6.11,1.78-8,4.4a.77.77,0,0,1,.2.69c0,.56-.46.81-.71,1.17a1.64,1.64,0,0,1-1,.1,1.69,1.69,0,0,1-.61.45c-1.89.67-8.35-1.32-9.61,3.21A11.68,11.68,0,0,0,287.1,346c.82.19,1-1.49,1.63-.49-.06,1.61-2.5,1.78-2.28,3.26a32.59,32.59,0,0,1,1.88,4.7s0,0,0,.05c.28.21.57.51.94.44l.56-.92c2.13,0,3.81,1.08,5.94.72a8.14,8.14,0,0,0,3.25,1.64c-.26.45-.51.81-.26,1.32.31.15.61.35.92.51.05.3-.31.45-.16.76l.71.41c-.25.51-.71.91-.61,1.47-.05.51.51.51.81.71-.05.31-.35.41-.56.51-.4.41-.25,1.47-.81,1.57a.43.43,0,0,0-.71-.1c-.16.3.1.66-.21.91-1.27-.4-1.12.36-2.39.36-.3.4.05,1,.2,1.42-.3.05-.1-.31-.25-.41-.16,1.32.55,2.54.55,3.92-.1-.26-.61-.06-.61,0l-.71-2.59c-2.28-.82-4.31-.31-6.55.6-.66.2-.11,1.47-1,1-.61-1.17,1.07-2.28.31-3.25a24.66,24.66,0,0,1-3.24-2.6c-.41-.81,1.37-.6.51-1.52-.26,0-.56.15-.82-.05.16-.46,1.17-.36.92-1.12-.25-.3-.81.1-.81-.51a.38.38,0,0,1,.09-.13,2.07,2.07,0,0,1-.45-.37,9.86,9.86,0,0,0-1.21.5c-.07,3.87-.25,7.66-.45,11.06a57.37,57.37,0,0,0,.31,7.77,1,1,0,0,0,.37-.1c-.42.92,1.11.37.76,1.29.5.22-.08.67.26.92-.52.51,0,1.26-.66,1.65,1.09-.24,2-1.48,3.37-1.43.55.07.4.54.48.91.06-.06.13-.12.19-.19a4.87,4.87,0,0,0,.66,0,.71.71,0,0,0,.11-.21.39.39,0,0,1,0,.2,9.69,9.69,0,0,0,2.35-.78c.09.46.13.85.61,1.05.29-.08.62-.13.92-.2.21.17.06.49.35.6l.72-.14c.13.49.06,1,.46,1.36s.65,0,1,0c.15.24,0,.49-.07.68,0,.52.7,1.15.38,1.55-.28-.12-.49.07-.54.35s.46.39.4.74c-1.1.48-.54.91-1.4,1.66a.55.55,0,0,0,.24.4c.24,0,.44.11.51.32a1.71,1.71,0,0,1,.23.13c-.09.11-.16.06-.23,0l-.05,0c.7.87,1.8,1.29,2.57,2.17-.22-.11-.45.33-.42.36l-2-1.33c-2,.8-3.1,2.35-4.07,4.3-.33.53.8,1.06-.05,1.26-.86-.33-.78-1.45-1.2-2a2.49,2.49,0,0,1-.56,1.32c-.5-1-1.24-.07-1.69.1-.72-1.62-2.5.14-3.21-1.12-.1.3,0,.77-.43.75-.3-.6.7-1.23-.27-1.65-.47,0-.56-.89-1.18-.67-.31,0-.33.81-.69.46.13-1-.7-2-1.14-3-.22-.62.89-.7.23-1.29-.35-.13-.79.26-1.13-.15.5-1.36,1.61-2.89,1.84-4.59-3.86,1.27-6.66-1.19-9.13-2.69-2.75-1.68-5.62-3.41-7.07-7.57-1-2.94-6.12-5.63-7.52-9a2.77,2.77,0,0,1-1.16-1.79c.05-.47.3-.9,0-1.41.36-.37,1.36-.51,1-1.27a2.21,2.21,0,0,1,1.47-.28c1.31-1.54,3.1-3.15,4.49-4.7l-.32-.14a.67.67,0,0,1,.52-.09,6.73,6.73,0,0,0,1.85-3.26.56.56,0,0,0,0-.13h0a2.29,2.29,0,0,0,0-.37c-.37-4-4.59-7.54-4.91-10.84-.61-6.17-2.41-16.71-4.18-16.53-.93.1-1.76,3.72-2.66,8l.11,0c.5.2.76-.84,1.07-.15-.13.7-.94.86-1.4,1.21l-.21,1a27.33,27.33,0,0,1,.61,2.73c-.14.69-1.13-.29-1,.68.15.13.41.18.47.42-.23.15-.59-.09-.85,0,0,.16-.08.32-.11.48.14.13.32.22.12.47a.24.24,0,0,1-.23,0c-.22.91-.44,1.79-.66,2.61-1,3.57,5.88,9.86,4.7,14.36a6,6,0,0,1-2.47,3c.22.07.45.11.42.36-.63.12-1.05.67-1.7.51l-.32.2c-.11.27,0,.65-.1.83-.4.58-1-.27-1.54.18a2,2,0,0,1-.57,1.55c-.22-.67-.78-.16-1.08-.09a.83.83,0,0,0-.17-.34c-1.79,1.17-3.31,2.42-3.76,3.95-1.2,4.08-1.42,8.54-2.86,12.44-.89,2.4-1,5.19-1.39,7.79a7.11,7.11,0,0,0,1,.15c-.09-.84,1.31.32,1.22-1-.12-.28-.78,0-.69-.53a7.73,7.73,0,0,0,.75-4,.66.66,0,0,1-.14-.15.59.59,0,0,0,.13-.19c0-.27,0-.53-.05-.8s-.18-.52-.06-.69c-.06-.54-.12-1.07-.17-1.57.19.28.6.34.94.51a8.83,8.83,0,0,0,.85-.38,2.29,2.29,0,0,1,1.86.35c.26.31.38.72.86.86,0,.43-.5,1.14.18,1.38a2,2,0,0,1-1.44,1.42,6.87,6.87,0,0,1,3.76,3.06,2.23,2.23,0,0,0,.69,0,2.26,2.26,0,0,1,.49-1.12c.36-.33.57.15.89.23l.23-.28a1.48,1.48,0,0,0-.13-.55,1,1,0,0,1,.35.24,2.77,2.77,0,0,1,2.49-1.55,1.46,1.46,0,0,1,.47,1c.54.38,1,.57,1.41-.45,0,.39-.37.79-.11,1.1.18.1.4,0,.63-.15,0-.19-.11-.38-.12-.51,1.31-.11.51-1.78,1.56-2-.18-.15-.54-.2-.42-.49.49-.06.69.79,1.22.21.15-.31.76-.17.76-.66,0-.22-.5-.42-.16-.59.66.33,1.59,0,2.37-.07.49,0,.27.79.85.47.17-.21,0-.61.37-.75,1.05.85,2,2.47,3.71,2.71a1.37,1.37,0,0,1,.05,1.3c-.94.94.3,2.22-.17,3.43-.26.53-.76-.19-1.11.25.18.2.25.5.44.64-.26.05-.72-.4-1,.07a3.36,3.36,0,0,0-.29,1.47c-.91.55-2.74-1.19-2.71.79-.17-.33.05-.84-.29-1-.55-.07-.81,1.44-1.4.55,0-.19,0-.42-.27-.37s-.5.38-.67.63a1.71,1.71,0,0,1,.21.57c-.83-.2-.66.69-.79,1-.82-.25-1.07.42-1.41.9l.09.19a1.44,1.44,0,0,1-.42.11.61.61,0,0,1-.51.1c.13.21.45.4.23.63-.34-.08-.39-.51-.61-.68a2.8,2.8,0,0,0-.59.07h0a1.23,1.23,0,0,0-.41.21c.42.53-.37,1.29.53,1.58,0,.67-.77.85-1.28,1,0,.91,2.9,1.29,1.39,1.93-.17.68-.87-.21-1.15-.23a1.39,1.39,0,0,0-.08-.61c-2,0-3.74-.93-5.71-1-.77,1.48.47,3.05.16,4.72-.43-.24-.32-1.18-.72-1.62l-1.18-.61c-.09.1-.19.18-.27.26-.29.52.17,1.55-.36,1.81a.45.45,0,0,0-.74.1c-.07.36.29.64.06,1-1.39,0-1,.68-2.3,1.05-.18.49.33.95.62,1.37-.29.14-.19-.28-.37-.34.22,1.37,1.29,2.39,1.69,3.77-.18-.23-.63.12-.62.17l-1.46-2.39a7.62,7.62,0,0,0-4.57,1.22l.9.13a.51.51,0,0,1,.34-.27.81.81,0,0,1,0,.31,12.67,12.67,0,0,1,2.19.39c-.18.62-.91,1-.89,1.57.51,0,.55.86,1.18.49.41.3.1.87-.07,1.23.52.47,2.2-1,1.82.16.31.44-.56.4-.71.55a1.07,1.07,0,0,0-.4-.26c-1,1.16-2.4,1.71-3.41,2.83.47,1.19,2,1.24,2.82,2.26-.36.13-.85-.4-1.3-.39l-1,.41c.22,1.33-1.09,1.44-1.3,2.42-.17-.19-.24-.67-.51-.87-.26-.86-1.06.13-1.48-.48-.53.19-.61,1-1,1.4.3.55-.07,1.08.3,1.55.06.58-.6,0-.82.24-.15-1.15.12-2.5-.55-3.52-.68.34-.18-.79-.83-.36l-.3.56c-.08-.22-.24-.37-.5-.27a5,5,0,0,0-.65,1.13c-.13-.2-.18-.64-.56-.7l-.68.49a2.47,2.47,0,0,0,.39-2.15c-.34-.13-.54.45-.68.34.1-.13.4-.44.32-.66a3.7,3.7,0,0,0-2.74.77c.23-.18-.17-.19-.22-.32a18.49,18.49,0,0,0,2.45-1.73c-.53-.36.84-.6,0-1.21-.23-.07-.4.44-.66.13-.6-1.69-2.54-2.91-4.08-4,.42.06.81-.54,1.3-.31.81.32,1.61,1.84,2.45.69a5.09,5.09,0,0,1,3.93-.85c.77-.7.56-1.48.37-2.27a4.93,4.93,0,0,1-.87,1c-3.43,2.92-10.64-9.34-15.09-10.45a4.74,4.74,0,0,0-2.79.37c1,.46,1.92,1.91,2.57.16.05.43-.4.88-.11,1.22.55.3,1.46-1.2,1.72,0-.09.21-.17.46.13.52.63.33.95-.79,1.42-.4-.31.83.08,1.75-.7,2.37-.1.65.78.78,1,1.11.37.87-1,1-.89,1.88a2.53,2.53,0,0,1,1.36,1.74c-.92-.23-.73.77-.87,1.15-1.44-.43-1.28,1.69-2.48,1.46.14.23.49.43.25.69-.55-.14-.41-1.13-1.22-.73-.29.27-.88-.13-1.08.39-.15.22.35.66-.08.7-.57-.63-1.7-.67-2.57-.91-.52-.21,0-1-.7-.87-.28.16-.27.66-.71.65-.77-1.34-1.16-3.49-2.84-4.44a1.53,1.53,0,0,1,.49-1.41c1.15-.5.83-1.86,1.23-2.93-3.82,2.61-7.65,6-9.07,4.79-3.4-2.78,3.65-11.44,3.25-15-.42-3.81-4.52-7.3-3.64-10.79,1.4-5.54,5.19-17.15,2.65-17.81L198.14,363c.86-1,1.58-2,1-2-4,.42-6.76,3.3-9.4,4.29-.07.32.3.56.45.83-.19.24-.51.19-.73.18-.55.16-.93,1.16-1.47,1,0-.34-.25-.49-.57-.43s-.23.62-.61.7c-.91-1-1.15-.23-2.25-.83-.46.2-.42.86-.51,1.33-.29-.1.06-.31,0-.47a2.89,2.89,0,0,0-.27.44c1.16.32.89,1.51,1.7,2-.24.09-.71,0-1,.17-.9-.05-.25,1-1,1.23,0,.57.71.91,1,1.39.62-.08,1,.44,1.56.26.57.15-.19.57-.05.86-1.14-.25-2.33-1-3.52-.71.09.76-.81-.11-.63.66l.43.48c-.24,0-.43.09-.44.37a5.77,5.77,0,0,0,.85,1c-.24.05-.67,0-.86.28l.22.81a2.48,2.48,0,0,0-1.89-1.12c-.24.28.23.67.09.76-.09-.14-.28-.52-.52-.53a3.73,3.73,0,0,0-.22,2.86c-.09-.29-.24.09-.39.09a18.12,18.12,0,0,0-.77-2.92c-.53.38-.27-1-1.14-.44-.14.19.28.53-.1.67-1.81,0-3.63,1.38-5.17,2.45.19-.37-.23-.95.16-1.33.58-.66,2.29-.87,1.5-2.07a5.18,5.18,0,0,1,.57-4c-.73-1.86-3-.41-3.92-2.23a1.23,1.23,0,0,1,.82-.85c1-.37,2,.55,3-.06-.09-.48-.37-1-.17-1.43,0,0,0-.07.05-.1a3.38,3.38,0,0,1-2.05-.8c-4.16-3.91-3.64-9.84-6.21-11.23-3-1.62-7-2.17-12.18-.08-2.52,1-5.15,2.34-7.51,3.2,0,.58-.19,1.31.18,1.9.52.48.53-.61,1-.08-.1.38-.67.7-.58,1.18l.85.54c0,2-1.05,3.55-.74,5.56a7.53,7.53,0,0,0-1.56,3c-.43-.24-.76-.48-1.24-.25-.13.26-.3.52-.44.78.17.08.33.16.16.35-.88-.08-1.76.69-2.6,1.12-.53.21-.64-.76-1.14-.16-.1.31.26.68-.08,1-1.53-.49-3.34-1.85-5.3-1.38a1.6,1.6,0,0,1-.61-1.42c.46-1.08-.47-1.83-1-2.78l-.24,0c.11-.05.12-.16.11-.28a2.1,2.1,0,0,1-.19-.83c.06-.7.93-.13,1.13-.76-.29-.15-.5-.44-.77-.52.27-.17,1,.13,1.05-.5a3.83,3.83,0,0,0-.32-1.76c.33-.43,1-.47,1.63-.55a15.36,15.36,0,0,0-.69-2.16c-.18-.62-1.38-.11-.94-.92,1.1-.55,2.13,1,3,.33a14,14,0,0,1,1.61-2.05c-3.22-1.77-9.15-3.83-13.72-.83-3.53,2.31-2.34,15.55-6.84,16.85-1,.3-2-.19-3-1.13a1.47,1.47,0,0,0-.08.66c.28.75.85-.36,1.06.42-.3.34-1,.38-1.2.91l.59,1c-1,2.06-2.88,3.11-3.59,5.32a8.62,8.62,0,0,0-3.14,2.3c-.31-.47-.53-.89-1.14-.89-.29.21-.63.4-.93.62-.31-.1-.29-.52-.65-.52l-.74.48c-.36-.49-.52-1.13-1.1-1.31s-.73.24-1.08.43c-.26-.2-.21-.54-.21-.78-.19-.59-1.28-1-1.1-1.55.37,0,.52-.29.45-.63s-.68-.22-.77-.64c1-1,.2-1.24.83-2.45-.24-.49-1-.42-1.46-.5.1-.32.34,0,.51-.05-1.18-.79-2.69-.71-4-1.38.3,0,.35-.56.3-.58l2.82.59c1.9-1.78,2.41-4,2.64-6.54.13-.73-1.36-.82-.5-1.42,1.41,0,1.66,2.14,3,1.89a26.51,26.51,0,0,1,4.06-1.83c1,0-.09,1.61,1.21,1.23,0-.11.09-.25.14-.38-1.61-2.4-3.3-4.66-5.2-5.36-4.78-1.74-11.3,3.56-13.15,1a14.32,14.32,0,0,1-1.91-12.5c1.09-3.26,3.8-6.91,6.5-10.46,2.24-2.93,3.62-7.41,6.57-10.4a4.88,4.88,0,0,1,.59-.52c-.18-1.1-.82-.81-1.31-2-.54-.14-1,.45-1.38.8-.18-.29.28-.23.32-.43-1.42.39-2.38,1.63-3.79,2.19.22-.21-.2-.64-.25-.62l2.36-1.81c-.11-2.68-1.47-4.56-3.34-6.47-.48-.6-1.55.5-1.44-.58.95-1.11,2.79.15,3.47-1A28.29,28.29,0,0,1,100,313.8c.67-.76,1.2,1.16,1.78-.11-.11-.26-.39-.51-.29-.86.54,0,.85,1.06,1.53.48.21-.39-.44-.79.19-1.05.6,0,.29,1,1.06.85,1.24.35.39-1,1.09-1.23a1.32,1.32,0,0,1,.47,1,4.17,4.17,0,0,0,1.84.35,1.92,1.92,0,0,1,.34-1.11c.43.61.45,1.7,1.21,2.24.78.29.3-.91,1-.55.07.46-.41,1.08-.1,1.56l1.17.2c.94,2.17.48,4.35,1.73,6.4a7.11,7.11,0,0,0-.38,2.74,8.78,8.78,0,0,0,2.2-1.37c3-2.64,10.41.14,13.43-2.34,3.18-2.62,6.43-4.78,9.37-7.11,2.11-1.69.72-7.49-.06-12.22a8.11,8.11,0,0,1-.88.88c-.42-.49-.32-1.3-.83-1.63-.3.42-1,0-1.06.73-.49.18-.79-.39-1-.73-.68.17-.35,2.41-1.14,1.44-.54,0,0-.7-.07-.91a1,1,0,0,0,.43-.18c-.42-1.48-.11-3-.49-4.44-1.26-.26-2.15,1-3.46,1.12.09-.37.81-.49,1-.88l.21-1.07c-1.24-.55-.61-1.72-1.32-2.44.25,0,.69.17,1,.05.86.27.47-1,1.22-1,.13-.56-.49-1.05-.65-1.59a.94.94,0,0,1-.42-.13.32.32,0,0,1-.21.2c-.78-.67-.9-.08-1.8-.47-.33.2-.25.7-.28,1.07-.23-.06,0-.25-.06-.36-.5.88-.37,1.95-.78,2.92,0-.21-.42-.22-.43-.18l.28-2a4.29,4.29,0,0,0-.35-.28c-.09.47-.15,1-.26,1.42s-1,0-.9.79c.18.29.72.25.73.73-1.41.88-3.7,1.37-4.66,3.22a1.67,1.67,0,0,1-1.52-.48c-.72-1.47-2.71-.55-3.91-1.58-.52-.52.52-.82.16-1.4-.31.13-.69.1-.93.25,0-.32.76-.67.32-1.16a3.93,3.93,0,0,0-1.59-.93c-.27-1.29,2.49-2.71.18-3.47.46-.07,1,.4,1.31.08.3-.61-1.34-1.53-.08-1.85.22.09.49.16.54-.16.33-.68-.88-1-.48-1.5.91.3,1.88-.15,2.57.66.7.08.8-.87,1.15-1.07.8-.38,1,.74,1.74.87l-.14-.27c0-.69,1.15,0,.82-.92-.18-.08-.44-.06-.56-.28.25-.28.93.1,1-.52-.08-.29-.6-.17-.42-.6s.65.36.94-.11c.78-.43-.3-.68-.07-1.13a.9.9,0,0,1,.73.27,2.76,2.76,0,0,0,1.08-.73,1.27,1.27,0,0,1-.38-.71c.51.09,1,.62,1.69.51s-.3-.59.25-.78c.26.19.32.73.71.81l.67-.48c1.52.61,2.37,1.91,4,2.3a6.31,6.31,0,0,0,1.81,2.12c-.32.25-.61.42-.58.86.17.2.32.43.49.63-.05.23-.35.23-.33.49l.37.5c-.33.29-.77.44-.87.86s.21.51.36.75c-.13.2-.37.18-.55.19s-.47.52-.7.73a3.12,3.12,0,0,0,1.45.42c.08-.76.76.29.76-.5l-.31-.57c.24.06.44,0,.51-.27a5.19,5.19,0,0,0-.6-1.17c.25,0,.64.2.91-.08l0-.84a2.5,2.5,0,0,0,1.59,1.52c.3-.23-.07-.71.09-.77.06.16.15.58.38.64a4.69,4.69,0,0,0,.52-.85,14.73,14.73,0,0,1-3.25-3.48,10.65,10.65,0,0,1-.75-1.33l0,.18c-.48.13-.54-.42-.69-.61.05-.23-.21-.54.19-.59.05,0,.08,0,.12,0a13.52,13.52,0,0,1-.62-2.39l-.13,0c0,.47-.55.19-.61.54-.63-.22-1,.59-1.63,0-.88-.12-.23-1-1.08-1.23.23-.75-.15-1.93,1-2.4.48-.52,1,.46,1.22-.37a1,1,0,0,0,.46.62c.17.07.43-.16.57,0a10.68,10.68,0,0,1,.56-3.2,4.59,4.59,0,0,1,.85-1.36,1,1,0,0,1-.89-.5c-.21-.3.14-.62-.17-.88.31,0,.27-.44.51-.5s.71-.29,1.08-.05a3.3,3.3,0,0,1,.51.8c1.78-1.76,4.39-3.8,6.21-5.67a1.37,1.37,0,0,1,0-.34c.05-.91,1.05-1.38.89-2.29-.39-.08-.84,0-1.13-.32-.37-.52-.81-1-1.22-1.51A73.53,73.53,0,0,0,123.93,265a4.16,4.16,0,0,0-.32,2.69,1.11,1.11,0,0,1-.91.5c.41,1.85,1.25,3.78,1.45,5.32-.84.12-1.67-.56-2.38-.22.25.63-.73,1.14.06,1.68-.14.66-1,.61-1.51.6-.28.88,2.44,2.07.8,2.26-.36.62-.79-.45-1.05-.54a1.5,1.5,0,0,0,.1-.62,10.06,10.06,0,0,1-2.16-1,5.39,5.39,0,0,1-2.45,2.66,9.12,9.12,0,0,1-2,.57c.72,1.1,1.32,2.32,1.83,3.18.13,1.08-1.79.13-1.19,1.51.29.11.69.06.9.39-.36.46-1.46-.07-1.49.89.17.45,1,.22.71.9-.43.5-1-.5-1.45.26-1.17.74.54,1,.21,1.76a1.45,1.45,0,0,1-1.17-.36,4.43,4.43,0,0,0-1.61,1.24,2,2,0,0,1,.65,1.07c-.8-.09-1.69-.86-2.68-.64-.8.43.52.9-.32,1.25-.42-.28-.57-1.12-1.18-1.21l-1,.81c-2.43-.81-3.86-2.75-6.42-3.22a9.17,9.17,0,0,0-2.77-3,31.14,31.14,0,0,1-3.76,1.75c-3.71,1.38-10.53-6.36-14.23-5.22-3.89,1.2-6.32,6.73-10,7.47-4.13.82-8-2.87-11.68-2.88-4.34,0-7.65,2.32-10.84.68-3.8-2-10.09-2.62-10.87-5.73s5-6.42,6.72-9.73a1.91,1.91,0,0,0-.9.12c0-.23.23-.05.32-.16-1-.2-1.92.24-2.94.14.2-.06.08-.45.05-.45l2-.34a6.44,6.44,0,0,0,0-4.9c-.1-.5-1.08-.18-.68-.78.91-.37,1.62.95,2.38.45.13-.17.28-.35.43-.52-.28-1.39-.56-3-1.74-4a1.68,1.68,0,0,1,.83-1.39c1.63-.36,1.19-2.55,2.49-3.49.64-.39.68.71,1.35.49a7.66,7.66,0,0,0,0-1c.3.13.48.91,1.07.59a4.16,4.16,0,0,0,1.3-1.34c1.1,0,1.81,2.12,2.75,1.65,1.84-3.21,3.3-5.84,3.3-5.84-.47-1.84-1.85-8.1,4.75-10.6,3.48-1.32,8.57-.76,13-2.17,3.91-1.22,9.67,2.74,13.86,1.49a76.5,76.5,0,0,1,9.27-1.63,1,1,0,0,1-.66-.84c-.06-.35.37-.49.2-.85.26.17.41-.27.65-.24s.75,0,1,.39c.08.42.31,1.06-.12,1.34a22.37,22.37,0,0,0,2.35-.57c2.63-.8,4.44-3.82,6.26-6.39a12,12,0,0,1-.48-2c.51-.06,1,.37,1.44.17-.15-.38.45-.68,0-1,.09-.39.6-.35.92-.33.18-.53-1.44-1.29-.45-1.39.23-.36.47.29.63.35a.84.84,0,0,0-.07.37,6.54,6.54,0,0,1,1.07.5,4.37,4.37,0,0,1,.86-.44,7.14,7.14,0,0,1,1.75-.33,2.42,2.42,0,0,1,.25-.87c.16.17,0,.53.07.84,5.23-.22,12,4,13.89,2.62,5.72-4.07-4.84-12.61-5-19.59,0-2.16-6.7.21-12-1.6-3.25-1.12-6.66-2.64-10.46-3.72s-8.8.68-12-.44c-5.36-1.84-.81-9.84-.61-12,.34-3.49-2.39-7.93-2.77-11.34s-11.73-8-11-11.42c.44-2.08,4.79-7.85-1.36-9.54-3.51-1-7.15-2.08-11.13-3.44a5.15,5.15,0,0,0-2.71,0l0,.11a.36.36,0,0,0,0-.1,46.87,46.87,0,0,0-6,2.13c-.11.26-.33.54-.07.84.29-.17.66-.2.88-.39,0,.33-.65.78-.14,1.2a4.23,4.23,0,0,0,1.72.68c.47,1.23-2.05,3.06.36,3.46-.45.13-1-.25-1.31.12-.2.65,1.56,1.3.37,1.82-.24-.06-.52-.09-.52.24-.22.73,1,.84.71,1.42-.94-.16-1.83.44-2.65-.26-.7,0-.65,1-1,1.23-.84.57-1.25-.89-2.16-.54a2.77,2.77,0,0,1-1.56,1.78c0-1-1-.61-1.39-.68.16-1.6-2-1-2-2.33-.22.2-.36.61-.68.41,0-.61,1.11-.67.52-1.43-.34-.25,0-1-.63-1.07-.26-.1-.62.5-.76.06.56-.72.37-1.92.45-2.89.1-.59,1-.15.76-.92-.22-.26-.74-.14-.83-.62a26.57,26.57,0,0,0,3.3-2.54c-4.14-2.1-11.4-4.32-12.39-7.68-.63-2.13.16-6.43,1.34-10.44a.44.44,0,0,0-.56-.11c-.59-1.21.08-2,.82-3a4.08,4.08,0,0,0,.81-.18c.31-.86.62-1.67.93-2.39a14.86,14.86,0,0,1,.72-1.44l0-.05c-.65.79-1.12-.44-1.56-.84a2.48,2.48,0,0,1-.15-2c.25-.34.63-.58.65-1.09-.34,0-.69,0-.65-.56-.62-.08-.14-.75-.59-.9.41-.78-.57-1.44.28-2.13.33-1.13,1.39-.11,1.81-1.18.93.45,2.55.18,2.94,1.81.59.72-.8,1.2.25,1.66a1.25,1.25,0,0,0-.9.48c-.13.21.15.63-.11.77h-.25a3.33,3.33,0,0,1,.53.68c2.65-3.46,6.25-6.82,8.87-7.81,1.63-.61,3.78,1,6.08,3a.83.83,0,0,0,.23-.15c.51-.24.2-.77.22-1.17.32-.13.59.1.8.24.62.16,1.55-.6,2-.12-.2.32,0,.61.31.73s.57-.47,1-.32c.33,1.44,1,.86,1.69,2.07.56.06.89-.6,1.24-1,.23.26-.23.27-.24.47,1.35-.6,2.1-2,3.41-2.76-.18.25.3.61.35.59l-2.07,2.15a8.37,8.37,0,0,0,2.87,4.72c3.24-.84,6.75-2.66,9.9-1.75,4.11,1.19,9.77-1.24,13.67.22,4.33,1.63,9.31,1,12.83,2.38a8.18,8.18,0,0,1,1.29.62c-1.13-3.41,1.55-9.75-.34-12.54-2.15-3.17-8.19-7.26-10.68-10.09a.41.41,0,0,0-.12.52,4,4,0,0,0,1.1,1.27c-.13,1.19-2.93,1.6-1.16,2.94-.39-.07-.67-.56-1-.47.52,1,1.89,2.06,1,3.65-.07,1.07-1.62.39-1.09,1.6a1.47,1.47,0,0,0-1.13-.29c-.29.08-.37.66-.71.57-.47-.36-1-1-1.55-.49.12-.65-.43-.87-1-.89,1-.82-1-1-.23-1.86-.55-.21-.44-1.23-1.2-1.32a2.54,2.54,0,0,1-2,.79c.47-.8-.51-.9-.84-1.14.81-1.22-1.22-1.67-.67-2.73-.17,0-.36.18-.52.17,0,.41-.33.85.28,1.1,0,.6-.75.71-1.21.8-.08.81,2.5,1.35,1.11,1.82-.2.6-.76-.25-1-.28a1.32,1.32,0,0,0,0-.56c-1.78-.13-3.29-1.08-5-1.26-.8,1.27.21,2.75-.18,4.23-.37-.25-.21-1.08-.53-1.5L71,113.17c-1.1,1.13-2.13,0-3.2.46.07-.29.47-.69.47-1.09.64-.84-.85-.92-.57-1.73-.55-.38-1.34.1-2,.06-.31.66-1.06.69-1.25,1.37-.51.45-.43-.56-.8-.61,1-.95,2.45-1.63,2.95-3-.8-.4.62-.72-.24-1l-.74.1c.15-.23.19-.48-.09-.66a6.77,6.77,0,0,0-1.53.17c.11-.26.49-.61.29-1l-.94-.3a2.9,2.9,0,0,0,2.3-1.13c-.12-.41-.8-.2-.8-.4.21,0,.7.06.85-.17a4.39,4.39,0,0,0-2.63-2c.34.1.06-.29.16-.43a21.38,21.38,0,0,0,3.33,1.12c0-.76,1.15.38,1.16-.82-.09-.27-.69-.07-.58-.53,1.18-1.75,1-4.43.92-6.62.24.43,1.08.39,1.2,1,.27,1-.62,2.8,1.06,2.79a6,6,0,0,1,3.52,3.13h.08c0-.54-.12-1.14.29-1.34.27.3.61.2.83-.11s-.32-.71-.06-1.09c1.56,0,1.14-.76,2.57-1.16.22-.56-.36-1.07-.68-1.54.33-.15.21.31.42.38-.25-1.54-1.44-2.68-1.88-4.23.2.26.7-.13.69-.19l1.62,2.69c2.83.18,5-1,7.18-2.78.68-.44-.35-1.69.77-1.45,1,1.12-.48,2.91.69,3.76a29.62,29.62,0,0,1,4.48,1.88c.72.78-1.35,1.12-.08,1.87.28-.08.58-.34.93-.2,0,.57-1.21.77-.68,1.55.39.26.89-.37,1.08.31-.07.64-1.12.2-1,1-.51,1.25,1,.52,1.17,1.28a1.44,1.44,0,0,1-1.13.38l-.29.64c2.89-.78,7.93-.05,11.33-.45a3.39,3.39,0,0,0,0-.78,1.61,1.61,0,0,1,1.51-.45c1.4.81,2.52-1,4.08-.87.55.11.26.64.4,1h.46a1.84,1.84,0,0,0,.39-.47,1,1,0,0,1,0,.46c4.14,0,9.09.6,10.57-1.3.82-1-1.89-5-4.71-9.28a1.13,1.13,0,0,1,0,.15c-1.14.68-2.37-.94-3.3-.12a25.29,25.29,0,0,1-2.42,3.43c-.79.45-.69-1.35-1.56-.43,0,.26.19.56,0,.83-.47-.13-.43-1.16-1.18-.86-.29.27.15.81-.47.85-.52-.18,0-1-.67-1-1-.66-.63.75-1.29.74a1.17,1.17,0,0,1-.11-1,3.71,3.71,0,0,0-1.49-.84,1.75,1.75,0,0,1-.62.86c-.19-.66.11-1.6-.39-2.29-.59-.48-.52.7-1.07.17.08-.42.68-.81.55-1.32l-1-.51c-.17-2.14.86-3.9.37-6a6.05,6.05,0,0,0,1-1.92l-.49.22C98.79,81,98,78.93,95.81,78a9,9,0,0,0-2-3.47c.51-.26,1-.42,1-1-.19-.32-.34-.69-.52-1,.14-.31.56-.23.61-.6l-.4-.8c.54-.3,1.2-.39,1.45-1s-.15-.77-.3-1.14c.24-.25.58-.15.82-.12.62-.12,1.13-1.18,1.7-.93-.05.37.23.56.58.53.33-.18.32-.66.75-.7.9,1.14,1.23.36,2.38,1.14.52-.18.54-.91.69-1.41.3.14-.1.33,0,.52a4,4,0,0,0,.5-.78c-4.59-.58-9.9-.73-10.87-2.8-2.7-5.75-1.45-17.22.09-18.81l8.67-1c-4.21-4.3-10.6-9.19-5.88-13.1,1.55-1.27,8,1,13.11.65,3.68-.29,7.61,3.29,11.29,3.36,5.41.1,9.12-1.91,10.43-1.25,4,2,4.05,7.21,7,10.2,3.3,3.32,16.52-2.23,18.91.8,4.06,5.16-1.66,9.6,1.1,7.83,3-1.88,10.38,4.63,13.26,3.18a2.4,2.4,0,0,0,1-1.42,1.38,1.38,0,0,1-.92-.63c-.64-.17-.87.7-1.23.84-.91.27-.87-1.16-1.79-1.11a2.63,2.63,0,0,1-1.91,1.17c.34-.9-.69-.82-1.06-1,.6-1.4-1.55-1.49-1.18-2.67-.24.11-.49.45-.72.17.2-.54,1.19-.28.88-1.14-.24-.32.23-.87-.27-1.13-.21-.17-.7.27-.7-.17a2.42,2.42,0,0,0,.77-1.18c-.65-.84-1.25-1.65-2.25-.29.09-.51.76-.87.54-1.36-.54-.53-2.09.9-2-.55.18-.21.35-.47,0-.64-.61-.59-1.34.6-1.76,0,.63-.86.49-2,1.59-2.51.33-.71-.65-1.15-.74-1.59-.14-1.12,1.52-.8,1.64-1.88a3.06,3.06,0,0,1-1-2.45c1,.56,1.09-.64,1.38-1,1.52,1,2-1.53,3.35-.86-.09-.31-.43-.67-.07-.88.6.34.1,1.44,1.16,1.24.43-.21,1,.44,1.38-.09.24-.21-.18-.87.33-.78.44.91,1.73,1.33,2.65,1.9.53.4-.36,1.1.53,1.22.37-.08.52-.66,1-.51.44,1.8.18,4.4,1.81,6.06a1.84,1.84,0,0,1-1,1.46,1.74,1.74,0,0,0-.53.17c.4.15.85.23,1.28.37.27-1.62.73-2.9,1.63-3.33,2.32-1.14,10.86,4.76,14.33,7.84C191,51.7,195.9,51.78,198.4,54c3.41,3,1.25,8.25,3.62,7.42,3.3-1.16,10.68-4,13.55-2.31s3.5,17.08,6.83,16.33c.73-.16,1.2-.89,1.5-2a1.42,1.42,0,0,1-.12-.13.6.6,0,0,0,.16-.05c.08-.33.15-.68.21-1.06a.93.93,0,0,1-.07-.29.53.53,0,0,0,.12,0c.54-4.12-.08-10.7,1.22-13.27,1.94-3.83,7,.17,10.5-.18,2.06-.22,5.8-3.37,9-6.93-.17,0-.31,0-.29-.2.75-.44,1-1.56,1.43-2.38.3-.48,1,.23,1-.53-.1-.31-.6-.4-.51-.85.57-.19,1.25-.3,1.94-.45A24.54,24.54,0,0,0,250,44.9c.08-.15.16-.31.23-.47l-.67-1.25c.28.19.73,0,1.07.14,1.69-5.9-.45-17.5,2.71-17.45,3.39.05,4.52-.07,8-2.11,1.53-.9,3.69-2.51,5.91-4a6.75,6.75,0,0,0-2.76-.58,7.63,7.63,0,0,0-2.86-1.93c.29-.4.58-.7.4-1.21-.27-.18-.53-.41-.8-.59,0-.29.34-.4.24-.7l-.62-.47c.3-.45.78-.77.75-1.31s-.42-.54-.68-.77c.09-.28.39-.34.59-.41.43-.34.42-1.36,1-1.39.1.31.39.35.65.19s0-.64.31-.84c1.14.54,1.09-.2,2.29,0a.44.44,0,0,0,.09-.18c.07-.35,0-.63-.72-.7.22-.08.51,0,.72,0,0-.16-.08-.31-.11-.45.28,0,.08.27.18.4h0a1.85,1.85,0,0,0,0-.23c-.17-.36-1-.68-.29-1,.14,0,.29,0,.32-.11l0-.34c-.17-.25-.64-.34-.49-.65a1.85,1.85,0,0,0,.41,0,6.08,6.08,0,0,1,0-1.35c.06.26.57.13.57.08l.17,1.16a1,1,0,0,1,.65.19c.48,0,.41-.69.6-.87.55-.42.89.55,1.49.28a1.87,1.87,0,0,1,1-1.27c0,.69.67.37,1,.4,0,1.09,1.42.6,1.47,1.48.14-.14.22-.42.44-.3,0,.41-.72.5-.29,1,.19.12.13.45.31.61.39-.3.18-1.24.85-.76a1.74,1.74,0,0,1-.38,1.55c0,.39,0,.81,0,1.19,0,.19-.19.23-.32.28h0a24.88,24.88,0,0,1,2.75,2.84c.28.81-1.37.4-.67,1.37.24,0,.55-.07.76.15-.2.41-1.14.19-1,.94.2.32.77,0,.7.57-.25.46-.9-.21-1.08.45l-.05.06H275c1.11.15,1.53,1.91,1.68,4.3a.88.88,0,0,1,.67.47c0,.44.18,1.12-.33,1.33a.62.62,0,0,1-.27.11c0,.29,0,.58,0,.88,1.18-.21,2.22-.95,3.48-1.14-.25.14,0,.64.09.63l-2.59,1.15a7.87,7.87,0,0,0,.75,5c.32-.11.62.47.87.67a1.53,1.53,0,0,1,.2,1.23c.44.32,1.36-.18,1.06.68a1.64,1.64,0,0,1-1.46.14s0,.05,0,.08c-.29.1-.89-.09-.9.43a1.42,1.42,0,0,1-1.09-.41c0,.08-.08.16-.11.24a4.79,4.79,0,0,0,1.05,2.71,5.25,5.25,0,0,0,.78.58,1.43,1.43,0,0,1,1-.85c1.39.08,1.54-1.8,2.82-2.26.6-.17.39.73,1,.71a6.38,6.38,0,0,0,.21-.8c.22.17.18.85.73.72a3.56,3.56,0,0,0,1.37-.79c1.07.33,1,3,2.51,1.59-.14.37-.7.54-.6.94.32.48,1.7-.36,1.41.72-.16.12-.33.3-.11.47.37.53,1.1-.25,1.33.27-.55.5-.66,1.28-1.33,1.56a9.79,9.79,0,0,0,2.34,3.28c2.9-1.87,7.94-2.43,10.05-4.94,2.72-3.22,6.77-3.6,9.79-5.78,3.77-2.73,5.14-14.89,8.65-14.58,4.35.38,11.59,5.09,13.65,7.89s.42,9.52.91,13.58c.42,3.43-9.26,7-9.49,10.83-.15,2.49,1.36,5,2.19,7.46.56.24.66,1.21,1.44.45a1.48,1.48,0,0,0,.12,1.2c.18.24.77.11.8.47-.17.58-.63,1.29.1,1.67-.67.11-.68.72-.5,1.27-1.16-.65-.61,1.44-1.78.87-.19.32-.41.27-.64.2a34.65,34.65,0,0,1-2.72,3.88,6,6,0,0,0,.48.54,9.92,9.92,0,0,0,.75,4.3c-.62.08-1.15.09-1.46.69.07.41.09.84.16,1.25-.25.26-.65,0-.84.39l.11,1c-.35.06-.71,0-1.05.1a33.76,33.76,0,0,0,.71,3.43,4.38,4.38,0,0,0,2.18.19c-.11-1,1.05.15.82-.86l-.54-.63c.31,0,.56-.11.57-.48a7.19,7.19,0,0,0-1.09-1.34c.31,0,.87.08,1.13-.34l-.29-1.07a3.26,3.26,0,0,0,2.46,1.49c.31-.37-.3-.88-.11-1,.12.19.36.69.67.7a4.89,4.89,0,0,0,.33-3.73c.12.38.32-.12.51-.11a23.48,23.48,0,0,0,1,3.82c.69-.49.34,1.31,1.48.59.19-.25-.36-.69.14-.87,2.37.05,4.77-1.76,6.8-3.15-.26.49.28,1.25-.23,1.74-.77.85-3,1.11-2,2.69a6.25,6.25,0,0,1-.14,3.75A30.66,30.66,0,0,1,341.14,75c3.63-2.24,9.24-2.2,12.86-4.42,5.43-3.35,13.55-10.47,15.47-8.73,1.59,1.43-5,8.94-7.37,14-.05.11-.08.22-.12.32a4.92,4.92,0,0,1,.15,2.73,2.92,2.92,0,0,0-.34.29c.18.3.11.83.56,1a1.91,1.91,0,0,1,1.59-.3c-.46.52.25.73.46,1-.76.79.67,1.39.12,2.1.19,0,.44-.18.53.06-.27.32-.88-.11-.88.55.08.28-.38.53-.11.83.1.17.54,0,.43.29-.6.15-1,.87-1.45,1.36-.3.27-.61-.35-.79.17,0,.23.34.39.19.68-.36,0-.76,0-1.18-.05a7.07,7.07,0,0,1-.4,1c-1,1.8-3.51,2.82-5.93,3.82a1.71,1.71,0,0,1-.26.6,15.64,15.64,0,0,0,.77,2.6c-.63.1-1.16.12-1.45.73.08.41.11.85.18,1.25-.25.28-.66,0-.84.42l.14,1c-.67.13-1.4,0-1.86.51-.52.32-.11.86-.08,1.3-.33.17-.65,0-.9-.16a2.06,2.06,0,0,0-1,.27,11.15,11.15,0,0,0,1.93,3.35,1.65,1.65,0,0,1,.8-.49c.27.65,1.36,0,1.13.88.67-.15.41.7.47,1.1a1.21,1.21,0,0,1-.36.76c1.18,1,3.83,1.66,9.22-1a6.4,6.4,0,0,0,1.84-1.46,1.37,1.37,0,0,1-.45-.64,1,1,0,0,1,.73-.6,1.54,1.54,0,0,1,.74,0c1.6-2.07,3.15-4.68,5.48-6.15a.2.2,0,0,1-.07-.06c.13-.49.89-.91.78-1.54l-1.11-.7a9.19,9.19,0,0,1,.24-2c-.47.19-1.42,0-1.39.78a2.34,2.34,0,0,1-1.13-.15c-.41.33-1,.49-.89,1.35-1.25.09-2.77,1.37-4.17-.09-1.05-.4.1-1.75-1.27-1.59a1.54,1.54,0,0,0,.64-1c0-.31-.54-.58-.35-.88.5-.36,1.32-.66,1-1.41.62.32,1-.17,1.2-.72.53,1.25,1.39-.78,2,.41a.49.49,0,0,1,.28,0,1.52,1.52,0,0,1,.23-.5c1,.44,1.51-1.55,2.27-.27.6-.93,1.26.34,1.79.71a1.89,1.89,0,0,1,.44,1,7.64,7.64,0,0,0,.19-2.88,9.88,9.88,0,0,0,2.08-3.94c.56.32,1,.64,1.61.34.2-.37.46-.73.65-1.1.38-.06.55.38.93.21l.52-.86c.61.32,1.1.89,1.79.78.62.08.63-.61.89-1,.37.08.49.45.61.7.48.51,1.79.35,1.9,1-.37.18-.38.55-.14.87s.81-.11,1.11.27c-.47,1.38.22,1.41.35,2.5.44.11.9.24,1.36.38l.41-.15c0,.18-.06.21-.17.22l.36.11a11.37,11.37,0,0,0,2.14-.35,9.16,9.16,0,0,0-3.4-1.79,9,9,0,0,0-2.65-3c.45-.37.85-.62.8-1.25-.25-.28-.48-.61-.73-.89.07-.33.5-.34.47-.71l-.56-.71c.46-.41,1.1-.64,1.22-1.25s-.31-.72-.54-1.06c.18-.29.53-.27.78-.29.58-.25.86-1.4,1.47-1.27,0,.37.34.5.68.39s.2-.5.37-.7a6,6,0,0,1-.18-.82c-2.24-1.3-3.41,2-5.76.87a1.59,1.59,0,0,1,.15-1.51c.77-1.21,2.5-1.08,3-2.46-.47-.41-1.14-.67-1.32-1.31-.2-1.86-.82-3.86-.84-5.4.83,0,1.57.73,2.3.47-.18-.63.84-1,.13-1.64.21-.63,1-.48,1.54-.42.37-.83-2.16-2.29-.54-2.3.42-.56.72.53,1,.65a1.59,1.59,0,0,0-.17.59c1.74.72,3,2.12,4.6,2.94,0,0,0,0,0-.06l.45,0c1-1.09.59-2.84,1.46-4.16.3.38-.16,1.2,0,1.75l.92,1.08a2.31,2.31,0,0,1,.55-.2s0,0,0,0a.37.37,0,0,1,.29-.53c.26,0,.5.25.37.46l-.14.08c.89.1,1.51.95,2.47.85-.16.28-.73.56-.87,1-.59.4-.23.78,0,1.19a1.79,1.79,0,0,1,.72.75c.08.23-.06.32-.21.4.49.16,1.14.1,1.61.29.56-.58,1.36-.35,1.8-1,.69-.31.25.73.62.91-1.18.57-2.69.81-3.71,1.68l.15.18a.88.88,0,0,1-.39.49c.1.41-.95.38-.27.91l.81.15a.48.48,0,0,0-.14.73,7.52,7.52,0,0,0,1.66.34c-.2.24-.71.48-.65,1l.88.64a3.19,3.19,0,0,0-2.8.38c0,.48.77.49.7.7-.21-.07-.71-.31-.95-.12a5.18,5.18,0,0,0,.3.92c.65.06,1.32.08,2,.08s.71-1.46,1.4-.64c.13,1.24-1.47,1.75-1.66,2.7h0a1,1,0,0,0,0,.49,28,28,0,0,1,2.26,4c.09,1-1.64.07-1.13,1.35.25.1.63.07.8.38-.34.41-1.33-.11-1.38.77.13.41.87.23.62.85-.42.43-.94-.5-1.34.19-1.1.64.46,1,.14,1.61a1.28,1.28,0,0,1-1.06-.36,4,4,0,0,0-1.51,1.08,1.94,1.94,0,0,1,.51.81c3.28-1.89,6.6-3.68,9.79-5.51s6.15-4,9.09-5.76c-.26-.59.06-1.26-.33-1.81.23,0,.59.25.89.2.73.36.57-.78,1.22-.69.2-.47-.27-1-.33-1.49-.55-.14-.68-.71-1.22-.75-.42-.32.36-.41.35-.69.85.6,1.58,1.61,2.67,1.8.09-.32.24-.25.38-.17.09-.16.17-.32.25-.49l-.07-.22a.47.47,0,0,0,.16,0l.24-.53a3.28,3.28,0,0,0-.27-.8,2.57,2.57,0,0,0,.55.15c1.23-2.94,2.12-6.16,4-7.06,6.1-3,13.64,0,14.48,1.23,1.21,1.78,1.89,9.07-1.49,14.4-2.06,3.23-8.84,4.09-11.38,7.69s-3,8.51-5.11,11.75c-2.79,4.36-9.44,9.36-11,12,.41.1.95-.09,1,.36a8.48,8.48,0,0,0-1.23,1c1.29,2.32,6.28,6.38,2.14,11.14-2.84,3.25-11,2.55-13.83,5.82a10.44,10.44,0,0,0-2.77,7.5,1.77,1.77,0,0,1,1.26.88c.66.26,1-.64,1.38-.75,1-.19.8,1.32,1.78,1.37a2.74,2.74,0,0,1,2.15-1c-.45.91.63.94,1,1.18-.79,1.41,1.48,1.74.95,2.95.28-.09.58-.41.79-.1-.27.55-1.29.17-1.06,1.11.22.37-.34.9.17,1.23.19.2.77-.21.71.25a2.9,2.9,0,0,0-1.06,1.4c.24.11.47.21.71.34,3.75,1.89,12.12,5.78,13,9.2l-27.39,7.42c.47,1.84,11.75-4.62,17.68-4,2.12.23,4.07,5.87,6.25,10.14a2,2,0,0,0,1.49-.4c-.18-.55-.59-1.06-.44-1.65.71-1.58,1.15-3.46,1.84-4.69.68.36.91,1.3,1.61,1.44.16-.59,1.15-.43.87-1.25.46-.4,1,.09,1.42.38.68-.48-.66-2.82.64-2.08.59-.25.33.76.47,1a1.53,1.53,0,0,0-.41.39A19,19,0,0,1,421,164.9a4.2,4.2,0,0,0,2.07.23c0-.47.2-.45.43-.41l.39-.45-.49-.6c.3,0,.56-.09.58-.46a7.44,7.44,0,0,0-1-1.36c.31,0,.86.11,1.13-.31l-.25-1.06a3.2,3.2,0,0,0,2.39,1.55c.32-.35-.26-.87-.07-1,.11.19.33.7.64.72a4.85,4.85,0,0,0,.45-3.68c.1.37.32-.11.5-.1a23.1,23.1,0,0,0,.84,3.82c.7-.46.29,1.31,1.44.63a.25.25,0,0,0,0-.21,1.26,1.26,0,0,0-.88-.26c-.19-.33-.07-1.08-.69-1-.24-1.18.53-1.72,1.39-2.42.62.12,1.41-.13,1.89.18-.25.81,1.28,1,.38,1.67.48.24.28.58,0,.9a21.27,21.27,0,0,0,4.86-2.61c-.27.48.24,1.25-.28,1.71-.78.82-3,1-2.06,2.61a5.49,5.49,0,0,1,.08,2.39c1.91-2.22,3.71-4.21,5.25-4,6,.64,1.83,7.41,2.08,9.31a3.59,3.59,0,0,0,.78,1.53,5.47,5.47,0,0,1,1.35-.55c.79-1.77-1.77-2.39-1.11-4.23a1.18,1.18,0,0,1,1.14,0c1,.48,1,1.79,2.08,2,.27-.38.41-.9.87-1.09,1.38-.29,2.83-.91,4-1,.09.62-.42,1.23-.17,1.76.46-.19.84.54,1.24,0,.49.11.44.73.43,1.12.65.21,1.55-1.79,1.68-.58.45.27-.34.58-.41.77a1.23,1.23,0,0,0-.46-.07c-.42,1.42-1.46,2.47-1.92,3.87.9.87,2.28.31,3.41.89-.27.26-.91,0-1.31.17l-.74.76c.73,1.1-.4,1.72-.19,2.68-.23-.11-.48-.51-.8-.58-.35-.41-.61-.11-.9.09.42.18.66.58,1,.84a2.49,2.49,0,0,1,.14.89.19.19,0,0,1,0,.31l-.09.06a1.78,1.78,0,0,1-.28.52c-.2.28-.52.28-.79.35.18.34-.17.32-.43.38h0a.29.29,0,0,0-.21.15c-.09-.15-.17-.3-.25-.46s-.44,0-.56-.18c-.34-.45-.81-.91-.65-1.58l.13-.2a2.62,2.62,0,0,0-.55-.5c-.47.58-.48-.63-.89,0l0,.62a.36.36,0,0,0-.56-.05,5.32,5.32,0,0,0-.12,1.27c-.2-.13-.42-.5-.78-.41l-.41.71a2.44,2.44,0,0,0-.5-2.07c-.36,0-.31.62-.47.58,0-.16.17-.55,0-.72a3.65,3.65,0,0,0-2.13,1.78c.14-.26-.22-.11-.32-.21.22-.37.48-.74.73-1.12-2.63.94-7.68-1.89-11.17-1.78a11.24,11.24,0,0,1-.94,1.37,2.93,2.93,0,0,1-.69-1l-.14,0c-3.43,1.82-4.58,8-7.5,9.76-4.59,2.75-13.2,5.92-13.16,8,.07,3.49,13.08,3,16.47,6.51s-4.43,10.26-4.76,13.78c-.09,1,.94,2,2.49,3.05.73-.87,2.09-.64,2.59-1.7-.34-.37-.86-.64-1-1.17,0-1.53-.32-3.2-.2-4.45.68.06,1.21.73,1.82.59-.09-.53.77-.76.25-1.32.23-.49.87-.3,1.28-.2.37-.64-1.54-2.05-.23-1.91.39-.42.54.49.73.61a1.22,1.22,0,0,0-.19.46c1.41.78,2.29,2.12,3.66,2.92,1.12-.75.85-2.34,1.73-3.4.21.34-.23,1-.13,1.42l.65,1c1.32-.52,1.72.81,2.78.81-.16.22-.64.39-.79.72-.84.45.36,1.07-.18,1.63.32.51,1.14.42,1.65.69.51-.43,1.13-.17,1.54-.65.59-.18.14.62.43.8-1.16.41-2.61.42-3.52,1.33.5.63-.78.36-.19.93l.64.19c-.21.14-.33.32-.17.58a6.1,6.1,0,0,0,1.31.43c-.18.17-.62.32-.61.72l.66.59a2.63,2.63,0,0,0-2.31.07c-.05.38.58.46.51.63-.17-.08-.55-.32-.76-.18a2.23,2.23,0,0,0,0,.23,4.48,4.48,0,0,0,2.75,1,1.2,1.2,0,0,1,.3,1.11c-.62,1,.7,1.85.54,3-.12.51-.69,0-.91.44.2.14.33.38.51.46-.21.1-.7-.2-.82.25a2.94,2.94,0,0,0,0,1.32c-.67.66-2.59-.46-2.17,1.23-.21-.26-.12-.73-.45-.82s-.41,1.39-1.09.75a.43.43,0,0,1,0-.05c-2.77,2.77-9.41,5.23-10,8-.72,3.42,11.64,5,14.31,9.73s1.06,14.39-.06,17.76c-.76,2.3-7.13,5.12-13,6,.56.95.08,2.48,1.2,2.89a12.19,12.19,0,0,1,1.69.11c.22-.17.58-.28.77-.41a1.76,1.76,0,0,1,1.44.19c.2.23.31.54.68.63v0l.18,0c.49.3.15.7,0,1.07a2.25,2.25,0,0,1-.08.24c0,.2.08.37.54.5.25-.16.45-.49.83-.44.12.54-.94,1.05-.23,1.65.44.15.74-.59,1.11,0,.11.62-1,.48-.68,1.24-.15,1.33,1.1.22,1.45.9a1.38,1.38,0,0,1-1,.67,4.22,4.22,0,0,0,0,1.95,2,2,0,0,1,1.2.16c-.56.55-1.67.75-2.09,1.63-.17.86,1,.15.74,1-.46.15-1.18-.24-1.62.17v1.24l-.4.22.43.08c-.06.45-.3.87-.08,1.27s.51.25.79.32c0,.25-.16.4-.29.53a.46.46,0,0,0-.05.21,1,1,0,0,0,1.21-.11c.72.93,2.51,1.49,2.06,3.35.23,1-1.43.81-.6,1.81a1.47,1.47,0,0,0-1.16,0c-.25.15-.17.72-.51.73-.55-.22-1.2-.71-1.61-.05-.05-.5-.41-.64-.83-.62a5.85,5.85,0,0,1,.73,1.35c-.14-.16-.47.12-.46.16l-1.19-1.77a6.92,6.92,0,0,0-4.79,2.13c-.44.33.3,1.14-.46,1-.76-.72.22-2-.6-2.52a22,22,0,0,1-3.12-1.12c-.51-.51.88-.81,0-1.28-.2.06-.39.26-.63.17,0-.38.79-.57.4-1.08-.27-.16-.58.29-.74-.17,0-.44.75-.17.65-.73.3-.87-.71-.32-.84-.83a.94.94,0,0,1,.76-.3,4.74,4.74,0,0,0,.31-1c-.39,0-.81,0-1.2.05-.24-.26,0-.63-.31-.84l-1,0c-.06-.65.15-1.33-.29-1.82-.26-.53-.81-.19-1.23-.2-.14-.33.1-.62.24-.84.15-.65-.64-1.6-.15-2,.33.2.63,0,.76-.33,0-.4-.5-.59-.36-1,1.5-.37.89-1,2.14-1.79.05-.59-.64-.92-1.06-1.28.27-.23.28.24.49.25-.65-1.39-2.08-2.16-2.91-3.51.25.19.63-.32.6-.37l2.26,2.12c2.74-.59,4.44-2.32,6.08-4.57.26-.3.07-.67-.05-1l-.77.08c-4.28.35-9.52-4.81-13.82-4.46-6.2.49-8.55,4.82-9.64,7.19s-6.89,10.08-3.1,15.25c2.6,3.57,9.42,4.66,12,8.21,3.82,5.25,3.19,4.9,1.81,7.17s5.41,9.72,6.64,14.55a8.42,8.42,0,0,0,2,3.33,1.56,1.56,0,0,1,0-.57c.19-.56.78.07,1.06-.4-.2-.18-.32-.46-.52-.57.25-.08.76.3.95-.2a3.22,3.22,0,0,0,.08-1.48c.82-.67,2.85.79,2.55-1.14.21.3.06.83.42,1,.54,0,.59-1.52,1.29-.74,0,.19.06.42.31.33.61,0,.38-1,.9-.89.12.76.8,1.28.47,2.07.2.53.91.26,1.18.43.65.5-.36,1.18.13,1.78a2.24,2.24,0,0,1,1.75.74c-.38.11-.44.33-.4.56.35-.24.65-.67,1.13-.56,1.07.17,2.43,1.82,3.16.2a6.33,6.33,0,0,1,4.53-2c1.46-2-1.57-3.44-.25-5.56a1.49,1.49,0,0,1,1.42.3c1.08.85.77,2.48,2,3.08.44-.4.75-1,1.38-1.12,1.79,0,3.76-.38,5.22-.25-.06.8-.85,1.42-.68,2.14.62-.1.89.9,1.55.29.58.26.35,1,.24,1.51.75.43,2.39-1.82,2.24-.28.49.46-.58.63-.72.85a1.38,1.38,0,0,0-.54-.21c-.91,1.66-2.48,2.69-3.42,4.3C448.13,327.61,450,327.29,451.25,328.31Zm-20.87-34.1a.38.38,0,0,0-.19-.34ZM110.57,71.86c-.51.31-.94.64-.9,1.25a14.89,14.89,0,0,1,.83,2.38A15.33,15.33,0,0,0,110.57,71.86Zm-.94,6.66c.13.08.3.14.44.23l.12-.91C109.84,77.82,109.52,77.84,109.63,78.52Zm-5.41-11.19c1.54,2,3.61,2.79,6.09,3.32a5,5,0,0,0-.35-.86C109.21,68.38,106.92,67.74,104.22,67.33ZM109.85,81a1.38,1.38,0,0,0,.07,1.15,14.52,14.52,0,0,1,.11-3c-.44,0-1-.3-1.2.37,0,.43.79.41.42,1a.41.41,0,0,1-.5,0,.63.63,0,0,0,.16.39C109.23,81,109.57,80.68,109.85,81Zm4.76,10c-.62-.94-1.24-1.88-1.83-2.8a15.39,15.39,0,0,0,1,2.42C113.87,91,114.31,90.93,114.61,91ZM79.36,109a1.13,1.13,0,0,0-.77.19l0,.07C78.84,109.07,79.16,109.08,79.36,109Zm10.11-2.22h0Zm13.62,26.66a4.24,4.24,0,0,1-.12.74A.53.53,0,0,0,103.09,133.39Zm8.12,233.9-.13-.19A.59.59,0,0,0,111.21,367.29Zm147.48,20.35a1.78,1.78,0,0,1-.12-1.11.82.82,0,0,0-.37.76A2.61,2.61,0,0,1,258.69,387.64Zm27.49-31.48a2.36,2.36,0,0,0,.39-.73c-.24,0-.44.14-.51.51A.34.34,0,0,0,286.18,356.16Zm.67-1.52a2.15,2.15,0,0,0,1.24-.24c.22-.24.12-.38,0-.5C287.61,354.12,286.68,353.66,286.85,354.64Zm-1.76,3.81a.38.38,0,0,0,.25-.34c.54-.71-.16-.72-.5-1C284.23,357.53,285,358,285.09,358.45ZM425.45,220.1c.94.55,1.94,1.11,2.94,1.68a6.63,6.63,0,0,1-.38-1.84C427.08,219.25,426.28,219.72,425.45,220.1Zm-12.23-49.27q.3.42.6.78l0-.1A1.82,1.82,0,0,0,413.22,170.83Zm-25.1-83.51c2.52.79,5,1.41,6.52.5l.42-.23c-.66-.22-1.37-.76-2.17-.61-.74.36.45.84-.33,1.13-.37-.27-.48-1-1-1.14l-.95.71a8.76,8.76,0,0,1-1.3-.65ZM371,91.45l.12-.51A1,1,0,0,0,371,91.45ZM325.8,84.88a4.55,4.55,0,0,0,1,1.36.86.86,0,0,0,.44.15,8.75,8.75,0,0,0-.63-1.68A2.47,2.47,0,0,0,325.8,84.88ZM323.44,79c.09.27.17.54.26.81l.07,0A1.22,1.22,0,0,0,323.44,79ZM141.8,291.49a4.81,4.81,0,0,1-.52,2.08,5,5,0,0,1,4.33,1.15A17.06,17.06,0,0,0,141.8,291.49Zm97.67,97a3.27,3.27,0,0,0,.75-.78.51.51,0,0,0-.5-.27C239.65,387.81,239.56,388.16,239.47,388.5ZM137.24,288.79a5.59,5.59,0,0,0,.08.59c.6-.25,0,1,1,.68.14-.11,0-.39.08-.53C138,289.3,137.63,289.05,137.24,288.79Zm8.25,69.08-.6.2a1.63,1.63,0,0,0,.4.15A1.37,1.37,0,0,1,145.49,357.87Zm36.32,9.69A5.32,5.32,0,0,0,181,367q.14.34.3.69A1.63,1.63,0,0,0,181.81,367.56Zm31.08,29.32a3.66,3.66,0,0,1-.1-.56l-.61.37C212.39,396.85,212.6,397.05,212.89,396.88Zm1.56-1.48a16.33,16.33,0,0,0-1.46.8c.21.19.45.41.77.14A2.56,2.56,0,0,0,214.45,395.4Zm26.41-4.52a4.56,4.56,0,0,0,.71.24c0-.12,0-.23-.33-.32Zm-.59-.63a7.54,7.54,0,0,0-1.59.3c-.12.23-.24.47-.35.71a6.06,6.06,0,0,0,2.1-.55l.09,0A.44.44,0,0,0,240.27,390.25Zm-.4-3.6-.12.66a.63.63,0,0,0,.48-.22A4.94,4.94,0,0,0,239.87,386.65Zm186.84-84.79c-.52-.51-1.56-.42-2.3-.72-1.26.64-2.36,1.1-2.38,2.63.8.07.45,1,.6,1.43.55,0,.8.4,1.17.66a2.56,2.56,0,0,0,2.09-.19c.4-.45,1.68-1,.85-1.63C428,303.46,426.19,302.8,426.71,301.86Zm19.12,31.65c-.3.39.27.66.57.47C446.85,333.71,446.09,333.14,445.83,333.51Zm6,4.84c-.13.35.28.79.58.61A.87.87,0,0,0,451.85,338.35Zm-2.4-42.76a.6.6,0,0,0,1-.11c.25-.5-.36-.6-.7-.81C449.32,294.7,449.23,295.24,449.45,295.59Zm14.11-3.72c-.37-.94,1.14-1.39.54-2.26-.27-.32-1.26-.26-1.3-1,.72-.86.08-1.78.23-2.76-.61-.32-.7,1-1.46.76-.34,0-.32-.29-.26-.53-.55-1.24-1.21.6-1.89.4-.39-.31,0-.9-.14-1.36-.39,2.51-2.33-.08-3.6.43a4.26,4.26,0,0,1-.69,1.79c-.42.54-.9-.13-1.24-.12.2.22.23.61.42.91-.54.47-1-.54-1.47.08-.85,1.41.45,3.3-.94,4.29a1.71,1.71,0,0,0-.22,1.66c2.06.66,3,2.92,4.11,4.22.49-.1.37-.64.64-.87.79-.28.34.68,1,.78,1,.07,2.25-.14,3,.42.47-.15-.17-.51-.06-.78.1-.62.84-.32,1.1-.68.78-.62.86.5,1.49.53.21-.34-.23-.48-.43-.7,1.37,0,.72-2.31,2.39-2.16.07-.46-.37-1.5.69-1.46A2.87,2.87,0,0,0,463.56,291.87Zm-24.74,8.37a1.62,1.62,0,0,0-1.51.79c0,.51-.33,1,0,1.58.28.79,1.34.62,2,.61.61-.23.71-.85.88-1.36s-.51-.72-.17-1.07C439.46,301,439.38,300.24,438.82,300.24ZM403,344.71l-.09.1c-.05.2.12.28.28.3S402.81,345,403,344.71ZM419,362.59l-.23.28c-.17.33-.27.72.13.95s.27-.25.42-.42C419.28,363.18,419.47,362.69,419,362.59Zm5.63-11.2c.31-1.4,1.22-2.52,1.5-3.95a1.14,1.14,0,0,1,.45,0c.05-.2.79-.57.33-.79-.25-1.17-.93.87-1.58.72,0-.38,0-1-.53-1-.34.6-.77-.07-1.2.15-.3-.49.14-1.13,0-1.73-1.1.24-2.46,1-3.77,1.4-.44.22-.53.74-.75,1.14-1.07-.14-1.23-1.41-2.22-1.79a1.16,1.16,0,0,0-1.11.11c-.47,1.86,2.09,2.22,1.48,4a4.86,4.86,0,0,0-2.86,2.54c-.15,1.36-1.53.47-2.36.59-.51,0-.55.71-.93.87,1.78.16,4,.26,5.26,1.38.36.13.26-.37.48-.42,1,.12-.06,1,.56,1a18.43,18.43,0,0,1-1.22,2.59c.1.09.44-.09.33.17a3.54,3.54,0,0,1,1.91-1.93c.17.14.07.54,0,.7.16,0,.06-.55.4-.61a2.38,2.38,0,0,1,.69,2l.33-.73c.35-.12.59.21.79.33a5.21,5.21,0,0,1,0-1.25.34.34,0,0,1,.54,0v-.61c.34-.66.45.51.86-.09,1,.53,1.44,1.78,2.11,2.66.08-.29.89-.13.57-.58-.53-.22-.48-.83-1-1.15.09-.52-.22-1.2.14-1.61.63.31.83-.89,1.45-.3.32,0,.61.41.84.49-.29-.91.74-1.63-.07-2.63l.65-.81c.37-.22,1,0,1.26-.29C426.88,351.48,425.59,352.15,424.64,351.39Zm.63,5.62c-.13.37.35.43.53.22S425.37,356.69,425.27,357Zm5.54,2.16c0,.29.39.52.56.31A.65.65,0,0,0,430.81,359.17Zm1-87.43c.13-.13,0-.27-.08-.36s.21.23,0,.4ZM411.16,277c-.24.29.16.46.35.65.27,0,.41-.31.32-.58A.42.42,0,0,0,411.16,277Zm-2.64,4.52c.79-.82.2-2.29,1.29-2.74a1.17,1.17,0,0,0,.4-1.07c-1.28-.76-1.55-2.42-2.12-3.47-.34,0-.34.37-.56.49-.57.07-.13-.51-.52-.68-.67-.2-1.54-.24-2-.74-.33,0,0,.37-.08.54-.16.4-.61.08-.84.28-.62.3-.5-.47-.92-.58-.19.19.08.36.18.54-.92-.2-.84,1.43-1.94,1.08-.11.3,0,1.06-.68.87a2,2,0,0,0,1,1.37c.1.69-1,.76-.71,1.43.13.26.81.37.72.87-.61.46-.33,1.18-.58,1.82.36.3.62-.56,1.1-.29.23.05.16.24.09.39.18.92.91-.22,1.33,0,.22.27-.14.6-.11.94.64-1.63,1.55.41,2.48.26a2.86,2.86,0,0,1,.74-1.1c.36-.3.58.23.81.28-.1-.18-.06-.45-.14-.68C408,281.13,408.12,281.88,408.52,281.53Zm10.41-6.5c.42,0,.38.47.75.55a1.09,1.09,0,0,0,1.13-.3c.1-.33.38-.64.24-1.06-.07-.57-.81-.62-1.27-.72-.45.07-.61.46-.8.78S419.21,274.85,418.93,275Zm23.31-52.61.21.34c.29.29.67.53,1.05.18s-.17-.37-.3-.58C443,222.34,442.49,222,442.24,222.42ZM438.47,214c.33.27.56-.22.4-.48S438.16,213.73,438.47,214Zm4.65-5.6a.73.73,0,0,0-.52.5C442.9,209,443.28,208.61,443.12,208.35Zm-6.29-18.27c.12-.31.18-.67-.2-.84s-.22.24-.34.41c.06.19-.06.64.35.69Zm17.67,18.23c-.52.18-.55-.48-.76-.74-.35.15-.61,0-.91-.11a1.8,1.8,0,0,0-1.28.67c-.14.4-.81,1.06-.11,1.26-.66.72.68.64.6,1.38.46.18,1.1-.15,1.65-.16C454.32,209.87,454.89,209.29,454.5,208.31ZM431,195.65c-.21.3.42.45.49.15S431.18,195.45,431,195.65Zm32.59,27.65c-.36-.11-.89-.14-1-.52.59-.82,0-1.08.88-1.71,0-.31-.37-.31-.5-.55s.13-.46.4-.41c.19-.41-.57-.8-.64-1.25,0-.18.1-.43-.07-.6-.27.1-.53.46-.84.2s-.45-.68-.66-1.08l-.59.27c-.27,0-.21-.34-.43-.45-.24.13-.51.23-.75.35-.44-.07-.55-.39-.73-.77a6.45,6.45,0,0,1-2.55,1.34c-.76,1.54-2.25,2.11-3.21,3.51l.33.78c-.17.37-.72.32-1,.54.07.59.61-.16.74.42,0,.67-.69,1.1-.9,1.59a1.34,1.34,0,0,0,.8-.21,2.8,2.8,0,0,1,.5,1.24.94.94,0,0,0-.44.68c.4.34.9-.69,1.16.19.41.39-.34.6-.1,1s.39-.27.7-.29c.61.19.07.79.3,1.1.25-.07.29-.33.41-.5,1-.13,0,.92.74,1a20.47,20.47,0,0,0,3.18-.9c1-.05.92,1.55,1.95,1.7.7-.35-.38-.57-.21-1.09a6.93,6.93,0,0,1,2.64-4.51l2,.74s.07-.44.28-.39c-.88-.64-2-.74-2.78-1.45C463.39,223.23,463.53,223.52,463.63,223.3Zm-37.72-29.2a.57.57,0,0,0,.53.23C426.42,194.07,426.05,193.9,425.91,194.1Zm26.74,23.15c.11-.85-1.09-.08-.91-.94-.31.22-.7.34-.91-.06-.08.54-.62.39-1,.4-.21.1,0,.44-.13.6a1,1,0,0,1-.73.32c.79.42-.31.72.1,1.32.22,1.29,1.5,1.17,2.2,1.57.38-.81,1.16,0,1.48-.82.7-.49,0-1.06.34-1.64C452.71,217.85,453.12,217.35,452.65,217.25Zm-13.93,3.85c0,.38.39.29.66.33.24-.13.15-.49-.08-.65A.41.41,0,0,0,438.72,221.1ZM444.8,215a1.12,1.12,0,0,0,.75-.9c-.12-.33-.07-.74-.43-1-.39-.43-1,0-1.45.15s-.22.73-.19,1.1.51.32.39.63C444.21,214.73,444.45,215.15,444.8,215Zm-17.38-34.37.06.45c.17.43.45.85,1,.67s0-.46,0-.74C428.19,180.88,427.89,180.29,427.42,180.64ZM445,185.83c0-.23.21-.71-.24-.85l-.27.25c-.2.33-.34.71,0,1S444.78,186,445,185.83ZM421.35,148c.33-.06.69-.41,1,0s.37.86.52,1.35l.72-.18c.29.11.15.43.38.6.3-.09.62-.15.92-.24.48.17.54.56.66,1a7.43,7.43,0,0,1,3.16-1c1.17-1.58,3-1.89,4.35-3.26l-.21-1c.27-.39.89-.21,1.22-.4.05-.68-.72.05-.74-.63.18-.75,1-1.09,1.35-1.6a1.55,1.55,0,0,0-1,.07,3.16,3.16,0,0,1-.29-1.51c.26-.12.59-.37.63-.67-.38-.46-1.15.6-1.26-.45-.38-.53.51-.61.32-1.07-.38-.4-.49.22-.85.18-.65-.35.09-.92-.1-1.31-.29,0-.4.31-.57.47-1.14-.06.16-1-.62-1.32a24,24,0,0,0-3.76.34c-1.1-.16-.7-1.94-1.83-2.33-.86.24.3.73,0,1.27-.9,2-1.92,3.61-3.93,4.51l-2.09-1.26s-.17.49-.4.38c.86.91,2.09,1.26,2.82,2.22-.16,0-.25-.33-.42-.1.38.2,1,.35,1,.8-.83.8-.25,1.21-1.34,1.73-.05.36.34.44.44.73s-.24.49-.54.38c-.3.42.47,1,.46,1.55C421.33,147.55,421.19,147.81,421.35,148ZM457,182.66c0,.3.35.57.55.38A.68.68,0,0,0,457,182.66Zm-20.2-32.42c0-1.5-1.43-1.64-2.14-2.24-.6.83-1.29-.29-1.84.61-.89.4-.19,1.2-.73,1.78.36.23-.21.71.31.92-.32.94,1.2.32.82,1.26.39-.19.85-.24,1,.25.21-.58.79-.31,1.25-.23.26-.06.11-.49.27-.65a1.2,1.2,0,0,1,.89-.21C435.86,151.09,437.17,151,436.83,150.24Zm11.35-.06a.48.48,0,0,0,.73-.24c.1-.42-.39-.4-.68-.51C447.94,149.52,448,150,448.18,150.18ZM456,141.3c-.26.06-.29-.17-.29-.37-.63-.86-.83.67-1.38.62-.35-.17-.15-.69-.34-1,.12,2-1.8.32-2.69.92a3.43,3.43,0,0,1-.23,1.49c-.24.49-.72.05-1,.11.2.14.29.43.48.63-.34.45-.88-.25-1.12.3-.42,1.23.89,2.47,0,3.46a1.34,1.34,0,0,0,.09,1.31c1.7.17,2.77,1.76,3.86,2.57.36-.16.17-.55.34-.78.57-.34.38.47.87.45.79-.11,1.71-.48,2.39-.17.33-.19-.22-.37-.18-.59,0-.49.59-.38.73-.7.51-.61.75.24,1.24.16.1-.3-.25-.34-.45-.47,1-.24.18-1.89,1.49-2.05,0-.36-.53-1.09.29-1.24a2.29,2.29,0,0,0-1.71-.92c-.44-.66.65-1.26,0-1.82-.25-.21-1,0-1.16-.55.41-.78-.23-1.38-.27-2.17C456.51,140.33,456.65,141.35,456,141.3Zm-15.25,14.2a1.27,1.27,0,0,0-1,.86c.06.39-.08.84.27,1.21.34.56,1.13.25,1.66.14.43-.29.41-.78.45-1.2s-.51-.47-.31-.79C441.38,155.94,441.2,155.41,440.78,155.5Zm11.93,5.8c0,.19.44-.16.54.28v-.18C453.15,161.14,452.9,161.19,452.71,161.3Zm-32.64-7.08c-.5.16-.09.49-.11.8.24.19.45.89,1,.61l0-.49C420.91,154.64,420.69,154.13,420.07,154.22Zm39.56,13.59c.2-1.47.46-2.69-.85-3.63-.53.65-1.1-.19-1.58-.34-.34.48-.83.45-1.27.61a2.66,2.66,0,0,0-1.1,1.91c.15.63-.18,2,.89,1.72-.27,1.47,1.41.27,1.9,1.28C458.37,169.22,458.92,168.26,459.63,167.81Zm27.47,8.83c-.06,0-.27-.63,0-.74-1.66-.09-3.18.69-4.77.41.13-.18.55.09.51-.28-.57.16-1.27.55-1.74.15.09-1.54-.85-1.41-.27-2.92-.29-.38-.74-.1-1.09-.3s-.21-.7.17-.86c-.09-.68-1.39-.57-1.86-1.09-.1-.25-.21-.63-.57-.71-.27.35-.31,1-.92.93-.68.09-1.14-.49-1.74-.84l-.54.84c-.38.16-.55-.28-.92-.24-.2.36-.47.72-.68,1.07-.63.28-1-.05-1.58-.39A9.83,9.83,0,0,1,469,175.5c.29,2.6-1.18,4.56-1.27,7.15l1.07.74c.09.62-.67,1-.82,1.49.58.72.66-.7,1.3,0,.5.9,0,2,.15,2.79a2,2,0,0,0,.85-.94,4.4,4.4,0,0,1,1.67,1.21,1.4,1.4,0,0,0,0,1.23c.8.11.59-1.63,1.64-.71.86.17.07,1.05.67,1.34.74,0,.28-.67.67-.95.94-.26.75,1,1.29,1.18.26-.29.1-.67.12-1,1.17-1,.8,1.15,1.81.72a31.32,31.32,0,0,0,3.36-3.77c1.22-.85,2.46,1.26,3.92.6.61-1-1-.43-1.16-1.24-1-2.77-1.44-5.27-.3-8Zm-27.54,2.16c-.2.29.34.57.33.88a1.53,1.53,0,0,1-.68,1c1.37-.11.18,1.18,1.21,1.61,1.33,1.5,2.88.29,4.12.23-.17-1.36,1.53-.9,1.24-2.27.5-1.21-.91-1.35-.92-2.4-.56.09-.44-.89-1.13-.62-.55-1.21-1.47.78-2-.48-.22.54-.61,1-1.21.67C460.9,178.19,460.08,178.45,459.56,178.8ZM450,193.51c.21-.36-.2-.75-.64-.78a.64.64,0,0,0-.48.9C449.19,194.14,449.65,193.67,450,193.51ZM445.76,209c-1.11,0-.59-1.57-1.62-1.82a3,3,0,0,1-2.51.67c.67-.89-.49-1.14-.84-1.47a1.13,1.13,0,0,0,.12-1.39,1.49,1.49,0,0,1,0,.21,1,1,0,0,1-1,.19c-.9-.26-1.15-1.37-2.11-1.41-.17.37-.2.84-.57,1.07-1.13.48-2.28,1.24-3.24,1.55-.17-.53.16-1.13-.14-1.54-.36.23-.8-.33-1.06.23-.43,0-.49-.55-.55-.89-.59-.08-1,1.79-1.34.77-.44-.16.19-.55.22-.73a.9.9,0,0,0,.4,0c.14-1.29.86-2.36,1-3.63-.9-.61-2,.1-3.06-.22.18-.26.78-.13,1.09-.35l.51-.78c-.8-.82.06-1.54-.27-2.33.21.06.5.36.79.37.59.48.68-.61,1.26-.38.28-.4,0-1,0-1.45-.48-.24-.48-.79-1-.94-.32-.38.42-.3.46-.56.67.72,1.13,1.8,2.09,2.2.31-.58.51.46.76-.16l-.06-.54a.3.3,0,0,0,.48-.05,4.73,4.73,0,0,0-.1-1.11c.19.09.44.36.73.23l.24-.68a2.13,2.13,0,0,0,.77,1.7c.3-.08.16-.58.31-.57s-.06.5.1.62a3.16,3.16,0,0,0,1.54-1.88c-.07.25.21.06.31.13a16.06,16.06,0,0,0-.88,2.39c.55,0-.29.83.58.86.19-.06.06-.5.39-.41a6.94,6.94,0,0,0,3.95.8.73.73,0,0,0,.07-.17c0-.37-.58-.59-.37-1.07,1.8-.21,4.3.37,6.11-1a1.78,1.78,0,0,1,1.29,1.18c0,1.79,2.43,1.81,3.14,3.39.27.75-.89.57-.81,1.31.37,0,.73.23,1,.18-.2.3-1.07.31-.86,1a4.41,4.41,0,0,0,1.14,1.66c-.33,1.41-3.73,1.52-1.79,3.36-.49-.15-.76-.84-1.26-.69-.58.46.62,2.14-.79,1.87-.17-.19-.41-.39-.61-.09-.65.52.42,1.38-.22,1.71-.76-.72-1.93-.72-2.24-1.85C446.74,208,446.2,208.92,445.76,209Zm-4.11-10.1.17-.25A.69.69,0,0,0,441.65,198.85Zm-1.46,4.71a.93.93,0,0,1,.17-.59c-.21,0-.46.17-.65.14Zm.73-3a.16.16,0,0,0-.09-.07,5,5,0,0,1-1.57,1.17,1.33,1.33,0,0,0,.26,1.21c.42-.48,1.39.08,1.33-1C440.69,201.51,441.39,201.05,440.92,200.59Zm-35.68-126c.27-.45-.25-.42-.44-.67-.31,0-.92-.38-1.17.2l.3.39C404.33,74.83,404.83,75.06,405.24,74.59ZM397.9,64.28c.44.28.66-.35.43-.64S397.49,64.06,397.9,64.28Zm4.37-6.78c.38.09.79-.38.57-.68A.9.9,0,0,0,402.27,57.5Zm-45.19,7c.08.41.65.44,1,.17a.64.64,0,0,0-.22-1C357.3,63.53,357.26,64.18,357.08,64.55Zm-9.58-9.19c.14-.73-1.86-1.2-.63-1.92.26,0,.57,0,.53-.33.15-.81-1.22-.76-1-1.43,1.05,0,1.93-.72,2.9-.07.76-.12.58-1.15.89-1.46l.08,0a1.6,1.6,0,0,1,.2-1.44c.79-1.19,2.51-1,3-2.38-.46-.42-1.12-.69-1.29-1.32-.15-1.86-.72-3.86-.71-5.39.83,0,1.54.76,2.28.52-.17-.64.84-1,.15-1.63.23-.62,1-.46,1.54-.38.39-.81-2.09-2.32-.48-2.3.43-.54.7.55,1,.67a1.56,1.56,0,0,0-.18.58c1.8.8,3,2.33,4.76,3.16,1.29-1,.79-2.93,1.74-4.31.29.39-.18,1.19,0,1.74l.88,1.09c1.55-.77,2.19.81,3.47.7-.18.28-.74.54-.89,1-1,.64.55,1.26,0,2,.44.59,1.43.39,2.08.66.57-.57,1.36-.32,1.8-1,.7-.28.24.74.6.92-1.35.63-3.12.8-4.13,2,.68.71-.91.51-.13,1.15l.8.17a.47.47,0,0,0-.15.72,7.26,7.26,0,0,0,1.64.37c-.21.23-.72.46-.66,1l.86.65a3.22,3.22,0,0,0-2.8.32c0,.48.75.51.68.71-.21-.07-.69-.32-.94-.14a4.81,4.81,0,0,0,2,3.09c-.32-.22-.17.28-.32.39A23.86,23.86,0,0,0,364,51c-.25.79-1.06-.81-1.51.43,0,.31.7.32.41.76-1.57,1.16-2.37,3.37-3,5.41a.53.53,0,0,1,.43.38c-1.22,1.33-3.47,2.52-3.93,4.74a1.78,1.78,0,0,1-1.75-.05c-1.18-1.33-3,.23-4.57-.5-.69-.39.31-1-.24-1.52-.29.23-.7.31-.9.54,0-.35.6-.93,0-1.31a4.38,4.38,0,0,0-1.94-.51c-.67-1.27,1.81-3.58-.84-3.7C346.57,55.46,347.23,55.8,347.5,55.36Zm5.14-4.9a3.21,3.21,0,0,1,.14-.48,3.59,3.59,0,0,1-1.1.41A.94.94,0,0,0,352.64,50.46Zm3.1-1.21a1,1,0,0,0,.4.57c0-.14-.06-.27-.08-.41A1.59,1.59,0,0,0,355.74,49.25Zm9.33,27.49c.53,0,1.11.23,1.65-.18.79-.38.49-1.47.41-2.18-.32-.61-1-.65-1.52-.76-.39-.1-.7.61-1.09.3.23.59-.49.76-.44,1.34A1.7,1.7,0,0,0,365.07,76.74Zm72.85.86.05-.12c0-.19-.18-.22-.33-.19S438,77.29,437.92,77.6Zm-19.6-11.52.13-.32c.06-.34,0-.73-.39-.82s-.17.3-.26.5C417.91,65.62,417.88,66.12,418.32,66.08Zm19.5,15c-.05.44-.59,1.28.18,1.33-.53.89.85.51.93,1.29.52.08,1.11-.41,1.68-.54.48-.91.93-1.65.3-2.57-.49.3-.67-.38-1-.59-.33.23-.64.09-1,.09A1.86,1.86,0,0,0,437.82,81.09ZM414.28,72.9c0-.36-.44-.28-.54,0S414.28,73.23,414.28,72.9ZM442,96.26c.2.6.59-.3.85.27s-.46,1.29-.56,1.85A1.38,1.38,0,0,0,443,98a3.13,3.13,0,0,1,.8,1.18,1,1,0,0,0-.3.81c.5.25.77-.93,1.24-.08.52.32-.21.7.12,1s.34-.36.66-.46c.68.06.26.81.56,1.08.24-.13.23-.42.31-.61,1-.37.25.94,1,.89a20.87,20.87,0,0,0,3.08-1.65c1-.27,1.31,1.4,2.41,1.31.64-.51-.52-.5-.46-1.08,0-2,.31-3.77,1.7-5.27l2.24.31s0-.48.2-.47c-1.06-.46-2.24-.31-3.21-.87.13-.08.34.2.4-.06-.4,0-.95.06-1.17-.31.42-1-.22-1.12.52-2-.1-.32-.45-.24-.64-.46s0-.49.31-.51c.11-.47-.76-.7-.94-1.15,0-.19,0-.46-.21-.6-.26.17-.45.6-.82.39s-.63-.59-.94-1l-.55.42c-.28,0-.28-.31-.54-.37-.22.18-.47.35-.69.53-.48,0-.67-.28-.94-.63a6.76,6.76,0,0,1-2.33,2c-.43,1.77-1.85,2.7-2.52,4.36l.52.74C442.77,95.9,442.18,96,442,96.26ZM408.06,72.42a.62.62,0,0,0,.61.12C408.59,72.28,408.17,72.19,408.06,72.42Zm31.83,17.09c-.27.3-.64.51-.95.15,0,.57-.56.55-1,.65-.2.15.09.45,0,.65a1,1,0,0,1-.68.5c.92.25-.16.81.41,1.34.51,1.29,1.81.87,2.63,1.12.21-.93,1.21-.22,1.34-1.19.62-.66-.27-1.09,0-1.77-.39-.08-.08-.69-.6-.68C441,89.37,439.9,90.44,439.89,89.51Zm-11.63,8.13c.22-.19.05-.54-.23-.66a.43.43,0,0,0-.52.47C427.57,97.85,428,97.65,428.26,97.64Zm-9.09,3.63c0,.29.34.19.55.24-.8.58.54,1.67-.51,2.28.15.3.84.74.2,1.16a2.09,2.09,0,0,0,1.79.16c.62.41-.1,1.31.63,1.57.29.08.86-.37,1.19,0-.07.81.69,1.09,1,1.74.49-.07,0-.88.55-1.07.2-.14.31,0,.37.21.86.51.47-.87,1-1,.36,0,.37.53.65.74-.82-1.65,1.42-.92,2-1.76a3,3,0,0,1-.35-1.35c0-.5.6-.31.8-.45-.22-.05-.4-.27-.64-.37.13-.5.84-.1.85-.66-.09-1.2-1.66-1.78-1.25-3a1.26,1.26,0,0,0-.56-1.08c-1.51.47-3-.49-4.22-.79-.25.27.05.54,0,.79-.36.5-.5-.26-.91-.06-.62.38-1.27,1-2,1-.22.28.32.23.37.44.19.41-.37.54-.38.87C420.08,101.66,419.56,101,419.17,101.27Zm12.27-11.33c.29-.34.63,0,1-.19a1.17,1.17,0,0,0,.56-1.1c-.19-.32-.23-.75-.66-.94-.5-.35-1.06.2-1.47.49-.26.4-.07.81.05,1.18S431.5,89.6,431.44,89.94Zm-35.21-47v-.11c-.07-.15-.21-.12-.33-.06S396.17,42.64,396.23,42.9Zm-19-3.83,0-.29c0-.29-.17-.59-.54-.55s-.06.29-.07.47S376.85,39.23,377.19,39.07Zm-1.61,5.59c.45-.11.71.31,1.19.27.19.38.72.68.69,1.11-.56.11-.11,1-.8.9-.23.13-.59,0-.78.09.63.45.3,1.41,1.31,1.66l0,.84c-.14.32-.66.51-.68.8,1-.26,1.48-1.32,2.47-1.29.47,1.06.42,2.23.93,3.29a.83.83,0,0,1-.31.2c.07.15-.23.75.17.67.73.63.19-1,.68-1.23.2.23.5.62.85.42-.07-.55.53-.32.7-.68.43.18.46.8.84,1.12.6-.69,1.12-1.82,1.77-2.72.17-.36,0-.74-.07-1.1.76-.42,1.48.32,2.3.09a.92.92,0,0,0,.66-.61c-.59-1.43-2.42-.43-2.9-1.89a4,4,0,0,0,.63-3c-.56-1,.77-1,1.24-1.52.31-.27,0-.73.18-1-1.22.75-2.68,1.74-4.07,1.64-.3.09,0,.37-.11.51-.68.39-.42-.66-.85-.39a13.62,13.62,0,0,1-.45-2.27c-.11,0-.24.28-.3,0a2.91,2.91,0,0,1-.3,2.18c-.19,0-.31-.32-.38-.43-.11.06.23.38,0,.58a1.89,1.89,0,0,1-1.4-.94l.14.63c-.17.25-.49.15-.67.17a4.65,4.65,0,0,1,.6.82.28.28,0,0,1-.35.26l.3.39c.1.59-.54-.11-.51.48-.93.15-1.8-.46-2.66-.71C375.76,44.24,375.15,44.52,375.58,44.66Zm22.05,2.11c-.17.87.83.17,1.11.78.45-.08.78-.64,1.2-.9.14-.87.3-1.59-.46-2.16-.32.38-.65-.12-.94-.21-.2.27-.49.25-.75.34a1.58,1.58,0,0,0-.67,1.13C397.2,46.12,397,47,397.63,46.77Zm-21.8-1.06c-.08-.3-.43-.11-.44.11S375.92,46,375.83,45.71ZM405.2,56c0,.37-.41.59-.51.88.34.43.4-.41.77,0s0,1.17.07,1.65a1.19,1.19,0,0,0,.51-.55,2.69,2.69,0,0,1,1,.73.89.89,0,0,0,0,.73c.47.07.36-1,1-.4.5.11,0,.62.38.79s.17-.39.4-.55c.56-.14.44.58.76.71.16-.17.06-.4.08-.58.7-.57.46.69,1.06.44a18.32,18.32,0,0,0,2-2.19c.73-.5,1.44.76,2.31.39.37-.6-.57-.26-.68-.75a6.18,6.18,0,0,1-.09-4.72l1.89-.38s-.16-.38,0-.43c-1-.08-1.89.37-2.83.19.08-.1.32.06.3-.16-.33.09-.75.31-1,.07.07-.91-.49-.84-.13-1.72-.16-.24-.43-.07-.64-.2s-.12-.41.11-.5c-.05-.41-.82-.35-1.09-.67-.06-.15-.12-.37-.33-.42-.17.21-.19.61-.55.54s-.68-.3-1-.51l-.33.49c-.22.09-.31-.17-.53-.15-.13.21-.29.42-.42.63-.37.15-.61,0-.93-.25a5.91,5.91,0,0,1-1.33,2.24c.14,1.55-.75,2.69-.82,4.22Zm-34-9c-.14-.19-.51-.14-.52.07A.52.52,0,0,0,371.21,47Zm28.59,6.17c-.12.17.2.34.18.52a.89.89,0,0,1-.4.59c.8,0,.09.71.69,1,.78.9,1.71.2,2.44.18-.09-.82.92-.52.76-1.34.31-.71-.53-.81-.52-1.43-.33,0-.26-.53-.67-.38-.31-.71-.87.45-1.15-.3-.13.32-.37.6-.72.39C400.6,52.8,400.11,53,399.8,53.15Zm-5.36,1.52c.14-.36.52-.14.72-.42a1,1,0,0,0,.15-1c-.24-.2-.4-.54-.8-.57s-.8.45-1,.8.17.67.37.94S394.39,54.37,394.44,54.67ZM368.35,94l-.16-.06c-.25,0-.28.25-.24.45S367.94,94,368.35,94Zm-11.07,1.7c-.16.37-.55.12-.78.4a1.09,1.09,0,0,0-.22,1.09c.25.23.39.59.81.65s.86-.43,1.14-.78c.13-.41-.14-.72-.34-1S357.32,96,357.28,95.69ZM345.89,66.62c-.11-.15-.24.4-.59.13l.11.15C345.65,67,345.81,66.83,345.89,66.62Zm29.31-15.2c.29-.44-.24-.43-.42-.68-.3,0-.9-.39-1.16.18l.29.39C374.3,51.63,374.78,51.88,375.2,51.42ZM337.06,63.59c-.48.58-.29,1.66-.54,2.45.77,1.25,1.35,2.34,2.93,2.23,0-.83,1-.56,1.42-.75,0-.57.35-.86.58-1.26a2.62,2.62,0,0,0-.37-2.15c-.51-.38-1.15-1.66-1.76-.75C338.6,62.08,338.08,64.05,337.06,63.59ZM368.58,40.4c-.33-.44-.84.39-.44.63S368.8,40.69,368.58,40.4Zm4.62-6.67a.85.85,0,0,0-.58.65C373,34.48,373.42,34,373.2,33.73ZM334.32,51.2a1.68,1.68,0,0,0,.95,1.49c.53,0,1.1.25,1.64-.14.79-.36.52-1.45.45-2.16-.3-.61-.94-.66-1.49-.79-.38-.1-.7.59-1.09.27C335,50.47,334.28,50.62,334.32,51.2Zm-85.43-35,0-.16c-.13-.19-.34-.11-.48,0C248.4,16.23,248.73,15.86,248.89,16.21Zm-28.5.68-.07-.42c-.17-.41-.45-.8-1-.61s0,.43,0,.69C219.65,16.68,220,17.23,220.39,16.89Zm-.59,7.57c.2.29-.57.9.09,1,.6-.31,1.11.21,1.79,0,.39.48,1.24.73,1.34,1.37-.76.33.16,1.44-.85,1.54-.29.26-.83.23-1.08.38,1,.44.89,1.92,2.41,2l.24,1.21c-.09.5-.78.93-.72,1.36,1.31-.69,1.7-2.37,3.12-2.64,1,1.36,1.33,3,2.4,4.4a1.22,1.22,0,0,1-.37.38c.13.2-.1,1.16.46.91,1.24.68-.07-1.51.57-2,.36.27.92.72,1.35.33-.28-.77.66-.64.79-1.2.67.12.91,1,1.56,1.34a11.19,11.19,0,0,0,.51-1.19c.3.34.31.86.76,1.19-.14.59.15,1.4-.29,1.84-.7-.41-1,1-1.7.22-.36-.07-.66-.51-.92-.62.26,1.06-1,1.8-.14,3l-.81.88c-.44.23-1.18-.07-1.48.23,1.3.62,2.84,0,3.88.91-.48,1.59-1.62,2.81-2.06,4.43a1.34,1.34,0,0,1-.52-.07c-.07.22-1,.59-.44.88.18,1.36,1.14-.92,1.88-.7,0,.44,0,1.14.52,1.25.44-.66.88.15,1.4-.07.29.59-.26,1.29-.15,2,1.29-.19,2.91-.93,4.46-1.3.51-.22.66-.81,1-1.25,1.21.25,1.29,1.73,2.39,2.24a1.32,1.32,0,0,0,1.29,0c.7-2.1-2.21-2.72-1.37-4.75a5.62,5.62,0,0,0,3.5-2.69c.3-1.55,1.81-.41,2.77-.48.59,0,.7-.78,1.14-.93-2-.33-4.54-.62-5.94-2-.4-.18-.33.41-.59.44-1.1-.21.15-1.1-.55-1.21A19.68,19.68,0,0,1,243,34.1c-.11-.11-.52.08-.37-.22A4.11,4.11,0,0,1,240.29,36c-.18-.18,0-.63,0-.81-.18,0-.11.62-.51.66a2.69,2.69,0,0,1-.63-2.32l-.44.81c-.41.11-.67-.29-.89-.44a6.19,6.19,0,0,1-.11,1.44.4.4,0,0,1-.63,0l0,.7c-.44.74-.48-.62-1,0-1.14-.7-1.51-2.17-2.21-3.24a.3.3,0,0,1-.2.16c.28-.86.56-1.78.91-2.61.13-.56-.27-1-.45-1.56,1-.84,2.22,0,3.32-.61a1.35,1.35,0,0,0,.75-1.09c-1.31-1.86-3.6.17-4.76-1.77a5.79,5.79,0,0,0-.09-4.53c-1.1-1.19.77-1.75,1.29-2.58.36-.49-.21-1.06-.07-1.51-1.51,1.47-3.28,3.37-5.29,3.67-.4.22.13.52,0,.76-.85.78-.82-.8-1.34-.29a21.17,21.17,0,0,1-1.39-3.09c-.16,0-.25.47-.41.17a4.17,4.17,0,0,1,.27,3.21c-.26,0-.54-.35-.67-.49-.14.13.45.47.24.83a2.84,2.84,0,0,1-2.31-.9l.4.86c-.15.4-.64.37-.9.46a6.2,6.2,0,0,1,1.12,1c.05.32-.15.46-.41.5l.55.45c.34.82-.81,0-.57.85C222.55,25.13,221.11,24.53,219.8,24.46Zm32.35-3.16c0,1.3,1.24,0,1.85.75.61-.26.9-1.17,1.42-1.68-.08-1.29-.08-2.37-1.36-2.93-.34.64-1,0-1.41,0-.2.47-.63.53-1,.74a2.33,2.33,0,0,0-.59,1.83C251.33,20.5,251.3,21.75,252.15,21.3ZM220,27.14c.08.48.82,0,.61-.31S219.94,26.82,220,27.14Zm-5.61,3c-.25-.24-.76-.05-.71.27A.77.77,0,0,0,214.37,30.16Zm34.81,3.25c.25.23.79-.17,1,.24.08-.56.7-.38.9-.85a1.48,1.48,0,0,0-.13-1.55c-.41-.21-.74-.64-1.33-.55-.76-.05-1,.91-1.24,1.48C248.33,32.78,248.81,33.09,249.18,33.41Zm33.15-1.91c-.06-.1-.15.24-.36.07l.06.09C282.18,31.74,282.28,31.63,282.33,31.5ZM300,22.33l.18.25c.23.21.53.38.8.1s-.14-.27-.25-.43S300.17,22,300,22.33ZM289.07,21a4.15,4.15,0,0,0,1.46,2.88c1.07.42.05,1.35,0,2-.08.43.46.61.51.95.51-1.41,1.06-3.17,2.26-4,.18-.26-.25-.29-.24-.48.31-.76.77.26,1-.23a14.68,14.68,0,0,1,1.84,1.55c.09-.07,0-.38.21-.23a3,3,0,0,1-1.16-2c.15-.1.45.06.58.11.05-.12-.44-.16-.41-.46a2,2,0,0,1,1.75-.13l-.52-.43c0-.31.3-.44.44-.58a4.25,4.25,0,0,1-1-.27.28.28,0,0,1,.11-.44l-.5-.12c-.47-.42.52-.26.11-.72.66-.73,1.77-.79,2.63-1.15-.23-.13.08-.75-.36-.59-.29.38-.78.21-1.14.55-.41-.18-1-.08-1.29-.46.39-.45-.54-.87.07-1.24.11-.26.46-.41.58-.58-.8,0-1.16-1-2.15-.51l-.53-.71c-.09-.34.22-.83,0-1.08-.62.84-.35,2-1.18,2.65-1.07-.56-1.79-1.54-2.89-2.08a1,1,0,0,1,.12-.36c-.15-.08-.3-.77-.58-.44-1-.05.51.95.25,1.45-.32-.06-.81-.18-1,.2.42.41-.22.61-.13,1-.47.14-.89-.36-1.41-.37,0,.95.27,2.21.32,3.37.09.4.5.59.77.86-.35.84-1.41.69-1.93,1.42a1,1,0,0,0-.15.93C286.89,22.11,287.73,20.11,289.07,21Zm8-5.34c-.19-.28-.54.23-.29.38S297.22,15.84,297.09,15.65Zm3-4.06a.57.57,0,0,0-.37.4C300,12.06,300.25,11.78,300.12,11.59Zm-60,17.25.29-.3c.23-.37.37-.81-.07-1.11s-.33.26-.52.45C239.84,28.14,239.58,28.69,240.1,28.84Zm-7.66,5.9c.18-.4-.37-.51-.59-.29S232.29,35.11,232.44,34.74Zm-6.82-3.35a.74.74,0,0,0,.63.41C226.28,31.47,225.84,31.17,225.62,31.39Zm-18.1,11.22h.19c.24-.14.16-.39,0-.57C207.54,42,208,42.46,207.52,42.61ZM210,9.14c.5-.16,1-.44.81-1.06s-.5,0-.82,0c-.17.26-.84.56-.49,1.11Zm-5,36.55a2.73,2.73,0,0,0-2.07-.87c-.62.24-2.08.08-1.63,1.12-1.52-.08-.09,1.46-1.05,2.1.24.74,1.27,1.17,1.82,1.83,1.52,0,2.79.12,3.57-1.32-.72-.46,0-1.14.14-1.65C205.21,46.62,205.17,46.12,205,45.69ZM197.79,8.46c.49-.22.08-.76-.3-.73C196.93,7.77,197.37,8.68,197.79,8.46ZM194.25,0a.91.91,0,0,0,.25.87C194.79.6,194.62,0,194.25,0ZM187,42.41c.64.14.37.85.9,1.13a1.73,1.73,0,0,0,1.83,0c.28-.46.82-.81.78-1.5.12-.89-1-1.26-1.63-1.59-.7-.08-1.1.45-1.51.86S187.48,42.25,187,42.41ZM163.71,14.05l0-.16c-.15-.18-.34-.08-.48.06C163.23,14.11,163.52,13.71,163.71,14.05Zm-28.15,3-.09-.41c-.21-.39-.51-.75-1-.53s0,.43.11.69C134.82,16.91,135.16,17.43,135.56,17.06Zm.21,8.48c.57-.35,1.12.12,1.77-.14.43.44,1.3.62,1.44,1.24-.73.39.28,1.41-.71,1.59-.26.28-.81.3-1,.46,1.07.35,1,1.83,2.54,1.75l.34,1.18c-.05.5-.7,1-.6,1.4,1.24-.79,1.49-2.49,2.87-2.87,1.12,1.26,1.57,2.91,2.74,4.16a1.33,1.33,0,0,1-.34.41c.15.18,0,1.15.53.86,1.28.57-.19-1.49.4-2,.38.24,1,.64,1.37.22-.34-.74.6-.69.68-1.25.67.06,1,.91,1.65,1.19.53-1.22.76-3,1.27-4.56.08-.57-.35-1-.58-1.51.88-.92,2.2-.19,3.24-.88a1.36,1.36,0,0,0,.66-1.14c-1.45-1.73-3.56.46-4.86-1.36a5.81,5.81,0,0,0-.46-4.48c-1.19-1.08.61-1.78,1.06-2.66.32-.51-.3-1-.19-1.48-1.37,1.58-3,3.6-4.94,4.07-.37.25.18.5.07.75-.78.84-.88-.72-1.35-.18a20.78,20.78,0,0,1-1.63-2.94c-.16,0-.21.48-.39.2a4.16,4.16,0,0,1,.53,3.15c-.26.06-.56-.3-.7-.43-.13.14.48.43.3.8a2.79,2.79,0,0,1-2.36-.7l.47.82c-.12.41-.61.42-.86.53a6.29,6.29,0,0,1,1.19.87c.08.31-.11.46-.36.52l.58.41c.41.78-.8.08-.5.88-1.22.62-2.7.15-4,.19C135.83,24.87,135.11,25.53,135.77,25.54Zm31.58-6.73c.14,1.28,1.23-.12,1.89.59.59-.3.8-1.23,1.28-1.77-.2-1.27-.29-2.34-1.6-2.8-.27.67-.95.12-1.39.12-.16.47-.58.57-.9.81a2.29,2.29,0,0,0-.44,1.85C166.47,18.09,166.55,19.33,167.35,18.81ZM136,27.23c.11.47.81,0,.57-.35S135.93,26.92,136,27.23Zm44.11-5.54A8.81,8.81,0,0,0,181,18c.52.15.95.33,1.4-.06.08-.34.22-.7.3-1.05.3-.13.54.2.81,0l.24-.82c.58.13,1.11.5,1.65.26.53-.07.4-.64.53-1,.32,0,.5.27.65.45.52.32,1.56-.1,1.8.45a.4.4,0,0,0-.16.39c1.51-.77,3.19-1.05,4.64-2-.18-1.69-2.11-2.31-2.79-3.9.5,0,.94.82,1.52,1L193,11.5c.19-1.78,1.92-1.45,2.53-2.63.15.3.07.94.34,1.3,0,1.2,1.4.22,1.72,1.14.76-.05,1.13-1,1.73-1.44-.18-.81.47-1.36.17-2.09.14-.77.77.2,1.14,0-.21,1.53-1.05,3.16-.56,4.71,1-.2-.06,1.07.93.75l.59-.6c0,.31.17.55.54.53a7.52,7.52,0,0,0,1.24-1.22c.09.31,0,.88.46,1.1l1-.39a3.33,3.33,0,0,0-1.27,2.61c.4.29.86-.37,1-.19-.18.14-.67.42-.65.74a5,5,0,0,0,3.79,0c-.37.15.15.3.16.49a24.54,24.54,0,0,0-3.76,1.33c.55.66-1.29.47-.46,1.55.26.17.67-.43.89.06.16,2.39,2.21,4.64,3.79,6.56-.52-.22-1.23.4-1.77-.07-.93-.7-1.4-2.93-2.9-1.76a6.81,6.81,0,0,1-5.32-.33c-2.38,1.17-.22,4.06-2.53,5.41a1.62,1.62,0,0,1-1.2-1,2.41,2.41,0,0,1-.18-1.08c-.56-.11-1.09-.16-1.45.3a26.41,26.41,0,0,1-1.86,3.94c-.73.61-.95-1.25-1.67-.15.06.26.29.53.14.84-.5,0-.64-1.1-1.36-.66-.25.33.3.8-.32.95-.56-.08-.13-1-.88-.94-1.1-.5-.5.89-1.18,1a1.22,1.22,0,0,1-.3-1,3.89,3.89,0,0,0-1.67-.59,1.78,1.78,0,0,1-.48,1c-.31-.64-.17-1.65-.81-2.27-.69-.38-.41.81-1.06.36,0-.43.54-.94.31-1.44l-1.06-.35C180.26,25.75,181,23.78,180.12,21.69Zm14.14,2.41c-.1,0-.19.06-.29.09.2.37.41.74.65,1.11A1.86,1.86,0,0,0,194.26,24.1ZM130.7,30.68c-.26-.21-.76,0-.68.33A.77.77,0,0,0,130.7,30.68Zm43-3.3a1.3,1.3,0,0,1-.31,1c1.1-.43.44.93,1.39,1,1.48.9,2.46-.48,3.47-.83-.48-1.09,1.05-1.12.47-2.18.11-1.13-1.09-.89-1.35-1.76-.44.21-.59-.63-1.09-.24-.75-.85-1,1-1.73.09-.05.5-.26,1-.84.85.46.55-.15,1-.49,1.38C173.07,27,173.59,27.12,173.65,27.38ZM165.41,31c.27.21.76-.24,1,.15,0-.55.66-.43.82-.9a1.48,1.48,0,0,0-.25-1.53c-.43-.17-.8-.57-1.36-.44-.77,0-.92,1-1.11,1.57C164.51,30.49,165,30.75,165.41,31ZM96.7,19.81l-.07-.09c-.15-.07-.25.05-.29.18S96.48,19.65,96.7,19.81Zm-18,10.54c.19,0,.57.23.72-.13L79.24,30c-.24-.19-.55-.33-.8,0S78.6,30.2,78.71,30.35Zm21.78-8.56c.47.78.75-.45,1.4-.19.28-.37.14-1,.28-1.53-.5-.76-.88-1.43-1.86-1.32,0,.51-.59.36-.87.49,0,.35-.2.54-.34.79a1.63,1.63,0,0,0,.28,1.33C99.7,21.59,100.12,22.37,100.49,21.79Zm11.44,1.82.79-.09c.3.25.1.74.23,1,.56.1,0-.59.58-.55.59.21.81.9,1.2,1.22a1.22,1.22,0,0,0,0-.78,2.68,2.68,0,0,1,1.26-.12.89.89,0,0,0,.5.57c.41-.28-.4-1,.47-1,.46-.27.46.46.85.34.35-.28-.14-.42-.08-.71.33-.5.74.14,1.08,0,0-.24-.23-.35-.35-.5.14-.93.84.21,1.13-.41a19.91,19.91,0,0,0,0-3.1c.21-.89,1.64-.42,2-1.32-.13-.72-.61.2-1-.1a6.5,6.5,0,0,1-3.39-3.55l1.19-1.61s-.38-.18-.28-.36c-.8.63-1.19,1.61-2,2.14,0-.14.29-.19.12-.34-.2.3-.36.77-.74.78-.59-.75-1-.31-1.31-1.24-.29-.06-.38.26-.63.31s-.38-.24-.27-.47c-.32-.28-.87.31-1.3.26-.15-.08-.35-.21-.55-.1,0,.28.28.6,0,.81s-.73.24-1.15.32l.09.61c-.1.23-.36.09-.51.26,0,.25.07.52.12.77-.18.38-.5.4-.89.46a6,6,0,0,1,.55,2.66C110.79,20.89,110.91,22.39,111.93,23.61ZM80.39,40.47c-.24,0-.49.24-.35.42A.54.54,0,0,0,80.39,40.47Zm26.23-15.32c0,.22.39.13.51.28a.9.9,0,0,1,.1.74c.59-.61.57.47,1.21.25,1.23.14,1.45-1.05,2-1.58-.63-.56.34-1-.35-1.55-.26-.76-1-.25-1.4-.73-.22.27-.57-.23-.78.18-.74-.33-.35,1-1.09.57.12.34.13.72-.28.8C107,24.33,106.72,24.78,106.62,25.15ZM102,29.81c.2.37.6.39.94.46s.42-.38.67-.19c-.15-.37.3-.48.26-.84a1,1,0,0,0-.62-.9c-.33,0-.69-.14-1,.12C101.72,28.7,101.91,29.37,102,29.81ZM57.12,66.09l-.12.13c-.08.25.13.37.34.4C57.47,66.49,56.92,66.47,57.12,66.09ZM77.05,90.25l-.32.35c-.23.42-.38.92.13,1.24s.36-.3.56-.52C77.37,91,77.64,90.4,77.05,90.25ZM56.28,57.62c-1.06,1-2,1.69-1.61,3.17.78-.15.69.81.95,1.22.54-.14.88.18,1.3.34a2.55,2.55,0,0,0,2-.73c.27-.55,1.37-1.37.4-1.8,1.1-.91-.86-1.06-.6-2.11C58.06,57.36,57.07,57.72,56.28,57.62ZM44.87,37.44c-.2.05-.34-.4-.54-.11.51.24,1.26.38,1.36,1-1,1.07-.24,1.55-1.59,2.3,0,.46.47.53.61.9,0,.37-.28.63-.65.52-.36.55.66,1.27.68,1.93-.08.25-.23.59,0,.88.41-.1.85-.57,1.24-.12.55.35.53,1.06.76,1.68l.91-.28c.38.12.22.54.52.74.37-.14.78-.24,1.16-.37.63.19.72.68.91,1.26a9.43,9.43,0,0,1,4-1.45c1.39-2.09,3.67-2.61,5.32-4.46l-.33-1.19c.32-.51,1.11-.33,1.52-.59,0-.88-.91.11-1-.76.18-1,1.21-1.45,1.6-2.13a1.94,1.94,0,0,0-1.2.16,4.3,4.3,0,0,1-.48-1.9c.33-.18.74-.52.77-.9-.52-.57-1.43.83-1.64-.49-.52-.65.6-.81.33-1.39-.51-.48-.61.31-1.07.29-.85-.39,0-1.17-.22-1.66-.37,0-.49.43-.69.64-1.46,0,.13-1.33-.88-1.63a30,30,0,0,0-4.77.68c-1.42-.12-1-2.42-2.5-2.83-1.07.36.44.9.09,1.62-1,2.61-2.19,4.73-4.69,6L41.61,34.3s-.19.63-.48.51C42.29,35.9,43.88,36.27,44.87,37.44Zm47.73,49c0,.37.47.69.72.43A.83.83,0,0,0,92.6,86.45ZM59.42,44.74c-1.11.58-.16,1.55-.8,2.32.47.27-.22.92.45,1.15-.34,1.22,1.55.33,1.13,1.55.49-.27,1.07-.37,1.3.25.23-.76,1-.45,1.57-.38.33-.1.1-.63.31-.85a1.45,1.45,0,0,1,1.11-.32c-1.06-.76.6-1,.11-1.92-.06-1.91-1.94-2-2.87-2.7C61,44.94,60.05,43.56,59.42,44.74Zm19.64.94a.61.61,0,0,0,.91-.36c.11-.54-.52-.48-.9-.6C78.7,44.86,78.76,45.4,79.06,45.68Zm1.43-3.58a1.73,1.73,0,0,0,.22,1.66c2.17.1,3.64,2.05,5.09,3,.45-.22.19-.71.38-1,.7-.48.52.57,1.14.51,1-.2,2.15-.73,3-.39.41-.26-.3-.44-.27-.74-.06-.62.73-.52.89-.94.6-.81,1,.26,1.58.12.12-.38-.34-.41-.6-.57,1.32-.37.09-2.41,1.75-2.71,0-.46-.75-1.36.29-1.59a2.88,2.88,0,0,0-2.24-1.06.81.81,0,0,1-.16-.56.41.41,0,0,0,.31-.26.36.36,0,0,1-.16-.27l.12-.32a.51.51,0,0,0,.1-.43c.45-.16.91.3,1.43.28,0-1-.42-2.18-.56-3.33-.11-.39-.53-.55-.82-.8.29-.86,1.36-.78,1.82-1.54a1,1,0,0,0,.09-.93c-1.46-.69-2.16,1.36-3.55.58A4.11,4.11,0,0,0,88.72,28c-1.09-.34-.14-1.33-.11-2,0-.43-.5-.57-.57-.91-.41,1.44-.83,3.22-2,4.12-.17.27.26.27.27.46-.26.78-.79-.2-.93.3a15,15,0,0,1-1.94-1.42c-.09.07,0,.38-.19.25a3,3,0,0,1,1.29,1.88c-.15.11-.45,0-.58-.07,0,.13.44.13.43.43a2,2,0,0,1-1.73.25l.55.39c0,.3-.27.46-.39.6a4.94,4.94,0,0,1,1,.2.3.3,0,0,1-.08.45l.5.09c.49.38-.5.29-.06.72a2,2,0,0,1-.46.42,1.8,1.8,0,0,0-1.33.16c0,.14,0,.28,0,.43-.26.1-.52.19-.76.31.23.11,0,.75.4.56a.64.64,0,0,1,.35-.26,2.23,2.23,0,0,1-.2.88c-.27.64-.91.12-1.24.21.25.16.39.53.65.77-.4.6-1.14-.26-1.41.46C79.82,39.29,81.58,40.77,80.49,42.1Zm-9.2,13.62c.53-.39.47-1,.49-1.56,0-.37-.68-.56-.45-1-.53.31-.8-.35-1.33-.21a1.62,1.62,0,0,0-1.26,1.16c.1.5,0,1.09.42,1.53C69.64,56.35,70.63,55.91,71.29,55.72Zm6.5,27.94-.14-.09c-.24,0-.32.18-.32.38S77.41,83.53,77.79,83.66Zm-21,22.25c-.11.47.33.3.57.45.26-.09.89.07.94-.5l-.37-.25C57.48,105.46,57,105.39,56.77,105.91ZM66,112.69c-.47-.11-.47.49-.19.68S66.41,112.77,66,112.69Zm-1.84,7.08c-.35,0-.57.55-.3.73A.77.77,0,0,0,64.16,119.77ZM101,100.9c-.18-.32-.67-.19-.89.13a.57.57,0,0,0,.47.79C101.1,101.84,101,101.27,101,100.9Zm-9-7.22a1.53,1.53,0,0,0-1.27-1c-.45.16-1,.11-1.36.62-.58.55,0,1.4.26,2,.44.43,1,.28,1.52.22s.42-.72.85-.56C91.59,94.51,92.16,94.16,92,93.68ZM76.67,120.35c-1.41.28-2.6.43-3,1.91.76.28.18,1.06.2,1.55.53.16.66.62,1,1a2.6,2.6,0,0,0,2.09.4c.52-.34,1.9-.48,1.28-1.36,1.42-.21-.2-1.36.57-2.13C78.34,121.05,77.3,120.85,76.67,120.35Zm15.33,4c-.62,0-.51-.72-1-.87a1.63,1.63,0,0,0-1.69.35c-.17.48-.6.91-.42,1.54,0,.85,1.14,1,1.81,1.16.66-.07.93-.64,1.23-1.1C92.1,125.1,91.58,124.56,92,124.32ZM57.84,71c-.4.17,0,.41,0,.66.21.14.45.7.89.41l0-.41C58.57,71.24,58.35,70.84,57.84,71Zm6.66,2.38a18.48,18.48,0,0,0,1,3.07c.54-.44.37,1.06,1.25.39.14-.21-.34-.54.06-.72,2-.11,3.8-1.76,5.37-3-.18.42.32,1-.07,1.44-.57.76-2.4,1.12-1.46,2.35a3.27,3.27,0,0,1,.17.53c.36-.07.63-.32.73-.92a6.37,6.37,0,0,1,3.85-3.16C76.34,71,73,70.39,73.75,68a1.5,1.5,0,0,1,1.45-.08c1.27.54,1.4,2.2,2.79,2.45.31-.51.46-1.18,1-1.45,1.74-.46,3.54-1.35,5-1.61.15.79-.45,1.6-.09,2.26.57-.27,1.1.63,1.57-.14.63.11.61.9.63,1.4.84.23,1.84-2.39,2.1-.85.59.31-.4.76-.47,1a1.5,1.5,0,0,0-.59-.07,12,12,0,0,1-1.24,2.87v.15a.15.15,0,0,0,0-.08A10,10,0,0,0,85,76c.83.73,1.93.56,3,.62a4.09,4.09,0,0,1,.42-.56c.35-.17.75-.2,1-.62.41.08,1,.71,1.34.13,1.17.65,1.07,1.68,1,2.92-.54.44-.9,1.28-1.51,1.47-.51-.79-1.77.36-1.69-.88-.85.36-.71-.83-.9-1.33a1.45,1.45,0,0,1,0-.55h0l-.88,1c1,1.34-.39,2.22-.07,3.42-.29-.12-.64-.61-1.06-.68-.39-.41-.67-.21-1,0,.26.19.52.4.79.62a13.54,13.54,0,0,0,.31,1.54c.27,0,.55.26.32.5a.5.5,0,0,1-.33.14s0,.06,0,.09c-.65-.05-.82.68-1.12,1l.05,0c.4.61-.65.35-.77.73-.1-.16-.21-.32-.3-.48-.4.18-1-.37-1.47-.5a2.42,2.42,0,0,1-1-1.74,7.68,7.68,0,0,0,.19-.83l-.06,0c-.55.77-.64-.77-1.12.08v.79c-.22-.2-.47-.28-.71,0a6.76,6.76,0,0,0-.08,1.63c-.25-.16-.56-.61-1-.47L78,85a3.09,3.09,0,0,0-.79-2.6c-.46.05-.35.8-.56.77,0-.21.19-.72,0-.92a5.44,5.44,0,0,0-1.91,1.32,1.2,1.2,0,0,1-.39.5,2.48,2.48,0,0,0-.29.59c.16-.34-.29-.11-.42-.24s0,0,0,0c-1,.2-2-.46-2.87.19.13.51.46,1,.29,1.53-.74,1.37-1.26,3-2,4.11-.59-.37-.74-1.24-1.36-1.41-.18.53-1.07.32-.87,1.08-.44.33-.93-.15-1.25-.44-.65.39.4,2.59-.72,1.84-.55.18-.25-.71-.36-.91a1.14,1.14,0,0,0,.39-.33c-.9-1.38-1-3-1.89-4.41-1.38.14-1.91,1.71-3.21,2.24,0-.41.67-.75.8-1.22l-.12-1.18c-1.45-.17-1.17-1.57-2.12-2.08.25-.12.77-.05,1.06-.27,1,0,.19-1.14,1-1.39,0-.61-.83-.93-1.16-1.42-.66.14-1.1-.4-1.7-.16-.63-.12.16-.62,0-.92,1.25.18,2.57.88,3.83.5-.15-.82.88.05.63-.76l-.49-.48c.25,0,.45-.13.43-.44a6.27,6.27,0,0,0-1-1c.25-.07.72,0,.9-.36l-.3-.86a2.66,2.66,0,0,0,2.11,1.06c.24-.32-.3-.7-.15-.81.11.15.34.55.6.53a4,4,0,0,0,0-3.08C64.21,73.79,64.34,73.37,64.5,73.36ZM71,78.8a6.3,6.3,0,0,1-.61,2.39c.85,1.78,2.89.5,4.07,1.7a8.15,8.15,0,0,0,.86-1.79c-.8-.1.59-1.14-.67-1.35-.29,0-.18.71-.65.52A6.77,6.77,0,0,0,71,78.8ZM58,81.54c-.18-.4-.62-.07-.6.24S58.21,81.89,58,81.54Zm-6.92,2.81a.71.71,0,0,0,.7-.2C51.61,83.91,51.1,84,51.12,84.35Zm41.65,3.19c-.13.27.34.45.35.7a1.24,1.24,0,0,1-.46.9c1.12-.22.26,1,1.15,1.22,1.24,1.11,2.41,0,3.43-.2-.27-1.11,1.18-.89.8-2a.8.8,0,0,0-.13-.81c.92-.65.87-2,1.3-2.75-1.14-.5,0-1.6-1.19-2-.7-.95-1.46.08-2.27-.4-.19.47-.9-.07-1,.59-1.18-.13-.07,1.49-1.27,1.29.32.41.5.94,0,1.24.56.08.59.52.59,1a.55.55,0,0,1-.55,0C93.82,86.92,93.17,87.21,92.77,87.54ZM84,89.09c-.07.57.36.9.69,1.24s.76-.09.89.31c.12-.52.7-.3.93-.72a1.4,1.4,0,0,0,0-1.49c-.37-.23-.65-.68-1.22-.65C84.59,87.67,84.28,88.56,84,89.09ZM28.45,127.44c.09.15.26-.35.55-.06l-.08-.15C28.71,127.09,28.54,127.26,28.45,127.44ZM.1,138.78c-.3.38.18.42.32.66.28,0,.8.44,1.09-.06L1.28,139C1,138.67.52,138.39.1,138.78Zm7.69,11c-.17.37-.71.56-.9.8,1.19,0,1.63,1.52,3.13,1l.72,1.08c.11.52-.39,1.22-.16,1.61,1-1.19.71-3,2-3.82,1.53.92,2.51,2.45,4.09,3.34a1.46,1.46,0,0,1-.21.52c.21.14.36,1.16.81.7,1.47.17-.67-1.44-.24-2.16.46.12,1.19.34,1.45-.21-.58-.64.39-.89.3-1.49.69-.15,1.28.62,2,.69.15-1.41-.19-3.3-.17-5-.09-.6-.67-.91-1.06-1.34.59-1.21,2.16-.89,3-1.92a1.45,1.45,0,0,0,.31-1.36c-2-1.29-3.45,1.6-5.35.17A6.08,6.08,0,0,0,15.64,138c-1.55-.72,0-2,.23-3,.15-.62-.63-.94-.67-1.44-.88,2-1.86,4.59-3.69,5.68-.31.38.33.46.3.74-.52,1.1-1.12-.45-1.42.26a21.29,21.29,0,0,1-2.58-2.46c-.15.08-.06.56-.33.32a4.49,4.49,0,0,1,1.54,3c-.25.15-.67-.12-.86-.21-.08.18.63.28.56.72a3,3,0,0,1-2.6,0l.74.68c0,.45-.49.61-.7.81a6.59,6.59,0,0,1,1.48.49.44.44,0,0,1-.21.65l.73.22c.65.66-.79.34-.23,1.06-1,1-2.68,1-4,1.46.32.2-.19,1.1.48.9.46-.54,1.17-.24,1.74-.71.58.31,1.51.21,1.85.79C7.4,148.6,8.74,149.31,7.79,149.81Zm-2.6-.29c.26.44.82-.28.47-.54S5,149.23,5.19,149.52Zm50.65,10.73c-.09-.24,0-.84-.5-.86l-.22.35c-.12.41-.16.87.33,1S55.71,160.47,55.84,160.25Zm-37.9-40.43c.48.11,1.15.1,1.34.58-.68,1.09.06,1.37-1,2.25.06.4.5.37.68.66s-.12.59-.47.56c-.2.54.8,1,.93,1.54,0,.23-.09.54.15.75.33-.15.63-.64,1-.32s.65.82,1,1.31l.73-.4c.34,0,.29.42.57.53.3-.18.64-.33.93-.52.57,0,.75.46,1,.92A8.39,8.39,0,0,1,28,125.74c.82-2,2.68-2.89,3.77-4.75l-.49-1c.18-.5.89-.48,1.2-.78-.15-.75-.77.26-1-.47,0-.86.78-1.46,1-2.11a1.74,1.74,0,0,0-1,.35,3.73,3.73,0,0,1-.74-1.55,1.21,1.21,0,0,0,.5-.9c-.55-.4-1.08,1-1.49-.13-.56-.47.37-.8,0-1.25-.53-.32-.48.38-.87.43-.8-.18-.17-1-.48-1.38-.31.11-.34.45-.48.67-1.25.26-.13-1.16-1.05-1.24a25,25,0,0,0-4,1.43c-1.24.14-1.31-1.9-2.65-2-.85.5.54.69.37,1.37-.4,2.42-1,4.44-3,6l-2.61-.76s-.05.57-.33.53c1.19.73,2.62.76,3.68,1.59C18.26,119.89,18.06,119.53,17.94,119.82ZM49,120c-.3.18-.15.64.16.82a.52.52,0,0,0,.71-.47C49.9,119.88,49.37,120,49,120Zm11.88-5.75c-.13-.38-.88-1,0-1.41a2.49,2.49,0,0,0-2.1-.51c-.67-.59.34-1.55-.47-2-.34-.14-1.09.3-1.41-.26.22-1-.64-1.42-.92-2.26-.6,0-.16,1-.84,1.18-.27.14-.36-.1-.41-.32-.93-.75-.71,1-1.32,1.07-.43-.09-.35-.7-.65-1,.69,2.12-1.86.86-2.65,1.76a3.82,3.82,0,0,1,.17,1.68c-.12.59-.76.25-1,.39.25.09.43.39.69.55-.23.58-1,0-1.12.64-.1,1.45,1.67,2.41,1,3.74a1.49,1.49,0,0,0,.48,1.38c1.88-.29,3.48,1.12,4.89,1.68.35-.27,0-.64.15-.93.51-.53.55.39,1.07.23.82-.34,1.71-1,2.53-.86.3-.3-.34-.33-.37-.59-.16-.52.54-.58.6-1,.37-.8.87.06,1.38-.17,0-.35-.37-.29-.62-.38C61,116.34,59.55,114.81,60.91,114.26ZM45.49,209l0,.09c0,.16.14.19.27.17S45.45,209.26,45.49,209Zm15.94,10.18-.12.26c-.06.28-.05.6.3.69s.16-.24.23-.4C61.76,219.58,61.8,219.16,61.43,219.19ZM64,206.13c0-.16.48-.6.08-.67-.43-.83-.52.85-1,.88-.1-.28-.24-.74-.62-.69-.13.53-.6.11-.88.37-.32-.31-.13-.89-.36-1.31-.79.41-1.66,1.26-2.57,1.85-.28.26-.24.68-.33,1-.84.11-1.22-.82-2.05-.9a.92.92,0,0,0-.82.32c0,1.51,2.05,1.25,2,2.74a3.84,3.84,0,0,0-1.63,2.53c.16,1.07-1.07.68-1.67.95-.38.13-.27.65-.52.85,1.38-.25,3.05-.64,4.27-.06.31,0,.12-.34.28-.42.76-.11.16.74.64.65a13.43,13.43,0,0,1-.39,2.22c.1.05.32-.16.29.06a2.85,2.85,0,0,1,1-1.87c.16.08.17.4.19.52s-.07-.42.18-.54A1.84,1.84,0,0,1,61,216l.1-.63c.24-.16.49,0,.67.09a4.8,4.8,0,0,1-.26-.95c.09-.2.25-.2.41-.12l-.14-.46c.12-.58.46.29.64-.25.89.18,1.47,1.05,2.16,1.57,0-.24.65-.28.31-.56-.45-.06-.54-.53-1-.66,0-.42-.41-.87-.23-1.25.54.1.44-.86,1-.54.25,0,.54.18.73.2-.41-.63.23-1.39-.6-2l.32-.75c.23-.25.77-.23.9-.48-1-.11-1.82.67-2.7.29-.06-1.12.4-2.17.31-3.31A.81.81,0,0,1,64,206.13ZM44.84,203.9c-.43-.08-.93.31-1.41.4-.43.74-.83,1.33-.33,2.12.42-.23.55.34.77.52.29-.18.54-.06.81-.05a1.51,1.51,0,0,0,1-.78c.06-.37.54-1.05-.1-1.11C46,204.27,44.89,204.55,44.84,203.9Zm20.61,9.8c.14-.29-.44-.33-.45-.06S65.36,213.89,65.45,213.7ZM35.86,199.61l.47-.33c.24,0,.23.27.44.33.19-.15.41-.28.59-.43.4,0,.55.26.76.56a5.73,5.73,0,0,1,2-1.57c.42-1.46,1.63-2.18,2.23-3.55l-.41-.63c.09-.35.58-.39.77-.62-.16-.5-.51.24-.71-.25s.42-1.06.53-1.52a1.19,1.19,0,0,0-.66.31,2.5,2.5,0,0,1-.63-1,.85.85,0,0,0,.27-.66c-.4-.23-.67.75-1,0-.42-.27.19-.57-.07-.85s-.29.29-.56.36c-.56-.07-.19-.68-.44-.91-.2.1-.19.33-.27.5-.84.27-.18-.8-.81-.78a17.33,17.33,0,0,0-2.61,1.28c-.84.19-1-1.2-2-1.17-.55.41.42.44.35.92a6.06,6.06,0,0,1-1.57,4.32l-1.85-.32s0,.39-.19.38c.87.41,1.86.33,2.65.82-.11.07-.28-.17-.34,0,.34,0,.8,0,1,.3-.38.8.15.93-.49,1.61.07.27.37.22.52.4s0,.42-.28.42c-.1.39.62.61.76,1,0,.16,0,.38.15.51.22-.14.39-.49.69-.31S35.62,199.3,35.86,199.61Zm34.29,14.62a.53.53,0,0,0-.5-.12C69.71,214.34,70.06,214.42,70.15,214.23Zm-24-17.85c-.39-1.08-1.48-.77-2.15-1-.21.76-1,.14-1.16.94-.53.54.19.92,0,1.48.32.07,0,.57.47.58,0,.76,1-.1.94.68.23-.24.55-.41.79-.1,0-.47.48-.44.83-.51.17-.11-.05-.38,0-.54a.83.83,0,0,1,.58-.39C45.7,197.27,46.61,196.84,46.16,196.38Zm8.15-3.17a.37.37,0,0,0,.45-.38c0-.33-.38-.18-.62-.18C54,192.8,54.08,193.1,54.31,193.21Zm-.79-4.82c0,1,1.32,1.53.95,2.49a1,1,0,0,0,.43.91c1.26-.34,2.47.51,3.48.79.22-.21,0-.45,0-.66.31-.4.41.23.75.08.54-.29,1.1-.81,1.67-.78.19-.23-.26-.2-.29-.37-.15-.35.32-.44.33-.71.2-.58.61,0,.94-.23,0-.24-.28-.17-.45-.21.68-.46-.4-1.41.5-1.89-.12-.25-.69-.63-.14-1a1.76,1.76,0,0,0-1.48-.2c-.5-.35.12-1.08-.47-1.32-.24-.08-.73.29-1-.07.08-.67-.54-.93-.79-1.48-.42,0,0,.73-.49.87-.18.11-.26-.05-.31-.19-.69-.44-.41.71-.82.83s-.3-.45-.53-.64c.64,1.4-1.21.73-1.68,1.4a2.65,2.65,0,0,1,.24,1.14c0,.42-.5.24-.67.35.17.05.32.23.51.32C54.12,188.28,53.54,187.93,53.52,188.39Zm-3.05,12.39c.41.31.89-.13,1.24-.36s.08-.67,0-1-.5-.19-.44-.48c-.25.27-.52,0-.81.13a1,1,0,0,0-.5.9C50.1,200.24,50.12,200.61,50.47,200.78Zm66.41,21.46a.55.55,0,0,0-.31.44C116.81,222.72,117,222.41,116.88,222.24Zm-27.67,7.17c.07.24.42.23.61.05a.38.38,0,0,0-.19-.59C89.29,228.77,89.3,229.17,89.21,229.41Zm0-8.3c-.18-.86-1.54-.17-1.66-1.24-.29,0-.9.42-1-.26a1.89,1.89,0,0,0-.78,1.39c-.55.35-1-.55-1.49-.07-.17.21,0,.83-.47.95-.63-.35-1.13.17-1.77.19-.13.43.71.33.66.83,0,.22-.15.24-.31.23-.71.51.54.69.49,1.15-.14.28-.56.11-.84.25,1.64-.06.23,1.49.71,2.23a2.67,2.67,0,0,1,1.22.21c.4.2,0,.59.08.81.11-.16.35-.23.52-.38.36.28-.22.71.23.92,1,.36,2-.7,2.83.06a1.13,1.13,0,0,0,1.08-.06c.16-1.39,1.48-2.24,2.16-3.12-.12-.3-.45-.16-.63-.3-.27-.46.39-.3.38-.7-.08-.65-.37-1.41-.11-2-.15-.28-.3.17-.48.14-.41,0-.31-.5-.57-.61-.49-.43.21-.61.15-1C89.33,220.67,89.29,221,89.18,221.11Zm-17,13,0-.17c0-.25-.28-.27-.48-.21C71.75,233.86,72.24,233.65,72.23,234.07ZM44.14,221.24l.14-.45c0-.47-.06-1-.65-1s-.19.43-.28.7C43.52,220.68,43.56,221.36,44.14,221.24Zm3.28,7a3.06,3.06,0,0,1-1.82-2l0,1c-.34.32-.81,0-1.1,0a6.72,6.72,0,0,1,.63,1.47.43.43,0,0,1-.63.29l.32.71c0,1-.79-.37-1,.55-1.49-.1-2.61-1.36-3.86-2,.07.38-1,.6-.36,1,.73,0,1,.73,1.74.85.16.65.87,1.3.66,2-.9,0-.52,1.48-1.56,1.1-.4.12-.92-.17-1.23-.14.81.92,0,2.29,1.42,3l-.34,1.29c-.32.45-1.2.54-1.34,1,1.59,0,2.78-1.51,4.29-1.1.35,1.81-.15,3.6.25,5.43a1.24,1.24,0,0,1-.55.19c0,.26-.63,1.08,0,1.1.88,1.25.65-1.49,1.49-1.66.23.44.55,1.15,1.15,1,.1-.88.95-.31,1.35-.8.59.43.41,1.41.88,2,1.18-.85,2.39-2.41,3.73-3.58.39-.48.23-1.14.3-1.73,1.33-.37,2.16,1,3.52,1a1.49,1.49,0,0,0,1.25-.7c-.39-2.44-3.59-1.55-3.8-4a6.3,6.3,0,0,0,2.06-4.47c-.51-1.68,1.57-1.33,2.48-1.9.58-.3.29-1.12.65-1.5-2.17.72-4.8,1.73-6.9,1.07-.49,0-.12.57-.35.74-1.21.36-.43-1.16-1.18-.91a22.74,22.74,0,0,1,.12-3.67c-.17-.05-.48.34-.48,0A4.58,4.58,0,0,1,48,228.15c-.28-.08-.36-.59-.42-.8C47.38,227.41,47.79,228,47.42,228.28ZM39.63,231c0-.49-.63-.31-.73,0C38.74,231.53,39.68,231.45,39.63,231Zm-8.45.22a.83.83,0,0,0,.82.08C31.87,231,31.28,230.9,31.18,231.23ZM9.31,262.5l-.17,0c-.21.14-.12.36,0,.52C9.33,263,8.93,262.67,9.31,262.5Zm.2,30.5c-.44.18-.85.47-.66,1s.46,0,.75,0c.13-.25.72-.57.36-1Zm19.06-9.43c.29-.39.78-1,.37-1.44-.83.29-.69-.71-1.29-.85.13-.71,1.07-1,1.43-1.66-1.25-.68-3.16-1.09-4.77-1.78-.6-.14-1.11.29-1.66.48-.91-1,0-2.36-.65-3.54a1.45,1.45,0,0,0-1.16-.81c-2,1.39.17,3.85-1.9,5.08a6.2,6.2,0,0,0-4.84.08c-1.28,1.18-1.86-.82-2.75-1.38-.52-.38-1.13.23-1.61.07,1.57,1.61,3.58,3.51,3.9,5.66.24.43.56-.14.81,0,.83.92-.85.88-.3,1.44a22,22,0,0,1-3.31,1.47c0,.17.5.27.18.44a4.49,4.49,0,0,1,3.43-.28c0,.28-.38.58-.53.71.14.16.5-.48.88-.24a3,3,0,0,1-1,2.45l.92-.42c.43.16.39.69.49,1a6.63,6.63,0,0,1,1-1.19c.34-.05.48.16.53.44l.48-.59c.88-.36,0,.86.91.61.55,1.37-.09,2.91-.17,4.31.31-.22,1,.61,1-.1-.32-.64.23-1.19,0-1.91.51-.42.78-1.33,1.46-1.43.36.82,1.54-.17,1.64.92.28.3.25.88.4,1.15.48-1.11,2.06-.94,2.11-2.57l1.29-.25c.53.09,1,.84,1.44.77-.72-1.4-2.52-1.82-2.81-3.34,1.46-1.08,3.26-1.41,4.71-2.55a1.3,1.3,0,0,1,.41.4c.21-.15,1.23.11,1-.49C31.42,282.86,29.08,284.25,28.57,283.57Zm-13-26.51c-.27-.65-1.24-1-1.79-1.52-1.37.09-2.53.09-3.13,1.45.69.36,0,1,0,1.5.49.22.56.67.79,1a2.49,2.49,0,0,0,1.94.64c.55-.26,1.88-.23,1.4-1.14C16.13,259,14.72,257.71,15.55,257.06Zm5,35.68c-.43.23,0,.69.33.64C21.41,293.31,20.94,292.51,20.57,292.74Zm9.39-55c-.41-.81.74-.86.84-1.39-.32-.19-.63,0-.92.07-1.11-.87.9-.94.32-1.78a28.5,28.5,0,0,0-4.05-2.34c-1-.95.67-2.48-.2-3.67-1-.37-.21,1-.91,1.29-2.34,1.39-4.51,2.29-7.19,1.76l-1.22-2.77c0,.06-.53.37-.68.11.22,1.52,1.22,2.76,1.27,4.26-.19-.09,0-.52-.35-.41.24.48.73,1,.46,1.55-1.42.21-1.12,1-2.6.79-.3.33,0,.69-.08,1.05a.47.47,0,0,1-.8,0c-.61.21-.26,1.37-.65,1.89-.21.15-.53.31-.54.66.38.18,1,.09,1,.66.2.6-.24,1.13-.44,1.74l.86.33c.22.32-.15.55,0,.88.36.12.74.29,1.1.41.37.53.14,1-.06,1.51A9.41,9.41,0,0,1,19,245.63c2.31-.75,4.36.21,6.73-.2l.47-1.11c.55-.19,1.05.42,1.52.47.53-.66-.77-.46-.29-1.17.71-.63,1.79-.38,2.5-.66a1.92,1.92,0,0,0-1-.6,4.24,4.24,0,0,1,.79-1.74,1.3,1.3,0,0,0,1.12-.22c-.05-.75-1.59-.23-.95-1.36,0-.81.94-.26,1.08-.86C30.85,237.5,30.3,238.05,30,237.75Zm-5.57,62.4a.81.81,0,0,0-.29-.77C23.85,299.65,24.05,300.2,24.39,300.15Zm-2.9-48.25c.53.1,1,.37.84,1,.63-.44,1,.25,1.43.65.3.13.45-.41.74-.46a1.4,1.4,0,0,1,1,.43c-.35-1.22,1-.39,1.24-1.4,1.11-1.5-.28-2.68-.56-3.79-1.21.41-1.11-1.22-2.3-.7-1.19-.23-1.06,1.08-2,1.28.19.5-.73.57-.35,1.15C20.57,250.77,22.54,251.23,21.49,251.9Zm16.84,8.25a.58.58,0,0,0,.9.27c.41-.35-.1-.68-.32-1C38.55,259.31,38.27,259.75,38.33,260.15Zm-10.41,1.06c-.59-.08-.4-.74-.9-1a1.57,1.57,0,0,0-1.65.13c-.23.44-.69.8-.6,1.42-.05.82,1,1.07,1.58,1.32.64,0,1-.49,1.32-.89S27.48,261.39,27.92,261.21Zm51,23.35c-.14-.12-.25-.55-.6-.4l0,.31c0,.3.17.62.55.58S79,284.75,79,284.56Zm46.22-16.31a.4.4,0,0,0-.43-.48c-.36.06-.18.43-.17.69C124.75,268.66,125.08,268.5,125.18,268.25Zm4.07,23.63c-.05-.4-.54-.23-.6.05S129.31,292.24,129.25,291.88Zm-47.56,5.81-.18-.06c-.27,0-.29.28-.24.49S81.24,297.66,81.69,297.69Zm-15.2,28.73c-.5-.05-1,0-1.13.63s.44.22.73.32c.25-.16,1-.17.86-.79Zm24.33,2.4c1.35-.87-1.54-.75-1.68-1.64.47-.22,1.23-.53,1.07-1.17-.92-.13-.28-1-.77-1.44.47-.61,1.49-.37,2.18-.84-.84-1.27-2.43-2.62-3.59-4.07-.49-.44-1.19-.3-1.8-.39-.34-1.42,1.19-2.23,1.18-3.65a1.54,1.54,0,0,0-.68-1.35c-2.57.31-1.78,3.7-4.35,3.81a6.55,6.55,0,0,0-4.59-2.36c-1.78.46-1.33-1.71-1.88-2.69-.3-.62-1.17-.35-1.55-.75.66,2.31,1.6,5.11.82,7.29,0,.52.59.15.76.4.31,1.28-1.25.4-1,1.19a23.05,23.05,0,0,1-3.85-.28c-.06.17.33.51,0,.5a4.8,4.8,0,0,1,3.36,1.47c-.11.28-.65.35-.86.4,0,.21.72-.19,1,.21a3.19,3.19,0,0,1-2.15,1.82l1.08.07c.32.37,0,.85,0,1.15a8,8,0,0,1,1.58-.6c.34.13.37.4.27.69l.76-.31c1,.1-.42.82.54,1-.18,1.56-1.55,2.68-2.34,4,.41,0,.6,1.05,1,.42,0-.77.81-1,1-1.79.7-.13,1.41-.85,2.1-.6-.08.94,1.53.61,1.08,1.68.1.43-.22,1-.21,1.29,1-.81,2.41.15,3.27-1.35l1.34.42c.46.35.51,1.28,1,1.45,0-1.68-1.45-3-1-4.56,1.91-.28,3.77.32,5.71,0a1.63,1.63,0,0,1,.18.59C89.94,328.76,90.77,329.52,90.82,328.82Zm-5.88-34.23c.36.45.19.91.22,1.37a2.66,2.66,0,0,0,1.5,1.58c.64,0,1.88.74,1.88-.36,1.32.66.65-1.26,1.75-1.45.08-.75-.68-1.54-.91-2.33-1.33-.61-2.42-1.2-3.67-.22C86.17,293.86,85.22,294.17,84.94,294.59ZM77,331.76c-.52,0-.36.64,0,.77C77.51,332.71,77.47,331.73,77,331.76Zm-.15,8.88a.9.9,0,0,0,.11-.87C76.6,339.9,76.51,340.51,76.86,340.64Zm21.61-46.76c.45.36.79.87.3,1.34.81-.1.83.75,1,1.33.23.28.64-.15.93-.05.46.16.62.61.77.92.28-1.32,1.17.17,1.87-.68,1.79-.85,1.08-2.66,1.38-3.85-1.35-.22-.42-1.7-1.81-1.81-1-.82-1.53.48-2.53.19-.07.56-1,.17-.91.9C98.18,292.35,99.8,293.78,98.47,293.88Zm12.36,16.95c.56-.12.25-.69.2-1.09-.28-.3-.77,0-.92.38A.63.63,0,0,0,110.83,310.83Zm2.15,6.08c.74.46-.33.73,0,1.3.6.86,1.58,1.73,1.61,2.71.42.28.3-.47.59-.56.57-.32.8.48,1.27.45,1,.24.14,1,.54,1.56.4-.05.24-.5.29-.81.89,1.1,2.33-.9,3.3.55.41-.25,1-1.27,1.63-.39a3,3,0,0,0,.08-2.56c.52-.92,1.87,0,2.18-1,.09-.42-.61-1.19,0-1.7,1.16,0,1.49-1.08,2.39-1.6-.14-.7-1.25.07-1.56-.69-.23-.28,0-.44.26-.56.65-1.25-1.28-.58-1.55-1.26,0-.52.73-.58,1-1-2.29,1.31-1.44-1.94-2.68-2.65a4.3,4.3,0,0,1-1.9.61c-.71,0-.48-.82-.71-1.09,0,.3-.34.58-.46.93-.73-.13-.23-1.18-1-1.14-1.7.23-2.39,2.51-4.09,2a1.77,1.77,0,0,0-1.49.89c.8,2.1-.45,4.31-.76,6.07C112.26,317.3,112.62,316.85,113,316.91ZM96.56,304.83c-.47.74.37,1.49.81,2,.59.34,1.16,0,1.69-.17.37-.13.25-.88.75-.83-.51-.38,0-.91-.36-1.36a1.66,1.66,0,0,0-1.62-.71C97.4,304.1,96.78,304.2,96.56,304.83Zm25.94-4.66a.58.58,0,0,0,0-.93c-.42-.32-.62.25-.87.53C121.64,300.15,122.13,300.31,122.5,300.17Zm4.68,12.59c.8-.14.8-1.17.91-1.82-.13-.62-.69-.81-1.15-1.05s-.77.37-1,0c0,.58-.62.55-.72,1.08a1.55,1.55,0,0,0,.51,1.55C126.16,312.63,126.61,313,127.18,312.76Zm-8,84.39-.07.15c0,.24.21.29.41.27S119.1,397.54,119.18,397.15Zm23.88,16.41-.2.39c-.1.43-.1.92.43,1.07s.25-.36.37-.6C143.54,414.17,143.62,413.54,143.06,413.56Zm3.42-14.71c0-1.73.72-3.31.64-5.06a1.23,1.23,0,0,1,.54-.09c0-.25.77-.89.16-1-.62-1.3-.84,1.28-1.65,1.29-.14-.44-.33-1.15-.91-1.08-.23.8-.93.13-1.37.52-.48-.49-.15-1.37-.49-2-1.22.6-2.6,1.85-4,2.71-.45.38-.4,1-.56,1.55-1.29.13-1.83-1.31-3.1-1.48a1.43,1.43,0,0,0-1.27.45c0,2.31,3.07,2,2.87,4.3a5.85,5.85,0,0,0-2.62,3.79c.2,1.63-1.67,1-2.6,1.35-.59.19-.45,1-.84,1.28,2.12-.31,4.71-.82,6.54.13.47.06.21-.51.45-.63,1.17-.13.21,1.15.94,1a21.73,21.73,0,0,1-.7,3.37c.15.08.49-.23.44.11a4.24,4.24,0,0,1,1.69-2.81c.24.13.23.61.25.81.2,0-.08-.66.31-.83a2.88,2.88,0,0,1,1.36,2.11l.18-.94c.37-.24.75.08,1,.16a6.67,6.67,0,0,1-.35-1.47.42.42,0,0,1,.64-.16l-.19-.71c.21-.88.68.47,1-.36,1.36.34,2.2,1.69,3.23,2.53,0-.37,1-.4.5-.85-.68-.1-.79-.84-1.47-1.06,0-.64-.6-1.35-.3-1.93.83.18.73-1.28,1.62-.76.39,0,.82.3,1.12.33-.6-1,.41-2.11-.82-3.05l.53-1.14c.36-.36,1.19-.3,1.39-.69C149.14,398.32,147.81,399.47,146.48,398.85Zm-27-7.83c.75-1.08-1-.72-1.07-1.71-.66-.16-1.44.42-2.17.53-.7,1.11-1.34,2-.63,3.23.66-.33.82.55,1.16.84.44-.26.83-.06,1.24,0a2.36,2.36,0,0,0,1.57-1.15C119.73,392.17,120.5,391.16,119.52,391Zm29.29,14.23c-.05.46.53.4.68.11C149.72,404.92,148.84,404.84,148.81,405.25Zm7.1,1c.07.35.6.5.75.21A.77.77,0,0,0,155.91,406.21Zm-35.06-28.34c-.54-1.69-2.22-1.27-3.24-1.67-.36,1.16-1.56.17-1.82,1.39-.84.79.25,1.41-.12,2.26.48.13,0,.88.69.91,0,1.17,1.46-.1,1.4,1.09.37-.36.86-.6,1.22-.11,0-.73.76-.65,1.3-.74.27-.17-.07-.58.06-.83a1.32,1.32,0,0,1,.9-.57C120.1,379.2,121.52,378.58,120.85,377.87Zm13.35-5c0-.52-.58-.3-.94-.31-.3.22-.11.68.23.86A.55.55,0,0,0,134.2,372.87Zm-5.67,9.18c-.39.41-.8-.1-1.24.16a1.49,1.49,0,0,0-.82,1.35c.21.42.23,1,.76,1.25.6.5,1.37-.15,1.91-.49.37-.48.15-1,0-1.5S128.43,382.49,128.53,382.05Zm30.71-5v.14c.09.2.28.15.43.06S159.33,377.35,159.24,377Zm-2.12-4.93c.15-1.14-1.1-.16-1.52-.92-.57.13-1,.89-1.49,1.26-.11,1.15-.26,2.1.78,2.78.38-.52.85.1,1.23.2.24-.38.62-.37,1-.51a2,2,0,0,0,.78-1.51C157.72,372.9,157.93,371.81,157.12,372.08Zm28.47-.31c.14.39.57.11.58-.18S185.45,371.44,185.59,371.77Zm6.6-2.15a.68.68,0,0,0-.67.13C191.71,370,192.19,369.9,192.19,369.62ZM153,361.27c-1.08-1.11-2.23-.13-3.19,0,.18,1-1.15.75-.87,1.8-.35.94.74,1,.78,1.82.43-.09.37.67.9.44.46.91,1.1-.66,1.52.3.15-.43.44-.8.91-.56-.28-.57.35-.8.73-1.09.15-.23-.28-.43-.28-.67a1.2,1.2,0,0,1,.49-.8C153,362.6,153.82,361.56,153,361.27Zm7.65.27c-.15.48-.67.23-.91.61a1.32,1.32,0,0,0-.12,1.38c.33.24.57.67,1.09.68s1-.65,1.3-1.13c.1-.52-.28-.86-.56-1.19S160.75,361.93,160.66,361.54Z"/></g></g></svg>