<svg xmlns="http://www.w3.org/2000/svg" viewBox="0 0 265.88 227.89"><defs><style>.cls-1{fill:#2e3192;}</style></defs><title>ink_m04</title><g id="レイヤー_2" data-name="レイヤー 2"><g id="Content"><path class="cls-1" d="M25.47,98.2c0-.22-.31-.51-.83-.84C24.57,98.2,25.31,99.33,25.47,98.2Z"/><path class="cls-1" d="M247.77,180.41c-.89-1.1-2.72-1.46-3.63-2.58s-3.48-.86-4.38-2,1.38-4.73.49-5.86-4.84.17-5.71-1-2.32-1.84-3.18-3a4,4,0,0,0-1.53-1.07.84.84,0,0,0,0-.27c-.43,0-.58-.41-.53-.81.51-.44.54.62,1,.19a5.1,5.1,0,0,0-.94-.7l-.33-2.1c.29.07.54-.29.49-.55a1.36,1.36,0,0,1-1.3-.29,1.1,1.1,0,0,0-.17-.4c0-.11.07-.22.11-.32h0c.16,0,.31.22.5.18a2.89,2.89,0,0,1-.39-.63,2,2,0,0,0,0-1.54.89.89,0,0,0-.55-.31,3.66,3.66,0,0,0-.6-1.2c.14-.33.82-.22.67-.66a1.23,1.23,0,0,1-.88-.08c-.26-.59-1-1-1.13-1.53-.63.19-.73-.62-1.42-.5-.17-.09,0-.28-.15-.4a8.74,8.74,0,0,0-2.54-.42,1.11,1.11,0,0,1-1.35.35c.15.41-.34.77-.75.64l.11.41c-.32-.08-.43.11-.56.31-.16-.24-.32-.47-.46-.71-.75-1.23,1.58-4.35.88-5.59s-4.14-1.16-4.78-2.43-.48-3.13-1.06-4.42-2.2-2.41-2.71-3.74,4.12-4.53,3.7-5.89-5.85-1.49-6.16-2.88,6-4.06,5.8-5.47-5-1.91-5.11-3.33c-1-2.39.08-.46-1.48.13a13,13,0,0,1-2.1.53c-.31-.14-.75.09-1.12,0s-.66-.48-.95-.38a.81.81,0,0,0,.35.6,11.63,11.63,0,0,1-2.12,0l-1-1a.37.37,0,0,0,0-.57,1.12,1.12,0,0,1-.76.43c-.27-1.54,1-4,.77-4.84-.47-1.63-.61-2.5.17-3.46s3.44,1.11,4.66.45,1.62-3.78,2.34-4.6-.93-2.49-2.24-4.11c1.28-.72,4.51.13,5.87-.5s1.39-4.35,2.79-4.88,2.87-1,4.29-1.48,4.59,4.95,6,4.53S226,94.38,227.39,94a2.75,2.75,0,0,0,1.35-1.23,17.21,17.21,0,0,0-2.7-.44,3.89,3.89,0,0,1-1.47-.37,8.82,8.82,0,0,0,.32-2.27v-.08a3.91,3.91,0,0,0,0-.48c.21-.19.56.09.77-.12a1.2,1.2,0,0,1,.29.61c.33-.1.07-.41.11-.65.11,0,.29-.1.34,0a.56.56,0,0,0,.05.59c.54-.17-.15-.64.12-.9.33.75.73-.31,1.09.33-.05-.23-.3-.38-.3-.66a.79.79,0,0,1,.53.11c.18.57.49,1.13.68,1.62,0,.23.52.39.63.21.4-.59-.07-1.08-.4-1.61a1,1,0,0,0,.16-.06c.13-.06.08-.25.17-.35a.64.64,0,0,1,.73.29l.42-.23c.07.2.14.44.34.54.49-.07.38-.76.83-.86,0-.27-.3,0-.37-.15s.42-.88.13-1.27c.05-.38.4-.14.65-.18.09.34-.16.54-.17.84l.31-.36c.36-.25.59.38.85,0,0-.08-.1-.13-.11-.21,0,.08,0,.19-.1.2-.18-.16-.06-.41-.08-.47.23.1.23.42.42.41l-.21-.36a4.74,4.74,0,0,0,1.53.88,3.82,3.82,0,0,0-2-1c-.74.24-.57-.64-.85-1-.26.17-.49,0-.64-.2.08-.46.55.09.6-.33a4.31,4.31,0,0,0-.81,0l-1.08-1a.33.33,0,0,0,0-.51.93.93,0,0,1-.82.41c-.14-.16-.44-.1-.35-.37.11,0,.27,0,.35-.12-.73-.13-1.24-.74-1.9-1.09l.16-.45c.29.25.81,0,.92-.35a1.79,1.79,0,0,1-1.28-1l.11-.09a.72.72,0,0,0-.12-.31c0-.3-.08-.59.34-.62.17.16.23.45.47.53-.39-1.74.81-3.44.45-5.28a.53.53,0,0,1,.35-.1c0,.11.14.18.34.15l0-.11h.1a.23.23,0,0,0,.06.18l.06-.19a.35.35,0,0,0,.14-.06,7.11,7.11,0,0,0,.5,2.12,7,7,0,0,0-.41-2.3s0,0,0,0h0a3,3,0,0,0-.36-.63c-1-.55.13-1.21.23-1.85-.42-.11-.5-.48-.39-.86.56-.35.42.67.91.33a5.24,5.24,0,0,0-.81-.82V68.26c.26.11.56-.19.55-.46a1.3,1.3,0,0,1-1.21-.47c0-.3-.31-.55.07-.71.15.07.27.26.45.25-.69-1.11-.26-2.58-1-3.78.18-.3.83-.08.74-.53a1.21,1.21,0,0,1-.83-.22c-.16-.6-.84-1.07-.85-1.64-.64.09-.61-.7-1.29-.69-.15-.11.07-.26-.08-.41a8.63,8.63,0,0,0-2.38-.79,1.08,1.08,0,0,1-1.35.13c.08.41-.44.69-.82.5l0,.42c-.57-.26-.55.61-1.19.47,0,.3.26.14.23.44-.71.32-.74.92-1.56,1l.46.49c-.66,1-1.09,2.27-2,3,.42,0,.71-.28,1,.1,0,.6-.59,1.1-.39,1.69-.41.27-1,.81-1,1.11.44-.35,1.2-.32,1.45-.89.11-.22.34.07.34.26.38.29.23.55,0,.81a2.25,2.25,0,0,1-1.63.4l.37.82c-1.28,1-2.41,2.43-3.81,2.94.52.22,1,0,1.26.57-.25.78-1.24,1.16-1.25,2a3.63,3.63,0,0,0-1.82,1c.73-.24,1.68.12,2.26-.49.24-.25.4.24.32.48.69,1-1.06,1.1-1.26,1.73.27.47,1.09.1,1.3-.37.86,0,.46,1.06,1.07,1.32a2.36,2.36,0,0,1-.85,1c.42.52.76-.18,1.23-.29.16.16.39.45.29.58a1,1,0,0,0-1,.53c.7.82,1-.74,1.66-.47-1.08,1.15,1.1,1.06.25,2.18.35-.27.43-.83.93-1,.54.66-.29,2.21.73,3,.21.18.5-.05.74,0a1.25,1.25,0,0,1,0,1.52l.73.56a3.25,3.25,0,0,0-.42.41c-.36-.72-.73-1.26-1.16-1.33-.95-.15-2.33,2-3.55,3.34v-.08a1.65,1.65,0,0,0-1,1,.84.84,0,0,1-.59.13c-1.41-.32-3.49,1-4.81.59s-2.87-4.08-4.13-4.59c-.08-1.56,5.35-.65,6.76-1.9s-2.88-6.35-1.95-7c-.58-.78-.34-2.14-1.82-1.26-1,.6.39,7.33-.78,7.62s-4.71-2.23-5.84-3.07c0-1.45,1.35-3.69,1.55-5.1s3.81-2,4.19-3.33a1.94,1.94,0,0,0-.34-1.37c.06-.1.09-.2,0-.29s0,.13,0,.2l-.16-.27c0-.23.21-.58.46-.41l-.05-.22c-.15.14-.41.34-.43.6-.77-1.21-1.95-2.55-1.58-3.41a5.37,5.37,0,0,1,1-1.44c.48.17,1.1-.22,1.51.18.32-.23-.32-.33-.11-.59,0-.09.12-.15.25-.19l0,0a.06.06,0,0,1,0,0l.14,0a.13.13,0,0,0,0,.07.14.14,0,0,0,0-.07c.46-.11,1.14-.16,1.33-.63.53-.24.51.41.75.7-.35.39-.82.23-1.22.45l.72.12c.61.26,0,1.07.68,1.1.06-.12.08-.24.17-.3-.09.06-.23.16-.33,0,.06-.36.48-.41.53-.48.06.38-.35.64-.18.87l.29-.57a7.38,7.38,0,0,0,.1,2.69,5.84,5.84,0,0,0-.28-3.33c-.9-.77.37-1.26.6-1.92-.42-.19-.43-.6-.25-1,.66-.26.33.79.91.51a6.93,6.93,0,0,0-.7-1l.4-2.2c.26.17.63-.1.68-.38a1.39,1.39,0,0,1-1.2-.73c.1-.31-.22-.65.21-.75.14.11.23.33.43.36a3.15,3.15,0,0,1-.19-1,3.44,3.44,0,0,0,1.77-.7c1-1,1.82-3.14,3-4.05-1.85.26-2,.69-3.73,1.31a1.78,1.78,0,0,1-.92.1c.29-.07.7.07.7-.32a1.33,1.33,0,0,1-.85-.39c0-.67-.68-1.3-.59-1.9-.69,0-.51-.87-1.23-1-.14-.14.12-.26,0-.45a9.27,9.27,0,0,0-2.38-1.29,1.33,1.33,0,0,1-.71.19c-.09-.05-.2-.1-.28-.05a1.16,1.16,0,0,1-.47-.26.45.45,0,0,1-.36.46c0-.16-.24-.27-.05-.4s.19.11.3.09c-.56-.56-.5-1.48-1.07-2.08.06-.2.47-.16.36-.42a.69.69,0,0,1-.51,0c-.18-.33-.64-.51-.72-.84-.37.14-.46-.33-.85-.23-.1,0,0-.17-.1-.23a5.32,5.32,0,0,0-1.5-.14.64.64,0,0,1-.77.26c.1.23-.17.46-.41.4l.08.24c-.37-.07-.24.43-.64.44,0,.18.18.05.2.23a1.26,1.26,0,0,0-.35.44,9.24,9.24,0,0,0-2.26,1.42c-1,1.07-2.51,1.39-3.58,2.37s-1,3.25-2.05,4.17-2,1.58-3.08,2.46c-1.85.09-1-.88-1.85-1.82s-1.84,1.81-1.92.19c-1.94.87-3.94-2.4-5.44-.9s-.2,2.78-1.93,4c-2.05.63-1.48-1.58-2.14-2-1-.65.19.4.3-1.17s-1.87-3.84-2.84-4.63c-.68-.55-3.84,3.17-5.85,3.53-.42-1.42,5.07-6.73,4.85-8.16S169,43.52,169,42.07s.62-2.52.74-4a2.9,2.9,0,0,0-.31-1.36.88.88,0,0,0,0-.15l-.07.09c-.43-1-1.11-1.92-.95-2.89.22-1.43-2.31-3.34-2-4.78l0-.06a1.52,1.52,0,0,0,.26-.37,2.44,2.44,0,0,1,.53-.35c-.64,1.19,1.25.71.71,1.89.27-.32.23-.85.65-1.15.62.5.17,2.1,1.28,2.64,0,0,.06,0,.09,0L171.42,35l1.29-.56a.89.89,0,0,1,.7.18c.24-.19,0-.29-.12-.42l1.94-.83-.15-.34a.76.76,0,0,0,.16-.26c.61-.33.63.45.94.77-.39.49-1,.34-1.42.63l.86.09c.75.26.07,1.26.89,1.25.07-.14.08-.29.19-.37-.11.08-.27.21-.4.06,0-.44.54-.53.6-.62.1.44-.37.78-.16,1l.31-.7a8.73,8.73,0,0,0,.32,3.17,6.92,6.92,0,0,0-.58-3.92c-1.13-.84.34-1.51.57-2.31a.79.79,0,0,1-.37-1.15c.76-.36.44.91,1.1.54a6.94,6.94,0,0,0-.9-1.15l.31-2.63c.32.18.74-.16.78-.5a1.66,1.66,0,0,1-1.47-.77c.08-.38-.32-.76.18-.9.18.11.3.37.54.39-.72-1.52,0-3.33-.67-5,.28-.36,1.07,0,1-.57a1.57,1.57,0,0,1-1-.4c-.11-.78-.91-1.49-.84-2.21-.7,0-.7-.7-1.22-1a27.4,27.4,0,0,1,.36-3.45c.37-1.43,0-3.15.33-4.56s-4-1.22-3.82-2.64c-1.27.71-1-2.68-2.57-3.58a17.79,17.79,0,0,0-4.31-2c-1.31-.27-2.91.67-3.42,3.27.58,1.47,3.07,2.9,3,4.25s-2.05,2.81-2.46,4.2-4.43,1.61-4.86,3,.55,3.57.39,5c-.12,1.08,3.4,3.2,5,4.78a1.66,1.66,0,0,0-.59.69,3.15,3.15,0,0,1,.94-.31,1.79,1.79,0,0,1,.38.67c-1.23.83-8-1.55-9.07-.39s-1.76,2.75-2.77,3.94.6,4.72-.47,5.78-2,3.16-3.3,3.91-4.93,1.31-6.53,1.4c-.48-1.48-.58-3.54-1.5-4.23s-2.4,2-3.73,1.83-1.85-5.73-3.14-5.82-4,4.79-5.14,4.39-2.68-3.79-3.31-5.1a9.19,9.19,0,0,1-1-4c-.87-1.17-.68-3-1-4.52s-.36-3.19-.51-4.65a1.38,1.38,0,0,1,0-.41c-1-.48-2.52-2.36-3.22-1.62-1,1-3.11-.09-4.29.69s.85,7-.42,7.63-5.21-4-6.48-3.34-2.25,2.27-3.45,3,.14,4.82-.9,5.8-6.82-1.71-7.6-.45a26.45,26.45,0,0,0-1.82,4.89c-.4,1.24,1.29.06,1.1,1.6-2.25.9-1.13,2-3.55,2.21S88.4,36.31,86,36.54c-1.35.13-1.8,2.41-2.37,4.39,0-.18-.29-.16-.43-.27s-.16-.29-.28-.31c-.13.39.32.52.58.66,0,0,.08,0,.11,0-.43,1.54-.94,2.88-2,2.89-.65-.18-1-1.38-1.31-2.72.11.14.22.35.44.35s.08-.09.14-.11a.29.29,0,0,1,.23.27h.22a.47.47,0,0,0,0,.29c.21.08.31-.22.52-.17,0-.11-.14,0-.12-.14s.35-.26.31-.48.2,0,.3.07-.17.18-.24.3l.2-.08c.19,0,.15.27.34.18,0,0,0-.08,0-.11s0,.08-.09.06.06-.18.07-.2,0,.21.08.25v-.19a2.09,2.09,0,0,0,.43.67,1.76,1.76,0,0,0-.57-.81c-.35-.06-.1-.38-.14-.58-.13,0-.2-.09-.21-.21s.2.15.31,0a1.61,1.61,0,0,0-.33-.15L82,39.73a.15.15,0,0,0,.12-.2.45.45,0,0,1-.42,0c0-.09-.15-.13-.06-.22s.11.05.17,0c-.34-.26-.37-.75-.71-1,0-.11.24-.12.16-.25a.33.33,0,0,1-.27,0c-.12-.16-.37-.23-.44-.39-.18.09-.26-.15-.46-.07s0-.09-.07-.11a2.73,2.73,0,0,0-.8,0s0,0,0,0a.91.91,0,0,0-.19-.2c-1.18-.93-1.21-2.85-2.31-3.92a39.66,39.66,0,0,0-4-3.11c-1.37-1-2,2.82-3.41,2.9.52,1.28.21-.42.87.76s-.94,3.77-.15,4.87,5.42-1,6.31,0-.25,3.7.69,4.68S77.34,47,78.31,48,81,49.16,82,50.11s3.52.45,4.45,1.43,2.41,1.78,3.28,2.82-3.81,6.23-3.06,7.35,7.65-1.22,8.24,0S89.36,66.66,89.73,68s5.88,2.61,6,4c-1.21.74-2.47,4-3.71,4.61S86.27,71.39,85,72s-1.75,2.8-3.06,3.33-.48,6.64-1.8,7.14-2.87.66-4.2,1.12-3.65-1.82-5-1.37-3-.19-4.38.25-1.47,4.47-2.8,4.92-3.18-.67-4.51-.19-4.17-3.09-5.49-2.57S51,85.48,49.68,86,49,91.35,47.75,92s-4-1.71-5.29-1-1.72,4.09-2.91,4.86c-.68-.61-3-1.79-3.79-2.64s.18-3.51.19-4.87a6.26,6.26,0,0,0,.55.83,6.85,6.85,0,0,0-1.91-3.43c-1.33-.38-.21-1.52-.28-2.34-.54,0-.75-.44-.74-.93.58-.6.73.69,1.21.12a7.31,7.31,0,0,0-1.23-.76l-.63-2.54c.36,0,.63-.41.54-.73a1.65,1.65,0,0,1-1.63-.21c0-.38-.55-.59-.14-.9.21,0,.41.24.64.18-1.2-1.16-1.13-3.1-2.35-4.35.13-.43,1-.36.75-.89a1.51,1.51,0,0,1-1.09,0c-.38-.69-1.36-1.07-1.55-1.76-.75.3-1-.67-1.79-.45-.23-.09,0-.35-.23-.48a11.11,11.11,0,0,0-3.17-.24,1.37,1.37,0,0,1-1.62.58c.23.48-.33,1-.85.87l.18.49c-.77-.14-.49.92-1.32.95.05.38.37.09.42.47-.77.61-.62,1.35-1.6,1.76l.72.45c-.49,1.35-.64,3-1.37,4.06a8.63,8.63,0,0,0-1.14,0l-1.69-1.84c.32-.12.33-.63.11-.86a1.58,1.58,0,0,1-1.46.57c-.22-.29-.73-.24-.53-.68.2-.06.45,0,.62-.15-1.54-.42-2.37-2.08-4-2.57-.09-.42.66-.76.22-1.09a1.45,1.45,0,0,1-.91.49c-.64-.4-1.64-.26-2.11-.75-.5.6-1.13-.13-1.72.44-.22,0-.15-.29-.41-.3A10.4,10.4,0,0,0,1.7,73.54,1.31,1.31,0,0,1,.61,74.77c.41.3.17,1-.31,1.12l.38.33c-.72.24,0,1-.68,1.4.22.29.36-.09.58.21C.2,78.69.67,79.24,0,80l.8,0c.23,1.42.9,2.91.71,4.23.4-.31.41-.83,1-.75.5.53.38,1.46,1,1.83a3.14,3.14,0,0,0,0,1.83c.11-.67.8-1.27.56-2-.09-.29.36-.22.52,0,1.09-.11.42,1.29.83,1.72.48,0,.53-.82.25-1.18.37-.67,1,.08,1.49-.29a2.21,2.21,0,0,1,.39,1.07c.58-.12.18-.67.28-1.09.2-.06.52-.12.58,0a.92.92,0,0,0,0,1c.94-.2-.17-1.09.33-1.5.45,1.33,1.29-.42,1.81.72-.05-.39-.46-.69-.42-1.17.74-.15,1.62,1.16,2.69.7.23-.09.17-.41.33-.57a1.1,1.1,0,0,1,1.21.61l.75-.34a1.54,1.54,0,0,0,.49,1c.84-.05.77-1.24,1.55-1.35,0-.45-.52,0-.61-.3-.28-.37.84-1.44.41-2.15.14-.64.71-.18,1.13-.2v0a2,2,0,0,0-.42,1A1.67,1.67,0,0,1,18,82.7a1.67,1.67,0,0,0-.23.57l.59-.56c.66-.37,1,.73,1.45.13-.06-.13-.16-.23-.15-.36,0,.13,0,.32-.2.32-.29-.3-.05-.71-.08-.81.35.19.35.64.6.73-.18.31-.37.63-.3.88.4.2.8-.35.83-.81a9.15,9.15,0,0,0,1.49.94,2.47,2.47,0,0,1-.17.57c.44.14.5-.21.63-.53h0l0,0v0a.81.81,0,0,1,.16-.27c.21,0,.53.15.52.3a1,1,0,0,0-.49.92c1,.28.4-1.09,1.06-1.22-.26,1.45,1.4.27,1.3,1.57.15-.38-.08-.86.2-1.28.75.24.9,1.88,2.11,2,.25,0,.36-.3.6-.36a1.16,1.16,0,0,1,.8,1.17l.85.06a1.63,1.63,0,0,0,0,1.15c.8.38,1.33-.75,2.1-.47.23-.4-.5-.21-.4-.58-.08-.47,1.48-.89,1.45-1.76.45-.52.74.19,1.13.38-.18.59-.76.65-1.09,1.08l.83-.22c.78,0,.5,1.15,1.26.85,0-.15,0-.29,0-.41-.07.12-.17.29-.34.19-.11-.41.31-.67.33-.78.25.38-.07.86.22,1l.05-.75a7,7,0,0,0,.61,1.56,11.18,11.18,0,0,1-5.15,1.41,14.16,14.16,0,0,0-4.79.66c-1.5.47-6.72,1-5.94,3.33-.91,1.35,3,3,4.81,4.08,0-.44.28-.8.94-.72,1.24.14,2.54,6.5,4.25,6.37,1.43-.1,2.67-4.1,4.21-4.23s3.15-.66,4.61-.66,2.5,4,3.78,4.5c-.47.74.49.77-.43,1.88s2.8,5.47,2.09,6.75-7.4,1.13-7.45,2.58,3,5.3,4,6.68c2-.52,4.93-4.54,6.05-4a10.89,10.89,0,0,1,4.06,4.28,2.71,2.71,0,0,1,.22,1c-.08.11-.16.25-.37.22,0,.18.16.07.15.25-.4.21-.39.56-.86.67l.28.26a7.49,7.49,0,0,1-1,1.81c.24,0,.4-.19.59,0,0,.35-.29.66-.15,1-.23.18-.55.51-.55.69.24-.22.68-.24.8-.58.06-.14.2,0,.21.14.45.29-.23.61-.2.89s.44-.15.45-.37c.34-.14.36.35.64.34a1,1,0,0,1-.17.52c.25.14.27-.2.43-.32.09,0,.23.11.22.18a.45.45,0,0,0-.3.38c.41.2.27-.47.57-.47-.23.63.62.23.47.81.1-.16,0-.39.19-.56.33.17.26.92.8,1.07.12,0,.19-.1.3-.11a.52.52,0,0,1,.27.59l.39.09a.71.71,0,0,0-.11.52.36.36,0,0,0,.28.06,14,14,0,0,1-.29,2.58,2,2,0,0,1-.38-1,.43.43,0,0,1-.35-.16.54.54,0,0,0,.12-.34l-.16.3c-.14-.18-.24-.43-.56-.46-.11-.1.08-.2,0-.33a6.85,6.85,0,0,0-1.8-.82.86.86,0,0,1-1.07,0c0,.33-.41.5-.69.33v.32c-.42-.24-.49.44-1,.27-.05.23.2.14.15.37-.59.18-.66.65-1.32.68l.29.38s-.05,0-.07,0c-1,.82-2.06,1.16-3.23,1.92s2.4,8.43,1.28,9.22-1.47,1.63-2.47,2.55-1.14-2.11-1.89-.95c1.17.78-1.68,2.83-.4,3.58s3.94-1.28,5.25-.59.85,4.58,2.17,5.22,1.78,2.71,3,3.44c-.07.08-.1.17,0,.23l.07-.08a.18.18,0,0,0,0-.15l.16.11c1.3.6,4.53-3,5.86-2.38s2.66,1.08,4,1.66,2,2.55,3.36,3.12,1.15,4.58,2.48,5.16,5.19-4.6,6.51-4,.67,5.53,2,6.14,3.15.06,4.44.69,4.1-1.69,5.38-1,.29,6.14,1.55,6.83c1.29.44,3.7-2.27,5-2.26s2.06-2,3.34-2.35,3.18,2,4.42,1.54,2.11-1.83,3.33-2.27,3.39-2.26,4.63-2.57c.85,1.16-3.09,5.84-2.58,7s1.26,1.57,1.5,2.89,3.26,2,3.26,3.41a36.38,36.38,0,0,1,.22,4c-.14,1.34-3.5,2.2-3.7,3.56s1,2.91.8,4.26-1,2.77-1.1,4.13,4.76,2.81,4.82,4.17-2.51,2.88-2.23,4.22,2,2.1,2.56,3.4-2.32,4.65-1.54,5.76,2.89,1.88,3.91,2.78,4.53-2,5.77-1.38,1.49,3.45,2.88,3.68a22,22,0,0,0,3-2.12.23.23,0,0,0,.13.07l.16-.08a1.49,1.49,0,0,0,0-.21l.29-.23c1.16-.93,5.13.58,6-.45s-1.94-5.21-1.27-6.42a.78.78,0,0,1,.16-.21c-.43.73.34,1.61.73,2.29,0,.15.4.22.46.08.29-.61-.5-.93-.69-1.48a1.58,1.58,0,0,0-.18-1.16c1.23-.82,4-1.05,4.36-2.19.45-1.33,1.62-2.89,1.89-4.29s-6.36-3.81-6.21-5.22,5.85-2.29,6-3.7-.33-2.85-.23-4.26-5.66-3.39-5.52-4.78,8.16-1.66,8.43-3-6.21-4.64-5.74-6,.54-3.72,1.27-5,5.81.4,6.82-.66,1-3.07,2.25-3.92c.68-.47,1.61-1.26,2.54-1.94.43.11.81-.77,1.29-.5-1.12.95.9,1.1,0,2,.35-.2.48-.72,1-.86.42.67-.51,2,.35,2.88.17.19.46,0,.68.11a1.14,1.14,0,0,1-.13,1.41l.62.59c-.32.23-.69.47-.76.86.36.79,1.49.27,1.9,1,.44-.16-.25-.48.06-.7s1.18,0,1.84-.18a4.15,4.15,0,0,0,.71.9c-.4.08-.79-.1-1.21,0l.78.36c.61.49-.35,1.2.43,1.45.1-.11.16-.24.29-.28-.13,0-.32.11-.39-.08.18-.38.67-.31.76-.38-.05.45-.6.61-.48.93l.51-.55a8.53,8.53,0,0,0-.73,3.07,7,7,0,0,0,.73-3.86,1.12,1.12,0,0,1-.17-.35c1.32.46,4.26-3.61,5.61-3.21s2.39,1.95,3.76,2.28,3.29-2.06,4.67-1.8,2.82-.82,4.22-.64,2.49,2,3.9,2.09,2.71,1.5,4.11,1.5,3,3.23,4.42,3.14,2.33-5.34,3.72-5.52,3.35,3,4.72,2.67,1.26-6,2.61-6.39,2.09.12,3.4-.39c1.33-1,4.28,1.13,5.45.61,1.53-.68,3.11-3.22,4.42-3.2,1.51,0,1,6.28,2.25,7,1.12.65,6.55-3.85,8-3.42l0,.08a.29.29,0,0,0,.22,0s0,0,0,0c.95,1-4.78,7.57-3.9,8.81s3.43,1,4.24,2.25,1.52,2.57,2.33,3.77,2.43,2.13,3.32,3.21a21.2,21.2,0,0,0,3.54,3c1.28,1.16,3.69-1.78,5.15-1.62s2.68,2.23,4.22,1.93,3.34,1.22,4.81,1,1.27-3.49,2.66-2.88C245.45,183,248.68,181.54,247.77,180.41Zm-23-91.14h0Zm4.13-15.14h0l0,0Zm-.16-.31a.62.62,0,0,1,0,.27,1.05,1.05,0,0,1-.21-.12C228.66,73.91,228.75,73.86,228.76,73.82Zm-.7-.68a.68.68,0,0,1,0-.14.27.27,0,0,0,.07.08S228.08,73.12,228.06,73.14Zm-7,15c.45-.23-.32-.49,0-.76.09-.2.44-.22.85-.23a4,4,0,0,1,.33,1.5c.21-.2.19-.5.53-.48.32.28.3.83.71,1a1.89,1.89,0,0,0,.09,1.07,2.67,2.67,0,0,1,.21-.66.46.46,0,0,0,.31.18c.1-.13.14-.28.27-.34-.13.06-.32.16-.42,0a.65.65,0,0,1,.38-.38.4.4,0,0,1,.2.35c-.15.21-.32.38-.22.58l.25-.34a.67.67,0,0,0,.06.27,9.52,9.52,0,0,0-.25,2,9.71,9.71,0,0,0-2.71-1c-.79-.07-1.38-1.69-2-3.16C220.18,87.77,220.76,87.66,221.09,88.11ZM17.69,80c-.46.25-.84,0-1.06-.44.21-.75.9.19,1.06-.43.32-.15.57-.35.94-.08.19.74-.38,1.53,0,2.21a5.37,5.37,0,0,0-.38.48C17.87,81.39,18,80.47,17.69,80Zm1.36,1.84a.94.94,0,0,0,.2-.44c.07-.31.44,0,.5.21.38.16.45.39.39.64A3.81,3.81,0,0,0,19.05,81.83Zm.92.84-.27-.57a4.19,4.19,0,0,0,.37.35A1.47,1.47,0,0,1,20,82.67Zm.7-.11c.53-.14.77.66,1.31.56a1.81,1.81,0,0,1,0,.52A10.6,10.6,0,0,0,20.67,82.56Z"/><path class="cls-1" d="M122.49,17.86a.54.54,0,0,1-.14.18C122.57,18.21,122.71,18.33,122.49,17.86Z"/><path class="cls-1" d="M236,91.77c1.44-.4,2.41-2.15,3.82-2.59s5.25,2.6,6.64,2.11c-.09-1.75-6.63-5-4.47-6.34-1.21.63-2,1.53-3.45,2a32,32,0,0,1-4,1.46c-.65.12-1.25,1.12-1.85,2.17C233.87,91.12,235.1,92,236,91.77Z"/><path class="cls-1" d="M122.35,18c-.26-.2-.62-.46-.68,0A.62.62,0,0,0,122.35,18Z"/><path class="cls-1" d="M230.62,92.94c.76,0,1.43-1.25,2.1-2.4a2.56,2.56,0,0,0-1.75-.41l-.08,0v0c-.05-.18-.25-.11-.32,0s.08.13.12.15c-.77.41-1.33,1.58-2,2.51A7.41,7.41,0,0,0,230.62,92.94Zm.13-2.73v-.12s.06,0,.09.1l-.1,0S230.75,90.22,230.75,90.21Z"/><path class="cls-1" d="M200.58,119c.19.1.32.18.5,0,.09,0,.14-.2,0-.25S200.55,118.69,200.58,119Z"/><rect class="cls-1" x="213.33" y="134.46" width="0.06" height="0.24" transform="translate(-29.98 201.07) rotate(-47.53)"/><path class="cls-1" d="M213.57,134.17c0,.1.07.18.17.16l0-.1A.14.14,0,0,0,213.57,134.17Z"/><path class="cls-1" d="M214.05,135.05l-.06.07c-.15-.1-.16-.18-.35-.24l.5.38C214.06,135.22,214,135.12,214.05,135.05Z"/><path class="cls-1" d="M214.17,135c0,.08.07.11.13.13A.19.19,0,0,0,214.17,135Z"/><path class="cls-1" d="M214.46,135.39c.12-.21,0-.22-.16-.26C214.36,135.27,214.32,135.46,214.46,135.39Z"/><path class="cls-1" d="M219.63,139.56l-.11-.1c-.08,0-.19,0-.27.08A.21.21,0,0,0,219.63,139.56Z"/><path class="cls-1" d="M241.75,136.32a.67.67,0,0,1-.43-.25c0-.37-.29-.75-.2-1.06-.37-.06-.23-.5-.61-.6-.06-.09.09-.14,0-.25a5.35,5.35,0,0,0-1.2-.84.63.63,0,0,1-.78-.15c0,.25-.36.31-.54.15l0,.24c-.28-.24-.41.24-.75.06-.07.16.13.12.06.29-.45.05-.57.38-1,.32l.18.34c-.54.44-1,1.09-1.58,1.33.22.09.44,0,.55.23-.1.33-.51.51-.5.88a1.53,1.53,0,0,0-.76.44c.3-.11.72,0,1-.25.09-.11.17.1.14.2.32.43-.43.49-.51.77.13.19.47,0,.55-.19.37,0,.22.45.49.55a1,1,0,0,1-.35.42c.19.22.32-.09.52-.15s.18.19.14.25a.41.41,0,0,0-.41.25c.31.33.41-.34.7-.24-.44.51.49.43.15.93.14-.12.17-.36.38-.46.24.27-.09.95.36,1.28.1.08.22,0,.32,0a.53.53,0,0,1,.05.65l.32.23a.67.67,0,0,0-.28.44c.22.34.7,0,.93.31.19-.1-.15-.2,0-.32s.8,0,1-.36c.3-.1.25.25.36.42-.21.19-.46.07-.69.17l.38.11c.32.17-.07.57.3.63,0-.06.06-.12.11-.15s-.13.07-.18,0,.28-.19.32-.23c0,.21-.23.32-.15.46l.19-.29a4.13,4.13,0,0,0-.11,1.45,3.2,3.2,0,0,0,0-1.81c-.44-.46.28-.65.44-1a.35.35,0,0,1-.07-.54c.37-.1.12.44.45.33a4.68,4.68,0,0,0-.31-.59l.34-1.15c.13.1.35,0,.39-.17a.76.76,0,0,1-.6-.46c.07-.16-.08-.36.16-.39.07.07.1.19.21.22-.2-.74.28-1.49.09-2.27C241.4,136.36,241.72,136.59,241.75,136.32Z"/><path class="cls-1" d="M241.49,139.16c0,.16,0,.27.19.33,0,0,.17,0,.16-.09S241.66,139.05,241.49,139.16Z"/><path class="cls-1" d="M242.09,143.2c.21-.35-.25-.59-.33-.94s.1-.58-.06-.74c-.62.42-.11,1.11.11,1.6C241.83,143.22,242,143.28,242.09,143.2Z"/><path class="cls-1" d="M234.3,140.73c0,.06.22,0,.22-.07C234.29,140.52,234.53,140.8,234.3,140.73Z"/><polygon class="cls-1" points="234.11 140.68 234.04 140.75 234.08 140.78 234.11 140.68"/><path class="cls-1" d="M236.68,142.86h.12c.12-.11,0-.23-.09-.26s-.15.19,0,.18l.08-.05S236.75,142.86,236.68,142.86Z"/><path class="cls-1" d="M236.32,143.15c0,.12-.18.08-.11.24a.68.68,0,0,0,.45-.38l-.34.29Z"/><path class="cls-1" d="M235.79,142.79a.68.68,0,0,0-.44.74c.22-.12.27-.4.45-.53Z"/><polygon class="cls-1" points="240.21 144.31 240.18 144.41 240.2 144.42 240.23 144.31 240.21 144.31"/><path class="cls-1" d="M240.11,145.28l.09-.38A1.3,1.3,0,0,0,240.11,145.28Z"/><path class="cls-1" d="M238.08,144.59c-.12.09-.33.21-.27.41,0-.08.11-.43.28-.29Z"/><polygon class="cls-1" points="238.08 144.75 238.02 144.78 238.05 144.86 238.08 144.75"/><path class="cls-1" d="M240.12,145.58c0-.09,0-.19,0-.25.06.1-.06.23-.12.26A.17.17,0,0,0,240.12,145.58Z"/><path class="cls-1" d="M240,145.59h0S240,145.6,240,145.59Z"/><path class="cls-1" d="M237.91,145c0,.06,0,.2-.12.17l0-.08c-.06,0,0,.2.08.18S238,145.06,237.91,145Z"/><path class="cls-1" d="M238,145.92c0-.13,0-.31-.17-.2s-.05.21.07.24Z"/><path class="cls-1" d="M234.61,146.24c0-.05.06-.12,0-.14S234.55,146.22,234.61,146.24Z"/><path class="cls-1" d="M234.15,147.06c0-.07-.18,0-.18,0S234.15,147.15,234.15,147.06Z"/><path class="cls-1" d="M235.68,152.06a.64.64,0,0,1,0,.07Z"/><path class="cls-1" d="M235.79,152.14l0-.37-.08.29s0,0,0,0Z"/><rect class="cls-1" x="235.38" y="152.73" width="0.18" height="0.04" transform="translate(24.78 338.2) rotate(-74.33)"/><path class="cls-1" d="M235.82,152.88a.13.13,0,0,0,0-.12c-.06.05-.1.11,0,.17Z"/><path class="cls-1" d="M235.28,153.5c0-.07,0-.15.1-.13l-.06,0c0-.13.07-.16,0-.31Z"/><path class="cls-1" d="M235.3,153.75c.17,0,.13-.1.12-.19C235.34,153.64,235.2,153.68,235.3,153.75Z"/><path class="cls-1" d="M235.45,153.43a.12.12,0,0,0,0,.13A.17.17,0,0,0,235.45,153.43Z"/><path class="cls-1" d="M234.27,158.54l0-.11c0-.07-.08-.11-.14-.15S234.14,158.52,234.27,158.54Z"/><path class="cls-1" d="M263.16,166.28c.1-.29-.17-.61.22-.67.13.1.2.3.38.34-.42-1.22.31-2.53-.09-3.82.24-.24.8.1.82-.35a1.13,1.13,0,0,1-.74-.38c0-.61-.57-1.21-.45-1.75-.63-.06-.43-.81-1.08-.94-.12-.14.12-.24,0-.42a8.39,8.39,0,0,0-2.1-1.27,1,1,0,0,1-1.31-.17c0,.41-.57.56-.89.3l-.05.4c-.49-.36-.67.46-1.25.19-.09.28.23.2.13.48-.75.14-.91.71-1.72.65l.33.56c-.84.79-1.54,1.92-2.5,2.39.39.12.73-.1.95.32-.13.57-.8.92-.74,1.53-.45.17-1.14.55-1.23.83.5-.23,1.21,0,1.57-.53.16-.19.31.14.27.32.57.69-.67.87-.77,1.34.23.32.79,0,.91-.37.61-.06.41.73.87.86a1.79,1.79,0,0,1-.54.75c.34.34.53-.18.86-.3.12.1.31.29.25.39a.74.74,0,0,0-.66.46c.56.53.65-.61,1.15-.47-.68.91.87.68.35,1.54.23-.21.24-.62.58-.81.44.43,0,1.61.76,2.11.16.11.35-.07.53,0a.9.9,0,0,1,.15,1.08l.56.35a1.21,1.21,0,0,0-.43.77c.41.54,1.18-.05,1.61.42.3-.2-.27-.32-.08-.54s1.34-.1,1.62-.71c.49-.2.44.39.65.66-.34.34-.75.18-1.13.36l.65.14c.54.27-.06,1,.57,1,.06-.1.08-.21.17-.27-.09.06-.22.14-.31,0,.07-.32.46-.35.51-.42,0,.35-.35.57-.21.79l.3-.51a6.49,6.49,0,0,0,0,2.44,5.36,5.36,0,0,0-.11-3c-.78-.73.39-1.12.63-1.71-.37-.19-.37-.56-.19-.9.61-.21.26.73.8.51a4.76,4.76,0,0,0-.59-.95l.46-2c.23.17.58-.06.63-.31A1.29,1.29,0,0,1,263.16,166.28Z"/><path class="cls-1" d="M265,166.93c-.12-.18-.33-.56-.6-.36,0,.27,0,.46.34.53C264.77,167.18,265,167.12,265,166.93Z"/><path class="cls-1" d="M265.15,171.74c.09-.4.1-1-.18-1.24-1,.76-.06,1.86.37,2.67,0,.16.4.23.46.1C266.12,172.66,265.33,172.3,265.15,171.74Z"/><path class="cls-1" d="M252.85,169.83c-.41-.2,0,.23-.37.15C252.58,170.07,252.86,170,252.85,169.83Z"/><polygon class="cls-1" points="252.12 170.09 252.16 169.91 252.06 170.03 252.12 170.09"/><path class="cls-1" d="M256.72,172.84c0,.1-.22.32,0,.29l.13-.08s0,.22-.13.23l.2,0C257.09,173.06,256.87,172.87,256.72,172.84Z"/><path class="cls-1" d="M256.14,173.8c-.08.21-.3.16-.16.42a1.07,1.07,0,0,0,.71-.68l-.53.53Z"/><path class="cls-1" d="M254.55,174.55c.35-.22.41-.7.69-.94l0-.35A1.14,1.14,0,0,0,254.55,174.55Z"/><rect class="cls-1" x="262.68" y="175.4" width="0.18" height="0.04" transform="translate(36.39 395.81) rotate(-77.96)"/><path class="cls-1" d="M262.82,176.32a2.3,2.3,0,0,0-.1.65Z"/><path class="cls-1" d="M258.82,176.66c0-.2.2-.61.45-.42l0-.2C259.07,176.18,258.78,176.38,258.82,176.66Z"/><path class="cls-1" d="M258.82,176.74a.22.22,0,0,1,0-.08A.11.11,0,0,0,258.82,176.74Z"/><polygon class="cls-1" points="259.22 176.49 259.25 176.31 259.17 176.37 259.22 176.49"/><path class="cls-1" d="M262.56,177.5a.31.31,0,0,0,.21,0c0-.14.06-.32,0-.42C262.85,177.21,262.67,177.44,262.56,177.5Z"/><path class="cls-1" d="M262.56,177.5h-.06S262.53,177.52,262.56,177.5Z"/><path class="cls-1" d="M259,176.66c0,.11,0,.34-.18.31l-.08-.14c-.09.06,0,.35.16.3S259.18,176.82,259,176.66Z"/><path class="cls-1" d="M258.87,178c-.06.1-.08.36.13.41l.17-.08C259.18,178.06,259.13,177.75,258.87,178Z"/><path class="cls-1" d="M253.61,179.16c0-.07.08-.2,0-.22S253.5,179.14,253.61,179.16Z"/><path class="cls-1" d="M252.62,180.61c0,.12.31.14.3,0S252.62,180.61,252.62,180.61Z"/><path class="cls-1" d="M256.22,188.93l-.09-.62-.11.51s0-.06.05-.07Z"/><path class="cls-1" d="M256,188.82a.58.58,0,0,0,0,.1Z"/><rect class="cls-1" x="255.59" y="189.96" width="0.29" height="0.07" transform="translate(16.53 400.42) rotate(-77.95)"/><path class="cls-1" d="M256.24,190.25l.1-.09a.2.2,0,0,0,0-.19C256.21,190.06,256.15,190.16,256.24,190.25Z"/><path class="cls-1" d="M255.59,190.49l-.08.66c0-.07.08-.13.15-.12l-.11,0C255.56,190.79,255.65,190.73,255.59,190.49Z"/><path class="cls-1" d="M255.51,191.15a.41.41,0,0,0,0,.11Z"/><path class="cls-1" d="M255.56,191.69c.29,0,.21-.18.18-.34C255.62,191.5,255.4,191.57,255.56,191.69Z"/><path class="cls-1" d="M255.79,191.13a.19.19,0,0,0,0,.22A.26.26,0,0,0,255.79,191.13Z"/><path class="cls-1" d="M254.14,199.39a.25.25,0,0,0,.21.42l0-.18C254.38,199.52,254.24,199.45,254.14,199.39Z"/><path class="cls-1" d="M229.53,160.26c.12.25.19.43.53.37.09.07.3-.09.19-.27S229.71,160,229.53,160.26Z"/><path class="cls-1" d="M232.31,165c-.07-.42-.29-1-.67-1.14-.66,1.14.68,1.85,1.41,2.46.11.14.49.08.5-.08C233.62,165.5,232.71,165.46,232.31,165Z"/><rect class="cls-1" x="230.26" y="186.3" width="0.08" height="0.31" transform="translate(-28.55 42.23) rotate(-9.87)"/><path class="cls-1" d="M231,186.38a.23.23,0,0,0-.11-.18c-.05.13-.07.25.06.31Z"/><path class="cls-1" d="M230.52,187.51c-.07-.22,0-.31-.17-.51l.22.78c-.06-.11,0-.27.07-.29Z"/><path class="cls-1" d="M230.8,187.54c-.05.08,0,.16,0,.24A.26.26,0,0,0,230.8,187.54Z"/><path class="cls-1" d="M230.8,188.17c.28-.12.13-.25,0-.39C230.79,188,230.59,188.12,230.8,188.17Z"/><path class="cls-1" d="M232.44,196.23a.27.27,0,0,0,.37.33l0-.19C232.72,196.26,232.56,196.25,232.44,196.23Z"/><path class="cls-1" d="M180.46,176.46l.06-.1A.37.37,0,0,0,180.46,176.46Z"/><path class="cls-1" d="M180.59,176.31l.09.23.11-.65-.27.47S180.55,176.31,180.59,176.31Z"/><rect class="cls-1" x="179.69" y="177.41" width="0.31" height="0.08" transform="translate(-63.67 244.76) rotate(-60.07)"/><path class="cls-1" d="M180.27,177.87l.13-.06a.21.21,0,0,0,0-.21C180.3,177.66,180.21,177.75,180.27,177.87Z"/><path class="cls-1" d="M179.25,178.54a.47.47,0,0,0-.05.1Z"/><path class="cls-1" d="M179.44,178.47l-.1-.06c.08-.22.19-.25.2-.51l-.29.64C179.3,178.47,179.37,178.43,179.44,178.47Z"/><path class="cls-1" d="M179.12,179.09c.3.09.28-.11.29-.28C179.25,178.92,179,178.92,179.12,179.09Z"/><path class="cls-1" d="M179.41,178.81a.22.22,0,0,0,.12-.2C179.44,178.64,179.42,178.72,179.41,178.81Z"/><path class="cls-1" d="M175.28,186.86l.1-.17c0-.12-.09-.23-.18-.32A.27.27,0,0,0,175.28,186.86Z"/><path class="cls-1" d="M158.26,168.49c-1.47.68-.61,2.34-.3,3.48,0,.21.44.41.57.26.57-.68-.32-1.36-.39-2.12A1.84,1.84,0,0,0,158.26,168.49Z"/><path class="cls-1" d="M147.19,169.09c-.05.13-.37.35-.11.37l.19-.07c0,.06-.08.28-.23.26h.26C147.59,169.48,147.37,169.17,147.19,169.09Z"/><path class="cls-1" d="M146.19,170.14c-.17.24-.43.12-.33.48A1.38,1.38,0,0,0,147,170l-.82.52Z"/><path class="cls-1" d="M144,170.64c.5-.19.72-.77,1.14-1l0-.45A1.45,1.45,0,0,0,144,170.64Z"/><rect class="cls-1" x="153.96" y="174.05" width="0.24" height="0.05" transform="translate(-68.54 241.03) rotate(-65.22)"/><path class="cls-1" d="M153.9,175.22a2.72,2.72,0,0,0-.32.8Z"/><path class="cls-1" d="M148.75,174.51c.08-.25.42-.7.69-.4v-.26C149.2,174,148.78,174.15,148.75,174.51Z"/><path class="cls-1" d="M148.75,174.51a.15.15,0,0,0,0,.11S148.74,174.55,148.75,174.51Z"/><polygon class="cls-1" points="149.3 174.41 149.4 174.19 149.27 174.24 149.3 174.41"/><path class="cls-1" d="M153.23,176.64a.39.39,0,0,0,.26,0c.08-.17.18-.39.09-.53C153.67,176.36,153.38,176.59,153.23,176.64Z"/><path class="cls-1" d="M153.23,176.64l-.08,0S153.18,176.65,153.23,176.64Z"/><path class="cls-1" d="M148.65,174.9l-.07-.19c-.12,0-.05.44.12.42s.46-.31.26-.56C148.9,174.7,148.87,175,148.65,174.9Z"/><path class="cls-1" d="M148.44,176.16c-.11.11-.2.43.06.55l.23-.05C148.8,176.38,148.84,176,148.44,176.16Z"/><path class="cls-1" d="M141.46,176.18c0-.08.16-.24.08-.28S141.33,176.12,141.46,176.18Z"/><path class="cls-1" d="M139.81,177.73c0,.16.34.26.38.07S139.81,177.73,139.81,177.73Z"/><path class="cls-1" d="M141.84,189l.13.27.06-.81-.27.6A.09.09,0,0,1,141.84,189Z"/><path class="cls-1" d="M141.7,189.17l.06-.13A1.18,1.18,0,0,0,141.7,189.17Z"/><rect class="cls-1" x="140.86" y="190.4" width="0.38" height="0.1" transform="translate(-90.96 238.82) rotate(-65.25)"/><path class="cls-1" d="M141.62,190.92l.15-.09a.24.24,0,0,0,0-.25C141.64,190.67,141.53,190.78,141.62,190.92Z"/><path class="cls-1" d="M140.45,191.85c.05-.09.13-.15.22-.11l-.13-.06c.08-.28.2-.33.19-.65Z"/><path class="cls-1" d="M140.45,191.85a.21.21,0,0,0,0,.13Z"/><path class="cls-1" d="M140.35,192.54c.38.07.32-.17.32-.37C140.49,192.32,140.18,192.34,140.35,192.54Z"/><path class="cls-1" d="M140.67,192.17a.3.3,0,0,0,.13-.27C140.69,192,140.67,192.05,140.67,192.17Z"/><path class="cls-1" d="M136.37,201.85a.33.33,0,0,0,.14.59l.1-.22C136.63,202.08,136.48,202,136.37,201.85Z"/><path class="cls-1" d="M119.63,215.64c0-.07.07-.2,0-.22S119.52,215.62,119.63,215.64Z"/><path class="cls-1" d="M118.71,217.1c.05.12.31.13.3,0S118.71,217.1,118.71,217.1Z"/><path class="cls-1" d="M122.33,225.05a.28.28,0,0,0,0,.11Z"/><path class="cls-1" d="M122.33,225.05s0-.05,0-.06l.16.17-.11-.6Z"/><rect class="cls-1" x="121.94" y="226.19" width="0.29" height="0.07" transform="translate(-122.04 306.77) rotate(-79.91)"/><path class="cls-1" d="M122.59,226.46l.09-.09a.2.2,0,0,0,0-.19C122.55,226.27,122.5,226.37,122.59,226.46Z"/><path class="cls-1" d="M122,226.72l-.06.65c0-.07.07-.14.15-.12l-.11,0C121.94,227,122,227,122,226.72Z"/><path class="cls-1" d="M121.9,227.37a.21.21,0,0,0,0,.11Z"/><path class="cls-1" d="M122,227.89c.29,0,.2-.18.16-.33C122,227.71,121.8,227.79,122,227.89Z"/><path class="cls-1" d="M122.18,227.34a.19.19,0,0,0-.05.22A.24.24,0,0,0,122.18,227.34Z"/><path class="cls-1" d="M95.1,193.76c-1.27-.09-.48-1.32-.7-2-.49.1-.76-.25-.85-.69.41-.65.79.48,1.11-.13a6.91,6.91,0,0,0-1.25-.44l-1-2.15c.33,0,.48-.49.35-.76a1.51,1.51,0,0,1-1.5.13c-.12-.33-.61-.42-.3-.78.19,0,.41.14.6,0-1.29-.81-1.6-2.56-2.93-3.44,0-.41.81-.51.5-.94a1.35,1.35,0,0,1-1,.2c-.48-.54-1.43-.68-1.73-1.26-.62.41-1-.42-1.69-.07-.22,0-.06-.31-.3-.38a10.24,10.24,0,0,0-2.88.39,1.23,1.23,0,0,1-1.33.83c.29.39-.11.94-.6.94l.26.41c-.72,0-.26.92-1,1.1.12.33.35,0,.47.34-.58.69-.3,1.33-1.09,1.88l.72.27c-.18,1.36,0,2.92-.51,4.07.45-.18.6-.64,1.11-.42.32.62-.05,1.44.46,2a3.11,3.11,0,0,0-.51,1.67c.29-.58,1.09-.94,1.06-1.66,0-.29.39-.1.49.09,1,.21,0,1.31.29,1.81.44.11.71-.61.55-1,.52-.51.92.36,1.44.15a2,2,0,0,1,.07,1.08c.57.06.35-.56.56-.92.19,0,.5,0,.52.18a.87.87,0,0,0-.26.91c.92.07.15-1.05.71-1.29,0,1.34,1.3,0,1.47,1.16,0-.37-.24-.76-.07-1.19.72.07,1.16,1.51,2.27,1.38.23,0,.27-.33.46-.43a1.05,1.05,0,0,1,1,.88l.77-.1a1.45,1.45,0,0,0,.19,1c.78.19,1-.93,1.78-.82.13-.41-.49-.09-.47-.44-.16-.41,1.16-1.08,1-1.86.3-.54.7,0,1.09.13,0,.56-.56.73-.77,1.17l.7-.35c.7-.17.67.93,1.29.51a1,1,0,0,1-.05-.37c0,.12-.09.29-.27.24-.17-.35.15-.67.15-.76.3.29.11.78.4.87l-.1-.68a7.81,7.81,0,0,0,1.79,2.26A6.24,6.24,0,0,0,95.1,193.76Z"/><path class="cls-1" d="M93.25,187.27c.12,0,.29-.19.11-.35s-.72-.26-.81.13C92.76,187.28,92.9,187.45,93.25,187.27Z"/><path class="cls-1" d="M97.12,191.21c-.22-.43-.65-1-1.1-1-.34,1.44,1.34,1.75,2.34,2.17.15.12.54-.08.5-.25C98.7,191.33,97.71,191.59,97.12,191.21Z"/><path class="cls-1" d="M84.17,199.05c.15,0,.35-.27.23-.41C83.87,198.77,84.59,198.84,84.17,199.05Z"/><polygon class="cls-1" points="83.82 199.43 83.92 199.43 83.82 199.23 83.82 199.43"/><path class="cls-1" d="M90.45,198.63c.06,0,.16.21.06.31l.16-.18c0-.31-.32-.33-.47-.25.06.12,0,.47.2.29Z"/><path class="cls-1" d="M90.6,200.07l-.21-.24c.08.26-.16.38.16.51a1.26,1.26,0,0,0,.14-1.15Z"/><path class="cls-1" d="M89.12,200a1.34,1.34,0,0,0,.37,1.67c.15-.47-.15-1-.07-1.38Z"/><rect class="cls-1" x="97.66" y="196.26" width="0.04" height="0.22" transform="translate(-78.7 66.02) rotate(-27.09)"/><path class="cls-1" d="M98.8,197.83l-.4-.68A2.52,2.52,0,0,0,98.8,197.83Z"/><path class="cls-1" d="M95.08,199.73l-.18-.15c-.05.25-.16.65.08.88C94.84,200.26,94.71,199.75,95.08,199.73Z"/><path class="cls-1" d="M95,200.46a.22.22,0,0,0,.06.07S95,200.48,95,200.46Z"/><polygon class="cls-1" points="95.12 199.81 95.08 199.93 95.22 200 95.12 199.81"/><path class="cls-1" d="M99,198.43l-.06,0S99,198.47,99,198.43Z"/><path class="cls-1" d="M98.87,197.89c.22.07.23.41.17.54a.33.33,0,0,0,.17-.18C99.13,198.1,99,197.91,98.87,197.89Z"/><path class="cls-1" d="M95.14,200.34c.06.11.26.3.06.4l-.17-.05c0,.11.29.29.37.15C95.32,200.68,95.43,200.33,95.14,200.34Z"/><path class="cls-1" d="M96,201.61c0,.14.2.39.43.27l.09-.19C96.36,201.47,96.08,201.22,96,201.61Z"/><path class="cls-1" d="M91.91,206.44c0,.08,0,.27.15.21C92,206.57,92,206.4,91.91,206.44Z"/><path class="cls-1" d="M92.24,208.71c.14.08.39-.1.27-.23S92.24,208.71,92.24,208.71Z"/><path class="cls-1" d="M101.76,213.67l-.55-.5.26.5a.14.14,0,0,1,0-.06Z"/><path class="cls-1" d="M101.55,213.82l-.08-.15A.5.5,0,0,0,101.55,213.82Z"/><rect class="cls-1" x="102.06" y="214.83" width="0.09" height="0.35" transform="translate(-86.72 70.1) rotate(-27.09)"/><path class="cls-1" d="M102.79,214.71a.25.25,0,0,0-.18-.16c0,.16,0,.3.16.31Z"/><path class="cls-1" d="M102.77,216.23a.41.41,0,0,0,.07.11Z"/><path class="cls-1" d="M102.82,216l-.12.06c-.16-.21-.12-.33-.35-.5l.42.66A.16.16,0,0,1,102.82,216Z"/><path class="cls-1" d="M103,216c0,.11,0,.18.12.24A.28.28,0,0,0,103,216Z"/><path class="cls-1" d="M103.13,216.25c0,.22-.15.46.08.44C103.47,216.46,103.28,216.37,103.13,216.25Z"/><path class="cls-1" d="M107.67,224.82c0,.3.29.39.51.23l-.1-.19C108,224.76,107.8,224.8,107.67,224.82Z"/><path class="cls-1" d="M106.16,175.92l-.09-.2c-.1-.1-.28-.06-.41,0A.3.3,0,0,0,106.16,175.92Z"/><rect class="cls-1" x="50.27" y="156.44" width="0.24" height="0.06" transform="translate(-110.1 192.06) rotate(-84.65)"/><path class="cls-1" d="M50.34,157.3c0-.18,0-.23,0-.42v.63c0-.09,0-.21.11-.2Z"/><path class="cls-1" d="M50.54,157.38a.14.14,0,0,0,0,.18A.19.19,0,0,0,50.54,157.38Z"/><path class="cls-1" d="M50.41,157.85c.23,0,.15-.17.11-.29C50.44,157.69,50.26,157.77,50.41,157.85Z"/><path class="cls-1" d="M50,164.15c-.11.17,0,.33.21.32v-.15C50.19,164.23,50.08,164.19,50,164.15Z"/><path class="cls-1" d="M50.54,129.52c-.26-.05.06.12-.18.14C50.43,129.7,50.57,129.6,50.54,129.52Z"/><polygon class="cls-1" points="50.13 129.77 50.17 129.79 50.16 129.68 50.13 129.77"/><path class="cls-1" d="M53.45,130.75c.07-.14-.09-.21-.18-.2s-.06.22,0,.17l.06-.07s0,.13,0,.16Z"/><path class="cls-1" d="M15.21,75.88c.12,0,.23-.29,0-.39s-.8,0-.78.37C14.72,76,14.91,76.16,15.21,75.88Z"/><path class="cls-1" d="M9.62,90.4c.17,0,.27-.38.11-.48C9.24,90.2,10,90.05,9.62,90.4Z"/><polygon class="cls-1" points="9.39 90.88 9.48 90.84 9.33 90.68 9.39 90.88"/><path class="cls-1" d="M15.51,88.05c.09.1.18.46.28.24v-.2c.07,0,.23.17.16.3l.1-.23C16,87.84,15.64,87.93,15.51,88.05Z"/><path class="cls-1" d="M16.37,89.49l-.28-.17c.15.23,0,.42.31.46a1.3,1.3,0,0,0-.2-1.2Z"/><path class="cls-1" d="M14.88,89.91a1.4,1.4,0,0,0,.87,1.56c0-.51-.43-.91-.48-1.36Z"/><path class="cls-1" d="M23.32,84.24a3.09,3.09,0,0,0,.6.56Z"/><path class="cls-1" d="M20.88,88.58l.09,0S20.91,88.59,20.88,88.58Z"/><path class="cls-1" d="M20.76,87.82l-.22-.1c0,.26,0,.7.34.86C20.69,88.42,20.4,88,20.76,87.82Z"/><polygon class="cls-1" points="20.82 87.89 20.82 88.01 20.98 88.05 20.82 87.89"/><path class="cls-1" d="M24.35,85.33l-.06.06S24.34,85.38,24.35,85.33Z"/><path class="cls-1" d="M24,84.84c.24,0,.34.34.33.49a.36.36,0,0,0,.11-.23C24.33,85,24.18,84.81,24,84.84Z"/><path class="cls-1" d="M21,88.79c0,.13.39.2.42,0-.12-.13-.11-.52-.41-.43.1.1.35.24.19.4Z"/><path class="cls-1" d="M22.75,89.57l0-.22c-.22-.17-.57-.34-.54.08C22.3,89.56,22.55,89.76,22.75,89.57Z"/><path class="cls-1" d="M19.59,95.49c.06.06.12.26.22.16C19.74,95.59,19.65,95.43,19.59,95.49Z"/><path class="cls-1" d="M20.6,97.67c.16,0,.36-.22.2-.32S20.6,97.67,20.6,97.67Z"/><rect class="cls-1" x="32.32" y="100.85" width="0.09" height="0.36" transform="translate(-60.82 50.34) rotate(-43.69)"/><path class="cls-1" d="M33,100.69l0-.16a.23.23,0,0,0-.22-.1C32.77,100.59,32.83,100.72,33,100.69Z"/><path class="cls-1" d="M33.38,101.83l-.1.09c-.22-.17-.22-.29-.5-.4l.62.54C33.34,102,33.31,101.89,33.38,101.83Z"/><path class="cls-1" d="M33.5,102.15l-.1-.09A.28.28,0,0,0,33.5,102.15Z"/><path class="cls-1" d="M33.76,102c.07.22,0,.5.22.42C34.17,102.08,34,102,33.76,102Z"/><path class="cls-1" d="M33.58,101.77c0,.11.08.16.18.2A.26.26,0,0,0,33.58,101.77Z"/><path class="cls-1" d="M41.45,109.29l-.15-.17c-.13-.06-.29,0-.42.09A.31.31,0,0,0,41.45,109.29Z"/><path class="cls-1" d="M34.11,78.35c.11.07.35-.14.2-.34s-.71-.45-.9-.06C33.58,78.25,33.69,78.47,34.11,78.35Z"/><path class="cls-1" d="M38.39,85c.14.16.6,0,.6-.16,0-.89-1.11-.83-1.65-1.38-.14-.51-.47-1.2-1-1.32C35.7,83.59,37.42,84.32,38.39,85Z"/><path class="cls-1" d="M21.69,88.86c.17.06.44-.21.34-.38C21.45,88.49,22.2,88.73,21.69,88.86Z"/><polygon class="cls-1" points="21.34 89.2 21.28 88.97 21.24 89.18 21.34 89.2"/><rect class="cls-1" x="36.73" y="88.98" width="0.05" height="0.24" transform="translate(-21.79 12.53) rotate(-14.98)"/><path class="cls-1" d="M37.34,90.1a3,3,0,0,0,.27.81Z"/><path class="cls-1" d="M38,91.46c-.05-.18-.11-.41-.27-.47.22.13.14.49.06.62A.31.31,0,0,0,38,91.46Z"/><path class="cls-1" d="M37.74,91.61l-.08,0S37.71,91.66,37.74,91.61Z"/><path class="cls-1" d="M36.83,108.46l0-.06.27.12-.47-.66Z"/><path class="cls-1" d="M36.88,108.64l-.05-.18A.39.39,0,0,0,36.88,108.64Z"/><rect class="cls-1" x="37.16" y="109.84" width="0.1" height="0.38" transform="translate(-27.14 13.33) rotate(-14.96)"/><path class="cls-1" d="M37.84,109.67c-.05.16-.06.31.1.36l.06-.16A.26.26,0,0,0,37.84,109.67Z"/><path class="cls-1" d="M37.63,111.5a.29.29,0,0,0,0,.13Z"/><path class="cls-1" d="M37.73,111.27l-.14,0c-.12-.26-.05-.38-.26-.62l.3.81A.19.19,0,0,1,37.73,111.27Z"/><path class="cls-1" d="M37.94,111.32c-.06.1,0,.19.07.28A.3.3,0,0,0,37.94,111.32Z"/><path class="cls-1" d="M38,112.09c.33-.19.14-.33,0-.49C38,111.83,37.74,112.05,38,112.09Z"/><path class="cls-1" d="M41.38,122.17l-.06-.23c-.08-.13-.28-.13-.43-.13A.33.33,0,0,0,41.38,122.17Z"/><path class="cls-1" d="M76.11,61.56a1.6,1.6,0,0,0-.83.34c.32-.07.72.13,1-.12.11-.09.16.12.12.22.25.48-.51.44-.62.71.1.21.47.08.58-.12.37,0,.15.48.41.62a1,1,0,0,1-.41.38c.16.24.34-.05.55-.08s.15.21.1.27a.44.44,0,0,0-.45.19c.27.38.46-.28.74-.14-.51.46.44.51,0,1,.17-.1.22-.34.45-.42.2.31-.22.95.19,1.35.08.08.22,0,.32,0a.54.54,0,0,1,0,.66l.29.28c-.14.1-.32.22-.35.4.18.37.71.11.9.44.21-.08-.12-.22,0-.33s.8.11,1-.22c.32-.06.22.29.3.47-.24.16-.46,0-.71.08l.37.16c.29.22-.15.56.21.67.05-.05.08-.11.14-.13s-.15.05-.18,0,.31-.16.34-.19c0,.21-.27.29-.21.44l.23-.26a4.07,4.07,0,0,0-.31,1.44,3.21,3.21,0,0,0,.3-1.81c-.37-.53.37-.62.58-.94-.2-.16-.15-.38,0-.56.39,0,.07.47.41.4a3.23,3.23,0,0,0-.23-.64L81.9,65c.11.12.35,0,.41-.11a.79.79,0,0,1-.54-.55c.09-.15,0-.38.21-.37.07.08.08.21.19.25-.11-.77.49-1.46.4-2.27.18-.12.47.15.53-.11a.7.7,0,0,1-.39-.32c.06-.36-.19-.79-.06-1.09-.36-.11-.16-.53-.52-.69-.06-.1.1-.13.05-.24a4.89,4.89,0,0,0-1.09-1,.65.65,0,0,1-.76-.26c0,.24-.4.26-.56.07l-.08.23c-.24-.27-.45.19-.76,0-.09.16.11.15,0,.3-.46,0-.62.31-1.1.18l.13.37a7.8,7.8,0,0,1-1.77,1.12c.21.12.44,0,.52.3C76.59,61.07,76.15,61.19,76.11,61.56Z"/><path class="cls-1" d="M82.77,64.92c0-.11-.13-.37-.31-.28,0,.16,0,.27.14.35C82.62,65.05,82.77,65,82.77,64.92Z"/><path class="cls-1" d="M82.34,67c-.68.34-.26,1.1-.11,1.63,0,.1.21.19.27.12.26-.33-.16-.63-.2-1S82.48,67.22,82.34,67Z"/><path class="cls-1" d="M75.23,65.19c-.22-.17,0,.14-.24,0C75,65.3,75.22,65.28,75.23,65.19Z"/><polygon class="cls-1" points="74.77 65.25 74.81 65.15 74.73 65.21 74.77 65.25"/><path class="cls-1" d="M77.1,67.7h.12c.13-.09,0-.23-.06-.26s-.17.16,0,.17l.09,0S77.17,67.7,77.1,67.7Z"/><path class="cls-1" d="M76.56,68.17a.68.68,0,0,0,.5-.32l-.38.25,0-.16C76.63,68.05,76.51,68,76.56,68.17Z"/><path class="cls-1" d="M75.67,68.19c.23-.09.33-.36.52-.47l0-.21A.68.68,0,0,0,75.67,68.19Z"/><polygon class="cls-1" points="80.43 69.75 80.47 69.65 80.45 69.64 80.41 69.75 80.43 69.75"/><path class="cls-1" d="M80.22,70.61l.14-.37A1.51,1.51,0,0,0,80.22,70.61Z"/><path class="cls-1" d="M78.27,69.64c-.13.07-.36.16-.33.37,0-.08.18-.41.32-.25Z"/><polygon class="cls-1" points="78.25 69.8 78.19 69.82 78.2 69.9 78.25 69.8"/><path class="cls-1" d="M80.07,70.9h0S80,70.91,80.07,70.9Z"/><path class="cls-1" d="M80.19,70.91c0-.08.08-.18,0-.25,0,.11-.09.22-.16.24A.13.13,0,0,0,80.19,70.91Z"/><path class="cls-1" d="M78.05,70c0,.06,0,.2-.14.16l0-.09c-.06,0,0,.21.06.19S78.14,70.09,78.05,70Z"/><path class="cls-1" d="M77.82,70.73a.17.17,0,0,0,0,.26L78,71C78,70.83,78,70.64,77.82,70.73Z"/><path class="cls-1" d="M74.59,70.68s-.1.11,0,.13S74.63,70.7,74.59,70.68Z"/><path class="cls-1" d="M73.8,71.55c0,.08.16.12.18,0S73.8,71.55,73.8,71.55Z"/><path class="cls-1" d="M75,76.54l-.13.29s0,0,0,0l.07.12Z"/><path class="cls-1" d="M74.8,76.89l0-.06A.21.21,0,0,0,74.8,76.89Z"/><rect class="cls-1" x="74.42" y="77.47" width="0.18" height="0.04" transform="translate(-26.26 114.93) rotate(-66.5)"/><path class="cls-1" d="M74.78,77.71l.07,0a.16.16,0,0,0,0-.12C74.78,77.59,74.74,77.64,74.78,77.71Z"/><path class="cls-1" d="M74.34,78.1l-.06,0c0-.13.09-.15.08-.3l-.14.45C74.22,78.15,74.28,78.07,74.34,78.1Z"/><path class="cls-1" d="M74.2,78.48c.18,0,.15-.09.15-.18C74.27,78.37,74.12,78.39,74.2,78.48Z"/><path class="cls-1" d="M74.41,78.18c-.06,0-.06.06-.06.12A.17.17,0,0,0,74.41,78.18Z"/><path class="cls-1" d="M82,39.38c0,.07.08.13.18.09a.06.06,0,0,0,0-.1C82.2,39.35,82.07,39.28,82,39.38Z"/><path class="cls-1" d="M81.07,42.47s0,.13,0,.08l0,0s0,.06,0,.08l0,0C81.21,42.46,81.11,42.45,81.07,42.47Z"/><path class="cls-1" d="M81.08,42.84c0,.07,0,.09,0,.14a.35.35,0,0,0,.07-.31l0,.24Z"/><polygon class="cls-1" points="83.18 42.06 83.17 42.06 83.19 42.12 83.2 42.12 83.18 42.06"/><path class="cls-1" d="M82.3,43.06a.34.34,0,0,0,0,.1A.21.21,0,0,1,82.3,43.06Z"/><path class="cls-1" d="M82.3,43.06c0-.06,0-.12.07-.12l0,0A.86.86,0,0,0,82.3,43.06Z"/><polygon class="cls-1" points="82.38 42.96 82.37 42.99 82.41 43.02 82.38 42.96"/><path class="cls-1" d="M82.43,43.25s0-.13-.06-.14.07.09,0,.11l0,0S82.41,43.29,82.43,43.25Z"/><path class="cls-1" d="M79,19.73c.15-.15.43-.16.51-.38s.12,0,.13.08c.29.18-.14.4-.11.58s.28-.11.28-.25c.21-.09.23.21.42.21a.65.65,0,0,1-.11.33c.17.08.17-.13.27-.21s.15.07.14.11a.28.28,0,0,0-.18.25c.27.12.16-.31.36-.31-.14.41.4.13.31.51.06-.11,0-.26.12-.37.2.11.18.59.52.67.08,0,.12-.07.19-.07a.34.34,0,0,1,.19.37l.24.06a.48.48,0,0,0-.06.33c.22.14.42-.16.63-.05.09-.11-.14-.08-.09-.18s.47-.2.5-.46.2.09.31.16c-.08.17-.25.16-.36.27l.25,0c.23,0,.09.36.33.3,0,0,0-.08,0-.11s-.07.07-.11,0,.12-.19.13-.22c.06.12-.06.25,0,.31l0-.21a2.46,2.46,0,0,0,.28.88,2,2,0,0,0-.41-1.08c-.37-.17,0-.45,0-.69-.16,0-.2-.16-.17-.31.19-.15.18.23.34.09a2,2,0,0,0-.32-.27l-.08-.77c.1,0,.2-.09.19-.19a.48.48,0,0,1-.46-.13c0-.11-.14-.19,0-.27s.11.09.18.08c-.3-.39-.19-.95-.5-1.36.06-.12.31-.07.26-.23a.43.43,0,0,1-.32-.05c-.08-.21-.35-.37-.37-.57-.24.05-.26-.24-.51-.21-.06,0,0-.1,0-.15a3.21,3.21,0,0,0-.91-.21.4.4,0,0,1-.5.1c0,.15-.14.27-.28.22l0,.15c-.22-.07-.18.25-.43.22,0,.11.11,0,.11.16-.25.14-.24.36-.54.44l.18.16A4.62,4.62,0,0,1,79,18.64c.16,0,.26-.13.38,0s-.17.43-.08.64C79.18,19.4,79,19.62,79,19.73Z"/><path class="cls-1" d="M83.94,19.1s.11,0,.07-.1-.19-.16-.26-.05S83.81,19.11,83.94,19.1Z"/><path class="cls-1" d="M84.9,21.21c0,.05.17,0,.18,0,0-.26-.29-.29-.42-.47s-.09-.37-.22-.43C84.18,20.69,84.65,21,84.9,21.21Z"/><path class="cls-1" d="M80,21.53c-.17,0,0,.08-.11.09C79.92,21.65,80,21.58,80,21.53Z"/><polygon class="cls-1" points="79.76 21.71 79.75 21.64 79.73 21.7 79.76 21.71"/><path class="cls-1" d="M81.75,22.14s0,.15,0,.11l0-.05s0,.08,0,.1l.07,0C81.91,22.18,81.81,22.13,81.75,22.14Z"/><path class="cls-1" d="M81.65,22.73a.44.44,0,0,0,.18-.33l-.13.25,0-.09C81.66,22.64,81.57,22.65,81.65,22.73Z"/><path class="cls-1" d="M81.18,23c.1-.12.06-.3.13-.42l0-.12A.42.42,0,0,0,81.18,23Z"/><rect class="cls-1" x="84.24" y="22.3" width="0.01" height="0.07" transform="translate(-2.01 9.81) rotate(-6.59)"/><path class="cls-1" d="M84.42,22.9l0-.25S84.4,22.82,84.42,22.9Z"/><path class="cls-1" d="M83.09,23.06l0-.07c0,.08-.15.2-.06.3S83,23,83.09,23.06Z"/><polygon class="cls-1" points="83.09 23.08 83.06 23.11 83.1 23.15 83.09 23.08"/><path class="cls-1" d="M84.44,22.93s0,.13,0,.17a.07.07,0,0,0,.07,0C84.49,23,84.48,23,84.44,22.93Z"/><path class="cls-1" d="M84.43,23.1h0S84.42,23.12,84.43,23.1Z"/><path class="cls-1" d="M83.06,23.42c0-.05.06-.14,0-.18s0,.13,0,.13l-.05,0S83,23.46,83.06,23.42Z"/><path class="cls-1" d="M83.15,23.72c0,.05,0,.14.1.13l0,0C83.28,23.72,83.22,23.62,83.15,23.72Z"/><path class="cls-1" d="M81.4,24.8s0-.08,0-.08S81.36,24.81,81.4,24.8Z"/><path class="cls-1" d="M81.33,25.4s-.11,0-.11,0S81.35,25.45,81.33,25.4Z"/><path class="cls-1" d="M83.53,28l-.11-.21,0,.2s0,0,0,0Z"/><path class="cls-1" d="M83.45,28v0Z"/><rect class="cls-1" x="83.47" y="28.39" width="0.03" height="0.11" transform="translate(-2.71 9.74) rotate(-6.57)"/><path class="cls-1" d="M83.72,28.43s0,0,0-.06a.07.07,0,0,0,0,.11Z"/><path class="cls-1" d="M83.54,28.83c0-.08,0-.11-.05-.19l.07.29s0-.1,0-.1Z"/><path class="cls-1" d="M83.64,28.85s0,.06,0,.08A.08.08,0,0,0,83.64,28.85Z"/><path class="cls-1" d="M83.63,29.08c.1,0,.05-.09,0-.15S83.56,29.06,83.63,29.08Z"/><path class="cls-1" d="M84.18,32.15v-.07s-.07,0-.11,0S84.1,32.18,84.18,32.15Z"/><path class="cls-1" d="M114.62,5.18c.37.57-.59.6-.71.94.15.26.61.06.72-.2.47,0,.25.59.58.74a1.24,1.24,0,0,1-.47.52c.23.28.42-.1.68-.16.08.09.21.25.15.32a.58.58,0,0,0-.54.29c.38.46.55-.4.92-.25-.6.62.6.59.12,1.2.2-.14.24-.45.52-.57.29.37-.18,1.22.38,1.67.11.1.27,0,.41,0a.69.69,0,0,1,0,.84l.4.31c-.17.15-.38.32-.4.55.27.44.9.06,1.18.46.25-.13-.17-.27,0-.42s1,.05,1.29-.39c.39-.11.3.34.43.56-.28.23-.58.07-.88.17l.47.16c.39.26-.12.73.35.83,0-.07.08-.15.15-.18s-.18.08-.23,0,.37-.23.42-.28c0,.27-.32.4-.23.58l.27-.35a4.76,4.76,0,0,0-.24,1.84,4.15,4.15,0,0,0,.19-2.3c-.53-.63.39-.82.63-1.24a.45.45,0,0,1-.06-.7c.48-.11.13.57.56.45a4.54,4.54,0,0,0-.36-.77l.52-1.45c.16.14.44,0,.51-.19a1,1,0,0,1-.74-.63c.1-.2-.07-.47.23-.49.09.09.12.25.25.3-.2-1,.47-1.89.28-2.9.2-.17.6.14.66-.19a.9.9,0,0,1-.53-.36c0-.46-.33-1-.19-1.37-.47-.1-.25-.65-.73-.81-.08-.12.12-.17,0-.31A6.26,6.26,0,0,0,120.15.25a.8.8,0,0,1-1-.25c0,.31-.48.37-.7.15l-.08.3c-.33-.32-.54.29-1,0-.09.2.15.17.06.37-.58,0-.75.46-1.36.34l.2.45a9.82,9.82,0,0,1-2.11,1.59c.28.13.56,0,.68.33-.14.42-.68.62-.69,1.09a2,2,0,0,0-1,.52c.4-.13.92.08,1.24-.26C114.58,4.78,114.66,5.05,114.62,5.18Z"/><path class="cls-1" d="M122.93,8.18c-.07-.14-.2-.45-.42-.32,0,.21,0,.35.21.43C122.75,8.36,122.94,8.34,122.93,8.18Z"/><path class="cls-1" d="M122.65,13c0,.12.28.21.34.11.3-.43-.27-.77-.36-1.21.1-.3.17-.75,0-1C121.79,11.38,122.39,12.3,122.65,13Z"/><path class="cls-1" d="M113.49,9.3c-.3-.19,0,.17-.3.08C113.25,9.46,113.48,9.41,113.49,9.3Z"/><polygon class="cls-1" points="112.95 9.29 112.86 9.38 112.91 9.43 112.95 9.29"/><path class="cls-1" d="M116.09,12.26h.15c.16-.12,0-.29-.09-.33s-.2.23-.05.22l.11-.05S116.18,12.26,116.09,12.26Z"/><path class="cls-1" d="M115.46,12.9a.81.81,0,0,0,.6-.45l-.45.36V12.6C115.54,12.75,115.38,12.7,115.46,12.9Z"/><path class="cls-1" d="M114.35,13c.29-.14.38-.5.61-.65v-.27A.87.87,0,0,0,114.35,13Z"/><rect class="cls-1" x="120.43" y="14.41" width="0.14" height="0.03" transform="translate(68 123.84) rotate(-71.2)"/><path class="cls-1" d="M120.32,15.59l.14-.48A1.55,1.55,0,0,0,120.32,15.59Z"/><path class="cls-1" d="M117.39,15v.06S117.39,15,117.39,15Z"/><path class="cls-1" d="M117.77,14.58c-.14.08-.38.21-.38.43,0-.15.21-.44.38-.28Z"/><polygon class="cls-1" points="117.71 14.91 117.75 14.78 117.68 14.81 117.71 14.91"/><path class="cls-1" d="M120.16,16h0S120.13,16,120.16,16Z"/><path class="cls-1" d="M120.31,16c0-.1.08-.23,0-.31.07.13-.09.28-.17.32A.2.2,0,0,0,120.31,16Z"/><path class="cls-1" d="M117.52,15c0,.08,0,.25-.16.21l0-.11c-.07,0,0,.27.1.24S117.65,15.16,117.52,15Z"/><path class="cls-1" d="M117.31,16c0,.07-.09.27.07.32l.13,0C117.54,16.1,117.54,15.86,117.31,16Z"/><path class="cls-1" d="M113.25,16.27c0,.05-.11.14,0,.17S113.3,16.29,113.25,16.27Z"/><path class="cls-1" d="M112.58,17.46c0-.1-.24,0-.24,0S112.57,17.58,112.58,17.46Z"/><path class="cls-1" d="M130.35,28.43c.2.28-.28.31-.34.48s.31,0,.36-.11c.24,0,.14.29.31.36a.75.75,0,0,1-.23.27c.12.14.21-.06.33-.09s.11.12.09.16a.3.3,0,0,0-.27.15c.2.23.27-.21.46-.14-.29.33.31.29.08.6.1-.07.11-.23.25-.29.15.18-.07.61.22.83.06.05.14,0,.2,0a.33.33,0,0,1,0,.42l.21.15c-.08.08-.18.16-.19.28.14.22.45,0,.6.21.12-.06-.09-.13,0-.21s.51,0,.64-.22c.2-.05.16.17.23.28-.14.12-.3,0-.45.1l.25.07c.2.12-.06.37.18.41,0,0,0-.07.07-.09s-.08,0-.11,0,.18-.12.2-.14-.15.2-.1.29l.13-.18a2.39,2.39,0,0,0-.09.93,2,2,0,0,0,.06-1.16c-.28-.31.18-.42.29-.63a.24.24,0,0,1,0-.36c.24-.06.08.29.29.22a2.25,2.25,0,0,0-.19-.38l.24-.74c.08.07.22,0,.25-.1a.48.48,0,0,1-.38-.3c.05-.11,0-.24.1-.25s.07.12.14.14c-.12-.48.2-1,.09-1.46.1-.09.31.06.33-.11a.45.45,0,0,1-.28-.17c0-.23-.17-.48-.11-.68-.24,0-.14-.33-.38-.4,0-.06,0-.09,0-.16a3.39,3.39,0,0,0-.76-.55.41.41,0,0,1-.5-.11c0,.15-.24.19-.35.08l0,.16c-.18-.16-.27.15-.49,0,0,.1.08.08,0,.18-.29,0-.37.24-.68.19l.11.23a4.62,4.62,0,0,1-1,.83c.14.06.28,0,.35.16s-.33.32-.33.56c-.18,0-.45.17-.5.28.2-.08.47,0,.62-.16S130.37,28.36,130.35,28.43Z"/><path class="cls-1" d="M134.37,29.65c0,.1,0,.17.11.21s.11,0,.1-.06S134.47,29.58,134.37,29.65Z"/><path class="cls-1" d="M134.46,31.17c-.4.26-.08.71.06,1,0,.07.14.11.17.06.14-.23-.15-.39-.2-.61A.53.53,0,0,0,134.46,31.17Z"/><path class="cls-1" d="M129.85,30.52c-.15-.09,0,.09-.15,0C129.74,30.6,129.85,30.57,129.85,30.52Z"/><polygon class="cls-1" points="129.58 30.52 129.54 30.57 129.56 30.59 129.58 30.52"/><path class="cls-1" d="M131.21,32h.08c.07-.07,0-.15-.06-.17s-.09.12,0,.12l.06,0S131.25,32,131.21,32Z"/><path class="cls-1" d="M130.9,32.3a.42.42,0,0,0,.29-.24l-.21.19v-.11C130.94,32.22,130.86,32.2,130.9,32.3Z"/><path class="cls-1" d="M130.35,32.38c.14-.08.18-.26.29-.34v-.13A.43.43,0,0,0,130.35,32.38Z"/><rect class="cls-1" x="133.42" y="32.97" width="0.07" height="0.01" transform="translate(63.06 151.06) rotate(-73.08)"/><path class="cls-1" d="M129.84,34s-.05.07,0,.08S129.87,34,129.84,34Z"/><path class="cls-1" d="M129.52,34.64s-.11,0-.11,0S129.52,34.7,129.52,34.64Z"/><path class="cls-1" d="M136,16.28c.51-.47,1.44-.52,1.7-1.25.11-.29.42.05.45.28.95.61-.48,1.31-.42,1.92.41.28,1-.33,1-.8.72-.31.77.72,1.38.7a2.15,2.15,0,0,1-.36,1.11c.55.28.57-.43.92-.7.19.08.49.24.45.38a.93.93,0,0,0-.61.81c.88.42.55-1,1.2-1-.47,1.36,1.31.48,1,1.72.2-.35,0-.85.39-1.21.69.35.57,2,1.72,2.26.24.07.4-.23.63-.25a1.14,1.14,0,0,1,.6,1.25l.81.2a1.55,1.55,0,0,0-.22,1.1c.71.49,1.4-.52,2.1-.12.29-.36-.45-.28-.3-.63,0-.46,1.57-.62,1.68-1.47.51-.43.68.3,1,.55-.27.54-.84.5-1.22.87l.83-.09c.76.11.31,1.19,1.09,1a.9.9,0,0,1,.1-.39c-.08.1-.21.26-.36.13,0-.41.41-.6.44-.7.18.41-.2.82.06,1l.16-.72a8.4,8.4,0,0,0,.9,2.95,6.73,6.73,0,0,0-1.29-3.61c-1.23-.58,0-1.5.09-2.3-.52-.09-.66-.55-.57-1,.65-.49.6.78,1.16.3a7.64,7.64,0,0,0-1.08-.92l-.21-2.55c.34.11.67-.3.64-.62a1.62,1.62,0,0,1-1.54-.46c0-.37-.44-.65,0-.89.2.08.36.3.59.27-1-1.3-.6-3.16-1.58-4.56.19-.4,1-.2.86-.74a1.47,1.47,0,0,1-1.05-.18C148.91,7.22,148,6.7,148,6c-.78.17-.83-.81-1.66-.72-.2-.12.06-.34-.15-.5a10.78,10.78,0,0,0-3-.73,1.34,1.34,0,0,1-1.65.31c.15.5-.47.89-1,.7l.1.51c-.73-.26-.62.81-1.42.7,0,.38.34.15.33.53-.84.46-.81,1.2-1.82,1.44l.62.55c-.71,1.29-1.11,2.92-2.09,3.86.51,0,.84-.41,1.26,0,.08.74-.61,1.42-.3,2.14C136.71,15.18,136,15.9,136,16.28Z"/><path class="cls-1" d="M152.54,14.43c.1.08.36-.08.25-.31s-.62-.54-.86-.19C152.05,14.25,152.12,14.47,152.54,14.43Z"/><path class="cls-1" d="M155.63,21.51c.12.17.58.13.61-.06.14-.86-.94-1-1.38-1.59-.05-.51-.26-1.24-.7-1.43C153.26,19.74,154.81,20.7,155.63,21.51Z"/><path class="cls-1" d="M138.91,22.63c.15.08.46-.14.39-.32C138.73,22.23,139.42,22.58,138.91,22.63Z"/><polygon class="cls-1" points="138.52 22.9 138.5 22.67 138.42 22.86 138.52 22.9"/><path class="cls-1" d="M145.13,24.43c0,.14-.14.49.08.37l.13-.15s.07.27-.06.33l.22-.11C145.65,24.57,145.31,24.42,145.13,24.43Z"/><path class="cls-1" d="M144.8,25.82c0,.29-.3.31,0,.57a1.32,1.32,0,0,0,.59-1.09l-.43.84Z"/><path class="cls-1" d="M143.46,25.54a1.42,1.42,0,0,0-.28,1.8c.33-.4.22-1,.46-1.4Z"/><rect class="cls-1" x="153.39" y="25.1" width="0.05" height="0.23" transform="translate(-1.75 15.48) rotate(-5.74)"/><path class="cls-1" d="M149.13,28.23a.23.23,0,0,0,0,.1A.21.21,0,0,1,149.13,28.23Z"/><path class="cls-1" d="M149.51,27.55l-.12-.22c-.14.22-.41.58-.26.9C149.07,28,149.14,27.43,149.51,27.55Z"/><polygon class="cls-1" points="149.52 27.64 149.44 27.74 149.54 27.87 149.52 27.64"/><path class="cls-1" d="M149.4,28.77c0-.18.23-.49-.06-.6,0,.14.13.41-.1.43l-.15-.12C149,28.58,149.27,28.88,149.4,28.77Z"/><path class="cls-1" d="M149.69,29.77c0,.15,0,.47.32.44l.17-.16C150.11,29.78,149.93,29.42,149.69,29.77Z"/><path class="cls-1" d="M143.74,33c0,.09-.06.29.08.27S143.84,33,143.74,33Z"/><path class="cls-1" d="M143.55,35.25c-.11-.12-.36.14-.36.14S143.62,35.44,143.55,35.25Z"/><path class="cls-1" d="M179,27c.08.1.38,0,.31-.26s-.51-.68-.83-.37C178.49,26.75,178.52,27,179,27Z"/><path class="cls-1" d="M181.26,34.9c.33-.83-.75-1.18-1.07-1.89.05-.53,0-1.31-.42-1.59-1.18,1.14.19,2.44.87,3.42C180.71,35,181.19,35.09,181.26,34.9Z"/><path class="cls-1" d="M169.43,36.24l.25-.07c.22-.27-.1-.49-.29-.51,0,.14-.24.46,0,.39l.16-.13S169.58,36.21,169.43,36.24Z"/><rect class="cls-1" x="177.51" y="38.12" width="0.24" height="0.05" transform="translate(122.16 211.15) rotate(-84.34)"/><path class="cls-1" d="M177.79,40.17l0-.87A3,3,0,0,0,177.79,40.17Z"/><path class="cls-1" d="M173.12,39.46c-.21.22-.63.57-.43,1-.08-.15.09-1,.51-.72Z"/><polygon class="cls-1" points="173.19 39.81 173.08 39.89 173.16 40.05 173.19 39.81"/><path class="cls-1" d="M177.66,40.87h-.08S177.62,40.9,177.66,40.87Z"/><path class="cls-1" d="M177.92,40.81c0-.19,0-.43-.09-.54.16.19,0,.51-.17.6A.35.35,0,0,0,177.92,40.81Z"/><path class="cls-1" d="M172.83,40.93c0-.19.34-.45.07-.62,0,.14,0,.44-.19.42l-.13-.16C172.48,40.65,172.68,41,172.83,40.93Z"/><path class="cls-1" d="M173.16,42.51l.21-.12c0-.3-.13-.69-.45-.39C172.86,42.14,172.87,42.48,173.16,42.51Z"/><path class="cls-1" d="M206.76,64.7c.16-.08.07-.16,0-.23C206.74,64.58,206.63,64.68,206.76,64.7Z"/><path class="cls-1" d="M208.27,69.5l0-.11c0-.06-.13-.06-.21-.06A.16.16,0,0,0,208.27,69.5Z"/><path class="cls-1" d="M191.44,29c.1.48-.3,1-.05,1.43-.29.27-.69.8-.67,1,.31-.34.92-.44,1-.93.05-.2.28,0,.31.15.67.34-.22.9-.14,1.29.28.16.6-.28.57-.59.45-.25.56.42,1,.37a1.51,1.51,0,0,1-.16.76c.37.14.34-.32.55-.52.13,0,.34.11.33.21a.63.63,0,0,0-.35.58c.61.22.29-.69.72-.75-.22.93.9.22.79,1.07.11-.25,0-.57.17-.83.48.19.51,1.25,1.29,1.37.17,0,.25-.17.4-.2a.74.74,0,0,1,.48.78l.55.08a1,1,0,0,0-.07.73c.5.28.89-.43,1.37-.22.17-.25-.31-.15-.24-.39s1-.52,1-1.09c.31-.31.47.16.72.3-.15.37-.52.39-.75.65l.54-.11c.51,0,.29.76.79.6,0-.1,0-.19,0-.26s-.12.18-.23.11c-.06-.28.23-.43.24-.49.15.25-.07.55.11.67l.06-.49a5.61,5.61,0,0,0,.79,1.88,4.36,4.36,0,0,0-1.1-2.29c-.84-.29-.07-1-.09-1.52-.35,0-.47-.31-.44-.63.39-.37.44.47.78.12a4.61,4.61,0,0,0-.77-.53l-.31-1.67c.23.05.42-.24.37-.46a1.06,1.06,0,0,1-1-.19c0-.25-.34-.4-.06-.59.13,0,.25.17.4.14-.73-.79-.6-2.05-1.35-2.9.1-.27.66-.2.52-.55a1,1,0,0,1-.7,0c-.22-.46-.84-.74-.94-1.19-.5.16-.6-.48-1.14-.37-.14-.06,0-.22-.13-.31a7.13,7.13,0,0,0-2-.28.9.9,0,0,1-1.07.32c.13.32-.25.61-.58.53l.1.32c-.5-.12-.36.58-.9.56,0,.25.24.08.26.33-.52.36-.45.85-1.1,1.07l.44.32A10.69,10.69,0,0,1,190.61,29C191,29,191.14,28.7,191.44,29Z"/><path class="cls-1" d="M201.48,29.09c.07.05.23-.08.14-.22s-.44-.32-.58-.07C201.14,29,201.2,29.14,201.48,29.09Z"/><path class="cls-1" d="M204,33.54c.08.11.38.05.39-.08,0-.57-.69-.58-1-1-.06-.33-.25-.79-.56-.89C202.31,32.53,203.4,33.07,204,33.54Z"/><path class="cls-1" d="M193.05,35.41c.11.05.29-.12.24-.23C192.91,35.16,193.39,35.35,193.05,35.41Z"/><polygon class="cls-1" points="192.81 35.62 192.78 35.47 192.75 35.6 192.81 35.62"/><path class="cls-1" d="M197.27,36.18c0,.09-.06.33.08.24l.07-.11a.16.16,0,0,1,0,.22l.13-.09C197.63,36.24,197.39,36.16,197.27,36.18Z"/><path class="cls-1" d="M197.16,37.49a.86.86,0,0,0,.32-.75l-.23.58-.1-.2C197.16,37.31,197,37.35,197.16,37.49Z"/><path class="cls-1" d="M196.18,38.23c.19-.29.08-.68.21-.95l-.14-.26A.94.94,0,0,0,196.18,38.23Z"/><rect class="cls-1" x="202.77" y="36.06" width="0.03" height="0.15" transform="translate(-3.12 41.66) rotate(-11.64)"/><path class="cls-1" d="M203.13,36.8a1.56,1.56,0,0,0,.14.54Z"/><path class="cls-1" d="M200.37,37.94l-.09-.14c-.09.17-.28.47-.08.68C200.12,38.4,200.07,37.87,200.37,37.94Z"/><polygon class="cls-1" points="200.38 38 200.34 38.07 200.41 38.15 200.38 38"/><path class="cls-1" d="M203.47,37.71c0-.12-.06-.27-.16-.31.14.08.07.32,0,.4A.29.29,0,0,0,203.47,37.71Z"/><path class="cls-1" d="M203.32,37.8h0S203.3,37.82,203.32,37.8Z"/><path class="cls-1" d="M200.38,38.75c0-.12.12-.34-.08-.39,0,.09.12.26,0,.29l-.1-.07C200.11,38.65,200.3,38.83,200.38,38.75Z"/><path class="cls-1" d="M200.64,39.39c0,.1.06.3.24.27l.1-.12C200.92,39.37,200.78,39.14,200.64,39.39Z"/><path class="cls-1" d="M196.94,41.92c0,.06,0,.19.07.17S197,41.9,196.94,41.92Z"/><path class="cls-1" d="M196.74,43.53c.08.08.28,0,.23-.11S196.74,43.53,196.74,43.53Z"/><path class="cls-1" d="M229.68,67.8c.08.07.3,0,.22-.23s-.46-.49-.68-.22C229.3,67.61,229.34,67.8,229.68,67.8Z"/><path class="cls-1" d="M232.18,73.69c.18-.68-.69-.85-1-1.37a1.47,1.47,0,0,0-.47-1.2c-.81,1,.37,1.88,1,2.58C231.77,73.85,232.15,73.85,232.18,73.69Z"/><rect class="cls-1" x="229.63" y="76.44" width="0.04" height="0.19" transform="translate(-1.2 3.7) rotate(-0.92)"/><path class="cls-1" d="M230,78.09l-.05-.68A2.24,2.24,0,0,0,230,78.09Z"/><path class="cls-1" d="M229.92,78.65h-.06S229.89,78.68,229.92,78.65Z"/><path class="cls-1" d="M229.92,78.65a.31.31,0,0,0,.2-.07c0-.15,0-.34-.12-.41C230.14,78.3,230,78.57,229.92,78.65Z"/><path class="cls-1" d="M226.23,91.49,226,90.9v.52a.07.07,0,0,1,0-.07Z"/><path class="cls-1" d="M226,91.54v0Z"/><path class="cls-1" d="M226.86,102.76v-.19c0-.11-.2-.14-.31-.18C226.44,102.62,226.63,102.8,226.86,102.76Z"/><path class="cls-1" d="M211.79,59c-.14-.18-.4-.6-.68-.36,0,.3,0,.5.4.56C211.58,59.25,211.83,59.16,211.79,59Z"/><path class="cls-1" d="M213,65.89c.32-.68-.57-1-.79-1.65a1.61,1.61,0,0,0-.27-1.36c-1.06.9,0,2.06.54,2.93C212.57,66,213,66.05,213,65.89Z"/><rect class="cls-1" x="209.7" y="68.4" width="0.2" height="0.04" transform="translate(108.54 264.5) rotate(-80.75)"/><path class="cls-1" d="M209.83,70.13l.08-.72A2.31,2.31,0,0,0,209.83,70.13Z"/><polygon class="cls-1" points="205.98 69.59 205.89 69.65 205.95 69.78 205.98 69.59"/><path class="cls-1" d="M209.69,70.72h-.08S209.65,70.75,209.69,70.72Z"/><path class="cls-1" d="M209.91,70.68c0-.16.06-.36,0-.46.12.17-.06.43-.17.5A.29.29,0,0,0,209.91,70.68Z"/><path class="cls-1" d="M229.33,83c.17.08.29.15.45,0a.12.12,0,0,0,0-.23C229.61,82.78,229.29,82.78,229.33,83Z"/><path class="cls-1" d="M233.84,84.76c.11,0,.29-.17.23-.26-.27-.42-.78,0-1.2-.13-.22-.2-.59-.42-.85-.33C232.15,84.94,233.18,84.74,233.84,84.76Z"/><path class="cls-1" d="M227.3,91.47c-.27.19.16.06,0,.28C227.36,91.73,227.4,91.52,227.3,91.47Z"/><polygon class="cls-1" points="227.21 92.02 227.11 91.93 227.15 92.05 227.21 92.02"/><rect class="cls-1" x="234.34" y="87.11" width="0.03" height="0.13" transform="translate(14.18 205.7) rotate(-48.7)"/><path class="cls-1" d="M235.32,87.76l-.38-.3A1.58,1.58,0,0,0,235.32,87.76Z"/><path class="cls-1" d="M235.59,88s0,0,0,0S235.59,88.07,235.59,88Z"/><path class="cls-1" d="M235.59,88a.2.2,0,0,0,.06-.13c-.08-.07-.18-.16-.27-.14C235.52,87.76,235.59,88,235.59,88Z"/><path class="cls-1" d="M233.47,94.3s-.1-.13-.13-.09S233.42,94.36,233.47,94.3Z"/><path class="cls-1" d="M234.14,95.24c-.1,0-.1.19-.1.19S234.24,95.29,234.14,95.24Z"/><path class="cls-1" d="M240.49,96.24l-.06,0Z"/><path class="cls-1" d="M240.58,96.1l-.43-.16.28.25a.11.11,0,0,1,0-.06Z"/><rect class="cls-1" x="241.05" y="96.68" width="0.05" height="0.21" transform="translate(9.25 214.01) rotate(-48.7)"/><path class="cls-1" d="M241.26,96.42c0,.09.07.16.16.14l0-.09A.13.13,0,0,0,241.26,96.42Z"/><path class="cls-1" d="M241.66,97.26c-.14-.08-.15-.16-.32-.2l.46.33c-.08,0-.14-.13-.09-.19Z"/><path class="cls-1" d="M241.94,97.26a.18.18,0,0,0-.12-.1C241.82,97.22,241.88,97.25,241.94,97.26Z"/><path class="cls-1" d="M242.09,97.5c.09-.19,0-.2-.15-.24C242,97.39,242,97.56,242.09,97.5Z"/><path class="cls-1" d="M246.8,101.14l-.1-.09c-.08,0-.17,0-.24.07A.18.18,0,0,0,246.8,101.14Z"/><path class="cls-1" d="M228.18,80.76c0,.37-.05.63.39.78.06.12.4.07.38-.2S228.58,80.52,228.18,80.76Z"/><path class="cls-1" d="M211.79,83.54c-.54-.33,0,.33-.53.15C211.37,83.84,211.77,83.75,211.79,83.54Z"/><path class="cls-1" d="M213.34,110.22s0,.12-.05.15Z"/><path class="cls-1" d="M213.56,109.54l-.22.68s0-.07.08-.08l.18.27Z"/><rect class="cls-1" x="212.56" y="111.75" width="0.41" height="0.1" transform="translate(40.11 279.01) rotate(-71.8)"/><path class="cls-1" d="M213.58,112.12a.29.29,0,0,0,0-.27c-.15.11-.24.24-.13.39Z"/><path class="cls-1" d="M212.5,112.47l-.21.9c0-.1.13-.18.22-.14l-.14,0C212.42,112.87,212.55,112.81,212.5,112.47Z"/><path class="cls-1" d="M212.29,113.37a.4.4,0,0,0,0,.15Z"/><path class="cls-1" d="M212.68,113.39c-.12.06-.12.17-.11.29A.3.3,0,0,0,212.68,113.39Z"/><path class="cls-1" d="M212.28,114.12c.4,0,.32-.22.29-.44C212.39,113.87,212.07,113.93,212.28,114.12Z"/></g></g></svg>