<svg xmlns="http://www.w3.org/2000/svg" viewBox="0 0 266.13 191.72"><defs><style>.cls-1{fill:#95b127;}</style></defs><title>ink_s02</title><g id="レイヤー_2" data-name="レイヤー 2"><g id="Content"><path class="cls-1" d="M188.29,191.1c-.57.61-2,.26-1.87-.77.86,1.19,1.18,0,1.5-.58l-.34-.05c.41-.4,1.29,0,1.25-.5-.47.74.25,2,1.16,1.48a1.47,1.47,0,0,0,.47-1.45l-.51.27c.48,0,.91-1.26,1.52-.69,1.25-1.91-1-3.8-1-5.67.24,1.45,1.4,1.52,1.5,3.06a7.12,7.12,0,0,1-1.88,5.08C189.43,191.29,187.49,192.38,188.29,191.1Zm-2.21-.82a20.1,20.1,0,0,0-.23-3c2-.14-.71-2.81,1.55-3-.7,0-1.63,1.38-1.66,2.31C184.49,187.79,186.3,188.91,186.08,190.28Zm2-6.11-.12-1.43a1,1,0,0,0-.18,1.14C188.36,183.38,187.89,184.13,188.12,184.17Zm.82,0c.34-.65.93-.67.45-1.33Zm-8.8-7.87c2.39-1.72,2.29-5.48.73-7.38.89-.44.94-.78,1.82-1.11a2.42,2.42,0,0,1,.55.91c1-1.94,2.8.1,4.51-.32.46-1.45,2.59-1.57,4-2-.54,2.6-3.85,2.77-4.25,5.28.95.62,2-.25,2.69-.73,0,1.29,0,3,.86,4.12-.56,2,2.33,2.95,3.34,3.94a6.67,6.67,0,0,0,5.24-1.26c3.72-2.68,3-7.6,4.65-11.32-.71,0-.57,1.32-1.46,1.05a2.46,2.46,0,0,1,.46-2.14c-.69-1.52-.79.57-1.71.42-.46-.77,1.12-1.81.2-2.66,0,.7-.31,1.94-1.38,1.3.55-1.2-1.49-1.65-.49-2.77-2.06-1-2.54,1.93-4.17,2.6-1.05-.76.41-1.81-.05-2.58-1.23.38-.61,3.06-1.95,1.91.35-2.17,2.5-2.41,3.29-4.39-1.82-2.52,2.28-4,1.27-6.36-.54-.32-1.05-.05-1.53-.71l.79-5.61c-1.26-.91-3-.85-3-2.84-1.92-.43.15,4.12-2.71,3,1.06-5.8,1.07-11.66,2.47-17.4-.67,2.7-4.75,5.43-7.07,8.22-1,1.24-2-.09-3.21-.4-.61-2.8.07-5.5.15-8.18-1.2-.55-1.05.65-2,.73-.15,1.62,1.13,3.11,0,4.93-1,.08-2,1.66-2.82,0,2.49,3.45-.74,6.79.22,10.22-.64,1.07-2,1.91-2.05,3.3-1.82,3.22-2.31-1.66-4-1.35-.34,1.35,1.43,2,1.13,3.11-.71,1.53-1.78.18-2.49-.52,2.26,4.12-2.44,2.77,0,6.92,1.17,2.18-1,4.28,1.79,5.56l-.85.92a5.27,5.27,0,0,0,4.77,3.11c-.87.33-.19,1.15-.51,1.68a1.31,1.31,0,0,1,1.38.92c.08,1-.72.82-1.32.14l-1.53,2.22a6.19,6.19,0,0,0,.1,5.17C177,177.09,179,177.53,180.14,176.31Zm-2.77-.21.18-1.14c1.54-.11-.94,1.48.8.83l0,.23,1-.2-.05.34c.57.1.85-.91,0-1.17.86.49,1.52-1.4,1.41,0,.11-1.39.9-2,.86-3.14-.7,0-1.25.5-1.75-.05l.84.6a8.5,8.5,0,0,0-2.55-.17,5.07,5.07,0,0,1-.69-1.52c-.62.25.38.53-.15.91-.72.12-.3-1-.47-.66-1.86.63.59,1.38-.49,2.26l-.3-.28c.17,1.08,1,1.33.2,2.37Zm1.38-.6a1,1,0,0,0,.18-1.14c-.9.56-.76-1.06-1.73-.16.23,0,.71,0,.31.28.55.21.38-.17.83-.1C178.59,175,178.12,175.05,178.75,175.5Zm.39-1.69.65,1c-.47,0-.19-1-.06-1.06Zm20.16,2.8c-1-.63.85-1.62,1.45-2.46l.18.38c.53-.39-.43-2.42.23-3.6l.23.74c1.58-.33.31-1.94,1.15-2.74-.84.1-1.43.12-1.38-.92,0,1.52-.41,1.1-.59,2.24l.36-.06c-1.9.87,1.24,2.43-.75,3.16l-.29-.4c-.28,1,.54.32.94.74-1.17,1.45-1.73,1.24-2.61,2.39C198.62,175.79,199,176.32,199.3,176.61Zm-18.9-5.53v.71l.52-.27Zm19.27,2.54c-.62.95-1.91-1.25-1.71.43l.27-.2C198.93,174.55,199,174.1,199.67,173.62Zm-.31-.28.31-.42-.52.26Zm2-1,.52.43-.12-.72Zm-1.62-1.56.08.25,0-.59Zm-.53-.32,0,.48.05-1Zm2.28-.33-.57-.09Zm-2-.79.39.53-.59-.68,0,.36Zm-.61-.57.07-1.16Zm3.94.29.11,0-.05-.36Zm-2.57-.77.12,0,.37-.87Zm3,.14c-.1-.13-.24-.74-.33-.17C203,168.42,203.2,168.45,203.32,168.47Zm-1.68-.51c.87-.32.74-.93,1-1.71-.72.12-1.71-.28-1.08.88l.15-.91.51.43A1.92,1.92,0,0,1,201.64,168Zm-1.2-.54c-.1-.13-.14-.61-.33-.17C200.34,167.29,200.33,167.4,200.44,167.42Zm-.1-1.54c0-.34,0-.7-.21-.15C200.22,165.86,200.22,165.86,200.34,165.88Zm4.86-12.68.46.07-.42-.3Zm-10.46-2.63-.12,0-.05.34.11,0ZM184.86,140c.27-.19.11-.69,0-1-.11,0-.13.1-.26.19C185,139.26,184.67,139.68,184.86,140Zm4-1.58c-.18.44-.89.44-1,.2C188.43,138.88,189,139.2,188.86,138.37Zm.4-1.69.09.13Zm5-8.33a108.38,108.38,0,0,1,6.9-16.57c-.18,1.84-2.08,2.71-3,4.19,1.09-1-1.24-.31-.71-1.4,0,.23,0,.59-.32.53.14-2.32,3.81-1.84,3-4.78-1.56-4.12,1.8-9,1.4-13.71-.65-.34-1.24-1-1.54.1a34.68,34.68,0,0,0-1.45,6.79c.26,3.44-2.11,4.34-4.23,5.88l1,.16c.3,2.51-1.12.41-1,2.76-1.14-.18-.2-1.67-.33-2.28-1.08,1.59-1,4.42.48,5.7-.33,2.76.82,5.76-.72,8.79C194.8,125.63,193.47,127.29,194.24,128.35Zm1.2-8.12-.12,0-.09.57h.12ZM215,123.16c-.42-1-1.75-.75-2.42-.27-.55-.92-.23-2.15-.07-3.18l.75.47-.58-.79c.11-.69,1.33-1.66,2.31-2,.21.15.38.53.12.72l-.23,0c.69.11.93,0,1.2.55-.61-.57-.19-1.67-.92-2.26-1.11,1.81-3.51,2.83-3.21,5.34C211.87,123.59,213.83,123.79,215,123.16Zm-19.56-3.64c-.84-.6.66-1.18-.46-1.48C195.2,118.08,194.5,119.49,195.43,119.52Zm20,3.12c.82-.68.3-1.82.77-2.57C215.09,121.07,216.41,121.63,215.42,122.64Zm-18.77-3.39c1-.54.43-1.22-.12-1.42.28-.31.69-1.41,1.21-1,.32-.54-.47-2.18-1.22-1.14.24-.07.45.08.61-.13.63,1.16-.82.69-.83,1.5l-.29-.39C196.58,117.48,196.47,118.87,196.65,119.25Zm19.27.31.31.29-.1-.84ZM196,116l.28.4Zm-.22-2.26.32.17-.59-.68Zm3.65-.11c-.6-.68-.31.42-1,.43C198.39,113.56,199.19,114.39,199.44,113.61Zm-1.87-.07c.05-1,.76-1-.12-1.42Zm-3.61-.82-.16.21.42-.4Zm2.07.22c-.25-.62,1.36-1.89-.41-1.82l.27,1.21-.22,0C195.48,112.73,196.07,112.71,196,112.94Zm2.14-.94.16.5.22-.67Zm-2.75-2.55.16.49.19-.44Zm8.79,1.42c1.6-.44,2.15-1.64,2.71-3,.54-1.9-.3-3.21-1-4.61-.88-.38-1.6.44-2.3.45-2,.84-2.21,2.8-2.51,4.63C201.6,109.63,202.26,111.37,204.21,110.87Zm15.6-1.57c-.12-.72-.37-1.35-1-1.57-.61.13-1.48.46-1.48,1.16C217.06,110.38,219.53,111,219.81,109.3Zm-14.24-1.72-1-.62C204.37,108.44,204.79,107.33,205.57,107.58Zm-7.29-1.3.19.27.34-.65Zm5.53.55c.23-1.37-.19-1,1.16-1.34l-.58-.8c-1.08.18-.26.9-1.15,1.34l-.19-1c.21.15-1.18.75-.83,1.51.24-1.49,1.22.43,1.61.14Zm1.18,0c1,.51.76-1,1.48-1.17-1.33.26-.52-1.13-1.75-1.45l.72,1.29C204.63,106.14,205.14,105.87,205,106.78Zm-6.36-2.67.16.5v-.71Zm1.08-.88-.11,0-.1.57.12,0Zm43.14,2.66c3.21-.3,5.34-2.54,7.32-4.67.9-2.67,4-2.87,5.05-5.16.11-.68,0-1.63-1-1.8-4.17,3.31-9.9,4.72-12.16,10A1.25,1.25,0,0,0,242.85,105.89Zm-41.77-6.77c.66-1.18-.69-.81-1.14-.89-.08.46.61.57.66.23Zm.41-1.81c-1.1.29-.12-1.42-1.22-.43A.67.67,0,0,0,201.49,97.31Zm30.58-2.19c1.53-.8,1.83-2.63,1.82-4-1.16-.77.07-1.86-1-2.39L232,90.07c1.54.6,1.42,2.8,1.76,2.86-.51.26-.77,1.86-1.76,1.47.47-.75-.48-.67-.12-1.43-.76-.35-.74.94-1.48.47-.23,0-.29-.4,0-.71l.1.14c.24-.79,1.33-1,1.58-2.56-.9.56-2.38,1.72-1.9,3.09C230.29,94.48,230.87,95.28,232.07,95.12Zm-.65-.34c.41-.4,0-.59-.35-.76Zm19-25.39c1-.08,1.34-1.07,1.81-1.81.61-1.54-.48-2.77-.36-4.27-1,1.6-3.56,2.46-3,5C249.23,68.73,249.55,69.61,250.41,69.39Zm.58-.72c-.11-.72-.14-2,1.17-2.15-.74-.47-.35-1.47-.62-2,.07,1.77-.26-.51-1.11.41a7.69,7.69,0,0,1-1.06,2.87C249.91,68.14,250,69,251,68.67Zm8.64-12.39c1.22-.27,1.25-1.21,1.95-1.91,0-1.18.07-2.57-.9-3.08A4.5,4.5,0,0,0,258.09,55,1.65,1.65,0,0,0,259.63,56.28Zm.34-.65c.4-.29-.34-.76-.42-1l-.38.17c-.05,1,.7,0,.95.62C260.11,55.53,260,55.63,260,55.63Zm.83-.8c.46.07.33-.53.12-.69ZM259,53.13c.44.18,1.2.54,1.54-.11l-.09-.13.72-.12c-.85-1.31-1.19,1.57-1.75-.05Zm5.38,10.44a2.23,2.23,0,0,0,1.33-1c.49-.85.71-2.22,0-2.81-1.27-.79-2.19,1.29-2.36,2.31C263.32,62.7,263.53,63.56,264.35,63.57Zm1-1.12c.49-.86.68-1.3.3-1.83-1-.87-1.25,1.91-1.56.22l-.2,1.25c.55.21,1.16-.63,1.54-.1ZM50.05,90A4.62,4.62,0,0,0,48,87.07c-.87-.51-1.33.09-2.2-.31,1,.72,2.85.18,3.42,1.56-.53.12,0,.81-.18,1.08l0-.38c.38.26.44.2.62.79,0,.7-1,.62-1.24.09.27.15-.25.49-.19.86l.16-.16c.17.37.73,1-.24,1,.5.47,1.23-.19,1.11-.73C49.68,91.8,49.8,90.34,50.05,90Zm-2,1.83a13.28,13.28,0,0,0-1.69-1c.67-1.15-1.79-.65-1.07-2-.26.39.14,1.4.64,1.76C46.08,91.74,47.35,91.16,48,91.79Zm-2.56-3.36L44.63,88a.68.68,0,0,0,.55.52C45.11,88,45.34,88.54,45.45,88.43Zm.31-.44c-.23-.42,0-.75-.56-.73Zm-7.51,1.88a3.54,3.54,0,0,0-3.74-3.11,10.62,10.62,0,0,1,.06-1.4,1.66,1.66,0,0,1,.7,0c-.68-1.27,1.09-1.48,1.48-2.57-.61-.79.11-2,.35-2.91,1.22,1.26.09,3.11,1.3,4.26.69-.29.61-1.2.6-1.74a4.46,4.46,0,0,0,2.55,1.06c.89,1,2.46-.18,3.37-.37a4.38,4.38,0,0,0,1.25-3.31c-.09-3-3-4.42-4.44-6.69-.25.39.51.8,0,1.18-.38,0-.88-.61-1-1-1.08-.18,0,.64-.4,1.09-.59,0-.57-1.28-1.37-1.09.38.25.94.88.2,1.23-.45-.74-1.45.2-1.69-.76-1.32.74.12,2.09-.12,3.22-.8.3-.83-.88-1.42-.92-.25.81,1.43,1.46.32,1.76-1-1-.39-2.24-1.17-3.4-2,.06-1.32-2.7-3-3-.37.18-.41.55-1,.57l-2.75-2.5c-1,.35-1.58,1.33-2.67.62-.94.88,2.3,1.43.61,2.55-2.76-2.71-5.94-4.87-8.54-7.75,1.22,1.36,1.2,4.58,1.86,6.87.3,1-.77,1-1.4,1.6-1.74-.7-3-2.06-4.38-3.09-.74.45,0,.8-.34,1.35.82.67,2.11.53,2.68,1.8-.3.54.16,1.71-1,1.53,2.79-.08,3.41,2.91,5.63,3.65.35.74.32,1.76,1,2.33,1.08,2.17-1.75.64-2.21,1.67.61.68,1.61,0,2.11.53.57,1-.56,1-1.2,1.16,3.07.29.6,2.35,3.78,2.53,1.61.16,1.94,2.14,3.68,1.07l.18.8a3.47,3.47,0,0,0,3.45-1.44c-.15.59.55.52.72.89a.87.87,0,0,1,1-.41c.54.31.18.7-.41.77l.64,1.64A4,4,0,0,0,36.48,92,1.86,1.86,0,0,0,38.25,89.87ZM37.11,91.3l-.55-.52c.51-.87.45,1.06.74-.13l.11.1.25-.59.17.15c.26-.27-.18-.8-.66-.41.59-.28-.2-1.33.52-.76-.72-.57-.73-1.22-1.39-1.63-.26.39-.19.87-.67.94l.64-.24c-.42.55-.84.78-1,1.32a3.21,3.21,0,0,1-1.08-.18c-.09.43.43,0,.44.41-.2.44-.65-.19-.53,0-.34,1.24,1,.18,1,1.09l-.27.07c.66.3,1.07,0,1.37.76Zm.18-1a.67.67,0,0,0-.55-.52c0,.7-.86,0-.72.88.1-.11.25-.39.26-.06.32-.23,0-.27.26-.49C37,90.23,36.82,90.5,37.29,90.33Zm-.77-.84.8,0c-.15.28-.59-.25-.6-.36Zm8.94-9.91c-.69.28-.56-1.06-.8-1.7l.27.05c0-.43-1.47-.66-1.87-1.45l.49.15c.4-1-.94-.89-1.06-1.64-.26.49-.46.82-1,.41.82.56.44.63,1,1.15l.1-.22c-.23,1.35,1.77.22,1.44,1.57H43.7c.44.52.37-.17.74-.24.36,1.17,0,1.4.34,2.3C44.77,79.65,45.2,79.64,45.46,79.58Zm-10,8.22.39.26,0-.37ZM44,78.28c.29.69-1.37.57-.39,1.08v-.21C44.21,79,44,78.81,44,78.28Zm-.26.06L43.59,78l0,.38Zm.22-1.46.43-.12-.43-.2Zm-1.44.31.17,0-.33-.2Zm-.37.17.28.16-.55-.42ZM42.78,76l-.26.28Zm-1.16.79h.43l-.58.07.21.1Zm-.53.12-.6-.46Zm1.61-2,0-.06-.22-.1ZM41.33,76l.05,0-.33-.53Zm1.19-1.59c-.11,0-.49-.15-.21.11C42.36,74.57,42.47,74.46,42.52,74.4Zm-.89.72c.14-.59-.24-.74-.57-1.16-.2.44-.78.83.08.91l-.44-.42.42-.12A1.32,1.32,0,0,1,41.63,75.12Zm-.74.45c-.11,0-.38-.15-.21.12C40.78,75.58,40.84,75.63,40.89,75.57ZM40,75.06c-.17-.15-.38-.25-.16.06C40,75.12,40,75.12,40,75.06Zm-5.1-7.31.21-.22-.32.12Zm-5.28,4.72-.05,0,.16.16.06-.06Zm-9.4,1.45c0-.22-.33-.32-.55-.42-.05.06,0,.11,0,.22C19.91,73.6,20,73.92,20.24,73.92Zm.62-2.76c.16.27-.09.65-.25.6C21,71.59,21.34,71.42,20.86,71.16Zm-.78-.83h0Zm-2.69-5.78a70.79,70.79,0,0,1-6.45-9.84c.93.77.7,2.12,1.16,3.18-.14-1-.63.56-1-.13.11.1.32.21.17.37-1.21-.93.4-2.75-1.49-3.39C7,54.07,5.55,50.46,2.83,48.93c-.43.23-1,.3-.51.87a22.31,22.31,0,0,0,3.15,3.29c2,1.13,1.58,2.75,1.63,4.46l.47-.49c1.47.76-.19.75,1.12,1.57-.52.56-1-.5-1.36-.65a3.13,3.13,0,0,0,3.27,1.83C12,61,14,61.49,15.11,63.44,16.12,63.25,16.53,64.58,17.39,64.55Zm-4-3.64-.05.06.28.26,0-.06Zm8.8-9.53c-.71-.15-1.06.67-1,1.21-.7,0-1.26-.66-1.75-1.13l.53-.23-.65,0a2.48,2.48,0,0,1-.22-2c.16-.06.43,0,.44.2l-.1.11c.31-.33.36-.5.74-.45-.54.12-1-.51-1.57-.33.57,1.27.25,2.94,1.72,3.7C21.3,53.23,22.13,52.24,22.22,51.38ZM13,60.66c-.64.23-.4-.8-1-.3C12.17,60.25,12.68,61.15,13,60.66ZM22.1,51c-.08-.69-.89-.83-1.12-1.36C21.12,50.55,21.91,50,22.1,51ZM13.34,59.9c.09-.76-.5-.69-.82-.46-.06-.27-.51-.9-.08-1-.17-.37-1.36-.55-1.07.24.05-.16.21-.22.15-.37.86.08.08.69.51,1h-.32C12.35,59.28,13.07,59.85,13.34,59.9Zm7.27-10.36.26-.06-.49-.25Zm-9,9.49h0ZM10,58.33l.21-.11-.59.07Zm1.28-2c-.59.07.12.31-.14.7C10.89,56.85,11.64,56.73,11.3,56.31Zm-.72,1c-.55-.41-.29-.79-.82-.46ZM8.8,59l.06.16-.06-.37Zm.89-1c-.44-.1-.53-1.44-1.14-.45l.76.3-.11.11C9.37,58.13,9.57,57.8,9.69,57.91ZM10,56.4l.33.1L10,56.13ZM7.56,57l.33.1-.17-.27Zm4-4.25A2.73,2.73,0,0,0,11,50.15,3.8,3.8,0,0,0,8.09,49c-.53.34-.35,1-.61,1.42-.28,1.4.71,2.23,1.59,3.06C9.94,53.66,11.13,54,11.57,52.7Zm4.89-9.05a1.14,1.14,0,0,0-1.23,0c-.15.37-.29,1,.09,1.23C16,45.54,17.29,44.43,16.46,43.65Zm-6.18,7.1L9.6,51C10.31,51.72,9.86,51.09,10.28,50.75ZM6.9,54.23h.21l-.22-.43Zm2.33-2.8c-.66-.63-.6-.25-.3-1.12l-.64,0c-.31.65.39.47.3,1.12L8,51.2c.16-.06,0,.91.51,1-.71-.68.68-.5.68-.82Zm.41-.66c.64-.34-.29-.79-.09-1.23-.35.82-.81-.14-1.44.42l1,.08C9.16,50.73,9.2,50.36,9.64,50.77ZM5.85,53.24l.32.1-.38-.26Zm-.08-.91,0,.06.27.26,0-.06ZM23.1,29.89c1-1.86.58-3.83.15-5.7-1.11-1.47-.09-3.21-.94-4.64-.33-.31-.87-.62-1.34-.12.26,3.48-1.08,7.11.94,10.27A.83.83,0,0,0,23.1,29.89ZM4,50.08c-.4-.8-.7.07-.9.29.22.21.53-.12.36-.28Zm-.83-.89c-.25.7-.82-.46-.68.5A.44.44,0,0,0,3.21,49.19ZM13.28,31.78a2.81,2.81,0,0,0-1.52-2.48c-.85.35-1-.72-1.68-.33l.41,1c.89-.61,2,.26,2.2.1,0,.37.73,1.1.15,1.5-.23-.53-.53,0-.82-.46-.47.28.24.74-.29,1-.1.11-.32,0-.38-.26h.1c-.33-.42,0-1.07-.8-1.8,0,.7.06,1.93,1,2.17C12.28,32.51,12.92,32.49,13.28,31.78Zm-.42.22c-.07-.37-.33-.2-.54-.09ZM6.06,12.35c.31-.55-.08-1.13-.31-1.66-.62-.9-1.69-.75-2.46-1.38.52,1.12,0,2.85,1.61,3.5C5.27,12.74,5.86,12.89,6.06,12.35Zm-.18-.59c-.43-.2-1.14-.66-.73-1.43-.53.23-.93-.35-1.3-.39,1,.62-.38,0-.2.76a4.94,4.94,0,0,1,1.18,1.63C5.2,12.16,5.69,12.41,5.88,11.76ZM2.34,2.51c.3-.77-.2-1.13-.32-1.77C1.36.33.65-.24,0,.1A3,3,0,0,0,1.06,2.86,1.08,1.08,0,0,0,2.34,2.51Zm-.23-.43c0-.32-.54-.09-.7-.14l0,.27c.55.42.26-.38.69-.29A.25.25,0,0,1,2.11,2.08ZM2,1.34C2.19,1.12,1.81,1,1.65,1ZM.38,1.7c.27-.16.74-.45.51-.87H.79L1,.4c-1,0,.41,1.22-.67.93ZM8,2.63A1.42,1.42,0,0,0,8,1.56C7.72,1,7.06.35,6.47.53c-.9.4-.11,1.67.39,2.13C7.18,2.87,7.73,3.07,8,2.63Zm-.24-1c-.28-.58-.45-.84-.88-.83-.85.24.58,1.38-.46.92l.61.58c.32-.23.08-.87.51-.88Z"/></g></g></svg>