<svg xmlns="http://www.w3.org/2000/svg" viewBox="0 0 433.39 390.83"><defs><style>.cls-1{opacity:0.85;}.cls-2,.cls-3{fill:#b30d6f;}.cls-3{opacity:0.3;}</style></defs><title>ink_m07</title><g id="レイヤー_2" data-name="レイヤー 2"><g id="Content"><g class="cls-1"><path class="cls-2" d="M148.05,106.84c-.91-2.12-5.05-5-3.14-8.28-3.09-6.36,1.15-11.38,2.15-17.16,2.63.84,1.7-2.43,3.12-3.85.42-1.32-.62-3.13.34-4.38,1.92,0,.25,3.52,2.83,2.46,4.63-1.82,1.71-7.72,4.39-10.63,1.61,2.64-1.43,6.71,2,8.31,2.65-1.23,6.06-2.85,7.24-5-1.54.05-3.69-.2-4.35-1.64,0-1.15,1.42-1.42,2.2-1.06,2.31.32,3.5,1.82,5.05,2.55,3.22-.39,5.45-2.75,7.23-5.33-1-.67-.36-2.07.31-2.7,2.06-3.2,6.72-1,8.62-4.68,1.63-2.27.72-4.78,2.65-6.9a2.7,2.7,0,0,1,2.64.85c1.08,3.35-3.25,4.92-.7,8.39,1,.66,1.91-.44,2.74-1-.39-2.83,2.1-4.51,2.72-7,.19,1.22,1.16.35,1.7.41-.48,5.08-6.19,9.6-4,14.61.92,0,2.21-.67,2.55.62a5,5,0,0,0-.07,3.38c4.84,3,9.93-1.8,15.1-.71-4.81,1-9.21,5.54-12.45,7.62,3.17-1.92,7.66-.21,9.82,0-4.7,2.35-7.45,2.58-12.19,3.4-1.87,4.42-2.2,9.57-1.92,14.24,1.51,2,6.32,1.07,6,4.68-2.43,1.13-3.76-2.89-6.67-2.74-1.66,1.12-4.3-.12-5.71,1.69.39.37,1.56,1.11.58,1.59-1.51.81-4.55-.79-4.25,1.81.18.83.59,2,1.21,2.26-.68.26-1.91.44-2.82.77.42,4,4.23.27,5.9,2.38-8.49,1.15-15.22,7.46-23.41,8.37C159.34,113.06,152,112.65,148.05,106.84Z"/><polygon class="cls-3" points="150.05 98.5 149.52 98.83 149.44 98.59 150.05 98.5"/><path class="cls-2" d="M236.25,128.72c.47-2.62,2-4.35,4.72-4.42a7,7,0,0,1,5.55,3.92c.68,2.21-2.08,2.44-2.65,4.06C240.85,134.28,236.86,131.47,236.25,128.72Z"/><polygon class="cls-3" points="155.71 92.06 154.96 92.84 155.49 92.52 155.71 92.06"/><polygon class="cls-3" points="150.89 89.81 150.84 90.73 150.67 90.27 150.89 89.81"/><polygon class="cls-3" points="154.27 87.03 153.73 86.97 153.79 86.44 154.27 87.03"/><polygon class="cls-3" points="154.44 85.03 154.31 85.73 154.23 85.5 154.44 85.03"/><polygon class="cls-3" points="152.59 81.71 152.24 82.87 152.3 82.33 152.59 81.71"/><polygon class="cls-3" points="158.42 84.62 158.6 85.46 158.67 85.31 158.42 84.62"/><path class="cls-2" d="M224.84,115.06c-3.4-.82-6.38-3.35-9.27-5.27-.11-1.38,1-1.41,2-1.36,2.68,2.77,7.53,3.33,9.45,6.5C226.69,115.56,224.81,116.76,224.84,115.06Z"/><polygon class="cls-3" points="151.49 80.81 151.43 81.35 151.35 81.13 151.49 80.81"/><path class="cls-3" d="M220.92,112.1c-.84-.21.15-.31,0-.76-.1,1.84.92,0,1.8,1l-1.9.82C221.17,112.78,220.93,112.49,220.92,112.1Z"/><path class="cls-3" d="M222.73,113.51l.59-.86c1.09.9-1.21.57-.2,1.24C223.19,113.73,222.88,113.58,222.73,113.51Z"/><path class="cls-3" d="M218.28,110.87c.37-.4.51-1.09,1.05-1C219,110.24,218.75,111.09,218.28,110.87Z"/><path class="cls-3" d="M188,93.34c.53-.32.61-.09.24.3C188.13,93.57,188.2,93.41,188,93.34Z"/><path class="cls-3" d="M157.3,77.29a1.54,1.54,0,0,1,1,1.19C157.12,78.9,157.17,78,157.3,77.29Z"/><rect class="cls-3" x="193.29" y="94.4" width="0.86" height="0.34" transform="translate(26.07 230.08) rotate(-64.97)"/><path class="cls-3" d="M191.68,88.79l1-.87-.41,1.7C192.08,89.55,192.22,88.85,191.68,88.79Z"/><path class="cls-2" d="M400.45,169.06c-.85-3.05,1.71-5.27,2.41-7.59,2.43,2.09,3.81-1.25,6.43-.4,3.77-2.79,7.93-4.81,10.9-8.73,1.1,1.28-2.45,3.21-1.61,5.87.86,3.43,4.53,2.88,6.92,3.43,2.83-.39,5.77-2.23,7.89-.29-8.51,0-9.77,10.39-17.49,11.52-4.28.65-9.48,4.08-13-.19C400.77,172.43,401.11,170.5,400.45,169.06Z"/><path class="cls-3" d="M197.52,74.67c0-.77.09.61,0,.77Z"/><path class="cls-2" d="M212.75,81.78c1-.1.94-2,2.4-1.9C213.61,79.53,214.06,82.21,212.75,81.78Z"/><path class="cls-3" d="M201.15,75.81c.68-.64,1.16.34,1.69,0C202.94,76.44,201.4,76.49,201.15,75.81Z"/><path class="cls-2" d="M214.2,81.9l.92-.33Z"/><path class="cls-2" d="M376.57,153.74c-4.59-5.17-6.75-11.1-8.91-17.41,1-.87.07-3,2-2.27,1.62.18,2,1.86,2.91,2.68,2.53,5.53,4.15,11.78,7.51,16.75.65,1.44,2.62,3.31.36,4.9C377.5,159.85,376.76,155.35,376.57,153.74Z"/><path class="cls-2" d="M215.89,81.55l.51-.71Z"/><path class="cls-2" d="M217.13,79.29l-.9.71C216.61,80,216.67,79.45,217.13,79.29Z"/><path class="cls-2" d="M217.67,79.35l.77,0a1,1,0,0,1-.74,1.17C216.93,80.52,217.61,79.89,217.67,79.35Z"/><path class="cls-2" d="M312,105.21c0-3.22,3.95-4.4,4.18-7.32,1.63-1.88,4.77-2.12,7.22-2.49,1.38,2.72,5.87-1.24,5.76,3.06,1.45-.27,4.16.81,4.41-1.34-1.76-2.72-.88-7-4.3-8.63-.17-.85,1.13-.8,2-1,1.5-1.58-1.15-3.19-1.27-4.57l2.35-1-.67-2.21c1-.49,3.14-.24,3-2,.55-2.39-2.82-2.07-1.49-4.1,1.15,0,1.59,1.88,2.89,1.92a4.93,4.93,0,0,0,2.84-5.68c1.15,0,1.86.87,3.1,1.06,1.43-1,3.64-1.7,3.35-3.92,1.67-.73,1.19,1.5,2.27,1.63.39-2.47,4.5-.73,3.88-3.87,1.41,1-.54,2.4.64,3.52,5.6,5.83,11.55-1.23,17,3-1.92,2.89.42,7.2-2.59,9.58.09,3.45,3.46,3.12,5.17,3.92.13,1.77-1.51,3.66-1.4,5,3.05-.85,3.93,3.35,7.05,2.34-6.46-.36-13.13,5.42-20.36,4.69-1.21.95-4.27,1-3.74,3.55a10.13,10.13,0,0,0,3.69,6.28c1.44,2.18-1.53,2.88,0,4.9-2.6.31-2.19-4.23-5.1-4.08-.74-2-.74-4.89-2.85-6.45-3.06-2.37-6.79-1.27-9.9-2.72-3.36.7-6.65.87-9.52,2.56,1,4.42,6.59-.33,9.22,3.35a1.88,1.88,0,0,1-.84,3c-2.44.75-7.16-.88-7.2,3.26-.27,1.39,1,3.89-1.35,4.1-4.38,2.5-8.94,1.32-13.24-1.64C313.81,111,313.12,108,312,105.21Z"/><path class="cls-2" d="M364.77,125.9c1.51,2-1,.87-1.18,1.71C363.42,126.78,363.53,125.32,364.77,125.9Z"/><path class="cls-2" d="M303.09,80.44a5.35,5.35,0,0,1,2.39-2.67c1.52-.43,2.89-.92,4.21-.12.12,1.38-.21,3.31-1.57,4.19-1.21.57-1.81,1-3.05.85A2.44,2.44,0,0,1,303.09,80.44Z"/><path class="cls-3" d="M305.41,81.14c-.53-.06-.4-.75.06-.92l-.08.16.93.05c-1.53.42,0,1.53.65,1.44C306.13,82,305.44,82.3,305.41,81.14Z"/><path class="cls-2" d="M216.39,37.49c-1.59-5.09,3.45-8.61,5.11-13,4,1.89,6.58-3.17,10.57-3.2-.28,1-1.8,1.44-2.39,2.29l-.41-1.14c-.13,1.08-1.06.64-1.19,1.72L228,24c-.52.71-3,.7-1.41,1.81-1.13.8-2.68.07-4.15-.43,1.36,2.34-2,1,.15,2.91-1.21.57-.2-1.6-1.55-.73-2.49,1.68-3.24,5.31-3.54,8.39.76-.41.56-2,1.8-1.82-1.56,2.12,3,2,1.41,4.26,1.92,0,2.28-.82,3.95-1.56-.21-2-2.55-.62-2.67-2.38,2.29-.45.23-2.93,3.07-2.92-2.05.74-1.34,1.64-2.45,3.21,1.59-1,2.26,1.24,3.16.52l-.88-1.35c1.18,1.12,2-1.36,3.24-2.08l.09.22c.76,0,.36-.77.51-1.09l.48,1c3.88-1.41,2.21-6.35,5.95-7.06.05,1.91-3.15,2.69-1.56,4.95-2.32,5-5.49,9.73-11,10.57C220.1,41.31,218.26,38.36,216.39,37.49Z"/><rect class="cls-3" x="305.98" y="79.26" width="0.86" height="0.34" transform="translate(104.79 323.45) rotate(-64.97)"/><path class="cls-3" d="M220.15,37.55c-.61.09.49,1-.51.7Z"/><path class="cls-2" d="M219.93,34.79c0-.92.54.06,1.21-.57-.9.72,0,1.53-.1,2.23C220.87,35.61,221,34.91,219.93,34.79Z"/><path class="cls-2" d="M221.63,35.59l.14-.7Z"/><path class="cls-3" d="M225.81,36.78c1.14-.42-.48-1,.84-.18C226.11,36.54,226.29,37.38,225.81,36.78Z"/><path class="cls-2" d="M220.21,33.78c.07-.15.21-.46.44-.55C220.66,33.61,220.6,34.16,220.21,33.78Z"/><path class="cls-2" d="M219.08,31.74c.5,1.37,1-.64,1.22-.18-.66,1,.12,1.37-1.11,1.56C218.34,32.91,219.47,32.12,219.08,31.74Z"/><rect class="cls-2" x="223.67" y="32.93" width="1.54" height="0.17" transform="translate(99.56 222.41) rotate(-64.97)"/><path class="cls-3" d="M227.1,33.22c.24.3-.53.31-.76.4C226.57,33.53,227.11,33.6,227.1,33.22Z"/><path class="cls-3" d="M228.18,33.72c.61-.09.17.46.1.61C228.2,34.11,228,33.81,228.18,33.72Z"/><polygon class="cls-2" points="221.03 30 220.35 30.63 220.25 29.64 221.03 30"/><polygon class="cls-2" points="195.29 17.42 194.62 18.05 194.15 17.83 195.29 17.42"/><path class="cls-2" d="M225.45,31.88c.76-.41.84-.18.86.59C226.14,32,225.76,32,225.45,31.88Z"/><path class="cls-2" d="M284.34,56.54c1.44-3.87,5.78-5.06,9.39-5.08,1.22,2.65.46,5.89-.32,8.37a6.75,6.75,0,0,1-4.87,1.51C286.21,60.25,283.58,59.4,284.34,56.54Z"/><path class="cls-2" d="M237.1,31.26c1.62-5.11,6.69-5,10.63-7,.63.67.83,2.28,2.19,1.78-1.15,2.87-.08,5.45,1.54,8.48a5.18,5.18,0,0,1-3.73,4.32c-3.77,2.4-3.63-4-7.48-1.41C237.32,36.85,236.47,33.81,237.1,31.26Z"/><path class="cls-2" d="M226.9,28.77l0-.92Z"/><path class="cls-2" d="M223.7,26.71l-.55-.45Z"/><path class="cls-3" d="M243.26,35.08c0-.76-.55-.44-.85-.21.94-2,5-4.66,2.84-5.67l-.58,1.24c-.26-1.06-2.11-1.55-1.92-2.79l1.56.73-.91.33c.1,1,1.38.27,1.71.8,1.35-.88.46-2.62,2.47-2.06.11,1-.81,1.32-.32,2.31,1-1.26.61-.09,1.84.1l-.91.33c.07-.15-.08-.22,0-.38-1.37.11-1.09,2.33-2.86,2.07,1.48.5-.31,2.7-.51,3.93.5-1.47-1-1.43-2-.56A.37.37,0,0,1,243.26,35.08Z"/><path class="cls-3" d="M247.26,35.44c.46-.17.93.43,1.46.11C249.74,36.21,247.26,35.44,247.26,35.44Z"/><polygon class="cls-2" points="232.1 28.17 230.95 28.2 231.55 27.72 232.1 28.17"/><polygon class="cls-2" points="197.52 11.83 197.39 12.53 197.38 12.14 197.52 11.83"/><path class="cls-3" d="M244.18,32.3c.31.14.71.52,1.17.73l-.31-.14-.2,1.23C243.91,33.69,244.79,32.2,244.18,32.3Z"/><path class="cls-3" d="M246.39,34.46l.41-1.7Z"/><path class="cls-3" d="M242.63,31.57c.33.91.31.15-.28,1Z"/><path class="cls-3" d="M292.67,54.94c.31.14.38,0,.54.06l-.44.94C292.76,55.55,292.52,55.25,292.67,54.94Z"/><path class="cls-3" d="M241.33,31.92l.83-.56Z"/><path class="cls-3" d="M247.76,34c.46.21.54.06.37-.39.39.36-.21.84-.13,1.07Z"/><polygon class="cls-3" points="240.98 30.24 241 31 240.69 30.86 240.98 30.24"/><polygon class="cls-2" points="269.34 43.29 268.74 43.76 268.5 43.46 269.34 43.29"/><polygon class="cls-3" points="242.37 30.5 242.22 30.82 241.45 30.45 242.37 30.5"/><polygon class="cls-2" points="267.98 41.33 267.32 42.34 267.69 41.95 267.98 41.33"/><path class="cls-2" d="M231.33,25l1.52-.42C232.39,24.71,231.74,26.11,231.33,25Z"/><path class="cls-2" d="M201,0l.92.05C201.44.6,201.43.22,201,0Z"/><path class="cls-2" d="M380.57,62.48c-.38-2.44,1.87-4.42,3.29-5.84,3.59-.79,7.69-2.28,10.08,1.11a8.77,8.77,0,0,1,1.49,4.1c-1.33,1.65-1.39,5.41-4.51,6C386.88,69.22,380.71,67.85,380.57,62.48Z"/><path class="cls-2" d="M299.17,22.77c0-2.84,2.82-3.61,4.25-4.65,2.13-.51,5-.52,6.33,1.45,1.17.74,1.13,2,1.09,3.35-.49,1.85-2.12,4.12-4.41,4.56C303.09,29,298.65,26.31,299.17,22.77Z"/></g><g class="cls-1"><path class="cls-2" d="M166.2,378.18c-1.84,1.92-3,7.61-7.37,7.07-5.35,6.15-12.59,3.92-19.17,5.47-.29-3.18-3.34-.71-5.49-1.58-1.59.15-3,2.07-4.8,1.62-.92-2,3.63-1.85,1.33-4.11-4-4.09-9,1.67-13.26.13,2.08-2.89,7.77-1.51,7.92-5.85-2.5-2.27-5.76-5.15-8.52-5.44.74,1.61,1.45,4,.21,5.35-1.21.55-2.15-.87-2.11-1.86-.7-2.59.35-4.54.42-6.51-1.86-3.23-5.38-4.54-8.92-5.25-.24,1.37-2,1.31-3,.88-4.32-.74-4.11-6.67-8.85-7-3.14-.7-5.39,1.39-8.51.3a3.1,3.1,0,0,1-.29-3.18c3.06-2.66,6.68,1.22,9.2-3,.25-1.38-1.32-1.83-2.29-2.46-2.82,1.69-5.73-.19-8.71.3,1.22-.75-.15-1.39-.33-2,5.6-1.79,13,2.23,17.29-2.37-.36-1-1.7-2-.48-3a5.79,5.79,0,0,0,3.61-1.46c1-6.5-6.39-9.72-7.57-15.69,3.2,4.65,10,7.27,13.71,9.76-3.48-2.49-3.68-8-4.39-10.43,4.61,3.92,6.1,6.74,9.1,11.39,5.54,0,11.15-2,16-4.39,1.47-2.52-1.73-7.18,2.27-8.43,2.3,2.06-1.37,5.29.11,8.31,1.93,1.26,1.81,4.62,4.36,5.3.22-.59.47-2.16,1.43-1.34,1.54,1.24,1.21,5.19,3.83,3.7.81-.57,1.83-1.53,1.86-2.31.58.61,1.33,1.82,2.09,2.64,4-2.23-1.62-4.61-.15-7.32,5,8.48,14.8,12.77,19.45,21.05C167.7,363.4,170.59,371.41,166.2,378.18Z"/><polygon class="cls-3" points="156.45 379.83 157.04 380.24 156.83 380.43 156.45 379.83"/><path class="cls-2" d="M149.6,274.75c-3,.68-5.53-.2-6.81-3a8,8,0,0,1,1.64-7.66c2-1.71,3.53,1.11,5.51,1C153.42,267.36,152.24,272.86,149.6,274.75Z"/><polygon class="cls-3" points="147.06 376.73 148.23 377.17 147.66 376.75 147.06 376.73"/><polygon class="cls-3" points="146.85 382.86 147.85 382.49 147.44 382.88 146.85 382.86"/><polygon class="cls-3" points="142.38 380.53 142.56 381.13 141.96 381.3 142.38 380.53"/><polygon class="cls-3" points="140.18 381.24 140.98 381.07 140.77 381.26 140.18 381.24"/><polygon class="cls-3" points="137.49 384.71 138.88 384.56 138.28 384.74 137.49 384.71"/><polygon class="cls-3" points="137.94 377.21 138.76 376.64 138.56 376.63 137.94 377.21"/><path class="cls-2" d="M140.26,293c.66,4-.67,8.28-1.41,12.21-1.4.74-1.95-.46-2.32-1.46,1.73-4.1.13-9.49,2.63-13C140,290.83,142.07,292.29,140.26,293Z"/><polygon class="cls-3" points="137.04 386.27 137.64 386.1 137.44 386.29 137.04 386.27"/><path class="cls-3" d="M138.89,298.51c.16,1-.4,0-.8.37,2-.73-.36-1,.27-2.37l1.73,1.64C139.5,297.94,139.29,298.32,138.89,298.51Z"/><path class="cls-3" d="M139.57,296l-1.18-.24c.46-1.57,1.15,1,1.4-.35C139.59,295.37,139.58,295.76,139.57,296Z"/><path class="cls-3" d="M138.78,301.87c-.59-.22-1.39-.05-1.57-.65C137.8,301.44,138.8,301.27,138.78,301.87Z"/><path class="cls-3" d="M133.83,341.85c-.58-.41-.38-.6.21-.38C134,341.66,133.84,341.65,133.83,341.85Z"/><path class="cls-3" d="M130.67,381.7a1.8,1.8,0,0,1,.84-1.55C132.47,381.17,131.47,381.53,130.67,381.7Z"/><rect class="cls-3" x="132.37" y="334.79" width="0.39" height="0.99" transform="translate(-207.09 456.18) rotate(-88.02)"/><path class="cls-3" d="M127.36,340.05l-1.36-.64,2-.33C128,339.28,127.18,339.45,127.36,340.05Z"/><path class="cls-2" d="M118.28,82.37c-2.85,2.28-6.36.57-9.14.87,1.12-3.52-3-3.47-3.32-6.64-4.66-2.74-8.69-6.24-14.19-7.62.86-1.75,4.52,1.15,7-.94,3.25-2.46,1-6.1.51-8.88-1.68-2.84-5-5.12-3.87-8.25,3.85,9,15.43,5.68,20.11,13.36C118,68.51,124,72.48,121,78.11,121.7,80.51,119.51,81,118.28,82.37Z"/><path class="cls-3" d="M109.75,340.23c-.81.37.61-.38.81-.37Z"/><path class="cls-2" d="M110.42,320.87c-.55-1-2.56-.09-3.1-1.69C107.65,321,110.28,319.28,110.42,320.87Z"/><path class="cls-3" d="M109.31,335.86c-1-.43-.15-1.39-.73-1.8C109.18,333.68,109.92,335.29,109.31,335.86Z"/><path class="cls-2" d="M109.89,319.27l-.77-.82Z"/><path class="cls-2" d="M112.81,114.62c-3.42,7.2-8.73,12.16-14.45,17.31-1.36-.65-3.21,1.27-3.32-1.11-.54-1.8,1.09-2.93,1.53-4.3,4.73-5.17,10.62-9.72,14.38-15.52,1.24-1.34,2.33-4.27,5-2.6C118.87,110.88,114.43,113.69,112.81,114.62Z"/><path class="cls-2" d="M108.75,317.64l-1-.23Z"/><path class="cls-2" d="M105.8,317.34,107,318C106.78,317.57,106.18,317.75,105.8,317.34Z"/><path class="cls-2" d="M105.62,316.74l-.37-.8a1.21,1.21,0,0,1,1.58.25C107.19,317,106.22,316.57,105.62,316.74Z"/><path class="cls-2" d="M90.49,205.05c-3.41,1.46-6.45-2.21-9.65-1.13-2.74-.89-4.41-4.11-5.91-6.53,2.27-2.7-4-5.68.65-7.5-.94-1.42-1-4.78-3.41-4.07-2.09,3.09-7.07,4.11-7.22,8.45-.81.57-1.35-.84-1.92-1.65-2.35-.87-2.86,2.67-4.27,3.41L56.65,194l-2,1.71c-1-.82-1.67-3.22-3.49-2.29-2.78.49-.92,3.92-3.68,3.43-.55-1.21,1.28-2.53.73-3.93a5.68,5.68,0,0,0-7.3-.45c-.55-1.21.09-2.37-.27-3.77-1.74-1.05-3.45-3.08-5.67-1.78-1.53-1.43,1.06-1.94.7-3.14-2.8.7-2.81-4.45-5.85-2.38.46-2,2.78-.49,3.44-2.25,3.66-8.58-6.51-11.7-4.48-19.35,3.94.73,7.45-3.69,11.33-1.58,3.63-1.66,1.76-5.08,1.83-7.26,1.82-.92,4.56,0,6-.78-2.28-2.85,1.78-5.68-.69-8.53,2.52,7,11.67,11.48,14.16,19.48,1.55.85,3,4.06,5.46,2.37a11.71,11.71,0,0,0,5-6.76c1.66-2.51,3.75.33,5.21-2.19,1.5,2.62-3.5,4.23-2,7.25-1.85,1.71-4.86,3-5.56,5.94-1.13,4.31,1.72,7.77,1.58,11.73,2.26,3.24,3.92,6.66,7,8.94,4.26-3-3.32-6.84-.6-11.29a2.18,2.18,0,0,1,3.58-.48c1.9,2.25,2.3,8,6.7,6.17,1.61-.34,3.67-2.84,5-.42,4.62,3.53,5.43,8.89,4.23,14.79C95.79,200.48,93,202.56,90.49,205.05Z"/><path class="cls-2" d="M88.6,139.7c1.47-2.52,1.36.64,2.35.48C90.14,140.74,88.55,141.28,88.6,139.7Z"/><path class="cls-2" d="M68.22,225.64a6.13,6.13,0,0,1-3.91-1.32c-1.14-1.43-2.28-2.65-2-4.42,1.41-.75,3.61-1.26,5.15-.22,1.16,1,1.93,1.45,2.28,2.85A2.8,2.8,0,0,1,68.22,225.64Z"/><path class="cls-3" d="M67.92,222.86c.17.6-.62.77-1,.36h.2l-.37-1c1.14,1.42,1.61-.74,1.24-1.35C68.55,221.7,69.13,222.31,67.92,222.86Z"/><path class="cls-2" d="M61.79,337c-4.68,4-10.68.22-16,.43.18-5.13-6.33-5.56-8.16-9.78,1.2-.15,2.33,1.27,3.51,1.51l-1,1c1.2-.35,1.16.84,2.37.48l-.21.19c1,.24,2.07,2.84,2.55.68,1.35.84,1.29,2.82,1.42,4.6,1.87-2.5,1.92,1.65,3-1.48,1.15,1-1.62.94-.07,2,2.9,1.88,7.08,1,10.48,0-.77-.62-2.38.31-2.73-1.09,3,.7.74-4.13,3.88-3.42-.92-2-1.91-2.05-3.44-3.49-2,1.12.49,3-1.32,3.92-1.51-2.23-3.21,1.07-4.49-1.94,1.71,1.84,2.36.67,4.52,1.14-1.74-1.24.29-2.95-.87-3.59l-1,1.55c.65-1.76-2.33-1.46-3.67-2.5l.2-.19c-.37-.8-1,0-1.39-.05l.83-1c-3.24-3.47-7.73.52-10.18-3.12,2-.92,4.28,2.13,6-.59,6.32.22,12.8,1.44,16.18,6.9C64.17,331.33,61.88,334.61,61.79,337Z"/><rect class="cls-3" x="65.45" y="222.09" width="0.4" height="0.99" transform="translate(-159.07 280.5) rotate(-88.02)"/><path class="cls-3" d="M60.15,333c.38.61.83-1,1,.23Z"/><path class="cls-2" d="M57.34,334.46c-1,.36-.19-.6-1.16-1,1.17.63,1.61-.73,2.41-.9C57.77,333.09,57,333.26,57.34,334.46Z"/><path class="cls-2" d="M57.41,332.29l-.8.17Z"/><path class="cls-3" d="M56.79,327.32c-1-1-.83,1-.57-.81C56.4,327.11,57.21,326.54,56.79,327.32Z"/><path class="cls-2" d="M56.14,334.62a1.21,1.21,0,0,1-.79-.23C55.75,334.21,56.36,334,56.14,334.62Z"/><path class="cls-2" d="M54.48,336.73c1.23-1.14-1.15-.83-.74-1.21,1.37.25,1.4-.74,2.16.47C56.06,337,54.7,336.15,54.48,336.73Z"/><rect class="cls-2" x="53.32" y="329.58" width="0.2" height="1.78" transform="translate(-278.7 372.42) rotate(-88.02)"/><path class="cls-3" d="M52.43,327.56c.21-.39.57.42.77.62C53,328,52.83,327.38,52.43,327.56Z"/><path class="cls-3" d="M52.48,326.18c-.38-.6.4-.38.6-.37C52.88,326,52.67,326.39,52.48,326.18Z"/><polygon class="cls-2" points="51.76 335.45 52.73 335.88 51.73 336.44 51.76 335.45"/><polygon class="cls-2" points="50.03 368.43 51 368.86 50.98 369.45 50.03 368.43"/><path class="cls-2" d="M51.75,329.91c-.77-.62-.56-.81.24-1.17C51.58,329.12,51.76,329.52,51.75,329.91Z"/><path class="cls-2" d="M51.33,256.31c-4.75.23-8-3.83-9.63-7.65,2.27-2.5,6-3.15,9-3.45,1.75.66,3.26,2.88,3.79,4.49C54.42,252.66,54.71,255.83,51.33,256.31Z"/><path class="cls-2" d="M45.84,317.84c-6.16.58-8.34-4.84-12.18-8.13.43-1,2-1.92.9-3.14,3.56-.07,5.82-2.37,8.3-5.45a6,6,0,0,1,6.26,2c4.25,2.91-2.57,5.65,1.88,8.57C51.67,315.08,48.82,317.35,45.84,317.84Z"/><path class="cls-2" d="M47.8,329.78l-1,.36Z"/><path class="cls-2" d="M47.06,334.1l-.23.79Z"/><path class="cls-3" d="M47.12,309.58c-.81.36-.23.78.16,1-2.57-.09-7.21-3.21-7.31-.45l1.59.06c-1,.75-.7,2.94-2.1,3.29l.07-2,.76.82c1-.56-.34-1.6.08-2.18-1.55-1-3,.69-3.3-1.69,1-.56,1.77.26,2.59-.71-1.76-.45-.37-.6-.72-2l.76.82c-.19,0-.2.19-.4.18.74,1.41,3,.11,3.49,2.1-.14-1.78,3-.88,4.39-1.23-1.78.14-1,1.75.32,2.38A.41.41,0,0,1,47.12,309.58Z"/><path class="cls-3" d="M45.68,305.17c-.38-.4,0-1.18-.53-1.6C45.39,302.2,45.68,305.17,45.68,305.17Z"/><polygon class="cls-2" points="44.82 324.53 45.37 325.74 44.59 325.32 44.82 324.53"/><polygon class="cls-2" points="43.09 368.58 43.89 368.42 43.49 368.6 43.09 368.58"/><path class="cls-3" d="M43.74,309.85c0-.39.23-1,.25-1.57v.4l1.4-.35C45.34,309.52,43.37,309.25,43.74,309.85Z"/><path class="cls-3" d="M45,306.54l-2,.32Z"/><path class="cls-3" d="M43.67,311.83c.82-.76,0-.39,1.2-.16Z"/><path class="cls-3" d="M45.88,248.21c0-.4-.19-.4-.18-.6l1.19,0C46.48,247.83,46.27,248.22,45.88,248.21Z"/><path class="cls-3" d="M44.62,313.05l-1-.63Z"/><path class="cls-3" d="M43.9,305.31c0-.59-.18-.6-.58-.22.21-.58,1-.16,1.19-.35Z"/><polygon class="cls-3" points="43 314.18 43.8 313.81 43.79 314.21 43 314.18"/><polygon class="cls-2" points="44.05 278.21 44.82 278.63 44.61 279.02 44.05 278.21"/><polygon class="cls-3" points="42.66 312.59 43.06 312.6 43.02 313.59 42.66 312.59"/><polygon class="cls-2" points="42.58 280.54 43.96 280.78 43.37 280.56 42.58 280.54"/><path class="cls-2" d="M41.77,326.8l-1.13-1.42C41,325.79,42.79,325.85,41.77,326.8Z"/><path class="cls-2" d="M29,370.27l-.36-1C29.41,369.5,29,369.68,29,370.27Z"/><path class="cls-2" d="M14.21,151.57c-2.43,1.49-5.55,0-7.69-.86-2.45-3.45-5.89-7.13-3.37-11.2a10.11,10.11,0,0,1,3.68-3.43c2.35.67,6.36-1,8.43,2.07C18.5,141.83,19.83,149,14.21,151.57Z"/><path class="cls-2" d="M8.82,255.83c-3,1.28-5.1-1.36-6.85-2.41-1.51-2-2.79-5-1.32-7.37.25-1.57,1.65-2.12,3.06-2.66,2.19-.32,5.32.38,6.83,2.61C13.61,248.87,12.81,254.78,8.82,255.83Z"/></g></g></g></svg>