<svg xmlns="http://www.w3.org/2000/svg" viewBox="0 0 80.96 236.06"><defs><style>.cls-1{fill:#f4d444;}</style></defs><title>ink_s04</title><g id="レイヤー_2" data-name="レイヤー 2"><g id="Btn"><path class="cls-1" d="M22.18.63,22.29,0l-.54.56Zm-3,1L20.27,2.9l-.14-.45,1.33-.21C20.56,1.22,19.6,3,19.18,1.63ZM23.6,10c-.46.14-1.2.66-.11.63A.32.32,0,0,0,23.6,10ZM14,9.19c.25-.17.67-.1.54-.56C13.94,8.1,14,9,14,9.19Zm1.8-.34-.42-.07.2,1.33Zm3.5,2.34c-.42-.07-1.65-.5-.53.56Zm-8.19,1c1.92.12,1.49,2.64.43,3.76.32-1.89,3.7-1.31,3.22-3.56C12.7,10.27,13.34,14.07,11.08,12.16Zm7.3.4c-.11.63-.75,1.82.13,1.75C19.19,12.91,17.91,14,18.38,12.56ZM17,14.27l-.52-.74-.5.35Zm-1.9-.33-.7.31ZM9.24,14l1.68.29C10.57,13.81,9.84,13,9.24,14ZM14,15.27l0-.21c-1.34,1.5,2.71-.62,1.23,1.73.87-.07.7-.31.78-2C15.21,14.61,14.78,15.84,14,15.27Zm3.34.8-.78.73Zm-6.79.34L10,15.67l.17,1.55Zm3.51,1c.38,1.58.31,2,2.31,1.7-1.76.13-.13-1.76-1.54-1.13C14.87,17.81,14.48,17.52,14.06,17.45Zm-1.69,1L12.23,18l-.74.52Zm5.4,1.37-.27-.92.41,1.37.11-.63Zm-8.29.3v1.3c.21,0,.24-.18.46-.14Zm4.77,1.26c-.08.42-.68,1.4-.08,1.72L14,22.86l-1,1.79s1.29-2.38,2.36-1.11l-1,.69c2.52.44-.05-2.17.15-2.14C14,21.77,14.71,21.25,14.25,21.39Zm6.2,3-.56-.53.52.74Zm-9.22,1.88.47-1.44L11,25Zm-3.69,0,1.33,1.1Zm6.93,5.1a11.13,11.13,0,0,0,1.11-2.63C14.56,28.38,14.82,30.6,14.47,31.4Zm-2.91-.72L12,29.24c-.49.35.24,1.13-.64,1.19Zm59.22,10c.16,1.55.19,2.64,2.09,3,.35.49,1.72.08,1.47-1C73.65,41.64,72.29,39.46,70.78,40.71ZM75.1,63.37c-5.58,4.67.07,10.86,2.75,15.44.27.92,2.38,1.28,2.74.48,1.71-3.61-3-5.5-4.13-8.74C76.86,68.23,76.81,64.75,75.1,63.37ZM2.46,63.16c.57.54,2.18,0,2.11-.93C2.16,61.16,4.78,63.56,2.46,63.16Zm-2.07.73.18-1.06L0,63.61ZM40.78,72.4c1,.6,1.79-.34,2.67-.41C43.06,71.71,40.3,70.15,40.78,72.4Zm19.41,3.14L60,75.3l0,1.08ZM27.74,78.82c-.11.63-1.21,2-.08,1.72L28.4,80c.17.24,0,1.3-.68,1.4l1.13-.23C29.91,80.06,28.58,79,27.74,78.82ZM26.29,81l-.4,1Zm1.39,2-2.94,3.18-.16-1.55c-.44,1.23-1.7,1-.86,2.46C25.34,86.43,27.35,84.83,27.68,82.93ZM19,81.64c-2.78,1-4.63,5.5-3.48,7.65,2-1.4,2.23-4.17,3.79-5.64Zm-.72,2.92.16-2.14-.64,1.19.25-.18Zm45,8.43.21,0L63.64,92l-.21,0ZM16.44,87.71c.77-.73.65-2.49,1-2C15.93,84.37,15.27,88.16,16.44,87.71Zm44.17,5.48.2,1.33ZM64,97.67c-.25.17-.44,2.53-.45,3.83Zm-2.22.27.27.91ZM43.05,96.87c-1,.91-3,2.3-2.24,4.17-.31-.71.73-4.21,2.49-3Zm0,2.6.18-1-.49.35ZM63.65,102c.87,1.23-1.22,3.26-1.32,2.59a2,2,0,0,0,1.55-.17C64,103.54,64.21,102.49,63.65,102Zm-21.88-1.41c-.11.64.09,2-1,1.79l-.52-.74c-.49.35.3,2,1,1.69C41.44,102.45,42.92,101.4,41.77,100.55Zm-.44,7.52c-.32.6-.36,2.11.9,2.33l1-.49C43.19,108.61,42.85,106.81,41.33,108.07ZM11.07,115c-.07.42-.64,1.19,0,1.3C11.13,115.86,11.49,115.05,11.07,115Zm-.66,3.79L9.77,120Zm-4.74,6.12c.31.71,1.82.76,1.75-.13C7.11,124.06,5.67,124.89,5.67,124.89Zm22.78,47.55-.67-3.59-.62,3.58c0-.21-.07-.88.39-1Zm-2.95,7.08.42.07.29-1.68-.42-.08Zm3.66-1.1c-.53.55-.85,1.15-.29,1.68l.53-.56A1.17,1.17,0,0,0,29.16,178.42Zm-4,3.2-.34,4.5c-.1-.66.25-1.47.88-1.36l-.63-.11C25.05,183.35,25.54,183,25.13,181.62Zm1.31,3.7c.56,1.83-2.57,2.38-1.21,3.27C27.87,188.39,25.21,186.2,26.44,185.32Zm-7.71,48.34a1.48,1.48,0,0,0,1.32,2.4l.18-1.05C20.13,234.34,19.33,234,18.73,233.66Z"/></g></g></svg>