<svg xmlns="http://www.w3.org/2000/svg" viewBox="0 0 418.71 311.18"><defs><style>.cls-1{fill:#88a80d;}</style></defs><title>ink_m02</title><g id="レイヤー_2" data-name="レイヤー 2"><g id="Content"><path class="cls-1" d="M182.39,266.15l.09-1c.45,2.4,3,.6,2.89,1.61C184.3,267.34,182.93,267.55,182.39,266.15Zm179.85,45c2.77-.77.57-2.65.72-4.33-1.25-1.12-2.27-4.93-5.44-3.52l-.24,2.68C357.72,308.73,358.83,311.52,362.24,311.15Zm-41-21.88c1,.09,2.26-2.5,2.75-.43-2.21-5.61-.07-14.54,3.12-20,1.68.14,2.78,3,3.37,4,1.06-.58-2.05-3.56-.2-5.42a17.66,17.66,0,0,1,12.73,8.9l-1.18-5.85c1.55-2.23,4.51-1.29,6.22-1.48a40.1,40.1,0,0,1-5.42-7.58c.18-2,1.58-2.56,3.26-2.41l-2.72-3.61c-.87-5.49,5,1.11,4.77-4.32,8.57-1.26,16.51,4.51,24.4,6.9-.82-2.1,4.81-4.65.88-6-4.15,1-6.5-2.94-10.93-2.66-1.7-3.53-6.53-6.32-6.18-10.35,5.16-.89,1.15-9,7.49-8.12,2.12-1.16,5.42-.2,7.16-.71-5.71-4.23-2.57-13.07-11.8-15.58l.35-7.75c1.27-2.92,6.14-4.52,6.38-7.2-9,2.24-13.9,12-23,11.48-4.2-9.83-3.58-20.6-8.11-30.46a8.07,8.07,0,0,1,2.86-1.77c-.55-1.4,2.3-6.9-1.48-6.22-6.56-6-1.83,9.3-6.4,11.26-1.84-2.19-4.56-5.81-7.76-4.06.57,5.12-5,2.93-6.62,6.17-3.91-1.7-4.07-7.46-7.53-10.47-5.62,6.26-10.59,16.64-16.73,24.88-1.64,3.23.08,6.77.44,10.18-7.08,3.76-13.55-3.23-21.17-1.2a8.66,8.66,0,0,0-6.24,5.53c5.24,13.3,22.26,4.34,26.47,17.89-5.44,8-8.4,18.51-6.19,27.83,5,8.9-7.26,9.5-11.7,13.84-2.92,2.45-.26,6.74-1.84,9.3,11.42-6.76,25.05-15.69,37.79-14.56,2.77-.77,0-3.39,1.09-4.64,6.39-3.49,3.85,6.09,7.78,3.73C319.85,274.62,319.84,282.38,321.25,289.27ZM161.32,252.12c1.92-2.53,4.6-2.29,7-3.09,2.91-2.45,6.26-5.87,6.31-10.26-.71-3.44,1.32-11-4.56-9.53,1.72-8-7.62-1.68-10.16-7.32-4.12.66-7.28,5.78-11.2,8.13-1.39,8-3,14.61,4,20C155.73,246.56,158.7,251.21,161.32,252.12Zm.36-4c.12-1.34,0-3.72-2.17-2.22C162.28,245.11,159.31,248.23,161.68,248.1Zm2.13-1.16c.42-1-1.84-2.19.27-3,2.12-1.17,3.29,1,4,1-.89-1.44-4.8-3.13-.92-4.81.63.39-.12,1.33.57,1.05.06-.66.52-2-.12-2.37.7-.28,1.62.82,1.56,1.49-1.44-2.83-1.65-4.2.5-5.7-1.31-.46-3.14,1.08-4-.36-.46-2.41-1.72-3.52-1.15-6.18,1.53,1.82-6.44,4.16-3.69,7.44-.07-3,3.53-1.71,3.56-2,1.75,3.2-1.12,1.25-2.37,3.85,2.32.54,2.26,1.21,3.81-1-2,3.21,1,7.53-3.71,7.45Zm-2.51-2.25c-2.19-1.89-5-8.22,0-7.44-2.13,1.16-2.68-.24-4.23,2-2.59-1.24-.74-3.11-1.57-5.21.34,0,.3.37.61.74l-.52-1.74c2.28-2.84,1.07,3.13,3.3,1,0-3.71,0-4.38,0-7.77.32,4.09-3.48,5.1-6.87,5.14.22,1.37,5.1,3.5,1.23,5.18-2-.52.57-2.66.18-2l-3.62,2.72c1.43-.89,4.21,2.06,2.41,3.25-.27-.7-.24-1-.91-1.1l0,3.39c.85-1.95,4,.69,5.88-1.51-2.31,3.17,2-.16,2.08,3.23-.27-.7.76-.95.85-2C162.49,242.76,160,243.89,161.3,244.69Zm-7.52-2.7,1.12-1.25Zm12.51-4,1,.09-.75-3.11Zm213.28,18.56-1.44-2.84ZM169.11,232.87c1.39-4.26-.92-1.09-2.75-3.28-2.12,4.88,4.7.41.73,3.11Zm206.07,8.46c.27-3-4.94-1.45-4.14,1C371.8,245.08,375,243.34,375.18,241.33Zm-323.63-28c1.52-1.89,1.85-5.59,5.16-5,3.76-.35,6.17,2.91,9.38,4.88l3.09-4.46c2.11-.82,2.91,1.62,4.94,1.46,1.19-1.92,2.71-3.82,3.89-5.74,3.51-1.38,5.7.5,8.57,2.45,3-7.17,6.4-15,12.64-20.51-1.11-14.3,7.25-24.71,8.16-38.82l-5.71-4.22c-.37-3.41,3.86-5.4,4.77-8-3-4-3.71,3.73-7.1,0-2.6-5,.28-10.79-.34-15.24a11.51,11.51,0,0,0-4.83,5c-3.64-1-7-5-8.86-6.87.85-1.95,1.45-4.94.26-6.73-4.33-.73-3.49,8.81-9.11,3.58-4.62-1.09-.16-5.76-3.4-7.39-4-.36-1.67,3.57-3.82,5.06-5.18,1.23-3.91-5.41-6.84-6.68-1.49,1.55-.67,3.65-.81,5.33-6.55,5.16-4.17-6.45-9.77-4.24-5.2,5.28-13.6,12.31-19,19.94-6.83,4.47-13.23-7.25-21.29-3.91-3.52,5.43,5.19,2.49,6.14,7,4.73,15.29,6.89,29,.19,43.61L.36,177c.33,0,1.38,3.5-.36,4,9.06.8,17.51-3.18,26.14-1.41-.75,1-3-.6-2.83,1.44,3.11-.74,7-2.75,9.51-.51-.74,8.39,4.38,7.83,1,16,1.51,2.16,4,.69,5.92,1.88,1.19,1.79,1,3.81-1.09,4.63.35,3.75,7.48,3.37,9.92,6.29C49.07,210.75,49.57,212.82,51.55,213.34Zm367.16,17.31c-1.28-.78-3.69-.32-4.79.59C415.11,233,418.53,232.67,418.71,230.65ZM138.57,180.83c1.27-2.93,3.53-5.43,6.73-3.46-1.65-4.2,2.85-5.49,5.71-7.27,1.16-1.58-1.74-3.19-1.59-4.87.24-2.68,2.4-4.18,3.86-5.4-7.47.35-.78-6.49-6.3-9-7-8.39-15.7-2.07-22.47-2,.7,7.5-8.52,4.65-7.16,12.21-2.95,6.5,4.74,7.51,4.57,13.24,3.08-.4,2.27,4.94,6.1,3.59C130.81,184.53,136.15,173.86,138.57,180.83Zm-1.66-7.92-.33,0-.15,1.68.33,0Zm2.5-1.47.82,2.1.7-4c2.1-.83,1.81,2.52,3.68.33-1.07-3.14-4.56,2-2.84-2.29,0,3.72-4.38-.05-2,3.88Zm-8.08-.38,1,.09L131.09,170Zm-4.64-4.8c-1-.76-1.23-1.46-1.68-.15Zm17-1.53-1.8,1.19,2.41-.46Zm-2.45-2.92,1.22,1.45-1.16-2.12Zm.64-3.33.88,1.43Zm-6.46.45,1.49-1.56Zm1.27-2.93-.86-1.77ZM209,95.83c2-.16,3.94-2.7,2.78-4.83-1.43-2.83-4-.36-6.12.47C204.45,93.39,206.61,95.62,209,95.83Zm.59-14.49c10.11-7.21,23.65-3.65,33.53-4.46,1.24-2.6-1.69-3.87-1.85-5.91,1.42-4.6,4.33.72,6.92-1.75,3.76-4.4,7.05-10.87,12.25-12.44.91-2.62-3-.93-3.84-2.36-2.48-2.59,1.44-4.94.65-7.38-.17-5.76,5.26-2.24,7.55-5.08-.84-2.1-3-.6-4.7-.41,4.61-6.35-8.13-11.2-1.75-18.41-1.86-1.85-8.15-3.42-4.34-8.15-4.61-1.43-10.18.45-13.81,3.17-5.61-1.51-2.49-10-8.55-10.22-2.38.13-5.51,4.92-9,2.58C221.12,4.3,214.72,4.08,210.69,0c-3.53,1.72,2.13,6.61-1.5,9.33-1.15,1.59-2.41.46-3.33-.64-7.61-1.68-1.34,7.66-4.6,10.07-2.77.77-4.12-3.06-6.74-4,10.23,10.37-8.36,10.41-10.38,18,2.13,2.56,5.22,5.87,5.93,9.32,1,3.8-3.71,3.72-4.87,5.31,1.71-.19,3.63,1,5.64,1.17.32,4.09-6,2.86-4.68,7,3.62,8.76,16.76,9.25,16.57,19A9.79,9.79,0,0,0,209.56,81.34Zm-9.83,94.35c4.61,1.42,7.46-4.07,9.77-7.25,1-3.63-1.48-6.21-3.28-8.74-1.19-1.79-5.06-.11-5.49-2.85-1.31,3.26-4.84,1.26-6.76,3.79-2.65,3.15-2.55,5.86-1.54,9.67C194.64,172.19,196,175.36,199.73,175.69Zm.88-2.29c3.26,1.3,1.64-3.23,4.9-1.93.49-1.65-.4-3.08-2.47-2.59C202.34,169.16,200.12,171.32,200.61,173.4Zm-1.16-2.14.79-1.27Zm-4.12-3.06c1.1-.92,1-4,1.69-3.91l-.39.65-.86-1.77C191.41,162.78,195.48,166.52,195.33,168.2Zm10.2-.79c-1-.42.06-.67.09-1a2.14,2.14,0,0,1-.06-3c.33,0,.3.36.64.39-1.62-.81-2.85-6-5.22-2.15l.21-2.34c-3.14,1.07,2,7.61-3.16,5.12,2.5,2.25,5.91-1.84,6-2.51C205.13,164.34,201.82,167.42,205.53,167.41Zm1.38-.22c1.31.46.78-1.27,1.83-1.52l-1.32-.45Z"/></g></g></svg>