<svg xmlns="http://www.w3.org/2000/svg" viewBox="0 0 226.65 254.15"><defs><style>.cls-1{fill:#2e3192;}</style></defs><title>ink_m01</title><g id="レイヤー_2" data-name="レイヤー 2"><g id="Content"><path class="cls-1" d="M163.17,154.42c.16.79,0,1.7-1,1.76l-.61-.26C163.19,156.12,162.56,154.16,163.17,154.42Zm60.9-104c-1,.57-3.57.44-3.31,2.73l1.64.68c1.82.28,3.8.14,4.25-2.09C226.72,49.86,225.1,50.87,224.07,50.44Zm-19.45,21c-3.94.11-9-3-11.7-6,.43-1,2.42-1.16,3.21-1.32-.16-.79-2.66.58-3.46-1a11.72,11.72,0,0,1,8.16-6.25l-3.92-.43c-1.1-1.42.09-3.1.31-4.22a26,26,0,0,1-5.86,1.9,1.71,1.71,0,0,1-.87-2.54l-2.83,1c-3.63-.55,1.7-2.91-1.76-3.88.92-5.65,6.15-9.5,9.25-14-1.5.1-2-4-3.62-1.76-.21,2.81-3.16,3.51-3.87,6.36-2.57.37-5.29,2.85-7.76,1.82.47-3.43-5.47-2.53-3.63-6.35-.3-1.57,1-3.46,1-4.66-3.81,2.75-8.76-1-12.19,4.32l-4.82-1.77c-1.59-1.39-1.62-4.78-3.26-5.47-.39,6.12,4.75,11.16,2.63,16.8-7.05.67-13.71-1.88-20.84-1a5.44,5.44,0,0,1-.55-2.17c-1,.07-3.88-2.83-4.21-.31-5.09,2.94,5.5,3,5.81,6.3-1.74.72-4.57,1.71-4.12,4.08,3.35.66.86,3.73,2.57,5.41-1.85,2.12-5.52,1.07-8.11,2.65,2.82,4.8,8.37,10,12.33,15.54,1.71,1.68,4.29,1.31,6.51,1.76,1,5.23-4.75,7.91-5,13.12a5.74,5.74,0,0,0,2.23,5c9.45-.63,7.21-13.17,16.6-13.1,3.93,5,10,9,16.31,9.48,6.61-1.34,4.54,6.49,6.38,10.16,1,2.33,4.2,1.51,5.5,3-2-8.55-4.87-18.94-1.61-26.75.07-1.9-2.14-.66-2.7-1.62-.92-4.73,4.61-1.21,3.91-4.16,4.48-.3,9.37,1.27,14,1.76C204.87,72.66,203.73,71.52,204.62,71.41Zm0,0a2.81,2.81,0,0,0,.29,0Zm-56,90.18c-1-2.33-2.45-5.12-5.2-6-2.32-.24-6.7-3-6.93,1-4.67-2.68-2.59,4.47-6.66,4.94-.41,2.72,2.19,5.75,2.89,8.7,4.76,2.47,8.61,4.81,13.38,1.49-1.57-2.59,2-3.53,3.06-5C147.91,164.93,148.6,163.29,148.58,161.59ZM185,32.4c1.9.08,1.44-2.29.21-2.8C183.36,28.82,183.3,32.42,185,32.4ZM105.65,204.74c-3.92-3.34-8.16-7-10.4-12.09-9.24-2.17-14.13-9.53-22.84-12.93l-3.81,2.75C66.37,182,66,179,64.49,177.85c-3.12,1.11,1.61,3.09-1.39,4.49-3.66.64-6.75-2.34-9.68-2.84a7.59,7.59,0,0,0,2.17,4c-1.36,2.1-4.57,3.41-6.11,4.22-1.06-.93-2.82-1.91-4.2-1.52-1.32,2.59,4.86,4,.44,6.46-1.62,2.7-3.67-1-5.35.66-1,2.47,1.92,1.77,2.43,3.43-.26,3.52-4.2,1.38-5.59,3,.68,1.25,2.17,1.16,3.2,1.59,2,5.16-4.9,1.33-4.63,5.3,2.28,4.35,5,11,8.77,16,1.44,5.2-7.23,6.88-6.74,12.64,2.72,3.31,2.61-2.77,5.62-2.48,10.59.08,19.68,1.47,27.55,8.63l-1.51,11.68c.09-.2,2.49-.16,2.47,1,2.32-5.56,1.5-11.69,4.36-16.77.45.66-1,1.76.34,2.07.15-2.11-.34-5,1.58-6.1,5.14,2.15,5.81-1.19,10.26,2.6,1.67-.51,1.24-2.38,2.38-3.36,1.37-.39,2.6.13,2.7,1.62,2.43.53,3.62-4,6-5,1-.07,2.4,0,3.13-1.12-.89-1.33-3.15-2.28-2.09-4.24.53-2.44,3.07-3.31,5-4.94l-2.19-2.84c-.1-1.5,1.6-1.51,1.91-2.83-1-1.13-1.87-2.47-2.84-3.6C102.22,207.16,103.85,206.15,105.65,204.74ZM187.21,0a3.19,3.19,0,0,0-.59,3.14C188,2.75,188.44.52,187.21,0ZM82.85,176.11c3.51,3.17,5.69-1.48,9.27-.22.37-2,3.57-.44,3.49-3.13,4.76-.42-.9-5.93,4-6.06-1.59-1.39-2.72-3.32-.83-4.94-3,.2-2.9-2.9-3.44-5.06-.77-1-2.37.46-3.39,0-1.65-.69-2.16-2.35-2.64-3.52C88,158,85,152.4,82.35,155.38c-6.71,2.75-4.46,9.48-5.76,13.77C81.45,170.21,77.81,175.46,82.85,176.11ZM60.09,105.25a2.29,2.29,0,0,0-2.48-2.73c-2.07.34-1,2.47-.93,4C57.65,107.61,59.49,106.69,60.09,105.25Zm-14.6-.31a6.51,6.51,0,0,0,5.59-3c-2.52-7.82,2.44-15.64,3.91-22-1.39-1.31-2.78.29-4.1,0-2.62-1.83,1.32-2.59.28-4.72-2-3.26-5.44-6.62-5.38-10.22-1.47-1.1-1.19,1.68-2.27,2C41.4,68,40.7,65,39,65c-3.66-1.05-.35-3.77-1.69-5.78-1.49.1-1,1.76-1.2,2.88C33,58,27.42,65,24.15,59.54c-1.54.8-3.79,4.45-6,1.1-1.83,2.62-1.76,6.51-.77,9.34-2.08,3.24-6.82-.43-8.16,3.35-.4,1.53,2,4.46-.19,6.2-4.21-.31-5.64,3.68-9,5.41.38,2.57,4.6,0,5.58,2.82.78,1-.19,1.61-1.07,2-2.59,4.46,4.56,2.38,5.43,4.92-.07,1.9-2.76,2-3.85,3.46,8.59-4.38,4.88,7.35,9.27,10.15,2-.83,4.75-2.11,7.06-1.87,2.6.13,1.61,3.09,2.38,4.14.22-1.12,1.35-2.09,1.87-3.33,2.64.62.59,4.36,3.49,4.36C36.41,111,39.36,102.85,45.49,104.94Zm54.34,14.85c-1.37.4-1.08,3.17-2.9,2.9,1.8,1.47-.17,3.3,1,5,1.45,2.3,3.18,2.78,5.79,2.91,1.63-1,3.91-1.27,4.85-3.53,1.82-2.62-1.07-5.52-2.61-7.62C103.91,118.12,101.79,119.16,99.83,119.79Z"/></g></g></svg>