<svg xmlns="http://www.w3.org/2000/svg" viewBox="0 0 181.41 313.29"><defs><style>.cls-1{opacity:0.85;}.cls-2,.cls-3{fill:#2e3192;}.cls-3{opacity:0.3;}</style></defs><title>ink_s01</title><g id="レイヤー_2" data-name="レイヤー 2"><g id="Content"><g class="cls-1"><path class="cls-2" d="M71.16,66.27c-.63-.06-1.88.57-2.43-.33-2-.09-2.61-1.79-3.88-2.8.55-.53-.37-.73-.52-1.27-.27-.28-.85-.26-1-.66.24-.47.89.41,1-.36.17-1.37-1.65-1.44-2-2.48.85,0,1.44,1.24,2.28.62a4.63,4.63,0,0,0-.24-2.42c-.2.38-.54.87-1,.84-.28-.14-.16-.53,0-.67.38-.52.9-.61,1.28-.89a3,3,0,0,0-.33-2.47c-.3.16-.55-.18-.62-.43-.5-.92.65-1.77,0-2.71-.34-.7-1.07-.81-1.33-1.56a.75.75,0,0,1,.56-.53c1,.18.77,1.44,1.94,1.28.3-.16.15-.52.13-.8-.74-.28-.82-1.11-1.36-1.59.32.11.24-.24.33-.36,1.17.79,1.51,2.77,3,2.9.13-.21.13-.62.49-.53a1.37,1.37,0,0,0,.81.46c1.38-.78.88-2.65,1.83-3.76-.4,1.29.12,3,.2,4,0-1,1-1.89,1.31-2.38a9.91,9.91,0,0,1-.79,3.41,8.87,8.87,0,0,0,3.21,2.36c.69-.1,1.1-1.4,1.93-.83,0,.74-1.21.53-1.55,1.26,0,.55-.6,1-.35,1.61.14-.05.48-.23.46.07,0,.48-.79,1-.12,1.27a1,1,0,0,0,.71,0c0,.2-.15.52-.19.78,1,.43.63-1,1.36-1.11-.84,2.21-.2,4.69-1.07,6.8C74.17,64.35,73.09,66.09,71.16,66.27Z"/><polygon class="cls-3" points="69.4 64.68 69.41 64.85 69.34 64.84 69.4 64.68"/><path class="cls-2" d="M88.17,47.74A1.32,1.32,0,0,1,87.72,46a1.94,1.94,0,0,1,1.69-.83c.63.13.32.83.63,1.18C90.13,47.36,88.92,48,88.17,47.74Z"/><polygon class="cls-3" points="68.58 62.45 68.68 62.74 68.67 62.57 68.58 62.45"/><polygon class="cls-3" points="67.4 63.33 67.62 63.46 67.48 63.44 67.4 63.33"/><polygon class="cls-3" points="67.17 62.14 67.08 62.26 66.96 62.17 67.17 62.14"/><polygon class="cls-3" points="66.71 61.83 66.86 61.95 66.79 61.94 66.71 61.83"/><polygon class="cls-3" points="65.66 61.84 65.89 62.08 65.77 61.99 65.66 61.84"/><polygon class="cls-3" points="67.14 60.81 67.36 60.88 67.34 60.84 67.14 60.81"/><path class="cls-2" d="M83.34,48.7a8.76,8.76,0,0,1-2.51,1.56c-.35-.16-.21-.44-.07-.66,1-.28,1.8-1.39,2.83-1.43C83.7,48.32,83.75,48.94,83.34,48.7Z"/><polygon class="cls-3" points="65.29 61.99 65.42 62.07 65.35 62.06 65.29 61.99"/><path class="cls-3" d="M82.1,49.26c-.16.18-.06-.07-.19-.09.44.26.14-.22.49-.3l-.05.56C82.3,49.29,82.2,49.31,82.1,49.26Z"/><path class="cls-3" d="M82.68,49l-.13-.26c.36-.14,0,.37.27.22C82.8,48.93,82.72,49,82.68,49Z"/><path class="cls-3" d="M81.45,49.74c0-.14-.2-.27-.11-.39C81.39,49.49,81.57,49.66,81.45,49.74Z"/><path class="cls-3" d="M73.18,54.77c0-.18.06-.17.11,0S73.22,54.74,73.18,54.77Z"/><path class="cls-3" d="M65.21,60.11a.4.4,0,0,1,.41-.08C65.57,60.37,65.36,60.23,65.21,60.11Z"/><rect class="cls-3" x="74.19" y="53.43" width="0.09" height="0.24" transform="translate(-17.29 54.43) rotate(-36.36)"/><path class="cls-3" d="M72.56,53.28l-.08-.35.36.32S72.65,53.16,72.56,53.28Z"/><path class="cls-2" d="M119.74,13.19c-.85-.2-1-1.11-1.52-1.59.82-.32.2-1.09.75-1.62a13.11,13.11,0,0,0-.68-3.8c.46-.1.46,1,1.22,1.17.94.24,1.29-.72,1.75-1.23.28-.74.22-1.7,1-2-1.13,2.07,1.23,3.75.48,5.78-.41,1.12-.26,2.84-1.76,3.13C120.6,13.56,120.18,13.22,119.74,13.19Z"/><path class="cls-3" d="M69.9,50c-.19-.1.16.06.19.1Z"/><path class="cls-2" d="M73.65,47.23c.11-.25-.37-.5-.15-.84C73.22,46.72,73.93,47,73.65,47.23Z"/><path class="cls-3" d="M70.66,49.25c-.06-.24.24-.23.23-.4C71.05,48.91,70.86,49.28,70.66,49.25Z"/><path class="cls-2" d="M73.87,46.89l0-.27Z"/><path class="cls-2" d="M112.85,17a13.32,13.32,0,0,1-5.41-.14c-.08-.35-.72-.42-.29-.79.26-.37.72-.23,1-.35a31.09,31.09,0,0,0,5.07.39c.43,0,1.15-.2,1.24.56C114.46,17.55,113.27,17.13,112.85,17Z"/><path class="cls-2" d="M74,46.44l-.11-.22Z"/><path class="cls-2" d="M73.62,45.83l.06.32C73.73,46.05,73.6,46,73.62,45.83Z"/><path class="cls-2" d="M73.71,45.71l.1-.19a.29.29,0,0,1,.18.34C73.9,46.05,73.83,45.8,73.71,45.71Z"/><path class="cls-2" d="M92.49,26.23c-.78-.43-.54-1.55-1.22-2a3.31,3.31,0,0,1,.35-2.09c.84,0,.48-1.59,1.51-1,.13-.39.75-.9.26-1.25-.9.07-1.83-.72-2.67-.1-.23-.07,0-.38,0-.61-.18-.57-.92-.14-1.27-.29l.07-.7-.63-.13c0-.31.36-.8-.08-1-.51-.45-.88.41-1.2-.18.15-.29.67-.14.85-.45a1.35,1.35,0,0,0-1-1.44c.14-.29.46-.34.67-.62-.06-.48.07-1.11-.51-1.33,0-.5.52-.09.69-.33-.54-.43.42-1.2-.42-1.46.44-.21.51.45.94.31,2.16-.59,1.23-3,3-3.72.45.85,1.81.85,2,1.89.85.44,1.22-.42,1.64-.73.45.2.69.85,1,1,.19-.86,1.33-.51,1.5-1.41-.95,1.52-.43,3.91-1.56,5.57.07.42-.31,1.18.37,1.38a2.77,2.77,0,0,0,2-.06c.72-.06.5.75,1.19.65-.27.67-1.32,0-1.67.7-.59-.09-1.28-.47-1.94-.16-1,.43-1.21,1.48-2,2a8.48,8.48,0,0,0-.64,2.65c1.2.36.8-1.64,2-1.79a.52.52,0,0,1,.62.6c-.14.69-1.16,1.63-.16,2.18.3.26,1.08.27.82.88a3.33,3.33,0,0,1-2.16,3A5.44,5.44,0,0,1,92.49,26.23Z"/><path class="cls-2" d="M104.52,16.14c.7-.1.08.35.26.51C104.55,16.58,104.22,16.36,104.52,16.14Z"/><path class="cls-2" d="M85.3,25.1a1.43,1.43,0,0,1-.33-.94c.09-.42.15-.82.53-1a1.27,1.27,0,0,1,.8.94c0,.37,0,.58-.19.86A.69.69,0,0,1,85.3,25.1Z"/><path class="cls-3" d="M85.78,24.63c-.09.12-.24,0-.22-.14l0,0,.13-.22c-.1.43.38.2.44,0C86.09,24.57,86.06,24.77,85.78,24.63Z"/><path class="cls-2" d="M63.37,40.47c-1.45-.28-1.63-2-2.47-2.95,1-.74.1-2,.62-3,.21.2.11.63.24.89l-.33,0c.25.17,0,.34.26.51h-.06c.1.22-.23.82.25.58,0,.38-.34.66-.66,1,.75,0,0,.6.73.34,0,.37-.42-.16-.38.29a3.16,3.16,0,0,0,1.57,2c0-.24-.42-.41-.21-.68.31.66.89-.48,1.23.22.24-.47.1-.66.14-1.17-.51-.21-.49.54-.93.34.19-.62-.68-.45-.31-1.14-.09.6.23.55.46,1,0-.51.6-.38.55-.69l-.45,0c.43-.14-.07-.66-.08-1.06h.07c.1-.19-.14-.2-.2-.27h.31c.17-1.13-1.25-1.38-.93-2.38.47.24.24,1.12,1,1,.9,1.23,1.63,2.63,1.11,4.08C64.79,40.08,63.83,40.13,63.37,40.47Z"/><rect class="cls-3" x="85.44" y="24.04" width="0.1" height="0.24" transform="translate(2.32 55.38) rotate(-36.36)"/><path class="cls-3" d="M63.88,39.57c-.06.16.3,0,.1.21Z"/><path class="cls-2" d="M63.18,39.26c-.22-.14.09-.13,0-.37.06.31.38.19.53.31C63.51,39.13,63.35,39,63.18,39.26Z"/><path class="cls-2" d="M63.6,39l-.15-.13Z"/><path class="cls-3" d="M64.45,38.09c0-.33-.31,0,.06-.23C64.43,38,64.65,38.05,64.45,38.09Z"/><path class="cls-2" d="M63,39.05a.3.3,0,0,1-.07-.18C63,38.92,63.12,39,63,39.05Z"/><path class="cls-2" d="M62.33,39.06c.4.06,0-.34.12-.32.15.29.34.15.23.47S62.47,39,62.33,39.06Z"/><rect class="cls-2" x="63.33" y="37.71" width="0.05" height="0.43" transform="matrix(0.81, -0.59, 0.59, 0.81, -10.15, 44.93)"/><path class="cls-3" d="M63.75,37.3c.1,0,0,.17,0,.24S63.84,37.35,63.75,37.3Z"/><path class="cls-3" d="M64,37.11c.06-.16.13,0,.16.06S64,37.17,64,37.11Z"/><polygon class="cls-2" points="62.16 38.35 62.23 38.6 61.97 38.49 62.16 38.35"/><polygon class="cls-2" points="55.7 42.94 55.76 43.19 55.64 43.27 55.7 42.94"/><path class="cls-2" d="M63.21,37.53c0-.24.06-.23.25-.13C63.33,37.38,63.28,37.47,63.21,37.53Z"/><path class="cls-2" d="M77,26.49a2.62,2.62,0,0,1,0-3,3.36,3.36,0,0,1,2,1.19,1.85,1.85,0,0,1-.28,1.38C78.15,26.52,77.6,27.05,77,26.49Z"/><path class="cls-2" d="M64.6,34.62c-1-1.08-.33-2.3-.28-3.51.25-.06.66.1.72-.3a2.66,2.66,0,0,0,2.26.75A1.42,1.42,0,0,1,67.86,33c.09,1.24-1.45.36-1.33,1.63A1.32,1.32,0,0,1,64.6,34.62Z"/><path class="cls-2" d="M62.64,36.76l-.21-.13Z"/><path class="cls-2" d="M61.72,37.27l-.18.07Z"/><path class="cls-3" d="M66.35,33.63c-.19-.1-.18.07-.17.17-.36-.49-.47-1.83-1-1.44l.23.31c-.3-.08-.66.3-.94.09l.39-.28,0,.27c.25.1.24-.3.42-.31,0-.45-.58-.46-.18-.88.26.11.22.37.52.39-.17-.4.06-.16.27-.44l0,.27s-.06,0-.09-.05c-.16.35.42.57.12,1,.32-.29.61.43.89.64-.29-.31-.49.07-.4.42A.09.09,0,0,1,66.35,33.63Z"/><path class="cls-3" d="M67,32.7c0-.13.23-.17.22-.34C67.48,32.2,67,32.7,67,32.7Z"/><polygon class="cls-2" points="63.19 35.42 63.04 35.7 63.01 35.49 63.19 35.42"/><polygon class="cls-2" points="54.63 41.66 54.78 41.78 54.69 41.73 54.63 41.66"/><path class="cls-3" d="M65.79,33a3.25,3.25,0,0,0,.34-.19l-.08.06.27.21C66.09,33.28,65.85,32.87,65.79,33Z"/><path class="cls-3" d="M66.61,32.78l-.36-.32Z"/><path class="cls-3" d="M65.41,33.31c.26,0,.08-.05.21.2Z"/><path class="cls-3" d="M77.72,24.25c.08-.05,0-.09.09-.12l.17.23C77.88,24.31,77.78,24.33,77.72,24.25Z"/><path class="cls-3" d="M65.32,33.67l0-.27Z"/><path class="cls-3" d="M66.67,32.38c.12-.08.09-.12,0-.14.15-.05.18.16.25.17Z"/><polygon class="cls-3" points="64.87 33.54 65.06 33.63 64.98 33.69 64.87 33.54"/><polygon class="cls-2" points="71.8 28.38 71.83 28.59 71.73 28.6 71.8 28.38"/><polygon class="cls-3" points="65.11 33.23 65.17 33.31 64.98 33.45 65.11 33.23"/><polygon class="cls-2" points="71.14 28.45 71.3 28.74 71.25 28.6 71.14 28.45"/><path class="cls-2" d="M62.31,35.18l.1-.42C62.38,34.89,62.64,35.23,62.31,35.18Z"/><path class="cls-2" d="M52.21,39.25l.14-.22C52.42,39.22,52.33,39.17,52.21,39.25Z"/><path class="cls-2" d="M91.21,3.89c-.65-.23-.83-1-1-1.57.29-1,.47-2.17,1.61-2.31A2.42,2.42,0,0,1,93,.2c.23.54,1.13,1.05.87,1.89C93.68,3.25,92.53,4.57,91.21,3.89Z"/><path class="cls-2" d="M70.76,18.41c-.69-.38-.5-1.17-.56-1.65.16-.59.53-1.28,1.19-1.35.33-.18.64,0,1,.18a1.76,1.76,0,0,1,.52,1.68A1.43,1.43,0,0,1,70.76,18.41Z"/></g><g class="cls-1"><path class="cls-2" d="M117.17,64.42c.29.56,1.49,1.25,1,2.19,1,1.66-.06,3.12-.21,4.72-.73-.18-.41.69-.76,1.11-.09.37.24.84,0,1.2-.52.06-.14-1-.82-.61-1.22.6-.3,2.14-1,3-.5-.68.24-1.85-.73-2.21a4.52,4.52,0,0,0-1.86,1.5c.42,0,1,0,1.22.36,0,.31-.36.41-.57.33a4.33,4.33,0,0,1-1.44-.58A2.93,2.93,0,0,0,110.24,77c.29.16.14.55,0,.74-.49.92-1.81.43-2.24,1.46-.4.66-.09,1.32-.57,1.94a.73.73,0,0,1-.74-.18c-.37-.88.78-1.41,0-2.29-.29-.16-.51.16-.73.33.17.76-.47,1.27-.58,2-.08-.33-.33-.07-.47-.08,0-1.39,1.47-2.75.76-4.06-.25,0-.59.23-.71-.11a1.3,1.3,0,0,0-.06-.92c-1.38-.72-2.66.71-4.09.52,1.29-.37,2.39-1.71,3.22-2.34-.82.59-2.08.22-2.67.2A9.8,9.8,0,0,1,104.58,73a8.82,8.82,0,0,0,.21-3.92c-.46-.52-1.74-.15-1.72-1.14.63-.36,1.08.7,1.87.6.43-.34,1.17-.07,1.52-.59-.12-.09-.45-.27-.2-.42s1.26.12,1.12-.58c-.07-.23-.2-.53-.38-.59.18-.09.51-.17.75-.28-.2-1.07-1.15,0-1.65-.51,2.28-.5,4-2.37,6.18-2.8C114,63,116,62.93,117.17,64.42Z"/><polygon class="cls-3" points="116.81 66.74 116.95 66.64 116.98 66.7 116.81 66.74"/><path class="cls-2" d="M92.69,60.41a1.3,1.3,0,0,1-1.19,1.31,2,2,0,0,1-1.6-.94c-.23-.59.52-.71.64-1.17A1.49,1.49,0,0,1,92.69,60.41Z"/><polygon class="cls-3" points="115.41 68.61 115.6 68.38 115.46 68.48 115.41 68.61"/><polygon class="cls-3" points="116.77 69.12 116.77 68.87 116.82 68.99 116.77 69.12"/><polygon class="cls-3" points="115.92 69.95 116.06 69.96 116.06 70.1 115.92 69.95"/><polygon class="cls-3" points="115.91 70.5 115.93 70.31 115.96 70.37 115.91 70.5"/><polygon class="cls-3" points="116.49 71.36 116.56 71.04 116.56 71.19 116.49 71.36"/><polygon class="cls-3" points="114.84 70.7 114.77 70.47 114.75 70.52 114.84 70.7"/><path class="cls-2" d="M96.09,63.88a8.48,8.48,0,0,1,2.64,1.23c.06.37-.25.4-.5.41-.79-.69-2.12-.74-2.72-1.56C95.58,63.78,96.07,63.42,96.09,63.88Z"/><polygon class="cls-3" points="116.81 71.58 116.81 71.43 116.84 71.49 116.81 71.58"/><path class="cls-3" d="M97.23,64.6c.23,0,0,.09,0,.2,0-.5-.25,0-.51-.23l.5-.27C97.14,64.42,97.21,64.49,97.23,64.6Z"/><path class="cls-3" d="M96.7,64.25l-.14.25c-.32-.22.32-.18,0-.34C96.57,64.2,96.66,64.24,96.7,64.25Z"/><path class="cls-3" d="M98,64.87c-.09.12-.11.31-.26.31C97.8,65.06,97.84,64.82,98,64.87Z"/><path class="cls-3" d="M106.59,69c-.14.1-.17,0-.08-.08S106.54,69,106.59,69Z"/><path class="cls-3" d="M115.3,72.67a.42.42,0,0,1-.28-.31C115.32,72.23,115.33,72.48,115.3,72.67Z"/><rect class="cls-3" x="104.9" y="68.72" width="0.23" height="0.09" transform="translate(3.95 143.22) rotate(-69.6)"/><path class="cls-3" d="M105.7,70.3l-.25.25.08-.47S105.55,70.29,105.7,70.3Z"/><path class="cls-2" d="M47.12,53.05c.3.81-.35,1.47-.49,2.12-.71-.51-1,.42-1.74.25A12.73,12.73,0,0,0,42.12,58c-.33-.33.59-.93.31-1.64-.31-.91-1.3-.68-2-.78-.76.17-1.52.74-2.14.26,2.31-.19,2.43-3.05,4.5-3.52,1.15-.27,2.49-1.32,3.54-.24C47,52.14,46.91,52.67,47.12,53.05Z"/><path class="cls-3" d="M104.42,74.27c0,.21,0-.17,0-.21Z"/><path class="cls-2" d="M100.12,72.67c-.27,0-.21.57-.61.57C99.93,73.3,99.75,72.58,100.12,72.67Z"/><path class="cls-3" d="M103.4,74c-.16.18-.32-.07-.46,0C102.91,73.9,103.32,73.86,103.4,74Z"/><path class="cls-2" d="M99.72,72.67l-.24.11Z"/><path class="cls-2" d="M54,56.69a13.1,13.1,0,0,1,2.8,4.55c-.24.25.05.81-.49.66s-.58-.46-.85-.67A30.54,30.54,0,0,0,53,56.84c-.21-.38-.78-.84-.2-1.33C53.57,55.05,53.87,56.26,54,56.69Z"/><path class="cls-2" d="M99.27,72.8l-.13.2Z"/><path class="cls-2" d="M99,73.44l.23-.21C99.11,73.24,99.1,73.39,99,73.44Z"/><path class="cls-2" d="M98.83,73.44l-.21,0a.3.3,0,0,1,.18-.34C99,73.1,98.84,73.29,98.83,73.44Z"/><path class="cls-2" d="M72.6,68.48c.08.87-1,1.28-1,2.08a3.25,3.25,0,0,1-1.91.84c-.44-.71-1.57.46-1.64-.71-.39.11-1.15-.13-1.17.46.54.7.4,1.9,1.36,2.26.07.22-.29.24-.51.31-.38.46.38.84.44,1.21l-.61.32.23.59c-.26.15-.85.13-.78.61-.1.66.81.5.5,1.08-.32,0-.48-.47-.83-.46a1.35,1.35,0,0,0-.65,1.61c-.31,0-.53-.2-.87-.22-.36.31-1,.54-.82,1.14-.44.24-.36-.38-.65-.39-.06.68-1.21.3-1,1.14-.4-.26.1-.67-.25-.95-1.65-1.46-3.11.59-4.68-.44.46-.83-.27-1.95.5-2.66-.11-.94-1-.78-1.5-1-.07-.48.33-1,.27-1.4-.81.3-1.14-.82-2-.48,1.77,0,3.46-1.76,5.44-1.72.31-.29,1.14-.38.94-1a2.79,2.79,0,0,0-1.14-1.63c-.44-.56.35-.82-.11-1.33.7-.14.69,1.1,1.48,1,.25.55.31,1.32.92,1.7.88.57,1.87.19,2.75.52A8.27,8.27,0,0,0,67.93,70c-.36-1.18-1.79.24-2.59-.71a.52.52,0,0,1,.17-.84c.64-.25,2,.09,1.88-1,0-.39-.36-1,.28-1.15a3.27,3.27,0,0,1,3.64.16A5.05,5.05,0,0,1,72.6,68.48Z"/><path class="cls-2" d="M57.78,64c-.46-.52.25-.26.28-.49C58.13,63.74,58.13,64.14,57.78,64Z"/><path class="cls-2" d="M75.56,75a1.38,1.38,0,0,1-.59.78c-.4.15-.76.32-1.14.13a1.26,1.26,0,0,1,.34-1.18,1.29,1.29,0,0,1,.81-.3A.66.66,0,0,1,75.56,75Z"/><path class="cls-3" d="M74.92,74.88c.14,0,.12.2,0,.25l0,0h-.25c.4-.15,0-.42-.21-.38C74.7,74.65,74.88,74.57,74.92,74.88Z"/><path class="cls-2" d="M100.1,84.8c.55,1.35-.75,2.42-1.1,3.64-1.14-.43-1.72,1-2.81,1.1,0-.28.46-.43.6-.68l.14.3c0-.29.27-.19.28-.49l0,.06c.13-.2.79-.25.34-.52.29-.24.73-.08,1.14,0-.42-.6.52-.3-.1-.78.32-.19.09.43.44.16a3.06,3.06,0,0,0,.77-2.36c-.19.13-.1.56-.44.53.37-.61-.88-.47-.48-1.13-.52.06-.61.28-1,.52.1.53.7.11.78.59-.62.17,0,.8-.77.86.54-.25.32-.48.59-.93-.41.3-.64-.29-.87-.07l.27.35c-.35-.28-.5.41-.84.63l0-.06c-.2,0-.08.22-.11.31l-.15-.26c-1,.47-.47,1.78-1.47,2.06,0-.52.8-.8.32-1.38.52-1.41,1.28-2.77,2.76-3.12C99,83.84,99.57,84.6,100.1,84.8Z"/><rect class="cls-3" x="74.57" y="75.32" width="0.23" height="0.09" transform="translate(-21.99 119.09) rotate(-69.6)"/><path class="cls-3" d="M99.08,84.87c.16,0-.16-.26.12-.21Z"/><path class="cls-2" d="M99.2,85.61c0,.25-.15,0-.32.18.23-.21,0-.41,0-.6C98.92,85.41,98.9,85.6,99.2,85.61Z"/><path class="cls-2" d="M98.72,85.43l0,.19Z"/><path class="cls-3" d="M97.55,85.2c-.3.14.16.26-.22.07C97.48,85.27,97.41,85.05,97.55,85.2Z"/><path class="cls-2" d="M99.15,85.89a.29.29,0,0,1-.11.16C99,86,99,85.8,99.15,85.89Z"/><path class="cls-2" d="M99.5,86.42c-.17-.36-.28.2-.33.08.16-.29-.06-.37.27-.45S99.38,86.33,99.5,86.42Z"/><rect class="cls-2" x="97.8" y="86.17" width="0.42" height="0.05" transform="translate(-16.95 148) rotate(-69.6)"/><path class="cls-3" d="M97.28,86.2c-.07-.08.14-.1.2-.13S97.27,86.1,97.28,86.2Z"/><path class="cls-3" d="M97,86.08c-.17,0-.06-.12,0-.16S97,86.06,97,86.08Z"/><polygon class="cls-2" points="99.01 86.94 99.17 86.75 99.23 87.02 99.01 86.94"/><polygon class="cls-2" points="106.29 89.8 106.45 89.61 106.59 89.66 106.29 89.8"/><path class="cls-2" d="M97.76,86.53c-.2.12-.22.06-.25-.15C97.57,86.5,97.67,86.49,97.76,86.53Z"/><path class="cls-2" d="M81.19,81.11a2.55,2.55,0,0,1-2.44,1.59,3.32,3.32,0,0,1-.1-2.28,1.81,1.81,0,0,1,1.29-.52C80.6,80.14,81.34,80.32,81.19,81.11Z"/><path class="cls-2" d="M94.61,87c-.34,1.43-1.72,1.51-2.74,2.13-.19-.17-.28-.6-.64-.44a2.65,2.65,0,0,0-.6-2.27,1.4,1.4,0,0,1,.91-1.26c1-.73,1.08,1,2.07.22A1.3,1.3,0,0,1,94.61,87Z"/><path class="cls-2" d="M97.43,87.4v0Z"/><path class="cls-2" d="M98.35,87.89l.16.11Z"/><path class="cls-3" d="M92.84,86.05c0,.2.16.1.24,0-.21.57-1.26,1.38-.65,1.61l.13-.35c.1.28.61.38.59.72l-.44-.17.24-.11c0-.27-.39,0-.49-.18-.35.27-.06.73-.62.62,0-.27.19-.38,0-.64-.23.37-.16,0-.5,0l.24-.11s0,.05,0,.1c.37-.06.25-.66.73-.63-.41-.1,0-.74.06-1.08-.11.41.31.37.55.11A.1.1,0,0,1,92.84,86.05Z"/><path class="cls-3" d="M91.75,86c-.12,0-.27-.1-.4,0C91.06,85.88,91.75,86,91.75,86Z"/><polygon class="cls-2" points="96.03 87.68 96.34 87.65 96.19 87.79 96.03 87.68"/><polygon class="cls-2" points="105.8 91.37 105.82 91.17 105.83 91.28 105.8 91.37"/><path class="cls-3" d="M92.65,86.82c-.08,0-.2-.12-.33-.17l.09,0,0-.34C92.7,86.44,92.49,86.86,92.65,86.82Z"/><path class="cls-3" d="M92,86.28l-.08.48Z"/><path class="cls-3" d="M93.09,87c-.11-.24-.08,0,.06-.28Z"/><path class="cls-3" d="M79,81.73c-.09,0-.1,0-.15,0l.1-.27C78.92,81.57,79,81.64,79,81.73Z"/><path class="cls-3" d="M93.44,86.87l-.22.17Z"/><path class="cls-3" d="M91.64,86.45c-.13,0-.14,0-.09.11-.11-.09,0-.23,0-.29Z"/><polygon class="cls-3" points="93.57 87.31 93.55 87.11 93.64 87.14 93.57 87.31"/><polygon class="cls-2" points="85.57 84.39 85.72 84.25 85.79 84.32 85.57 84.39"/><polygon class="cls-3" points="93.19 87.27 93.22 87.18 93.44 87.27 93.19 87.27"/><polygon class="cls-2" points="85.98 84.89 86.14 84.6 86.05 84.72 85.98 84.89"/><path class="cls-2" d="M96.31,88.54l-.4.14C96,88.63,96.18,88.24,96.31,88.54Z"/><path class="cls-2" d="M105.13,94.66h-.26C105,94.51,105,94.61,105.13,94.66Z"/><path class="cls-2" d="M54.88,81.61c.15.66-.42,1.25-.77,1.67-1,.29-2,.79-2.77-.08a2.33,2.33,0,0,1-.49-1.09c.32-.47.26-1.5,1.09-1.74C53,79.92,54.72,80.16,54.88,81.61Z"/><path class="cls-2" d="M77.9,90.63c.06.77-.69,1-1.05,1.36a1.63,1.63,0,0,1-1.76-.26c-.33-.17-.35-.53-.37-.88a1.72,1.72,0,0,1,1.1-1.34A1.4,1.4,0,0,1,77.9,90.63Z"/></g><g class="cls-1"><path class="cls-2" d="M181.36,132.3c-.08.47.33,1.42-.36,1.79-.16,1.45-1.44,1.86-2.25,2.76-.37-.43-.56.24-1,.33-.22.19-.24.62-.54.73-.34-.2.34-.64-.23-.74-1-.19-1.14,1.16-1.92,1.38,0-.64,1-1,.56-1.67a3.51,3.51,0,0,0-1.81.07c.27.16.62.44.58.77s-.4.09-.5-.06c-.37-.31-.41-.7-.6-1a2.23,2.23,0,0,0-1.85.15c.11.22-.16.4-.35.43-.7.34-1.28-.55-2-.12-.53.22-.65.76-1.22.91-.18-.09-.36-.23-.36-.43.17-.7,1.1-.51,1-1.39-.1-.23-.38-.13-.58-.12-.25.53-.86.55-1.25.93.1-.23-.17-.19-.25-.26.64-.83,2.13-1,2.29-2.11-.16-.11-.46-.13-.38-.39a1,1,0,0,0,.38-.58c-.51-1.06-1.93-.77-2.71-1.53a8.2,8.2,0,0,0,3,0c-.76,0-1.36-.8-1.71-1.08a7.21,7.21,0,0,1,2.5.74,6.61,6.61,0,0,0,1.89-2.28c0-.52-1-.87-.53-1.46.55.06.34.91.87,1.2.41,0,.74.49,1.18.33,0-.11-.15-.36.07-.34s.71.63.94.15a.77.77,0,0,0,0-.53c.14,0,.38.13.57.17.37-.74-.71-.51-.77-1.06,1.61.73,3.48.36,5,1.1C180.06,130,181.31,130.86,181.36,132.3Z"/><polygon class="cls-3" points="180.1 133.54 180.22 133.54 180.21 133.59 180.1 133.54"/><path class="cls-2" d="M168.34,118.85a1,1,0,0,1-1.3.26,1.45,1.45,0,0,1-.55-1.29c.13-.46.63-.2.91-.42A1.11,1.11,0,0,1,168.34,118.85Z"/><polygon class="cls-3" points="178.41 134.04 178.62 133.99 178.49 133.99 178.41 134.04"/><polygon class="cls-3" points="179 134.96 179.11 134.81 179.09 134.91 179 134.96"/><polygon class="cls-3" points="178.11 135.08 178.19 135.15 178.13 135.24 178.11 135.08"/><polygon class="cls-3" points="177.86 135.41 177.96 135.3 177.95 135.35 177.86 135.41"/><polygon class="cls-3" points="177.82 136.19 178.01 136.03 177.94 136.12 177.82 136.19"/><polygon class="cls-3" points="177.12 135.05 177.18 134.88 177.15 134.9 177.12 135.05"/><path class="cls-2" d="M168.84,122.48a6.57,6.57,0,0,1,1,1.93c-.13.26-.34.14-.49,0-.17-.78-1-1.41-.94-2.17C168.58,122.19,169,122.19,168.84,122.48Z"/><polygon class="cls-3" points="177.91 136.47 177.98 136.38 177.97 136.43 177.91 136.47"/><path class="cls-3" d="M169.21,123.43c.12.13-.06,0-.08.13.21-.31-.16-.11-.21-.37l.42.06C169.24,123.28,169.25,123.36,169.21,123.43Z"/><path class="cls-3" d="M169,123l-.19.09c-.1-.28.27,0,.17-.2C169,122.89,169,123,169,123Z"/><path class="cls-3" d="M169.53,123.93c-.11,0-.21.13-.29.06C169.35,124,169.47,123.84,169.53,123.93Z"/><path class="cls-3" d="M172.9,130.29c-.13,0-.12,0,0-.08S172.88,130.26,172.9,130.29Z"/><path class="cls-3" d="M176.51,136.45a.34.34,0,0,1,0-.31C176.72,136.19,176.61,136.34,176.51,136.45Z"/><rect class="cls-3" x="171.95" y="129.42" width="0.18" height="0.07" transform="matrix(0.84, -0.54, 0.54, 0.84, -42.74, 114.42)"/><path class="cls-3" d="M171.77,130.69l-.27,0,.26-.25S171.68,130.62,171.77,130.69Z"/><path class="cls-2" d="M144.08,93.88c-.19.63-.88.74-1.25,1.07-.2-.63-.8-.2-1.17-.64a10,10,0,0,0-2.86.34c-.05-.34.78-.3.93-.85s-.48-1-.84-1.35c-.53-.25-1.25-.25-1.41-.82,1.49.93,2.84-.74,4.31-.1.82.36,2.11.32,2.25,1.45C144.39,93.26,144.12,93.56,144.08,93.88Z"/><path class="cls-3" d="M169.21,132.52c-.08.13,0-.12.08-.14Z"/><path class="cls-2" d="M167.32,129.61c-.18-.09-.38.25-.62.07C166.93,129.91,167.14,129.4,167.32,129.61Z"/><path class="cls-3" d="M168.7,131.92c-.19,0-.17-.19-.3-.19C168.45,131.62,168.73,131.78,168.7,131.92Z"/><path class="cls-2" d="M167.08,129.43l-.19,0Z"/><path class="cls-2" d="M146.57,99.17a9.86,9.86,0,0,1-.34,4c-.27,0-.34.51-.6.18s-.14-.54-.22-.79a23,23,0,0,0,.52-3.74c0-.33-.09-.87.47-.9S146.72,98.86,146.57,99.17Z"/><path class="cls-2" d="M166.75,129.31l-.17.07Z"/><path class="cls-2" d="M166.29,129.57l.23,0C166.45,129.5,166.38,129.59,166.29,129.57Z"/><path class="cls-2" d="M166.2,129.5l-.14-.08a.2.2,0,0,1,.26-.12C166.45,129.38,166.27,129.41,166.2,129.5Z"/><path class="cls-2" d="M152.56,114.69c-.35.56-1.17.34-1.53.82a2.47,2.47,0,0,1-1.54-.35c.06-.63-1.16-.43-.67-1.16-.28-.11-.63-.6-.91-.25,0,.67-.62,1.32-.2,2-.06.16-.28,0-.45,0-.43.11-.14.68-.27.94l-.52-.09-.12.46c-.23,0-.58-.3-.75,0-.36.36.27.67-.19.88-.2-.12-.07-.5-.29-.65a1,1,0,0,0-1.12.68c-.2-.12-.23-.35-.42-.52-.36,0-.82-.1-1,.32-.38-.06,0-.4-.22-.53-.34.38-.87-.37-1.1.25-.14-.34.35-.36.27-.69-.34-1.63-2.15-1-2.63-2.37.65-.3.71-1.31,1.49-1.39.36-.62-.26-.93-.47-1.25.17-.32.66-.47.79-.73-.62-.18-.32-1-1-1.18,1.08.77,2.88.49,4.06,1.41.32,0,.86.28,1.05-.21a2.1,2.1,0,0,0,0-1.5c0-.54.59-.34.54-.86.49.23-.08,1,.45,1.27-.1.44-.41.94-.21,1.44.28.75,1,1,1.43,1.56a6.43,6.43,0,0,0,1.95.59c.31-.88-1.19-.66-1.25-1.59,0-.29.21-.52.48-.44.51.14,1.15.94,1.61.22.2-.22.25-.79.68-.57a2.46,2.46,0,0,1,2.14,1.73A4,4,0,0,1,152.56,114.69Z"/><path class="cls-2" d="M145.59,105.31c0-.51.27,0,.4-.17C145.93,105.31,145.75,105.55,145.59,105.31Z"/><path class="cls-2" d="M151.4,120a1.15,1.15,0,0,1-.71.2c-.31-.09-.6-.15-.75-.44a1,1,0,0,1,.74-.56.92.92,0,0,1,.62.19A.49.49,0,0,1,151.4,120Z"/><path class="cls-3" d="M151.07,119.61c.09.07,0,.18-.11.15l0,0-.15-.1c.31.09.16-.28,0-.33C151.05,119.37,151.19,119.4,151.07,119.61Z"/><path class="cls-2" d="M161.85,137c-.28,1.06-1.54,1.12-2.3,1.7-.5-.77-1.5-.16-2.2-.59.16-.15.47-.06.67-.14l-.05.24c.14-.17.25,0,.39-.17v0c.17-.07.6.2.44-.16.29,0,.48.28.68.53,0-.56.45,0,.29-.53.28,0-.14.3.2.3a2.35,2.35,0,0,0,1.53-1.08c-.18,0-.32.29-.51.12.5-.2-.32-.68.21-.9-.34-.2-.48-.1-.86-.16-.18.37.38.39.21.71-.45-.17-.36.49-.85.18.43.09.41-.14.77-.3-.38,0-.26-.46-.49-.43v.33c-.09-.32-.5,0-.8,0v0c-.13-.08-.15.1-.21.14l0-.23c-.83-.18-1.08.87-1.81.58.2-.34.84-.12.81-.69a3.27,3.27,0,0,1,3.07-.65C161.62,135.88,161.62,136.59,161.85,137Z"/><rect class="cls-3" x="150.62" y="119.76" width="0.18" height="0.07" transform="translate(-40.92 101.27) rotate(-32.96)"/><path class="cls-3" d="M161.2,136.53c.12.05,0-.23.17-.07Z"/><path class="cls-2" d="M160.94,137c-.11.16-.09-.07-.27,0,.23,0,.16-.27.26-.38C160.86,136.79,160.76,136.9,160.94,137Z"/><path class="cls-2" d="M160.73,136.71l-.1.1Z"/><path class="cls-3" d="M160.13,136c-.24,0,0,.23-.17-.06C160.05,136.05,160.11,135.89,160.13,136Z"/><path class="cls-2" d="M160.78,137.18a.22.22,0,0,1-.14,0C160.68,137.16,160.75,137.07,160.78,137.18Z"/><path class="cls-2" d="M160.76,137.66c.06-.29-.26,0-.24-.1.23-.11.13-.26.37-.15S160.73,137.55,160.76,137.66Z"/><rect class="cls-2" x="159.8" y="136.83" width="0.32" height="0.04" transform="translate(-48.71 109.04) rotate(-32.96)"/><path class="cls-3" d="M159.52,136.53c0-.08.12,0,.17,0S159.56,136.46,159.52,136.53Z"/><path class="cls-3" d="M159.38,136.32c-.11,0,0-.1.05-.12S159.43,136.33,159.38,136.32Z"/><polygon class="cls-2" points="160.23 137.75 160.41 137.71 160.32 137.9 160.23 137.75"/><polygon class="cls-2" points="163.34 142.76 163.53 142.72 163.59 142.81 163.34 142.76"/><path class="cls-2" d="M159.66,136.94c-.18,0-.17-.06-.09-.2C159.55,136.84,159.62,136.88,159.66,136.94Z"/><path class="cls-2" d="M152.07,126.2a2,2,0,0,1-2.2-.13,2.53,2.53,0,0,1,1-1.43,1.42,1.42,0,0,1,1,.27C152.15,125.35,152.51,125.79,152.07,126.2Z"/><path class="cls-2" d="M157.56,135.78c-.85.71-1.72.14-2.62.05,0-.19.1-.49-.19-.55a2,2,0,0,0,.66-1.65,1.07,1.07,0,0,1,1.12-.35c.92,0,.2,1.09,1.15,1.07A1,1,0,0,1,157.56,135.78Z"/><path class="cls-2" d="M159.07,137.32l-.11.16Z"/><path class="cls-2" d="M159.4,138l0,.14Z"/><path class="cls-3" d="M156.9,134.44c-.08.13,0,.13.12.12-.38.25-1.38.27-1.11.69l.24-.16c-.08.22.19.5,0,.7l-.2-.3.2,0c.09-.18-.21-.19-.21-.32-.34,0-.37.4-.66.09.09-.19.29-.15.31-.37-.31.11-.12-.05-.31-.22l.19,0s0,.05,0,.07c.26.13.45-.29.73,0-.2-.25.35-.44.52-.63-.25.2,0,.36.29.32A.08.08,0,0,1,156.9,134.44Z"/><path class="cls-3" d="M156.24,133.94c-.1,0-.12-.18-.24-.18C155.89,133.53,156.24,133.94,156.24,133.94Z"/><polygon class="cls-2" points="158.09 136.86 158.29 136.98 158.14 137 158.09 136.86"/><polygon class="cls-2" points="162.35 143.49 162.44 143.38 162.41 143.45 162.35 143.49"/><path class="cls-3" d="M156.43,134.82a2.72,2.72,0,0,0-.12-.25l0,.05.17-.19C156.63,134.61,156.32,134.77,156.43,134.82Z"/><path class="cls-3" d="M156.28,134.2l-.25.25Z"/><path class="cls-3" d="M156.63,135.12c0-.2,0-.06.15-.15Z"/><path class="cls-3" d="M150.44,125.58c0-.06-.07,0-.09-.07l.18-.12C150.49,125.46,150.5,125.54,150.44,125.58Z"/><path class="cls-3" d="M156.89,135.2h0Z"/><path class="cls-3" d="M156,134.14c-.06-.09-.09-.07-.11,0,0-.11.13-.13.14-.18Z"/><polygon class="cls-3" points="156.77 135.53 156.85 135.39 156.88 135.46 156.77 135.53"/><polygon class="cls-2" points="153.24 130.16 153.4 130.14 153.41 130.22 153.24 130.16"/><polygon class="cls-3" points="156.55 135.33 156.61 135.29 156.71 135.44 156.55 135.33"/><polygon class="cls-2" points="153.26 130.65 153.49 130.54 153.38 130.57 153.26 130.65"/><path class="cls-2" d="M157.88,137.5l-.31-.09C157.66,137.43,157.93,137.26,157.88,137.5Z"/><path class="cls-2" d="M160.45,145.18l-.15-.11C160.44,145,160.4,145.09,160.45,145.18Z"/><path class="cls-2" d="M135.91,114.66c-.2.47-.81.57-1.21.66-.71-.25-1.59-.44-1.64-1.29a1.92,1.92,0,0,1,.19-.88c.41-.14.83-.79,1.45-.56C135.55,112.8,136.47,113.71,135.91,114.66Z"/><path class="cls-2" d="M145.79,130.48c-.31.5-.88.32-1.25.35-.43-.14-.92-.45-.95-.94-.12-.26,0-.48.18-.71a1.31,1.31,0,0,1,1.27-.31A1.05,1.05,0,0,1,145.79,130.48Z"/></g><g class="cls-1"><path class="cls-2" d="M114.26,180.28c-.26.45-.23,1.6-1.09,1.69-.75,1.42-2.23,1.32-3.42,1.91-.2-.59-.67,0-1.12,0-.3.1-.49.53-.85.52-.27-.34.61-.52.07-.84-.95-.61-1.64.72-2.53.62.27-.65,1.42-.64,1.25-1.48a3.85,3.85,0,0,0-1.88-.66c.22.28.46.71.29,1-.21.16-.45-.07-.49-.26a3.65,3.65,0,0,1-.22-1.27,2.45,2.45,0,0,0-1.94-.6c0,.27-.33.34-.53.3-.86.06-1.09-1.09-2-.94-.63,0-1,.51-1.61.44a.61.61,0,0,1-.2-.6c.47-.64,1.33-.06,1.63-1,0-.28-.34-.29-.55-.37-.47.45-1.11.22-1.66.45.2-.2-.09-.26-.15-.37,1-.59,2.58-.16,3.2-1.23-.11-.18-.42-.31-.23-.55a1.15,1.15,0,0,0,.63-.44c-.1-1.29-1.66-1.57-2.16-2.66a9.34,9.34,0,0,0,3.07,1.25c-.78-.32-1.07-1.37-1.31-1.8a8,8,0,0,1,2.25,1.77,7.33,7.33,0,0,0,2.86-1.56c.17-.55-.65-1.3.06-1.72.53.29,0,1.08.39,1.59.43.15.56.8,1.08.81,0-.12,0-.43.21-.32s.47.94.9.54c.13-.15.28-.38.25-.53.14.09.34.29.52.41.67-.61-.52-.8-.36-1.39,1.35,1.39,3.41,1.78,4.68,3.15C113.88,177.39,114.8,178.79,114.26,180.28Z"/><polygon class="cls-3" points="112.47 181.04 112.6 181.09 112.57 181.14 112.47 181.04"/><path class="cls-2" d="M106.42,161.23A1.07,1.07,0,0,1,105,161a1.59,1.59,0,0,1,0-1.55c.31-.41.73.06,1.1-.06A1.23,1.23,0,0,1,106.42,161.23Z"/><polygon class="cls-3" points="110.53 180.87 110.78 180.9 110.65 180.85 110.53 180.87"/><polygon class="cls-3" points="110.77 182.05 110.95 181.94 110.89 182.03 110.77 182.05"/><polygon class="cls-3" points="109.81 181.81 109.87 181.91 109.77 181.97 109.81 181.81"/><polygon class="cls-3" points="109.42 182.04 109.57 181.97 109.53 182.02 109.42 182.04"/><polygon class="cls-3" points="109.06 182.83 109.32 182.74 109.22 182.8 109.06 182.83"/><polygon class="cls-3" points="108.81 181.37 108.94 181.23 108.9 181.23 108.81 181.37"/><path class="cls-2" d="M105.46,165.15a7.42,7.42,0,0,1,.28,2.4c-.24.21-.4,0-.51-.17.14-.86-.41-1.82-.08-2.6C105.3,164.75,105.77,164.93,105.46,165.15Z"/><polygon class="cls-3" points="109.05 183.15 109.15 183.09 109.12 183.13 109.05 183.15"/><path class="cls-3" d="M105.44,166.26c.08.19-.07,0-.13.11.35-.23-.12-.17-.06-.46l.41.23C105.53,166.13,105.51,166.21,105.44,166.26Z"/><path class="cls-3" d="M105.46,165.75h-.24c0-.32.27.15.25-.13C105.43,165.63,105.45,165.71,105.46,165.75Z"/><path class="cls-3" d="M105.57,166.91c-.12,0-.27.06-.33,0C105.37,166.87,105.55,166.8,105.57,166.91Z"/><path class="cls-3" d="M106.43,174.79c-.13,0-.1-.1,0-.08S106.42,174.75,106.43,174.79Z"/><path class="cls-3" d="M107.62,182.56a.37.37,0,0,1,.09-.34C107.94,182.38,107.77,182.49,107.62,182.56Z"/><rect class="cls-3" x="105.79" y="173.55" width="0.19" height="0.08" transform="translate(-31.9 24.06) rotate(-11.28)"/><path class="cls-3" d="M105.11,174.74l-.29-.07.37-.15S105.05,174.63,105.11,174.74Z"/><path class="cls-2" d="M91.75,125.82c-.44.57-1.19.4-1.71.58,0-.72-.74-.53-.94-1.12a10.92,10.92,0,0,0-3-.82c.08-.37.91,0,1.29-.49s-.09-1.21-.31-1.73c-.45-.46-1.18-.75-1.11-1.4,1.14,1.56,3.21.39,4.45,1.65.69.69,2,1.18,1.71,2.39C92.32,125.31,91.92,125.51,91.75,125.82Z"/><path class="cls-3" d="M101.75,175.56c-.14.11.1-.09.13-.1Z"/><path class="cls-2" d="M101,171.83c-.15-.17-.49.1-.67-.19C100.48,172,100.9,171.53,101,171.83Z"/><path class="cls-3" d="M101.47,174.75c-.21,0-.1-.26-.23-.31C101.34,174.34,101.56,174.61,101.47,174.75Z"/><path class="cls-2" d="M100.83,171.55l-.19-.13Z"/><path class="cls-2" d="M92.16,132.24a11.08,11.08,0,0,1-2,4c-.29-.06-.55.39-.68-.07s.07-.6.1-.89a26,26,0,0,0,2-3.62c.17-.31.25-.92.85-.72S92.42,132,92.16,132.24Z"/><path class="cls-2" d="M100.54,171.29h0Z"/><path class="cls-2" d="M100,171.36l.25.07C100.16,171.36,100.05,171.42,100,171.36Z"/><path class="cls-2" d="M99.9,171.26l-.11-.14a.22.22,0,0,1,.31,0C100.21,171.23,100,171.19,99.9,171.26Z"/><path class="cls-2" d="M92,150.56c-.58.43-1.33-.13-1.9.22-.56-.05-1-.59-1.42-1,.31-.61-1-.9-.21-1.46-.25-.23-.41-.87-.84-.63-.26.69-1.17,1.11-1,2-.13.14-.3-.1-.44-.23-.49-.06-.43.64-.67.84L85,150l-.32.42c-.22-.12-.46-.55-.77-.29-.51.22,0,.8-.55.83-.16-.21.14-.55,0-.79a1.12,1.12,0,0,0-1.42.24c-.16-.2-.09-.45-.22-.7-.38-.13-.8-.44-1.17-.09-.36-.21.12-.42,0-.63-.5.26-.73-.73-1.22-.19,0-.4.51-.22.55-.59.32-1.81-1.77-2-1.73-3.5.79,0,1.26-1.05,2.1-.82.62-.48.11-1.05,0-1.47.3-.26.87-.21,1.1-.42-.56-.44.09-1.16-.52-1.6.8,1.23,2.76,1.67,3.59,3.09.34.09.77.64,1.15.21a2.26,2.26,0,0,0,.65-1.52c.21-.55.74-.1.9-.65.41.43-.48,1-.06,1.48-.27.41-.79.79-.79,1.38,0,.88.68,1.41.83,2.18a6.7,6.7,0,0,0,1.74,1.39c.68-.77-.94-1.16-.62-2.13a.42.42,0,0,1,.66-.25c.47.34.8,1.42,1.56.87.3-.13.58-.7.94-.3a2.71,2.71,0,0,1,1.47,2.64A4.31,4.31,0,0,1,92,150.56Z"/><path class="cls-2" d="M88.65,138.13c.17-.54.29.07.48,0C89,138.26,88.72,138.44,88.65,138.13Z"/><path class="cls-2" d="M88.63,155.5a1.22,1.22,0,0,1-.81-.07c-.28-.22-.56-.41-.59-.76a1.06,1.06,0,0,1,1-.27c.27.14.43.19.56.44A.54.54,0,0,1,88.63,155.5Z"/><path class="cls-3" d="M88.45,155c.06.1-.09.17-.18.11h0l-.12-.17c.29.22.28-.22.18-.32C88.51,154.73,88.65,154.83,88.45,155Z"/><path class="cls-2" d="M92.42,177.11c-.72,1-2,.52-3,.8-.2-1-1.46-.77-2-1.5.22-.08.5.14.74.13l-.16.23c.22-.12.26.11.48,0l0,.05c.19,0,.52.45.51,0,.3.09.38.48.48.81.25-.56.45.23.51-.42.27.15-.26.25.08.38a2.56,2.56,0,0,0,2-.48c-.18-.08-.45.17-.58-.08.6,0,0-.82.59-.83-.26-.34-.45-.31-.81-.51-.34.3.22.55-.08.81-.39-.36-.57.35-1-.17.41.27.49,0,.92,0-.39-.16-.08-.58-.33-.64l-.13.34c0-.37-.51-.18-.81-.31l0,0c-.11-.14-.19,0-.27,0l.11-.22c-.77-.52-1.45.45-2.08-.14.34-.26.91.22,1.11-.38a3.63,3.63,0,0,1,3.41.59C92.62,175.92,92.33,176.65,92.42,177.11Z"/><rect class="cls-3" x="87.9" y="155" width="0.19" height="0.08" transform="translate(-28.62 20.2) rotate(-11.28)"/><path class="cls-3" d="M91.93,176.41c.09.1.11-.22.19,0Z"/><path class="cls-2" d="M91.45,176.82c-.17.12-.06-.1-.26-.14.25.07.27-.21.42-.28C91.48,176.54,91.33,176.61,91.45,176.82Z"/><path class="cls-2" d="M91.37,176.41l-.15.06Z"/><path class="cls-3" d="M91,175.48c-.23-.15-.12.22-.15-.13C90.94,175.46,91.07,175.31,91,175.48Z"/><path class="cls-2" d="M91.23,176.91a.22.22,0,0,1-.16,0C91.14,176.85,91.25,176.79,91.23,176.91Z"/><path class="cls-2" d="M91,177.39c.18-.28-.26-.11-.2-.2.28,0,.24-.21.44,0S91,177.27,91,177.39Z"/><rect class="cls-2" x="90.35" y="176.22" width="0.35" height="0.04" transform="translate(-32.72 21.1) rotate(-11.28)"/><path class="cls-3" d="M90.2,175.73c0-.09.13.05.18.08S90.27,175.67,90.2,175.73Z"/><path class="cls-3" d="M90.15,175.46c-.1-.1.06-.09.1-.1S90.2,175.49,90.15,175.46Z"/><polygon class="cls-2" points="90.43 177.27 90.64 177.3 90.47 177.46 90.43 177.27"/><polygon class="cls-2" points="91.59 183.66 91.79 183.69 91.81 183.81 91.59 183.66"/><path class="cls-2" d="M90.18,176.21c-.18-.09-.15-.13,0-.24C90.11,176.06,90.16,176.13,90.18,176.21Z"/><path class="cls-2" d="M86.78,162.14a2.14,2.14,0,0,1-2.19-1A2.75,2.75,0,0,1,86.16,160a1.49,1.49,0,0,1,.93.69C87.21,161.3,87.4,161.89,86.78,162.14Z"/><path class="cls-2" d="M88.5,174.16c-1.15.39-1.81-.55-2.7-1,0-.2.31-.45,0-.64.67-.17,1-.71,1.34-1.41a1.17,1.17,0,0,1,1.29.1c.94.36-.24,1.19.74,1.55A1.07,1.07,0,0,1,88.5,174.16Z"/><path class="cls-2" d="M89.42,176.36l-.18.11Z"/><path class="cls-2" d="M89.47,177.22v0Z"/><path class="cls-3" d="M88.38,172.52c-.14.11,0,.16.07.19-.49.09-1.52-.29-1.42.24l.31-.06c-.16.19,0,.59-.25.72l-.08-.38.18.12c.17-.15-.13-.29-.08-.42-.34-.13-.54.27-.71-.17.17-.16.35,0,.47-.25-.36,0-.1-.1-.23-.35l.18.12s0,0-.07.05c.21.24.57-.11.76.25-.1-.34.54-.31.79-.44-.34.11-.12.38.17.44A.07.07,0,0,1,88.38,172.52Z"/><path class="cls-3" d="M87.9,171.74c-.09-.06,0-.22-.17-.28C87.71,171.19,87.9,171.74,87.9,171.74Z"/><polygon class="cls-2" points="88.61 175.49 88.77 175.69 88.6 175.65 88.61 175.49"/><polygon class="cls-2" points="90.27 184 90.41 183.93 90.34 183.98 90.27 184"/><path class="cls-3" d="M87.74,172.73c0-.08,0-.2,0-.31v.07l.26-.13C88,172.59,87.64,172.63,87.74,172.73Z"/><path class="cls-3" d="M87.84,172l-.36.16Z"/><path class="cls-3" d="M87.82,173.11c.12-.18,0-.08.22-.08Z"/><path class="cls-3" d="M85.37,160.83c0-.07-.05-.07-.06-.11l.23,0C85.47,160.73,85.45,160.82,85.37,160.83Z"/><path class="cls-3" d="M88.05,173.3l-.21-.08Z"/><path class="cls-3" d="M87.57,171.85c0-.11-.06-.11-.12,0,0-.13.18-.08.21-.13Z"/><polygon class="cls-3" points="87.8 173.59 87.93 173.48 87.95 173.56 87.8 173.59"/><polygon class="cls-2" points="86.37 166.66 86.54 166.7 86.52 166.79 86.37 166.66"/><polygon class="cls-3" points="87.66 173.3 87.73 173.28 87.77 173.47 87.66 173.3"/><polygon class="cls-2" points="86.2 167.17 86.47 167.15 86.35 167.14 86.2 167.17"/><path class="cls-2" d="M88.13,176.06l-.28-.22C87.94,175.9,88.28,175.83,88.13,176.06Z"/><path class="cls-2" d="M87.64,185l-.11-.18C87.69,184.79,87.62,184.84,87.64,185Z"/><path class="cls-2" d="M75,143.76c-.4.4-1.06.25-1.51.18-.63-.55-1.45-1.1-1.15-2a2,2,0,0,1,.55-.82c.48,0,1.17-.47,1.71,0C75.33,141.7,75.91,143,75,143.76Z"/><path class="cls-2" d="M78.62,164c-.52.38-1,0-1.42-.15a1.33,1.33,0,0,1-.58-1.35c0-.31.22-.48.46-.65a1.44,1.44,0,0,1,1.43.19A1.17,1.17,0,0,1,78.62,164Z"/></g><g class="cls-1"><path class="cls-2" d="M25.21,179.57c-.06-.62-.89-1.68-.14-2.36-.28-1.87,1.2-2.81,1.91-4.21.6.43.63-.48,1.1-.73.21-.3.09-.84.44-1.09.49.14-.22.92.52.85,1.33-.09,1.05-1.83,2-2.36.2.81-.9,1.6-.16,2.28a4.46,4.46,0,0,0,2.24-.69c-.4-.11-.92-.34-1-.76.09-.3.48-.25.65-.1.56.27.74.75,1.08,1a2.89,2.89,0,0,0,2.27-.78c-.21-.25.07-.56.29-.66.78-.66,1.79.27,2.57-.51.59-.45.56-1.16,1.22-1.55a.73.73,0,0,1,.61.43c0,.94-1.22,1-.85,2.08.21.25.52,0,.78,0,.13-.75.89-1,1.25-1.58,0,.33.27.18.4.24-.52,1.25-2.34,1.95-2.17,3.41.23.08.61,0,.6.36a1.38,1.38,0,0,0-.29.85c1,1.16,2.68.33,3.91,1-1.3-.13-2.79.68-3.78.95,1-.24,2,.56,2.5.79a9.53,9.53,0,0,1-3.38-.1,8.75,8.75,0,0,0-1.62,3.48c.23.64,1.53.77,1.15,1.66-.71.1-.73-1-1.48-1.22-.51.15-1.09-.38-1.59,0,.07.13.31.41,0,.46-.45.08-1.1-.57-1.23.12a1,1,0,0,0,.13.67c-.19,0-.52,0-.78,0-.21,1.05,1.06.41,1.32,1.08-2.26-.38-4.47.69-6.63.27C27.6,182.05,25.75,181.36,25.21,179.57Z"/><polygon class="cls-3" points="26.39 177.6 26.23 177.64 26.22 177.58 26.39 177.6"/><path class="cls-2" d="M46,192.14a1.28,1.28,0,0,1,1.55-.75,1.87,1.87,0,0,1,1.11,1.44c0,.62-.72.46-1,.83C46.68,193.93,45.89,192.89,46,192.14Z"/><polygon class="cls-3" points="28.34 176.41 28.09 176.55 28.25 176.51 28.34 176.41"/><polygon class="cls-3" points="27.29 175.45 27.2 175.68 27.2 175.55 27.29 175.45"/><polygon class="cls-3" points="28.37 175.01 28.24 174.95 28.3 174.82 28.37 175.01"/><polygon class="cls-3" points="28.57 174.52 28.48 174.68 28.48 174.62 28.57 174.52"/><polygon class="cls-3" points="28.37 173.52 28.18 173.79 28.24 173.66 28.37 173.52"/><polygon class="cls-3" points="29.62 174.73 29.6 174.96 29.63 174.92 29.62 174.73"/><path class="cls-2" d="M44.13,187.76a8.37,8.37,0,0,1-1.94-2.08c.08-.36.37-.28.6-.19.47.92,1.66,1.44,1.89,2.4C44.56,188,44,188.19,44.13,187.76Z"/><polygon class="cls-3" points="28.16 173.21 28.1 173.34 28.1 173.28 28.16 173.21"/><path class="cls-3" d="M43.37,186.69c-.2-.12.06-.07.05-.19-.17.46.23.08.38.4l-.55.06C43.38,186.89,43.34,186.79,43.37,186.69Z"/><path class="cls-3" d="M43.71,187.19l.22-.17c.21.32-.35,0-.15.3C43.82,187.29,43.75,187.22,43.71,187.19Z"/><path class="cls-3" d="M42.79,186.17c.13-.07.22-.24.35-.18C43,186.06,42.89,186.26,42.79,186.17Z"/><path class="cls-3" d="M36.48,179.3c.16,0,.16,0,0,.1S36.51,179.33,36.48,179.3Z"/><path class="cls-3" d="M29.92,172.77a.43.43,0,0,1,.15.38C29.74,173.17,29.83,172.94,29.92,172.77Z"/><rect class="cls-3" x="37.71" y="180.02" width="0.23" height="0.09" transform="translate(-120.76 86.76) rotate(-47.67)"/><path class="cls-3" d="M37.76,178.43l.32-.14-.24.4S37.9,178.49,37.76,178.43Z"/><path class="cls-2" d="M84.59,215.46c0-.85.85-1.21,1.22-1.75.45.73,1.07,0,1.67.41A12.41,12.41,0,0,0,91,212.76c.18.42-.88.63-.88,1.37,0,.94.93,1.09,1.49,1.42.75.13,1.65-.11,2,.56-2.17-.68-3.32,1.87-5.37,1.54-1.15-.17-2.74.29-3.29-1.08C84.41,216.34,84.64,215.88,84.59,215.46Z"/><path class="cls-3" d="M40.37,175.3c.06-.2,0,.16,0,.19Z"/><path class="cls-2" d="M43.69,178.32c.26.05.4-.44.76-.3C44.09,177.81,44,178.53,43.69,178.32Z"/><path class="cls-3" d="M41.21,175.87c.22-.1.27.18.43.15C41.61,176.18,41.22,176.07,41.21,175.87Z"/><path class="cls-2" d="M44.05,178.46h0Z"/><path class="cls-2" d="M79.72,209.66a12.84,12.84,0,0,1-.89-5.15c.32-.14.26-.75.7-.42.39.18.35.63.53.92a29.88,29.88,0,0,0,.58,4.86c0,.42.4,1-.3,1.28C79.47,211.29,79.64,210.08,79.72,209.66Z"/><path class="cls-2" d="M44.51,178.51l.19-.14Z"/><path class="cls-2" d="M45,178l-.28.11C44.82,178.17,44.87,178,45,178Z"/><path class="cls-2" d="M45.14,178.09l.19,0a.26.26,0,0,1-.28.24C44.86,178.33,45.08,178.22,45.14,178.09Z"/><path class="cls-2" d="M67.11,192.16c.26-.82,1.36-.8,1.65-1.53a3.15,3.15,0,0,1,2-.06c.13.8,1.59.15,1.22,1.23.39,0,1,.54,1.23,0-.23-.83.34-1.86-.41-2.54,0-.23.35-.11.58-.09.51-.28,0-.9,0-1.26l.68-.07v-.61c.29-.05.82.18.93-.27.33-.57-.56-.76-.06-1.17.3.08.26.61.59.72a1.31,1.31,0,0,0,1.17-1.22c.3.08.41.37.71.52.44-.15,1.06-.15,1.16-.74.48-.05.19.48.45.6.3-.6,1.21.17,1.3-.68.27.38-.33.57-.12.95,1,1.93,3,.6,4.08,2.11-.72.58-.46,1.86-1.42,2.23-.25.89.64,1.07,1,1.41-.11.46-.68.81-.76,1.17.85,0,.74,1.17,1.61,1.16-1.61-.61-3.77.34-5.56-.42-.38.15-1.17-.08-1.23.61a2.73,2.73,0,0,0,.44,1.89c.2.67-.62.61-.39,1.25-.69-.13-.22-1.26-1-1.45,0-.58.2-1.3-.21-1.87-.59-.84-1.63-.86-2.31-1.48a8.06,8.06,0,0,0-2.63-.1c-.11,1.2,1.71.44,2.08,1.59a.5.5,0,0,1-.45.7c-.68,0-1.75-.8-2.09.26-.18.33,0,1.07-.67.94a3.22,3.22,0,0,1-3.25-1.47A5.16,5.16,0,0,1,67.11,192.16Z"/><path class="cls-2" d="M78.93,201.63c.22.63-.32.14-.44.34C78.51,201.74,78.65,201.38,78.93,201.63Z"/><path class="cls-2" d="M66.82,185.15a1.37,1.37,0,0,1,.82-.5c.42,0,.81,0,1.08.31a1.22,1.22,0,0,1-.73.94,1.29,1.29,0,0,1-.85,0A.65.65,0,0,1,66.82,185.15Z"/><path class="cls-3" d="M67.35,185.51c-.13-.06,0-.22.09-.23l0,0,.23.09c-.42,0-.11.39,0,.42C67.46,185.8,67.27,185.81,67.35,185.51Z"/><path class="cls-2" d="M48.13,167.32c0-1.42,1.57-1.92,2.33-2.89.88.8,1.93-.29,2.95,0-.15.24-.57.22-.79.39l0-.32c-.11.26-.32.08-.43.35v-.07c-.18.14-.81-.06-.5.35-.35.11-.69-.2-1-.44.16.7-.58.09-.19.75-.36,0,.07-.42-.34-.31A3,3,0,0,0,48.54,167c.23,0,.3-.47.6-.32-.56.42.62.75,0,1.2.5.14.65,0,1.13-.09.11-.52-.6-.36-.49-.82.62.07.29-.72,1-.5-.58,0-.48.32-.88.63.48-.12.48.49.76.38l-.12-.41c.22.38.61-.19,1-.28v.07c.2,0,.15-.17.22-.24l0,.29c1.1,0,1.07-1.44,2.08-1.33-.14.5-1,.44-.79,1.14-1,1.08-2.17,2.05-3.64,1.82C48.78,168.59,48.54,167.69,48.13,167.32Z"/><rect class="cls-3" x="67.63" y="185.11" width="0.23" height="0.09" transform="translate(-114.75 110.54) rotate(-47.67)"/><path class="cls-3" d="M49.09,167.63c-.17,0,0,.29-.19.14Z"/><path class="cls-2" d="M49.25,166.91c.09-.23.13.06.35,0-.28.11-.11.4-.2.56C49.42,167.2,49.51,167,49.25,166.91Z"/><path class="cls-2" d="M49.62,167.25l.09-.16Z"/><path class="cls-3" d="M50.59,167.89c.32,0-.05-.29.23,0C50.69,167.85,50.66,168.08,50.59,167.89Z"/><path class="cls-2" d="M49.4,166.68a.33.33,0,0,1,.16-.11C49.53,166.67,49.47,166.81,49.4,166.68Z"/><path class="cls-2" d="M49.27,166.07c0,.39.32-.08.33.05-.25.2-.08.36-.41.31S49.35,166.2,49.27,166.07Z"/><rect class="cls-2" x="50.33" y="166.8" width="0.41" height="0.05" transform="matrix(0.67, -0.74, 0.74, 0.67, -106.82, 91.84)"/><path class="cls-3" d="M51.2,167.08c0,.1-.16,0-.22,0S51.17,167.18,51.2,167.08Z"/><path class="cls-3" d="M51.44,167.3c.16,0,0,.13,0,.16S51.37,167.3,51.44,167.3Z"/><polygon class="cls-2" points="49.91 165.78 49.69 165.89 49.74 165.63 49.91 165.78"/><polygon class="cls-2" points="44.35 160.53 44.13 160.64 44.03 160.55 44.35 160.53"/><path class="cls-2" d="M50.89,166.61c.22,0,.23,0,.17.22C51.05,166.7,51,166.67,50.89,166.61Z"/><path class="cls-2" d="M63.94,177.57a2.51,2.51,0,0,1,2.79-.55,3.25,3.25,0,0,1-.74,2.11,1.78,1.78,0,0,1-1.36,0C64.12,178.66,63.52,178.24,63.94,177.57Z"/><path class="cls-2" d="M53.9,167.38c.82-1.18,2.11-.75,3.27-.93.1.22,0,.64.41.63a2.58,2.58,0,0,0-.28,2.28,1.37,1.37,0,0,1-1.29.8c-1.15.31-.61-1.3-1.79-.95A1.27,1.27,0,0,1,53.9,167.38Z"/><path class="cls-2" d="M51.5,165.93l.09-.23Z"/><path class="cls-2" d="M50.85,165.15l-.1-.15Z"/><path class="cls-3" d="M55.17,168.84c.06-.2-.1-.16-.2-.12.4-.44,1.65-.79,1.18-1.22l-.25.27c0-.29-.42-.56-.27-.86l.34.3-.26,0c-.05.26.33.18.37.34.42-.12.33-.63.8-.33-.05.26-.31.27-.27.56.35-.24.17,0,.46.17l-.25,0s0-.07,0-.1c-.36-.08-.46.5-.89.3.34.24-.29.66-.44,1,.24-.34-.15-.45-.47-.3A.09.09,0,0,1,55.17,168.84Z"/><path class="cls-3" d="M56.16,169.25c.13,0,.2.18.37.14C56.73,169.64,56.16,169.25,56.16,169.25Z"/><polygon class="cls-2" points="52.88 166.19 52.58 166.11 52.77 166.03 52.88 166.19"/><polygon class="cls-2" points="45.36 159.28 45.27 159.45 45.3 159.35 45.36 159.28"/><path class="cls-3" d="M55.63,168.2c.06.06.14.19.24.28l-.07-.06-.15.3C55.45,168.54,55.79,168.23,55.63,168.2Z"/><path class="cls-3" d="M56,168.93l.24-.4Z"/><path class="cls-3" d="M55.29,167.9c0,.25.07.06-.15.23Z"/><path class="cls-3" d="M66.18,177.82c.07.06.1,0,.14.06l-.19.2C66.16,178,66.12,177.89,66.18,177.82Z"/><path class="cls-3" d="M54.93,167.88l.26-.08Z"/><path class="cls-3" d="M56.41,168.91c.1.09.13.06.12-.07.07.13-.12.2-.12.27Z"/><polygon class="cls-3" points="54.97 167.42 54.92 167.62 54.85 167.56 54.97 167.42"/><polygon class="cls-2" points="61.16 173 60.97 173.07 60.94 172.98 61.16 173"/><polygon class="cls-3" points="55.31 167.6 55.24 167.67 55.08 167.52 55.31 167.6"/><polygon class="cls-2" points="60.97 172.39 60.73 172.6 60.85 172.53 60.97 172.39"/><path class="cls-2" d="M52.93,165.32h.42C53.23,165.33,53,165.64,52.93,165.32Z"/><path class="cls-2" d="M47.18,156.54l.23.09C47.25,156.73,47.28,156.64,47.18,156.54Z"/><path class="cls-2" d="M88,186.72c.1-.65.83-1,1.31-1.23,1,.09,2.14,0,2.48,1.09a2.36,2.36,0,0,1,0,1.16c-.47.31-.78,1.27-1.63,1.18C89.06,188.94,87.59,188.1,88,186.72Z"/><path class="cls-2" d="M70.39,170.14c.23-.72,1-.7,1.46-.85.58,0,1.31.27,1.5.87.23.28.12.61,0,.94a1.68,1.68,0,0,1-1.49.82C70.9,172,70,171,70.39,170.14Z"/></g><g class="cls-1"><path class="cls-2" d="M47.59,248.4c-.38.52-.46,1.93-1.52,1.95-1.08,1.67-2.9,1.38-4.43,2-.18-.75-.82-.05-1.37-.19-.38.09-.66.61-1.1.56-.29-.45.81-.57.18-1-1.11-.84-2.1.72-3.18.5.4-.77,1.81-.64,1.7-1.69a4.8,4.8,0,0,0-2.24-1c.23.36.49.91.24,1.28-.27.17-.55-.14-.58-.37a4.43,4.43,0,0,1-.12-1.58,3,3,0,0,0-2.33-1c0,.34-.44.39-.69.32-1.06,0-1.22-1.46-2.37-1.39-.78-.06-1.25.53-2,.37a.76.76,0,0,1-.17-.75c.64-.75,1.64.06,2.1-1,0-.34-.38-.4-.63-.51-.62.5-1.39.15-2.09.37.27-.22-.08-.33-.15-.47,1.29-.62,3.2.09,4.08-1.17-.12-.23-.48-.43-.22-.7a1.4,1.4,0,0,0,.82-.47c0-1.6-1.88-2.12-2.36-3.51.93,1,2.66,1.4,3.63,1.87-.92-.48-1.16-1.81-1.42-2.36a10.05,10.05,0,0,1,2.59,2.43,9.09,9.09,0,0,0,3.68-1.61c.27-.66-.66-1.67.26-2.11.62.42-.15,1.32.31,2,.51.23.6,1,1.24,1.12,0-.15,0-.54.29-.37.42.24.47,1.2,1,.75.18-.16.39-.43.37-.62.16.13.38.4.59.57.89-.68-.55-1-.29-1.76,1.51,1.87,4,2.56,5.41,4.39C47.44,244.79,48.41,246.62,47.59,248.4Z"/><polygon class="cls-3" points="45.3 249.13 45.46 249.21 45.42 249.26 45.3 249.13"/><path class="cls-2" d="M40,224.1a1.32,1.32,0,0,1-1.74-.48,1.92,1.92,0,0,1,.13-1.9c.43-.48.88.14,1.35,0A1.52,1.52,0,0,1,40,224.1Z"/><polygon class="cls-3" points="42.94 248.71 43.24 248.78 43.08 248.7 42.94 248.71"/><polygon class="cls-3" points="43.1 250.19 43.33 250.07 43.24 250.18 43.1 250.19"/><polygon class="cls-3" points="41.95 249.79 42.01 249.93 41.87 249.99 41.95 249.79"/><polygon class="cls-3" points="41.44 250.03 41.63 249.97 41.58 250.02 41.44 250.03"/><polygon class="cls-3" points="40.91 250.96 41.24 250.88 41.11 250.94 40.91 250.96"/><polygon class="cls-3" points="40.76 249.14 40.94 248.98 40.89 248.98 40.76 249.14"/><path class="cls-2" d="M38.41,228.82a9.07,9.07,0,0,1,.08,3c-.31.22-.49-.05-.61-.28.27-1-.3-2.28.18-3.2C38.26,228.31,38.82,228.58,38.41,228.82Z"/><polygon class="cls-3" points="40.86 251.35 41 251.29 40.96 251.34 40.86 251.35"/><path class="cls-3" d="M38.27,230.19c.07.23-.1,0-.18.11.45-.24-.13-.22,0-.57l.47.33C38.39,230,38.36,230.13,38.27,230.19Z"/><path class="cls-3" d="M38.34,229.55l-.29,0c.05-.39.31.21.32-.13C38.33,229.41,38.34,229.5,38.34,229.55Z"/><path class="cls-3" d="M38.36,231c-.15,0-.34,0-.4-.1C38.11,230.93,38.34,230.86,38.36,231Z"/><path class="cls-3" d="M38.55,240.79c-.15-.09-.11-.14,0-.11C38.59,240.73,38.55,240.74,38.55,240.79Z"/><path class="cls-3" d="M39.17,250.48a.46.46,0,0,1,.15-.41C39.58,250.29,39.36,250.41,39.17,250.48Z"/><rect class="cls-3" x="37.9" y="239.2" width="0.24" height="0.1" transform="translate(-25.68 5.52) rotate(-6.21)"/><path class="cls-3" d="M36.93,240.57l-.35-.1.47-.15C37.06,240.37,36.87,240.44,36.93,240.57Z"/><path class="cls-2" d="M25.83,178.93c-.61.65-1.51.36-2.17.53.15-.89-.85-.73-1-1.48A13.13,13.13,0,0,0,19,176.64c.14-.45,1.12.12,1.64-.47.69-.7,0-1.5-.19-2.15-.5-.63-1.37-1.06-1.21-1.85,1.23,2,3.9.83,5.29,2.51.78.93,2.36,1.68,1.84,3.14C26.58,178.37,26.08,178.57,25.83,178.93Z"/><path class="cls-3" d="M32.7,241.23c-.18.11.14-.11.19-.12Z"/><path class="cls-2" d="M32.2,236.55c-.17-.22-.62.07-.81-.3C31.53,236.67,32.11,236.17,32.2,236.55Z"/><path class="cls-3" d="M32.45,240.19c-.25-.07-.09-.33-.24-.41C32.34,239.67,32.57,240,32.45,240.19Z"/><path class="cls-2" d="M32,236.18,31.8,236Z"/><path class="cls-2" d="M25.63,186.88a13.45,13.45,0,0,1-2.88,4.66c-.35-.11-.72.42-.83-.15-.19-.42.16-.74.22-1.09a33.2,33.2,0,0,0,2.92-4.23c.25-.37.41-1.11,1.12-.8C27,185.77,26,186.6,25.63,186.88Z"/><path class="cls-2" d="M31.68,235.83l-.24,0Z"/><path class="cls-2" d="M31,235.86l.3.11C31.21,235.88,31.07,236,31,235.86Z"/><path class="cls-2" d="M30.9,235.72l-.12-.18a.29.29,0,0,1,.39,0C31.28,235.73,31,235.66,30.9,235.72Z"/><path class="cls-2" d="M23.39,209.39c-.77.47-1.62-.3-2.36.07-.69-.12-1.2-.84-1.64-1.37.45-.73-1.15-1.23-.11-1.83-.27-.3-.41-1.11-1-.86-.39.82-1.56,1.24-1.44,2.29-.18.16-.36-.16-.52-.33-.6-.13-.6.74-.91,1l-.58-.42-.43.49c-.26-.17-.51-.72-.91-.44-.66.22-.09,1-.77,1-.17-.27.22-.65,0-1a1.37,1.37,0,0,0-1.77.14c-.18-.27-.06-.57-.2-.9-.45-.19-.93-.62-1.42-.23-.42-.29.18-.5.06-.78-.65.27-.83-1-1.49-.37,0-.48.65-.21.75-.66.58-2.19-2-2.58-1.75-4.49,1,0,1.66-1.15,2.67-.78.81-.52.25-1.28.19-1.8.4-.29,1.09-.17,1.41-.4-.65-.6.23-1.43-.47-2,.86,1.6,3.21,2.36,4.08,4.2.41.15.87.87,1.4.38a2.83,2.83,0,0,0,1-1.8c.32-.66.92,0,1.18-.71.45.58-.7,1.14-.24,1.82-.38.47-1.06.89-1.13,1.62-.12,1.07.69,1.81.79,2.76a8.4,8.4,0,0,0,2,1.91c.91-.87-1-1.53-.54-2.7a.52.52,0,0,1,.84-.23c.54.47.83,1.84,1.83,1.25.37-.14.78-.81,1.18-.28a3.36,3.36,0,0,1,1.53,3.41A5.28,5.28,0,0,1,23.39,209.39Z"/><path class="cls-2" d="M20.68,193.75c.26-.66.34.1.58,0C21.08,193.94,20.72,194.13,20.68,193.75Z"/><path class="cls-2" d="M18.75,215.11a1.44,1.44,0,0,1-1-.18c-.32-.3-.64-.56-.64-1a1.29,1.29,0,0,1,1.24-.23c.31.21.51.28.64.6A.67.67,0,0,1,18.75,215.11Z"/><path class="cls-3" d="M18.58,214.46c.07.14-.12.2-.23.12h0l-.12-.23c.32.31.36-.23.25-.36C18.69,214.15,18.85,214.28,18.58,214.46Z"/><path class="cls-2" d="M21.06,242.11c-1,1.12-2.56.42-3.84.66-.13-1.24-1.72-1.12-2.3-2.07.28-.08.6.22.89.24l-.21.27c.28-.13.31.16.59,0l-.05,0c.25,0,.6.61.64.08.35.15.41.63.5,1,.36-.66.52.33.67-.46.32.21-.35.29.06.48a3.14,3.14,0,0,0,2.52-.37c-.21-.12-.57.16-.7-.16.73.06,0-1,.82-1-.3-.45-.53-.43-.95-.72-.45.34.22.7-.18,1-.44-.49-.74.36-1.15-.32.48.39.59.09,1.12.12-.46-.24,0-.72-.33-.83l-.19.41c.09-.45-.61-.27-1-.48l0-.05c-.12-.18-.24,0-.34,0l.17-.26c-.9-.72-1.84.39-2.56-.4.46-.29,1.11.36,1.42-.35,1.52-.16,3.12-.1,4.12,1.1C21.44,240.67,21,241.54,21.06,242.11Z"/><rect class="cls-3" x="17.91" y="214.42" width="0.24" height="0.1" transform="translate(-23.11 3.21) rotate(-6.21)"/><path class="cls-3" d="M20.53,241.2c.11.13.16-.26.24,0Z"/><path class="cls-2" d="M19.9,241.66c-.23.12-.06-.14-.31-.21.3.11.36-.23.55-.3C20,241.31,19.77,241.38,19.9,241.66Z"/><path class="cls-2" d="M19.85,241.13l-.19.07Z"/><path class="cls-3" d="M19.52,240c-.26-.21-.16.26-.16-.18C19.42,239.92,19.6,239.76,19.52,240Z"/><path class="cls-2" d="M19.62,241.74a.36.36,0,0,1-.2,0C19.51,241.65,19.65,241.59,19.62,241.74Z"/><path class="cls-2" d="M19.3,242.3c.25-.32-.31-.16-.23-.26.34,0,.32-.23.54,0S19.33,242.15,19.3,242.3Z"/><rect class="cls-2" x="18.61" y="240.81" width="0.43" height="0.05" transform="matrix(0.99, -0.11, 0.11, 0.99, -25.96, 3.45)"/><path class="cls-3" d="M18.48,240.17c0-.1.16.08.21.12S18.57,240.11,18.48,240.17Z"/><path class="cls-3" d="M18.45,239.83c-.11-.13.08-.1.13-.11S18.5,239.88,18.45,239.83Z"/><polygon class="cls-2" points="18.6 242.09 18.84 242.16 18.62 242.33 18.6 242.09"/><polygon class="cls-2" points="19.32 250.08 19.57 250.15 19.59 250.29 19.32 250.08"/><path class="cls-2" d="M18.4,240.76c-.2-.13-.16-.18,0-.29C18.33,240.57,18.39,240.66,18.4,240.76Z"/><path class="cls-2" d="M15.75,223.07a2.63,2.63,0,0,1-2.58-1.5,3.37,3.37,0,0,1,2.05-1.14,1.85,1.85,0,0,1,1.07.94C16.37,222.09,16.55,222.84,15.75,223.07Z"/><path class="cls-2" d="M16.56,238.06c-1.46.35-2.17-.88-3.21-1.54.07-.25.43-.53.11-.78.85-.14,1.32-.77,1.81-1.6a1.45,1.45,0,0,1,1.57.26c1.12.56-.42,1.45.75,2A1.33,1.33,0,0,1,16.56,238.06Z"/><path class="cls-2" d="M17.45,240.86l-.23.12Z"/><path class="cls-2" d="M17.42,241.93l0,.19Z"/><path class="cls-3" d="M16.58,236c-.18.11,0,.19.08.23-.62.07-1.85-.52-1.78.15l.39,0c-.22.22-.07.74-.39.87l-.05-.48.21.17c.22-.17-.14-.37-.06-.53-.41-.19-.69.27-.85-.29.22-.17.43,0,.6-.26-.44-.05-.11-.13-.25-.45l.22.17s0,.05-.09.05c.22.32.71-.07.91.39-.1-.43.69-.32,1-.45-.42.09-.19.46.16.56A.11.11,0,0,1,16.58,236Z"/><path class="cls-3" d="M16.09,235c-.11-.09,0-.29-.19-.37C15.91,234.31,16.09,235,16.09,235Z"/><polygon class="cls-2" points="16.55 239.7 16.72 239.97 16.52 239.9 16.55 239.7"/><polygon class="cls-2" points="17.66 250.35 17.85 250.29 17.76 250.34 17.66 250.35"/><path class="cls-3" d="M15.78,236.21c0-.09,0-.24,0-.39v.1l.32-.13C16.15,236.07,15.67,236.08,15.78,236.21Z"/><path class="cls-3" d="M16,235.37l-.47.15Z"/><path class="cls-3" d="M15.83,236.69c.17-.21,0-.1.29-.08Z"/><path class="cls-3" d="M14.16,221.32c0-.1-.06-.1-.06-.14l.28,0C14.29,221.2,14.26,221.3,14.16,221.32Z"/><path class="cls-3" d="M16.1,237l-.25-.12Z"/><path class="cls-3" d="M15.66,235.11c0-.14-.06-.14-.15,0,0-.15.24-.07.28-.13Z"/><polygon class="cls-3" points="15.75 237.28 15.93 237.16 15.94 237.26 15.75 237.28"/><polygon class="cls-2" points="14.76 228.59 14.96 228.67 14.92 228.77 14.76 228.59"/><polygon class="cls-3" points="15.62 236.91 15.71 236.9 15.74 237.13 15.62 236.91"/><polygon class="cls-2" points="14.49 229.2 14.83 229.21 14.68 229.18 14.49 229.2"/><path class="cls-2" d="M15.9,240.35l-.33-.3C15.68,240.14,16.11,240.09,15.9,240.35Z"/><path class="cls-2" d="M14.33,251.25l-.12-.23C14.4,251.05,14.31,251.1,14.33,251.25Z"/><path class="cls-2" d="M3.2,199.18c-.53.44-1.33.19-1.88,0-.71-.74-1.66-1.51-1.2-2.57a2.46,2.46,0,0,1,.77-.95c.59.08,1.49-.46,2.1.2C3.89,196.68,4.46,198.36,3.2,199.18Z"/><path class="cls-2" d="M5.51,224.43c-.68.41-1.27-.15-1.73-.34a1.67,1.67,0,0,1-.57-1.73c0-.38.32-.56.64-.74a1.75,1.75,0,0,1,1.74.39A1.44,1.44,0,0,1,5.51,224.43Z"/></g><g class="cls-1"><path class="cls-2" d="M86.29,262.41c.5.13,1.59-.22,1.91.57,1.57.31,1.89,1.76,2.79,2.73-.51.36.21.64.27,1.09.17.25.64.31.74.66-.26.35-.67-.44-.83.17-.31,1.08,1.15,1.36,1.31,2.24-.7-.07-1-1.17-1.77-.78a3.77,3.77,0,0,0-.1,2c.2-.28.54-.64.89-.56s.06.45-.11.54c-.37.37-.81.38-1.15.56a2.44,2.44,0,0,0,0,2c.26-.09.42.22.44.42.3.81-.73,1.35-.34,2.19.19.6.76.78.88,1.42a.63.63,0,0,1-.51.36c-.75-.26-.44-1.26-1.41-1.27-.26.09-.19.4-.2.63.56.31.52,1,.9,1.45-.25-.13-.23.16-.31.25-.85-.78-.88-2.43-2.08-2.71-.14.15-.18.48-.46.37a1.1,1.1,0,0,0-.6-.48c-1.2.46-1,2-1.94,2.81.49-1,.27-2.41.34-3.28-.09.84-1,1.41-1.35,1.76a8.17,8.17,0,0,1,1.05-2.65,7.06,7.06,0,0,0-2.29-2.29c-.57,0-1.06,1-1.66.43.13-.59,1-.28,1.41-.83,0-.45.61-.75.48-1.25-.12,0-.42.13-.37-.12s.77-.71.26-1a.83.83,0,0,0-.58-.09c0-.16.19-.4.25-.61-.77-.47-.62.72-1.23.73,1-1.68.74-3.75,1.7-5.35C83.62,263.58,84.71,262.32,86.29,262.41Z"/><polygon class="cls-3" points="87.51 263.91 87.53 263.77 87.58 263.79 87.51 263.91"/><path class="cls-2" d="M70.29,275.26a1.06,1.06,0,0,1,.15,1.45,1.59,1.59,0,0,1-1.46.46c-.49-.18-.15-.71-.37-1A1.22,1.22,0,0,1,70.29,275.26Z"/><polygon class="cls-3" points="87.89 265.81 87.86 265.56 87.84 265.7 87.89 265.81"/><polygon class="cls-3" points="88.96 265.25 88.8 265.11 88.9 265.14 88.96 265.25"/><polygon class="cls-3" points="88.99 266.23 89.08 266.14 89.17 266.23 88.99 266.23"/><polygon class="cls-3" points="89.33 266.54 89.22 266.42 89.28 266.44 89.33 266.54"/><polygon class="cls-3" points="90.18 266.66 90.02 266.44 90.11 266.52 90.18 266.66"/><polygon class="cls-3" points="88.86 267.31 88.68 267.23 88.7 267.26 88.86 267.31"/><path class="cls-2" d="M74.31,275.08a7.15,7.15,0,0,1,2.21-.95c.26.17.11.38,0,.54-.87.1-1.63.9-2.46.81C74,275.34,74,274.84,74.31,275.08Z"/><polygon class="cls-3" points="90.49 266.59 90.4 266.5 90.45 266.52 90.49 266.59"/><path class="cls-3" d="M75.37,274.78c.16-.13,0,.07.14.1-.31-.27-.13.16-.42.18l.11-.45C75.22,274.73,75.3,274.73,75.37,274.78Z"/><path class="cls-3" d="M74.87,274.91l.08.22c-.31.08.06-.29-.2-.2C74.77,275,74.84,274.93,74.87,274.91Z"/><path class="cls-3" d="M76,274.47c0,.12.12.24,0,.33C76,274.68,75.85,274.52,76,274.47Z"/><path class="cls-3" d="M83.24,271.44c0,.14-.07.12-.09,0S83.21,271.46,83.24,271.44Z"/><path class="cls-3" d="M90.33,268.11a.34.34,0,0,1-.35,0C90.06,267.86,90.22,268,90.33,268.11Z"/><rect class="cls-3" x="82.21" y="272.19" width="0.08" height="0.19" transform="translate(-117.08 69.37) rotate(-27.68)"/><path class="cls-3" d="M83.56,272.71l0,.3-.25-.31S83.48,272.8,83.56,272.71Z"/><path class="cls-2" d="M40.59,299.23c.66.27.71,1,1,1.47-.7.15-.29.86-.81,1.21a11.1,11.1,0,0,0,.08,3.15c-.38,0-.24-.88-.83-1.09s-1.14.42-1.56.78c-.32.56-.39,1.34-1,1.45,1.16-1.53-.53-3.17.32-4.71.47-.86.57-2.27,1.81-2.31C39.94,298.83,40.24,299.15,40.59,299.23Z"/><path class="cls-3" d="M85.3,275.69c.14.1-.12-.07-.14-.1Z"/><path class="cls-2" d="M81.94,277.45c-.12.2.23.45,0,.7C82.22,277.92,81.68,277.63,81.94,277.45Z"/><path class="cls-3" d="M84.6,276.19c0,.21-.22.16-.24.3C84.24,276.42,84.44,276.14,84.6,276.19Z"/><path class="cls-2" d="M81.72,277.7l-.07.21Z"/><path class="cls-2" d="M46.61,297a10.71,10.71,0,0,1,4.34.78c0,.29.53.42.14.67s-.61.1-.88.16a25.42,25.42,0,0,0-4-.95c-.35-.08-1,0-.93-.6S46.29,296.85,46.61,297Z"/><path class="cls-2" d="M81.55,278.05l.06.19Z"/><path class="cls-2" d="M81.79,278.58v-.26C81.73,278.39,81.82,278.48,81.79,278.58Z"/><path class="cls-2" d="M81.7,278.67l-.1.14a.24.24,0,0,1-.11-.29C81.59,278.38,81.61,278.59,81.7,278.67Z"/><path class="cls-2" d="M64.16,292.07c.58.44.25,1.31.74,1.75a2.62,2.62,0,0,1-.54,1.64c-.67-.12-.58,1.23-1.33.62-.16.29-.72.63-.37,1,.73.06,1.39.81,2.14.41.18.09,0,.31-.09.49.08.48.73.23,1,.4l-.14.55.48.18c0,.25-.38.6-.05.82.36.42.76-.22.94.29-.15.21-.55,0-.74.26a1.12,1.12,0,0,0,.63,1.28c-.15.22-.41.22-.61.42,0,.39-.19.88.25,1.13-.1.4-.44,0-.61.19.39.41-.48.91.17,1.23-.38.11-.36-.43-.72-.37-1.82.21-1.36,2.24-2.86,2.63-.26-.74-1.35-.91-1.37-1.77-.63-.46-1,.19-1.41.39-.33-.22-.45-.77-.71-.94-.26.67-1.14.25-1.39.95.95-1.11.83-3.1,1.95-4.3,0-.35.39-.91-.13-1.16a2.31,2.31,0,0,0-1.63-.19c-.59,0-.31-.67-.88-.68.3-.51,1.06.19,1.43-.36.47.15,1,.54,1.55.37.84-.22,1.16-1,1.84-1.4a6.91,6.91,0,0,0,.85-2.06c-.93-.43-.85,1.23-1.87,1.2a.44.44,0,0,1-.43-.57c.2-.54,1.14-1.16.4-1.74-.21-.24-.83-.34-.55-.8a2.68,2.68,0,0,1,2.11-2.15A4.2,4.2,0,0,1,64.16,292.07Z"/><path class="cls-2" d="M53.22,298.73c-.57,0,0-.3-.14-.45C53.25,298.36,53.5,298.58,53.22,298.73Z"/><path class="cls-2" d="M69.82,293.87a1.19,1.19,0,0,1,.16.79c-.14.33-.23.65-.56.77a1.06,1.06,0,0,1-.54-.85c.07-.3.06-.47.27-.67A.53.53,0,0,1,69.82,293.87Z"/><path class="cls-3" d="M69.38,294.19c.08-.09.19,0,.16.13l0,0-.14.16c.14-.34-.28-.21-.34-.08C69.12,294.19,69.17,294,69.38,294.19Z"/><path class="cls-2" d="M89.39,284.17c1.14.41,1.08,1.79,1.63,2.69-.89.46-.33,1.61-.87,2.33-.14-.19,0-.52-.08-.74l.26.08c-.18-.17,0-.28-.15-.45l0,0c0-.19.29-.63-.13-.5,0-.31.36-.49.65-.69-.61-.07.09-.48-.55-.37.07-.29.32.19.35-.18a2.57,2.57,0,0,0-1-1.78c0,.19.29.38.08.57-.16-.57-.77.28-.95-.33-.26.35-.17.53-.26.93.38.23.46-.38.79-.16-.23.47.49.44.1,1,.15-.47-.11-.46-.24-.88,0,.42-.53.24-.52.5l.36,0c-.36.06,0,.53-.07.86h0c-.1.14.09.17.12.24l-.24,0c-.28.89.84,1.27.46,2-.36-.26-.06-.94-.68-1a3.59,3.59,0,0,1-.4-3.42C88.2,284.31,89,284.38,89.39,284.17Z"/><rect class="cls-3" x="69.51" y="294.5" width="0.08" height="0.19" transform="matrix(0.89, -0.46, 0.46, 0.89, -128.89, 66.03)"/><path class="cls-3" d="M88.87,284.84c.07-.13-.24,0-.06-.19Z"/><path class="cls-2" d="M89.4,285.17c.16.14-.09.09-.07.3,0-.26-.28-.2-.38-.32C89.12,285.23,89.23,285.35,89.4,285.17Z"/><path class="cls-2" d="M89,285.37l.11.12Z"/><path class="cls-3" d="M88.23,286c-.08.26.25,0-.08.17C88.24,286,88.06,286,88.23,286Z"/><path class="cls-2" d="M89.54,285.36a.25.25,0,0,1,0,.16C89.51,285.47,89.42,285.38,89.54,285.36Z"/><path class="cls-2" d="M90.06,285.44c-.31-.1,0,.27-.13.24-.1-.26-.27-.17-.13-.41S89.94,285.46,90.06,285.44Z"/><rect class="cls-2" x="89.08" y="286.05" width="0.04" height="0.35" transform="translate(-122.77 74.15) rotate(-27.68)"/><path class="cls-3" d="M88.7,286.68c-.09,0,0-.14,0-.2S88.63,286.62,88.7,286.68Z"/><path class="cls-3" d="M88.46,286.8c-.07.12-.11,0-.12-.07S88.47,286.75,88.46,286.8Z"/><polygon class="cls-2" points="90.11 286.02 90.08 285.82 90.28 285.93 90.11 286.02"/><polygon class="cls-2" points="95.89 283.12 95.86 282.92 95.97 282.86 95.89 283.12"/><path class="cls-2" d="M89.16,286.56c0,.19-.08.18-.22.08C89,286.67,89.1,286.6,89.16,286.56Z"/><path class="cls-2" d="M76.68,293.77a2.12,2.12,0,0,1-.37,2.38,2.8,2.8,0,0,1-1.46-1.2,1.53,1.53,0,0,1,.39-1.09C75.76,293.6,76.27,293.24,76.68,293.77Z"/><path class="cls-2" d="M87.68,288.74c.7,1,0,1.89-.2,2.86-.21,0-.52-.16-.62.15a2.17,2.17,0,0,0-1.73-.88,1.17,1.17,0,0,1-.27-1.26c.08-1,1.21-.11,1.28-1.15A1.06,1.06,0,0,1,87.68,288.74Z"/><path class="cls-2" d="M89.52,287.25l.16.13Z"/><path class="cls-2" d="M90.33,287l.16,0Z"/><path class="cls-3" d="M86.15,289.32c.14.1.16,0,.16-.12.23.44.15,1.54.63,1.29l-.15-.28c.23.1.57-.17.77,0l-.35.18.07-.21c-.19-.12-.24.21-.38.2,0,.36.41.44,0,.72-.19-.11-.12-.32-.37-.37.1.34-.07.12-.27.32l.07-.21s0,0,.07.05c.16-.26-.27-.52,0-.8-.3.2-.45-.42-.64-.63.2.29.4,0,.37-.28A.07.07,0,0,1,86.15,289.32Z"/><path class="cls-3" d="M85.54,290c0,.11-.2.11-.22.25C85.06,290.33,85.54,290,85.54,290Z"/><polygon class="cls-2" points="88.92 288.26 89.07 288.05 89.08 288.23 88.92 288.26"/><polygon class="cls-2" points="96.58 284.29 96.48 284.17 96.55 284.22 96.58 284.29"/><path class="cls-3" d="M86.53,289.87c-.07,0-.19.05-.3.11l.07,0-.19-.2C86.31,289.63,86.46,290,86.53,289.87Z"/><path class="cls-3" d="M85.84,290l.24.31Z"/><path class="cls-3" d="M86.87,289.69c-.21-.07-.07,0-.14-.19Z"/><path class="cls-3" d="M75.83,295.48c-.07,0,0,.07-.09.09l-.1-.21C75.71,295.41,75.79,295.41,75.83,295.48Z"/><path class="cls-3" d="M87,289.41l0,.23Z"/><path class="cls-3" d="M85.74,290.28c-.1.06-.09.09,0,.12-.12,0-.13-.15-.18-.17Z"/><polygon class="cls-3" points="87.33 289.58 87.19 289.48 87.26 289.44 87.33 289.58"/><polygon class="cls-2" points="81.11 292.88 81.11 292.71 81.2 292.71 81.11 292.88"/><polygon class="cls-3" points="87.1 289.79 87.06 289.72 87.23 289.63 87.1 289.79"/><polygon class="cls-2" points="81.65 292.91 81.56 292.65 81.58 292.77 81.65 292.91"/><path class="cls-2" d="M89.6,288.56l-.13.33C89.5,288.79,89.34,288.48,89.6,288.56Z"/><path class="cls-2" d="M98.24,286.52l-.14.16C98.07,286.53,98.14,286.58,98.24,286.52Z"/><path class="cls-2" d="M62.45,310.24c.49.26.54.94.6,1.39-.35.75-.64,1.69-1.58,1.66a2,2,0,0,1-.94-.3c-.11-.46-.78-1-.46-1.63C60.38,310.45,61.47,309.53,62.45,310.24Z"/><path class="cls-2" d="M80.72,301.05c.51.39.26,1,.25,1.4-.2.45-.59,1-1.13.94-.29.11-.52-.08-.74-.27a1.39,1.39,0,0,1-.22-1.41A1.16,1.16,0,0,1,80.72,301.05Z"/></g></g></g></svg>