<svg xmlns="http://www.w3.org/2000/svg" viewBox="0 0 289.59 492.74"><defs><style>.cls-1{opacity:0.85;}.cls-2,.cls-3{fill:#b30d6f;}.cls-3{opacity:0.3;}</style></defs><title>ink_06</title><g id="レイヤー_2" data-name="レイヤー 2"><g id="Content"><g class="cls-1"><path class="cls-2" d="M4.24,424.79c-.9-2.12-5-5-3.13-8.28-3.09-6.36,1.15-11.39,2.14-17.16,2.64.84,1.71-2.43,3.12-3.85.43-1.32-.62-3.13.35-4.38,1.91-.05.24,3.52,2.83,2.46,4.63-1.82,1.71-7.72,4.39-10.63,1.61,2.64-1.43,6.71,2,8.31,2.65-1.23,6.06-2.85,7.23-5-1.53.05-3.69-.2-4.34-1.64,0-1.15,1.42-1.42,2.2-1.06,2.31.32,3.5,1.82,5.05,2.55,3.22-.39,5.45-2.75,7.23-5.33-1-.67-.36-2.07.31-2.7,2.06-3.2,6.72-1,8.62-4.68,1.63-2.27.72-4.78,2.65-6.9a2.68,2.68,0,0,1,2.63.85c1.09,3.35-3.24,4.92-.69,8.38,1,.67,1.9-.43,2.74-1-.39-2.83,2.1-4.51,2.72-7,.19,1.22,1.16.35,1.7.41-.48,5.08-6.19,9.6-4,14.61.92.05,2.21-.67,2.54.62a5,5,0,0,0-.06,3.38c4.84,3,9.93-1.8,15.1-.71-4.81,1-9.21,5.54-12.45,7.62,3.16-1.93,7.66-.21,9.82,0-4.7,2.35-7.46,2.58-12.19,3.4-1.87,4.42-2.2,9.57-1.92,14.24,1.51,2,6.32,1.07,6,4.68-2.43,1.13-3.76-2.89-6.68-2.74-1.65,1.12-4.29-.12-5.7,1.69.39.37,1.56,1.1.58,1.59-1.52.81-4.55-.79-4.25,1.81.17.83.59,2,1.21,2.26-.69.26-1.91.44-2.82.77.41,4,4.23.27,5.89,2.37-8.48,1.16-15.22,7.47-23.4,8.38C15.54,431,8.16,430.59,4.24,424.79Z"/><polygon class="cls-3" points="6.25 416.45 5.72 416.78 5.63 416.54 6.25 416.45"/><path class="cls-2" d="M92.45,446.67c.47-2.62,2-4.35,4.72-4.42a7,7,0,0,1,5.55,3.92c.67,2.21-2.08,2.44-2.65,4.06C97.05,452.23,93.06,449.42,92.45,446.67Z"/><polygon class="cls-3" points="11.9 410.01 11.16 410.79 11.69 410.47 11.9 410.01"/><polygon class="cls-3" points="7.09 407.76 7.04 408.68 6.87 408.22 7.09 407.76"/><polygon class="cls-3" points="10.46 404.98 9.93 404.92 9.99 404.38 10.46 404.98"/><polygon class="cls-3" points="10.64 402.98 10.51 403.68 10.43 403.44 10.64 402.98"/><polygon class="cls-3" points="8.79 399.66 8.44 400.82 8.5 400.28 8.79 399.66"/><polygon class="cls-3" points="14.62 402.57 14.8 403.41 14.87 403.25 14.62 402.57"/><path class="cls-2" d="M81,433c-3.4-.82-6.38-3.35-9.27-5.27-.12-1.38,1-1.41,2-1.36,2.69,2.77,7.54,3.33,9.46,6.5C82.89,433.51,81,434.71,81,433Z"/><polygon class="cls-3" points="7.69 398.76 7.63 399.3 7.55 399.08 7.69 398.76"/><path class="cls-3" d="M77.12,430.05c-.85-.21.15-.31,0-.76-.1,1.84.92,0,1.79,1l-1.89.82C77.37,430.73,77.13,430.44,77.12,430.05Z"/><path class="cls-3" d="M78.93,431.46l.59-.86c1.09.9-1.22.57-.2,1.24C79.39,431.68,79.08,431.53,78.93,431.46Z"/><path class="cls-3" d="M74.48,428.82c.37-.4.51-1.09,1-1C75.15,428.19,75,429,74.48,428.82Z"/><path class="cls-3" d="M44.24,411.29c.53-.32.61-.09.24.3C44.32,411.52,44.4,411.36,44.24,411.29Z"/><path class="cls-3" d="M13.5,395.24a1.56,1.56,0,0,1,1,1.19C13.32,396.85,13.37,395.93,13.5,395.24Z"/><rect class="cls-3" x="49.48" y="412.35" width="0.86" height="0.34" transform="translate(-344.98 283.21) rotate(-64.97)"/><path class="cls-3" d="M47.88,406.74l1-.87-.41,1.7C48.28,407.5,48.42,406.8,47.88,406.74Z"/><path class="cls-2" d="M256.65,487c-.85-3.05,1.7-5.27,2.41-7.59,2.43,2.09,3.8-1.25,6.43-.4,3.77-2.79,7.93-4.81,10.9-8.73,1.1,1.28-2.45,3.21-1.61,5.87.86,3.43,4.52,2.87,6.92,3.43,2.83-.39,5.77-2.23,7.89-.29-8.52,0-9.77,10.39-17.49,11.52-4.28.65-9.48,4.08-13-.19C257,490.38,257.31,488.45,256.65,487Z"/><path class="cls-3" d="M53.72,392.62c0-.77.09.61,0,.77Z"/><path class="cls-2" d="M68.94,399.73c1-.1,1-2,2.41-1.9C69.81,397.48,70.26,400.16,68.94,399.73Z"/><path class="cls-3" d="M57.35,393.76c.68-.64,1.16.34,1.69,0C59.13,394.39,57.6,394.44,57.35,393.76Z"/><path class="cls-2" d="M70.4,399.85l.92-.33Z"/><path class="cls-2" d="M232.76,471.69c-4.58-5.17-6.74-11.1-8.9-17.41,1-.87.07-3,2-2.28,1.62.19,2,1.87,2.91,2.69,2.53,5.53,4.15,11.78,7.51,16.75.65,1.44,2.62,3.31.36,4.9C233.69,477.8,233,473.3,232.76,471.69Z"/><path class="cls-2" d="M72.08,399.5l.52-.71Z"/><path class="cls-2" d="M73.33,397.24l-.9.71C72.81,397.94,72.87,397.4,73.33,397.24Z"/><path class="cls-2" d="M73.87,397.3l.77,0a1.06,1.06,0,0,1-.74,1.17C73.13,398.47,73.8,397.84,73.87,397.3Z"/><path class="cls-2" d="M168.16,423.16c0-3.22,4-4.4,4.18-7.32,1.64-1.88,4.78-2.12,7.22-2.49,1.38,2.72,5.88-1.24,5.77,3.06,1.45-.27,4.16.81,4.41-1.34-1.76-2.72-.88-7-4.3-8.63-.17-.85,1.13-.8,2-1,1.49-1.58-1.16-3.19-1.27-4.57l2.35-1-.67-2.21c1-.49,3.14-.24,3-2,.55-2.39-2.82-2.07-1.49-4.1,1.15,0,1.58,1.88,2.89,1.92a4.93,4.93,0,0,0,2.84-5.68c1.15,0,1.86.87,3.1,1.06,1.43-1,3.63-1.7,3.35-3.92,1.66-.73,1.19,1.5,2.26,1.63.4-2.47,4.51-.73,3.89-3.87,1.41,1-.55,2.4.63,3.52,5.61,5.83,11.55-1.23,17,3-1.92,2.9.42,7.21-2.58,9.59.09,3.45,3.46,3.12,5.17,3.92.12,1.77-1.51,3.66-1.4,5,3.05-.85,3.93,3.35,7,2.34-6.45-.36-13.12,5.42-20.36,4.69-1.2.95-4.26,1-3.74,3.55a10.15,10.15,0,0,0,3.7,6.28c1.44,2.18-1.53,2.88,0,4.9-2.6.3-2.19-4.23-5.1-4.08-.74-2.05-.74-4.89-2.85-6.45-3.06-2.37-6.79-1.27-9.9-2.72-3.36.7-6.65.87-9.52,2.56,1,4.42,6.59-.33,9.22,3.35a1.89,1.89,0,0,1-.84,3c-2.44.75-7.16-.88-7.2,3.26-.28,1.39,1,3.89-1.35,4.1-4.39,2.5-8.94,1.32-13.24-1.64C170,428.94,169.32,426,168.16,423.16Z"/><path class="cls-2" d="M221,443.85c1.51,2-1,.87-1.18,1.71C219.61,444.73,219.73,443.27,221,443.85Z"/><path class="cls-2" d="M159.29,398.39a5.35,5.35,0,0,1,2.39-2.67c1.52-.43,2.89-.92,4.21-.12.12,1.38-.22,3.31-1.57,4.19-1.21.57-1.82,1-3,.85A2.44,2.44,0,0,1,159.29,398.39Z"/><path class="cls-3" d="M161.61,399.09c-.54-.06-.4-.75.06-.92l-.08.16.92.05c-1.52.42.05,1.53.66,1.44C162.33,400,161.64,400.25,161.61,399.09Z"/><path class="cls-2" d="M72.59,355.44c-1.59-5.09,3.45-8.61,5.1-12.95,4,1.89,6.59-3.17,10.58-3.2-.28,1-1.8,1.44-2.39,2.29l-.42-1.14c-.12,1.08-1.06.64-1.18,1.72l-.08-.23c-.52.71-3,.7-1.41,1.81-1.13.79-2.69.07-4.15-.43,1.36,2.34-2,1,.15,2.91-1.21.57-.2-1.6-1.55-.73-2.49,1.68-3.24,5.31-3.54,8.39.76-.41.56-2,1.79-1.82-1.55,2.12,3.05,2,1.42,4.26,1.92-.05,2.28-.82,4-1.56-.21-2-2.55-.62-2.67-2.38,2.29-.45.23-2.93,3.07-2.92-2.06.74-1.34,1.64-2.45,3.21,1.59-1,2.26,1.24,3.16.52l-.88-1.35c1.18,1.12,2-1.36,3.24-2.08l.08.22c.77,0,.37-.77.51-1.09l.49,1c3.88-1.41,2.21-6.35,6-7.06,0,1.91-3.15,2.69-1.56,4.95-2.32,5-5.49,9.73-11,10.57C76.3,359.26,74.46,356.31,72.59,355.44Z"/><rect class="cls-3" x="162.17" y="397.21" width="0.86" height="0.34" transform="translate(-266.25 376.58) rotate(-64.97)"/><path class="cls-3" d="M76.35,355.5c-.61.09.49,1-.51.7Z"/><path class="cls-2" d="M76.12,352.74c.06-.92.54.06,1.22-.57-.91.72,0,1.53-.1,2.23C77.07,353.56,77.2,352.86,76.12,352.74Z"/><path class="cls-2" d="M77.83,353.54l.14-.7Z"/><path class="cls-3" d="M82,354.73c1.14-.42-.49-1,.84-.18C82.31,354.49,82.49,355.33,82,354.73Z"/><path class="cls-2" d="M76.41,351.73c.07-.15.21-.46.44-.55C76.86,351.56,76.8,352.11,76.41,351.73Z"/><path class="cls-2" d="M75.28,349.69c.49,1.37,1-.64,1.22-.18-.66,1,.11,1.37-1.11,1.56C74.54,350.86,75.67,350.07,75.28,349.69Z"/><rect class="cls-2" x="79.87" y="350.88" width="1.54" height="0.17" transform="translate(-271.48 275.54) rotate(-64.97)"/><path class="cls-3" d="M83.3,351.17c.23.3-.53.31-.76.4C82.77,351.48,83.3,351.55,83.3,351.17Z"/><path class="cls-3" d="M84.38,351.67c.61-.09.17.46.1.61C84.4,352.06,84.15,351.76,84.38,351.67Z"/><polygon class="cls-2" points="77.22 347.95 76.55 348.58 76.45 347.59 77.22 347.95"/><polygon class="cls-2" points="51.49 335.37 50.82 336 50.35 335.78 51.49 335.37"/><path class="cls-2" d="M81.65,349.83c.76-.41.84-.18.86.59C82.34,350,82,350,81.65,349.83Z"/><path class="cls-2" d="M140.54,374.49c1.43-3.87,5.78-5.06,9.38-5.08,1.22,2.65.47,5.89-.31,8.37a6.75,6.75,0,0,1-4.87,1.51C142.41,378.2,139.78,377.35,140.54,374.49Z"/><path class="cls-2" d="M93.3,349.21c1.62-5.11,6.69-5,10.62-7,.64.67.84,2.28,2.2,1.78-1.15,2.87-.08,5.45,1.53,8.48a5.16,5.16,0,0,1-3.72,4.32c-3.77,2.4-3.63-4-7.48-1.41C93.52,354.8,92.67,351.76,93.3,349.21Z"/><path class="cls-2" d="M83.1,346.72l.05-.92Z"/><path class="cls-2" d="M79.9,344.66l-.55-.45Z"/><path class="cls-3" d="M99.46,353c0-.76-.55-.44-.85-.21.94-2,5-4.66,2.84-5.67l-.58,1.24c-.26-1.06-2.12-1.55-1.92-2.79l1.56.73-.92.33c.11,1,1.39.27,1.71.8,1.36-.88.47-2.62,2.48-2.06.11,1-.81,1.32-.32,2.31,1-1.26.61-.09,1.84.1l-.91.33c.07-.15-.08-.22,0-.38-1.38.11-1.09,2.33-2.86,2.07,1.47.5-.31,2.69-.51,3.93.5-1.47-1-1.43-2-.56A.37.37,0,0,1,99.46,353Z"/><path class="cls-3" d="M103.46,353.39c.45-.17.93.43,1.46.11C105.93,354.16,103.46,353.39,103.46,353.39Z"/><polygon class="cls-2" points="88.3 346.12 87.15 346.15 87.75 345.67 88.3 346.12"/><polygon class="cls-2" points="53.72 329.78 53.58 330.48 53.58 330.09 53.72 329.78"/><path class="cls-3" d="M100.38,350.25c.31.14.7.52,1.17.73l-.31-.14-.2,1.23C100.11,351.64,101,350.15,100.38,350.25Z"/><path class="cls-3" d="M102.59,352.41l.41-1.7Z"/><path class="cls-3" d="M98.83,349.52c.33.91.31.15-.28,1Z"/><path class="cls-3" d="M148.86,372.89c.32.14.39,0,.54.06l-.43.93C149,373.5,148.72,373.2,148.86,372.89Z"/><path class="cls-3" d="M97.53,349.87l.83-.57Z"/><path class="cls-3" d="M104,351.92c.46.21.53.06.37-.39.39.36-.21.84-.13,1.07Z"/><polygon class="cls-3" points="97.18 348.19 97.2 348.95 96.89 348.81 97.18 348.19"/><polygon class="cls-2" points="125.53 361.24 124.94 361.71 124.7 361.41 125.53 361.24"/><polygon class="cls-3" points="98.57 348.45 98.42 348.77 97.64 348.4 98.57 348.45"/><polygon class="cls-2" points="124.18 359.28 123.51 360.29 123.89 359.9 124.18 359.28"/><path class="cls-2" d="M87.53,342.92l1.52-.42C88.59,342.66,87.94,344.06,87.53,342.92Z"/><path class="cls-2" d="M57.16,318l.93.05C57.64,318.55,57.63,318.17,57.16,318Z"/><path class="cls-2" d="M236.76,380.43c-.37-2.44,1.88-4.42,3.3-5.84,3.59-.79,7.69-2.28,10.08,1.11a8.77,8.77,0,0,1,1.49,4.1c-1.33,1.65-1.39,5.41-4.51,6C243.08,387.17,236.91,385.8,236.76,380.43Z"/><path class="cls-2" d="M155.37,340.72c0-2.84,2.82-3.61,4.25-4.65,2.13-.51,5-.52,6.33,1.45,1.17.74,1.13,2,1.08,3.35-.48,1.85-2.11,4.12-4.4,4.56C159.29,346.9,154.85,344.26,155.37,340.72Z"/></g><g class="cls-1"><path class="cls-2" d="M263.59,327.27c-1.85,1.92-3,7.61-7.37,7.07-5.36,6.15-12.6,3.91-19.18,5.47-.29-3.18-3.34-.71-5.48-1.58-1.59.15-3,2.07-4.81,1.62-.92-2,3.63-1.85,1.33-4.11-4-4.1-9,1.67-13.25.13,2.07-2.89,7.76-1.51,7.91-5.85-2.5-2.27-5.76-5.15-8.52-5.44.74,1.61,1.45,4,.22,5.35-1.21.55-2.15-.87-2.12-1.86-.7-2.59.36-4.54.43-6.51-1.87-3.23-5.38-4.54-8.92-5.26-.25,1.38-2,1.32-3,.89-4.32-.74-4.12-6.67-8.86-7-3.14-.7-5.39,1.39-8.51.3a3.1,3.1,0,0,1-.29-3.18c3.06-2.66,6.69,1.22,9.21-3,.24-1.38-1.32-1.83-2.29-2.46-2.83,1.69-5.73-.2-8.72.3,1.22-.75-.15-1.39-.33-2,5.61-1.79,13,2.23,17.3-2.37-.36-1-1.71-2-.49-3,1-.16,2.59-.3,3.61-1.45,1-6.5-6.39-9.72-7.56-15.7,3.19,4.66,10,7.27,13.7,9.77-3.47-2.49-3.68-8-4.39-10.43,4.61,3.92,6.1,6.74,9.11,11.39,5.53,0,11.14-2,16-4.39,1.48-2.52-1.72-7.18,2.27-8.43,2.3,2.06-1.37,5.29.11,8.31,1.93,1.26,1.81,4.62,4.36,5.3.23-.59.47-2.16,1.44-1.34,1.54,1.24,1.2,5.19,3.83,3.69.8-.56,1.83-1.52,1.85-2.31.58.62,1.33,1.83,2.09,2.65,4-2.24-1.62-4.61-.14-7.32,5.05,8.48,14.79,12.77,19.45,21C265.09,312.49,268,320.5,263.59,327.27Z"/><polygon class="cls-3" points="253.84 328.92 254.42 329.33 254.21 329.52 253.84 328.92"/><path class="cls-2" d="M247,223.83c-3,.69-5.54-.19-6.82-3a8.09,8.09,0,0,1,1.64-7.66c2-1.71,3.53,1.11,5.51,1C250.8,216.45,249.62,222,247,223.83Z"/><polygon class="cls-3" points="244.45 325.82 245.62 326.26 245.04 325.84 244.45 325.82"/><polygon class="cls-3" points="244.24 331.95 245.24 331.58 244.83 331.97 244.24 331.95"/><polygon class="cls-3" points="239.76 329.62 239.94 330.21 239.35 330.39 239.76 329.62"/><polygon class="cls-3" points="237.57 330.33 238.36 330.16 238.15 330.35 237.57 330.33"/><polygon class="cls-3" points="234.87 333.8 236.27 333.65 235.67 333.82 234.87 333.8"/><polygon class="cls-3" points="235.33 326.3 236.14 325.73 235.95 325.72 235.33 326.3"/><path class="cls-2" d="M237.65,242.11c.66,4-.68,8.28-1.41,12.21-1.41.74-2-.46-2.33-1.46,1.73-4.1.13-9.49,2.63-13C237.33,239.92,239.46,241.38,237.65,242.11Z"/><polygon class="cls-3" points="234.42 335.36 235.02 335.19 234.82 335.38 234.42 335.36"/><path class="cls-3" d="M236.28,247.6c.15,1-.4,0-.81.37,2-.73-.36-1,.28-2.37l1.72,1.64C236.88,247,236.68,247.41,236.28,247.6Z"/><path class="cls-3" d="M237,245.05l-1.17-.24c.45-1.57,1.15,1,1.4-.35C237,244.46,237,244.85,237,245.05Z"/><path class="cls-3" d="M236.16,251c-.59-.22-1.39-.05-1.56-.65C235.18,250.53,236.18,250.36,236.16,251Z"/><path class="cls-3" d="M231.21,290.94c-.58-.41-.37-.6.21-.39C231.42,290.75,231.22,290.74,231.21,290.94Z"/><path class="cls-3" d="M228.06,330.79a1.78,1.78,0,0,1,.84-1.55C229.85,330.26,228.85,330.62,228.06,330.79Z"/><rect class="cls-3" x="229.76" y="283.88" width="0.39" height="0.99" transform="translate(-62.2 504.36) rotate(-88.02)"/><path class="cls-3" d="M224.75,289.14l-1.36-.64,2-.33C225.37,288.37,224.57,288.54,224.75,289.14Z"/><path class="cls-2" d="M215.66,31.46c-2.85,2.28-6.35.57-9.13.87,1.11-3.52-3.05-3.47-3.33-6.64-4.66-2.74-8.68-6.24-14.19-7.62.86-1.75,4.53,1.15,7-.94,3.25-2.46,1-6.1.51-8.89-1.69-2.83-5-5.11-3.87-8.24,3.84,9,15.43,5.68,20.11,13.35,2.62,4.25,8.61,8.22,5.65,13.85C219.09,29.6,216.9,30.11,215.66,31.46Z"/><path class="cls-3" d="M207.13,289.32c-.8.37.61-.38.81-.37Z"/><path class="cls-2" d="M207.8,270c-.55-1-2.56-.09-3.1-1.69C205,270.06,207.66,268.37,207.8,270Z"/><path class="cls-3" d="M206.7,285c-1-.43-.16-1.39-.74-1.8C206.57,282.77,207.31,284.38,206.7,285Z"/><path class="cls-2" d="M207.27,268.35l-.77-.82Z"/><path class="cls-2" d="M210.2,63.71c-3.42,7.2-8.74,12.16-14.45,17.31-1.37-.65-3.21,1.27-3.32-1.11-.54-1.8,1.08-2.93,1.52-4.3,4.73-5.17,10.63-9.72,14.39-15.52,1.23-1.35,2.32-4.27,5-2.6C216.26,60,211.81,62.78,210.2,63.71Z"/><path class="cls-2" d="M206.14,266.73l-1-.23Z"/><path class="cls-2" d="M203.18,266.43l1.17.64C204.16,266.66,203.56,266.84,203.18,266.43Z"/><path class="cls-2" d="M203,265.83l-.37-.81a1.21,1.21,0,0,1,1.58.26C204.57,266.09,203.6,265.66,203,265.83Z"/><path class="cls-2" d="M187.88,154.14c-3.42,1.46-6.46-2.21-9.66-1.13-2.73-.89-4.41-4.11-5.9-6.54,2.26-2.69-4-5.67.65-7.49-.94-1.42-1-4.78-3.42-4.07-2.08,3.09-7.06,4.1-7.21,8.45-.82.57-1.36-.84-1.93-1.65-2.34-.87-2.86,2.67-4.27,3.41l-2.1-2.05-2,1.71c-1-.82-1.67-3.22-3.48-2.29-2.79.49-.93,3.92-3.68,3.43-.55-1.21,1.28-2.53.73-3.93a5.68,5.68,0,0,0-7.3-.45c-.56-1.21.08-2.37-.28-3.77-1.74-1.05-3.45-3.09-5.67-1.78-1.53-1.44,1.06-1.94.7-3.14-2.79.7-2.81-4.45-5.85-2.38.47-2,2.79-.5,3.44-2.25,3.66-8.58-6.51-11.7-4.47-19.35,3.94.73,7.45-3.69,11.33-1.58,3.62-1.66,1.75-5.08,1.83-7.26,1.81-.93,4.56,0,6-.78-2.28-2.85,1.77-5.68-.7-8.53,2.53,7,11.67,11.48,14.16,19.48,1.55.84,3,4.06,5.46,2.36a11.62,11.62,0,0,0,5-6.75c1.67-2.51,3.75.33,5.22-2.19,1.49,2.62-3.51,4.23-2,7.25-1.84,1.71-4.85,3-5.55,5.94-1.14,4.31,1.71,7.77,1.58,11.72,2.25,3.25,3.92,6.67,7,8.95,4.26-3-3.32-6.84-.6-11.29a2.19,2.19,0,0,1,3.59-.48c1.89,2.25,2.29,8,6.7,6.17,1.6-.34,3.66-2.84,5-.42,4.63,3.53,5.44,8.89,4.24,14.79C193.18,149.57,190.33,151.65,187.88,154.14Z"/><path class="cls-2" d="M186,88.79c1.48-2.52,1.37.64,2.36.48C187.53,89.83,185.93,90.37,186,88.79Z"/><path class="cls-2" d="M165.6,174.73a6.15,6.15,0,0,1-3.91-1.32c-1.14-1.43-2.28-2.66-2-4.43,1.41-.74,3.6-1.25,5.15-.21,1.15,1,1.92,1.45,2.28,2.84A2.81,2.81,0,0,1,165.6,174.73Z"/><path class="cls-3" d="M165.3,172c.18.6-.62.77-1,.36h.2l-.36-1c1.14,1.42,1.6-.74,1.23-1.35C165.94,170.78,166.51,171.4,165.3,172Z"/><path class="cls-2" d="M159.18,286.08c-4.69,4-10.69.22-16,.43.18-5.13-6.34-5.56-8.17-9.78,1.2-.15,2.34,1.27,3.51,1.51l-1,.95c1.19-.35,1.15.84,2.36.48l-.21.19c1,.24,2.08,2.84,2.55.68,1.36.84,1.29,2.82,1.42,4.6,1.87-2.51,1.92,1.65,3-1.48,1.15,1-1.61.94-.07,2,2.91,1.88,7.09,1,10.49,0-.77-.61-2.38.32-2.74-1.08,2.95.7.74-4.13,3.88-3.42-.92-2-1.9-2.05-3.44-3.49-2,1.12.49,3-1.32,3.92-1.5-2.23-3.21,1.07-4.48-1.94,1.71,1.84,2.35.67,4.51,1.14-1.74-1.25.3-3-.87-3.59l-1,1.55c.65-1.76-2.32-1.46-3.67-2.5l.2-.19c-.37-.8-1,0-1.38-.05l.82-1c-3.24-3.47-7.73.52-10.17-3.12,2-.92,4.28,2.12,6-.59,6.33.22,12.81,1.44,16.18,6.89C161.55,280.42,159.26,283.7,159.18,286.08Z"/><rect class="cls-3" x="162.84" y="171.18" width="0.4" height="0.99" transform="translate(-14.17 328.68) rotate(-88.02)"/><path class="cls-3" d="M157.54,282.06c.37.61.82-1,1,.23Z"/><path class="cls-2" d="M154.72,283.55c-1,.36-.18-.6-1.16-1,1.17.63,1.61-.73,2.41-.91C155.16,282.18,154.36,282.35,154.72,283.55Z"/><path class="cls-2" d="M154.8,281.38l-.81.17Z"/><path class="cls-3" d="M154.17,276.41c-.95-1-.83,1-.56-.81C153.78,276.2,154.59,275.63,154.17,276.41Z"/><path class="cls-2" d="M153.52,283.71a1.24,1.24,0,0,1-.78-.23C153.14,283.3,153.74,283.12,153.52,283.71Z"/><path class="cls-2" d="M151.87,285.82c1.22-1.14-1.16-.83-.75-1.21,1.37.25,1.41-.74,2.16.47C153.44,286.08,152.09,285.24,151.87,285.82Z"/><rect class="cls-2" x="150.7" y="278.66" width="0.2" height="1.78" transform="translate(-133.8 420.6) rotate(-88.02)"/><path class="cls-3" d="M149.81,276.65c.21-.39.58.42.77.62C150.39,277.07,150.21,276.47,149.81,276.65Z"/><path class="cls-3" d="M149.86,275.27c-.37-.6.41-.38.6-.37C150.26,275.08,150.05,275.47,149.86,275.27Z"/><polygon class="cls-2" points="149.14 284.54 150.11 284.97 149.11 285.53 149.14 284.54"/><polygon class="cls-2" points="147.41 317.52 148.38 317.95 148.36 318.54 147.41 317.52"/><path class="cls-2" d="M149.13,279c-.76-.62-.56-.81.25-1.17C149,278.21,149.15,278.61,149.13,279Z"/><path class="cls-2" d="M148.72,205.4c-4.76.23-8-3.84-9.63-7.66,2.26-2.49,6-3.15,9-3.44,1.76.65,3.26,2.88,3.8,4.49C151.81,201.75,152.09,204.92,148.72,205.4Z"/><path class="cls-2" d="M143.22,266.93c-6.15.58-8.33-4.84-12.18-8.13.43-1,2.05-1.92.9-3.14,3.56-.07,5.82-2.37,8.3-5.45a6,6,0,0,1,6.26,2c4.25,2.91-2.57,5.65,1.88,8.57C149.05,264.17,146.21,266.44,143.22,266.93Z"/><path class="cls-2" d="M145.19,278.87l-1,.36Z"/><path class="cls-2" d="M144.44,283.19l-.23.79Z"/><path class="cls-3" d="M144.5,258.67c-.8.36-.22.78.16,1-2.56-.09-7.21-3.22-7.3-.45l1.58.05c-1,.76-.69,2.95-2.09,3.3l.06-2,.77.82c1-.56-.34-1.6.07-2.18-1.54-1-3,.69-3.3-1.69,1-.56,1.77.26,2.59-.71-1.76-.45-.37-.6-.72-2l.77.82c-.2,0-.2.19-.4.18.73,1.41,3,.11,3.48,2.1-.14-1.78,3-.88,4.4-1.23-1.79.14-1.06,1.75.31,2.38A.41.41,0,0,1,144.5,258.67Z"/><path class="cls-3" d="M143.07,254.26c-.39-.4,0-1.18-.54-1.6C142.77,251.29,143.07,254.26,143.07,254.26Z"/><polygon class="cls-2" points="142.2 273.62 142.75 274.82 141.97 274.41 142.2 273.62"/><polygon class="cls-2" points="140.48 317.67 141.27 317.51 140.87 317.69 140.48 317.67"/><path class="cls-3" d="M141.13,258.94c0-.39.23-1,.25-1.57l0,.4,1.4-.35C142.72,258.61,140.75,258.34,141.13,258.94Z"/><path class="cls-3" d="M142.43,255.63l-2,.32Z"/><path class="cls-3" d="M141.06,260.92c.81-.76,0-.39,1.19-.16Z"/><path class="cls-3" d="M143.26,197.3c0-.4-.19-.4-.18-.6l1.19,0C143.87,196.92,143.65,197.31,143.26,197.3Z"/><path class="cls-3" d="M142,262.14l-1-.63Z"/><path class="cls-3" d="M141.28,254.4c0-.59-.18-.6-.58-.22.21-.58,1-.16,1.2-.35Z"/><polygon class="cls-3" points="140.39 263.27 141.19 262.9 141.17 263.3 140.39 263.27"/><polygon class="cls-2" points="141.43 227.3 142.21 227.72 141.99 228.11 141.43 227.3"/><polygon class="cls-3" points="140.04 261.68 140.44 261.69 140.41 262.68 140.04 261.68"/><polygon class="cls-2" points="139.97 229.63 141.34 229.87 140.75 229.65 139.97 229.63"/><path class="cls-2" d="M139.16,275.89,138,274.46C138.4,274.87,140.17,274.94,139.16,275.89Z"/><path class="cls-2" d="M126.37,319.36l-.36-1C126.8,318.59,126.39,318.77,126.37,319.36Z"/><path class="cls-2" d="M111.59,100.66c-2.43,1.49-5.54,0-7.69-.86-2.45-3.45-5.88-7.13-3.37-11.2a10.28,10.28,0,0,1,3.68-3.43c2.35.67,6.36-1,8.43,2.07C115.88,90.91,117.22,98.08,111.59,100.66Z"/><path class="cls-2" d="M106.2,204.92c-3,1.28-5.1-1.36-6.85-2.41-1.5-2-2.79-5-1.32-7.37.26-1.57,1.65-2.12,3.06-2.66,2.19-.32,5.33.38,6.83,2.61C111,198,110.19,203.87,106.2,204.92Z"/></g></g></g></svg>