<svg xmlns="http://www.w3.org/2000/svg" viewBox="0 0 398.86 421.05"><defs><style>.cls-1{fill:#f4d444;}</style></defs><title>ink_l06</title><g id="レイヤー_2" data-name="レイヤー 2"><g id="Content"><path class="cls-1" d="M355.48,315.33c-2.88-2.73-2-10.29-5.59-12.94-3.34-2.5-11.86,2.32-15.39,0s-1.33-13.84-4.76-16c-3.94-2.48-7.15-5.36-10.26-7.37a16.85,16.85,0,0,0-3.6-1.85l.17-.06c-.27-.71.64-.78,1-1.09-.23-.48,0-.85.09-1.27a2.41,2.41,0,0,0-1-1.72c-.23-.07-.54-.27-.84-.4a9.27,9.27,0,0,1,5,.27c3.78,1,7.61,4,12,5a6.83,6.83,0,0,1,3.15,2.13c-.07.14-.19.23-.47.17a1.82,1.82,0,0,0,1,1.2c.12.61-.86.71-.59,1.31.13.23.74.31.68.76-.54.44-.26,1.07-.47,1.66.34.26.55-.52,1-.29.2,0,.15.21.09.35s.11.27.2.3a.15.15,0,0,0-.08,0,18.56,18.56,0,0,0-1.35,2.82c-.58.72-1.69-.32-2.44.32-.19.71.65.09.91.54a6.61,6.61,0,0,1,1.55,4.71l-1.79,1s.28.33.11.45c1-.23,1.78-1,2.77-1.07,0,.13-.34,0-.25.25.31-.19.66-.54,1-.39.21.94.75.7.66,1.7.24.18.46-.07.71,0s.24.38,0,.54c.17.4.93.1,1.29.33.11.14.24.34.47.33.1-.26,0-.67.39-.72s.77.1,1.18.2l.18-.59c.2-.16.37.07.59,0,.06-.25.15-.51.21-.76.34-.27.64-.15,1,0a6.12,6.12,0,0,1,.64-2.66c-.56-1.36-.18-2.65-.39-4a4.24,4.24,0,0,0,1.85-.48c-.13.39-.7.54-.39,1.13-.09.8.78.64,1,1.27.32-.15.42.45.79.17.53.63.74-.72,1.24-.05,0-.36.19-.71.61-.61-.33-.39.12-.69.36-1,.07-.22-.3-.29-.34-.47a.91.91,0,0,1,.23-.72c-.8.3-.31-.68-1-.76a1.33,1.33,0,0,0-.76-.22c3.07-2.86,5.54-8.38,7.79-9.33,2.66-1.11,1.94-.25.76-1.89a.44.44,0,0,0-.21-.3l-.11-.19c.4-.39,1.14-.18,1.57-.4.07-.68-.51-.32-.8-.49a2.51,2.51,0,0,1,.73-1.32c0-.12-.05-.15-.11-.15a6.55,6.55,0,0,0,1.08-1,2.17,2.17,0,0,0-1.26.06,1.58,1.58,0,0,1-.15-.38c.15-.07.33-.13.39-.3-.14-.17-.3,0-.46.08a7.64,7.64,0,0,1-.1-1.42c.36-.15.81-.47.87-.86-.48-.64-1.56.74-1.66-.66-.47-.72.7-.79.48-1.41-.49-.55-.67.27-1.14.2a.55.55,0,0,1-.34-.53,3.79,3.79,0,0,0,2.37-.75c.63-.9,1.27.26,1.9.49.38.17.67-.29,1-.26-1.2-.8-2.72-1.7-3.21-3-.2-.23-.33.16-.5.11-.64-.46.41-.66,0-.93a13.14,13.14,0,0,1,1.86-1.37c0-.1-.35-.1-.17-.25a2.91,2.91,0,0,1-2.1.64c-.07-.17.15-.41.23-.52-.11-.07-.25.37-.52.28a1.91,1.91,0,0,1,.27-1.66l-.52.39c-.29,0-.34-.38-.44-.54a4.47,4.47,0,0,1-.48.89c-.2.07-.32,0-.39-.21l-.22.44c-.5.34-.13-.54-.65-.26-.53-.78-.34-1.83-.48-2.71-.16.18-.68-.25-.63.2.3.36,0,.77.26,1.19-.26.33-.31.94-.72,1.09-.33-.46-.93.32-1.14-.35-.22-.15-.28-.52-.41-.66-.14.76-1.15.87-1,1.89l-.78.33c-.34,0-.73-.39-1-.28.64.77,1.82.79,2.21,1.7a13.16,13.16,0,0,1-1.83,1.5c-.54-.79-.46-2.24-1.59-2.67-1.14.28.38,1-.05,1.69a20.33,20.33,0,0,1-1.11,2,63.91,63.91,0,0,0-6.65-2.94c-3-1.07-5.77-2.89-8.43-4.34a5.22,5.22,0,0,1,.69-1.76c.1-.46-.5-.25-.59-.52,0-1.2,1.19-.09,1.15-.84a21.11,21.11,0,0,1,3.37,1.06c.09-.14-.19-.52.15-.43a4.42,4.42,0,0,1-2.69-2c.16-.23.65-.18.85-.18,0-.2-.68,0-.81-.39a2.94,2.94,0,0,1,2.3-1.17l-1-.28c-.2-.4.16-.76.27-1a6.3,6.3,0,0,1-1.53.2.42.42,0,0,1-.1-.66l-.74.12c-.87-.31.55-.65-.26-1a.31.31,0,0,1,0-.1,6.7,6.7,0,0,1,1.64-.66l2.06,1.76s.28-.5.51-.34c-.72-1.06-1.86-1.67-2.52-2.7l.06-.05c.06.06.12.09.22,0l-.11-.08a10.4,10.4,0,0,0,1-.85c-.37,0-.31-1.07-.81-.6-.13.48-.54.65-.87.93a.64.64,0,0,1-.19-.47c1.06-.72.5-1.27,1.79-1.66.11-.38-.3-.53-.35-.88.1-.31.36-.48.66-.31.41-.41-.33-1.21-.22-1.78.11-.2.31-.46.18-.75-.37,0-.84.33-1.08-.13a1.06,1.06,0,0,1-.17-.26,11.21,11.21,0,0,1,2.64-2.29c0,.22-.5.24-.25.52.37-.45.71-1.17,1.32-1.12.81,1.29,1.48.65,1.88,2.2.46.15.65-.34,1.06-.38.37.13.56.44.35.79.46.5,1.45-.33,2.12-.18.23.14.53.39.87.24,0-.44-.34-1,.21-1.28.5-.46,1.2-.25,1.88-.32l0-1c.21-.35.6-.09.87-.33,0-.41,0-.85-.07-1.26.36-.58.88-.55,1.51-.58a9.91,9.91,0,0,1-.43-4.34,11.63,11.63,0,0,1-2-4.22,5.54,5.54,0,0,0,2-1c.43.72,1.43.28,2,1,.4-.39.87.47,1.27-.15,1.14.66.74-1.47,1.85-.73-.14-.56-.09-1.17.59-1.23-.7-.43-.19-1.11,0-1.68,0-.35-.6-.27-.77-.53a1.48,1.48,0,0,1,0-1.2c-1,.86-.83-.8-1.86-.61a15.25,15.25,0,0,0,0-8.38c-1-2.7,4.91-3.33,9.25-6.35,3.09-2.15,7.78-5,9.69-8.18,1.75-3-5-6.29-6.83-10.81-1-2.41-1.93-6.36-7.33-4.5-3.53,1.22-6.17,6.49-9.72,7.68-5.23,1.75-14.82,5.13-16.18,2.93,0,0-.53-9.7-6.92-10.75l-.35,0c2.35-2.58,3.7-7.75,7.08-9.69,2.74-1.57,3.33-6.6,5.05-9.88.37.08.79-.22,1.11-.4s.14-.7.08-1a.25.25,0,0,0-.1-.15l.3-.31.14.07a.49.49,0,0,1,.06-.23c.1-.08.19-.17.29-.24l0,0h0a6.56,6.56,0,0,1,1.7-.77l.1.08-.18,2.54s.53-.07.54.19a30.61,30.61,0,0,0,.51-3c3.59-.69,8.07.17,10.26-2a22.92,22.92,0,0,0,6.11-10.38c1.13-3.81,6.64-11,3.75-15.12-1.5-2.12-10.51-.51-15.34-1.06-3.61-.4-8.36,6.56-12,6.19-2.16-.22-3.34-2.41-4.15-4.93h.06c1.35-.19,1.88-2,3.23-1.63a1.38,1.38,0,0,0,1.17-.71c-.64-1.66.34-3.41.57-4.81-.31-.26-.59.1-.88,0-.59-.36.25-.58,0-1-.48-.68-1.26-1.37-1.29-2.15-.33-.22-.24.38-.47.45-.44.25-.63-.37-1-.35-.8-.18-.12-.81-.43-1.23-.33,0-.19.4-.23.64-.72-.87-1.84.73-2.62-.41-.32.19-.76,1-1.28.31a2.37,2.37,0,0,0,0,2c-.41.73-1.48,0-1.72.83,0,0,0,0,0,.06-3.38.65-9,3.56-13.2,4.78a16.4,16.4,0,0,0-4.06,1.95c-.05-1.72-2.46-2.25-1.82-4.19a5.76,5.76,0,0,0,3.39-3c.18-1.61,1.82-.56,2.8-.7a.68.68,0,0,0,.29-.11c.63.19,1.49.14,1.56,1.13.41,0,1.26-.54,1.37.39a2.52,2.52,0,0,0,1.14-1.87c.78-.46,1.38.81,2.06.16.25-.28.05-1.15.69-1.28.85.51,1.57-.18,2.45-.19.19-.57-1-.47-.87-1.17-.05-.3.21-.32.43-.3,1-.66-.7-1-.62-1.6.22-.39.79-.12,1.17-.32-2.25,0-.25-2-.87-3.09a3.87,3.87,0,0,1-1.68-.35c-.53-.3,0-.82-.06-1.12-.16.21-.5.3-.74.5-.49-.4.33-1-.27-1.28a2.48,2.48,0,0,0-1.32-.07,7.22,7.22,0,0,1,1.68-3.21c.22-.49-.49-.4-.54-.71.27-1.34,1.34.17,1.47-.67a25,25,0,0,1,3.47,2c.14-.13-.09-.62.27-.44a5,5,0,0,1-2.5-2.85c.22-.22.76,0,1,0,0-.22-.76-.13-.8-.62a3.27,3.27,0,0,1,2.8-.76l-1-.54c-.13-.48.35-.8.53-1.06a8.15,8.15,0,0,1-1.73-.13.48.48,0,0,1,0-.76l-.84,0c-.9-.54.75-.58-.05-1.21.84-1.38,2.62-1.83,3.91-2.67-.4-.14-.09-1.25-.76-.85-.35.72-1.2.58-1.69,1.25-.71-.17-1.69.18-2.22-.35.49-.85-1.16-1.24-.27-2,.07-.38.47-.69.66-1l.14.12a1.71,1.71,0,0,0,0-1.07,3.73,3.73,0,0,1,1.72-.25c.13.31.39.7.72.76.55-.4-.6-1.34.59-1.4.62-.39.65.61,1.18.43.48-.41-.21-.57-.15-1,.43-.7,1,.16,1.49,0,0-.33-.34-.47-.51-.67.14-1.28,1.17.24,1.53-.62a27.55,27.55,0,0,0-.16-4.26c.24-1.24,2.23-.69,2.73-1.94-.22-1-.83.3-1.43-.07-2.21-1.13-4-2.37-4.86-4.69L322,78.1s-.54-.23-.41-.47c-1.07.91-1.54,2.28-2.67,3.05,0-.19.39-.27.15-.47-.25.42-.45,1.07-1,1.11-.85-1-1.34-.36-1.88-1.62-.4-.07-.5.36-.84.45-.33-.06-.53-.3-.4-.62-.45-.37-1.18.46-1.77.42-.21-.09-.5-.26-.77-.1.05.38.42.81,0,1.11-.36.45-1,.37-1.55.51l.16.83c-.14.32-.49.15-.7.39.09.34.13.71.22,1-.23.54-.67.58-1.2.69a8.35,8.35,0,0,1,.91,3.61c1.71,1.42,2,3.48,3.42,5.1L314.8,93c.42.32.18,1,.37,1.39.77.1,0-.81.77-.79.7.21,1.05.92,1.48,1.38-1.19.13-2.07-1.17-3.46-.2l-1.07-1c-.27-.53.09-1.42-.27-1.78-.75,1.56.05,3.43-1.1,4.68-.26-.08-.51-.18-.75-.28a17.07,17.07,0,0,1,1-1.47c-.9-.74.41-1.45-.58-2.12-.4-1-1.34-.28-2-.92-.29.38-.79-.28-1.06.29-1-.41-.43,1.33-1.47.85.19.45.23,1-.34,1.12a.69.69,0,0,1,.25.17l-.4-.13a1.51,1.51,0,0,1,.09-.62c-.27-.09-.71-1.16-1.07-.53-1.64.22,1.12,1.38.85,2.27-.53,0-1.38,0-1.51.62.8.53-.18,1.07.09,1.69-.71.36-1.55-.31-2.4-.17.23,1.55,1.12,3.51,1.57,5.38.26.62,1,.8,1.51,1.16-.31,1.46-2.09,1.56-2.71,2.89a1.63,1.63,0,0,0,.05,1.56c2.54.84,3.29-2.68,5.74-1.66a6.75,6.75,0,0,0,3.25,4.22c.77.15,1,.54,1,1a1.36,1.36,0,0,1-1.11-.42,1.55,1.55,0,0,0-1.49,0c-.29,1.9-2.14,3-3.12,4.2.15.42.61.23.85.43.36.66-.55.41-.55,1,.08.89.44,2,.05,2.7.2.39.43-.23.68-.17.56,0,.39.7.75.87s.25.37.2.52a8.52,8.52,0,0,1-4.66-1.49c-.43-.16-.31.44-.57.5-1.15-.15.07-1.15-.66-1.21a22.38,22.38,0,0,1,1.44-3.07c-.12-.1-.52.12-.39-.2a4.2,4.2,0,0,1-2.26,2.3c-.2-.18-.09-.64-.06-.83-.19,0-.07.65-.48.72a2.82,2.82,0,0,1-.82-2.34l-.39.87c-.41.14-.7-.25-.94-.39a6.1,6.1,0,0,1,0,1.48c-.2.25-.44.19-.64,0l0,.72c-.4.79-.54-.6-1,.12-1.23-.63-1.72-2.12-2.51-3.16-.09.35-1.06.15-.68.7.63.25.57,1,1.17,1.35-.11.62.26,1.43-.16,1.92-.75-.37-1,1.06-1.72.35-.39,0-.72-.48-1-.57.35,1.07-.88,1.92.08,3.11l-.76,1c-.44.27-1.22,0-1.5.34a5,5,0,0,0,2.07.2c-.33.33-.66.82-1.24.66-.4.67-.05,1.74-.18,2.58a6.69,6.69,0,0,0,1.68,1.62c0,.09-.05.19-.07.28a1.19,1.19,0,0,1-.53,0c-.06.23-.94.68-.39.94.29,1.38,1.1-1,1.87-.86,0,.45.05,1.17.63,1.24.4-.71.91.09,1.43-.18.34.58-.17,1.34,0,2.05,1.31-.29,2.91-1.16,4.47-1.66.51-.26.62-.88.89-1.36,1.26.18,1.45,1.68,2.62,2.13l.19,0a25.33,25.33,0,0,1-6.37,3.45c-5.62,1.64-12.08.55-14.05-1.17-1.74-1.51-1.58-6.11-.95-11a.76.76,0,0,1,.3.07,1.57,1.57,0,0,1-.2-.81h0A.67.67,0,0,1,283,121a.79.79,0,0,1-.39-.27c0-.15.05-.3.07-.45.35-2.34-.31-5-.8-7.56a27.67,27.67,0,0,0,3.58,2.09,1.17,1.17,0,0,1-.11.51c.22.09.52,1,.85.5,1.37-.08-.83-1.2-.56-1.92.45,0,1.14.12,1.29-.42a.48.48,0,0,1-.15-.69,2.31,2.31,0,0,0,.85.6c.53-.1,1.16.08,1.64-.41.76-.49.31-1.56.13-2.27a1.23,1.23,0,0,0-.88-.51c-.19-.78-.41-1.59-.53-2.37-.18-.53-.76-.72-1.18-1,.35-1.2,1.82-1.16,2.42-2.22a1.32,1.32,0,0,0,.06-1.29c-2-.86-2.88,2-4.84,1a6.24,6.24,0,0,0-1.11-2.48c1.4-3.15,2.81-5.61,1.41-6.61a22.54,22.54,0,0,0-5.1-2.55,4.37,4.37,0,0,1-.18-2.6c-.26-.44-.49.31-.8.27-.66,0-.53-.8-1-1-.84-.66.31-1,.18-1.69-.4-.13-.45.36-.62.63-.36-1.43-2.59-.18-2.86-2-.48,0-1.46.76-1.69-.35a3.07,3.07,0,0,0-1.19,2.36.9.9,0,0,1-.8.11.38.38,0,0,0-.17-.52c-1.35-.65-2.95.68-4-.5a1.58,1.58,0,0,0-1.51-.07c-.43,1.92-2.4,2.92-3.48,4.06.13.43.61.27.84.5.32.69-.59.37-.63.93,0,.92.31,2-.14,2.76l0,0c-1.72.94-3.26,1.47-4.48.77-3.08-1.76-6.76-1.94-10.26-3.21-2.34-.85-3.54-4.41-5-7.11.53,0,1.07.48,1.68.48,0-1.33-.5-3.08-.65-4.7-.14-.55-.72-.78-1.12-1.15.44-1.19,1.94-1.05,2.62-2.09a1.34,1.34,0,0,0,.15-1.3c-2-1-3.08,1.83-5,.67a5.77,5.77,0,0,0-2.2-3.93c-1.52-.53-.14-1.88-.08-2.86.09-.6-.67-.82-.76-1.29-.63,2-1.3,4.49-2.92,5.69-.24.39.36.4.36.66-.38,1.09-1.09-.31-1.31.38a21.1,21.1,0,0,1-2.66-2.06c-.13.1,0,.53-.28.34a4.21,4.21,0,0,1,1.74,2.69c-.22.16-.64-.06-.82-.12-.07.18.61.2.59.62a2.79,2.79,0,0,1-2.43.29l.75.56c0,.43-.4.63-.58.83a6.71,6.71,0,0,1,1.44.32.41.41,0,0,1-.13.63l.7.14c.68.56-.7.39-.11,1-.87,1-2.42,1.21-3.6,1.76.32.16-.08,1,.53.8.38-.55,1.07-.34,1.57-.84.57.24,1.43.06,1.81.57-.51.65.82,1.18,0,1.74-.13.36-.62.6-.77.84h.06l-.24.17a.38.38,0,0,0-.09-.15c-.26.1-.49.45-.78.21s-.45-.63-.66-1l-.55.27c-.25,0-.19-.32-.4-.41-.22.12-.48.23-.7.35-.42-.06-.53-.36-.71-.71A6.06,6.06,0,0,1,224,86.8c-.67,1.47-2.07,2-2.93,3.37l.33.73c-.15.36-.67.32-.9.53.08.56.56-.17.7.38a1.25,1.25,0,0,1-.19.57c-2.53,1.5-5,2.73-7,2.1s-2.12-7-3.72-11.86c-.86-2.62-2.87-5.23-4.1-8.13.07-.18.11-.39.19-.57.9,0,1.16,1.06,2,1.28a1,1,0,0,0,.91-.21c.21-1.59-2-1.64-1.62-3.2a4.12,4.12,0,0,0,2.13-2.4c0-1.15,1.23-.54,1.9-.73.43-.08.4-.64.69-.81-1.49,0-3.32.17-4.51-.63-.31-.08-.18.33-.36.39-.82,0,0-.81-.56-.79a14.08,14.08,0,0,1,.76-2.27c-.09-.07-.36.12-.29-.11a3,3,0,0,1-1.4,1.8c-.16-.11-.12-.45-.11-.58s0,.46-.28.54a2,2,0,0,1-.42-.46,12.72,12.72,0,0,0-.4-4.31c0-.11-.07-.23-.11-.34a.29.29,0,0,0,.21.09l.17-.25c.11-.29.15-.63-.21-.78s-.2.23-.3.39a1.42,1.42,0,0,1,0,.25c-1.61-5-3.59-12.85-5.58-13.27s-5.36,9.49-7.54,15.95c-1.26,3.73.89,9.08-.38,13.44S188,85.56,186.74,89.3c-2.16,6.37-6.78,6.65-8.9,6.44l-1.4-8.36c-3.39-.34-3.9,1.67-6.47,4.35a3.37,3.37,0,0,1-3.34.82.45.45,0,0,0-.16-.2,3,3,0,0,0-1.8-.37c-1.68-.61-3.41-1.4-4.91-1.4a1.77,1.77,0,0,0-.07-.36c-.33,0-.51-.18-.75-.3a1.53,1.53,0,0,0-1.22.27c-.1.15-.33.32-.46.5-2.23,0-4.93-.47-7.47-4.16a4.47,4.47,0,0,1-.57-1.23.62.62,0,0,0,.23-.07c.4-.87-.24-1.44-.57-2.08q0-.59,0-1.2a3.8,3.8,0,0,0,2.53-1.56c.3-1,1.23-.14,1.88-.12.29,0,.44-.23.61-.4l.24.08c.33.14.7-.45,1-.12-.12-.56.55-.61.58-1.14a1.53,1.53,0,0,0-.68-1.46c-.48-.06-1-.36-1.5-.06-.76.23-.64,1.24-.67,1.89a1,1,0,0,0,.28.41A5.6,5.6,0,0,1,150.29,78c-.26-.16-.25.24-.43.25-.72-.23.18-.73-.28-.85a12.86,12.86,0,0,1,1.29-1.82c-.07-.08-.35,0-.23-.17a2.51,2.51,0,0,1-1.33,1.08c.13-2.14,0-4.1-.86-5.42-3.65-5.27-13.07-8.88-15.49-8.57-1.78.23-8.39,6.27-9.77,12-.43,1.79-.93,3.83-1.41,6l-.35-.27.29-2.71c0,.05-.58.06-.58-.22-.51,1.29-.28,2.71-.92,3.9-.1-.15.22-.42-.09-.48,0,.49.11,1.15-.33,1.42-1.2-.47-1.34.31-2.38-.55-.39.13-.28.56-.53.79s-.61,0-.64-.36c-.56-.11-.81,1-1.35,1.19-.23,0-.55,0-.71.28.21.3.74.51.5,1s-.69.78-1.12,1.16l.53.65c0,.34-.37.36-.43.66.23.26.44.56.68.82.05.57-.32.82-.73,1.15a8.35,8.35,0,0,1,2.47,2.74,9.08,9.08,0,0,1,3.29,1.72c-.12.68-.24,1.35-.35,2-.82-.68-1.3.38-2.12.12-.08.47-.83.12-.79.74-1.1.12.24,1.36-.89,1.42.38.31.65.75.22,1.14.69-.07.68.65.82,1.15.19.24.55-.12.79,0a1.24,1.24,0,0,1,.62.8c.24-1,.82-.11,1.37-.36,1,3.2,3.65,6.54,3.09,9-1.26,5.66-3.77,6.35-5.33,7-1.79.7-5,2.91-9.25-.76C105,113.27,99,113.73,96.15,111s-5.51-5.21-8.09-7.47c-4.27-3.73-1.82-7.33-3.52-6.39a5.42,5.42,0,0,0-2,1.78c-.47-.12-1.49,0-1.68-.45.34-.28.9-.68.64-1.17-.78.07-.43-.77-.92-1,.27-.59,1.14-.6,1.61-1.11-.94-.88-2.5-1.66-3.74-2.62-.49-.25-1,0-1.55,0-.56-1.09.52-2.06.24-3.22a1.32,1.32,0,0,0-.83-1c-2,.77-.72,3.38-2.79,4a5.58,5.58,0,0,0-4.22-1c-1.37.73-1.43-1.13-2.08-1.82-.36-.45-1,0-1.41-.3,1,1.75,2.32,3.85,2.12,5.79.11.42.52,0,.7.18.52,1-.93.57-.59,1.17a20.16,20.16,0,0,1-3.2.54c0,.15.38.35.06.42a4,4,0,0,1,3,.52c0,.26-.46.42-.62.51.09.16.55-.31.83,0a2.67,2.67,0,0,1-1.39,1.91l.89-.16c.34.24.19.69.21.95a5.65,5.65,0,0,1,1.17-.8c.3,0,.38.24.36.5l.55-.41c.84-.11-.18.76.65.74.17,1.31-.73,2.5-1.11,3.7.32-.12.69.74.91.15-.14-.64.46-1,.43-1.66.54-.25,1-1,1.59-.91.12.78,1.37.19,1.22,1.16.17.32,0,.82.09,1.09.66-.86,2-.36,2.4-1.76l1.18.07c.44.21.67,1,1.08,1-.32-1.37-1.78-2.14-1.69-3.52,1.51-.62,3.14-.49,4.66-1.16a1.28,1.28,0,0,1,.26.44,1.37,1.37,0,0,1,.52.07c-.48,1.34-.45,3.29.57,6.29,1.31,3.84,6.09,7,7.4,10.89,2,5.82.71,10.85-1.12,12.21-1,.77-1.88,5.17-4.33,8.5-1.37.16-2.56,1.56-4,.46a6.09,6.09,0,0,0-1.86-4.4c-1.53-.73.07-2,.26-3,.16-.62-.62-.95-.65-1.45-.9,2-1.9,4.57-3.75,5.66-.3.37.34.45.3.73-.53,1.1-1.11-.45-1.42.25a22.1,22.1,0,0,1-2.56-2.48c-.15.08-.07.56-.34.32a4.45,4.45,0,0,1,1.52,3c-.25.15-.67-.13-.85-.22-.09.18.62.29.55.72a2.93,2.93,0,0,1-2.6,0l.73.69c0,.45-.49.61-.71.8a6.63,6.63,0,0,1,1.48.51c.17.29,0,.5-.21.65l.72.23c.65.66-.79.33-.23,1-1,1-2.69,1-4,1.42.31.21-.21,1.11.46.91.47-.54,1.17-.23,1.75-.7.57.32,1.5.23,1.85.82-.62.62.72,1.34-.24,1.83-.17.37-.72.55-.91.79.89,0,1.35.85,2.14,1.06l-.1.07c-3.68,2.35-11.55-1.64-14.16.69-4.4,3.92-8.27,9.91-4.7,12.19,2.61,5.76-2.17,3.73-2.43,11.17-.13,3.77,2.75,8.22,2.59,12.76-.14,4.16-1.4,8.44-1.54,12.61-.16,4.51-3,8.77-3.14,12.57-.19,6.26-.45,11.2-.45,12.82,0,6.43-.74,7.6,0,14.11.37,3.23-4.33,12.18-9.63,14.91a8.53,8.53,0,0,1-1.22.51,6.07,6.07,0,0,1-.77-1.09c-1.12.64-1.33-1-2.42-.25-1.23,0-.85,1.27-1.76,1.66a.29.29,0,0,1,0,.23c-2.86-.16-4.88-.77-4.41,1.23s-1.44,4.48-2.82,6.8c-1.2.31-2.2.61-2.51,2,.75.23.23,1,.28,1.5.53.12.69.56,1,.89l.12.05c.95,2.82,4.66,5,5.76,8.11.4,1.13,3.84,2.24,6.76,4.46a1.27,1.27,0,0,0-.48,0c-1.72,1.77.9,3.8-.93,5.43a6.27,6.27,0,0,0-4.81,1c-1,1.41-2-.47-3-.85-.59-.29-1.08.43-1.59.37,1.87,1.31,4.24,2.81,5,4.89.32.38.53-.24.81-.16,1,.76-.68,1,0,1.49a22.8,22.8,0,0,1-3,2.1c.06.17.56.18.27.4a4.58,4.58,0,0,1,3.36-.93c.1.27-.27.65-.39.81.17.13.41-.57.84-.41a3,3,0,0,1-.5,2.63l.84-.6c.46.08.52.61.67.87a7,7,0,0,1,.81-1.39c.33-.12.51.06.61.34l.37-.69c.8-.52.18.86,1,.45.81,1.25.47,2.91.65,4.32.28-.28,1.08.42,1-.29-.45-.58,0-1.23-.36-1.91.43-.52.53-1.47,1.18-1.7.51.74,1.5-.47,1.81.59a1.39,1.39,0,0,1,.34.5c-.3.1-.7-.15-.94-.09.25.16.38.52.63.75-.38.58-1.1-.25-1.36.45a1.73,1.73,0,0,0-.07.59v.08c.07,1.29,1.18,2.51.28,3.61a1.65,1.65,0,0,0,.21,1.61c2.11.1,3.54,2,4.94,2.93.44-.22.18-.7.38-1,.67-.47.5.55,1.1.49h0c.1.19.18.4.27.59,1.91,3.8-1,9.93.69,13.1l.06.12a6.65,6.65,0,0,0-.65.51c-.85.33-1.27-1.11-2.23-.94-.52.51.5.4.5.91a6.44,6.44,0,0,1-1,4.78l-2-.08s.06.42-.14.44c1,.3,2,.07,2.9.48-.11.08-.32-.14-.35.09.36,0,.84-.14,1.06.17-.29.9.29,1-.29,1.77.11.28.42.18.6.35s0,.44-.23.48c0,.26.25.41.52.57-.3.32-.62.61-.92.53,0-.49,0-1.25-.61-1.36-.46.74-1-.13-1.53.13-.34-.64.24-1.42.1-2.19-1.41.25-3.17,1.11-4.85,1.56-.56.26-.7.91-1,1.41-1.34-.25-1.47-1.86-2.7-2.39a1.47,1.47,0,0,0-1.41.08c-.7,2.33,2.51,2.92,1.65,5.17a6.18,6.18,0,0,0-3.76,3.07c-.27,1.7-2,.5-3,.61-.65,0-.74.87-1.22,1,2.23.3,5,.54,6.57,2,.45.19.35-.46.63-.51,1.22.21-.12,1.22.65,1.32A21.39,21.39,0,0,1,32.8,341c.13.12.57-.09.41.24a4.56,4.56,0,0,1,2.52-2.35c.21.2.06.69,0,.89.2,0,.1-.69.54-.74a3,3,0,0,1,.77,2.53l.45-.91c.45-.13.74.3,1,.46a6.87,6.87,0,0,1,.07-1.58.44.44,0,0,1,.69,0l0-.77c.46-.82.55.67,1.09-.07,1.27.73,1.73,2.33,2.53,3.48.11-.37,1.13-.11.75-.71-.66-.3-.56-1.07-1.18-1.5.14-.65-.21-1.53.26-2,.79.42,1.1-1.09,1.86-.3.4.07.74.55,1,.66-.32-1.17,1-2,.06-3.32l.86-1c.48-.25,1.3,0,1.61-.29-1.44-.64-3.11.14-4.27-.88.47-1.76,1.68-3.13,2.11-4.92a2.55,2.55,0,0,1,.38,0,.35.35,0,0,0,.18.23c.21-.17.34-.56.69-.41s.6.46.91.76l.44-.41c.25,0,.28.24.51.27.18-.18.39-.35.56-.53.42-.07.62.19.88.48A7.29,7.29,0,0,1,52,326.66a21.75,21.75,0,0,0,1.32,2.08c2.15,2.8.94,4.94,1.72,8.69s6.26,7.3,8.71,9.89c1.8,1.92,6.09-2.38,10.7-3.54,3.38-.84,7.51-.3,10.9-1.16,4.56-1.17,13-5.33,14.91-3.64,1.58,1.38,4.51,7,6.75,11.35,1.37,2.67-1.82,8-1.4,11.58a1.6,1.6,0,0,1-.26-.26c-.43.15.15.79-.3,1.05-.16.17-.29,0-.38-.11-.85-.31-.26.86-.67,1.09-.33.05-.43-.41-.72-.55,1,1.33-1.1,1.07-1.44,1.92a2.79,2.79,0,0,1,.55,1.15c.06.45-.48.38-.64.54a5.43,5.43,0,0,1,.64.22c0,.47-.73.24-.64.74.29,1.06,1.8,1.3,1.64,2.42a1.13,1.13,0,0,0,.69.87,4.84,4.84,0,0,1,3.12-.14,9.5,9.5,0,0,0,.93,3.69c2.38,4.31,7.91,6.37,9.75,7.42,3.09,1.76,7.73-2.16,11-1.38s3.64,10.12,6.85,11.55c2.44,1.08,5.1-9.54,8.67-15.11,1.27-2,4.71-2.76,7.95-3.65a4.78,4.78,0,0,0-1.85,2.33c-.08,1.44-1.59.6-2.45.78-.53.08-.54.79-.92,1,1.88.05,4.19,0,5.64,1.09.39.12.25-.41.48-.47,1,.06,0,1,.65,1a18.42,18.42,0,0,1-1.11,2.81c.12.09.46-.13.36.16a3.77,3.77,0,0,1,1.88-2.17c.19.14.11.56.1.73.18,0,0-.58.39-.66a2.5,2.5,0,0,1,.86,2l.3-.79c.35-.15.64.19.85.29a5.89,5.89,0,0,1-.08-1.32.38.38,0,0,1,.58,0l-.06-.64c.31-.72.52.51.9-.16,1.12.49,1.64,1.78,2.41,2.66.06-.31.93-.19.56-.65-.57-.2-.56-.84-1.11-1.14.06-.56-.31-1.25,0-1.71.69.28.82-1,1.51-.41.34,0,.67.38.91.45-.36-.94.68-1.76-.24-2.76l.62-.9c.37-.26,1.08-.09,1.31-.39-1.25-.41-2.57.39-3.62-.35.23-1.5,1.11-2.74,1.31-4.27a1.29,1.29,0,0,1,.48,0c0-.21.79-.65.29-.85-.34-1.22-.92,1-1.62.87-.05-.4-.11-1-.62-1.07-.32.65-.82,0-1.26.24a1,1,0,0,1-.14-.69c2.13-4.6.73-7.9,2.93-7.18,6.59,2.14,13.64-7.32,16.25-.95,1,2.39,2.33,6.46,4.6,8.85a6.38,6.38,0,0,0-.87.51c-.85-.72-.29-1.92-.94-2.79a1.22,1.22,0,0,0-1-.52c-1.44,1.37.59,3.09-.93,4.34a5.08,5.08,0,0,0-3.91.64c-.89,1.1-1.6-.44-2.39-.79-.47-.25-.89.32-1.3.25,1.47,1.12,3.32,2.41,3.84,4.11.24.32.43-.18.65-.09.78.64-.58.81-.07,1.19a18.64,18.64,0,0,1-2.5,1.59c0,.13.43.16.19.33a3.65,3.65,0,0,1,2.74-.63c.07.22-.23.51-.34.64.13.1.35-.45.69-.31a2.45,2.45,0,0,1-.49,2.1l.7-.45c.36.08.4.51.51.72a5.76,5.76,0,0,1,.69-1.09.36.36,0,0,1,.48.3l.33-.54c.64-.38.16.61.74.41-.49.48-1.52.36-1.48,1.25,0,.43,1,.93.59,1.6-1.1.35-1.06,1.51-1.74,2.29.36.62,1.17-.47,1.71.14.3.19.12.43-.07.61-.2,1.4,1.4.14,1.88.69.18.49-.49.79-.62,1.28,1.73-2,2,1.36,3.39,1.62a4.39,4.39,0,0,1,1.6-1.2c.67-.24.73.62,1,.8-.06-.3.13-.66.13-1,.73-.11.6,1,1.33.75,1.54-.78,1.44-3.16,3.21-3.26a1.78,1.78,0,0,0,1.11-1.33c-1.44-1.72-1-4.21-1.27-6-.49-.19-.67.35-1,.41-.85-.19.07-.79-.41-1.22a8.84,8.84,0,0,1-2.26-1.73,7.42,7.42,0,0,0,1.36-1.08,1.1,1.1,0,0,1,.38.27c.15-.14,1-.06.72-.51.44-1.16-1.29.25-1.78-.24.19-.35.51-.89.12-1.21-.63.34-.63-.49-1.14-.54a.87.87,0,0,1,.16-.44c3.29-.39,7.11-10.31,10.93-10.72,3.35-.37,7.15,3.13,10.37,3.53a2,2,0,0,0-.5.45c1.21.92,3.15,1.68,4.72,2.67.61.25,1.22-.11,1.83-.22.78,1.23-.39,2.49.08,3.84a1.58,1.58,0,0,0,1.09,1.05c2.32-1.14.47-4.08,2.86-5a6.58,6.58,0,0,0,5.11.73c1.53-1,1.81,1.18,2.66,1.92.48.49,1.22-.05,1.7.2-1.38-2-3.18-4.3-3.15-6.62-.18-.49-.61.06-.86-.13l0-.07c2.78-.67,5.93-1.42,8,.07,2.85,2.1,1.9.95,5,.15,6.19-1.58,7.34.72,13.17-1.58,1.53-.6,5.2-8.45,11.25-7.75,3.66.42,7.69,2.72,12,3.32,2.81.38,5.39,3,8.06,4.7-.13.14-.26.28-.4.41l-2.45-.6s0,.53-.28.5c1.13.63,2.45.6,3.46,1.32-.15.08-.35-.25-.45,0,.45.08,1.07,0,1.26.48-.58,1,.12,1.26-.79,2.12.07.36.47.31.65.58s-.09.55-.41.53c-.17.51.78.87.92,1.39,0,.21-.06.51.17.69.3-.16.56-.62.95-.35a1.33,1.33,0,0,1,.68.75,1,1,0,0,0-.33.31,3.9,3.9,0,0,1,.48,1.72c0,.64-.74.41-1,.6.28.05.52.32.82.44-.14.65-1.06.16-1.05.87.15,1.53,2.16,2.22,1.67,3.72a1.59,1.59,0,0,0,.74,1.36c1.91-.64,3.83.54,5.4.88.32-.34-.08-.68,0-1,.44-.65.64.31,1.16.05a13.37,13.37,0,0,1,1.82-1.21,2.11,2.11,0,0,0-.37,2.42c.59-.28.7.5,1,.76.39-.21.72,0,1.08,0a2.09,2.09,0,0,0,1.41-1c.11-.49.81-1.35,0-1.5.68-.93-.89-.65-.89-1.53-.49-.13-1.08.2-1.64.35-.14-.06-.33-.1-.37-.24-.26-.51.46-.69.45-1.11.24-.9.92-.1,1.4-.43,0-.36-.43-.23-.7-.28,1-.77-.74-2.12.59-2.93-.2-.38-1.1-.92-.29-1.47a2.67,2.67,0,0,0-2.29-.16c-.8-.49.09-1.66-.84-2-.38-.09-1.09.51-1.52,0a1.33,1.33,0,0,0-.15-.71c.8-1.32,2.07-2.18,2.84-3.64l-.5-.87c.15-.46.81-.48,1.08-.76-.16-.69-.69.26-.92-.41-.05-.79.66-1.37.84-2a1.63,1.63,0,0,0-.92.36,2.25,2.25,0,0,1-.54-.86c1.66-1.12,3.24-2,4.64-1.9,3.5.29,7.33,3.08,10.24,5.26a7.84,7.84,0,0,0-.74.48c.33.08.13,1,.64.64a1.33,1.33,0,0,1,.76-.62c1,.73,1.81,1.35,2.47,1.74a3.44,3.44,0,0,0-.38.55c1-.31,1.8.86,2.93,0l.9.74c.24.41,0,1.14.29,1.41.54-1.28-.18-2.74.69-3.79,1.56.38,2.8,1.42,4.39,1.76a1.07,1.07,0,0,1-.05.5c.22.06.63.9.88.38,1.31-.25-1-1.05-.77-1.78.42,0,1.1,0,1.18-.57-.67-.39.1-.86-.15-1.35.56-.31,1.27.18,1.94,0-.25-1.24-1.05-2.77-1.49-4.25-.24-.48-.82-.59-1.26-.86.18-1.19,1.61-1.34,2.05-2.43a1.33,1.33,0,0,0-.11-1.25,2.25,2.25,0,0,0-2.23.79,2.53,2.53,0,0,0-1.25,0c-.64-.52.25-1.44-.52-1.81-.32-.12-1,.32-1.31-.19a.82.82,0,0,0,0-.27,4.9,4.9,0,0,1,.48-.31c2.91-1.51,9.76,2.19,11.93-2.24a25.73,25.73,0,0,1,2.73-3.84c.3.22,1,.1.59.79,0,.6-.71.2-.81.65.08.5.49.09.74.31.31.6-.54.65-.61,1.05.24.13.47,0,.68-.06.84.64-.67.71-.22,1.33h0a2.78,2.78,0,0,0,.25,1.46c.35.44.88.38,1.35.39s.46-.6.83-.4h0c.2.09.39.19.59.27.76.7-.49,1.85.17,2.74.77.27.14-.72.67-1,1.73-1.05,3.36-1.74,5.36-1.36l.93,2.06s.39-.28.51-.08c-.18-1.14-.93-2.06-1-3.18.14.07,0,.39.27.31-.19-.36-.56-.78-.36-1.16,1.06-.16.83-.78,1.94-.61.22-.25,0-.51.05-.78s.44-.24.61,0c.45-.16.18-1,.47-1.41.15-.11.39-.24.39-.5-.28-.13-.74-.06-.76-.48s.17-.85.31-1.31l-.64-.24c-.17-.24.11-.41,0-.66-.27-.08-.55-.21-.82-.3-.28-.39-.11-.72,0-1.13-.44-.07-.91-.15-1.36-.26,0-.48.28-1-.42-1.34-.52-.94-1.33-.11-2-.64-.23.41-.8-.17-1,.41-1.05-.26-.25,1.34-1.31,1l0,0a7.17,7.17,0,0,0-1.9.05l-.34.83c-.33.12-.63-.15-.92-.28a11.9,11.9,0,0,0,1.13-2.74c.65,0,.68.9,1.48.55.89.16.78-.82,1.49-1a.23.23,0,0,1,0-.24l.25.16a6.6,6.6,0,0,0,4.37.52,7.7,7.7,0,0,0,1.18,1.32l1-.31c.45.26.31,1,.54,1.29.75,0-.11-.78.63-.85.83.13,1.27,1,1.86,1.32a1.65,1.65,0,0,0-.16-1A3.61,3.61,0,0,1,350,341c.16.28.47.62.79.63.47-.45-.75-1.21.39-1.41.54-.46.7.5,1.19.25a.43.43,0,0,0,.12-.23c2.23,1.16,4,2.49,6.6,1s8-1.52,10.19-5.53c2.11-3.77-1.84-8.6-4.17-12.82C363.29,319.72,358.93,318.6,355.48,315.33Zm-18.39-29.85c.25-.11.55-.42.78-.3a.66.66,0,0,0,.05.28c0,.13-.07.26-.1.4C337.52,286.08,337.35,285.58,337.09,285.48Zm.86.23,0-.06h0Zm.39-.27a.86.86,0,0,1,.42.15A.37.37,0,0,1,338.34,285.44ZM293.45,123.62l0,0h.06S293.46,123.6,293.45,123.62ZM38.71,281.24c-1-.76-.57-2.08-1.13-3.1a10.48,10.48,0,0,1,2,2.49C39.31,280.8,39,281.06,38.71,281.24Zm148.17,93.88a.49.49,0,0,1-.39.17l.46-.3A.21.21,0,0,1,186.88,375.12Zm126.24-98.75.57.42C313.16,276.81,313.06,276.88,313.12,276.37Zm-1.74-26.73c-.11-.94,3-1.39,6.81-2.06a6.32,6.32,0,0,0,0,1,2.21,2.21,0,0,0-1,.09c.48,1.31,1.61,2.84,2.34,4.38.34.49,1,.52,1.52.73a1,1,0,0,1,0,.25C316.25,252.48,311.54,251,311.38,249.64Zm21.73-11.12a.76.76,0,0,0,0-.15l-.82.07c-.3-.17-.11-.48-.3-.71a.86.86,0,0,0,.11-.19c.11-.51-.36-.34-.62-.49.08-1.25.16-2.53.34-3.71a8.7,8.7,0,0,1,2.06,3.41.82.82,0,0,0-.22.69.47.47,0,0,0,.34-.26c0,.1.06.19.08.29ZM307.8,185.6c-1,.53-1.58.9-1.58.9C305.92,186,306.57,185.78,307.8,185.6Zm19.12,146.59-1,.39A1,1,0,0,1,326.92,332.19Zm5.93,13.29a1.68,1.68,0,0,0-.39,0c.32-.41.64-.85,1-1.29h0A3,3,0,0,1,332.85,345.48Zm1.67-2.25a1.33,1.33,0,0,1-.68.31c.17-.26.34-.53.5-.8C334.5,342.85,334.72,342.93,334.52,343.23Zm17.06-41.9c-.24.37.32.45.18.57-.21,0-.42-.2-.32-.45Zm18.8,28.05c-.23.21-.17.73-.64.49s-.29-.89,0-1.31l.36-.33C370.69,328.44,370.35,329.07,370.38,329.38Zm9.25-15.26c1.15,1.2,3,.52,4.49,1.34-.37.33-1.22-.07-1.75.17l-1,1c.91,1.49-.61,2.27-.38,3.55-.29-.15-.61-.69-1-.8-.73-.91-1.21.67-2,.14-.55.5-.25,1.47-.46,2.15.62.52.44,1.33,1.12,1.72.35.67-.72.3-.87.69-.75-1.31-1.09-3.06-2.38-4-.65.74-.61-.86-1.18,0l-.09.83c-.2-.23-.46-.34-.73-.09a7.17,7.17,0,0,0-.23,1.68c-.25-.19-.52-.68-1-.58l-.57.93a3.21,3.21,0,0,0-.58-2.77c-.48,0-.44.8-.65.74.05-.21.26-.72.05-.95a4.87,4.87,0,0,0-2.91,2.27c.19-.34-.29-.15-.42-.29a24.11,24.11,0,0,0,2.1-3.27c-.82-.17.72-1.13-.57-1.46-.31,0-.26.72-.72.48-1.56-1.74-4.48-2.25-6.84-2.78.53-.14.71-1.05,1.4-1,1.13,0,2.83,1.42,3.28-.38a6.65,6.65,0,0,1,4.3-2.93c1.13-2.32-2.25-3.25-1.29-5.68a1.61,1.61,0,0,1,1.52,0c1.26.69,1.25,2.42,2.66,2.81.38-.5.59-1.19,1.21-1.41,1.85-.33,3.8-1.09,5.33-1.22.09.83-.61,1.61-.3,2.33.62-.23,1.09.75,1.65,0,.64.17.55,1,.52,1.51.85.31,2.13-2.31,2.26-.7.59.38-.48.76-.58,1a1.61,1.61,0,0,0-.6-.12C381.72,310.94,380.3,312.29,379.63,314.12Zm.54,8.08c-.27.24-.91.07-.67-.39S380.58,321.83,380.17,322.2Zm7.12,4c-.27.24-.77-.14-.71-.52A.86.86,0,0,1,387.29,326.21Zm-10.1-44.39a.62.62,0,0,1-1,.29c-.29-.32-.3-.88.1-1C376.7,281.27,377.35,281.27,377.19,281.82Zm14.66-3.21c-1.75.16-.66,2.39-2.07,2.66.25.19.73.26.58.64-.66.1-.94-1.05-1.64-.26-.2.42-1,.24-1,.9-.06.3.67.55.22.79-.89-.44-2.13,0-3.18.12-.65,0-.38-1.06-1.14-.62-.23.29,0,.82-.49,1-1.42-1.12-2.77-3.28-5-3.59a1.8,1.8,0,0,1-.07-1.74c1.25-1.28-.44-3,.17-4.6.35-.72,1,.24,1.5-.35-.25-.27-.35-.67-.6-.86.35-.06,1,.54,1.31-.1a4.58,4.58,0,0,0,.37-2c1.21-.76,3.69,1.55,3.62-1.1.24.44-.06,1.12.41,1.37.73.08,1.06-1.94,1.86-.77,0,.26,0,.57.37.5.82.09.68-1.26,1.36-1.05,0,1,.85,1.87.27,2.88.18.75,1.19.5,1.52.78.78.79-.69,1.53-.13,2.43a3,3,0,0,1,2.23,1.3C391.19,277.13,391.83,278.13,391.85,278.61ZM336.46,301c.26,0,.41.37.22.57A.64.64,0,0,1,336.46,301Zm26.33-25.58c.22-.16-.08-.32,0-.36s.2.2.09.32Zm-4-19.71c.19.31,0,.55-.27.72l-.28.11c-.28-.24,0-.52.09-.7S358.59,255.44,358.8,255.68Zm-7.13,2.39c-.2.19-.6-.24-.3-.36S351.9,257.86,351.67,258.07Zm12,33c-.17.38.21,1.05-.14,1.26a.31.31,0,0,0-.51.12c0,.24.24.41.1.66-1,.05-.66.53-1.51.85-.1.35.28.63.5.9-.19.11-.15-.18-.28-.21.24.93,1,1.57,1.37,2.49-.13-.15-.42.12-.41.15l-1.13-1.56a6.29,6.29,0,0,0-4.25,2.08c-.39.31.31,1-.39.93a.9.9,0,0,1-.29-.57.17.17,0,0,1-.25,0l0-.11c.08.15.19.1.27.07-.06-.6.21-1.29-.33-1.61a10,10,0,0,1-1.7-.49,2.29,2.29,0,0,1-.34.78c-.23.18-.53.24-.65.58a2.94,2.94,0,0,1-.51-.13,2.23,2.23,0,0,1-.44.13.35.35,0,0,0-.05.08l-.12-.06a4.39,4.39,0,0,1-.88,0c-.42-.2-.75-.56-1.32-.46-.24-.45-.05-1.44-.88-1.36-.26-1.58.78-2.26,2-3.15a14,14,0,0,0,1.73.09c-.05-.38-.7-.06-.81-.45a.86.86,0,0,1,.67-.29,2.71,2.71,0,0,0,.25-1.19,1.29,1.29,0,0,1-.72-.24c.41-.27,1.11-.26,1.47-.75.2-.51-.58-.21-.33-.69.29,0,.69.28,1,.08l.15-.75c1.42-.58,2.83-.25,4.17-1a5.91,5.91,0,0,0,2.6.27c-.06.37-.14.67.16.95.24,0,.5.08.74.11.12.19-.08.38.1.55l.58.09c0,.41-.25.8,0,1.14s.47.22.73.27C364,290.82,363.78,291,363.67,291.09ZM348.28,254c.2-.08.4.24.28.44A.53.53,0,0,1,348.28,254Zm5.62,29.24a.93.93,0,0,0,.71.12c.17-.07.19-.43.4-.39l.17.13a.74.74,0,0,1,0-.14c-.68-.3.1-.91-.36-1.24.73-.74-.16-1.83,1-2.33.76-1.17,1.63.35,2.48-.73a8.1,8.1,0,0,0,1.34.84c.15-.48-.62-1,.16-1.18-.43-.5.41-.67.71-.9a1.63,1.63,0,0,1,1.3.13c.19.2.29.48.63.54,0,.3-.28.81.2.94-.19.94-.91,1.09-1.76,1.33a3,3,0,0,0-.36-.18,2.06,2.06,0,0,1,.52,1.55c.42,1-1.33,1.1-.29,2a1.51,1.51,0,0,0-1.19.24c-.23.2,0,.78-.39.84-.6-.12-1.36-.51-1.67.26a.64.64,0,0,0-.62-.53c0,.09,0,.19-.11.33.31.31-.25.48-.06.76-.49.22-.37.84-.81,1,0,0,0,0,0,0-.14.42-.26,1.11-.8,1.12s-.68-.2-1-.32a1.06,1.06,0,0,1-.17-1.1v0c-.4-.57-1.17-1.11-.73-2.07C353.3,283.59,354.28,283.92,353.9,283.21ZM321,273.63c0,.2-.07.42-.32.39l-.14-.09C321,274.05,320.9,273.54,321,273.63Zm19.69-22.85c.23.15.68,0,.58.44s-.71.47-1.14.32l-.38-.24C339.83,250.72,340.47,250.87,340.73,250.78Zm36.71,45.44c0,.19.34.31.07.49s-.57-.1-.72-.38l-.07-.3C377,295.77,377.26,296.14,377.44,296.22Zm-7.63-13.56c.39-.21.27.48.38.62a1,1,0,0,0-.25.29c.84.9,1.15,2.09,1.95,3,1-.27,1.19-1.49,2.08-2.05.07.3-.4.64-.43,1l.23.85c1.09-.05,1.06,1,1.82,1.27-.17.12-.56.13-.75.33-.72.13,0,.86-.52,1.14.1.45.72.58,1,.9.47-.18.86.16,1.27-.09.48,0,0,.48.12.68-.94,0-2-.33-2.88.11.21.58-.65.07-.37.63l.42.3c-.18,0-.31.15-.26.37a4.17,4.17,0,0,0,.85.63c-.18.08-.53.09-.62.38l.33.59a2,2,0,0,0-1.69-.51c-.13.26.31.48.21.58-.1-.1-.32-.36-.5-.32a3,3,0,0,0,.36,2.27c-.12-.2-.17.12-.28.14a15,15,0,0,0-1.15-2.13c-.35.4-.41-.73-1-.13-.07.18.32.36.05.54-1.42.33-2.58,1.77-3.58,2.9.08-.33-.36-.7-.12-1.07.32-.62,1.62-1.12.78-1.9a3.77,3.77,0,0,1-.48-2.07c-.66.15-1.44.29-1.8-.34a1.67,1.67,0,0,1-.29-1.3,1.42,1.42,0,0,1-1.23-.53,1,1,0,0,1,.48-.81c.75-.49,1.7,0,2.33-.62-.16-.35-.47-.68-.4-1.08.37-1.11.55-2.4.93-3.28.48.21.7.82,1.18.87.07-.41.75-.37.5-.9.29-.3.71,0,1,.17C369.94,283.73,368.89,282.24,369.81,282.66Zm6.65,6c.05.22-.23.52-.41.25S376.38,288.37,376.46,288.71Zm3.84-2.45a.53.53,0,0,1,.49-.23C380.85,286.25,380.49,286.41,380.3,286.26Zm-12.4-53.51-.09-.15c.33.3.49-.24.59-.09C368.31,232.71,368.14,232.9,367.9,232.75Zm30.87-13.21c-.46.42-.92.14-1.29-.21l-.25-.41c.3-.55.86-.11,1.16-.09C398.56,219.09,399.08,219.12,398.77,219.54Zm-4.37-8.78c-1.4.52-3.18.56-4.28,1.68.63.76-.94.45-.21,1.15l.79.22a.47.47,0,0,0-.21.7,7.18,7.18,0,0,0,1.61.5c-.22.22-.75.41-.73.9l.81.71a3.21,3.21,0,0,0-2.81.11c-.06.48.71.56.62.76-.2-.09-.67-.37-.92-.21a4.74,4.74,0,0,0,1.74,3.23c-.3-.24-.2.26-.35.36a23,23,0,0,0-2.86-2.59c-.31.77-1-.89-1.53.31,0,.3.67.37.35.79-2,1.23-2.94,4-3.85,6.24-.05-.54-.91-.87-.75-1.54.16-1.12,1.86-2.54.17-3.28a6.6,6.6,0,0,1-2.16-4.69c-2.09-1.5-3.56,1.66-5.78.32a1.58,1.58,0,0,1,.3-1.48c.87-1.13,2.57-.83,3.18-2.15-.42-.45-1.06-.77-1.18-1.42,0-1.86-.43-3.9-.31-5.42.83.06,1.48.87,2.23.69-.12-.65.92-.94.28-1.62.27-.6,1.06-.38,1.56-.26.45-.79-1.91-2.47-.31-2.33.47-.51.66.6.9.74a1.54,1.54,0,0,0-.22.57c1.73.92,2.82,2.54,4.51,3.5,1.36-.93,1-2.87,2.05-4.17.26.41-.27,1.17-.13,1.73l.8,1.16c1.61-.65,2.12,1,3.41.95-.2.27-.78.49-1,.89-1,.56.46,1.3-.19,2,.39.62,1.4.49,2,.81.61-.52,1.38-.21,1.87-.81C394.58,209.57,394.05,210.55,394.4,210.76Zm-35.3,20.47c.31-.77.2-1.85.72-2.4,1,.54,1.65-1.39,2.27-.05.68-.86,1.22.45,1.7.87a2.6,2.6,0,0,1,.21,2.17c-.26.38-.67.64-.67,1.22-.48.15-1.42-.19-1.47.64C360.27,233.67,359.78,232.54,359.1,231.23Zm33.39-22.58c-.38-.27.2-1.06.49-.6C393.18,208.36,392.91,209,392.49,208.65Zm5-6.3a.9.9,0,0,1,.63-.61C398.28,202.05,397.83,202.48,397.46,202.35Zm-38.61,15.48a1.66,1.66,0,0,1-.83-1.56c0-.57.72-.67.55-1.28.37.34.74-.32,1.11-.2.53.17,1.17.27,1.43.9,0,.72.2,1.82-.62,2.12C359.93,218.17,359.38,217.86,358.85,217.83ZM300.68,109.74c.17-.2.06-.65.49-.49s.36.73.16,1.13l-.28.32C300.51,110.59,300.73,110,300.68,109.74ZM293,117.07c.21-.24.79-.17.63.26S292.7,117.44,293,117.07Zm-5.94-2.29a.78.78,0,0,1-.67-.37C286.61,114.16,287.08,114.43,287.07,114.78Zm56.66,67.76c.4,0,.32.45.39.63-.09.16,0,.46-.28.4s-.35-.46-.26-.76Zm4.82-9.79-.41.78c.83.7.08,1.45.46,2.16-.2,0-.49-.29-.76-.27-.61-.4-.59.63-1.16.47-.23.4.13.91.14,1.36.46.18.52.69,1,.79.33.33-.36.32-.38.58-.69-.63-1.23-1.6-2.17-1.88-.24.56-.52-.39-.69.21l.1.5a.3.3,0,0,0-.45.09,4.75,4.75,0,0,0,.19,1c-.18-.06-.44-.3-.7-.15l-.17.66a2,2,0,0,0-.87-1.53c-.28.11-.1.56-.24.57s0-.48-.15-.57a3,3,0,0,0-1.28,1.89c.05-.23-.21,0-.3-.08a14.63,14.63,0,0,0,.6-2.34c-.51.06.21-.8-.61-.75-.18.07,0,.48-.34.42-1.25-.73-3.07-.47-4.56-.32.28-.19.21-.76.63-.87.66-.23,1.94.3,1.86-.85a4.09,4.09,0,0,1,2-2.55c.22-1.59-1.95-1.49-1.85-3.1a1,1,0,0,1,.91-.27c.87.16,1.2,1.18,2.11,1.14.12-.37.12-.81.44-1.07,1-.54,2-1.37,2.91-1.74.21.48,0,1.07.26,1.43.33-.25.79.24,1-.31.41,0,.51.48.6.79.56,0,.81-1.77,1.19-.85.42.12-.13.54-.14.71a1,1,0,0,0-.38,0c0,1.22-.59,2.29-.63,3.5.9.49,1.87-.27,2.9-.07C349.4,172.58,348.82,172.51,348.55,172.75Zm0,4.3c-.12.2-.53.22-.47-.1S348.69,176.75,348.52,177.05Zm4.45.83a.54.54,0,0,1,.52.16C353.37,178.24,353,178.12,353,177.88Zm14.75-61.44c-.09-.49.48-.49.68-.63.22.09.56-.15.57.26s-.49.54-.89.5Zm-19.51,2.39c.54-.37,1.35-.19,1.72-.67-.39-.35.11-1-.62-1.14-.13-.51.47-.76.84-.94-.11-.7-2.4-.59-1.34-1.28,0-.55.7,0,.92,0a1.18,1.18,0,0,0,.14.46c1.53-.28,3,.19,4.52,0,.39-1.25-.79-2.27-.78-3.6.36.13.41.86.77,1.14l1.07.32c.67-1.19,1.79-.44,2.58-1.08,0,.26-.24.68-.16,1-.35.85.92.58.86,1.32.55.2,1.11-.37,1.66-.49.12-.62.75-.81.76-1.42.33-.5.48.38.8.34-.61,1-1.69,1.91-1.82,3.14.76.16-.37.74.43.81l.6-.24a.35.35,0,0,0,.21.53,5.64,5.64,0,0,0,1.25-.48c0,.24-.27.62,0,.92l.86,0a2.52,2.52,0,0,0-1.69,1.45c.19.32.72,0,.76.17-.17,0-.6.09-.68.32a3.78,3.78,0,0,0,2.67,1.14c-.31,0,0,.26,0,.4a18.67,18.67,0,0,0-3.05-.2c.19.63-1.05-.07-.79.94.13.2.6-.09.6.32-.61,1.73.15,3.94.68,5.76-.3-.31-1-.09-1.22-.58-.45-.77-.1-2.49-1.51-2.12a5.18,5.18,0,0,1-3.64-1.85c-2,.11-1.39,2.79-3.42,3a1.23,1.23,0,0,1-.55-1.06c0-1.13,1.19-1.78.92-2.9-.49-.07-1,0-1.43-.3C350.14,120.89,348.88,119.83,348.21,118.83Zm11.53-7c.27.1.4.61,0,.61S359.33,111.65,359.74,111.79Zm0-5.73a.71.71,0,0,1,.08-.69C360.08,105.47,360,106,359.72,106.06ZM332.92,130c0-.32-.29-.77.15-.87a.5.5,0,0,1,.57.56C333.53,130,333.14,130.24,332.92,130ZM292.08,88.92c.05-.18.17-.36.39-.26l.1.11C292.25,88.56,292.18,89,292.08,88.92Zm4.26,1.84a2.29,2.29,0,0,1-.46-1.81c.18-.36.49-.63.42-1.11.38-.2,1.22,0,1.16-.73,1.35-.19,1.91.7,2.65,1.72-.17.69.06,1.59-.31,2.12-.9-.33-1.22,1.38-1.91.33C297.42,92.1,296.8,91.05,296.34,90.76Zm12.38,20.08a.54.54,0,0,1-.24-.83c.28-.24.76-.24.85.1C309.19,110.43,309.19,111,308.72,110.84Zm-8.35-8.62c-.1-.6-.4-1.51.26-1.87.43-.37.93-.18,1.38-.22a1.46,1.46,0,0,1,.91,1.21c.07.49-.53.66-.31,1.16-.35-.25-.59.36-.91.3C301.22,102.73,300.67,102.72,300.37,102.22Zm27.32,3c.22.22.75.13.53.62s-.89.36-1.33.09l-.36-.35C326.71,105,327.37,105.27,327.69,105.23Zm-7.94-9.6c.27.26.13.93-.36.71S319.35,95.23,319.75,95.63Zm-71.3-32.72c.07-.19.21-.36.42-.25l.09.13C248.66,62.55,248.55,63,248.45,62.91ZM224.06,76.37l.26.34c-.23.5-.75.16-1,.16-.16-.21-.62-.2-.37-.58S223.72,76.1,224.06,76.37Zm28.6-11.29a2.33,2.33,0,0,1-.34-1.88c.21-.35.55-.6.51-1.1.4-.17,1.24.07,1.23-.66,1.39-.1,1.89.85,2.57,1.94-.21.69-.05,1.62-.46,2.13-.9-.39-1.34,1.33-2,.21C253.66,66.52,253.1,65.41,252.66,65.08Zm-23.9,20.8c-.19-.26,0-.8.38-.56S229,86.26,228.76,85.88Zm37.63-26.33c.54-.07,1-.08,1.26-.61-.06-.35-.08-.73-.14-1.08.22-.24.57,0,.73-.35l-.1-.85c.58-.11,1.21,0,1.62-.41s.1-.75.08-1.13c.29-.15.57,0,.78.15.6.09,1.4-.71,1.83-.3-.16.32,0,.57.36.66.35-.06.49-.5.9-.4.45,1.32,1,.71,1.79,1.78.53,0,.78-.65,1.07-1.06.23.22-.2.27-.19.46,1.21-.69,1.78-2,2.94-2.91-.15.24.34.54.38.51L278,56.23c.75,2.43,2.44,3.81,4.61,5.12.58.42,1.3-.84,1.46.17-.6,1.24-2.59.54-2.92,1.78a28.73,28.73,0,0,1-.14,4.35c-.43.85-1.37-.77-1.6.53.16.21.48.37.46.71-.47.16-1-.76-1.51-.07-.09.41.6.62.09,1-.56.15-.52-.87-1.18-.51-1.21,0-.11,1-.7,1.38a1.25,1.25,0,0,1-.68-.82,3.86,3.86,0,0,0-1.76.12,1.87,1.87,0,0,1-.05,1.1c-.54-.46-.81-1.45-1.64-1.76-.79-.08-.06.9-.83.75-.17-.41.12-1.08-.29-1.45l-1.11.11c-1.38-1.76-1.49-3.87-3.13-5.44A8.5,8.5,0,0,0,266.39,59.55Zm-3.81,9.67c.59-.1.59-.63.43-1.11,1,.56.52-1.26,1.55-.76.32-.57.78.15,1.1-.22.58.69,1.6,0,1.93,1.08,1,.74-.43,1.38.44,2.19-.79.72-1.14,2.38-2.85,2.13-.92.28-.85-1.23-1.69-.4a1.3,1.3,0,0,0-.12-1c-.16-.22-.67-.1-.7-.41C262.82,70.17,263.22,69.54,262.58,69.22Zm1.93,16.48c-.16.31-.21.88-.67.7a.56.56,0,0,1-.18-.87C264,85.31,264.45,85.34,264.51,85.7Zm-8.17-10.55c.47-.35,1-.12,1.43-.13a1.44,1.44,0,0,1,.83,1.3c0,.5-.58.63-.39,1.15-.34-.27-.62.33-.95.25-.48-.11-1-.16-1.31-.69C255.89,76.41,255.65,75.47,256.34,75.15Zm-36.4-1c.14,0,.28,0,.26.22l-.06.1C220.22,74.24,219.88,74.28,219.94,74.19Zm1.6,5.61c-.52,0-1.11.35-1.55.19.06-.69-1.2-.59-.6-1.28-.66-.17,0-.8.07-1.18a1.65,1.65,0,0,1,1.19-.67c.28.06.53.23.86.08.2.24.24.86.73.68C222.63,78.53,222.11,79.09,221.54,79.8Zm-4.29,6.66a1,1,0,0,0,.68-.32c.1-.15-.09-.47.11-.56.38,0,.89.1,1-.41.2.37.56.25.85,0-.15.82,1,.06.87.87.45.08.08.56.41.69-.33.55.37,1.07-.28,1.55-.28.82-1,0-1.37.81-.67-.36-1.87-.21-2.1-1.43C217,87.15,218,86.84,217.25,86.46Zm-3.7-4.1c.34.24.31.63.42.93a1,1,0,0,1-.68.87c-.32.14-.56-.25-.87,0,.11-.29-.36-.34-.38-.58s-.14-.73.15-1S213.17,82,213.55,82.36ZM185.53,16c0-.21.15-.42.41-.34l.12.12C185.68,15.53,185.65,16.07,185.53,16Zm-25.38,19.3c.32-.51.82-.35,1.24-.11l.34.32c-.15.59-.78.31-1.07.36C160.45,35.61,160,35.71,160.15,35.25Zm9.76,4.61c-.77-.57.77-.64-.07-1.12l-.79,0a.46.46,0,0,0,0-.71,6.78,6.78,0,0,0-1.63-.08c.16-.26.61-.56.48-1l-.93-.48a3.12,3.12,0,0,0,2.61-.77c-.06-.46-.8-.36-.77-.56.21,0,.72.19.92,0a4.63,4.63,0,0,0-2.39-2.61c.34.16.12-.29.24-.42a22.27,22.27,0,0,0,3.29,1.76c.1-.79,1.13.6,1.36-.65,0-.3-.72-.2-.52-.66,1.55-1.62,1.82-4.45,2.14-6.75.18.5,1.05.6,1.07,1.27.11,1.08-1.15,2.81.61,3.11A6.38,6.38,0,0,1,178.69,34c2.3.91,2.94-2.4,5.33-1.66a1.52,1.52,0,0,1,.07,1.46c-.55,1.26-2.21,1.38-2.47,2.76.5.32,1.17.47,1.43,1,.46,1.74,1.33,3.55,1.57,5-.79.14-1.59-.46-2.25-.12.26.58-.64,1.1.12,1.58-.11.63-.9.61-1.4.62-.23.84,2.37,1.86.84,2.1-.32.59-.76-.4-1-.47a1.5,1.5,0,0,0,.07-.59c-1.85-.46-3.25-1.72-5.05-2.22-1.05,1.19-.27,2.92-.94,4.39-.34-.32,0-1.16-.29-1.65l-1-.9c-1.35,1-2.21-.41-3.41-.09.12-.29.61-.64.68-1,.82-.77-.73-1.11-.29-1.91-.51-.49-1.42-.14-2.09-.29-.44.64-1.24.53-1.55,1.2-.62.39-.35-.66-.73-.77C167.49,41.62,169.15,41.17,169.91,39.86Zm19.9-24.3c.15-.42.48-.76.34-1.3.41-.26,1.37-.15,1.23-.94,1.49-.37,2.22.57,3.16,1.64-.11.79.25,1.78-.11,2.41-1.05-.26-1.22,1.7-2.11.59-.44,1-1.26-.14-1.8-.42A2.5,2.5,0,0,1,189.81,15.56ZM168.58,44c.42.16.07,1-.31.67S168.12,43.77,168.58,44ZM205.75,8.09c-.13-.37-.23-.79-.36-1.16.2-.3.62-.14.74-.52l-.27-.9c.62-.23,1.33-.2,1.69-.75.45-.39,0-.83-.11-1.25.28-.21.62,0,.87,0,.67,0,1.39-1,1.94-.66-.11.37.14.62.52.65.37-.13.44-.63.9-.6.74,1.36,1.22.6,2.29,1.61.58-.09.73-.85,1-1.35.3.2-.16.34-.11.54,1.19-1,1.57-2.57,2.67-3.72-.12.29.47.53.51.49l-1.48,2.74c1.26,2.51,3.37,3.71,6,4.73.72.36,1.27-1.15,1.62-.07-.42,1.46-2.72,1.06-2.86,2.48a28.66,28.66,0,0,1,.65,4.77c-.31,1-1.63-.59-1.64.87.21.2.59.32.64.69-.5.26-1.27-.64-1.66.2,0,.46.76.57.27,1.08-.58.26-.73-.86-1.38-.34-1.33.19.07,1.12-.51,1.63-.37,0-.71-.44-.89-.77a4.13,4.13,0,0,0-1.9.46,2,2,0,0,1,.15,1.2c-.68-.4-1.16-1.43-2.12-1.61-.87.06.11,1-.77,1-.26-.41-.07-1.21-.57-1.53l-1.2.32c-1.83-1.67-2.34-3.94-4.41-5.35a9.42,9.42,0,0,0-1.42-4C205.06,8.81,205.56,8.72,205.75,8.09ZM165,51.75c-.26-.24.07-.75.44-.72A.83.83,0,0,1,165,51.75Zm37.4-32.81c1.22.44.34-1.46,1.56-1.11.23-.67.87,0,1.15-.44.77.64,1.75-.29,2.31.82,1.18.64-.21,1.59.88,2.31-.72.93-.81,2.81-2.72,2.85-1,.48-1.15-1.18-1.92-.12a1.42,1.42,0,0,0-.32-1.12c-.21-.2-.74,0-.83-.32.07-.58.38-1.34-.37-1.57C202.73,20,202.63,19.44,202.37,18.94Zm4.27,19.81a.61.61,0,0,1-.35-.91c.28-.3.82-.35,1,0C207.13,38.24,207.18,38.86,206.64,38.75Zm6.84,11.83a2.87,2.87,0,0,1-1.07,2.24c-.23-1-1.13-.35-1.59-.3-.29-1.66-2.34-.45-2.7-1.77-.17.25-.2.71-.57.59-.14-.62.93-1,.13-1.58-.42-.16-.32-.95-.94-.9-.29,0-.48.68-.74.27.35-.88-.17-2-.36-3-.06-.63,1-.44.52-1.14-.3-.2-.79.06-1-.39,1-1.44,2.93-2.9,3-5.07a1.72,1.72,0,0,1,1.66-.2c1.31,1.1,2.82-.64,4.41-.18.71.27-.15,1,.45,1.4.24-.25.61-.38.77-.64.09.33-.43,1,.2,1.25a4.26,4.26,0,0,0,1.91.21c.82,1.1-1.2,3.64,1.33,3.38-.41.26-1.08,0-1.28.49,0,.7,1.93.87.87,1.72-.25,0-.54.06-.45.39,0,.79,1.26.55,1.11,1.22-1,.11-1.73,1-2.74.48-.7.22-.39,1.17-.63,1.51C215.12,51.34,214.3,50,213.48,50.58ZM196.31,30c-.18-.66-.62-1.65.08-2.12.45-.47,1-.32,1.53-.41a1.62,1.62,0,0,1,1.15,1.26c.14.54-.52.81-.21,1.34-.43-.24-.62.47-1,.44C197.32,30.46,196.7,30.51,196.31,30ZM159.13,87.69c.14-.21-.17-.26-.09-.33s.23.12.17.27Zm-10-16.54c.13-.11.11-.41.37-.26s.15.51,0,.74l-.21.18C149,71.67,149.16,71.32,149.16,71.15Zm-2-7.77c.09-.18.26-.33.46-.19l.08.14C147.39,63.05,147.21,63.53,147.13,63.38ZM120,73.86l.21.38c-.3.49-.79.06-1.07,0-.13-.24-.61-.29-.3-.66S119.67,73.52,120,73.86ZM155.52,65c-.32.68-.28,1.67-.78,2.14-.87-.53-1.57,1.18-2.07-.06-.66.74-1.09-.48-1.5-.89a2.37,2.37,0,0,1-.08-2c.26-.34.65-.55.68-1.07.44-.12,1.27.24,1.37-.51C154.58,62.75,155,63.81,155.52,65Zm10.8,8.88c-.92.63-1.52,2.3-3.26,1.8-1,.16-.7-1.39-1.69-.66a1.32,1.32,0,0,0,0-1.09c-.13-.24-.68-.2-.67-.52.23-.51.73-1.1.12-1.52.62,0,.69-.58.6-1.09,1,.73.72-1.23,1.71-.57.41-.54.79.27,1.17-.07.51.8,1.65.23,1.85,1.39C167.06,72.49,165.54,73,166.32,73.91Zm-6.67,15c.34-.18.84-.08.86.29-.21.31-.34.89-.8.63A.58.58,0,0,1,159.65,88.94ZM150.76,38.6c.2-.07.45-.06.5.2l0,.17C151.21,38.54,150.71,38.77,150.76,38.6ZM121.29,25.67c.6,0,.71.55.71,1l-.12.46c-.59.15-.66-.54-.84-.77C121.11,26.11,120.78,25.72,121.29,25.67ZM118,34.62c1.31.65,2.52,1.89,4.05,1.92.12-.95.94.37.95-.61l-.36-.71a.45.45,0,0,0,.63-.32,6.92,6.92,0,0,0-.71-1.48c.3,0,.79.27,1.12-.07l0-1.06a3.11,3.11,0,0,0,2,1.93c.38-.27-.07-.88.13-.95.07.2.18.72.46.79a4.63,4.63,0,0,0,1.14-3.38c0,.37.31,0,.49,0a22.37,22.37,0,0,0,.06,3.76c.75-.29,0,1.3,1.24.88.23-.18-.18-.72.33-.77,2.18.57,4.81-.58,7-1.42-.35.4,0,1.22-.59,1.56-.9.62-3,.37-2.45,2.06a6.4,6.4,0,0,1-1.89,4.66c.33,2.49,3.55,1.43,4.07,3.9a1.56,1.56,0,0,1-1.24.78c-1.39.12-2.31-1.28-3.65-.84,0,.61.15,1.27-.23,1.79-1.31,1.25-2.48,2.91-3.64,3.83-.51-.62-.37-1.63-1-2-.38.51-1.28,0-1.34.88-.6.21-1-.5-1.23-.94-.85.21-.48,3-1.44,1.77-.68,0,0-.86-.08-1.12a1.29,1.29,0,0,0,.55-.23c-.49-1.85-.07-3.7-.51-5.54-1.57-.34-2.71,1.2-4.34,1.33.12-.46,1-.6,1.32-1.07l.29-1.34c-1.53-.71-.72-2.15-1.59-3.06.32,0,.86.23,1.27.09,1.07.34.61-1.19,1.54-1.19.18-.69-.58-1.32-.77-2-.78-.09-1.08-.84-1.82-.79C117,35.29,118.05,35,118,34.62Zm33.83,9.17a2.58,2.58,0,0,1,1.41-1.6c.44-.07.9.05,1.31-.33.43.23.81,1.13,1.44.62,1.05,1.13.58,2.24.1,3.59-.75.29-1.45,1.09-2.19,1.08-.28-1-2.09-.24-1.55-1.57C151.24,45.67,151.82,44.41,151.79,43.79ZM117,37.44c.09-.35.7-.56.75,0S116.85,38,117,37.44Zm44.71,25.09c0,.6-.83.82-1.07,1.25.41.79.76-.54,1.24.2.3.94-.37,1.87-.39,2.67a2.08,2.08,0,0,0,1-.73,4.26,4.26,0,0,1,1.34,1.46,1.37,1.37,0,0,0-.25,1.16c.74.25.87-1.43,1.69-.35.78.32-.14,1,.38,1.38.69.18.39-.57.81-.77.94-.06.52,1.06,1,1.37a.84.84,0,0,0,.27-.66,11.89,11.89,0,0,0,1.08,3l1.17.05c.37.44,0,1.1.09,1.54.78.27.17-.85,1-.66.81.44,1,1.5,1.45,2a1.86,1.86,0,0,0,.2-1.12,4,4,0,0,1,1.85.12,1.28,1.28,0,0,0,.58,1c.66-.3-.33-1.53.92-1.33.73-.28.55.77,1.15.7.58-.33-.11-.65,0-1.05.6-.65,1,.38,1.55.28.06-.35-.24-.56-.38-.8.42-1.31,1.17.5,1.73-.32a27.07,27.07,0,0,0,.76-4.48c.52-1.24,2.48-.23,3.28-1.43,0-1.06-.94.14-1.49-.38-2.05-1.66-3.61-3.34-4-6l1-1h.69c-.06,0-.14-.65.18-.69l-.13,0,.35-.34c-.05,0-.51-.35-.32-.59a5.92,5.92,0,0,0-1.06.78,11.15,11.15,0,0,1-3.43-.35c.16-.15.5.19.53-.17-.56,0-1.3.27-1.67-.19.38-1.44-.53-1.49.31-2.81-.2-.42-.68-.23-1-.5s-.06-.69.33-.77c.05-.66-1.2-.81-1.54-1.39-.06-.26-.08-.63-.41-.78-.32.28-.49.92-1.05.71-.66,0-1-.69-1.48-1.13l-.67.69c-.39.08-.46-.37-.82-.4-.26.3-.58.58-.85.88-.65.14-1-.25-1.41-.68a9.65,9.65,0,0,1-2.81,3.2c-.22,2.52-2,4.08-2.56,6.51Zm16.66-2.84a4.94,4.94,0,0,1-1.41.93c0-.19.47-.19.26-.45a6.75,6.75,0,0,1-.72.79,7.45,7.45,0,0,1,.69-1.26ZM109.09,38c.09-.34.7-.31.85,0A.84.84,0,0,1,109.09,38Zm47.28,16.92c.22,1.29,1.46-.41,1.75.83.71-.12.41.78.95.8-.19,1,1.11,1.4.41,2.44,0,1.36-1.51.59-1.61,1.91-1.18-.18-2.87.66-3.85-1-.88-.6.48-1.6-.83-1.76.29-.17.71-.36.83-.82.08-.29-.38-.66-.13-.9.55-.22,1.37-.31,1.21-1.09C155.6,55.77,156.06,55.4,156.37,54.93ZM144,56.62c-.24-.5-.6-1-.32-1.62.5-.49,1.16-1.36,1.92-1,.63.16.78.75,1.11,1.15a1.64,1.64,0,0,1-.55,1.63c-.41.39-1-.07-1.29.46C144.85,56.78,144.13,57,144,56.62ZM68.58,76.31c-.08-.16-.11-.37.1-.45l.15,0C68.47,75.94,68.74,76.33,68.58,76.31Zm-7.21,26.81c0-.52.38-.68.8-.74l.4,0c.21.49-.37.63-.54.82C61.77,103.21,61.48,103.54,61.37,103.12Zm9.5-30.43c.15-.4.86-.83.35-1.3.83-1,1.83-.79,3-.56.35.61,1.12,1.1,1.21,1.73-.86.37.07,1.81-1.14,1.53.22.9-.93.57-1.46.67a2.21,2.21,0,0,1-1.54-1C71.21,73.4,71.25,73,70.87,72.69ZM72,105.27c-.3,0-.56-.52-.14-.63S72.42,105.32,72,105.27ZM77.8,56.88c.11-.5-.46-.56-.74-.8.08-.3.4-.37.61-.45.46-.36.42-1.45,1-1.49.12.32.42.35.7.18s0-.68.3-.9c1.23.54,1.16-.24,2.43-.1.35-.38.06-1,0-1.45.31,0,.07.32.21.43.3-1.3-.29-2.6-.14-4,.07.27.6.12.61.07l.44,2.67c2.2,1.06,4.3.76,6.63.08.69-.13.26-1.46,1.08-.91.49,1.23-1.31,2.18-.65,3.23a25.35,25.35,0,0,1,3,2.94c.32.86-1.44.47-.67,1.47.25,0,.57-.09.81.14-.21.45-1.21.23-1,1,.22.33.83,0,.76.59-.26.49-1-.2-1.13.5-.81.84.64.74.52,1.4a1.24,1.24,0,0,1-1-.06,3.71,3.71,0,0,0-1.06,1.33,1.73,1.73,0,0,1,.74.75c-.68.08-1.56-.37-2.32,0-.57.51.6.63,0,1.08-.4-.15-.69-.79-1.21-.75l-.66.86c-2.14-.17-3.71-1.47-5.88-1.34a8.3,8.3,0,0,0-3.09-2c.3-.43.59-.76.39-1.3-.29-.18-.57-.42-.86-.6,0-.31.35-.43.23-.75L77,58.3C77.34,57.81,77.84,57.45,77.8,56.88Zm-4.33,55c-.3,0-.35-.55-.07-.73A.74.74,0,0,1,73.47,111.92ZM84.94,71.71a1.26,1.26,0,0,0-.81-.61c-.26,0-.51.41-.75.23-.26-.44-.44-1.12-1.09-.88.31-.49-.06-.84-.51-1,1.07-.35-.54-1.19.48-1.59-.19-.59.62-.45.56-.92.87,0,1.05-1.13,2-.67,1.15-.18.7,1.21,1.84,1.13,0,1,.93,2.36-.36,3.41C85.93,71.6,84.91,70.57,84.94,71.71Zm9.6,8.64c0-.36.38-.68.67-.5.12.32.49.72.06.93A.52.52,0,0,1,94.54,80.35Zm2.2.13a1.52,1.52,0,0,1,1-1c1.49.06,1.59-1.94,2.94-2.47.64-.19.43.77,1,.73a5.16,5.16,0,0,0,.2-.85c.24.18.21.89.79.75a3.76,3.76,0,0,0,1.44-.88c1.15.33,1.11,3.16,2.71,1.63-.14.39-.73.59-.62,1,.36.51,1.79-.42,1.52.73-.17.14-.35.33-.11.51.41.55,1.17-.29,1.42.25-.63.6-.68,1.58-1.63,1.78-.37.53.35,1,.37,1.38,0,.93-1.34.43-1.58,1.28a2.56,2.56,0,0,1,.45,2.11c-.71-.59-1,.36-1.26.64-1.08-1-1.85.93-2.8.22,0,.26.24.59-.08.71-.42-.35.13-1.17-.75-1.16-.37.11-.72-.49-1.12-.12-.22.13,0,.72-.37.58-.23-.8-1.2-1.31-1.86-1.9-.37-.4.45-.83-.25-1.06-.31,0-.51.47-.91.27C97.24,84.08,97.81,82,96.74,80.48Zm-12-2.58c.38.3.07.83.56,1-.42,0-.17.65-.45.82s-.79.64-1.34.48c-.47-.36-1.3-.81-1.07-1.5.06-.56.54-.77.83-1.1A1.41,1.41,0,0,1,84.71,77.9Zm-21.5,56.48c.43-.38.85-.1,1.18.23l.22.39c-.29.5-.8.08-1.08.05C63.39,134.8,62.9,134.76,63.21,134.38Zm5,10.79c-.18-.29.09-.84.46-.53S68.47,145.61,68.22,145.17Zm32.6-44.79.14.05c-.37,0-.21.42-.36.36S100.59,100.4,100.82,100.38ZM86.5,124.86c.09-.51.55-.56,1-.5l.38.15c.07.52-.53.51-.75.65C86.86,125.06,86.49,125.3,86.5,124.86Zm17.44-25.81c0-.39.13-.78-.16-1.17.25-.34,1.06-.58.68-1.17,1.09-.79,2-.27,3.1.27.18.68.8,1.37.72,2-.94.13-.42,1.77-1.51,1.18,0,.92-1.06.3-1.6.26A2.25,2.25,0,0,1,103.94,99.05Zm10.07,9.5c-.37-.48-1.05-1.13-.65-1.75.21-.52.73-.59,1.11-.84a1.44,1.44,0,0,1,1.35.64c.29.39-.16.83.27,1.16-.42-.06-.34.58-.66.68S114.5,108.85,114,108.55Zm-82.19,2.38c0-.13,0-.27.18-.27l.09,0C31.84,110.66,31.92,111,31.82,110.93ZM20.61,126.58c.1-.35.42-.35.7-.28l.26.12c0,.37-.4.32-.56.4C20.85,126.74,20.58,126.88,20.61,126.58Zm3.74-3.18a13.46,13.46,0,0,0,2.21.43c-.08-.47.76.15.67-.62-.08-.16-.45,0-.42-.28.61-1.21.26-2.9,0-4.28.19.26.71.16.84.54.25.61-.16,1.83.9,1.69a3.81,3.81,0,0,1,2.5,1.68c1.49.11,1.27-1.91,2.78-1.9a.89.89,0,0,1,.3.82c-.09.83-1,1.19-.93,2,.34.09.76.06,1,.35.57.92,1.4,1.81,1.8,2.6-.43.23-1,0-1.32.34.25.28-.18.74.35.89.05.38-.41.5-.7.6,0,.53,1.7.65.86,1.07-.08.39-.51-.1-.67-.1a.83.83,0,0,0-.06-.35c-1.15.06-2.18-.41-3.31-.38-.4.87.37,1.73.24,2.7-.26-.13-.22-.67-.46-.91l-.75-.33c-.6.81-1.35.16-2,.56,0-.19.24-.48.21-.73.33-.59-.62-.51-.51-1.05-.38-.19-.84.17-1.25.2-.15.45-.62.53-.69,1-.28.34-.32-.32-.55-.32.54-.68,1.41-1.24,1.62-2.13-.54-.19.33-.5-.24-.63l-.46.13a.28.28,0,0,0-.11-.42,4.22,4.22,0,0,0-1,.24c.05-.17.26-.43.1-.67l-.62-.11a1.87,1.87,0,0,0,1.37-.9c-.12-.26-.53-.07-.54-.19s.44,0,.52-.18a2.81,2.81,0,0,0-1.84-1.08C24.51,123.72,24.3,123.5,24.35,123.4Zm9.84-14.27c.19-.22.76-.33.54-.76.8-.48,1.38-.07,2.11.38.08.48.47,1,.37,1.42-.65,0-.4,1.19-1.11.71-.08.64-.75.14-1.12.08a1.6,1.6,0,0,1-.76-1C34.24,109.67,34.36,109.42,34.19,109.13ZM27,130.56c-.19-.1-.24-.48.07-.45S27.26,130.7,27,130.56Zm15.12-27.77c-.14-.19-.27-.41-.41-.6.06-.21.33-.19.33-.43l-.32-.48c.32-.24.73-.35.85-.73s-.16-.48-.29-.7c.13-.17.35-.14.51-.14.38-.13.62-.85,1-.73,0,.23.19.33.41.28s.15-.44.42-.51c.66.66.81.13,1.6.53.32-.16.27-.62.32-1,.21.07,0,.23,0,.34.51-.78.45-1.77.88-2.62,0,.19.36.22.38.19l-.37,1.84a6.12,6.12,0,0,0,4.29,1.67c.48.08.53-.89.92-.33,0,.92-1.38,1.09-1.2,1.94A18.26,18.26,0,0,1,52.66,104c0,.64-1,0-.79.8.15.08.39.08.49.28-.24.24-.84-.14-.92.42.06.27.54.19.35.57s-.58-.37-.86,0c-.73.35.24.63,0,1a.79.79,0,0,1-.65-.29,2.62,2.62,0,0,0-1,.61,1.24,1.24,0,0,1,.3.67c-.46-.12-.92-.62-1.51-.56s.24.56-.27.7c-.22-.19-.25-.68-.6-.78l-.64.4c-1.35-.64-2-1.86-3.5-2.31a5.68,5.68,0,0,0-1.52-2C41.82,103.33,42.09,103.19,42.09,102.79ZM26.34,135.25c-.2-.1-.1-.45.12-.5A.53.53,0,0,1,26.34,135.25Zm15.81-24.8c.32-.24.16-.56-.08-.79.78,0-.06-.91.7-.93,0-.42.51-.14.59-.46.56.24,1-.47,1.48.07.79.16.16,1,.92,1.17-.25.67,0,1.77-1.06,2.13-.46.45-.88-.47-1.13.27-.07-.19-.13-.46-.38-.58s-.43.14-.54,0C42.58,110.94,42.63,110.45,42.15,110.45Zm6.11,9.25c0,.24.14.59-.2.62a.36.36,0,0,1-.36-.46C47.81,119.64,48.11,119.51,48.26,119.7Zm4.27-.52c.46,0,.1.6.51.73.1-.19.29-.33.33-.51.12.18-.08.64.34.68a2.5,2.5,0,0,0,1.14-.22c.67.5-.05,2.32,1.37,1.72-.19.22-.62.21-.65.51s1.27.16.81.84c-.15,0-.3.13-.19.3.12.46.82.1.86.51-.56.24-.83.86-1.5.76-.37.26,0,.75-.1,1-.25.59-1,0-1.33.44a1.72,1.72,0,0,1-.22,1.48c-.32-.55-.72,0-1,.11-.46-.9-1.43.16-1.88-.54,0,.18,0,.45-.22.45-.19-.34.37-.73-.21-.94-.27,0-.35-.49-.7-.35-.17,0-.16.48-.38.29.05-.58-.46-1.15-.74-1.69-.15-.35.49-.43.09-.75-.21-.06-.44.18-.65,0,.3-1,1.18-2.2.86-3.47a1,1,0,0,1,.92-.41C51,120.47,51.53,119.19,52.53,119.18Zm-12-2.08c-.23-.35-.66-.84-.34-1.24s.54-.36.81-.51a1,1,0,0,1,.89.53c.18.29-.16.56.11.81-.28-.06-.27.38-.49.43S40.86,117.34,40.55,117.1Zm-24.5,81.64c-.13,0-.29,0-.29-.18l.05-.1C15.76,198.73,16.1,198.64,16.05,198.74ZM33.11,210c-.09.17.07.45-.25.42s-.38-.43-.32-.74l.14-.27C33.07,209.42,33,209.86,33.11,210Zm4.56-11.16c-.13.28-.71.25-1,.51l-.35.8c.87.63.19,1.43.62,2.1-.2,0-.51-.25-.78-.21-.63-.35-.53.67-1.11.56-.19.41.2.89.24,1.33.48.15.57.65,1,.71.36.3-.33.35-.33.6-.73-.57-1.34-1.49-2.29-1.7-.19.58-.54-.34-.67.27l.14.48a.29.29,0,0,0-.44.13,4.73,4.73,0,0,0,.27,1c-.19-.05-.46-.26-.71-.09l-.11.66a2,2,0,0,0-1-1.44c-.27.12-.06.56-.2.57s0-.47-.19-.55a3,3,0,0,0-1.13,2c0-.23-.2,0-.3-.06a15.19,15.19,0,0,0,.42-2.36c-.5.1.15-.81-.66-.7-.17.09,0,.48-.3.45-1.3-.63-3.08-.24-4.55,0,.27-.21.16-.76.56-.9.64-.28,2,.14,1.78-1a4.08,4.08,0,0,1,1.76-2.68c.1-1.59-2.05-1.32-2.07-2.93a1,1,0,0,1,.88-.33c.88.09,1.28,1.08,2.17,1,.1-.38.06-.82.36-1.09,1-.62,1.91-1.51,2.75-1.95.25.46,0,1.07.38,1.4.3-.27.79.18.94-.38.4-.06.54.43.65.74.56,0,.67-1.82,1.12-.93.42.08-.09.54-.09.71a.9.9,0,0,0-.37.07c.08,1.22-.41,2.32-.36,3.52C35.73,199.58,36.63,198.75,37.67,198.87ZM16,195.38a1.61,1.61,0,0,1-1.07.82c-.29,0-.56-.14-.86.05-.24-.2-.36-.81-.82-.57-.52-.84-.08-1.47.38-2.25.51-.09,1-.51,1.5-.41,0,.69,1.27.41.77,1.17C16.62,194.27,16.11,195,16,195.38Zm20.49,8.19c0-.28.62-.24.47.06S36.5,203.89,36.53,203.57ZM2.8,183.25c-.83-.53-1.88-.45-2.8-.89.2,0,.23-.4.2-.41l2,.36a6.45,6.45,0,0,0,1.72-4.59c.08-.5-.95-.54-.37-1,1,0,1.19,1.45,2.08,1.26a19.4,19.4,0,0,1,2.79-1.34c.68,0,0,1.11.86.83.08-.17.08-.42.3-.52.25.25-.14.89.45,1,.29-.07.2-.58.6-.38s-.38.61.07.91c.38.78.67-.26,1.09,0a.86.86,0,0,1-.29.7,2.65,2.65,0,0,0,.66,1.07,1.27,1.27,0,0,1,.7-.33c-.11.49-.64,1-.57,1.61s.59-.26.75.28c-.2.24-.73.28-.82.65l.43.68c-.66,1.44-1.95,2.2-2.41,3.75a6,6,0,0,0-2.14,1.65c-.22-.32-.38-.61-.8-.6-.2.15-.44.29-.64.45-.22-.07-.21-.36-.46-.35l-.5.34c-.26-.33-.38-.77-.79-.88s-.51.17-.74.31c-.19-.13-.16-.37-.16-.54-.14-.4-.91-.65-.79-1.06.25,0,.35-.2.3-.44s-.48-.14-.55-.43c.68-.72.12-.87.54-1.72-.18-.33-.67-.28-1-.32C2.51,183.07,2.68,183.32,2.8,183.25Zm39.2,21c-.1.2-.48.1-.53-.13A.55.55,0,0,1,42,204.25ZM13.12,184.93c.16-.85,1-.18,1.24-1,.71.26,1.88-.06,2.28,1.11.48.48-.5.93.3,1.19a.91.91,0,0,0-.62.42c-.08.17.16.45,0,.57-.37.07-.9,0-.89.54-.26-.34-.6-.16-.85.09,0-.83-1,.08-1-.73-.45,0-.16-.54-.5-.62C13.32,185.91,12.55,185.49,13.12,184.93Zm12.71-3.6a.4.4,0,0,1-.49.4c-.24-.12-.38-.44-.17-.59C25.42,181.14,25.79,181,25.83,181.33Zm-.51-5.28c-.2-.1-.36-.3-.55-.35.19-.12.68.08.73-.36a2.84,2.84,0,0,0-.25-1.22c.51-.72,2.46,0,1.8-1.48.24.2.23.66.55.69.44-.12.16-1.35.89-.87.05.15.14.32.32.2.49-.15.09-.88.53-.92.26.58.93.86.83,1.57.28.39.8,0,1,.09.63.27,0,1,.49,1.42a1.88,1.88,0,0,1,1.58.21c-.59.35,0,.77.13,1-1,.51.19,1.52-.55,2,.19,0,.47,0,.48.23-.35.2-.78-.38-1,.23,0,.29-.52.38-.36.75,0,.18.51.16.31.4-.61,0-1.21.51-1.78.82-.37.15-.47-.52-.8-.09-.06.22.19.47,0,.69-1.07-.31-2.35-1.22-3.7-.87a1.1,1.1,0,0,1-.45-1c.41-1-1-1.6-1-2.66C24.58,176.11,25.19,176.49,25.32,176.05ZM22,187.81c-.06.31.41.28.47.52s.24.71,0,1-.88.7-1.31.37c-.37-.18-.4-.57-.55-.86a1,1,0,0,1,.54-.95C21.49,187.75,21.78,188.1,22,187.81Zm.3,80.79c-.16-.13-.3-.33-.11-.51l.16-.06C22,268.27,22.51,268.54,22.34,268.6Zm6.52,29.63c.45.39-.07.82-.16,1.1-.28.1-.41.58-.73.2s.06-.89.46-1.15ZM22.6,233.4c.2.23.68-.18.66-.23L25,235.69c2.77,0,4.77-1.3,6.83-3.13.64-.47-.44-1.63.66-1.46,1.1,1-.28,2.86.9,3.62a29.29,29.29,0,0,1,4.49,1.56c.74.72-1.25,1.17,0,1.83.28-.09.55-.37.9-.25,0,.55-1.13.83-.56,1.55.39.23.83-.42,1.06.24,0,.63-1.07.26-.91,1.06-.43,1.26,1,.44,1.21,1.18a1.35,1.35,0,0,1-1.08.43,4.17,4.17,0,0,0-.45,1.88,2,2,0,0,1,1.13.41c-.66.41-1.77.37-2.37,1.14-.34.79.92.35.51,1.11-.47,0-1.09-.48-1.6-.18l-.25,1.2c-2.28.86-4.51.29-6.68,1.48a9.26,9.26,0,0,0-4.12-.52c.11-.59.25-1.07-.22-1.52-.39,0-.79-.16-1.18-.21-.17-.3.16-.6-.12-.87l-.92-.17c.08-.65.42-1.26.1-1.82-.14-.57-.74-.36-1.15-.46-.06-.35.23-.57.41-.76.29-.59-.28-1.68.28-2,.28.28.61.16.81-.15s-.36-.68-.13-1.07c1.52,0,1.07-.8,2.44-1.28.17-.56-.42-1-.76-1.46.31-.17.23.29.43.34C24.35,235.92,23.12,234.88,22.6,233.4ZM17,323.72c-.21,0-.41-.16-.34-.4l.12-.12C16.63,323.56,17.16,323.59,17,323.72Zm19.48,24c-.19.21-.1.69-.55.5s-.35-.8-.12-1.21l.32-.33C36.74,346.83,36.47,347.45,36.52,347.73Zm-18-28.87a2.48,2.48,0,0,1-1.92.7c-.41-.15-.74-.46-1.26-.33-.26-.39-.16-1.33-.93-1.18-.36-1.45.54-2.16,1.57-3.08.77.1,1.73-.25,2.35.09-.25,1,1.65,1.16.59,2.05C19.89,317.52,18.82,318.32,18.55,318.86ZM45,340.28c-.24.25-.85.14-.66-.31S45.39,339.9,45,340.28ZM14,304a9.22,9.22,0,0,0-3.84,1.4c-.18-.56-.27-1-.88-1.22-.36.13-.77.22-1.13.35-.28-.19-.14-.6-.5-.71l-.88.27c-.22-.6-.2-1.29-.74-1.64-.38-.43-.81,0-1.21.12-.21-.28-.06-.61,0-.85,0-.65-1-1.35-.66-1.88.37.11.6-.14.63-.51-.13-.36-.62-.42-.59-.87,1.31-.73.57-1.19,1.55-2.23-.09-.56-.83-.7-1.32-.93.19-.29.33.15.53.1-1-1.14-2.51-1.5-3.64-2.56.29.12.52-.46.47-.5l2.68,1.42c2.43-1.24,3.58-3.3,4.56-5.84.34-.7-1.13-1.22-.09-1.57,1.43.4,1.05,2.63,2.43,2.76a29.35,29.35,0,0,1,4.63-.67c1,.3-.56,1.6.85,1.59.2-.2.31-.57.67-.62.26.48-.61,1.23.21,1.61.45,0,.55-.74,1.05-.27.26.55-.83.71-.33,1.34.2,1.29,1.09-.07,1.6.48,0,.36-.43.7-.75.87a4.2,4.2,0,0,0,.46,1.85,2,2,0,0,1,1.17-.16c-.38.66-1.38,1.14-1.56,2.07.07.85,1-.11,1,.74-.4.26-1.17.08-1.48.57l.31,1.16C17.55,301.41,15.34,301.92,14,304Zm38,39.48c-.24.25-.73-.06-.7-.43A.85.85,0,0,1,52,343.43ZM24,306.07a1.44,1.44,0,0,0-1.09.32c-.19.21,0,.73-.29.82-.57-.07-1.31-.37-1.53.37-.22-.6-.78-.51-1.26-.25.41-1.18-1.43-.32-1.1-1.5-.65-.23,0-.85-.44-1.12.63-.75-.29-1.69.79-2.25.61-1.15,1.54.2,2.24-.88.91.7,2.73.77,2.78,2.63C24.58,305.13,23,305.34,24,306.07Zm14.17-3.61c.37.11,1,.05.87.58a.59.59,0,0,1-.88.35C37.86,303.11,37.81,302.59,38.17,302.46Zm-7.53,8.2c-.23.42.46.6.43,1,0,.53,0,1.13-.48,1.51-.64.18-1.6.62-2.06-.06-.46-.43-.31-1-.41-1.48a1.58,1.58,0,0,1,1.22-1.13C29.86,310.32,30.12,311,30.64,310.66Zm47.57,35.76c-.38,0-.43-.37-.41-.69l.09-.28c.38-.08.4.36.51.51C78.34,346.14,78.54,346.4,78.21,346.42ZM98.72,392c-.13.05-.29.06-.34-.11l0-.11C98.43,392,98.74,391.84,98.72,392Zm19.84,7.11c0,.19.19.43-.14.48s-.49-.34-.5-.66l.07-.31C118.37,398.46,118.43,398.91,118.56,399.06Zm1.77-5.48c-.88-.39-1.71-1.17-2.71-1.14-.05.63-.63-.22-.61.43l.26.45c-.19,0-.36,0-.4.23a4.38,4.38,0,0,0,.51.95c-.2,0-.52-.15-.73.08l0,.69a2.07,2.07,0,0,0-1.34-1.2c-.24.19.08.57,0,.63,0-.14-.14-.47-.33-.51a3,3,0,0,0-.64,2.25c0-.24-.21,0-.32,0a15.26,15.26,0,0,0-.16-2.46c-.48.21,0-.85-.84-.54-.14.13.14.47-.19.52-1.45-.31-3.14.52-4.54,1.14.21-.27,0-.8.34-1,.57-.44,2-.34,1.54-1.43a4.17,4.17,0,0,1,1.1-3.11c-.29-1.62-2.38-.83-2.79-2.43a1,1,0,0,1,.79-.55c.91-.12,1.55.77,2.42.44,0-.4-.14-.83.09-1.18.82-.86,1.54-2,2.28-2.62.35.39.29,1.06.71,1.31.24-.35.84,0,.85-.62.39-.15.66.3.84.58.55-.16.22-2,.89-1.2.44,0,0,.56.08.73a.86.86,0,0,0-.35.16c.38,1.2.16,2.43.5,3.62,1,.18,1.74-.87,2.81-1-.07.31-.65.42-.84.74l-.15.89c1,.41.54,1.39,1.14,2-.21,0-.57-.12-.83,0-.72-.19-.37.8-1,.83-.1.46.42.85.57,1.28.51,0,.72.51,1.21.46C121,393.11,120.26,393.32,120.33,393.58Zm-22.45-5a1.71,1.71,0,0,1-.87,1.09c-.29.05-.59,0-.85.25-.29-.14-.56-.72-1-.36-.72-.71-.45-1.45-.17-2.35.48-.22.92-.76,1.4-.78.21.69,1.37.1,1.06,1C98.19,387.34,97.85,388.18,97.88,388.59Zm23,3.11c0,.23-.44.39-.49.06S121,391.36,120.89,391.7ZM90.83,376.6l.6.57c-.3,1.61-1.41,2.69-1.48,4.34a6.18,6.18,0,0,0-1.74,2.18c-.31-.26-.53-.51-.95-.4-.17.2-.37.4-.53.6-.24,0-.3-.3-.55-.23l-.42.47c-.34-.27-.57-.68-1-.7s-.46.3-.66.5c-.22-.09-.25-.33-.29-.5-.24-.37-1.06-.43-1-.86a.34.34,0,0,0,.19-.52c-.21-.16-.51,0-.66-.3.51-.89-.08-.89.12-1.85-.26-.29-.73-.11-1.1-.07,0-.24.25,0,.35-.13-1-.32-2,0-3-.21.21,0,.14-.44.1-.45l2.06-.12a6.7,6.7,0,0,0,.59-5c-.05-.52-1.09-.31-.61-.88,1-.27,1.54,1.16,2.39.75a20.13,20.13,0,0,1,2.47-2c.67-.17.23,1.13,1.06.63,0-.19,0-.45.17-.6.32.18.08.93.69.86.27-.14,0-.63.51-.53s-.23.71.29.9c.57.68.6-.43,1.09-.28a.93.93,0,0,1-.12.77,2.85,2.85,0,0,0,.92.91,1.29,1.29,0,0,1,.63-.5c0,.52-.41,1.14-.18,1.75s.52-.4.82.1C91.35,376,90.84,376.2,90.83,376.6ZM126,391.09c-.05.23-.45.22-.56,0A.56.56,0,0,1,126,391.09Zm-31.49-9.67c-.18-.84-1,.32-1.17-.49-.46.1-.29-.5-.65-.5.1-.65-.77-.88-.34-1.58,0-.89,1-.43,1-1.31.78.09,1.87-.51,2.56.55.6.37-.27,1.06.59,1.12-.18.12-.45.26-.51.57s.26.42.11.58c-.35.17-.89.25-.76.76C95,380.84,94.74,381.1,94.55,381.42Zm9.67-9.29a.39.39,0,0,1-.39.51c-.26-.06-.48-.34-.32-.55C103.77,372,104.1,371.78,104.22,372.13Zm-1.6,7.81c.17.32.42.65.25,1.05s-.71.93-1.22.7-.54-.47-.76-.72a1.06,1.06,0,0,1,.31-1.09c.26-.27.63,0,.83-.34C102,379.86,102.51,379.72,102.62,379.94Zm71.53,3c.34.34-.09.67-.17.88s-.36.45-.6.14.08-.71.41-.91Zm-17.6,4.24c-.14.19,0,.58-.41.46s-.36-.63-.21-1l.23-.31C156.65,386.4,156.49,386.94,156.55,387.17Zm6.39-6.95c-.17.22-.68.19-.57-.2S163.2,379.87,162.94,380.22Zm6,2c-.17.23-.61,0-.62-.28A.66.66,0,0,1,169,382.2ZM226.2,385c.12.19.17.43-.07.55H226C226.37,385.44,226,385,226.2,385Zm-2.31,4.55c-.13.48-.93,1.08-.26,1.58-.87,1.33-2.09,1.13-3.55,1-.48-.67-1.45-1.17-1.62-1.91,1-.53-.28-2.13,1.18-1.93-.36-1,1-.78,1.65-1a2.65,2.65,0,0,1,1.94,1C223.41,388.76,223.41,389.25,223.89,389.56Zm-5.47,20.35c-.07.36-.44.48-.68.6-.5.48-.33,1.76-1,1.88-.18-.37-.54-.37-.85-.13s.11.79-.26,1.09c-1.51-.5-1.34.41-2.87.4-.37.48.05,1.15.23,1.7-.37.06-.12-.36-.3-.49-.2,1.59.63,3.06.62,4.7-.12-.3-.73-.07-.74,0l-.81-3.11c-2.73-1-5.18-.43-7.87.64-.8.23-.14,1.76-1.17,1.2-.72-1.41,1.31-2.72.41-3.89a31.44,31.44,0,0,1-3.87-3.15c-.47-1,1.66-.72.63-1.83-.3,0-.67.18-1-.07.19-.54,1.4-.41,1.11-1.33-.3-.36-1,.12-1-.62.25-.6,1.16.14,1.29-.71.87-1.09-.84-.8-.77-1.6a1.4,1.4,0,0,1,1.22,0,4.45,4.45,0,0,0,1.11-1.7,2,2,0,0,1-1-.8c.79-.17,1.88.26,2.74-.27.62-.67-.78-.68-.11-1.28.49.12.91.86,1.52.74l.68-1.08c2.56,0,4.56,1.33,7.12.93a9.77,9.77,0,0,0,3.88,2c-.31.55-.62,1-.32,1.59.36.18.72.43,1.09.62,0,.36-.37.54-.2.91l.85.5c-.31.6-.87,1.08-.75,1.76C217.38,409.65,218.05,409.66,218.42,409.91Zm-11.08-17.62a1.46,1.46,0,0,0,1,.62c.31,0,.56-.54.86-.35.36.49.65,1.29,1.39.93-.31.6.17,1,.72,1.16-1.23.54.77,1.35-.39,2,.3.67-.68.6-.56,1.15-1,.05-1.12,1.45-2.33,1-1.34.35-1-1.35-2.3-1.12-.11-1.22-1.37-2.7,0-4.09C206.18,392.52,207.51,393.64,207.34,392.29ZM195,383.13c0,.43-.37.85-.73.66-.18-.36-.67-.8-.18-1.09A.62.62,0,0,1,195,383.13Zm11.13.64c.49-.12.13-.79.44-1s.87-.84,1.53-.72c.61.38,1.64.82,1.45,1.67,0,.67-.56,1-.87,1.39a1.71,1.71,0,0,1-1.77-.14C206.44,384.63,206.75,384,206.14,383.77Zm67.61,22.12c-.19.05-.41,0-.43-.23l.06-.15C273.34,405.9,273.81,405.74,273.75,405.89Zm25.61,14.53c-.1.25.15.64-.31.63s-.59-.58-.53-1l.17-.4C299.24,419.55,299.22,420.18,299.36,420.42ZM304.81,404c-.16.4-1,.42-1.32.81l-.42,1.19c1.31.82.41,2,1.1,3-.3,0-.76-.3-1.15-.22-.94-.44-.7,1-1.54.9-.24.61.38,1.27.48,1.89.69.17.88.88,1.56.93.55.39-.44.52-.41.89-1.11-.74-2.07-2-3.46-2.21-.22.85-.82-.45-.94.44l.25.69c-.25-.1-.49-.09-.61.22a6.43,6.43,0,0,0,.48,1.42c-.27-.05-.69-.33-1-.06l-.09,1a2.86,2.86,0,0,0-1.56-2c-.37.2,0,.81-.22.85,0-.2-.08-.68-.33-.78a4.27,4.27,0,0,0-1.42,2.95c0-.35-.3,0-.45-.06a21.68,21.68,0,0,0,.38-3.43c-.72.18.12-1.18-1-.94-.23.14.08.67-.38.66-1.92-.77-4.45,0-6.53.49.36-.32.15-1.11.72-1.36.89-.46,2.81,0,2.45-1.59a5.89,5.89,0,0,1,2.27-4c0-2.29-3.07-1.7-3.26-4a1.4,1.4,0,0,1,1.22-.56c1.28,0,1.95,1.43,3.22,1.18.11-.55,0-1.18.41-1.6,1.34-1,2.59-2.36,3.76-3.06.39.62.15,1.52.67,2,.41-.43,1.16.17,1.32-.65.57-.12.82.57,1,1,.8-.08.78-2.67,1.51-1.44.62.07-.08.79-.06,1a1.3,1.3,0,0,0-.52.14c.24,1.74-.36,3.38-.17,5.1C302.1,405.15,303.31,403.87,304.81,404Zm-31.4-2.89a2.36,2.36,0,0,1-1.46,1.29c-.41,0-.82-.15-1.23.15-.37-.26-.61-1.12-1.24-.73-.82-1.15-.26-2.1.32-3.27.72-.18,1.45-.83,2.12-.74.13,1,1.87.46,1.23,1.61C274.13,399.42,273.46,400.5,273.41,401.06Zm30.91,9.79c-.12.3-.7.42-.68,0S304.51,410.4,304.32,410.85Zm-36.63-29c-.26.36-1,.47-1.11,1l.68.92c-.8,2.14-2.58,3.36-3.08,5.62a8.76,8.76,0,0,0-2.92,2.58c-.35-.43-.6-.83-1.21-.78-.27.25-.59.47-.87.71-.32-.07-.33-.49-.7-.46l-.68.55c-.41-.46-.63-1.07-1.23-1.2s-.7.31-1,.53c-.28-.18-.26-.52-.28-.76-.24-.57-1.36-.84-1.24-1.44.36,0,.49-.33.39-.67-.25-.27-.7-.16-.83-.56.91-1.1.09-1.26.6-2.52-.28-.47-1-.34-1.5-.37.07-.32.35,0,.51-.09-1.25-.68-2.75-.46-4.11-1,.29,0,.29-.59.24-.61l2.86.33c1.72-1.95,2-4.17,2-6.76.07-.74-1.42-.69-.62-1.37,1.4-.14,1.85,2,3.11,1.61a26.61,26.61,0,0,1,3.88-2.2c1-.08.05,1.61,1.31,1.11.1-.25.07-.61.37-.78.4.33-.11,1.3.75,1.35.4-.13.22-.85.83-.6.42.4-.49.92.18,1.3.62,1.07.94-.44,1.58-.13a1.27,1.27,0,0,1-.36,1,3.76,3.76,0,0,0,1,1.48,1.88,1.88,0,0,1,1-.54c-.11.71-.83,1.48-.66,2.37C266.94,382.27,267.41,381.11,267.69,381.87Zm43.87,29.37c-.12.3-.67.2-.77-.13A.76.76,0,0,1,311.56,411.24Zm-37.76-23.4a1.3,1.3,0,0,0-.85.66c-.11.25.27.63,0,.83-.52.14-1.28.12-1.22.85-.4-.45-.87-.17-1.2.22-.05-1.19-1.38.21-1.5-.95-.66,0-.28-.76-.77-.84.29-.88-.85-1.4-.09-2.26.14-1.24,1.43-.37,1.68-1.56,1.05.31,2.69-.27,3.38,1.36C274,386.8,272.62,387.55,273.8,387.84Zm12.27-7.91a.56.56,0,0,1-.66.61c-.35-.14-.58-.58-.31-.83C285.46,379.68,286,379.42,286.07,379.93ZM282,390.3c.16.48.42,1,.09,1.51-.5.38-1.2,1.1-1.85.66-.55-.22-.62-.78-.88-1.17a1.53,1.53,0,0,1,.7-1.43c.41-.3.86.18,1.22-.27C281.22,390.05,281.9,390,282,390.3Zm15.43-6.79c-.17,0-.36,0-.35-.25l.07-.13C297.07,383.47,297.5,383.38,297.43,383.51Zm20.64,15.39c-.11.21.06.58-.34.52s-.44-.57-.34-.95l.18-.33C318.06,398.13,318,398.69,318.07,398.9Zm5.29-13.13-.49,1c1.05.86.13,1.82.62,2.69-.25,0-.62-.34-1-.32-.77-.48-.72.8-1.44.62-.27.5.19,1.14.21,1.69.59.22.66.86,1.26,1,.43.4-.45.4-.46.72-.89-.76-1.58-2-2.76-2.29-.29.71-.66-.48-.86.28l.14.62a.37.37,0,0,0-.56.13,5.91,5.91,0,0,0,.26,1.29c-.23-.08-.56-.37-.88-.17l-.19.83a2.5,2.5,0,0,0-1.13-1.89c-.35.14-.12.7-.29.72,0-.18,0-.6-.2-.72a3.79,3.79,0,0,0-1.56,2.41c.06-.3-.25,0-.38-.1a17.94,17.94,0,0,0,.71-2.94c-.65.08.23-1-.79-.93-.22.1,0,.6-.41.54-1.58-.88-3.86-.51-5.72-.29.35-.24.25-.95.77-1.1.83-.3,2.44.32,2.31-1.11a5.13,5.13,0,0,1,2.4-3.24c.24-2-2.48-1.82-2.39-3.84a1.23,1.23,0,0,1,1.12-.35c1.11.17,1.54,1.45,2.67,1.37.15-.46.13-1,.53-1.34,1.27-.71,2.51-1.77,3.59-2.25.28.59,0,1.34.37,1.78.4-.32,1,.28,1.21-.41.52,0,.66.58.77,1,.71,0,1-2.24,1.48-1.09.52.13-.16.68-.17.89a1.06,1.06,0,0,0-.47.07c0,1.53-.68,2.89-.7,4.4,1.14.58,2.34-.39,3.63-.16C324.41,385.54,323.69,385.47,323.36,385.77Zm.06,5.37c-.14.25-.65.29-.59-.11S323.63,390.77,323.42,391.14Zm6.24,1.13c-.14.25-.6.1-.65-.2A.66.66,0,0,1,329.66,392.27Zm-35.1-24.36c.35-.73-.59-1.3.17-2,.26-1.06,1.28-.16,1.62-1.17.88.38,2.37.06,2.79,1.55.57.64-.69,1.14.3,1.53a1.15,1.15,0,0,0-.81.47c-.12.21.17.59-.07.72-.48.07-1.13,0-1.16.61-.3-.44-.74-.24-1.07.06.09-1-1.22,0-1.19-1C294.56,368.68,295,368,294.56,367.91Zm11.73,3c.08.43.25.9-.08,1.31s-1.17.83-1.68.38c-.46-.26-.46-.75-.64-1.12a1.33,1.33,0,0,1,.76-1.16c.39-.21.73.25,1.09-.1C305.64,370.57,306.24,370.58,306.29,370.88Zm2.85-6.1c-.23-.2-.15-.74.25-.59S309.48,365.08,309.14,364.78Zm-2.27,5.56a.72.72,0,0,1-.36.63C306.28,370.77,306.55,370.32,306.87,370.34Zm35-11.69a.51.51,0,0,1-.32-.77c.23-.26.69-.33.82,0C342.29,358.2,342.35,358.73,341.88,358.65Zm11,8.05c-.86.11-1.46.86-2.34.48-.59.21-.3,1-.5,1.32-.57.71-1.31-.43-2,.11a2.5,2.5,0,0,1-.86,1.94c-.23-.88-1-.27-1.37-.21-.3-1.41-2-.32-2.37-1.44-.13.22-.15.61-.48.52-.13-.53.78-.86.07-1.36-.36-.12-.29-.81-.82-.74-.26,0-.4.59-.63.25.27-.77-.21-1.74-.4-2.59-.06-.53.84-.4.41-1-.26-.16-.67.07-.87-.31.79-1.26,2.43-2.56,2.47-4.43a1.5,1.5,0,0,1,1.42-.22c1.16.9,2.4-.63,3.78-.28.62.22-.1.87.42,1.19.2-.22.52-.35.65-.57.08.28-.35.84.2,1.06a3.55,3.55,0,0,0,1.65.13c.73.92-.93,3.16,1.23,2.86-.34.24-.93.05-1.08.46,0,.6,1.68.69.8,1.45-.22,0-.47.07-.38.35C351.93,366.36,353,366.12,352.92,366.7Z"/></g></g></svg>