<svg xmlns="http://www.w3.org/2000/svg" viewBox="0 0 78.85 147.71"><defs><style>.cls-1{opacity:0.9;}.cls-2,.cls-3{fill:#f4d444;}.cls-3{opacity:0.3;}</style></defs><title>ink_s03</title><g id="レイヤー_2" data-name="レイヤー 2"><g id="Content"><g class="cls-1"><path class="cls-2" d="M23.82,105.83c-2.09-.08-4.42-1.24-5.81-1.72-.38-.34.15-.73-.23-1-1.63.08-1.63-1.83-3.16-1.57-.07-1.36-1.76-2.46-2.19-3.9a2.92,2.92,0,0,0-2-.45c-.23-1.08,1.33-.61,1.75-1.35-1.77-2.83-.85-6.42-2.61-9.06.45,0,.74.42,1.12.58.89-.4,0-1,.1-1.73a3.19,3.19,0,0,0-3-1c0-.63.66-1.39,1.3-1.15l-.15-5a13.75,13.75,0,0,1-2-1.91c1.15-.87.9,1.6,2.22.71.23-.91,0-1.81-1-2,.2-1.55,2.76-3.22.42-4.47C7.05,68.91,6.64,66,6.43,63.58A16.3,16.3,0,0,1,7.9,69.42L8.28,68c.48.43-.3,1.19,0,2,.08-.19,1-.51.93-1.32-.28-.26-.54,0-.71.21.17-.19.16-.46.24-.73,1.53-.26.54,1.79,2,2.08l1.64-.08c-.79.68-1.89.55-2.47,1.58.66.51.91,2,2,1.17.29-1.65,3.37-1.79,3.42-2.71.33-.65-1.12-.58-.52-1.24,1.32.84,2.77-1,4.09,0a3,3,0,0,1-.53,2.12l1.57.47a2.19,2.19,0,0,0,1,2.49c.46,0,.8-.58,1.26-.42,2.21.71,1.82,3.82,3.13,4.58.69-.67.46-1.66.88-2.32-.7,2.4,2.86.87,1.81,3.46,1.27,0,.77-2.76,2.45-1.84A1.81,1.81,0,0,1,29.17,79c-.07.28.49.62.86.78.7-.49.82-1.86,1.85-1.27a4.28,4.28,0,0,0-.81,2.13c1.18,0,1.19,2,2.62,1.51,0-.91,1.17-2.06,1.93-1.46.05,1.18-2.8,2.41-1,3.69,0,.45.6,1.15.85.59.57-1.39,2.39-1.38,3.44-2.25-.06.73-1.45,2.07-2.42,2.75.53,1.43-.87,2.68-.8,4.13.77.87,1.46.11,2.46.15-2,1.74-3,4.87-4.46,7.31l1.14,1.12c-2,.37-2,1.83-3.69,2.64-.06.73.65.33.59,1.06-1.55-.29-1.45,1.79-2.85,1.23l.14,1c-.92-.41-2.16.28-1.94,1.27A2.62,2.62,0,0,0,23.82,105.83Z"/><polygon class="cls-3" points="31.71 97.82 31.54 98.1 31.53 97.83 31.71 97.82"/><path class="cls-3" d="M31.68,97.09l.53-.2-.1-.18.57.43C32.38,96.6,32.15,97.43,31.68,97.09Z"/><path class="cls-3" d="M30.06,93.81c.45-.12.19.17,0,.27A.14.14,0,0,1,30.06,93.81Z"/><path class="cls-3" d="M34,93.8c-.1-.18.08-.18.17-.28C34.14,93.61,34.25,94,34,93.8Z"/><polygon class="cls-3" points="33.4 93.28 33.61 93.82 33.43 93.83 33.4 93.28"/><path class="cls-3" d="M31.93,92.9c.56.34,0,.27-.17.28Z"/><path class="cls-3" d="M33.53,92.28c-.4-.89,1-1,1-1.78-.34.56-.28,1.65.53,1.52C34,91.44,34.57,93,33.53,92.28Z"/><path class="cls-3" d="M31.79,91.82c.35-.11.2.44.21.71C32.06,91.89,31.63,92.46,31.79,91.82Z"/><polygon class="cls-3" points="32.87 91.76 32.7 91.95 32.42 91.69 32.87 91.76"/><path class="cls-3" d="M33.23,91.66l.26-.2Z"/><path class="cls-3" d="M34.93,91.12l.73,0C35.5,91.55,35.12,91.29,34.93,91.12Z"/><path class="cls-3" d="M32.77,91.4c-.13-.72-.22-.8.13-.91-.4,1.11,1.09-.14.67.6V91C33.19,90.84,33.13,91.39,32.77,91.4Z"/><path class="cls-3" d="M32.11,91l.25-.37Z"/><polygon class="cls-3" points="34.96 89.84 35.18 90.47 34.89 90.21 34.96 89.84"/><path class="cls-3" d="M33,89.94c-.53.39,0-.54-.75-.33.81-.31.82-.13,1.12.49C33.16,90.11,33,90,33,89.94Z"/><polygon class="cls-3" points="34.31 89.42 34.05 89.71 33.95 89.53 34.31 89.42"/><polygon class="cls-3" points="31.5 89.56 31.48 89.28 31.78 89.82 31.58 89.46 31.5 89.56"/><path class="cls-3" d="M34.7,88.13c.09,0,.09-.09.18-.1l.11.54Z"/><path class="cls-3" d="M32.7,88.23c.09,0-1.22-.85-.13-.91l-.34.38c.56.43.87-.67.87-.67l-.23.82-.1-.08c.28.08.12.54.13.72C32.72,88.59,33,88.3,32.7,88.23Z"/><polygon class="cls-3" points="30.05 87.72 30.33 87.98 30.05 87.81 30.05 87.72"/><polygon class="cls-3" points="33.91 86.71 33.64 86.82 33.7 86.18 33.91 86.71"/><path class="cls-3" d="M35.22,85.83l-.65-.33Z"/><path class="cls-3" d="M31.67,85.55a4.28,4.28,0,0,1,.21-1.19C31.81,84.72,32.13,85.62,31.67,85.55Z"/><path class="cls-3" d="M33.25,84.47c-.36.11,0,.37-.15.56l.06-.64Z"/><path class="cls-2" d="M6,85.23c-.21-.44.33-.74.51-.57.82,0,.94.41,1.15,1C7.16,86.36,6.4,85.58,6,85.23Z"/><path class="cls-2" d="M2.56,73.86C1.78,72.62-.33,72.27,0,70.61c.08-.36,1-.41,1.18,0,1.54,1.65,4.45,3.69,2.57,6.15C3,76.29,2.61,74.85,2.56,73.86Z"/><path class="cls-2" d="M33.14,70.66c-.11-.36.5-.75.79-.58C32.93,70.13,34.24,70.88,33.14,70.66Z"/><polygon class="cls-2" points="34.72 69.59 34.74 70.04 34.91 69.67 34.72 69.59"/><path class="cls-3" d="M16.11,70.21c.36-.11.61-.58,1.07-.42C17.59,70.68,16.3,70.29,16.11,70.21Z"/><polygon class="cls-2" points="8.83 69.92 8.94 70.37 8.85 70.28 8.83 69.92"/><path class="cls-2" d="M21.32,65.05l.45-.21a.48.48,0,0,0-.15.65l.25-.29c.45-.2.12.45.13.72C21.64,65.94,21,65.61,21.32,65.05Z"/><path class="cls-2" d="M22.4,64.9l.07-.45Z"/><path class="cls-2" d="M22.91,62.15c.48.53-.07.55-.13,1.1l-.21-.63-.93,1.59A2.64,2.64,0,0,1,22.91,62.15Z"/><path class="cls-2" d="M25.05,63.14c.51-.75.36-1.93,1.05-2.68a2.78,2.78,0,0,1-.74,3.48Z"/><polygon class="cls-3" points="25.59 63.12 25.68 63.02 25.52 63.57 25.39 62.67 25.59 63.12"/><rect class="cls-2" x="5.89" y="63.33" width="0.09" height="0.46" transform="translate(-3.04 0.36) rotate(-2.75)"/><path class="cls-3" d="M25.63,62.11c.19.17,0-.54.23-.92C26.3,60.9,26.38,62.53,25.63,62.11Z"/><path class="cls-2" d="M7,63l-.2-.54Z"/><path class="cls-2" d="M5.07,59.83a5.28,5.28,0,0,1,.17,1.63Z"/><path class="cls-2" d="M6.13,61.14l-.19-.36Z"/><path class="cls-2" d="M13.78,59.41c.83.32.94-1.23.75-1.49.48.7-.21,1.46-.55,1.93Z"/><polygon class="cls-2" points="13.94 59.04 13.77 59.23 13.75 58.77 13.94 59.04"/><path class="cls-2" d="M4.65,58.67a.89.89,0,0,1,.63-.22c-.1-.26-.78.77-.31,1.2C4.69,59.48,4.67,59,4.65,58.67Z"/><path class="cls-2" d="M14.12,57c.26-.19.74.42.57.61l-.28-.26c-.46,0-.25.56-.24.83C13.62,58,14.13,57.39,14.12,57Z"/><path class="cls-2" d="M12.72,54.46l.35-.29c.55,0,.67.61.59.88C13.15,55.71,12.84,55,12.72,54.46Z"/><path class="cls-2" d="M25.45,48.85c.27,0,.11.36.12.54C25.39,49.4,25.46,49,25.45,48.85Z"/><path class="cls-2" d="M25.49,47.76l.16-.56Z"/><path class="cls-2" d="M26.18,45c-.11-.36.52-.48.71-.22C26.89,44.78,26.37,45.26,26.18,45Z"/><path class="cls-2" d="M13.52,27.51c.18-.09.07-.36.07-.45l.07,1.54-.61-1.42Z"/><rect class="cls-2" x="13.46" y="23.97" width="0.18" height="0.73" transform="translate(-1.15 0.68) rotate(-2.75)"/><path class="cls-2" d="M12,24.32l.17-.28c.28.16.21.44,0,.72A.5.5,0,0,1,12,24.32Z"/><path class="cls-2" d="M13.34,21.8h-.27c.27,0,.34-.38.24-.65l.27,1.9C13.28,22.53,13.45,22.34,13.34,21.8Z"/><path class="cls-2" d="M12.9,20.18c.64.24-.6.76-.21,1.47C13.12,21.17,11.82,20.51,12.9,20.18Z"/><path class="cls-2" d="M10.68.47l0-.45a.62.62,0,0,1,.76.87C11.15.81,10.78.74,10.68.47Z"/></g><path class="cls-2" d="M71.19,115.48c-2.48-.4.06-2.28-1.41-3.44-2.54-1.62-6.12-2.84-7.3-5.41-1.42-.27-.27,1.6-.94,2.16-1.16,1.46-2.66-.39-3.86.2-3,.51-1.53-2.55-3.16-3.52-1,.58-.1,1.59.12,2.45-3.6-1.91-5.17,5-9.36,2.25-.82,1.09-1.17,4.45-3.88,2.83-.4,2.48,1,5.22,2.64,6.89-.37,3-5,2-4.65,5.15.24,1.23,2.94,2.49,2,4.46-3.09,1.22-2.74,4.54-4.55,6.92,1.14,1.69,3.25-1.58,4.92.09.9.47.41,1.21-.09,1.76-.31,4,4.05.13,5.53,1.64.6,1.37-1.28,2.35-1.55,3.76,4.6-6,6,3.55,10,4,1.16-1.28,2.64-3.12,4.37-3.74,1.88-.8,2.19,1.64,3.09,2.12-.22-.86.25-1.94.19-3,2.09-.46,1.91,2.88,4,1.9,4.25-2.51,3.54-9.32,8.6-9.93a5.12,5.12,0,0,0,2.95-4c-4.46-4.68-3.61-11.92-4.75-17C72.67,113.64,72.23,115.25,71.19,115.48Z"/></g></g></svg>