<svg xmlns="http://www.w3.org/2000/svg" viewBox="0 0 374 492.95"><defs><style>.cls-1{opacity:0.85;}.cls-2,.cls-3{fill:#2e3192;}.cls-3{opacity:0.3;}</style></defs><title>ink_m08</title><g id="レイヤー_2" data-name="レイヤー 2"><g id="Content"><g class="cls-1"><path class="cls-2" d="M293.87,481.28c-.61,1.05-.5,3.69-2.48,3.93-1.68,3.31-5.12,3.12-7.85,4.54-.48-1.37-1.56.05-2.6-.09-.69.24-1.11,1.25-1.94,1.24-.63-.78,1.39-1.22.13-2-2.22-1.36-3.77,1.73-5.84,1.52.6-1.5,3.26-1.52,2.85-3.46-1.35-.72-3.11-1.63-4.36-1.46.5.63,1.08,1.61.68,2.34-.47.38-1-.14-1.13-.58-.6-1.07-.35-2-.54-2.92a5.65,5.65,0,0,0-4.51-1.34c0,.64-.75.81-1.23.72-2,.15-5.8-2.62-5.16-4.78,0-.63-.79-.66-1.28-.83-1.07,1.06-2.55.55-3.82,1.09.46-.46,5.61-1.29,7-3.79-.27-.41-1-.72-.55-1.27a2.6,2.6,0,0,0,1.44-1c-.27-3,.15-4,2.05-3.29-1.81-.72.35-1.82,2.19-.1A17,17,0,0,0,273.5,466c.37-1.27-1.56-3,.07-4,1.24.66,0,2.49,1,3.66,1,.34,1.31,1.84,2.51,1.85,0-.28,0-1,.49-.74.81.37,1.1,2.15,2.1,1.2.29-.34.64-.87.56-1.22.32.21.79.66,1.22.93,1.53-1.43-1.23-1.85-.88-3.21,3.17,3.18,7.94,4,10.91,7.14C292.89,474.59,295.05,477.81,293.87,481.28Z"/><polygon class="cls-3" points="289.74 483.08 290.05 483.2 289.98 483.31 289.74 483.08"/><path class="cls-2" d="M275.11,437.46a2.51,2.51,0,0,1-3.35-.57,3.7,3.7,0,0,1-.12-3.57c.72-1,1.68.1,2.54-.17C276,433.78,276.06,436.33,275.11,437.46Z"/><polygon class="cls-3" points="285.26 482.75 285.82 482.82 285.52 482.7 285.26 482.75"/><polygon class="cls-3" points="285.84 485.48 286.24 485.21 286.11 485.42 285.84 485.48"/><polygon class="cls-3" points="283.61 484.95 283.75 485.19 283.51 485.33 283.61 484.95"/><polygon class="cls-3" points="282.72 485.5 283.05 485.34 282.98 485.45 282.72 485.5"/><polygon class="cls-3" points="281.91 487.33 282.51 487.11 282.27 487.26 281.91 487.33"/><polygon class="cls-3" points="281.28 483.97 281.58 483.63 281.49 483.65 281.28 483.97"/><path class="cls-2" d="M273,446.56c.73,1.68.62,3.73.73,5.54-.54.48-.91,0-1.19-.39.31-2-1-4.2-.27-6C272.62,445.62,273.72,446,273,446.56Z"/><polygon class="cls-3" points="281.89 488.07 282.13 487.93 282.06 488.04 281.89 488.07"/><path class="cls-3" d="M273,449.13c.17.42-.18,0-.32.25.8-.54-.27-.4-.14-1.07l.94.53C273.21,448.81,273.16,449,273,449.13Z"/><path class="cls-3" d="M273,447.93l-.54,0c0-.75.62.32.58-.31C273,447.67,273,447.84,273,447.93Z"/><path class="cls-3" d="M273.33,450.63c-.29,0-.62.13-.77-.12C272.85,450.55,273.27,450.36,273.33,450.63Z"/><path class="cls-3" d="M275.56,468.82c-.3-.12-.23-.22.05-.19C275.63,468.71,275.54,468.73,275.56,468.82Z"/><path class="cls-3" d="M278.57,486.76a.85.85,0,0,1,.2-.78C279.31,486.33,278.9,486.6,278.57,486.76Z"/><rect class="cls-3" x="274.05" y="465.97" width="0.45" height="0.18" transform="translate(-91.44 67.7) rotate(-12.08)"/><path class="cls-3" d="M272.51,468.74l-.67-.13.84-.37C272.7,468.33,272.36,468.49,272.51,468.74Z"/><path class="cls-2" d="M240,356c-1,1.32-2.74.95-3.94,1.39.1-1.67-1.72-1.19-2.2-2.56-2.36-.69-4.52-1.79-7.1-1.79.18-.87,2.12,0,3-1.19,1.16-1.45-.24-2.8-.76-4-1.06-1.06-2.76-1.71-2.62-3.21,2.69,3.56,7.44.8,10.35,3.67,1.63,1.59,4.71,2.67,4,5.49C241.32,354.81,240.41,355.28,240,356Z"/><path class="cls-3" d="M264.75,470.77c-.31.25.23-.24.32-.26Z"/><path class="cls-2" d="M262.91,462.15c-.36-.39-1.14.24-1.56-.41C261.7,462.5,262.67,461.46,262.91,462.15Z"/><path class="cls-3" d="M264.08,468.89c-.48-.09-.22-.6-.52-.72C263.78,467.94,264.28,468.57,264.08,468.89Z"/><path class="cls-2" d="M262.5,461.5l-.43-.28Z"/><path class="cls-2" d="M241.17,370.85c-.71,3.55-2.51,6.33-4.47,9.23-.67-.13-1.27.92-1.58-.12-.44-.73.15-1.41.2-2.06,1.51-2.81,3.61-5.47,4.63-8.45.4-.72.55-2.14,1.94-1.7C243.43,368.53,241.78,370.26,241.17,370.85Z"/><path class="cls-2" d="M261.82,460.91h0Z"/><path class="cls-2" d="M260.48,461.1l.58.15C260.94,461.09,260.69,461.24,260.48,461.1Z"/><path class="cls-2" d="M260.33,460.86l-.25-.32a.55.55,0,0,1,.73-.06C261.06,460.79,260.58,460.71,260.33,460.86Z"/><path class="cls-2" d="M241.31,413.23c-1.34,1-3.09-.26-4.38.57-1.31-.09-2.4-1.33-3.33-2.23.7-1.44-2.38-2.07-.54-3.38-.57-.53-1-2-2-1.42-.58,1.59-2.67,2.59-2.25,4.52-.3.34-.69-.22-1-.51-1.14-.13-1,1.49-1.51,2l-1.16-.68-.71,1c-.51-.25-1.09-1.23-1.79-.62-1.17.52,0,1.83-1.24,1.92-.38-.47.28-1.26-.11-1.82a2.6,2.6,0,0,0-3.28.61c-.37-.47-.22-1-.53-1.63-.89-.27-1.87-1-2.7-.16-.84-.47.25-1,0-1.46-1.16.61-1.73-1.66-2.85-.41,0-.92,1.18-.53,1.27-1.37.67-4.19-4.17-4.45-4.11-8.05,1.82-.11,2.88-2.45,4.82-1.95,1.42-1.13.22-2.44,0-3.4.7-.61,2-.53,2.55-1-1.32-1,.16-2.7-1.25-3.69,1.89,2.82,6.42,3.78,8.4,7,.78.2,1.79,1.45,2.67.44a5.32,5.32,0,0,0,1.46-3.53c.45-1.3,1.69-.27,2.05-1.55.95,1-1.07,2.26-.09,3.43-.62,1-1.81,1.86-1.79,3.23,0,2,1.61,3.24,2,5,1.36,1.18,2.47,2.51,4.08,3.18,1.55-1.81-2.22-2.66-1.51-4.92a1,1,0,0,1,1.53-.61c1.08.78,1.89,3.28,3.64,2,.67-.32,1.3-1.65,2.14-.73,2.43,1,3.38,3.32,3.51,6.06C243.15,410.63,242.12,411.86,241.31,413.23Z"/><path class="cls-2" d="M233.26,384.59c.37-1.27.67.14,1.09,0C234.05,384.88,233.41,385.3,233.26,384.59Z"/><path class="cls-2" d="M233.76,424.78a2.89,2.89,0,0,1-1.88-.15c-.66-.51-1.3-.92-1.38-1.73a2.41,2.41,0,0,1,2.25-.67c.62.33,1,.43,1.32,1A1.28,1.28,0,0,1,233.76,424.78Z"/><path class="cls-3" d="M233.32,423.58c.14.25-.19.41-.4.27H233l-.27-.41c.66.51.63-.5.4-.72C233.47,423,233.79,423.21,233.32,423.58Z"/><path class="cls-2" d="M243.23,474.64c-1.63,2.28-4.69,1.28-7,2-.49-2.29-3.41-1.75-4.69-3.41.51-.2,1.17.3,1.72.27l-.35.54c.49-.29.6.24,1.1-.05l-.08.1c.46,0,1.24,1,1.2,0,.7.22.89,1.1,1.14,1.88.55-1.32,1,.51,1.17-1,.62.33-.61.59.19.88,1.49.51,3.24-.33,4.62-1.17-.41-.19-1,.4-1.32-.18,1.37,0-.13-1.9,1.33-1.94-.63-.79-1.07-.69-1.9-1.16-.77.72.54,1.27-.15,1.88-.91-.82-1.3.82-2.2-.36,1,.62,1.12,0,2.12,0-.9-.36-.19-1.34-.78-1.49l-.29.8c.1-.85-1.19-.39-1.89-.7l.06-.1c-.25-.32-.44.09-.61.13l.26-.52c-1.82-1.17-3.36,1.09-4.84-.25.78-.63,2.12.47,2.56-.92,2.82-.6,5.81-.78,7.91,1.26C243.65,471.88,243,473.58,243.23,474.64Z"/><rect class="cls-3" x="232.06" y="423.62" width="0.45" height="0.18" transform="translate(-83.51 57.98) rotate(-12.08)"/><path class="cls-3" d="M242.06,473.05c.23.22.26-.52.46,0Z"/><path class="cls-2" d="M241,474c-.4.27-.15-.24-.62-.32.58.15.63-.51,1-.67C241,473.36,240.69,473.52,241,474Z"/><path class="cls-2" d="M240.77,473.05l-.33.16Z"/><path class="cls-3" d="M240,470.92c-.53-.34-.26.52-.34-.29C239.75,470.87,240.05,470.53,240,470.92Z"/><path class="cls-2" d="M240.47,474.21a.53.53,0,0,1-.37,0C240.25,474.08,240.5,473.93,240.47,474.21Z"/><path class="cls-2" d="M240,475.33c.42-.64-.6-.24-.46-.45.63,0,.54-.48,1,0C240.7,475.27,240,475.05,240,475.33Z"/><rect class="cls-2" x="238.4" y="472.64" width="0.81" height="0.09" transform="translate(-93.61 60.43) rotate(-12.08)"/><path class="cls-3" d="M238.05,471.51c0-.19.3.12.41.19C238.35,471.63,238.21,471.39,238.05,471.51Z"/><path class="cls-3" d="M237.92,470.9c-.23-.23.14-.22.22-.24S238,471,237.92,470.9Z"/><polygon class="cls-2" points="238.63 475.07 239.1 475.15 238.72 475.51 238.63 475.07"/><polygon class="cls-2" points="241.51 489.81 241.99 489.9 242.04 490.16 241.51 489.81"/><path class="cls-2" d="M238,472.62c-.4-.19-.34-.29,0-.54C237.85,472.29,238,472.45,238,472.62Z"/><path class="cls-2" d="M229.69,440.18c-2.07.63-3.94-.81-5.09-2.31a6.33,6.33,0,0,1,3.6-2.52,3.52,3.52,0,0,1,2.17,1.56C230.65,438.23,231.13,439.6,229.69,440.18Z"/><path class="cls-2" d="M234.07,468c-2.65.93-4.21-1.22-6.28-2.25.09-.47.7-1.07.06-1.48,1.56-.43,2.3-1.69,3.05-3.32a2.72,2.72,0,0,1,3,.19c2.2.81-.51,2.77,1.78,3.57C236.34,466.08,235.33,467.4,234.07,468Z"/><path class="cls-2" d="M236.26,473l-.41.27Z"/><path class="cls-2" d="M236.4,475v0Z"/><path class="cls-3" d="M233.72,464.16c-.31.25,0,.37.18.42-1.14.24-3.54-.62-3.27.61l.7-.15c-.36.44,0,1.37-.56,1.68l-.19-.88.43.28c.38-.36-.33-.67-.21-1-.79-.29-1.24.64-1.64-.38.38-.36.81-.08,1.07-.6-.83,0-.24-.22-.54-.8l.42.27c-.08,0-.06.11-.15.13.48.54,1.32-.28,1.77.54-.26-.77,1.22-.72,1.8-1-.77.26-.27.89.4,1A.19.19,0,0,1,233.72,464.16Z"/><path class="cls-3" d="M232.6,462.37c-.21-.13-.11-.52-.41-.64C232.14,461.09,232.6,462.37,232.6,462.37Z"/><polygon class="cls-2" points="234.36 471.01 234.73 471.49 234.34 471.39 234.36 471.01"/><polygon class="cls-2" points="238.47 490.65 238.8 490.49 238.64 490.61 238.47 490.65"/><path class="cls-3" d="M232.26,464.65c0-.17,0-.45-.06-.72l0,.18.58-.31C232.93,464.33,232,464.43,232.26,464.65Z"/><path class="cls-3" d="M232.47,463.05l-.84.36Z"/><path class="cls-3" d="M232.45,465.53c.28-.42,0-.17.51-.2Z"/><path class="cls-3" d="M226.39,437.21c0-.18-.13-.16-.15-.25l.53-.11C226.62,437,226.57,437.17,226.39,437.21Z"/><path class="cls-3" d="M233,466l-.49-.17Z"/><path class="cls-3" d="M231.83,462.63c-.06-.26-.15-.24-.28,0,0-.28.42-.18.49-.29Z"/><polygon class="cls-3" points="232.41 466.65 232.73 466.39 232.76 466.57 232.41 466.65"/><polygon class="cls-2" points="228.9 450.66 229.29 450.76 229.24 450.95 228.9 450.66"/><polygon class="cls-3" points="232.09 465.98 232.26 465.94 232.36 466.38 232.09 465.98"/><polygon class="cls-2" points="228.51 451.84 229.14 451.8 228.86 451.77 228.51 451.84"/><path class="cls-2" d="M233.26,472.35l-.65-.5C232.82,472,233.61,471.82,233.26,472.35Z"/><path class="cls-2" d="M232.43,493l-.27-.4C232.53,492.56,232.37,492.69,232.43,493Z"/><path class="cls-2" d="M201.73,398.05c-.9.93-2.45.62-3.49.47-1.46-1.25-3.38-2.49-2.72-4.56a4.65,4.65,0,0,1,1.24-1.93c1.11,0,2.7-1.12,4,0C202.55,393.28,203.93,396.3,201.73,398.05Z"/><path class="cls-2" d="M210.88,444.67c-1.19.9-2.41,0-3.29-.31-.89-.73-1.79-1.92-1.4-3.1-.06-.73.49-1.12,1.05-1.52a3.32,3.32,0,0,1,3.31.4C212.22,441.07,212.52,443.77,210.88,444.67Z"/></g><g class="cls-1"><polygon class="cls-3" points="162.19 163.42 162.18 162.97 162.36 163 162.19 163.42"/><path class="cls-2" d="M110.75,207.12c1.5,1.28,2,2.92,1.06,4.66a5.17,5.17,0,0,1-4.57,2.08c-1.66-.4-.77-2.24-1.6-3.21C105.49,208,108.77,206.48,110.75,207.12Z"/><polygon class="cls-3" points="164.19 169.44 163.96 168.67 163.97 169.13 164.19 169.44"/><polygon class="cls-3" points="167.42 167.2 166.85 166.83 167.2 166.89 167.42 167.2"/><polygon class="cls-3" points="167.93 170.39 168.17 170.07 168.49 170.31 167.93 170.39"/><polygon class="cls-3" points="169.14 171.25 168.75 170.91 168.92 170.94 169.14 171.25"/><polygon class="cls-3" points="171.95 171.31 171.34 170.65 171.66 170.89 171.95 171.31"/><polygon class="cls-3" points="167.92 173.95 167.31 173.74 167.39 173.85 167.92 173.95"/><path class="cls-2" d="M123.72,204.94c1.8-1.86,4.52-2.82,6.82-3.94.92.44.51,1.18.14,1.75-2.77.68-4.93,3.56-7.67,3.6C122.72,205.94,122.66,204.29,123.72,204.94Z"/><polygon class="cls-3" points="172.93 170.95 172.61 170.71 172.78 170.74 172.93 170.95"/><path class="cls-3" d="M127.07,203.54c.45-.46.15.22.5.28-1.14-.75-.38.57-1.32.76l.18-1.51C126.54,203.45,126.82,203.41,127.07,203.54Z"/><path class="cls-3" d="M125.5,204.17l.33.7c-1,.36.09-1-.72-.59C125.19,204.39,125.4,204.24,125.5,204.17Z"/><path class="cls-3" d="M128.84,202.32c.12.39.51.73.27,1.05C129,203,128.53,202.54,128.84,202.32Z"/><path class="cls-3" d="M151.3,189.58c0,.46-.16.42-.28,0C151.13,189.55,151.2,189.65,151.3,189.58Z"/><path class="cls-3" d="M173,176a1.16,1.16,0,0,1-1.12.16C172.05,175.25,172.62,175.62,173,176Z"/><rect class="cls-3" x="148.28" y="192.42" width="0.25" height="0.63" transform="translate(-83.25 118.51) rotate(-34.64)"/><path class="cls-3" d="M152.85,193.6l.19.94-.93-.9C152.21,193.57,152.61,193.92,152.85,193.6Z"/><path class="cls-2" d="M23.77,296.78c2.26.59,2.72,3.05,3.93,4.37-2.23.77-.62,2.89-2.14,4.25.37,3.44.11,6.85,1.51,10.2-1.23.23-1.14-2.76-3.15-3.22-2.51-.73-3.52,1.82-4.77,3.14-.81,2-.73,4.51-2.76,5.14,3.18-5.43-3-10.11-.82-15.45,1.19-3,.93-7.57,5-8.2C21.5,295.73,22.6,296.66,23.77,296.78Z"/><path class="cls-3" d="M159.67,202.59c.5.27-.42-.17-.49-.28Z"/><path class="cls-2" d="M149.46,209.64c-.31.67.93,1.36.31,2.25C150.57,211,148.7,210.33,149.46,209.64Z"/><path class="cls-3" d="M157.59,204.48c.16.67-.65.61-.64,1.07C156.52,205.38,157.07,204.39,157.59,204.48Z"/><path class="cls-2" d="M148.84,210.53l-.13.71Z"/><path class="cls-2" d="M42.45,287.26c5-1,9.59-.16,14.42.82.19.95,1.88,1.16.7,2.13-.72,1-1.92.56-2.79.86-4.47-.46-9.07-1.75-13.49-1.47-1.16-.12-3.08.44-3.26-1.6C38.2,285.57,41.35,286.79,42.45,287.26Z"/><path class="cls-2" d="M148.44,211.73l.25.6Z"/><path class="cls-2" d="M149.41,213.37l-.12-.84C149.16,212.78,149.48,213,149.41,213.37Z"/><path class="cls-2" d="M149.17,213.69l-.27.5a.76.76,0,0,1-.47-.91C148.7,212.78,148.85,213.45,149.17,213.69Z"/><path class="cls-2" d="M97.5,264.17c2,1.2,1.33,4.17,3.11,5.4.59,1.75-.43,3.84-1.11,5.54-2.25-.14-1.4,4.2-4.1,2.53-.37,1-2.07,2.35-.79,3.31,2.39-.11,4.81,2.07,7.11.48.6.2.08,1-.12,1.62.45,1.54,2.47.45,3.39.89l-.25,1.87,1.66.39c-.06.81-1,2.1.15,2.67,1.32,1.25,2.37-1,3.17.58-.41.75-1.79.31-2.3,1.13a3.64,3.64,0,0,0,2.56,3.93c-.41.75-1.25.86-1.83,1.58.12,1.3-.27,3,1.25,3.6-.15,1.33-1.4.2-1.88.84,1.42,1.17-1.22,3.14,1,3.92-1.19.51-1.32-1.24-2.48-.91-5.81,1.4-3.52,7.82-8.24,9.7-1.13-2.31-4.75-2.42-5.14-5.23-2.24-1.23-3.29,1-4.44,1.84-1.17-.58-1.76-2.33-2.68-2.77-.59,2.26-3.6,1.25-4.12,3.61,2.64-4,1.44-10.39,4.61-14.73-.16-1.12.93-3.11-.87-3.71a7.49,7.49,0,0,0-5.38,0c-1.93.1-1.27-2.06-3.12-1.84.77-1.78,3.51.18,4.5-1.73,1.59.29,3.4,1.35,5.18.58,2.65-1.06,3.34-3.85,5.43-5.29.8-2.41,1.93-4.57,1.92-7-3.18-1-2.25,4.32-5.58,4.63a1.39,1.39,0,0,1-1.61-1.66c.43-1.84,3.23-4.24.61-5.81-.79-.69-2.86-.8-2.12-2.39,0-3.73,2.5-6.2,6-7.83C93.12,263.19,95.28,263.86,97.5,264.17Z"/><path class="cls-2" d="M64.6,290.13c-1.86.21-.19-.95-.65-1.39C64.55,288.94,65.44,289.55,64.6,290.13Z"/><path class="cls-2" d="M116.6,267.76a3.89,3.89,0,0,1,.82,2.52c-.3,1.13-.49,2.18-1.5,2.73a3.37,3.37,0,0,1-2.08-2.57,3.41,3.41,0,0,1,.59-2.26A1.79,1.79,0,0,1,116.6,267.76Z"/><path class="cls-3" d="M115.29,269c.24-.32.63,0,.57.37l-.08-.1-.37.57c.3-1.13-1-.55-1.16-.12C114.45,269.09,114.54,268.57,115.29,269Z"/><path class="cls-2" d="M176.34,228.5c3.84.88,4.2,5.41,6.35,8.08-2.7,1.87-.43,5.38-1.9,7.94-.54-.56-.24-1.68-.57-2.38l.88.16c-.64-.48,0-.91-.65-1.4l.17,0c-.25-.6.67-2.16-.62-1.57-.09-1,.95-1.74,1.82-2.49-2,0,.11-1.62-1.91-1,.09-1,1.09.47,1-.72-.14-2.21-2.18-4-4-5.38,0,.63,1.07,1.1.49,1.82-.77-1.79-2.4,1.2-3.24-.69-.69,1.24-.33,1.76-.48,3.1,1.35.61,1.35-1.39,2.52-.81-.58,1.62,1.78,1.24.71,3,.3-1.58-.55-1.46-1.13-2.75,0,1.37-1.64,1-1.52,1.81l1.2-.05c-1.16.33.13,1.75.11,2.84l-.17,0c-.27.5.36.52.5.73l-.81-.06c-.54,3,3.23,3.78,2.29,6.43-1.24-.68-.54-3-2.58-2.84-2.3-3.33-4.16-7.13-2.64-11C172.52,229.44,175.09,229.36,176.34,228.5Z"/><rect class="cls-3" x="115.89" y="269.93" width="0.25" height="0.63" transform="translate(-133.04 113.83) rotate(-34.64)"/><path class="cls-3" d="M174.9,230.87c.17-.42-.81-.05-.25-.59Z"/><path class="cls-2" d="M176.74,231.76c.57.38-.24.32-.08,1-.13-.84-1-.54-1.39-.89C175.87,232.05,176.26,232.4,176.74,231.76Z"/><path class="cls-2" d="M175.6,232.55l.39.34Z"/><path class="cls-3" d="M173.28,234.77c-.16.88.81.06-.2.6C173.32,235.05,172.72,234.85,173.28,234.77Z"/><path class="cls-2" d="M177.28,232.31a.77.77,0,0,1,.19.49C177.22,232.67,176.9,232.42,177.28,232.31Z"/><path class="cls-2" d="M179,232.35c-1.05-.19,0,.92-.33.85-.4-.8-.92-.44-.59-1.29C178.53,231.45,178.62,232.46,179,232.35Z"/><rect class="cls-2" x="176.12" y="234.73" width="0.13" height="1.14" transform="translate(-102.51 141.84) rotate(-34.64)"/><path class="cls-3" d="M175.07,236.92c-.28,0,0-.46,0-.64C175.07,236.46,174.83,236.78,175.07,236.92Z"/><path class="cls-3" d="M174.34,237.42c-.16.42-.35-.06-.42-.17C174.1,237.29,174.38,237.24,174.34,237.42Z"/><polygon class="cls-2" points="179.39 234.24 179.24 233.58 179.91 233.88 179.39 234.24"/><polygon class="cls-2" points="197.01 222.53 196.86 221.87 197.18 221.65 197.01 222.53"/><path class="cls-2" d="M176.54,236.37c0,.63-.2.6-.7.32C176.2,236.76,176.33,236.51,176.54,236.37Z"/><path class="cls-2" d="M138.84,264.72c1.93,2.36,1.08,5.57-.26,7.88-2.15-.21-3.93-1.91-5.22-3.33a5,5,0,0,1,.85-3.66C135.78,264.53,137.3,263.17,138.84,264.72Z"/><path class="cls-2" d="M172.59,244c2.65,2.95.7,6.14.47,9.38-.66.15-1.76-.32-2,.73-1.39-1.8-3.44-2.08-6-2.18a3.83,3.83,0,0,1-1.37-4c-.12-3.3,3.89-.83,3.69-4.24C168.94,242.08,171.2,242.67,172.59,244Z"/><path class="cls-2" d="M178,238.45l.57.38Z"/><path class="cls-2" d="M180.49,237.18,181,237Z"/><path class="cls-3" d="M167.85,246.53c.5.27.49-.19.45-.47.93,1.36,1.1,4.94,2.56,3.93l-.58-.83c.78.23,1.78-.77,2.5-.18l-1,.72.12-.71c-.67-.3-.69.79-1.14.79.05,1.2,1.49,1.28.39,2.35-.68-.3-.55-1-1.36-1.07.44,1.09-.16.43-.75,1.14l.13-.7c.07.1.17,0,.25.13.44-.92-1.08-1.56-.26-2.6-.86.76-1.6-1.2-2.31-1.78.75.86,1.3-.13,1.1-1.08A.28.28,0,0,1,167.85,246.53Z"/><path class="cls-3" d="M166.13,249c-.06.35-.62.43-.61.88C164.71,250.23,166.13,249,166.13,249Z"/><polygon class="cls-2" points="176.42 241.99 176.83 241.25 176.91 241.81 176.42 241.99"/><polygon class="cls-2" points="199.74 226.04 199.35 225.69 199.6 225.83 199.74 226.04"/><path class="cls-3" d="M169.28,248.15c-.2.15-.59.26-.9.48l.21-.15-.72-.58C168.5,247.46,169.12,248.58,169.28,248.15Z"/><path class="cls-3" d="M167.08,248.75l.93.9Z"/><path class="cls-3" d="M170.33,247.43c-.71-.12-.21.15-.54-.55Z"/><path class="cls-3" d="M136.76,270.62c-.21.15-.14.25-.24.33l-.44-.63C136.33,270.46,136.61,270.42,136.76,270.62Z"/><path class="cls-3" d="M170.59,246.48l0,.74Z"/><path class="cls-3" d="M166.88,249.81c-.31.22-.23.32.12.38-.39.12-.47-.44-.64-.48Z"/><polygon class="cls-3" points="171.79 246.88 171.29 246.61 171.51 246.47 171.79 246.88"/><polygon class="cls-2" points="152.89 260.1 152.81 259.53 153.09 259.5 152.89 260.1"/><polygon class="cls-3" points="171.1 247.67 170.96 247.46 171.48 247.1 171.1 247.67"/><polygon class="cls-2" points="154.65 259.96 154.25 259.16 154.36 259.54 154.65 259.96"/><path class="cls-2" d="M178.75,242.69l-.29,1.13C178.52,243.47,177.87,242.53,178.75,242.69Z"/><path class="cls-2" d="M206,232.65l-.37.56C205.44,232.72,205.69,232.86,206,232.65Z"/><path class="cls-2" d="M99.15,323.86c1.7.68,2.12,2.85,2.49,4.29-.83,2.57-1.41,5.75-4.46,6a6.58,6.58,0,0,1-3.18-.58c-.55-1.47-2.93-2.91-2.16-5.13C92.5,325.38,95.67,322,99.15,323.86Z"/><path class="cls-2" d="M154.84,286.77c1.81,1.07,1.25,3.15,1.38,4.45-.47,1.55-1.53,3.36-3.28,3.49-.91.47-1.72,0-2.54-.55a4.65,4.65,0,0,1-1.27-4.51C149.43,287,152.78,285.12,154.84,286.77Z"/></g><g class="cls-1"><polygon class="cls-3" points="262.23 153.22 262.26 153.41 262.18 153.41 262.23 153.22"/><path class="cls-2" d="M302,110.38a3,3,0,0,1-1.37-3.88,4.46,4.46,0,0,1,3.71-2.25c1.46.18.89,1.85,1.69,2.59C306.42,109.12,303.75,110.73,302,110.38Z"/><polygon class="cls-3" points="259.94 148.03 260.21 148.67 260.16 148.28 259.94 148.03"/><polygon class="cls-3" points="257.39 150.27 257.92 150.53 257.61 150.51 257.39 150.27"/><polygon class="cls-3" points="256.64 147.58 256.46 147.88 256.17 147.71 256.64 147.58"/><polygon class="cls-3" points="255.52 146.97 255.89 147.22 255.73 147.21 255.52 146.97"/><polygon class="cls-3" points="253.1 147.2 253.69 147.7 253.39 147.53 253.1 147.2"/><path class="cls-2" d="M291.09,113.55c-1.35,1.77-3.59,2.87-5.45,4.06-.84-.28-.56-1-.3-1.49,2.31-.86,3.88-3.55,6.22-3.86C291.85,112.59,292.07,114,291.09,113.55Z"/><polygon class="cls-3" points="252.3 147.61 252.59 147.78 252.44 147.78 252.3 147.61"/><path class="cls-3" d="M288.36,115.08c-.34.44-.15-.17-.45-.19,1,.53.26-.52,1-.78v1.31C288.82,115.1,288.59,115.17,288.36,115.08Z"/><path class="cls-3" d="M289.64,114.38l-.35-.56c.81-.41,0,.85.67.43C289.89,114.17,289.72,114.31,289.64,114.38Z"/><path class="cls-3" d="M287,116.3c-.13-.32-.51-.57-.33-.87C286.76,115.75,287.21,116.09,287,116.3Z"/><path class="cls-3" d="M269,129.47c-.06-.39.1-.38.23-.06C269.13,129.48,269.06,129.4,269,129.47Z"/><path class="cls-3" d="M251.73,143.31a1,1,0,0,1,.94-.25C252.62,143.83,252.09,143.57,251.73,143.31Z"/><rect class="cls-3" x="271.04" y="126.2" width="0.22" height="0.55" transform="translate(-16.05 210.34) rotate(-41.28)"/><path class="cls-3" d="M267.25,126.18l-.26-.79.89.68C267.8,126.14,267.43,125.88,267.25,126.18Z"/><path class="cls-2" d="M367.62,24.81c-2-.28-2.64-2.34-3.82-3.35,1.84-.88.25-2.54,1.42-3.86-.67-2.91-.78-5.86-2.31-8.6,1-.31,1.25,2.26,3,2.45,2.22.38,2.83-1.91,3.77-3.16.5-1.76.18-3.95,1.85-4.69-2.18,5,3.57,8.37,2.25,13.17-.72,2.66,0,6.58-3.43,7.52C369.67,25.49,368.63,24.8,367.62,24.81Z"/><path class="cls-3" d="M260.5,119.16c-.45-.19.38.1.45.18Z"/><path class="cls-2" d="M268.55,112.08c.2-.6-.93-1.06-.49-1.89C267.46,111,269.14,111.42,268.55,112.08Z"/><path class="cls-3" d="M262.09,117.32c-.19-.55.5-.58.45-1C262.92,116.45,262.56,117.35,262.09,117.32Z"/><path class="cls-2" d="M269,111.26l0-.62Z"/><path class="cls-2" d="M352.55,34.84c-4.19,1.35-8.21,1.1-12.45.74-.26-.79-1.73-.81-.81-1.75.52-.9,1.59-.68,2.31-1,3.88-.06,7.94.59,11.71-.09,1,0,2.6-.68,2.95,1C356.36,35.86,353.54,35.14,352.55,34.84Z"/><path class="cls-2" d="M269.22,110.19l-.28-.48Z"/><path class="cls-2" d="M268.22,108.89l.19.71C268.5,109.37,268.2,109.19,268.22,108.89Z"/><path class="cls-2" d="M268.4,108.59l.18-.46a.68.68,0,0,1,.5.73C268.89,109.32,268.69,108.76,268.4,108.59Z"/><path class="cls-2" d="M307.66,60.14c-1.89-.82-1.56-3.44-3.21-4.32-.68-1.44,0-3.33.4-4.86,1.94-.1.78-3.74,3.26-2.57.22-.92,1.54-2.23.35-2.93-2,.34-4.34-1.28-6.14.3-.54-.11-.18-.86-.07-1.4-.54-1.27-2.16-.14-3-.42l0-1.63-1.46-.17c0-.7.67-1.9-.39-2.28-1.26-.93-1.93,1.12-2.78-.18.28-.68,1.5-.44,1.86-1.19a3.13,3.13,0,0,0-2.59-3.11c.28-.69,1-.87,1.42-1.54-.24-1.1-.07-2.56-1.44-3,0-1.17,1.19-.31,1.53-.91-1.34-.86.73-2.82-1.26-3.26,1-.56,1.26.93,2.22.53,4.84-1.78,2.24-7.06,6.09-9.14,1.2,1.87,4.32,1.6,4.94,4,2,.83,2.71-1.22,3.62-2,1.06.38,1.74,1.82,2.57,2.11.29-2,3-1.44,3.18-3.52-1.87,3.68-.2,9.06-2.48,13.1.25.94-.49,2.76,1.11,3.09a6.45,6.45,0,0,0,4.61-.55c1.65-.28,1.29,1.63,2.87,1.27-.49,1.59-3,.19-3.69,1.93-1.39-.09-3-.82-4.5,0-2.17,1.17-2.48,3.63-4.13,5.08-.45,2.14-1.2,4.11-.94,6.21,2.83.58,1.49-3.93,4.32-4.52a1.2,1.2,0,0,1,1.55,1.26c-.19,1.62-2.35,4,.05,5,.75.52,2.54.4,2.06,1.84.33,3.2-1.53,5.56-4.36,7.31C311.51,60.54,309.59,60.18,307.66,60.14Z"/><path class="cls-2" d="M333.27,34.6c1.57-.37.26.79.7,1.13C333.43,35.61,332.61,35.17,333.27,34.6Z"/><path class="cls-2" d="M290.92,59A3.34,3.34,0,0,1,290,56.9c.14-1,.2-1.93,1-2.5a2.93,2.93,0,0,1,2,2c0,.85.15,1.32-.28,2A1.54,1.54,0,0,1,290.92,59Z"/><path class="cls-3" d="M291.92,57.8c-.17.3-.54,0-.52-.27l.07.08.27-.52c-.15,1,.9.37,1,0C292.63,57.61,292.6,58.08,291.92,57.8Z"/><path class="cls-2" d="M243.62,98.61c-3.38-.38-4.14-4.22-6.26-6.3,2.14-1.88-.16-4.66.85-7,.51.43.37,1.42.72,2l-.77,0c.6.34.1.78.7,1.13h-.15c.27.48-.36,1.91.69,1.28.17.87-.65,1.59-1.31,2.32,1.71-.2.06,1.4,1.73.65,0,.86-1-.29-.82.73.34,1.88,2.27,3.24,4,4.21,0-.55-1-.84-.6-1.51.84,1.45,1.94-1.27,2.85.26.46-1.13.1-1.54.1-2.71-1.21-.39-1,1.33-2.08,1,.33-1.46-1.64-.89-.92-2.55-.09,1.39.62,1.21,1.25,2.26-.15-1.18,1.31-1,1.12-1.72l-1,.17c1-.4-.29-1.49-.38-2.43h.15c.19-.45-.36-.41-.5-.57l.7,0c.17-2.63-3.15-2.92-2.6-5.29,1.13.46.76,2.53,2.49,2.18,2.31,2.63,4.28,5.7,3.36,9.13C246.8,97.42,244.61,97.74,243.62,98.61Z"/><rect class="cls-3" x="291.07" y="56.51" width="0.22" height="0.55" transform="translate(34.91 206.23) rotate(-41.28)"/><path class="cls-3" d="M244.62,96.42c-.11.39.69,0,.27.49Z"/><path class="cls-2" d="M243,95.85c-.53-.27.17-.3,0-.85.18.71.9.37,1.27.62C243.67,95.51,243.3,95.25,243,95.85Z"/><path class="cls-2" d="M243.85,95.06l-.37-.26Z"/><path class="cls-3" d="M245.62,92.92c0-.77-.7,0,.11-.53C245.56,92.69,246.09,92.8,245.62,92.92Z"/><path class="cls-2" d="M242.43,95.43a.67.67,0,0,1-.2-.4C242.45,95.12,242.75,95.3,242.43,95.43Z"/><path class="cls-2" d="M241,95.57c.93.05-.1-.78.21-.76.42.64.83.28.63,1C241.45,96.3,241.27,95.43,241,95.57Z"/><rect class="cls-2" x="243.02" y="92.27" width="0.11" height="0.98" transform="translate(-0.78 183.43) rotate(-41.28)"/><path class="cls-3" d="M243.87,91.26c.23-.06,0,.39,0,.55C243.92,91.65,244.09,91.35,243.87,91.26Z"/><path class="cls-3" d="M244.44,90.76c.1-.38.31,0,.38.1C244.67,90.85,244.43,90.91,244.44,90.76Z"/><polygon class="cls-2" points="240.44 93.98 240.63 94.54 240.02 94.34 240.44 93.98"/><polygon class="cls-2" points="226.49 105.79 226.69 106.34 226.44 106.56 226.49 105.79"/><path class="cls-2" d="M242.66,91.88c0-.55.12-.54.57-.35C242.92,91.51,242.83,91.73,242.66,91.88Z"/><path class="cls-2" d="M272.16,63.8c-1.9-1.83-1.48-4.67-.57-6.78,1.86,0,3.56,1.24,4.81,2.33a4.31,4.31,0,0,1-.37,3.23C274.8,63.66,273.63,65,272.16,63.8Z"/><path class="cls-2" d="M245.28,84.92c-2.56-2.26-1.21-5.19-1.34-8,.56-.2,1.55.1,1.61-.83,1.38,1.41,3.16,1.45,5.34,1.28a3.31,3.31,0,0,1,1.57,3.28c.44,2.82-3.25,1.1-2.74,4C248.61,86.22,246.61,85.94,245.28,84.92Z"/><path class="cls-2" d="M241.22,90.24,240.7,90Z"/><path class="cls-2" d="M239.2,91.58l-.41.2Z"/><path class="cls-3" d="M249.1,82.3c-.45-.18-.4.21-.34.44-.94-1.07-1.44-4.12-2.59-3.11l.58.66c-.69-.12-1.45.83-2.12.4l.82-.72,0,.62c.61.19.51-.75.91-.8-.17-1-1.41-.94-.57-2,.6.19.56.81,1.26.78-.48-.89.11-.38.54-1l0,.62c-.07-.08-.16,0-.23-.1-.29.84,1.08,1.24.48,2.21.66-.74,1.49.87,2.16,1.3-.73-.67-1.1.24-.84,1A.24.24,0,0,1,249.1,82.3Z"/><path class="cls-3" d="M250.33,80.05c0-.31.49-.43.44-.82C251.42,78.81,250.33,80.05,250.33,80.05Z"/><polygon class="cls-2" points="242.2 87.05 241.93 87.72 241.8 87.25 242.2 87.05"/><polygon class="cls-2" points="223.8 103.06 224.17 103.31 223.94 103.22 223.8 103.06"/><path class="cls-3" d="M247.71,81.05c.16-.15.48-.28.73-.5l-.17.15.67.43C248.45,81.56,247.81,80.67,247.71,81.05Z"/><path class="cls-3" d="M249.54,80.31l-.89-.68Z"/><path class="cls-3" d="M246.89,81.77c.61,0,.16-.15.51.42Z"/><path class="cls-3" d="M273.35,58.53c.17-.14.09-.23.18-.3l.43.5C273.73,58.63,273.5,58.69,273.35,58.53Z"/><path class="cls-3" d="M246.75,82.61l-.11-.63Z"/><path class="cls-3" d="M249.6,79.39c.24-.22.17-.3-.14-.32.32-.14.45.34.6.35Z"/><polygon class="cls-3" points="245.68 82.39 246.14 82.57 245.97 82.72 245.68 82.39"/><polygon class="cls-2" points="260.57 69.17 260.69 69.64 260.46 69.7 260.57 69.17"/><polygon class="cls-3" points="246.19 81.65 246.34 81.81 245.93 82.17 246.19 81.65"/><polygon class="cls-2" points="259.08 69.46 259.5 70.11 259.37 69.79 259.08 69.46"/><path class="cls-2" d="M240.13,86.68l.15-1C240.26,86,240.9,86.73,240.13,86.68Z"/><path class="cls-2" d="M217.77,98l.27-.52C218.25,97.89,218,97.8,217.77,98Z"/><path class="cls-2" d="M300.28,9.13c-1.53-.41-2.11-2.23-2.57-3.43.46-2.29.64-5.07,3.23-5.6a5.58,5.58,0,0,1,2.78.18c.62,1.2,2.8,2.2,2.36,4.18C305.83,7.16,303.45,10.42,300.28,9.13Z"/><path class="cls-2" d="M256.23,46.49c-1.66-.73-1.39-2.57-1.63-3.67.25-1.38,1-3,2.47-3.33.73-.49,1.48-.14,2.23.22a4,4,0,0,1,1.54,3.75C260.85,45.78,258.16,47.7,256.23,46.49Z"/></g><g class="cls-1"><path class="cls-2" d="M187.34,8.65c.93,1.18,4,2.27,3.36,4.64,3,3.45,1.21,7.31,1.57,11.08-1.79-.08-.65,1.8-1.3,2.93,0,.89.92,1.85.53,2.79-1.19.36-.75-2.16-2.18-1.05-2.59,1.91.24,5.11-.95,7.38-1.45-1.38-.24-4.44-2.64-4.85-1.45,1.21-3.31,2.8-3.68,4.31.95-.28,2.34-.49,3,.29.21.72-.65,1.13-1.19,1-1.5.19-2.5-.55-3.59-.74-1.94.79-2.94,2.64-3.61,4.55.75.24.58,1.23.26,1.74-.74,2.34-4,1.77-4.59,4.38-.63,1.69.37,3.1-.48,4.75a1.76,1.76,0,0,1-1.79-.08c-1.24-1.91,1.19-3.62-1-5.35-.75-.24-1.12.59-1.54,1.08.71,1.7-.56,3.17-.51,4.87-.32-.74-.79,0-1.13,0-.56-3.25,2.23-7,0-9.8-.58.13-1.26.8-1.69,0a3.26,3.26,0,0,0-.54-2.12c-3.53-1.07-5.89,2.8-9.3,3,2.83-1.42,4.81-5,6.48-6.87-1.65,1.74-4.75,1.43-6.14,1.64,2.54-2.27,4.22-2.88,7-4.19a20.89,20.89,0,0,0-1.21-9.21c-1.29-1-4.13.4-4.51-1.91,1.32-1.12,2.83,1.17,4.62.58.85-1,2.71-.66,3.28-2-.31-.17-1.16-.43-.63-.9.81-.76,3-.27,2.35-1.85-.26-.49-.71-1.13-1.15-1.21.39-.27,1.12-.59,1.63-.95-.93-2.42-2.68.54-4.08-.49C167.16,14,170.29,9,175.25,7,179.24,6.68,183.92,5.7,187.34,8.65Z"/><polygon class="cls-3" points="187.51 14.2 187.78 13.91 187.87 14.04 187.51 14.2"/><path class="cls-2" d="M128.58,9.93a3.07,3.07,0,0,1-2.19,3.55,4.53,4.53,0,0,1-4.14-1.5c-.79-1.26.89-1.87,1-3C124.77,7.24,127.73,8.32,128.58,9.93Z"/><polygon class="cls-3" points="185.06 19.18 185.4 18.56 185.12 18.85 185.06 19.18"/><polygon class="cls-3" points="188.45 19.77 188.33 19.18 188.51 19.44 188.45 19.77"/><polygon class="cls-3" points="186.81 22.07 187.16 22.02 187.21 22.36 186.81 22.07"/><polygon class="cls-3" points="187.04 23.35 187.01 22.89 187.1 23.03 187.04 23.35"/><polygon class="cls-3" points="188.76 25.11 188.78 24.33 188.84 24.68 188.76 25.11"/><polygon class="cls-3" points="184.63 24.29 184.38 23.79 184.36 23.9 184.63 24.29"/><path class="cls-2" d="M138,16.52c2.26-.06,4.55,1,6.68,1.73.3.83-.41,1.05-1,1.17-2.14-1.27-5.26-.8-7-2.45C136.78,16.53,137.75,15.46,138,16.52Z"/><polygon class="cls-3" points="189.6 25.48 189.54 25.14 189.64 25.27 189.6 25.48"/><path class="cls-3" d="M141,17.71c.57,0,0,.22.15.47-.25-1.16-.59.13-1.3-.33l1.05-.83C140.69,17.32,140.89,17.47,141,17.71Z"/><path class="cls-3" d="M139.6,17.13l-.22.64c-.84-.37.66-.56-.09-.81C139.27,17.08,139.49,17.12,139.6,17.13Z"/><path class="cls-3" d="M142.82,18c-.17.31-.13.77-.48.82C142.51,18.54,142.49,18,142.82,18Z"/><path class="cls-3" d="M164.66,23.85c-.27.29-.36.17-.2-.14C164.57,23.72,164.55,23.83,164.66,23.85Z"/><path class="cls-3" d="M186.57,28.67a1,1,0,0,1-.8-.59C186.41,27.63,186.53,28.22,186.57,28.67Z"/><rect class="cls-3" x="160.64" y="23.94" width="0.56" height="0.22" transform="translate(109.67 178.47) rotate(-80.14)"/><path class="cls-3" d="M163.16,27.31l-.46.71,0-1.14C162.78,26.9,162.81,27.36,163.16,27.31Z"/><path class="cls-2" d="M19.26,12.54c1,1.76-.17,3.58-.22,5.15-1.87-.89-2.17,1.42-3.95,1.34C13.21,21.4,11,23.37,9.77,26.32c-.91-.61,1-2.42,0-3.94-1.12-2-3.31-1-4.9-1-1.7.72-3.23,2.36-4.88,1.51,5.32-1.44,4.34-8.14,9-10.15,2.56-1.13,5.22-4.15,8.13-2.07C18.49,10.5,18.6,11.75,19.26,12.54Z"/><path class="cls-3" d="M161.91,37.11c.14.48-.16-.37-.14-.48Z"/><path class="cls-2" d="M151.2,35.25c-.6.23-.25,1.42-1.18,1.59C151,36.8,150.31,35.21,151.2,35.25Z"/><path class="cls-3" d="M159.45,37c-.32.51-.79,0-1.06.27C158.23,36.92,159.18,36.64,159.45,37Z"/><path class="cls-2" d="M150.27,35.42l-.52.37Z"/><path class="cls-2" d="M36.76,18.06c3.74,2.45,6.09,5.79,8.51,9.36-.47.71.46,1.89-.87,1.76-1,.16-1.55-.83-2.27-1.18-2.52-3-4.59-6.65-7.53-9.18-.65-.79-2.19-1.63-1.05-3C35.15,14.4,36.36,17.09,36.76,18.06Z"/><path class="cls-2" d="M149.28,35.93l-.2.53Z"/><path class="cls-2" d="M148.89,37.55l.44-.6C149.09,37,149.14,37.37,148.89,37.55Z"/><path class="cls-2" d="M148.54,37.6l-.48.14a.67.67,0,0,1,.26-.85C148.8,36.75,148.49,37.26,148.54,37.6Z"/><path class="cls-2" d="M85.3,37.42c.55,2-1.72,3.42-1.37,5.28-.7,1.45-2.62,2.13-4.09,2.78-1.32-1.47-3.45,1.76-4.11-.94-.86.41-2.74.2-2.53,1.59,1.56,1.39,1.74,4.24,4.15,4.65.25.5-.57.69-1.07.95-.66,1.23,1.26,1.79,1.57,2.63l-1.3,1,.79,1.27c-.53.47-1.92.68-1.54,1.76.06,1.58,2.11.81,1.62,2.31-.71.21-1.3-.91-2.13-.71a3.19,3.19,0,0,0-.81,4c-.71.22-1.31-.23-2.11-.14-.72.89-2,1.68-1.43,3-.91.74-1-.74-1.69-.63.17,1.6-2.69,1.22-1.77,3.07-1.06-.41-.06-1.59-1-2.09-4.48-2.69-7,2.72-11.09,1,.7-2.13-1.49-4.42,0-6.42-.65-2.14-2.69-1.36-3.9-1.57-.37-1.08.33-2.54,0-3.38-1.76,1-3-1.43-4.8-.27,4.1-.86,7.28-5.6,11.92-6.37.59-.8,2.49-1.37,1.73-2.85A6.49,6.49,0,0,0,57,44.1C55.74,43,57.47,42,56.19,41c1.57-.63,2.08,2.27,3.87,1.68.81,1.16,1.29,2.93,2.87,3.55,2.31,1,4.46-.36,6.64,0,2-1,4-1.66,5.51-3.2-1.35-2.6-4,1.31-6.32-.54a1.22,1.22,0,0,1,0-2c1.4-.88,4.62-.66,4-3.25-.07-.91-1.3-2.25.14-2.79,2.32-2.3,5.36-2.33,8.55-1.21C83.17,34.12,84.1,35.86,85.3,37.42Z"/><path class="cls-2" d="M48.84,33.45c-1.29-1,.46-.71.44-1.27C49.53,32.67,49.71,33.6,48.84,33.45Z"/><path class="cls-2" d="M95,51.38a3.41,3.41,0,0,1-1,2.07c-.88.53-1.65,1.07-2.62.79a3,3,0,0,1,.28-2.88c.66-.56,1-1,1.75-1A1.58,1.58,0,0,1,95,51.38Z"/><path class="cls-3" d="M93.46,51.33c.35,0,.38.41.13.59v-.11l-.58.12c.88-.52-.28-1-.65-.79C92.86,50.89,93.25,50.62,93.46,51.33Z"/><path class="cls-2" d="M156.42,63.51c1.86,2.91-.7,6-1,8.95-2.84-.49-3.58,3.09-6.06,3.79,0-.68.88-1.2,1.1-1.84l.45.65c-.1-.7.56-.58.45-1.28l.09.13c.21-.53,1.74-.94.58-1.36.57-.69,1.66-.5,2.66-.44-1.25-1.23,1.07-.94-.59-1.79.66-.56.4,1,1.09.19,1.27-1.47,1.13-3.86.79-5.83-.4.38,0,1.34-.81,1.43.61-1.58-2.24-.72-1.61-2.42-1.18.36-1.28.91-2.2,1.65.47,1.21,1.7,0,2.08,1-1.36.67.35,1.87-1.42,2.35,1.15-.81.55-1.26,1-2.42-.83.87-1.62-.4-2.06.2l.78.7c-.93-.5-1,1.18-1.68,1.85l-.09-.13c-.47.15-.09.55-.13.77l-.47-.54c-2.18,1.54-.3,4.34-2.52,5.42-.35-1.19,1.51-2.22.14-3.36.6-3.49,1.78-7,5.07-8.46C153.46,61.76,155.11,63.29,156.42,63.51Z"/><rect class="cls-3" x="92.86" y="52.46" width="0.55" height="0.22" transform="translate(25.39 135.33) rotate(-80.14)"/><path class="cls-3" d="M154.06,64.12c.37-.16-.47-.53.21-.53Z"/><path class="cls-2" d="M154.67,65.8c.13.58-.34,0-.66.56.44-.6-.28-1-.32-1.41C153.94,65.45,154,65.91,154.67,65.8Z"/><path class="cls-2" d="M153.47,65.59l0,.46Z"/><path class="cls-3" d="M150.66,65.55c-.64.45.47.54-.49.25C150.51,65.75,150.26,65.26,150.66,65.55Z"/><path class="cls-2" d="M154.67,66.47a.67.67,0,0,1-.19.42C154.41,66.66,154.36,66.31,154.67,66.47Z"/><path class="cls-2" d="M155.72,67.56c-.54-.77-.55.58-.73.32.24-.74-.31-.84.42-1.17C156,66.7,155.41,67.39,155.72,67.56Z"/><rect class="cls-2" x="151.65" y="67.61" width="1" height="0.11" transform="translate(59.43 205.99) rotate(-80.14)"/><path class="cls-3" d="M150.46,68c-.2-.14.28-.28.41-.38C150.74,67.71,150.39,67.76,150.46,68Z"/><path class="cls-3" d="M149.7,67.86c-.37.16-.18-.25-.16-.36C149.63,67.63,149.83,67.77,149.7,67.86Z"/><polygon class="cls-2" points="154.8 68.97 155.11 68.47 155.34 69.07 154.8 68.97"/><polygon class="cls-2" points="172.99 72.47 173.3 71.96 173.63 72.02 172.99 72.47"/><path class="cls-2" d="M151.72,68.55c-.41.38-.5.25-.64-.22C151.26,68.58,151.5,68.51,151.72,68.55Z"/><path class="cls-2" d="M110.78,63.12c-.24,2.66-2.75,4.14-5,4.77-1.21-1.45-1.28-3.6-1.22-5.28a4.38,4.38,0,0,1,2.79-1.77C109,61.13,110.77,61.21,110.78,63.12Z"/><path class="cls-2" d="M144.55,70.91c-.15,3.46-3.33,4.26-5.46,6.14-.51-.31-.9-1.28-1.67-.74.23-2-.87-3.41-2.39-5A3.36,3.36,0,0,1,136.62,68c1.95-2.13,2.94,1.87,4.91-.38C143.46,67.45,144.51,69.21,144.55,70.91Z"/><path class="cls-2" d="M151.34,70.74l.12.58Z"/><path class="cls-2" d="M153.68,71.48l.42.19Z"/><path class="cls-3" d="M140.06,69.56c.14.48.42.19.56,0-.24,1.42-2.34,3.76-.81,4l.15-.88c.34.62,1.58.61,1.67,1.42l-1.09-.19.51-.36c-.23-.61-.91.06-1.2-.21-.7.78.15,1.71-1.2,1.7-.23-.6.28-1-.19-1.49-.39.94-.36.16-1.17.24l.52-.36c0,.11.09.13.07.24.84-.3.28-1.64,1.43-1.78-1-.06-.26-1.73-.34-2.54-.07,1,.88.72,1.34,0A.23.23,0,0,1,140.06,69.56Z"/><path class="cls-3" d="M137.5,70c-.26.18-.65-.11-.93.18C135.82,70,137.5,70,137.5,70Z"/><polygon class="cls-2" points="148.19 71.99 148.9 71.78 148.61 72.18 148.19 71.99"/><polygon class="cls-2" points="172.54 76.34 172.51 75.88 172.58 76.12 172.54 76.34"/><path class="cls-3" d="M140,71.46c-.22,0-.52-.2-.85-.26l.22,0-.09-.81C139.89,70.55,139.59,71.62,140,71.46Z"/><path class="cls-3" d="M138.21,70.48l0,1.13Z"/><path class="cls-3" d="M141.05,71.65c-.37-.51-.22,0,0-.67Z"/><path class="cls-3" d="M105.86,65.53c-.22,0-.24.08-.35.06l.11-.66C105.69,65.17,105.89,65.32,105.86,65.53Z"/><path class="cls-3" d="M141.8,71.22l-.43.49Z"/><path class="cls-3" d="M137.44,71c-.33,0-.35.06-.17.31-.31-.16,0-.56-.1-.69Z"/><polygon class="cls-3" points="142.3 72.2 142.16 71.73 142.38 71.77 142.3 72.2"/><polygon class="cls-2" points="122.39 68.86 122.69 68.46 122.89 68.61 122.39 68.86"/><polygon class="cls-3" points="141.39 72.27 141.43 72.05 141.97 72.15 141.39 72.27"/><polygon class="cls-2" points="123.57 69.85 123.81 69.11 123.64 69.41 123.57 69.85"/><path class="cls-2" d="M149.22,73.86l-.88.52C148.6,74.2,148.77,73.22,149.22,73.86Z"/><path class="cls-2" d="M172.4,84.3l-.59.13C172,84,172.07,84.25,172.4,84.3Z"/><path class="cls-2" d="M49.71,75.7c.65,1.47-.42,3.08-1.07,4.21-2.1,1.1-4.41,2.72-6.48,1a5.66,5.66,0,0,1-1.62-2.31c.55-1.25,0-3.61,1.8-4.52C44.63,72.57,48.71,72.38,49.71,75.7Z"/><path class="cls-2" d="M107.24,86.72c.48,1.77-1.15,2.72-1.87,3.62-1.24.68-3,1.16-4.19.16-.85-.26-1.05-1.08-1.25-1.9a4.11,4.11,0,0,1,2-3.6C103.74,83.52,107,84.42,107.24,86.72Z"/></g></g></g></svg>