<svg xmlns="http://www.w3.org/2000/svg" viewBox="0 0 331.39 228.73"><defs><style>.cls-1{opacity:0.8;}.cls-2,.cls-3{fill:#88a80d;}.cls-3{opacity:0.2;}</style></defs><title>ink_s05</title><g id="レイヤー_2" data-name="レイヤー 2"><g id="Content"><g class="cls-1"><path class="cls-2" d="M330.54,122.28l-.22.07c.46-.32-.15-.68.07-.75C330.61,121.77,330.78,122,330.54,122.28Z"/><path class="cls-2" d="M323,82l-.58.19c-.58-.53.12-1.09.24-1.46.37-.12.56-.75,1-.24C324,81.21,323.51,81.7,323,82Z"/><path class="cls-2" d="M318.72,93.82c.85.61-1.39,1-.08,2,.37.12.66-.71,1.07-.2.92,2.77,4,4.82,6.49,6.59-.68-.1-1.34.85-2.12.46-1.31-.53-2.55-3-4-1.19a8.32,8.32,0,0,1-6.39,1.24c-2.45,2.11,1,4.86-1.34,7.16a2,2,0,0,1-1.72-.8c-1.12-1.41-.24-3.4-1.68-4.54-.68.38-1.26,1.07-2.09,1-2.28-.54-4.9-.64-6.73-1.25.32-1,1.51-1.55,1.51-2.52-.83-.05-.87-1.41-1.89-.83-.66-.51-.15-1.41.14-2-.82-.78-3.59,1.6-2.94-.32-.48-.73.93-.63,1.17-.87a2.05,2.05,0,0,0,.63.44c1.65-1.85,4-2.7,5.64-4.47-.73-2-3.21-2.09-4.49-3.77.58-.19,1.36.68,2.09.68l1.65-.63c-.32-2.16,1.82-2.31,2.19-3.89.26.32.36,1.1.8,1.44.39,1.4,1.72-.17,2.38.82.88-.29,1-1.55,1.6-2.23-.46-.9.15-1.75-.43-2.53-.08-1,1,0,1.33-.36.22,1.87-.26,4.06.78,5.73,1.12-.53.27,1.29,1.34.61l.51-.9c.12.37.36.61.8.46a8.87,8.87,0,0,0,1.09-1.82c.2.34.27,1,.88,1.17l1.11-.78a4,4,0,0,0-.7,3.48c.56.21.9-.71,1.12-.54-.17.22-.66.71-.54,1.07a6.06,6.06,0,0,0,4.47-1.16c-.39.29.27.31.34.53A29.89,29.89,0,0,0,318.72,93.82Z"/><path class="cls-2" d="M329.86,130c-.49,2-2,2.21-3.82,2.65-.85-.61-2.21-.8-2.72-1.6.95-1.05-1.22-2.44.61-2.8-.85-1.09.92-1.36,1.58-1.82a3.33,3.33,0,0,1,2.72.39c.39.44.58,1,1.29,1.19C329.56,128.59,328.86,129.64,329.86,130Z"/><path class="cls-3" d="M328.37,128.91c-.51-.32,0-.56.27-.66C328.88,128.74,328,128.4,328.37,128.91Z"/><path class="cls-3" d="M327.69,128.57c-.41-1-1,0-1.89-.1.61.12.46.17.56.7-.66,0-.51-.8-1-.14.07,0,.12.85.75.56-.44.87-1.65-.59-1.9-.1.61-.12.73-.49,1.19-.8.22-.32-.26-.56-.29-.88.51.32.78.15,1.24-.41-.14,0-.29.34-.17.46,0-.17.34-.19.49-.24.12.12-.15,0-.17.22.7.66.7-.32.92-.63.05.14-.29.58.15.92s.41-.22.65-.22Z"/><path class="cls-3" d="M327.62,129.08c.22-.07.36.12.49,0-.71.31.38.92-.49.73.63.19.36,1.09.85,1.09l-.71.32c0-.15,0-.17.15-.3-.41-.26-.78.59-.46.81l-.9-.51c-.17,0,.51.31.44-.15-.71-.66-.71.56-1,.73-.32-.71-.88-1.41-1.71-1,.71-.32.86-.37,1.63-.71.66.27-.7.56.1.78l.32-.27c-.05.1-.13.12-.1.2.36-.37.92-.15.95-.81-.61-.12-.37-.36-.8-.7.29,1.12,1.36,0,1.55-.68C327.91,129,327.45,128.57,327.62,129.08Z"/><path class="cls-2" d="M328.08,130.46l-.36-.12Z"/><polygon class="cls-2" points="325.46 128.42 326.04 127.98 326.11 128.2 325.46 128.42"/><path class="cls-2" d="M310.61,81.86l-.47.56Z"/><path class="cls-3" d="M324.92,128.52c-.92-.59.63.44-.58.44.29-.59-.58-.78.44-.88Z"/><path class="cls-2" d="M308.39,85c-.43.39-1.23-.56-.58-.78C308.25,84,308.9,84.53,308.39,85Z"/><path class="cls-2" d="M330.82,155.47c-.39.77.34,2.23-.42,2.64-.36-.36-.8-.22-1.07.2-.07.51.46.9.15,1.41-2,0-1.43,1-3.26,1.65-.24.73.54,1.36,1,1.94-.41.22-.29-.39-.55-.46.41,2,2,3.38,2.67,5.35-.27-.32-.9.21-.88.29l-2.26-3.38c-3.67-.07-6.34,1.62-9.11,4-.85.61.56,2.17-.9,1.92-1.43-1.38.44-3.79-1.12-4.81a38.18,38.18,0,0,1-5.9-2.16c-1-1,1.68-1.53,0-2.43-.36.12-.73.48-1.19.31,0-.73,1.51-1.06.78-2-.51-.31-1.12.54-1.41-.34.05-.82,1.43-.31,1.24-1.38.58-1.65-1.34-.61-1.58-1.58a1.81,1.81,0,0,1,1.44-.56,5.63,5.63,0,0,0,.63-2.48,2.61,2.61,0,0,1-1.48-.56c.87-.53,2.35-.46,3.15-1.46.47-1-1.21-.48-.65-1.48.63,0,1.43.66,2.11.27l.37-1.58c3-1.09,6-.29,8.87-1.82a12.16,12.16,0,0,0,5.44.78c-.15.78-.34,1.41.27,2,.51.07,1,.22,1.55.29.22.41-.22.8.15,1.17l1.21.24c-.12.85-.58,1.65-.17,2.41.17.75,1,.48,1.51.63C331.45,154.93,331.06,155.22,330.82,155.47Z"/><path class="cls-2" d="M302.18,77a1.11,1.11,0,0,1-.56-1C302.06,75.88,302.45,76.56,302.18,77Z"/><path class="cls-2" d="M317,141.68c.63.68-.56,1-.2,1.61-1.21.48-.73,2.18-2.36,2.16-1.45,1-1.7-1.22-3.2-.39-.63-1.41-2.75-2.65-1.63-4.89,0-1.38,2.07-.6,1.31-2.13a1.9,1.9,0,0,0,1.49.31c.36-.12.43-.87.87-.77.63.43,1.31,1.26,2,.53-.12.85.61,1.1,1.34,1.1C315.42,140.35,318.14,140.49,317,141.68Z"/><rect class="cls-3" x="315.15" y="140.21" width="0.38" height="0.08" transform="translate(-28.15 106.78) rotate(-18.41)"/><path class="cls-3" d="M314.59,139.81c-.61.85-.22-.41-1-.07,1,0-.34-.29.22-.8.63.19-.1.43.26.8l.9-.22-.36.36Z"/><polygon class="cls-3" points="315.08 141.75 315.2 141.39 315.27 141.61 315.08 141.75"/><path class="cls-3" d="M314.81,143.38c-.32,0-.19-.09-.12-.36Z"/><polygon class="cls-3" points="312.92 139.4 313.23 139.86 312.82 139.59 312.92 139.4"/><polygon class="cls-3" points="312.29 140.42 312.63 139.98 312.43 140.37 312.29 140.42"/><path class="cls-3" d="M311.9,140.22l-.22.32Z"/><path class="cls-3" d="M312.36,141.85l-.47-.17Z"/><path class="cls-3" d="M311.63,141.85l-.29.34Z"/><path class="cls-2" d="M291.85,133.29c-.36-.36-1.11-.68-.65-1.24a.79.79,0,0,1,1.26.15C292.63,132.71,292.36,133.36,291.85,133.29Z"/><path class="cls-2" d="M288.6,135.43c-2.07.85-1,3.64-2.48,5.2-.76.65-1.07-.78-1.9-.34.15.43.07.94.27,1.28-.44-.09-.85-1.09-1.56-.53a5.65,5.65,0,0,0-1.41,2.09c-1.77.26-3.47-3.62-4.71-.54-.05-.63.63-1.26.22-1.77-.8-.47-2.19,1.7-2.53,0,.15-.29.27-.66-.17-.76-.9-.51-1.41,1.12-2.09.54.49-1.22,0-2.58,1.12-3.45.17-.95-1.11-1.17-1.36-1.66-.51-1.28,1.56-1.4,1.36-2.72a3.73,3.73,0,0,1-1.91-2.6c1.33.37,1.09-1.09,1.31-1.65,2.09.68,1.94-2.43,3.69-2-.19-.34-.7-.65-.34-1,.8.22.56,1.68,1.75,1.12.44-.39,1.29.22,1.6-.53.22-.32-.48-1,.15-1,.8.94,2.45,1,3.72,1.43.75.32-.1,1.41,1,1.29.42-.22.42-1,1.07-.92,1.07,2,1.56,5.15,4,6.61A2.24,2.24,0,0,1,288.6,135.43Z"/><path class="cls-2" d="M309.56,128.89a2.13,2.13,0,0,1-2.16.55c-.71-.17-.61-1.09-1.41-1.07.53-.34-.17-1,.1-1.41.36-.6.68-1.36,1.53-1.48.87.2,2.28.29,2.4,1.39C310.29,127.67,309.75,128.25,309.56,128.89Z"/><path class="cls-3" d="M308.3,126.8a.44.44,0,0,1,.31-.76c0,.8.83,0,.85.85A1.11,1.11,0,0,1,308.3,126.8Z"/><path class="cls-3" d="M309.12,127.33l-.34,0Z"/><path class="cls-3" d="M307.76,128.84l.29-.34-.17,0c.05.15.68-.14,1,0C308.49,128.59,308.08,129.78,307.76,128.84Z"/><path class="cls-3" d="M306.74,127.23c.15,0,1.31.29,1.07,1,.05-1.31-.85.37-1.36-.19l.51-.17c-1-.15,0-.88,0-1.29,0,.07-.05.1,0,.17a.48.48,0,0,0,.63-.29c.08,0,.22.17.22-.07C308.1,127.18,307.15,126.77,306.74,127.23Z"/><path class="cls-3" d="M307.13,126.21l0-.32c.14.2.46-.07.48.25Z"/></g><g class="cls-1"><path class="cls-2" d="M157.71,168h-.22c.52-.16.06-.67.28-.68C157.93,167.59,158,167.89,157.71,168Z"/><path class="cls-2" d="M162.26,128.73h-.59c-.39-.66.42-1,.64-1.27.37,0,.73-.54,1,0C163.44,128.26,162.85,128.57,162.26,128.73Z"/><path class="cls-2" d="M155,138.39c.61.8-1.55.47-.63,1.79.3.22.81-.46,1,.13.06,2.82,2.35,5.6,4.1,7.94-.6-.29-1.47.4-2.08-.18-1.06-.87-1.48-3.54-3.31-2.24a8,8,0,0,1-6.26-.69c-2.87,1.25-.49,4.77-3.29,6.24a1.93,1.93,0,0,1-1.36-1.24c-.63-1.62.75-3.21-.24-4.67-.74.16-1.48.62-2.23.34-1.95-1.15-4.34-2-5.85-3.07.58-.83,1.83-1,2.11-1.9-.75-.29-.4-1.56-1.51-1.31-.46-.66.27-1.34.71-1.8-.54-.95-3.78.45-2.63-1.13-.24-.81,1-.32,1.33-.48a1.92,1.92,0,0,0,.46.59c2.05-1.23,4.43-1.35,6.49-2.51-.12-2-2.37-2.85-3.07-4.77.59,0,1.06,1,1.73,1.23l1.71-.11c.32-2.08,2.34-1.61,3.13-3,.16.37,0,1.12.33,1.55,0,1.42,1.64.34,2,1.45.89,0,1.39-1.14,2.12-1.6-.17-1,.64-1.58.32-2.46.21-.9.9.28,1.34,0-.34,1.78-1.41,3.66-.93,5.51,1.19-.17-.12,1.27,1.06.95l.73-.69c0,.37.16.67.61.66a8.54,8.54,0,0,0,1.53-1.37c.08.37-.05,1,.47,1.33l1.26-.4a3.88,3.88,0,0,0-1.65,3c.45.36,1-.4,1.19-.18-.22.16-.81.46-.8.84a5.87,5.87,0,0,0,4.46.2c-.45.16.15.37.16.59A29.17,29.17,0,0,0,155,138.39Z"/><path class="cls-2" d="M154.88,174.94c-1,1.65-2.49,1.46-4.28,1.35-.61-.81-1.81-1.38-2-2.27,1.18-.69-.42-2.59,1.36-2.4-.47-1.25,1.25-1,2-1.23a3.22,3.22,0,0,1,2.4,1.14c.24.52.25,1.11.85,1.47C155,173.6,154.05,174.36,154.88,174.94Z"/><path class="cls-3" d="M153.82,173.54c-.38-.43.13-.52.43-.52C154.33,173.53,153.58,173,153.82,173.54Z"/><path class="cls-3" d="M153.28,173c-.09-1-1-.28-1.72-.64.53.29.38.29.32.81-.6-.21-.24-.88-.9-.42.07,0-.13.82.53.73-.65.68-1.36-1-1.72-.63.6.06.81-.25,1.33-.4.29-.23-.09-.59,0-.89.38.43.68.35,1.26,0-.15,0-.36.23-.29.38.08-.15.37-.08.52-.09.08.15-.15,0-.22.15.46.81.74-.08,1-.31,0,.15-.44.45-.13.89s.44-.08.66,0Z"/><path class="cls-3" d="M153.07,173.49c.22,0,.3.21.45.14-.74.09.09,1-.66.53.53.36,0,1.11.47,1.25l-.74.09c0-.15.07-.15.22-.23-.3-.36-.88.32-.66.61l-.68-.73c-.15-.07.38.44.45,0-.46-.8-.81.32-1.11.4-.09-.74-.4-1.55-1.29-1.39.74-.09.89-.09,1.7-.18.53.44-.81.31-.13.75l.37-.16c-.07.08-.15.08-.15.15.44-.23.9.13,1.11-.47-.53-.28-.23-.44-.54-.88,0,1.12,1.27.35,1.63-.18C153.37,173.48,153.06,173,153.07,173.49Z"/><path class="cls-2" d="M153.1,174.9l-.3-.22Z"/><polygon class="cls-2" points="151.26 172.26 151.93 172.02 151.93 172.25 151.26 172.26"/><path class="cls-2" d="M150.89,125l-.58.38Z"/><path class="cls-3" d="M150.74,172.2c-.68-.81.46.58-.66.23.43-.45-.32-.88.65-.68Z"/><path class="cls-2" d="M148,127.24c-.52.23-1-.87-.32-.89C148.1,126.35,148.56,127,148,127.24Z"/><path class="cls-2" d="M148.46,198.76c-.58.61-.32,2.16-1.14,2.33a.63.63,0,0,0-1-.13c-.21.45.17,1-.27,1.34-1.87-.55-1.62.56-3.48.6-.43.6.1,1.4.34,2.07-.44.08-.16-.45-.38-.59-.19,1.94.89,3.7.93,5.7-.16-.37-.89-.05-.89,0l-1.12-3.76c-3.36-1.12-6.32-.32-9.56,1.08-1,.32-.1,2.16-1.38,1.51-.92-1.68,1.49-3.37.35-4.76a37.11,37.11,0,0,1-4.83-3.69c-.62-1.17,2-.93.7-2.24-.37,0-.81.24-1.19-.05.21-.67,1.69-.55,1.3-1.66-.38-.44-1.18.17-1.2-.72.28-.75,1.41.12,1.54-.92,1-1.36-1.06-.94-1-1.91a1.69,1.69,0,0,1,1.49-.1,5.36,5.36,0,0,0,1.29-2.11,2.59,2.59,0,0,1-1.21-.94c1-.25,2.31.25,3.34-.44.72-.83-1-.8-.18-1.56.59.14,1.13,1,1.87.85l.79-1.35c3.12-.14,5.6,1.45,8.71.86a11.82,11.82,0,0,0,4.8,2.28c-.36.68-.72,1.2-.33,1.94.45.21.9.5,1.35.72.08.44-.43.67-.2,1.11l1.05.58c-.35.75-1,1.35-.85,2.17-.05.74.76.72,1.21,1C149.2,198.45,148.76,198.61,148.46,198.76Z"/><path class="cls-2" d="M144.51,118.1a1.07,1.07,0,0,1-.24-1C144.71,117.05,144.88,117.8,144.51,118.1Z"/><path class="cls-2" d="M139.65,182.08c.39.81-.8.76-.64,1.42-1.26.1-1.3,1.82-2.79,1.32-1.63.48-1.22-1.61-2.85-1.27-.18-1.49-1.78-3.24-.1-5,.42-1.27,2.08,0,1.82-1.6a1.87,1.87,0,0,0,1.28.72c.37,0,.65-.68,1-.47.46.59.85,1.55,1.73,1.08-.36.75.25,1.19.92,1.4C138.58,180.39,141.05,181.31,139.65,182.08Z"/><rect class="cls-3" x="138.35" y="180.25" width="0.37" height="0.07" transform="translate(-3.65 2.87) rotate(-1.17)"/><path class="cls-3" d="M138,179.66c-.81.61-.08-.44-.9-.35,1,.28-.23-.37.43-.68.53.36-.21.38,0,.82l.89.06-.44.23Z"/><polygon class="cls-3" points="137.86 181.6 138.08 181.29 138.08 181.52 137.86 181.6"/><path class="cls-3" d="M137.15,183c-.3-.07-.15-.14,0-.37Z"/><polygon class="cls-3" points="136.54 178.8 136.7 179.32 136.4 178.95 136.54 178.8"/><polygon class="cls-3" points="135.66 179.56 136.1 179.26 135.81 179.56 135.66 179.56"/><path class="cls-3" d="M135.36,179.27l-.29.23Z"/><path class="cls-3" d="M135.32,180.91l-.38-.29Z"/><path class="cls-3" d="M134.65,180.7l-.37.23Z"/><path class="cls-2" d="M118.85,167.13c-.24-.44-.84-.95-.25-1.33a.75.75,0,0,1,1.12.49C119.73,166.81,119.3,167.34,118.85,167.13Z"/><path class="cls-2" d="M115.23,168.17c-2.15.19-2,3.08-3.78,4.09-.88.39-.77-1-1.65-.86,0,.45-.21.9-.13,1.27-.37-.22-.47-1.26-1.28-.94a5.29,5.29,0,0,0-1.9,1.52c-1.71-.26-2.17-4.34-4.19-1.85.13-.59.94-1,.71-1.57-.61-.66-2.51.94-2.32-.77.21-.23.43-.53.06-.74-.69-.73-1.63.62-2.09-.11.8-1,.7-2.39,2-2.86.42-.83-.7-1.4-.79-1.92-.1-1.33,1.84-.85,2-2.12a3.66,3.66,0,0,1-1-2.95c1.13.72,1.33-.7,1.69-1.15,1.73,1.23,2.49-1.68,4-.82-.08-.37-.46-.81,0-1,.68.43,0,1.7,1.3,1.53.51-.23,1.12.57,1.63,0,.29-.23-.17-1,.43-.9.47,1.1,2,1.67,3,2.39.6.5-.5,1.27.55,1.47.44-.08.65-.76,1.25-.55.41,2.15,0,5.2,1.78,7.25A2.16,2.16,0,0,1,115.23,168.17Z"/><path class="cls-2" d="M136.45,168.14a2.05,2.05,0,0,1-2.15-.11c-.61-.36-.25-1.18-1-1.39.59-.16.13-1,.5-1.27.51-.46,1-1.06,1.83-.93.76.43,2,.92,1.83,2C137.47,167.22,136.81,167.61,136.45,168.14Z"/><path class="cls-3" d="M135.89,165.84c-.16-.44.13-.67.5-.6-.2.75.75.28.54,1A1,1,0,0,1,135.89,165.84Z"/><path class="cls-3" d="M136.49,166.57l-.29-.14Z"/><path class="cls-3" d="M134.81,167.57l.36-.23-.15-.07c0,.15.67.06.9.28C135.55,167.56,134.83,168.54,134.81,167.57Z"/><path class="cls-3" d="M134.33,165.8c.14,0,1.12.65.69,1.25.42-1.2-.89.09-1.2-.57h.52c-.9-.43.2-.82.35-1.2,0,.08-.08.08-.08.15a.47.47,0,0,0,.67-.08c.08,0,.15.22.22,0C135.59,166.15,134.84,165.49,134.33,165.8Z"/><path class="cls-3" d="M135,165l.06-.3c.08.22.45.07.38.37Z"/></g><g class="cls-1"><path class="cls-2" d="M100.84,155.65l-.3.14c.62-.53-.32-1,0-1.1C100.87,154.9,101.16,155.26,100.84,155.65Z"/><path class="cls-2" d="M83.47,98.44l-.82.37c-.93-.68,0-1.6.12-2.15.52-.24.7-1.18,1.38-.51C84.82,97.08,84.19,97.86,83.47,98.44Z"/><path class="cls-2" d="M79.16,116.22c1.33.75-1.86,1.59.21,2.87.54.12.84-1.13,1.52-.45,1.78,3.87,6.61,6.34,10.46,8.53-1,0-1.81,1.45-3,1-2-.56-4.18-4-5.94-1.1a12.07,12.07,0,0,1-9.08,2.81c-3.23,3.46,2.18,6.91-.8,10.62a2.89,2.89,0,0,1-2.63-.89c-1.85-1.87-.89-4.9-3.16-6.33-.92.67-1.66,1.75-2.87,1.81-3.4-.41-7.22-.14-10-.73.3-1.5,2-2.5,1.79-3.91-1.21.06-1.49-1.91-2.88-.9-1-.63-.44-2-.11-2.91-1.32-1-5,2.89-4.31,0-.82-1,1.24-1.06,1.55-1.45a2.65,2.65,0,0,0,1,.53c2.1-2.94,5.32-4.54,7.48-7.38-1.37-2.71-5-2.52-7.13-4.75.82-.38,2.09.77,3.14.65l2.3-1.18c-.8-3.09,2.28-3.64,2.56-6,.44.42.71,1.53,1.39,2,.79,2,2.48-.52,3.59.82,1.23-.56,1.23-2.42,2-3.5-.81-1.23-.06-2.56-1-3.6-.26-1.36,1.41-.15,1.88-.74.61,2.68.26,5.93,2,8.2,1.54-.95.59,1.83,2,.67l.59-1.38c.24.51.63.82,1.24.54a13,13,0,0,0,1.3-2.82c.34.47.55,1.48,1.45,1.56l1.5-1.31a5.88,5.88,0,0,0-.47,5.16c.84.22,1.19-1.17,1.54-1-.21.35-.84,1.13-.61,1.64,2.11,0,5-.83,6.31-2.4-.52.48.43.41.58.72C82.83,113.18,80.58,114.46,79.16,116.22Z"/><path class="cls-2" d="M101.07,166.91c-.4,2.9-2.58,3.53-5.12,4.45-1.33-.75-3.34-.82-4.2-1.9,1.21-1.67-2.15-3.34.44-4.15-1.41-1.46,1.12-2.12,2-2.9a4.87,4.87,0,0,1,4,.13c.64.58,1,1.39,2.06,1.53C100.43,165,99.57,166.61,101.07,166.91Z"/><path class="cls-3" d="M98.75,165.62c-.79-.37-.12-.8.29-1C99.47,165.3,98.07,165,98.75,165.62Z"/><path class="cls-3" d="M97.71,165.24c-.76-1.38-1.51.2-2.77.16.91.08.7.17.93.93-1,.07-.87-1.08-1.51-.05.1,0,.31,1.22,1.18.7-.49,1.33-2.49-.59-2.76.15.86-.27,1-.82,1.6-1.35.27-.49-.48-.77-.56-1.22.79.37,1.15.09,1.73-.8-.2.1-.37.54-.17.7,0-.25.46-.34.66-.43.2.15-.2.09-.21.34,1.13.85,1-.57,1.24-1.06.1.21-.33.89.36,1.32s.57-.39.92-.42Z"/><path class="cls-3" d="M97.69,166c.3-.14.54.12.7-.08-1,.57.71,1.28-.59,1.14,1,.18.7,1.53,1.41,1.45l-1,.57c-.1-.2,0-.25.16-.44-.64-.33-1,1-.54,1.23l-1.39-.6c-.25,0,.79.38.62-.28-1.13-.84-.94.93-1.3,1.22-.57-1-1.49-1.91-2.62-1.14,1-.58,1.17-.67,2.25-1.29,1,.29-.94.92.26,1.12l.42-.44c-.06.15-.16.2-.11.3.47-.59,1.31-.36,1.25-1.32-.9-.08-.59-.47-1.28-.89.6,1.57,2-.29,2.15-1.24C98.09,165.8,97.36,165.28,97.69,166Z"/><path class="cls-2" d="M98.57,167.93l-.54-.12Z"/><polygon class="cls-2" points="94.44 165.38 95.22 164.65 95.36 164.96 94.44 165.38"/><path class="cls-2" d="M65.49,100.15l-.59.89Z"/><path class="cls-3" d="M93.68,165.61c-1.43-.7,1,.53-.78.72.34-.89-1-1,.5-1.34Z"/><path class="cls-2" d="M62.77,105c-.58.63-1.89-.61-1-1C62.41,103.66,63.44,104.3,62.77,105Z"/><path class="cls-2" d="M106.52,203.79c-.44,1.19.85,3.19-.18,3.91-.59-.47-1.2-.19-1.52.45,0,.76.81,1.23.43,2-2.92.35-1.91,1.74-4.46,2.91-.24,1.1,1,1.89,1.71,2.67-.56.38-.48-.52-.88-.58.91,2.79,3.46,4.58,4.73,7.33-.44-.41-1.27.46-1.23.57l-3.81-4.55c-5.34.48-9,3.37-12.6,7.26-1.13,1,1.16,3.05-1,2.93-2.3-1.78,0-5.57-2.38-6.81-3.1-.3-6.53-1.57-8.91-2.2-1.57-1.26,2.19-2.49-.39-3.53-.51.24-1,.82-1.68.65-.11-1.06,2-1.79.81-3.09-.79-.37-1.54,1-2.1-.27-.06-1.21,2-.68,1.58-2.2.58-2.49-2-.67-2.54-2.05a2.57,2.57,0,0,1,2-1c.23-.85.83-2.49.52-3.71a3.83,3.83,0,0,1-2.24-.57c1.19-.92,3.35-1,4.36-2.62.5-1.59-1.84-.51-1.19-2,.91-.16,2.19.73,3.11.06l.28-2.35c4.24-2.07,8.63-1.37,12.59-4,2.63.89,5.45.58,8,.27-.09,1.15-.27,2.09.71,2.88.75,0,1.55.15,2.3.18.39.56-.19,1.2.4,1.67l1.8.16c0,1.25-.58,2.49.14,3.52.36,1.06,1.48.55,2.28.67C107.35,202.92,106.83,203.4,106.52,203.79Z"/><path class="cls-2" d="M52.47,94.39a1.62,1.62,0,0,1-1-1.28C52.12,92.83,52.8,93.75,52.47,94.39Z"/><path class="cls-2" d="M84.27,186c1,.89-.66,1.53,0,2.36-1.69.9-.71,3.29-3.08,3.51-2,1.64-2.66-1.5-4.72-.06-1.14-1.94-4.4-3.4-3.13-6.83-.19-2,2.9-1.21,1.56-3.31a2.75,2.75,0,0,0,2.2.22c.51-.23.5-1.34,1.15-1.26,1,.53,2.1,1.62,3,.45,0,1.25,1,1.49,2.11,1.38C81.76,184.29,85.74,184.07,84.27,186Z"/><rect class="cls-3" x="81.36" y="184.1" width="0.56" height="0.11" transform="translate(-69.38 50.85) rotate(-24.66)"/><path class="cls-3" d="M80.48,183.64c-.75,1.34-.38-.56-1.46.06,1.51-.2-.54-.37.19-1.2,1,.18-.07.65.52,1.12l1.27-.46-.47.59Z"/><polygon class="cls-3" points="81.49 186.39 81.61 185.84 81.75 186.15 81.49 186.39"/><path class="cls-3" d="M81.36,188.79c-.45.09-.3-.11-.23-.5Z"/><polygon class="cls-3" points="77.98 183.31 78.51 183.93 77.87 183.61 77.98 183.31"/><polygon class="cls-3" points="77.22 184.89 77.65 184.2 77.43 184.8 77.22 184.89"/><path class="cls-3" d="M76.63,184.67l-.27.49Z"/><path class="cls-3" d="M77.56,187l-.7-.17Z"/><path class="cls-3" d="M76.5,187.07l-.37.55Z"/><path class="cls-2" d="M46.43,177.79c-.58-.47-1.73-.81-1.15-1.69a1.16,1.16,0,0,1,1.86,0C47.47,176.82,47.18,177.82,46.43,177.79Z"/><path class="cls-2" d="M42,181.41c-2.86,1.56-.83,5.44-2.77,7.94-1,1.07-1.68-1-2.81-.19.28.61.26,1.36.6,1.82-.66-.07-1.41-1.45-2.35-.53A8.12,8.12,0,0,0,33,193.71c-2.54.67-5.62-4.71-6.93,0-.17-.91.72-1.94,0-2.61-1.24-.54-2.91,2.81-3.68.33.17-.45.28-1-.37-1.07-1.38-.6-1.86,1.85-2.94,1.11.51-1.84-.48-3.73,1.07-5.19.1-1.4-1.8-1.51-2.23-2.18-.95-1.79,2-2.29,1.54-4.16a5.51,5.51,0,0,1-3.2-3.48c2,.32,1.42-1.76,1.64-2.6,3.15.65,2.44-3.84,5-3.55-.33-.46-1.12-.84-.65-1.43,1.2.19,1.08,2.35,2.71,1.35.58-.63,1.91.11,2.25-1,.27-.49-.86-1.33.05-1.51,1.31,1.25,3.73,1.13,5.62,1.5,1.15.34.08,2.06,1.65,1.71.57-.38.45-1.44,1.41-1.51,1.87,2.72,3.07,7.23,6.83,9A3.28,3.28,0,0,1,42,181.41Z"/><path class="cls-2" d="M71.44,168.58a3.11,3.11,0,0,1-3.06,1.15c-1-.13-1-1.49-2.21-1.32.72-.58-.41-1.42-.08-2.06.43-.94.77-2.09,2-2.4,1.31.14,3.37.06,3.72,1.63C72.3,166.7,71.62,167.63,71.44,168.58Z"/><path class="cls-3" d="M69.27,165.75c-.49-.52-.22-1,.34-1.15.16,1.16,1.21-.06,1.37,1.1A1.64,1.64,0,0,1,69.27,165.75Z"/><path class="cls-3" d="M70.55,166.39h0Z"/><path class="cls-3" d="M68.82,168.8l.37-.55h-.25c.09.2,1-.32,1.41-.16C69.84,168.33,69.43,170.12,68.82,168.8Z"/><path class="cls-3" d="M67.08,166.63c.2-.1,2,.22,1.71,1.31-.13-1.91-1.17.66-2-.07l.71-.32c-1.5-.05-.21-1.27-.24-1.87,0,.1-.05.15,0,.25a.71.71,0,0,0,.88-.52c.1,0,.34.21.3-.14C69.05,166.34,67.61,165.89,67.08,166.63Z"/><path class="cls-3" d="M67.48,165.08l-.08-.45c.24.26.66-.18.74.28Z"/></g><g class="cls-1"><path class="cls-2" d="M72,62h-.27c.63-.2.07-.82.34-.83C72.22,61.45,72.32,61.81,72,62Z"/><path class="cls-2" d="M77.13,14.05l-.72,0c-.48-.8.51-1.19.77-1.56.45,0,.89-.66,1.18.06C78.56,13.47,77.85,13.85,77.13,14.05Z"/><path class="cls-2" d="M68.32,25.89c.75,1-1.89.59-.75,2.19.37.26,1-.57,1.27.15.09,3.43,2.91,6.79,5.07,9.63-.74-.34-1.8.51-2.54-.2-1.3-1-1.84-4.29-4.06-2.69a9.81,9.81,0,0,1-7.63-.78c-3.49,1.54-.56,5.81-4,7.62a2.31,2.31,0,0,1-1.67-1.49c-.78-2,.88-3.92-.34-5.69-.9.2-1.79.77-2.71.44-2.39-1.39-5.32-2.39-7.16-3.7.69-1,2.23-1.24,2.56-2.33-.92-.34-.51-1.89-1.86-1.58-.56-.8.32-1.64.84-2.2-.66-1.16-4.6.58-3.2-1.36-.3-1,1.25-.39,1.61-.58a2.28,2.28,0,0,0,.56.7c2.5-1.52,5.39-1.69,7.89-3.11-.16-2.45-2.91-3.45-3.79-5.78.72,0,1.3,1.23,2.12,1.48l2.08-.15c.38-2.55,2.84-2,3.8-3.64.19.45,0,1.36.41,1.89,0,1.72,2,.39,2.4,1.74,1.09,0,1.68-1.4,2.57-2-.21-1.17.76-1.92.37-3,.24-1.09,1.1.33,1.63,0-.39,2.18-1.68,4.48-1.08,6.73,1.45-.23-.13,1.54,1.3,1.14l.88-.84c0,.45.21.81.75.79a10.83,10.83,0,0,0,1.86-1.68c.1.45-.06,1.27.58,1.61l1.53-.49a4.74,4.74,0,0,0-2,3.67c.56.44,1.25-.48,1.44-.22-.26.19-1,.57-1,1,1.55.68,4,1,5.43.21-.53.19.2.44.21.71C72,24.79,69.93,25,68.32,25.89Z"/><path class="cls-2" d="M68.57,70.43c-1.21,2-3,1.8-5.2,1.68-.75-1-2.22-1.66-2.52-2.74,1.42-.85-.54-3.15,1.64-2.94-.59-1.52,1.5-1.22,2.4-1.51a3.9,3.9,0,0,1,2.93,1.36c.29.63.31,1.35,1.05,1.78C68.71,68.79,67.56,69.73,68.57,70.43Z"/><path class="cls-3" d="M67.26,68.74c-.47-.53.16-.64.52-.65C67.89,68.72,67,68,67.26,68.74Z"/><path class="cls-3" d="M66.61,68.13c-.13-1.27-1.19-.33-2.11-.76.65.35.47.35.4,1-.74-.26-.31-1.08-1.11-.52.09,0-.15,1,.66.89-.79.84-1.66-1.22-2.1-.75.73.07,1-.31,1.61-.5.36-.28-.11-.72,0-1.09.47.53.83.43,1.54,0-.18,0-.44.28-.35.46.09-.18.45-.1.63-.11.1.18-.18,0-.26.19.57,1,.9-.11,1.25-.4,0,.19-.52.56-.15,1.09s.54-.1.82,0Z"/><path class="cls-3" d="M66.35,68.68c.27,0,.37.26.55.16-.9.12.12,1.18-.8.66.65.43,0,1.36.59,1.52l-.9.12c0-.18.08-.19.26-.28-.37-.44-1.07.39-.79.74l-.84-.88c-.19-.08.47.53.54,0-.57-1-1,.39-1.34.49-.12-.9-.51-1.89-1.59-1.68l2.08-.24c.64.53-1,.39-.16.91L64.4,70c-.09.09-.18.1-.18.19.54-.29,1.09.15,1.34-.59-.64-.34-.28-.53-.66-1.06-.05,1.36,1.55.41,2-.24C66.71,68.67,66.33,68,66.35,68.68Z"/><path class="cls-2" d="M66.4,70.4,66,70.14Z"/><polygon class="cls-2" points="64.14 67.2 64.94 66.91 64.95 67.18 64.14 67.2"/><path class="cls-2" d="M63.25,9.64l-.72.47Z"/><path class="cls-3" d="M63.5,67.13c-.84-1,.57.71-.8.29.52-.56-.4-1.07.79-.84Z"/><path class="cls-2" d="M59.7,12.37c-.63.28-1.21-1.06-.39-1.08C59.85,11.28,60.42,12.08,59.7,12.37Z"/><path class="cls-2" d="M61,99.52c-.7.75-.38,2.64-1.37,2.85-.28-.54-.83-.52-1.27-.15-.26.55.21,1.17-.32,1.64-2.28-.66-2,.69-4.23.75-.52.74.14,1.72.43,2.53-.54.1-.19-.54-.47-.71-.2,2.36,1.12,4.49,1.19,6.93-.19-.44-1.09-.06-1.08,0l-1.4-4.57c-4.11-1.34-7.71-.33-11.64,1.41-1.17.39-.11,2.63-1.67,1.86-1.14-2,1.79-4.13.38-5.81a46.3,46.3,0,0,1-5.92-4.45c-.76-1.43,2.41-1.15.83-2.74-.45,0-1,.3-1.45,0,.25-.82,2.06-.69,1.57-2-.46-.52-1.44.23-1.47-.86.34-.91,1.72.13,1.87-1.14,1.22-1.66-1.3-1.14-1.24-2.32a2.13,2.13,0,0,1,1.8-.14A6.37,6.37,0,0,0,37.07,90a3.06,3.06,0,0,1-1.48-1.13c1.17-.31,2.81.28,4.06-.57.88-1-1.21-1-.24-1.9.73.17,1.4,1.23,2.3,1l.95-1.66c3.79-.2,6.84,1.71,10.62,1a14.47,14.47,0,0,0,5.87,2.73c-.43.83-.87,1.47-.39,2.37.55.25,1.11.6,1.66.86.1.54-.52.82-.24,1.36l1.29.69c-.43.92-1.22,1.66-1,2.66-.07.9.93.87,1.48,1.22C61.87,99.13,61.33,99.33,61,99.52Z"/><path class="cls-2" d="M55.41,1.26A1.3,1.3,0,0,1,55.1,0C55.64,0,55.85.89,55.41,1.26Z"/><path class="cls-2" d="M50.08,79.28c.48,1-1,.93-.77,1.74-1.53.13-1.56,2.22-3.39,1.63-2,.6-1.5-2-3.48-1.53-.24-1.8-2.2-3.92-.17-6.06.5-1.55,2.53,0,2.2-2A2.23,2.23,0,0,0,46,74c.45,0,.79-.84,1.25-.58.56.71,1.05,1.87,2.12,1.3-.43.91.31,1.44,1.13,1.69C48.76,77.23,51.77,78.32,50.08,79.28Z"/><rect class="cls-3" x="48.48" y="77.05" width="0.45" height="0.09" transform="translate(-2.14 1.4) rotate(-1.61)"/><path class="cls-3" d="M48,76.34c-1,.76-.11-.53-1.1-.42,1.18.33-.29-.44.52-.83.64.44-.26.46,0,1l1.08.06-.53.29Z"/><polygon class="cls-3" points="47.89 78.7 48.15 78.33 48.16 78.61 47.89 78.7"/><path class="cls-3" d="M47,80.45c-.37-.08-.19-.18,0-.45Z"/><polygon class="cls-3" points="46.26 75.31 46.46 75.94 46.08 75.49 46.26 75.31"/><polygon class="cls-3" points="45.2 76.25 45.73 75.87 45.38 76.24 45.2 76.25"/><path class="cls-3" d="M44.83,75.89l-.36.28Z"/><path class="cls-3" d="M44.79,77.88l-.46-.34Z"/><path class="cls-3" d="M44,77.63l-.45.29Z"/><path class="cls-2" d="M24.59,61.25c-.29-.54-1-1.15-.32-1.62a.92.92,0,0,1,1.37.59C25.66,60.86,25.14,61.51,24.59,61.25Z"/><path class="cls-2" d="M20.18,62.55c-2.61.25-2.33,3.78-4.56,5-1.07.48-.94-1.24-2-1a9.78,9.78,0,0,0-.14,1.54c-.46-.26-.59-1.52-1.57-1.13a6.42,6.42,0,0,0-2.3,1.87c-2.09-.3-2.69-5.26-5.13-2.21.16-.73,1.14-1.21.85-1.92-.75-.8-3,1.17-2.84-.92.27-.28.53-.65.07-.91-.84-.88-2,.78-2.54-.11,1-1.2.82-2.92,2.44-3.51.51-1-.87-1.69-1-2.32-.14-1.63,2.23-1.06,2.46-2.61a4.41,4.41,0,0,1-1.28-3.58c1.38.87,1.61-.86,2-1.42,2.13,1.48,3-2.07,4.86-1-.1-.45-.57-1,0-1.27.83.52.06,2.09,1.59,1.86.62-.29,1.38.69,2-.06.35-.28-.22-1.26.51-1.1.58,1.34,2.41,2,3.7,2.89.75.61-.59,1.55.69,1.79.54-.11.79-.93,1.52-.68.52,2.62,0,6.34,2.24,8.81A2.65,2.65,0,0,1,20.18,62.55Z"/><path class="cls-2" d="M46.05,62.31a2.49,2.49,0,0,1-2.63-.11c-.73-.43-.31-1.44-1.22-1.68.72-.2.15-1.18.59-1.56.62-.56,1.23-1.3,2.23-1.15.92.52,2.47,1.11,2.24,2.38C47.29,61.19,46.48,61.66,46.05,62.31Z"/><path class="cls-3" d="M45.34,59.52c-.2-.54.16-.82.61-.74-.24.91.92.34.67,1.25A1.3,1.3,0,0,1,45.34,59.52Z"/><path class="cls-3" d="M46.09,60.41l-.37-.17Z"/><path class="cls-3" d="M44,61.64l.44-.28-.18-.09c0,.18.82.07,1.1.33C44.94,61.62,44.07,62.82,44,61.64Z"/><path class="cls-3" d="M43.44,59.48c.18,0,1.38.78.85,1.52.5-1.46-1.08.12-1.46-.68l.63,0c-1.1-.51.24-1,.41-1.46,0,.09-.09.09-.09.18a.57.57,0,0,0,.82-.11c.09,0,.18.27.27,0C45,59.9,44.06,59.11,43.44,59.48Z"/><path class="cls-3" d="M44.22,58.47l.08-.37c.1.27.55.08.47.44Z"/></g></g></g></svg>