<svg xmlns="http://www.w3.org/2000/svg" viewBox="0 0 435.29 669.18"><defs><style>.cls-1{fill:#050101;}</style></defs><title>ink_m03</title><g id="レイヤー_2" data-name="レイヤー 2"><g id="Content"><path class="cls-1" d="M370.83,519.19l-.61-.25c1.6.19,1-1.77,1.59-1.51C372,518.22,371.82,519.13,370.83,519.19Zm64.46-104.41c.07-1.9-1.56-.89-2.59-1.32-1,.56-3.56.44-3.31,2.72l1.64.69C432.85,417.14,434.84,417,435.29,414.78Zm-22,21.46c.26-.62-1.13-1.92.27-1.81-4,.26-9.18-2.88-12-6,.43-1,2.42-1.16,3.21-1.31-.15-.79-2.65.57-3.46-1a11.67,11.67,0,0,1,8.17-6.24l-3.93-.43c-1.09-1.43.09-3.11.32-4.22a26.21,26.21,0,0,1-5.87,1.89c-1.23-.51-1.29-1.51-.86-2.53l-2.83,1c-3.64-.56,1.7-2.92-1.77-3.88.92-5.65,6.16-9.51,9.25-14-1.49.1-2-4-3.62-1.75-.21,2.81-3.15,3.51-3.86,6.35-2.57.37-5.3,2.86-7.77,1.83.47-3.43-5.46-2.53-3.62-6.35-.31-1.58,1-3.46,1-4.66-3.82,2.75-8.76-1-12.2,4.32l-4.81-1.78c-1.59-1.38-1.62-4.78-3.27-5.47-.39,6.12,4.75,11.17,2.64,16.8-7.05.68-13.71-1.87-20.85-1a5.55,5.55,0,0,1-.54-2.16c-1,.07-3.89-2.83-4.22-.31-5.09,2.94,5.5,3,5.82,6.29-1.75.72-4.58,1.71-4.12,4.08,3.34.67.85,3.73,2.57,5.42-1.86,2.12-5.52,1.07-8.12,2.64,2.83,4.8,8.37,10,12.34,15.55,1.71,1.68,4.28,1.3,6.51,1.76,1,5.22-4.76,7.9-5,13.12a5.73,5.73,0,0,0,2.24,5c9.44-.64,7.2-13.17,16.59-13.11,3.94,5,10,9,16.32,9.49,6.6-1.34,4.53,6.48,6.38,10.15,1,2.34,4.2,1.52,5.5,3-2-8.56-4.88-18.95-1.61-26.76.07-1.9-2.14-.65-2.71-1.61-.91-4.73,4.62-1.21,3.92-4.16C403.74,434.19,408.64,435.75,413.27,436.24Zm-55.52,93.43c-1.21-1.72-.52-3.36-.54-5.06-.95-2.33-2.44-5.13-5.2-6-2.31-.25-6.69-3.05-6.92,1-4.68-2.69-2.6,4.46-6.66,4.94-.41,2.72,2.19,5.74,2.88,8.69,4.77,2.48,8.62,4.81,13.39,1.5C353.12,532.08,356.66,531.14,357.75,529.67Zm-2.46-1c-.82-.34-2.35-.73-1.83.92C353.52,527.65,354.89,530.16,355.29,528.63Zm-.31-1.58c-.53-.46-1.74.72-1.85-.77-.3-1.57,1.28-1.88,1.45-2.29-1.08.27-2.94,2.4-3.22-.39.37-.32.82.35.78-.14-.41-.18-1.14-.73-1.52-.4,0-.5.84-.86,1.25-.69-2.07.34-3,.2-3.49-1.46-.55.74.05,2.2-1,2.47-1.61-.2-2.56.37-4.12-.52,1.45-.6,1.33,4.9,3.95,3.82-1.93-.57-.38-2.57-.58-2.65,2.37-.46.56,1,2,2.26.81-1.35,1.22-1.18.12-2.6,1.63,1.89,5,.86,4,3.83Zm-1.92,1.14c-1.63,1-6.19,1.51-4.69-1.49.3,1.58-.69,1.65.41,3.07-1.31,1.39-2.11-.15-3.61-.06.09-.2.3-.11.59-.23l-1.2,0c-1.33-2,2.19-.05,1.27-1.89-2.34-.74-2.76-.91-4.9-1.56,2.64.62,2.52,3.22,1.86,5.36.91.14,3.23-2.51,3.52.27-.73,1.14-1.57-.9-1.24-.52l1,2.83c-.27-1.08,2.15-2.24,2.54-.87-.5,0-.71-.05-.88.36l2.14.65c-1.06-.92,1.24-2.38.23-4,1.54,2.1.31-1.32,2.46-.66-.5,0-.45-.67-1.07-.93C352.09,527.05,352.31,528.83,353.06,528.19Zm-3.21,4.2-.56-.95Zm0-8.68.26-.62-2.11-.16ZM404.35,392.9l-2.08.34Zm-57.17,128c-2.42-1.73-.88.36-2.63,1.08,2.66,2.32,1.21-2.88,2.11.16Zm46.67-128.28c-1.85-.77-1.91,2.83-.21,2.81C395.54,395.5,395.08,393.13,393.85,392.61ZM311.27,591.12c-.88-1.34-3.15-2.28-2.08-4.25.53-2.43,3.07-3.3,5-4.93L312,579.09c-.1-1.49,1.6-1.5,1.9-2.82-1-1.14-1.86-2.47-2.84-3.61-.16-2.48,1.47-3.49,3.27-4.91-3.92-3.33-8.17-7-10.4-12.08-9.24-2.17-14.13-9.53-22.85-12.94l-3.81,2.76c-2.22-.45-2.63-3.52-4.1-4.62-3.12,1.11,1.6,3.09-1.4,4.48-3.65.65-6.75-2.33-9.68-2.84a7.65,7.65,0,0,0,2.17,4c-1.35,2.09-4.56,3.41-6.1,4.21-1.07-.93-2.83-1.91-4.2-1.51-1.33,2.58,4.86,4,.43,6.46-1.61,2.7-3.66-1.05-5.34.66-1,2.46,1.91,1.77,2.43,3.43-.27,3.51-4.2,1.38-5.59,3,.68,1.25,2.17,1.15,3.2,1.58,1.94,5.17-4.91,1.34-4.64,5.31,2.29,4.34,5,11.05,8.77,16,1.45,5.2-7.23,6.89-6.74,12.64,2.72,3.31,2.61-2.77,5.63-2.47,10.59.08,19.67,1.47,27.54,8.63l-1.5,11.68c.08-.21,2.48-.17,2.46,1,2.33-5.55,1.51-11.68,4.36-16.77.45.67-1,1.77.34,2.07.16-2.1-.33-5,1.59-6.09,5.14,2.15,5.81-1.2,10.26,2.6,1.66-.52,1.24-2.38,2.37-3.36,1.37-.39,2.61.13,2.7,1.62,2.44.53,3.63-4,6-5C309.14,592.17,310.55,592.27,311.27,591.12ZM395.84,363a3.2,3.2,0,0,0-.58,3.13C396.63,365.76,397.08,363.53,395.84,363ZM308.23,529.71c-1.6-1.39-2.72-3.31-.84-4.93-3,.2-2.89-2.91-3.43-5.07-.77-1-2.37.46-3.4,0-1.64-.68-2.15-2.35-2.63-3.51-1.28,4.78-4.25-.82-6.95,2.16-6.7,2.75-4.45,9.49-5.76,13.77,4.87,1.07,1.23,6.31,6.27,7,3.5,3.16,5.69-1.48,9.27-.23.36-2,3.56-.44,3.48-3.13C309,535.35,303.34,529.84,308.23,529.71Zm-5.33-.54-.09.21,1,.43.08-.21Zm-.43-1.87,1.49-.09L301.58,526c-.1-1.5,2-.64.95-2.26-2.2,0,.32,3.27-2,1.33,2.35.74-.91,2.76,2,2.06Zm-1.86,5,.26-.62-1,.57Zm-4,2c-.67.44-1.17.48-.43,1Zm2.45-11,.39,1.37.19-1.61Zm-2.33,1,1.16-.48-1.57.3Zm-.89-1.34-1.08.27Zm-2.1,4.43L293.1,526Zm-1.59-1.39-1.29.19Zm-23.46-57.64a2.29,2.29,0,0,0-2.48-2.72c-2.08.33-1,2.46-.93,3.95C266.29,470.63,268.13,469.7,268.73,468.26Zm-9-3.28c-2.53-7.82,2.44-15.64,3.9-22-1.38-1.3-2.77.29-4.09,0-2.62-1.82,1.32-2.58.28-4.71-2-3.26-5.44-6.63-5.39-10.22-1.47-1.1-1.18,1.67-2.26,1.94C250,431,249.33,428,247.64,428c-3.67-1.05-.36-3.77-1.69-5.78-1.49.11-1,1.77-1.2,2.88-3.08-4.18-8.7,2.89-12-2.59-1.55.81-3.79,4.46-6,1.11C225,426.28,225,430.17,226,433c-2.08,3.24-6.82-.44-8.16,3.34-.4,1.53,2,4.47-.18,6.21-4.22-.31-5.65,3.68-9,5.4.37,2.57,4.59,0,5.58,2.82.77,1.05-.19,1.61-1.07,2-2.59,4.47,4.56,2.39,5.43,4.93-.07,1.9-2.76,2-3.86,3.45,8.59-4.37,4.89,7.36,9.27,10.16,2-.83,4.75-2.12,7.07-1.87,2.6.12,1.6,3.09,2.37,4.13.23-1.11,1.36-2.09,1.87-3.32,2.64.62.6,4.36,3.49,4.36,6.26-.52,9.2-8.71,15.34-6.63A6.53,6.53,0,0,0,259.72,465Zm57.53,25.13c1.82-2.63-1.07-5.52-2.61-7.62-2.09-1.35-4.22-.31-6.17.32-1.37.39-1.09,3.17-2.9,2.89,1.79,1.48-.18,3.31,1,5,1.45,2.3,3.18,2.79,5.78,2.91C314,492.62,316.3,492.37,317.25,490.11Zm-1.27-1c1.48-1.79-1.71-1.68-.23-3.48a1.27,1.27,0,0,0-2.13,1.05C313.66,487.15,314.58,489,316,489.09Zm-1.58.31-.64-.76Zm-2.76,2c-.35-.87-2.29-1.44-2.12-1.85l.33.37-1.29.19C307.44,492.77,310.62,491,311.64,491.38Zm1.55-6.59c-.46.53-.41-.17-.61-.26a1.42,1.42,0,0,1-1.94-.57c.09-.2.29-.12.38-.32-.84.85-4.35.59-2.4,2.85l-1.44-.6c.05,2.2,5.21.25,2.6,3,1.92-1.13,0-4.1-.39-4.27C311.17,484.42,312.45,487.13,313.19,484.79Zm.14-.91c.55-.74-.65-.76-.59-1.46l-.55.74ZM260.9,458.45c-1,.23,1.54,2.06-.59,3.25l1-.23C262.44,460.51,261.8,459.28,260.9,458.45ZM246.57,276.66c-1.61-2.38-2.69.3-4.33.7-.67,1.54-4,3.72-1.6,6.27l2.61-.63C245.72,281.71,248,279.77,246.57,276.66Zm-7.66,45.82c-.24-1-3.09-1.34-1.29-2.46-4.61,3.88-13.76,4.7-20,3.42-.39-1.64,1.91-3.58,2.73-4.47-.89-.82-2.72,3.07-5.08,1.92A17.69,17.69,0,0,1,219.7,306l-5.17,3c-2.6-.76-2.66-3.86-3.38-5.42a40,40,0,0,1-5.46,7.55c-2,.47-2.93-.68-3.32-2.32l-2.56,3.73c-4.93,2.57-.53-5.07-5.61-3.15-3.93-7.71-1-17.08-1.25-25.32-1.73,1.45-5.93-3.08-6,1.09,2.25,3.61-.72,7.09,1,11.2-2.8,2.74-3.9,8.21-7.83,9.15-2.5-4.6-8.92,1.8-10.09-4.5-1.77-1.64-1.91-5.08-3-6.56-2.18,6.76-11.57,6.6-11,16.15l-7.45,2.14c-3.18-.26-6.25-4.37-8.87-3.74,5,7.8,15.76,9.36,18.22,18.12-8,7.11-18.38,10-26.28,17.4a7.84,7.84,0,0,1-2.6-2.15c-1.15,1-7.27,0-5.41,3.39-3.59,8.13,9.39-1.23,12.71,2.48-1.49,2.43-4.06,6.17-1.38,8.65,4.67-2.18,4.37,3.78,8,4.31-.36,4.24-5.77,6.23-7.52,10.46,7.72,3.33,19.15,4.74,28.91,7.93,3.59.52,6.39-2.23,9.51-3.67,5.83,5.52,1.27,13.88,5.61,20.46a8.67,8.67,0,0,0,7.23,4.14c10.94-9.21-3-22.48,8.52-30.79,9.29,2.62,20.23,2.06,28.36-3,6.84-7.53,11.31,3.85,16.84,6.67,3.25,2,6.47-1.89,9.4-1.22C239.77,363.47,227,353.4,224,341c-1.61-2.38-3.2,1.12-4.74.45-5.35-5,4.54-5.59,1.05-8.56C225.47,328.48,232.83,326,238.91,322.48ZM254.7,485.91c-3-1-3.64-3.63-5.17-5.68-3.25-2-7.56-4.07-11.74-2.72-3,1.77-10.88,2.28-7.57,7.37-8.1.9.83,7.76-3.7,12,1.93,3.69,7.79,5.06,11.28,8,8-1.24,14.79-1.83,17.64-10.14C251.21,493,254.68,488.68,254.7,485.91Zm-3.93.94c-1.3.32-3.51,1.2-1.41,2.76C247.75,487.23,251.65,489.06,250.77,486.85ZM249,485.2c-1.06-.09-1.48,2.44-2.94.71-1.78-1.64-.13-3.42-.29-4.09-1.08,1.31-1.44,5.55-4.27,2.42.17-.73,1.31-.32.82-.88-.65.15-2,.14-2.21.87-.48-.58.26-1.79.92-2-2.23,2.26-3.46,2.9-5.57,1.34,0,1.39,2,2.63,1,3.92-2.14,1.21-2.8,2.76-5.49,3.06,1.23-2,6,4.79,8.23,1.13-2.87,1-2.75-2.8-3.08-2.72,2.47-2.68,1.54.67,4.4,1-.23-2.37.43-2.53-2.18-3.28,3.67.84,6.81-3.38,8.24,1.13Zm-1.33,3.1c-1.09,2.68-6.19,7.37-7,2.38,1.78,1.65.63,2.62,3.24,3.37-.36,2.86-2.72,1.7-4.45,3.16-.08-.33.26-.41.51-.82l-1.49,1.05c-3.41-1.26,2.64-2-.13-3.43-3.52,1.19-4.17,1.35-7.37,2.47,3.77-1.61,5.95,1.68,7.06,4.87,1.23-.64,1.69-5.94,4.52-2.81.14,2-2.7.31-2,.47l3.73,2.56c-1.3-1.07.61-4.65,2.31-3.32-.57.48-.9.56-.75,1.21l3.2-1.11c-2.12-.18-.62-4-3.3-5.09,3.74,1.18-.8-1.89,2.4-3-.59.48-1.15-.42-2.13-.18C245.46,487.78,247.32,489.76,247.66,488.3Zm-.15,8-1.55-.66Zm-7.75-10.59-.24-1-2.71,1.7ZM189.34,277.63l-2.23,2.27Zm44.63,207c-4.48,0-.74,1.22-2.23,3.66,5.3.46-1.11-4.58,2.71-1.69Zm-57.7-198c-2.94.71.2,5.14,2.25,3.61C180.91,288.66,178.23,286.19,176.27,286.66ZM253,602.31c-2.28-.83-5.88,0-6.34-3.31-1.52-3.44.79-6.77,1.64-10.44L243,587.05c-1.45-1.74.6-3.27-.2-5.14-2.2-.52-4.48-1.36-6.68-1.86-2.43-2.89-1.34-5.57-.41-8.91-7.75-.55-16.24-1.28-23.47-5.43-13.19,5.61-25.72,1-39.39,4.64l-2.18,6.76c-3.12,1.44-6.35-1.93-9.13-2-2.81,4.15,4.71,2.33,2.31,6.72-3.88,4-10.32,3.18-14.34,5.18a11.53,11.53,0,0,0,6.26,3c.22,3.77-2.52,8.23-3.68,10.59-2.12-.18-5.15.2-6.47,1.9.7,4.34,9.47.5,6.31,7.49.44,4.73-5.41,2-5.93,5.58.94,3.93,3.92.45,6,2,2.82,4.52-3.88,5.43-4.16,8.62,1.95.91,3.68-.54,5.32-.93,7,4.55-4.79,6-.91,10.6,6.67,3.25,16,9,25,11.65,6.4,5-2.67,14.84,3.07,21.42,6.27,1.6.71-5.71,4.65-8,13-9.36,25.28-15.78,41.27-14.09l8.6,15.59c-.08-.33,2.88-2.43,3.92-.95-2.12-8.84-8.59-15.58-9.66-24.33,1.14.41.38,3,2.26,2.22-1.69-2.71-4.84-5.75-3.51-8.84,8.18-2,6-6.65,14.83-6,1.57-2.11-.62-4-.11-6.21,1.32-1.7,3.29-2.17,4.74-.44,3.44-1.53.81-8.16,2.79-11.41C251.28,605.49,253.09,604.36,253,602.31ZM152.27,248.81c-.33,1.46.87,3.6,2.09,4.35C155.68,251.46,154.24,248.34,152.27,248.81ZM194.39,530.2c-3.19-.27-6.28-1.6-5.43-5.27-3.45,2.91-6.11-.95-8.71-3.1-1.87-.58-2.47,2.68-4.11,3.07-2.61.63-4.72-.94-6.35-1.93,2.72,7-5.9,2.8-6.52,8.84-5.72,9.34,3,15.54,5.27,21.93,6.89-3,7.13,6.59,13.86,2.89,7.1.72,5.61-6.89,11.09-8.56-1.36-2.79,4-3.71,1.46-6.92C200.37,536.38,188.55,534.72,194.39,530.2Zm-7,4.11.08.32,1.63-.39-.07-.33Zm-2.19-1.9L187,531l-4,.61c-1.46-1.73,1.81-2.52-.87-3.6-2.63,2,3.31,3.71-1.26,3.42,3.52-1.19,1.35,4.18,4.32.69Zm2.22,7.78-.24-1-.66,1.54Zm-3.07,5.93c-.42,1.13-1,1.62.39,1.63Zm-6.89-15.66,1.71,1.33L178,529.65Zm-2,3.26,1-1.63-1.65,1.78Zm-3.36.45,1.08-1.29Zm2.48,6-2-.91Zm-3.18-.27-1.4,1.38ZM91.37,490.6c-.8-1.88-3.81-2.89-5.46-1.11-2.23,2.26,1,3.93,2.4,5.66C90.51,495.66,91.92,492.89,91.37,490.6Zm-13.91,4c-10.07-7.28-11-21.25-14.93-30.35-2.85-.35-3.12,2.83-5,3.63-4.82.12-.69-4.33-3.87-6-5.36-2.17-12.54-3.22-15.69-7.65-2.77,0,.06,3.1-1,4.4-1.66,3.17-5.15.2-7.2,1.73-5.41,2-3.8-4.27-7.22-5.53-1.73,1.45.38,3,1.1,4.58-7.48-2.35-8,11.28-16.88,7.52-1.17,2.36-.65,8.82-6.35,6.73.12,4.82,3.67,9.5,7.41,12.07.35,5.8-8.71,5.55-7,11.36.88,2.22,6.42,3.65,5.32,7.72C.75,508.26,2.58,514.4,0,519.52c2.75,2.8,5.59-4.12,9.32-1.55,1.87.58,1.21,2.13.46,3.36.83,7.75,7.69-1.17,11,1.14,1.62,2.38-1.59,4.89-1.61,7.66,6.56-13,12.53,4.6,20.37,4.1,1.74-2.84,3.9-6.82,6.94-8.59,3.28-2.17,4.71,2.33,6.58,2.92-.72-1.56-.21-3.76-.68-5.72,3.77-1.61,4.61,4.77,8.14,2.19,7.16-6.22,3.43-18.83,12.77-21.77A9.85,9.85,0,0,0,77.46,494.65ZM170,473.88c-.13-4.82-6.24-5.77-10-6.95-3.75.22-5.41,3.39-7.23,5.9-1.32,1.7,1.51,4.83-.95,6.12,3.51.19,2.74,4.18,5.75,5.19,3.82,1.5,6.36.55,9.65-1.63C168.32,479.82,170.87,477.48,170,473.88Zm-2.45-.1c.19-3.51-3.59-.53-3.39-4-1.72.06-2.79,1.36-1.66,3.17C163,473.49,165.75,474.9,167.56,473.78Zm-3.12,1.44,1.47.34Zm-.12,5.22c-1.22-.75-4.09.29-4.25-.36l.74.16-1.4,1.38C160.43,485.88,162.68,480.84,164.32,480.44Zm-4-9.42c-.1,1.06-.66.16-1,.24a2.14,2.14,0,0,1-2.87,1c-.08-.33.25-.4.17-.73-.26,1.79-4.78,4.61-.38,5.63l-2.29.55c2,2.63,6.57-4.35,5.87,1.35,1.33-3.08-3.63-5-4.29-4.85C157.53,472.38,161.51,474.54,160.32,471Zm-.65-1.23c0-1.39-1.46-.34-2-1.25v1.39Zm75.76-287.52c-.82,0,.91,1.86-1,2.49l.81,0C236.34,184.13,236,183.05,235.43,182.27ZM250.87,36c-.93-2.13-2.18-.16-3.54-.08-.76,1.12-3.69,2.37-2.2,4.74l2.17-.12C249.44,39.87,251.55,38.67,250.87,36ZM238,71.2c0-.82-2.25-1.52-.66-2.14-4.22,2.39-11.6,1.69-16.32-.23-.07-1.36,2-2.56,2.82-3.15-.58-.78-2.61,2-4.31.78a14.27,14.27,0,0,1,5.67-11.18l-4.54,1.6c-1.95-1-1.54-3.45-1.88-4.8a32,32,0,0,1-5.44,5.19c-1.62.08-2.22-1-2.29-2.33l-2.58,2.58c-4.29,1.31.32-4.1-4-3.32-2-6.7,1.73-13.69,2.75-20.27-1.59.9-4.26-3.31-4.9,0,1.25,3.2-1.61,5.53-.89,9-2.62,1.76-4.3,5.93-7.56,6.1-1.3-4-7.34.11-7.33-5.06-1.17-1.56-.78-4.31-1.38-5.63-2.74,5-10.15,3.52-11.11,11.18l-6.23.6c-2.48-.68-4.3-4.39-6.47-4.28,2.81,6.93,11.11,9.75,11.77,17.06-7.38,4.46-16,5.19-23.41,9.93A6.58,6.58,0,0,1,148,70.75c-1,.6-5.77-1-4.79,1.89-4,5.91,7.63.41,9.71,3.83-1.54,1.72-4.12,4.3-2.37,6.66,4-1,2.91,3.65,5.68,4.59-.91,3.31-5.49,4.09-7.51,7.19,5.64,3.78,14.49,6.59,21.76,10.55,2.77,1,5.4-.83,8.08-1.5,3.81,5.23-1,11.19,1.44,17.05a7,7,0,0,0,5.12,4.35c10-5.69,1-18.27,11.29-23.16,7,3.44,15.74,4.61,22.94,1.79,6.54-5,8.4,4.72,12.37,7.78,2.28,2,5.41-.56,7.63.41C232.67,103.83,224,94,223.46,83.65c-.93-2.12-2.7.42-3.83-.34-3.51-4.71,4.43-3.77,2.1-6.63C226.49,74,232.69,73.11,238,71.2ZM226.46,203.13c-2.24-1.24-2.35-3.41-3.27-5.27-2.28-2.05-5.39-4.34-8.9-3.88-2.67,1-9,.2-7.1,4.72-6.55-.47-.48,6.28-4.69,8.94,1,3.21,5.43,5.16,7.76,8,6.54.2,12,.73,15.48-5.44C222.65,208.22,226,205.33,226.46,203.13Zm-3.25.17c-1.09.06-3,.43-1.53,2C220.75,203.15,223.58,205.18,223.21,203.3ZM222,201.73c-.83-.23-1.54,1.71-2.45.12-1.16-1.56.41-2.73.38-3.28-1.05.87-2,4.19-3.74,1.28.24-.55,1.08,0,.78-.57-.54,0-1.64-.19-1.88.36-.3-.52.47-1.38,1-1.41-2.11,1.47-3.18,1.79-4.62.24-.21,1.11,1.22,2.39.17,3.26-1.87.64-2.62,1.77-4.8,1.61,1.28-1.43,4,4.68,6.36,2.11-2.43.4-1.77-2.62-2-2.61,2.35-1.76,1.12.75,3.34,1.46.17-1.92.71-2-1.24-2.93,2.78,1.21,5.89-1.67,6.36,2.11ZM220.53,204c-1.26,2-6,4.94-5.94.86,1.17,1.56.11,2.16,2.07,3.15-.71,2.21-2.4.94-4,1.84,0-.27.26-.28.52-.57l-1.33.61c-2.52-1.5,2.38-1.21.4-2.74-3,.43-3.51.46-6.21.88,3.23-.72,4.47,2.2,4.88,4.9,1.07-.32,2.22-4.46,4-1.56-.19,1.64-2.19-.16-1.63.08l2.58,2.58c-.87-1,1.18-3.6,2.33-2.29-.53.3-.8.31-.77.85l2.7-.41c-1.66-.46.1-3.27-1.87-4.52,2.79,1.48-.36-1.62,2.34-2-.53.3-.84-.5-1.66-.46C218.85,203.25,220,205.1,220.53,204Zm-1.31,6.32-1.12-.75Zm-4.58-9.54,0-.82-2.4.95ZM205.33,28.32l-2.1,1.47Zm4.88,170.76c-3.57-.62-.78.86-2.32,2.57,4.14,1.15-.2-3.79,2.4-.93ZM193.64,33.56c-2.44.13-.6,4.1,1.26,3.19C197,35.83,195.27,33.47,193.64,33.56Zm14.27,261.62c-1.69-1-4.67-.84-4.54-3.56-.7-3,1.62-5.26,2.84-8l-3.91-2c-.9-1.59,1-2.5.6-4.1-1.67-.74-3.36-1.74-5-2.46-1.49-2.65-.24-4.61,1-7.12-6.06-1.59-12.69-3.42-17.81-7.78-11.29,2.51-20.55-3-31.92-2.12l-2.73,5c-2.68.69-4.75-2.46-7-2.9-2.84,2.87,3.4,2.55.84,5.67-3.67,2.64-8.64,1-12.13,2a9.31,9.31,0,0,0,4.53,3.3c-.39,3-3.22,6.15-4.48,7.85-1.66-.46-4.11-.6-5.41.56-.09,3.54,7.43,1.79,3.89,6.87-.34,3.81-4.58.78-5.52,3.55.17,3.25,3,.93,4.48,2.47,1.57,4-3.88,3.74-4.57,6.23,1.41,1,3,.11,4.35,0,4.87,4.65-4.68,4.06-2.28,8.28,4.81,3.56,11.37,9.47,18.08,12.91,4.33,4.95-4.3,11.38-.72,17.44,4.74,2.2,1.4-4.42,4.87-5.69,11.67-5.5,22.38-8.78,34.8-5.08l4.53,13.63c0-.28,2.64-1.5,3.25-.18-.39-7.32-4.52-13.62-4.08-20.71.85.49-.14,2.45,1.47,2.09-.94-2.4-3-5.28-1.48-7.53,6.78-.36,5.75-4.38,12.64-2.57,1.56-1.44.1-3.27.83-4.94,1.3-1.15,2.93-1.24,3.83.35,3-.71,1.84-6.36,3.89-8.64C206.12,297.46,207.72,296.82,207.91,295.18ZM180.19,0a3.93,3.93,0,0,0,1,3.76C182.5,2.6,181.82-.08,180.19,0ZM172.1,229.36c-2.49-.68-4.74-2.2-3.53-5-3.17,1.8-4.71-1.66-6.45-3.74-1.4-.74-2.35,1.75-3.71,1.83-2.17.11-3.61-1.45-4.75-2.47,1.13,5.92-5.09,1.35-6.48,6.05-5.91,6.56.13,12.77.95,18.16,5.91-1.4,4.68,6.28,10.56,4.34,5.53,1.62,5.47-4.63,10.06-5.15-.67-2.41,3.69-2.36,2.18-5.28C175.93,235.14,166.81,232.09,172.1,229.36ZM166,231.59v.26l1.36-.07v-.26Zm-1.46-1.83,1.59-.9-3.27-.1c-.9-1.59,1.81-1.73-.15-3-2.39,1.21,2.08,3.42-1.5,2.52,3-.42.45,3.51,3.32,1.18Zm.61,6.49,0-.81-.75,1.12Zm-3.3,4.25c-.5.84-1,1.15.07,1.36Zm-3.15-13.42,1.15,1.29-.64-1.87Zm-2.06,2.28,1-1.14-1.57,1.17Zm-1.68-1-1,.87Zm0,6-1.42-1Zm-2.49-.69-1.31.89ZM96.25,182.76a2.8,2.8,0,0,0-4.17-1.68c-2.1,1.47.17,3.26,1.07,4.84C94.82,186.65,96.35,184.67,96.25,182.76Zm-11.64,1.16c-6.9-7.25-5.59-18.46-7.36-26.26-2.21-.7-2.89,1.79-4.51,2.14-3.83-.61.09-3.54-2.18-5.33-3.94-2.5-9.47-4.39-11.31-8.37-2.2-.43-.42,2.47-1.46,3.33-1.78,2.28-4.11-.59-6,.32-4.58.78-2.38-3.95-4.9-5.45-1.59.9-.15,2.45.2,3.79-5.59-3-8,7.76-14.5,3.48-1.27,1.7-1.81,6.9-6,4.39-.61,3.85,1.52,8.08,4.1,10.67-.57,4.65-7.72,3.12-7.2,8,.38,1.9,4.56,3.85,3.08,6.91-4.79,1.89-4.25,7-7,10.71,1.77,2.62,5-2.45,7.62.14,1.4.74.64,1.87-.13,2.73-.48,6.27,6.27.21,8.57,2.54.92,2.12-2,3.64-2.41,5.83,7.12-9.34,9.25,5.5,15.55,6.26,1.8-2,4.09-4.84,6.76-5.79,2.93-1.24,3.4,2.54,4.8,3.28-.35-1.34.38-3,.3-4.64,3.22-.71,3,4.47,6.13,2.94,6.6-3.88,5.5-14.43,13.33-15.38A7.89,7.89,0,0,0,84.61,183.92Zm76.46-2.82c.61-3.84-4.09-5.49-6.89-7-3-.38-4.8,1.88-6.61,3.61-1.3,1.16.49,4.05-1.66,4.71,2.76.67,1.56,3.72,3.8,5,2.81,1.76,5,1.38,7.89.14C158.86,185.56,161.23,184.08,161.07,181.1Zm-1.93-.44c.68-2.76-2.76-.95-2.09-3.7-1.37-.2-2.42.67-1.79,2.27C155.56,179.76,157.54,181.29,159.14,180.66Zm-1.57,1.17-1.11-.49Zm-2,3.64c-.86-.78-3.28-.37-3.31-.92l.56.24-1.32.89C151.71,189.2,154.23,185.54,155.59,185.47Zm-1.78-8.07c-.23.83-.55,0-.82,0a1.71,1.71,0,0,1-2.42.39c0-.27.25-.28.24-.55-.47,1.38-4.47,3-1.13,4.41l-1.9.1c1.22,2.38,5.85-2.48,4.46,1.94,1.51-2.25-2.14-4.51-2.69-4.49C151.4,178.07,154.23,180.37,153.81,177.4Zm-.33-1.07c.21-1.1-1.11-.48-1.43-1.29l-.21,1.1Z"/></g></g></svg>