<svg xmlns="http://www.w3.org/2000/svg" viewBox="0 0 522.84 531.62"><defs><style>.cls-1{fill:#2e3192;}</style></defs><title>ink_l04</title><g id="レイヤー_2" data-name="レイヤー 2"><g id="Content"><path class="cls-1" d="M481.68,89.49c-.61.52-1.27,1-2,1.53A16.79,16.79,0,0,1,481.68,89.49Zm-266,419c-.12.13,0,.27.1.35s-.22-.22,0-.39ZM220.58,529c-.27.19-.51.46-.29.8s.31-.08.5-.15.4-.5.08-.76Zm11.47-9.3c.13-.31.37-.79,0-1-.51.33-.57-.37-1-.38,0-.5.58-.82.71-1.34-.95-.27-2.31-.25-3.5-.47-.43,0-.71.36-1.05.58-.77-.55-.37-1.6-1-2.3a1,1,0,0,0-.91-.37c-1.14,1.25.7,2.58-.51,3.73a4.29,4.29,0,0,0-3.27.8c-.68,1-1.39-.27-2.08-.51-.41-.19-.72.32-1.08.29,1.32.85,3,1.83,3.52,3.23.22.26.35-.18.55-.12.7.49-.45.72,0,1a14.75,14.75,0,0,1-2,1.51c0,.11.39.11.19.27a3.14,3.14,0,0,1,2.28-.72c.07.19-.17.45-.25.57.12.08.27-.4.57-.31A2.12,2.12,0,0,1,223,526l.56-.43c.31,0,.37.41.48.58a4.28,4.28,0,0,1,.52-1c.22-.09.35,0,.42.22l.24-.48c.54-.38.14.58.71.28.58.84.38,2,.54,2.94.18-.2.75.27.68-.22-.32-.39,0-.84-.29-1.29.29-.37.33-1,.78-1.2.36.5,1-.35,1.25.37.23.16.3.56.45.72.15-.83,1.24-1,1-2.06l.84-.37c.37,0,.79.41,1.09.3-.71-.84-2-.85-2.42-1.83.83-1,2-1.46,2.8-2.45a.81.81,0,0,1,.34.21c.12-.14.85-.12.58-.49C233.86,518.82,232.49,520.12,232.05,519.74Zm-13.13-14.5c.93-.24-.22-.9.24-1.46-.28-.4-1-.47-1.45-.76-.91.27-1.7.45-1.9,1.46.52.14.19.7.23,1,.36.07.48.37.69.58a1.72,1.72,0,0,0,1.42.14C218.47,506,219.38,505.78,218.92,505.24ZM228,527.17c-.25.23.1.48.32.39S228.25,527,228,527.17Zm-12.12-33.08c.26,0,.54.09.81.11.33.3.24.63.19,1a6.37,6.37,0,0,1,2.83.26c1.45-.86,3-.52,4.53-1.16l.15-.83c.34-.21.77.13,1.1.09.26-.53-.59-.2-.38-.75.39-.53,1.16-.53,1.59-.83a1.29,1.29,0,0,0-.77-.25,2.77,2.77,0,0,1,.26-1.3.93.93,0,0,0,.73-.32c-.15-.5-1.12.09-.86-.78-.13-.55.6-.32.6-.75-.17-.44-.46,0-.73-.13-.4-.49.37-.7.35-1.08-.24-.07-.42.12-.61.19-.89-.42.47-.77-.06-1.25a21.48,21.48,0,0,0-3.1-1c-.83-.49.08-1.77-.7-2.45-.76-.09,0,.68-.42,1a6.8,6.8,0,0,1-4.6,2.3l-1.25-1.69s-.3.33-.44.17c.38,1,1.25,1.69,1.51,2.7-.14,0-.09-.35-.3-.23.24.29.66.6.55,1-.93.36-.6.87-1.64.94-.15.27.14.46.11.72s-.35.31-.55.13c-.37.23,0,1-.14,1.38-.12.13-.31.29-.27.52.28.07.69-.09.8.29s0,.81,0,1.25l.63.09C216,493.67,215.79,493.88,215.91,494.09Zm15.53,37c-.12.22.09.56.32.48A.59.59,0,0,0,231.44,531.13ZM226,498.69c.52-1.18-.6-1.77-1-2.48-.76.47-.94-.66-1.67-.12-.84,0-.54.9-1.16,1.18.21.3-.4.5-.06.83-.56.64.85.65.24,1.27.38,0,.76.09.72.53.36-.39.73,0,1.06.23.23,0,.25-.35.44-.43a1,1,0,0,1,.77.13C225,499.06,226,499.41,226,498.69Zm9.35,3.11c-.27,0-.39.32-.29.58a.42.42,0,0,0,.66,0C235.94,502.12,235.54,502,235.35,501.8Zm9.56-.18c-.14-.67.93-.79.63-1.44-.14-.24-.81-.32-.74-.82.58-.48.27-1.17.49-1.81-.37-.28-.59.57-1.07.33-.23,0-.17-.23-.11-.38-.22-.9-.88.25-1.3,0-.23-.26.11-.6.07-.93-.57,1.63-1.54-.34-2.45-.15a2.83,2.83,0,0,1-.68,1.11c-.35.31-.58-.2-.81-.24.11.17.08.44.17.66-.42.25-.62-.48-1-.13-.74.84-.1,2.26-1.15,2.75a1.18,1.18,0,0,0-.35,1.07c1.29.7,1.62,2.31,2.23,3.32.34,0,.32-.39.52-.51.57-.09.15.5.55.64.66.17,1.52.18,2,.65.32,0-.06-.36.05-.53.14-.4.59-.11.81-.32.6-.32.51.44.93.53.18-.19-.09-.34-.2-.51.91.15.76-1.45,1.86-1.15.09-.29-.07-1,.63-.89A2,2,0,0,0,244.91,501.62Zm-17.49,2.56a1.07,1.07,0,0,0-1.1.34c-.09.33-.35.64-.19,1.05.09.56.82.58,1.28.66.43-.09.58-.48.75-.81s-.25-.54,0-.73C227.76,504.73,227.79,504.25,227.42,504.18Zm35.79-57.24c-.64-.15-1.79-1.07-2,.05-1.23-.9-.87,1.18-2,1.18-.2.76.44,1.69.54,2.54,1.26.85,2.27,1.62,3.72.84-.36-.78.66-.93,1-1.31-.29-.52-.05-1,0-1.44A2.69,2.69,0,0,0,263.21,446.94Zm15.71-34.13c-.5-.28-.63.73-.15.78S279.25,413,278.92,412.81Zm31.53,36.33,0,.12c.11.15.26.08.37,0S310.58,449.41,310.45,449.14Zm21.57-.87.06.32c.13.3.34.6.73.45s0-.33-.05-.53S332.35,448,332,448.27Zm-.28-7.52c.18.3.5,0,.46-.24S331.58,440.49,331.74,440.75Zm4.67-2.6c.19.18.58,0,.54-.21A.58.58,0,0,0,336.41,438.15ZM296.93,450c-.29,0-.6.11-.59.48s.28.08.46.11.54-.19.42-.54Zm6.66,2c-.31.06-.15.41.06.45S303.85,452,303.59,452Zm9.58-22.77c.16.14.36-.16.53-.13a.84.84,0,0,1,.54.46c0-.8.7,0,1-.59.95-.68.35-1.65.4-2.38-.8,0-.42-.94-1.23-.86-.67-.37-.84.44-1.45.37,0,.33-.55.2-.44.62-.73.24.36.9-.4,1.09.3.16.54.42.31.75C312.91,428.43,313,428.92,313.17,429.24Zm7.4,6.81a.37.37,0,0,0,.49.33c.31-.12.07-.42,0-.65S320.61,435.8,320.57,436.05ZM386,425v.17c.1.23.33.19.5.09C386.51,425.13,386.1,425.44,386,425Zm29.22,5.54,0,.44c.08.46.28.92.84.84s.08-.44.1-.72C415.94,431,415.75,430.33,415.23,430.58ZM401,426.18c-.47.42,0,1.12-.26,1.55,1.86-1.17,4.09-2.71,6.2-2.58.46-.14,0-.57.16-.78,1-.61.67,1,1.31.58a21.45,21.45,0,0,1,.74,3.46c.17,0,.36-.42.45-.08A4.42,4.42,0,0,1,410,425c.28,0,.48.47.58.65.17-.1-.36-.58-.06-.9a2.91,2.91,0,0,1,2.15,1.42l-.22-1c.25-.37.74-.23,1-.27a6.8,6.8,0,0,1-.94-1.23c0-.34.25-.43.53-.42l-.46-.59c-.17-.9.83.17.77-.73,1.41-.25,2.76.67,4.08,1-.15-.34.78-.79.12-1-.69.18-1.1-.46-1.83-.39-.3-.58-1.11-1-1.07-1.69.85-.17.15-1.5,1.2-1.38.35-.2.9-.06,1.19-.15-1-.68-.49-2.16-2-2.53l0-1.29c.2-.49,1-.78,1-1.23-1.48.42-2.25,2.05-3.76,2-.74-1.61-.69-3.4-1.49-5a1.25,1.25,0,0,1,.47-.31c-.1-.23.35-1.16-.27-1-1.12-1-.27,1.56-1,1.9-.31-.35-.78-.94-1.3-.64.12.85-.81.51-1.07,1.06-.66-.27-.71-1.22-1.3-1.71-.9,1.07-1.68,2.81-2.66,4.21-.26.54,0,1.12.12,1.68-1.16.66-2.27-.47-3.52-.1a1.42,1.42,0,0,0-1,.95c.93,2.18,3.71.62,4.47,2.85a6.33,6.33,0,0,0-1,4,9,9,0,0,0-.93,1.21,3,3,0,0,0,1.11-.44C403.63,425.29,401.7,425.46,401,426.18Zm16.2-5.78c.14.45.66.15.68-.18C417.91,419.71,417.06,420,417.2,420.4Zm7.06-2c.21.29.78.21.8-.12A.8.8,0,0,0,424.26,418.37Zm-35.19-22.25c-.19.32.18.68.57.71a.58.58,0,0,0,.44-.82C389.83,395.55,389.41,396,389.07,396.12ZM489,422.3l.13.08c.23,0,.29-.19.28-.38S489.38,422.4,489,422.3ZM506.77,400c-.24.1-.84,0-.85.52l.35.21c.42.12.88.16,1.05-.34S507,400.13,506.77,400Zm-5.08,4.22a4.08,4.08,0,0,1-2.57-1.76c.13-.23.59-.19.78-.2,0-.19-.63.05-.77-.34a2.71,2.71,0,0,1,2.08-1.17l-.89-.23c-.21-.36.12-.71.21-1a5.89,5.89,0,0,1-1.41.25.39.39,0,0,1-.12-.61l-.68.14c-.82-.25.48-.62-.29-.95.39-1.27,1.72-2,2.58-2.93-.35,0-.33-1-.78-.52-.14.64-.84.7-1.09,1.34-.6,0-1.31.49-1.85.17.22-.78-1.18-.76-.63-1.58,0-.37.33-.76.38-1-1,.51-2-.51-2.95.61l-1.05-.57c-.32-.37-.22-1.15-.58-1.36-.28,1.4.74,2.72.07,3.95-1.64-.07-3.1-.86-4.77-.89a1.24,1.24,0,0,1-.05-.51c-.23,0-.81-.78-1-.21-1.27.51,1.17.87,1.13,1.63-.42.11-1.1.25-1.07.81.74.26.07.89.41,1.33-.49.43-1.3.07-1.95.35.5,1.2,1.61,2.58,2.35,4,.34.44.94.43,1.44.61,0,1.23-1.35,1.67-1.57,2.86a1.34,1.34,0,0,0,.35,1.23c2.2.16,2.08-2.8,4.24-2.49a5.6,5.6,0,0,0,3.46,2.71c1.56-.1.84,1.64,1.14,2.54.15.57.92.48,1.17.87-.18-2-.52-4.52.49-6.21.07-.44-.48-.22-.58-.46-.06-1.12,1.1-.13,1-.83a19.88,19.88,0,0,1,3.17.85C501.65,404.49,501.37,404.15,501.69,404.22Zm-16.85,17.41c-.53-.13-1.45-.91-1.63,0-1-.77-.74.94-1.69.92-.18.62.32,1.39.39,2.1,1,.72,1.83,1.38,3,.77-.28-.65.56-.75.86-1.06-.22-.43,0-.79,0-1.18A2.25,2.25,0,0,0,484.84,421.63ZM498.48,394c-.4-.24-.53.59-.13.64S498.75,394.12,498.48,394Zm-23.9,37.8a8.19,8.19,0,0,1-2-3.12c-2.06-.79-2.95-2.64-4.85-3.7l-1,.51c-.5-.18-.5-.89-.8-1.2-.76.16.27.77-.47,1-.86,0-1.48-.75-2.13-1a1.71,1.71,0,0,0,.37,1,3.75,3.75,0,0,1-1.54.78,1.23,1.23,0,0,0-.92-.49c-.39.56,1,1.07-.11,1.51-.46.57-.81-.36-1.25,0-.32.53.38.47.45.86-.17.81-1,.19-1.38.51.12.31.46.34.68.47.29,1.25-1.17.15-1.23,1.07a26.12,26.12,0,0,0,1.51,4c.17,1.25-1.89,1.36-2,2.7.52.85.69-.56,1.38-.39,2.43.35,4.48,1,6.07,2.86l-.72,2.65c0-.05.57,0,.53.31.71-1.2.72-2.64,1.54-3.72.08.17-.28.37,0,.49.11-.48.08-1.16.56-1.36,1.12.66,1.38-.09,2.28.93.4-.07.36-.51.66-.7.32,0,.59.11.57.46.54.2,1-.81,1.53-1,.23,0,.55.09.75-.16-.16-.33-.65-.62-.34-1s.81-.66,1.3-1l-.42-.72c0-.35.42-.3.53-.59-.19-.3-.35-.63-.54-.92C473.71,432.21,474.12,432,474.58,431.76Zm25.31-44.55a.74.74,0,0,0-.24.7C500,387.87,500.15,387.37,499.89,387.21Zm-29.1,32.44c-1.64.42-1.33,2-1.77,3,1.09.4.08,1.49,1.22,1.8.71.84,1.36-.16,2.14.24.15-.45.84,0,.91-.61,1.11.06,0-1.39,1.11-1.27-.33-.37-.52-.84,0-1.16-.69-.05-.57-.76-.63-1.27-.14-.27-.56,0-.78-.11a1.25,1.25,0,0,1-.49-.89C472,420.43,471.5,419.05,470.79,419.65Zm-3.53-12.26a.53.53,0,0,0-.49-.7c-.48,0-.31.53-.34.88C466.62,407.86,467.07,407.71,467.26,407.39ZM476,412c-.33.05-.35.7-.76.57.36.4-.15.76.08,1.19a1.42,1.42,0,0,0,1.24.86c.4-.18.94-.17,1.23-.66.5-.54-.07-1.3-.36-1.84C476.94,411.76,476.42,411.93,476,412Zm-21.29-68.87c.06-.21-.13-.3-.3-.32s.36.11.21.44ZM436.76,324l.25-.3c.18-.37.28-.8-.16-1s-.29.27-.45.46C436.46,323.39,436.26,323.93,436.76,324Zm18.92,26.26c.83-.84,1.58-1.5,1.19-2.73-.65.17-.61-.64-.85-1-.44.14-.75-.11-1.11-.22a2.14,2.14,0,0,0-1.61.7c-.2.48-1.08,1.22-.25,1.53-.87.81.77.84.6,1.73C454.2,350.59,455,350.24,455.68,350.29ZM452.85,320c-.09.18,0,.31.21.37s-.3-.19-.1-.45Zm11.87,21.84c-.25.3-.44.67-.09,1s.33-.19.52-.32c0-.24.31-.69-.13-.89Zm8.36-4.06c.34-.25-.3-.64-.48-.34S472.86,338,473.08,337.79Zm4.6,3.11c-.08.29.27.61.5.44A.69.69,0,0,0,477.68,340.9ZM481.77,309c-.64-.4-1.61-.15-2.41-.14-.5,0-.21-.83-.82-.55-.19.2-.06.61-.44.73a3.29,3.29,0,0,1,0,2.1c-.79,2.33-2.85,7.09-7.84,7.91-1.33.21-2.89-.88-4.53-2.23-.26,0-.5.08-.45.62.12.24.68,0,.62.44-.89,1.69-.54,4-.25,6l0-.07a1.16,1.16,0,0,1,1.14.14c.91.61.78,1.92,1.82,2.31.32-.35.53-.85,1-1,1.42-.11,2.95-.54,4.12-.53,0,.63-.58,1.18-.4,1.74.48-.13.76.65,1.24.12.48.18.35.79.29,1.18.62.3,1.78-1.59,1.76-.36.42.33-.42.53-.51.72a1.07,1.07,0,0,0-.45-.14c-.61,1.38-1.79,2.3-2.42,3.64.78,1,2.24.61,3.29,1.34-.3.22-.91-.14-1.33,0l-.84.68c.59,1.19-.62,1.67-.54,2.65-.21-.13-.41-.57-.73-.68-.48-.74-1,.42-1.53,0-.45.34-.3,1.09-.51,1.59.44.44.24,1,.73,1.38.21.54-.57.18-.71.46-.47-1-.6-2.39-1.52-3.17-.54.52-.39-.69-.88-.1l-.13.62c-.14-.19-.32-.29-.55-.12a5.69,5.69,0,0,0-.29,1.25c-.18-.16-.35-.55-.72-.51l-.5.66a2.46,2.46,0,0,0-.24-2.14c-.37,0-.39.58-.55.52.06-.16.25-.53.11-.72a3.66,3.66,0,0,0-2.37,1.51c.17-.24-.21-.14-.29-.25a19.49,19.49,0,0,0,1.82-2.32c-.6-.19.63-.81-.32-1.15-.24,0-.25.53-.58.31-1.05-1.43-3.23-2-5-2.6.41-.07.62-.74,1.14-.66.86.07,2,1.28,2.51,0a5,5,0,0,1,3.46-1.9c1-1.57-1.14-2.5-.7-4.05-.35-.22-.94-.21-1.09-.7-.36-.92.31-2.75-1.31-2.57a5.81,5.81,0,0,1-3.71-2.63c-2.25-.22-2,2.84-4.26,2.79a1.37,1.37,0,0,1-.43-1.26c.17-1.24,1.6-1.76,1.48-3-.32-.1-.68-.13-1-.24l-.2.2a2,2,0,0,1-1.64.28c-.31-.18-.53-.48-1-.45-.12-.28,0-.82-.3-1a11.61,11.61,0,0,1-4.24,2.07c-4.93.78-12,1.14-13,3.34-.69,1.48-1.24,6.05-.68,10.21.11.1.21.12.35-.16l0-.67a.38.38,0,0,0,.59,0,6.28,6.28,0,0,0,0-1.37c.22.13.49.49.86.35l.35-.8a2.57,2.57,0,0,0,.79,2.13c.37-.07.25-.69.43-.67,0,.18-.12.61.06.77a3.86,3.86,0,0,0,2.05-2.14c-.11.29.25.08.37.18a18.43,18.43,0,0,0-1.29,2.84c.67,0-.44,1,.62,1.09.24-.05.12-.6.52-.46,1.43,1.2,3.82,1.27,5.75,1.42-.4.17-.44.91-1,1-.89.15-2.41-.8-2.56.68a3,3,0,0,1-.25.51.56.56,0,0,0,.56.38c-.49.35-.26.83.1,1.2-1.18-.07.06,1.37-1.09,1.37,0,.64-.77.2-.9.67-.48-.21-.89,0-1.3.14.58.9,1.82,1.5,1.49,2.91a1.25,1.25,0,0,1-1.21.14,1.76,1.76,0,0,1-.64-.41,2.26,2.26,0,0,0,.11.22,6.11,6.11,0,0,0,1.94,1.09,8.58,8.58,0,0,0,2.23,3.13c-.46.3-.87.5-.89,1.11a3.13,3.13,0,0,1,.2.3c2.09,2.54,4.5,4.47,6,7a8.17,8.17,0,0,0,2.22,2.29c.45.05,1,.15,1.09-.41.22.5.7.39,1.1.15-.29,1,1.24.2,1,1.24.57.16,0,.73.43.94a.67.67,0,0,0-.06.12c1.08.51,2.12,1,3,1.38a5.23,5.23,0,0,0,.84-1.06,8.08,8.08,0,0,0,3.24-1.41c.18.48.28.89.82,1,.3-.13.64-.23,1-.36.25.15.15.51.47.59l.74-.28c.22.51.24,1.1.72,1.37s.69-.06,1-.16c.2.23.08.52,0,.73,0,.56.94,1.11.66,1.59-.32-.08-.51.15-.51.46s.55.34.55.72c-1.09.69-.43,1.06-1.22,2,.11.48.74.56,1.18.73-.15.26-.29-.11-.46-.06.89.93,2.23,1.16,3.25,2-.25-.08-.41.42-.38.45L466.68,368a6.62,6.62,0,0,0-2.23,2.13,7.84,7.84,0,0,1,1.17,2.74c.87,4.1-9.48,10.95-8.67,15,.57,2.86,2.5,5.84,4,8.38.7.31,1.73-.39,2.18.44.09-.25,0-.65.37-.62.24.5-.61,1,.2,1.38.4.05.46.75,1,.58.25,0,.28-.68.58-.38-.13.83.55,1.71.91,2.53.18.52-.76.57-.21,1.08.29.11.66-.21.94.13-.54,1.43-1.93,3.07-1.6,5a1.51,1.51,0,0,1-1.38.51c-1.35-.68-2.29,1.11-3.75,1-.66-.1-.07-.89-.66-1.12-.16.27-.45.46-.54.71-.14-.27.18-.92-.41-1a3.88,3.88,0,0,0-1.69.2c-.92-.78.31-3.36-1.81-2.63.3-.31.92-.24,1-.67-.12-.62-1.83-.37-1.09-1.31.21-.06.45-.16.3-.42-.13-.68-1.19-.22-1.19-.83a3.68,3.68,0,0,0,.92-.55c-2.32-1.54-4.66-3.2-6.45-3-3.84.35-7.32,8.23-11.59,6.3-3.57-1.62-10.86,1.07-14.49-1.54-3.35-2.41-5.83-7-9-9.8s-6.89-5.52-9.84-8.31c-3.37-3.19-2.27-10.69-5-13.19-5.23-4.81-13.17-9.86-14.51-8.42,0,0-3,11.51-1.91,18.86.14,1,.29,1.81.46,2.55a16,16,0,0,1,2.81.21c-.15.8-1,1.34-.93,2.1.33,0,.54.25.76.44.41-1.2,3.33-1.32,1.62-3,.44.13.68.76,1.13.62.53-.41-.55-1.93.72-1.69.16.18.37.36.56.09.59-.47-.37-1.25.2-1.55.69.66,1.75.66,2,1.69.59.37,1.09-.44,1.48-.47,1,0,.53,1.43,1.47,1.66a2.71,2.71,0,0,1,2.27-.59c-.61.8.44,1,.76,1.33-1,1.23,1.11,2,.37,3,.29,0,.64-.3.79.05-.37.48-1.29-.08-1.23.87.14.4-.5.81-.08,1.23.15.23.79-.07.65.37-.86.29-1.37,1.38-2,2.12-.41.43-.92-.45-1.14.33,0,.33.53.53.34,1-1.64.18-3.9-.35-5.54.89a1.62,1.62,0,0,1-1.17-1.08c0-1.62-2.19-1.64-2.83-3.08a.4.4,0,0,1,0-.26l-.7.6a11.08,11.08,0,0,0,.65,1.91c0-.27.37-.55.54-.24s-.08.75-.42.51c.19.42.41.86.65,1.32a.89.89,0,0,0,.48-.28c.63-.18.13.66.43.86l-.48.13.16.13a.61.61,0,0,1-.13,0,137.3,137.3,0,0,0,8.4,12.5c2.58,3.53.25,11.39,2.85,14.88,1.35,1.82,2.67,2.22,3.74,2-2.95,4.58-3.51,13.14-6.95,12.22-4.29-1.14-4.33-11.81-7.8-14.54a10.67,10.67,0,0,0-2.5-1.47s0,.08,0,.11a2.44,2.44,0,0,1-1,1.73c-.4.15-.85.12-1.16.55-.43-.14-.95-.9-1.43-.32-1-.74-1-1.69-.82-2.8a12.21,12.21,0,0,0-6.07,2.15c-1.5,1-5.11-2.92-9.52-5.78-.29.13-.35.56-.55.81-.33-.08-.42-.42-.52-.65a3.08,3.08,0,0,0-1.16-.51,7.34,7.34,0,0,0-1.83,4.59c-.12.55,1,.66.34,1.1-1.08,0-1.21-1.68-2.21-1.52a20.61,20.61,0,0,1-3.14,1.3c-.74,0,.11-1.22-.89-1-.1.18-.11.46-.36.56-.26-.29.21-1-.43-1.1-.32.07-.25.63-.69.38-.28-.34.46-.65,0-1-.37-.87-.76.25-1.21-.05a1,1,0,0,1,.37-.75,3.07,3.07,0,0,0-.66-1.22,1.41,1.41,0,0,1-.79.32c.15-.53.77-1,.73-1.74a.9.9,0,0,1,0-.09,5.82,5.82,0,0,1-3-.69,12.19,12.19,0,0,1-3.17-3.05,16.19,16.19,0,0,0,.32,1.89c-.55,0-1,0-1.33.45,0,.36,0,.74,0,1.1-.25.2-.57,0-.77.25v.86c-.59,0-1.2-.17-1.65.21-.49.22-.2.73-.23,1.11-.3.11-.55-.11-.75-.24a1.08,1.08,0,0,0-.56,0,.92.92,0,0,0-.28.62c-.12.41.35.5.57.71-.09.25-.36.29-.54.34-.4.28-.44,1.18-.92,1.19a.36.36,0,0,0-.57-.2c-.18.23,0,.57-.31.73-.75-.4-.93-.13-1.43-.05l0,0c.22.13.38.36.58.42-.21.12-.74-.13-.81.35a2.82,2.82,0,0,0,.2,1.35,1.28,1.28,0,0,1-.86.35,6.53,6.53,0,0,1,0,1.65c0-.23-.49-.14-.5-.09l-.13-1.5c-.51.08-.87.27-.56,1.1-.25-.23-.21-.73-.56-.78-.49.1-.25,1.47-1,.9,0-.17-.14-.36-.35-.24-.54.13-.15,1-.63,1-.25-.66-1-1-.82-1.79-.28-.44-.87-.05-1.15-.16-.55-.27-.13-.86-.27-1.31l-.24.05c-.58.07-.31,1.2-1,.69a1.21,1.21,0,0,1,.18-1,1.67,1.67,0,0,1-.87-.37c.66-.34,0-.83-.08-1.13.64-.3.48-.84.42-1.33-.45-.53-.86-1.08-1.2-1.48-.22-.74,1.23-.3.65-1.19-.21,0-.49,0-.67-.17.2-.35,1-.12.93-.79-.16-.29-.69,0-.59-.54s.78.23,1-.34c.73-.66-.49-.66-.34-1.2a1,1,0,0,1,.85.11,3.06,3.06,0,0,0,1-1,1.54,1.54,0,0,1-.57-.67c.57,0,1.27.4,1.94.13.32-.24.05-.4-.06-.57a18.93,18.93,0,0,0-1.48-1.28c-.53-.49-1.39.67-1.43-.35.74-1.16,2.63-.22,3.11-1.41a27.83,27.83,0,0,1,.66-4.3c.53-.79,1.27.93,1.65-.33l-.14-.19a24.89,24.89,0,0,1-5.19-1.77c-5.23-2.8-4.91-.23-6.77.51s-2.63-2.08-3.27,3.45c-.35,3-.77,6.29-1,9.88a10.91,10.91,0,0,0,1.09-.2c.49-.06.25-1,.8-.59.28.89-1,1.47-.6,2.23a18.66,18.66,0,0,1,1.95,2.19c.19.62-1,.27-.53,1,.18,0,.41,0,.56.13-.16.3-.86.11-.77.67.14.24.58,0,.5.45s-.66-.19-.81.3c-.61.55.41.54.3,1a.82.82,0,0,1-.71-.09,2.48,2.48,0,0,0-.81.88,1.26,1.26,0,0,1,.49.56c-.48,0-1.08-.33-1.63-.1s.4.47-.05.76c-.27-.12-.45-.59-.82-.58l-.49.57c-1.31-.19-2.26-1-3.5-1.15-.09.22-.18.45-.28.66-.23.37-.73-.16-.76.42.08.23.46.29.4.63-1.05.36-2.56.4-3.55,1.32a2.7,2.7,0,0,0-.21.87,1.79,1.79,0,0,0,0,.46c.16-.14.32-.25.49-.05a.41.41,0,0,1-.17.64.48.48,0,0,1-.12,0c1.72,3.78,12.54,8.16,12.36,11.2a1.3,1.3,0,0,0,.85-.32c-.14-.39-.45-.75-.36-1.17.47-1.15.73-2.51,1.2-3.41a2.74,2.74,0,0,1,.7.66c.89,0,1.1-1.29,2-1.58h.1c-.05-.3,0-.49.4-.27.32-.15.3.24.32.49a.71.71,0,0,0,.06-.24c.16.13.11.64.52.56a2.47,2.47,0,0,0,1.05-.55c.79.28.63,2.26,1.82,1.26-.12.27-.54.38-.48.68s.57.1.84.14l.15-.1a.27.27,0,0,1,0,.15c.1.05.14.16.07.39s-.26.21-.1.35c.26.41.83-.15,1,.24-.32.27-.47.67-.74.93.63.29.69,1.08,1.34,1.34-.18.12-.6.11-.81.31-.77.08,0,.91-.63,1.17.08.48.73.66,1,1,.51-.17.9.22,1.35,0,.5,0-.08.5.08.72-1,0-2.09-.47-3.05-.06.19.63-.69,0-.43.65l.43.34c-.2,0-.35.14-.31.38a5.65,5.65,0,0,0,.87.72c-.2.07-.57.05-.68.36l.31.64a2.15,2.15,0,0,0-1.75-.65c-.16.28.29.53.18.63-.1-.11-.31-.4-.51-.37a3.22,3.22,0,0,0,.24,2.43c-.12-.23-.18.11-.3.13a16.49,16.49,0,0,0-1.09-2.32c-.39.39-.38-.8-1-.2-.1.18.31.4,0,.57-1.52.26-2.84,1.72-4,2.85.1-.35-.34-.77-.07-1.14.39-.64,1.79-1.08.94-2a4.39,4.39,0,0,1-.12-3.43c-.47-.76-1.16-.7-1.86-.66-1.63,3.73-7.15,5.83-9.71,6.91.5.15,1.34.06.81.55,0,.4-.52.05-.67.1a.9.9,0,0,0-.17-.32,5.21,5.21,0,0,1-1.22.26,14.44,14.44,0,0,1-2,.92c.21.66.84,1.2,1,2-.28,0-.41-.58-.71-.74l-.82-.1c-.34,1-1.26.55-1.76,1.12,0-.19.09-.53,0-.77.15-.67-.75-.31-.8-.86-.42-.08-.76.41-1.15.56,0,.48-.45.69-.38,1.14-.18.41-.4-.21-.63-.14a11.72,11.72,0,0,0,.92-2.12,9,9,0,0,1-1.53-.81c-.12.08-.24.16-.35.25a3.57,3.57,0,0,0,0-.47l-.28-.19-.47.06a2,2,0,0,0,.29-.18l-.83-.57a4.65,4.65,0,0,1-2-3.63c-.06.31-.11.61-.15.91-.4-.14-.71-.29-1.08,0-.08.26-.2.53-.28.79-.23.08-.4-.18-.62,0l-.22.61c-.44-.13-.82-.44-1.24-.29s-.34.47-.45.74c-.25,0-.37-.23-.48-.37-.37-.27-1.19,0-1.35-.44a.34.34,0,0,0,0-.57c-.26-.08-.51.17-.75,0,.15-1.05-.43-.83-.59-1.83-.36-.19-.76.17-1.1.35-.08-.23.23-.12.29-.26-1.06.06-1.93.78-3,1,.19-.11,0-.48-.08-.48l1.95-.9a6.91,6.91,0,0,0-1.35-5.08c-.25-.49-1.17.12-.93-.62.84-.64,1.94.53,2.6-.19a21.59,21.59,0,0,1,1.61-2.91c.59-.43.66,1,1.27.2,0-.11-.07-.22-.1-.34-3.85-1.81-8.48-3.6-8.78-6.25a15.93,15.93,0,0,1,0-2.68,19.62,19.62,0,0,0-3.64-.87c.11.85-1.34-.31-1.23,1.05.13.29.79,0,.71.54-1.16,2.09-.67,5.11-.38,7.57-.32-.46-1.26-.33-1.45-1-.41-1.09.42-3.23-1.48-3.06a6.72,6.72,0,0,1-4.21-3.06l-.17,0c-.67.1.13.77-.55.79a4.7,4.7,0,0,1-.26-.8c-1.41.4-1.76,2.28-3.11,2.9a2,2,0,0,1-.79,1c1.24,2.79,2.7,5.65,2,7.88-1.35,4.09-8.63,5.61-10.19,9.39-1.7,4.13-1.81,7.8-3.79,11.19-2.4,4.09,4.22,15.49,1.36,17.83-3.53,2.87-10.36-5.69-14.7-6.71h0a9.23,9.23,0,0,1-.8,2.24c0-.34-.63-.42-.66-.37l.51-2.09c-4.4-1-6.18-1.29-8.51-3.43-3.43-3.15-10-3.86-10.18-8s4.45-8.33,5.48-12.17c1.66-6.19.75-5.5-1.9-6.16l-.32-6.38c-.41,1.43.6,5.79-.75,6-5.6.8-9.77-6.18-13.48-6.86-5.71-1-12.26,2.69-15,0-4.27-4.27-3.4-12.29-6.09-13.77-2.26-1.25-5.15,3.6-9,5.21a7.41,7.41,0,0,0-2.89,2.74l.19-.13c0,.18-.12.48.09.66l.62-.06a1.86,1.86,0,0,0-1.05,1.23c.17.21.51-.08.56,0-.11.05-.42.13-.45.31a2.82,2.82,0,0,0,2,.53c-.22,0,0,.18,0,.29a13.27,13.27,0,0,0-2.21.18c.2.44-.77.07-.47.77.12.13.42-.13.47.16-.25,1.32.54,2.83,1.12,4.08-.25-.19-.72,0-1-.29-.4-.5-.34-1.78-1.31-1.35a3.85,3.85,0,0,1-2.83-.93c-1.45.29-.7,2.15-2.13,2.56a.9.9,0,0,1-.51-.7c-.11-.67.39-1.19.41-1.79-2.75-.43-5.77-3.86-7.87-6.1-.19.21-.51-.34-.76-.23,0-.14.08-.29.13-.43a9.68,9.68,0,0,0-1.08-1c-1.08-.79-3.12-.64-5.44.11-.11.16-.34.27-.42.38s-.45.26-.58,0a26.9,26.9,0,0,0-5.87,3.18c-2.72,2-5.36,4.68-8.77,6.67-1.47.86-2.59,3.23-3.72,5.59a.65.65,0,0,0,.11.49c-.18.24-.75.39-.49.81a1.94,1.94,0,0,1-.35.18c-1.09,2.17-2.28,4-3.89,4.37a6.31,6.31,0,0,1-3.71-.73,7.2,7.2,0,0,0,1.44,1.52c-.29.23-.55.4-.52.8.15.18.3.39.46.58-.05.21-.33.21-.31.45l.35.46c-.3.26-.71.41-.8.8s.2.47.34.68c-.11.19-.34.17-.5.18-.38.16-.57.89-1,.81,0-.24-.21-.32-.44-.26s-.11.46-.38.54c-.72-.61-.82-.07-1.65-.41-.31.18-.23.64-.26,1-.21-.05,0-.23,0-.33-.46.82-.33,1.8-.7,2.7,0-.19-.38-.2-.4-.17l.24-1.88a6.14,6.14,0,0,0-4.44-1.38c-.49-.05-.47.93-.91.4-.08-.93,1.32-1.2,1.09-2a18.3,18.3,0,0,1-1.42-2.57c0-.65,1.06,0,.74-.86-.16-.07-.4-.05-.51-.26.22-.25.85.09.9-.48-.09-.26-.56-.15-.4-.55s.61.33.86-.11c.72-.4-.28-.62-.07-1a.85.85,0,0,1,.68.24,2.53,2.53,0,0,0,1-.68,1.19,1.19,0,0,1-.35-.65c.47.08,1,.56,1.56.46s-.28-.55.23-.73c.23.18.3.67.66.75l.39-.29a28.1,28.1,0,0,0-4.7-2.55c-3.61-1.29-8.26-1.87-11.15-3.21.19,1.26,1.58,1.92,2,3.21-.42,0-.73-.75-1.19-.91l-1.21,0c-.28,1.46-1.69,1.08-2.28,2-.1-.26,0-.79-.19-1.1.06-1-1.15-.28-1.35-1.07-.63,0-1,.77-1.53,1.08.09.68-.49,1.09-.29,1.72-.17.63-.63-.22-.94-.07.28-1.25,1.08-2.55.79-3.86-.84.09.12-.89-.72-.69l-.53.46c0-.26-.1-.47-.42-.47a6,6,0,0,0-1.11.92c0-.26.06-.73-.3-.95l-.89.25a2.72,2.72,0,0,0,1.23-2.07c-.31-.27-.73.25-.84.09.16-.1.58-.31.59-.57a4.17,4.17,0,0,0-3.14-.26c.32-.09-.1-.26-.1-.42a19.37,19.37,0,0,0,3.21-.84c-.41-.58,1.1-.29.49-1.25-.21-.16-.58.31-.73-.11,0-2-1.51-4-2.69-5.7.41.22,1.05-.24,1.46.18.73.64,1,2.53,2.28,1.66a5.67,5.67,0,0,1,4.39.64c2-.8.47-3.34,2.47-4.31a1.22,1.22,0,0,1,.75.56,36.25,36.25,0,0,0,1.34-3.82c.87-3.4.42-8.24,2.9-12,2-3.11,11-1,13.78-4.26,1.83-2.09-.28-7.95-.52-12.16-.09.23-.63.42-.59.71-1.29-.76-2.44-2.13-4-2.28a.5.5,0,0,1-.14.31.82.82,0,0,0,.23.39c.26,0,.58-.15.84.06-.17.47-1.21.35-1,1.14.26.32.84-.09.83.54-.22.52-1-.12-1.11.61-.75.93.72.69.66,1.37a1.21,1.21,0,0,1-1,0,3.83,3.83,0,0,0-1,1.46,1.8,1.8,0,0,1,.82.69c-.68.15-1.61-.23-2.35.23-.54.56.67.58.08,1.1-.41-.11-.77-.75-1.3-.65l-.59.93c-2.2,0-3.9-1.16-6.11-.82a8.47,8.47,0,0,0-3.32-1.73c.27-.47.53-.83.28-1.36-.31-.16-.62-.37-.94-.53,0-.32.33-.47.17-.79l-.72-.43c.27-.52.74-.93.65-1.51.06-.52-.52-.53-.83-.74.06-.31.38-.41.59-.51.42-.42.28-1.52.86-1.62.15.32.46.33.73.12s-.1-.68.22-.94c1.18.4,1.18-.2,2.15-.31a5.9,5.9,0,0,1,.38-.81c-.07-.23-.18-.46-.25-.68.32,0,.1.32.26.43.17-1.33-.5-2.57-.51-3.94A2.63,2.63,0,0,1,107,382.2a1.59,1.59,0,0,1,1.34-.7c1.44,0,2.27,1.49,3.69,1.13.08-.62-.07-1.31.36-1.81,1.44-1.19,2.77-2.8,4-3.66.48.68.26,1.7.88,2.17.43-.5,1.31.13,1.43-.8.64-.17,1,.59,1.19,1.05.89-.14.73-3,1.62-1.7.7,0,0,.89,0,1.16a1.47,1.47,0,0,0-.58.19c.37,1.93-.21,3.8.11,5.72,1.58.48,2.87-1,4.55-1-.16.47-1.09.54-1.44,1l-.4,1.35c1.52.84.59,2.27,1.41,3.26-.33,0-.87-.3-1.3-.19-1.07-.43-.72,1.18-1.67,1.11-.24.7.49,1.4.64,2.1.79.14,1,.93,1.81.94a.53.53,0,0,1,.17.16,9.84,9.84,0,0,1,0-1.65.3.3,0,0,1-.18-.31.33.33,0,0,1,.29-.34,3.06,3.06,0,0,1,.75-1.4c2.82-2.8,10.52-.65,13.48-3.36s2.23-9.72,5.18-12.29c3.18-2.76,5.5-6.33,8.37-8.78,3.41-2.92,4.51-7.66,7.09-10a13.26,13.26,0,0,1,1-.83c-1-.79-2.47-1.22-2.49-2.92a1.61,1.61,0,0,1,1.43-.54,4.24,4.24,0,0,1,2,1.09c.18-3.58,2.72-10.43,1.24-12.8-2-3.21-2.33-.14-1-3.92,1-2.81-4.1-5.63-7.26-8.31a11.79,11.79,0,0,0-.21,2.57c0,.58,1.12.54.49,1.07-1.1.11-1.45-1.54-2.43-1.25a21.5,21.5,0,0,1-3,1.73c-.76.07,0-1.25-1-.87-.08.2,0,.49-.29.62-.31-.26.09-1-.59-1.06-.31.11-.17.67-.64.48s.37-.72-.15-1c-.49-.84-.73.35-1.23.11a1,1,0,0,1,.28-.81,3,3,0,0,0-.83-1.15,1.4,1.4,0,0,1-.77.42c.09-.56.65-1.16.51-1.85s-.63.34-.86-.25c.21-.29.79-.38.87-.8l-.54-.72c.62-1.68,2-2.64,2.4-4.41a6.47,6.47,0,0,0,2.13-1.86,4.85,4.85,0,0,0-5.71-1.17,3.85,3.85,0,0,0-1.64,2.51,1,1,0,0,0,.24-.22c0,.93,1.08-.17,1.17.74.52,0,.23.59.61.65-.22.69.67,1.09.08,1.77-.11,1-1.12.29-1.31,1.22-.49-.14-1.14,0-1.71-.2-.68,3.46-1.4,7.19-3.46,8.18a4,4,0,0,1-2.44.15c-1,1.32-2.21,2.46-2.73,4.22a10,10,0,0,0-3.52,2.69c-.36-.52-.61-1-1.31-1l-.41.29c0,.26,0,.53-.24.57a1.85,1.85,0,0,0-.19-.27l-.2.14c-.36-.11-.34-.58-.75-.58l-.82.56c-.43-.54-.63-1.26-1.29-1.45s-.83.29-1.21.51c-.31-.22-.26-.6-.26-.88-.23-.66-1.48-1.06-1.29-1.73.41,0,.58-.34.49-.72-.25-.33-.78-.24-.89-.71a1.7,1.7,0,0,0,.6-1.53c-1.66,2.51-3,5.83-5.42,6.91-3.46,1.54-9-2-12.5-.55s-3.12,14-6.66,15.14c-3.77,1.24-11-11.08-14.51-10.33-2.54.54-4.34,7.24-6.21,12.09a1.55,1.55,0,0,0,.37-.12c.09-.29,0-.69.37-.9.46.35-.05,1.47.92,1.48.44-.18.2-1,.89-.73.5.43-.49,1.06.28,1.45.76,1.17,1-.55,1.76-.24a1.42,1.42,0,0,1-.34,1.18A4.42,4.42,0,0,0,81,359a2,2,0,0,1,1.07-.67c-.09.81-.85,1.71-.61,2.7h0a7.09,7.09,0,0,1,3.14-1.55c1.12-2.22-2.12-3.17-1.16-5.49a1.51,1.51,0,0,1,1.46.06c1.21.68,1.18,2.35,2.53,2.74.37-.48.59-1.14,1.19-1.34,1.78-.3,3.68-1,5.15-1.11.07.8-.61,1.55-.32,2.24.6-.21,1,.75,1.59,0,.62.17.52,1,.48,1.46.82.31,2.09-2.2,2.19-.64.56.37-.47.72-.57,1a1.47,1.47,0,0,0-.58-.12c-.63,1.8-2,3.09-2.69,4.84,1.09,1.17,2.9.54,4.31,1.35-.36.31-1.17-.08-1.69.14l-1,.93c.87,1.45-.61,2.18-.4,3.42-.29-.15-.59-.68-1-.79-.69-.89-1.17.63-1.93.12-.54.46-.27,1.41-.49,2.06.6.5.42,1.29,1.06,1.67.33.65-.69.29-.84.65-.71-1.26-1-3-2.25-3.85-.37.42-.5.07-.66-.14.07.26.28.54.07.72l-.63.17h0c-.41.12-.76.32-.68.85a.77.77,0,0,0-.19-.14,5.66,5.66,0,0,0-.07.81c-.23-.17-.48-.59-.9-.56l-.18.21a0,0,0,0,0,0,0l-.44.7a3.38,3.38,0,0,0,.06-1.22c-.47-.06-1.2.48-1.34-.43-.66.06-.43-.65-.78-.85A4,4,0,0,0,82,370.67c.19-.32-.28-.15-.4-.28.58-.91,1.36-1.78,1.86-2.72a1.06,1.06,0,0,1,0-1.34.92.92,0,0,1,.05-.26.77.77,0,0,0-.42-.23c-.29,0-.26.7-.7.46a5.11,5.11,0,0,0-1-.85c-.87,1.46-1.93,2.74-2.24,4.57a10,10,0,0,0-3.12,3.07c-.42-.47-.72-.89-1.4-.8-.29.28-.64.55-.94.84-.36-.06-.4-.52-.81-.47l-.74.65c-.48-.49-.76-1.17-1.44-1.27-.55-.25-.77.38-1.12.65-.33-.18-.33-.56-.36-.83-.31-.63-1.58-.87-1.48-1.55.41-.05.53-.4.39-.76s-.79-.15-1-.59c1-1.29,0-1.41.53-2.86-.35-.51-1.12-.32-1.7-.32.06-.37.39,0,.56-.14-1.44-.68-3.11-.35-4.67-.88.33,0,.29-.68.24-.7l3.22.2c1.82-2.28,2-4.8,1.87-7.7,0-.83-1.64-.69-.78-1.49a1.19,1.19,0,0,1,.6,0c-1.65-3.25-3.11-7-4.79-7.87-4.19-2.19-16-1.33-16.6-5.05s5.64-10.06,7-14.06a81.31,81.31,0,0,1,3.59-8.91c-.51-.37-1-.72-1.53-1.14-.69.54-1.15,1.07,0,1.94-.49-.1-.83-.75-1.3-.54-.52.51.83,2-.57,1.91-.19-.17-.45-.34-.61,0-.58.58.55,1.31,0,1.7-.82-.62-2-.5-2.39-1.57-.68-.33-1.12.6-1.54.68-1.09.12-.74-1.48-1.78-1.61a3,3,0,0,1-2.39.91c.56-.94-.6-1.06-1-1.34,1-1.45-1.43-2-.77-3.25-.3.08-.65.4-.85.05.34-.57,1.4-.07,1.22-1.1-.2-.41.44-.93-.07-1.33-.19-.23-.84.16-.74-.33.89-.41,1.31-1.64,1.87-2.52.4-.51,1.06.37,1.2-.49-.08-.36-.64-.51-.48-1,1.74-.39,4.25-.09,5.87-1.63a1.76,1.76,0,0,1,1.39,1c.21,1.75,2.57,1.51,3.43,3,.34.71-.82.65-.66,1.37.37,0,.74.15,1,.07-.17.31-1,.42-.74,1.07a4.5,4.5,0,0,0,1.29,1.52,1.59,1.59,0,0,1-.68,1l1.25.84c.31-.6.62-1.19.93-1.73a16.4,16.4,0,0,1,4.66-4.87.34.34,0,0,1,.13-.1A31.41,31.41,0,0,1,69.47,308c-.36-1.72-.34-5.83,4.21-8.59a.45.45,0,0,0-.41-.22c-1.13-.8-.74.88-1.53.86a1.38,1.38,0,0,1-.12-1.21,4.4,4.4,0,0,0-1.76-1,2,2,0,0,1-.74,1c-.22-.78.15-1.89-.44-2.71-.7-.57-.62.82-1.26.18.09-.49.8-.95.65-1.55l-1.13-.61c-.19-2.54,1-4.61.49-7.13a9.9,9.9,0,0,0,1.74-4c.56.28,1,.56,1.59.22.16-.37.39-.75.55-1.12.36-.08.56.34.92.14l.44-.88c.62.28,1.13.8,1.8.64.6,0,.57-.64.79-1,.37,0,.51.4.64.63.51.46,1.78.22,1.93.88-.35.2-.33.56-.08.85s.78-.16,1.11.19c-.41,1.54.49,1.31.57,2.83.5.33,1.14-.12,1.68-.33.08.36-.36.14-.47.32,1.59.11,3-.82,4.63-.9-.29.14,0,.73,0,.73l-3,1a9.74,9.74,0,0,0,.8,7l.12,0c.43.1.77.56.51.89a.64.64,0,0,0-.18.06c.43.46,1.6,0,1.15.91-1.36.8-2.79-1.13-3.9-.16a12.16,12.16,0,0,1-.9,1.43,5.05,5.05,0,0,0,2.85-.47,1.85,1.85,0,0,1,1.1,1.41c-.28,1.81,2.14,2.22,2.59,3.93.13.78-.92.45-1,1.13l.62.31a1.13,1.13,0,0,0,.38.1s0,0-.06,0a5.49,5.49,0,0,0,4,.59C93.91,303,96,297,99.91,295.65c3.53-1.23,8.31.94,12,.12-.26-.46-.16-1.37-1.12-.8-.07.31,0,.72-.28,1-.51-.31-.11-1.51-1.1-1.41-.44.22-.1,1-.83.84-.56-.38.38-1.13-.45-1.45-.91-1.11-1,.68-1.77.44a1.46,1.46,0,0,1,.21-1.24,4.43,4.43,0,0,0-1.47-1.49,2.07,2.07,0,0,1-1,.8c0-.84.67-1.84.31-2.83-.53-.76-.85.65-1.31-.16.23-.47,1.06-.73,1.08-1.37l-1-.92c.52-2.59,2.32-4.31,2.47-7a10.06,10.06,0,0,0,2.85-3.48c.48.43.84.84,1.52.67.27-.33.59-.64.86-1,.38,0,.47.5.88.4l.68-.75c.55.44.91,1.11,1.61,1.13.6.2.75-.47,1.08-.78.36.14.4.54.46.81.38.6,1.71.71,1.68,1.41-.41.1-.49.47-.31.83s.82.05,1,.49c-.83,1.42.13,1.45-.22,3,.31.36.82.29,1.3.21a6.36,6.36,0,0,1,.79-.33,1.83,1.83,0,0,1,0,.66c1.09.14,2.23,0,3.38.09,3-2.17,5-6.43,7.78-7.59,4.85-2,13.14,4.19,15.23,2.58,3.49-2.68,7.16-12.92,5.36-15.94-1.43-2.4-13.57-.73-13.53-4.23,0-2.44-.49-6.25-6-8.12-3.45-1.16-8.44.8-12.48-.29s-9.16.73-12.59-.43c-5.65-1.9-1.93-7.41-1.63-9.89.47-4-10.44-8.3-10.74-12.16s-1.57-9.28-.68-13.22c.55-2.4-.42,2.8-7,1.07-3.36-.88-6.25-5.52-9.82-7.61a6.55,6.55,0,0,1-.82,1.73c.7,2.18,3.42.71,4.29,2.85a1.42,1.42,0,0,1-1,.9c-1.22.33-2.27-.78-3.41-.17.06.55.35,1.12.09,1.64-1,1.34-1.77,3-2.66,4-.56-.48-.6-1.41-1.23-1.67-.26.52-1.15.18-1,1-.52.28-1-.29-1.26-.64-.73.32,0,2.77-1,1.82-.61.11-.16-.78-.25-1a1.29,1.29,0,0,0,.46-.29c-.75-1.58-.66-3.31-1.35-4.89-1.47-.06-2.24,1.51-3.69,1.88,0-.43.82-.7,1-1.17l.05-1.25c-1.5-.39-1-1.81-1.93-2.49.28-.08.81.07,1.15-.12,1,.13.37-1.17,1.2-1.32,0-.65-.73-1.09-1-1.66-.71.06-1.1-.57-1.76-.41-.64-.21.26-.63.13-1,1.27.38,2.56,1.29,3.93,1.08,0-.88.91.18.77-.7l-.45-.58c.27,0,.5-.07.52-.4-.09-.15-.19-.31-.3-.47a18.8,18.8,0,0,1-4.39-2.21c-3.69-2.62,2.89-9.09,2-13.48a2.93,2.93,0,0,0-.46-1c-.8.45-1.34,1.25-2.37,1.05-.68.42-.1,1.33-.26,1.75-.51,1-1.72-.18-2.42.67a3.09,3.09,0,0,1-.53,2.61c-.52-1-1.27-.06-1.74.11-.73-1.65-2.56.15-3.29-1.13-.1.31,0,.79-.43.77-.31-.61.71-1.27-.29-1.69-.48-.05-.57-.91-1.21-.68-.31,0-.33.83-.71.47.14-1-.71-2.08-1.17-3.07-.23-.63.91-.72.23-1.32-.36-.13-.8.27-1.15-.14.63-1.76,2.29-3.8,1.84-6.1a1.87,1.87,0,0,1,1.68-.65c1.34.64,2.33-.68,3.59-1.18a3.41,3.41,0,0,1,.16-2.36c1.76-4.14,4.93-8.63,8-10.53s8.81,4.11,13,3.94c3.7-.15,7.12-2.37,11.17-1.56,3.76.75,6.75,3.78,10.52,5a3.62,3.62,0,0,0,1.77,0,8.86,8.86,0,0,1-1.5-1c.18.07.32-.3.3-.32l1.69.87a6.17,6.17,0,0,0,2.83-3.7c.21-.44-.72-.76-.07-1,.9.24.68,1.65,1.55,1.72a18.82,18.82,0,0,1,2.91-.45l0,0c1.83-1,3.52-1.62,4.77-1.14,4,1.55,4.28,12.33,7.5,13.51,4,1.5,4.81-.82,5.12-3.06a4.1,4.1,0,0,0-2.37-1.23,1,1,0,0,1-.14-1c.65-.81-.43-1.71-.16-2.69.16-.44.61.08.85-.29-.16-.15-.24-.37-.4-.47.2-.06.6.26.76-.13a2.77,2.77,0,0,0,.11-1.18c.61-.47,2,.52,2.06-.54a1.84,1.84,0,0,1-1-.43c.74-.36.06-.91-.06-1.25,1.2-.51-.08-1.84.86-2.35-.22-.08-.58,0-.56-.32.45-.22.91.53,1.22-.19.05-.34.66-.4.51-.86,0-.23-.6-.25-.33-.51.73.11,1.5-.5,2.22-.82.46-.15.5.67.95.19.1-.26-.19-.58.11-.83a29.9,29.9,0,0,0,2.92,1.3c-2.17-3.42-7-5.72-9.07-9.14-3-4.75-4.78-6.94-3.25-9.52.9-1.52,1.68-3.2,2.61-4.79a2.9,2.9,0,0,1-1.1,0c.19-.31.88-.23,1.2-.51l.49-.93c-1-.84-.08-1.74-.54-2.59.25,0,.59.35.92.33.72.48.7-.75,1.39-.56.27-.47-.15-1.1-.16-1.63-.56-.22-.62-.83-1.18-.95-.4-.4.43-.38.45-.69.83.75,1.47,1.92,2.59,2.26.29-.68.62.47.83-.25l-.12-.6c.2.11.4.13.54-.11a6.1,6.1,0,0,0-.22-1.24c.22.08.52.36.84.18l.2-.78a2.37,2.37,0,0,0,1,1.82c.33-.12.13-.66.29-.67,0,.16,0,.57.18.68a3.54,3.54,0,0,0,1.54-2.26c-.06.28.24,0,.36.1-.16.65-.42,1.32-.59,2,3.34-.74,6.91-1.18,8.58-3.43,1.26-1.68-1.23-6.91-3.21-12-1.2-3.11-8-4.19-9.71-7.83-1.57-3.35,6.12-11.18,4.56-14.53-1.71-3.65-7.12-5.35-8.31-8.46-2-5.15,1.82-4.37,3.28-6l-4.73-4.93c-2.23-2.42-11.81-6.34-11.46-9.61s10.42-5,13-7.29c1.68-1.48,6-3.64,11.38-4.27,3.94-.46,8.35-3.61,12.3-3.66a22.9,22.9,0,0,0,2.64-.22,4.8,4.8,0,0,1-.55-.71c.27.19.64-.35.61-.4l1.05.93c1.87-.32,3.82-.79,5.61-1.25a18.14,18.14,0,0,0,2-2.45c.54-.64-.86-1.55.31-1.66,1.19.67.65,2.41,1.37,3.18,1.57-.36,2.72-.55,3.15-.33a2.11,2.11,0,0,1,.9.92l1.38.19c1,.55-1,1.51.49,1.87.26-.17.47-.52.86-.48.14.56-1,1.12-.19,1.72.45.14.75-.63,1.15,0,.13.65-1,.53-.68,1.31-.11,1.33,1,.31,1.48.82.35-.08.82,0,1-.45a2.1,2.1,0,0,1-.14-1.78c.52.56.84-.19,1.1-.39.78.93,1.63-.57,2.33.12,0-.22-.13-.51.14-.58.32.34-.23.95.5,1,.32-.06.54.48.91.22.19-.09,0-.6.36-.44.1.68.85,1.21,1.33,1.76.26.37-.46.63.09.9.26,0,.47-.33.77-.12-.08,1.25-.77,2.87-.06,4.27a1.25,1.25,0,0,1-1,.73c-1.22-.21-1.53,1.42-2.69,1.71-.54.09-.27-.68-.79-.71-.06.25-.24.46-.25.68-.18-.17-.08-.76-.57-.71A3.15,3.15,0,0,0,172,64c-.91-.39-.57-2.71-2-1.63.16-.31.66-.41.62-.77-.23-.43-1.42.11-1.19-.68a2.43,2.43,0,0,0-1,1c-.14.9,1,.13.81,1-.48.17-1.24-.21-1.68.22l0,1.29a10.3,10.3,0,0,1-2.44,1.17c-.38,3.19-.45,5.95.63,7.11,2.32,2.49,9.65.68,14.85.35,0-.24,0-.47.3-.48a1.82,1.82,0,0,0,.26.45c2.15-.09,3.87.12,4.58,1.1a15.94,15.94,0,0,1,1.47,2.54,6.29,6.29,0,0,0,2.42.8,6.81,6.81,0,0,0,2.32,2c-.29.32-.57.56-.46,1,.22.18.43.41.64.59,0,.26-.33.31-.27.59l.5.47c-.31.37-.76.61-.78,1.08s.31.51.52.74c-.1.24-.37.26-.55.3-.41.25-.5,1.15-1,1.13a.33.33,0,0,0-.42-.27c1,3.31,1.93,5.64,3.4,4.62,3.21-2.23,3.29-8.41,6.41-10.14s9,1.49,12.37-.34c2.53-1.37,7.61-8.17,11.22-4.79,1.5,1.41,1.09,5.07,1,8.37.07,0,.15,0,.28-.13l.25-.66a.4.4,0,0,0,.59.23,6.36,6.36,0,0,0,.54-1.34c.17.21.29.67.71.69l.67-.64a2.77,2.77,0,0,0-.11,2.41c.4.09.53-.57.7-.47-.09.16-.37.54-.25.77a4.11,4.11,0,0,0,2.89-1.25c-.23.23.21.18.28.32A20.08,20.08,0,0,0,228.73,85c.63.32-.84.78.15,1.33.26,0,.37-.54.7-.24.91,1.76,3.22,2.81,5.06,3.74-.47,0-.81.72-1.37.54-.94-.22-2-1.78-2.79-.39A5,5,0,0,1,229,91c3.1,2,6.53,3.1,8.39,2.36,3.56-1.42,10.11-8.78,13.12-7s2.84,15.23,6.44,14.27-.52-12.28,1.63-16.6c1.83-3.65,7.44-3.23,11.44-3.26a3.81,3.81,0,0,0,.12-.51,1.11,1.11,0,0,1,1.1,0c.5.48,1.09.27,1.71.12,2-1.51,2.18-8,4.24-11.5a6.17,6.17,0,0,0,.7-2.5l-.14.06c-.88.06,0,.74-.41,1-.25,0-.45-.33-.55-.55a2.71,2.71,0,0,0-1.27.21,1.34,1.34,0,0,1,0,.79c-.43-.29-.69-1-1.31-1.17-.58,0,0,.66-.56.61-.15-.29,0-.8-.3-1l-.8.15c-1.12-1.18-1.34-2.71-2.63-3.74a6.22,6.22,0,0,0-.73-2.67c.39-.09.72-.13.88-.53-.07-.25-.11-.53-.18-.78.15-.18.41-.06.51-.3l-.13-.61c.42-.12.88-.07,1.15-.41s0-.55,0-.82c.2-.13.42,0,.58.06.44,0,1-.61,1.31-.35-.1.25.06.42.3.46s.33-.39.63-.35c.41.93.77.45,1.42,1.17.38,0,.52-.52.7-.84.18.15-.12.22-.1.36.83-.59,1.16-1.62,1.94-2.32-.1.19.28.38.31.35l-1.11,1.72a5.05,5.05,0,0,0,.84,1.39,4,4,0,0,1,.4-.92c1.52-2.56,5.47-3.76,8.77-4.3a.25.25,0,0,1,0-.14c.11-.2.5-.24.51,0,.49-.07.95-.13,1.39-.17a.78.78,0,0,1,0-.14c-.52-.19-.6-.76-1.12-.86-.38-.35.39-.36.4-.64.55.46,1,1.11,1.6,1.56.57,0,1.08-.06,1.47-.07h.08l-.06-.28a.33.33,0,0,0,.5-.11A5.79,5.79,0,0,0,292,51c.2.06.49.32.78.14l.17-.73a2.19,2.19,0,0,0,1,1.66c.3-.12.1-.62.25-.63,0,.15,0,.53.18.63A3.31,3.31,0,0,0,295.77,50c0,.27.22,0,.34.09-.13.61-.36,1.22-.5,1.83a31.15,31.15,0,0,0,7.08-3.6c3.83-2.47,7.59-2.16,11.25-1.74s4.83,2.88,7.77,5.81a16.35,16.35,0,0,0,8.63,4.88,5.64,5.64,0,0,1-.17,2.06.9.9,0,0,1,1.12.33c.55.19.56.54.56.9a16.75,16.75,0,0,0,1.79-1.35c-1.68-1.18-2.45-3-4.36-3.86a8.15,8.15,0,0,0-1.77-3.21c.48-.23.89-.38,1-1-.17-.3-.3-.64-.47-.94.13-.28.52-.21.57-.55l-.36-.74c.5-.28,1.11-.35,1.35-.87s-.14-.72-.27-1.06c.21-.22.53-.13.75-.1.57-.1,1.05-1.08,1.58-.84-.05.34.2.51.53.49.3-.17.29-.61.69-.64C333.67,47,334,46.23,335,47c.49-.17.51-.83.65-1.3.28.13-.09.31,0,.48.88-1,1-2.42,1.77-3.56-.06.27.48.39.51.35l-.89,2.55c1.43,2,3.4,2.73,5.78,3.25.66.2.93-1.17,1.38-.3-.16,1.32-2.19,1.29-2.11,2.53.09.2.17.41.25.63a12.77,12.77,0,0,0,1.25-1.17c2.65-2.86,10.72,1.89,13.47,0,3.5-2.38,2.5-7.64,5.66-7.45,4.91.3,3.41,3.07,5.51,6.49,1.9,3.1,8.32,4.15,8.64,8.77.27,3.86-3.16,7.86-3.55,12.14-.37,4-5,7.16-5.92,11,.12.11.14.26-.09.51h0q0,.31-.06.63c.29.15.74.1.71.45a3,3,0,0,0-.68.32c.34,4,4.09,8.41,3.6,11.63a9.55,9.55,0,0,0-.09,2.34,6,6,0,0,1,2,3.68,7.65,7.65,0,0,0,1,.59c1.44,0,2.51-1.83,4.23-.94a1.42,1.42,0,0,1-.18,1.35,3.07,3.07,0,0,1-1.44,1c1.14,1,.72,1.4,4.76-1.12,2.84-1.77,4.16-6.29,7.29-8.5a5.31,5.31,0,0,1,2-.83,1.41,1.41,0,0,1,0-1.09c-.27-.65-1.15-.28-1.5-.49-.72-.52.15-1.28-.08-2-.27.18-.52.24-.8-.27-.57.82-1.14-.34-1.59-.68a2.38,2.38,0,0,1-.33-1.95c.21-.36.57-.62.53-1.14a6.79,6.79,0,0,1,.86-.13c0-.52.05-1,.61-1.21-.26-.14-.7-.13-.62-.5.59-.18,1,.82,1.53,0,.12-.41.88-.37.78-1,0-.28-.68-.41-.31-.69.87.27,1.93-.32,2.87-.58.59-.1.49.92,1.12.41.17-.3-.12-.75.3-1,1.45.82,3,2.58,5.08,2.52a1.65,1.65,0,0,1,.32,1.58c-.94,1.34.84,2.64.52,4.19-.21.71-1-.06-1.31.54.27.22.42.56.68.69-.31.12-1-.34-1.18.29a2.62,2.62,0,0,0-.11,1.16c.26-.34.26-1.09,1-.74.33-.58.81.17,1.14-.21.5.6,1.31.22,1.77.73.59-.36,1.19-.72,1.78-1a10.27,10.27,0,0,0-2.06-3.64,8.83,8.83,0,0,0-.66-3.89c.57-.07,1-.08,1.32-.62-.06-.37-.08-.77-.14-1.13.24-.24.6,0,.77-.35l-.1-.89c.61-.1,1.26,0,1.68-.41.48-.28.12-.77.11-1.17.3-.15.58.06.8.17.62.1,1.45-.72,1.9-.3-.17.33,0,.6.37.69.36-.06.51-.51.93-.4.46,1.37,1,.75,1.84,1.86.55,0,.81-.66,1.12-1.09.24.24-.21.29-.19.49,1.25-.72,1.86-2.12,3.07-3-.16.25.34.57.39.54l-.24.29a1.05,1.05,0,0,0,.72-.35c.18-.22-.07-.72.24-.83.56,0,1.31.26,1.47-.47.26.57.81.43,1.26.14-.32,1.2,1.43.22,1.19,1.4.66.18.05.84.51,1.08-.56.78.42,1.64-.6,2.27-.52,1.17-1.54-.09-2.14,1-.95-.62-2.75-.55-2.94-2.38-.49-.81.82-1.14.16-1.71L412.85,79c.75,2.52,2.5,4,4.73,5.36.6.44,1.36-.86,1.51.19l0,0a1,1,0,0,0,.69-.43l-.4-1.12c1.45-1.88,3.59-2.54,4.77-4.63a9,9,0,0,0,3.68-1.67c.22.54.35,1,1,1.15.35-.16.74-.28,1.08-.44.3.17.18.58.55.67l.85-.33c.26.57.29,1.25.84,1.55s.8-.08,1.19-.2c.22.26.1.59,0,.84.07.63,1.1,1.25.79,1.8-.37-.08-.58.18-.58.54.16.35.64.38.65.82-1.24.81-.48,1.21-1.37,2.31.14.55.87.63,1.37.82-.17.3-.33-.13-.53-.07,1,1.06,2.58,1.3,3.77,2.26-.29-.09-.47.49-.43.52l-2.73-1.19c-2.3,1.4-3.29,3.51-4.06,6.08-.29.71,1.2,1.11.2,1.54-1.43-.29-1.22-2.52-2.59-2.54a27.42,27.42,0,0,1-4.51,1c-1-.21.43-1.61-1-1.5-.18.22-.26.59-.62.67-.28-.46.52-1.26-.32-1.58-.44,0-.48.78-1,.35-.29-.53.77-.76.22-1.35-.29-1.25-1.06.16-1.6-.35a1.31,1.31,0,0,1,.67-.91,4.11,4.11,0,0,0-.59-1.79,1.92,1.92,0,0,1-1.14.24c.33-.68,1.28-1.22,1.38-2.15-.09-.64-.6-.19-.85-.34-.87.44-2.15.22-2.43,1.22a28,28,0,0,1-.19,4.51c-.45.87-1.41-.82-1.66.53.16.22.49.39.48.74-.5.16-1.06-.79-1.57-.08-.1.41.61.64.08,1-.58.15-.53-.91-1.22-.54a.84.84,0,0,0-.44.08c0,.15-.11.31-.17.47s.18.68-.13.87a.51.51,0,0,1-.18-.09c-.82,2-1.92,4.36-3,6.73-1.62,3.51-.16,9.26-2.17,13.22a4,4,0,0,0,1.72.5c.57,1.16-1.72,3.17.66,3.34-.42.17-1-.15-1.26.24-.14.65,1.64,1.12.52,1.74-.23,0-.51,0-.48.28-.15.73,1.07.72.82,1.31-.93-.07-1.75.6-2.6,0-.68.09-.55,1-.83,1.29-.77.63-1.31-.75-2.16-.34a2.73,2.73,0,0,1-1.36,1.89c0-.38-.17-.55-.37-.61,0,.63.14,1.35.18,2s-1,.29-.61,1c.25.21.73,0,.87.47-1.05,1.19-3,2.29-3.38,4.24a1.57,1.57,0,0,1-1.53,0c-1.06-1.15-2.63.25-4-.36-.61-.33.25-.89-.24-1.33-.25.2-.6.28-.78.49,0-.31.51-.83,0-1.15a3.93,3.93,0,0,0-1.72-.42c-.49-.9.83-2.43.09-3-1.21,5.76-1,12.79.09,14.16.93,1.13,10.25-2.78,16.17-5.93,3-1.59,7.24-2.44,11-4.72,1.53-.92,3.62-1.1,5.77-1.29a.19.19,0,0,1,.26,0c2.2-.2,4.44-.44,6.18-1.53,3.24-2,5.57-5.85,9-8s8.36-1.56,11.67-3.66S451.7,103,454.94,101c2.28-1.44,3.28-4.89,4.56-7.66a21.78,21.78,0,0,1-1.88-2.43c.22.18.58-.24.56-.29l1.73,1.89a6.34,6.34,0,0,1,2.15-2.6,3.56,3.56,0,0,1,1.54-.46,1,1,0,0,0-.77-.31c-.28.24-.61.45-.89.68-.32-.08-.31-.49-.68-.47l-.7.52c-.39-.46-.59-1.08-1.18-1.22s-.71.28-1,.5c-.28-.18-.25-.53-.26-.77-.22-.57-1.33-.87-1.2-1.46.37,0,.5-.32.41-.65-.24-.28-.69-.18-.81-.59.93-1.07.12-1.24.66-2.48-.27-.47-1-.36-1.48-.41.08-.32.35,0,.51-.07-1.23-.71-2.72-.53-4.06-1.12.29,0,.3-.57.25-.59l2.84.4c1.76-1.89,2.13-4.09,2.18-6.67.08-.73-1.4-.72-.58-1.37,1.4-.1,1.78,2,3.05,1.68A27.51,27.51,0,0,1,463.76,73c1,0,0,1.6,1.27,1.15.11-.25.09-.62.4-.78.38.34-.15,1.3.71,1.37.4-.12.24-.84.84-.58.41.41-.51.9.14,1.3.59,1.08.95-.41,1.57-.08a1.25,1.25,0,0,1-.38,1,3.83,3.83,0,0,0,1,1.5,1.77,1.77,0,0,1,1-.52c-.14.71-.87,1.46-.73,2.35.34.73.83-.41,1.09.35-.27.35-1,.44-1.13,1l.65.94c-.85,2.11-2.65,3.27-3.21,5.51a3.86,3.86,0,0,0-.66.37c.5.54.37,1.39.49,2.06,1.43.41,2.95,1,4.41,1.6l.34.09.1.09c2.28.88,4.34,1.55,5.54.92A23.72,23.72,0,0,0,479.71,91a10.38,10.38,0,0,0-2.06,2.47,34.66,34.66,0,0,1-2.21,3.26c.3.14.49.32.19.82,1,.07.28,1.13.22,1.69a2.33,2.33,0,0,1-1.49,1.24c-.41,0-.81-.17-1.23.12a1.79,1.79,0,0,1-.33-.41l-.39.53a.31.31,0,0,1,0,.3.54.54,0,0,1-.22,0c-.36.5-.72,1-1.07,1.53a11.12,11.12,0,0,0-1,1.88c.75-.44,1.15.71,2,.05.57.88,2.11,1.49,1.6,3.11.13.93-1.32.62-.66,1.57a1.27,1.27,0,0,0-1-.06c-.24.12-.21.63-.51.61-.47-.23-1-.71-1.42-.15,0-.58-.52-.67-1-.59.35-.44.09-.61-.2-.79a33.93,33.93,0,0,1-1.05,3.28.72.72,0,0,1,.21-.12c0-.56.49-.83.39-1.36.19-.49.48.23.75.14-.35,1-1.11,1.95-1,3,.69,0-.17.7.52.62l.47-.32c0,.21,0,.38.29.42a4.93,4.93,0,0,0,1-.64c0,.21-.11.58.16.78l.74-.11a2.18,2.18,0,0,0-1.18,1.55c.22.24.61-.13.68,0-.14.07-.5.19-.52.4a3.29,3.29,0,0,0,2.49.5c-.26.05.06.22,0,.34a17.25,17.25,0,0,0-2.65.39c.27.5-.91.13-.51,1,.15.15.5-.19.58.16-.21,1.59.84,3.35,1.63,4.82-.31-.21-.86.1-1.16-.28-.52-.58-.53-2.12-1.67-1.54a4.54,4.54,0,0,1-3.46-.92c-1.73.46-.69,2.64-2.38,3.23a1.1,1.1,0,0,1-.67-.81c-.21-1,.7-1.74.26-2.65-.43,0-.88.22-1.28,0-.66-.54-1.44-1-2.11-1.49a8,8,0,0,0-3.1,2.59c-1.47,2.5-.89,6,.15,9a.76.76,0,0,1,.63-.07c.39.3,1.06.69.86,1.26s-.45.62-.7.88c.84,2,1.73,3.64,2.05,4.31,1,2.1,6.62,10.86,3.26,15.22-.79,1-2.71,1.29-4.93,1.37,0,.13.07.26.09.39-.25,0,0-.27-.16-.36a2.94,2.94,0,0,0-.08.72c.59-.15,1.23.14,1.79-.22,0,.24-.3.61-.26.93-.41.74.79.63.66,1.32.48.24,1.06-.23,1.58-.28.18-.56.78-.67.86-1.23.36-.42.4.4.7.4-.67.87-1.77,1.58-2,2.71.69.23-.41.64.31.8l.58-.17c-.09.2-.09.41.15.52a4.83,4.83,0,0,0,1.2-.31c-.06.22-.32.55-.11.85l.78.13a2.39,2.39,0,0,0-1.72,1.16c.15.32.67.08.69.24-.16,0-.56,0-.66.22a3.49,3.49,0,0,0,2.34,1.35c-.28,0,0,.24-.08.36a18.59,18.59,0,0,0-2.8-.52c.11.6-1-.17-.83.79.1.2.56,0,.52.36-.75,1.53-.29,3.66,0,5.41-.24-.32-.9-.2-1.07-.68-.32-.76.19-2.31-1.16-2.12a4.84,4.84,0,0,1-3.17-2.11c-1.89-.12-1.59,2.43-3.5,2.44a1.18,1.18,0,0,1-.39-1c.12-1,1.3-1.52,1.17-2.58-.44-.12-1-.07-1.29-.43-.73-1.16-1.79-2.28-2.3-3.28.54-.29,1.27,0,1.67-.43-.33-.36.21-.95-.45-1.13-.07-.48.51-.64.88-.77,0-.66-2.16-.8-1.1-1.33.1-.51.64.11.85.11a1.08,1.08,0,0,0,.08.44c1.44-.09,2.76.5,4.18.45.38-.86-.11-1.69-.28-2.6a8.75,8.75,0,0,0-4,.32c-.56.1-.24,1.21-.9.74a1.43,1.43,0,0,1,.29-1.27,5,5,0,0,0-3,1.34c-2.63,3-4.47,6.71-6.62,9.49a50,50,0,0,1-4.95,5.13,6.08,6.08,0,0,0,.7,1.06c.36-.46.49.79,1.09.09.08-.2-.37-.38-.07-.6,1.56-.43,2.79-2.1,3.84-3.41-.07.37.44.77.2,1.19-.34.71-1.76,1.33-.78,2.16a4.63,4.63,0,0,1,.51,3.59c1.1,1.43,2.72-.4,3.94,1a1.1,1.1,0,0,1-.5.94c-.81.58-1.89,0-2.57.8.2.39.56.73.51,1.19-.37,1.25-.5,2.71-.89,3.7a1.59,1.59,0,0,1-.53-.37c0,.32.12.69-.42.71,0,.54-.64.18-.74.59-.45-.19-.82.11-1.2.17.13.41.18.72-.35.51-.41.25-.32-.53-.45-.67l.09-.1c-.93-.21-.19-1.19-1.14-1.46a1.65,1.65,0,0,0,.11-.45,8.37,8.37,0,0,0-1.12-1.6c-1.1.35-1.25,1.73-2.22,2.39-.09-.33.42-.73.44-1.14l-.31-.94c-1.21.12-1.23-1.07-2.09-1.32.18-.14.61-.17.82-.41.79-.17-.05-1,.53-1.3-.14-.49-.84-.61-1.2-.95a2.23,2.23,0,0,1-1,0,1.54,1.54,0,0,0-.12,1.05l0,.1a.21.21,0,0,1,.35,0c.12.15,0,.36-.18.42a37.41,37.41,0,0,0,3.3,6.3c0-.23-.33-.48.12-.61.28.24.32.86.77,1l.8-.51c1.71.79,2.61,2.33,4.44,2.88a7.28,7.28,0,0,0,1.95,2.56c-.38.26-.72.44-.72.94.18.24.35.52.53.76-.06.21-.29.25-.38.41,2.78.77,2.75-2.1,3.47,1.33l.82,1.72c.44,2.08-4.13,13.41,2.21,13.93a3.84,3.84,0,0,0,2.14-.62c-.26-.11-.52-.22-.78-.31-.1-.36.3-.59.08-.94l-.91-.38c.23-.65.72-1.2.51-1.85,0-.62-.68-.54-1.07-.74,0-.37.37-.54.6-.69.42-.54.09-1.79.74-2,.23.35.59.3.87,0s-.22-.77.11-1.12c1.58.3,1.29-.59,2.81-.77.3-.53-.2-1.15-.45-1.67.36-.11.16.35.36.44a4.86,4.86,0,0,0-.23-1.37c-.12.08-.23.12-.35,0a.51.51,0,0,1,.27-.27,14.55,14.55,0,0,1-.92-3c.16.29.74,0,.73-.08l.26.64c.17-.42.28-.9.43-1.31.11-.24.35-.18.53-.19-.05-.08-.11-.15-.13-.15l.33-.2c-.13-.21-.5-.25-.47-.6.52-.25,1.17-.42,1.8-.65a6.6,6.6,0,0,0-1.8-4.05c-.28-.42-1.05.24-.91-.46.69-.67,1.82.26,2.34-.47a19.45,19.45,0,0,1,1.13-2.82c.49-.46.72.83,1.18,0-.06-.17-.23-.36-.14-.58.35,0,.5.75,1,.41.16-.24-.25-.55.18-.68.4,0,.13.7.65.62.79.31.32-.63.79-.74a.92.92,0,0,1,.25.7,2.61,2.61,0,0,0,1.19.35,1.19,1.19,0,0,1,.29-.71c.24.43.19,1.14.66,1.55.49.23.25-.58.72-.3,0,.31-.34.68-.16,1l.76.2c.48,1.48.05,2.89.75,4.31a6,6,0,0,0-.46,2.62c-.37-.09-.67-.19-1,.1,0,.24-.12.5-.16.74-.2.1-.38-.11-.57.06l-.13.58c-.19,0-.37-.1-.55-.14a.28.28,0,0,0,.05.09,1.74,1.74,0,0,0,.54.5c0-.4,0-.74.64-.5.9,1.31-.95,2.89.1,3.93a31.87,31.87,0,0,1,4.27,2.64c.6.91-1.56.92-.39,1.89.3,0,.64-.26,1,0-.12.57-1.35.59-.94,1.47.35.32,1-.24,1.05.49-.16.58-1,.12-1.16.71,2.25,2.41,4.49,5.1,6.74,5.15,4.44.08,8.48-4,12.1-3.7,6.44.52,16.08-3.45,16.28-1.31.24,2.43-7.64,6.62-12.65,9.94-3.17,2.11-7.19,4-11,6.17s-11.06-1-14.25,1.08c-5,3.26-8.56,11.35-8.59,13.74-.05,4,10.9,4.19,14.42,8a6.43,6.43,0,0,1,1.39,5.13,5.61,5.61,0,0,0,.8-1.24,8.16,8.16,0,0,0,3.17-1.76c.23.46.38.87.94.95.3-.17.64-.31.93-.47.28.13.21.51.55.55l.73-.36c.28.5.35,1.1.87,1.33s.7-.13,1-.27c.23.22.14.52.11.75.1.56,1.07,1,.84,1.55-.34,0-.51.21-.48.53s.6.29.64.68c-1,.82-.34,1.12-1,2.17.16.48.82.5,1.28.63-.12.28-.3-.09-.47,0,1,.87,2.4,1,3.53,1.74-.26-.06-.38.47-.34.5l-2.53-.87c-1.95,1.43-2.68,3.39-3.18,5.74-.2.66,1.16.91.3,1.37-1.31-.16-1.29-2.17-2.51-2.08a25.1,25.1,0,0,1-4,1.22c-.9-.12.27-1.47-1-1.27-.14.21-.19.55-.5.64-.29-.38.36-1.16-.41-1.38-.39,0-.37.73-.87.39-.31-.46.62-.74.1-1.23-.23-.71-.56-.41-.91-.22,0,.11,0,.23,0,.34-.48,4,9.45,9,9.26,13.2a84.9,84.9,0,0,1-1.85,13.46c-.63,2.77-11.23,7.59-9.52,11.29,1.42,3.06,6.13,4.86,7.5,7.91.14.32.29.62.45.91.08-.8-.39-1.76,0-2.61.31-.52.76.25,1.16-.16-.17-.22-.22-.53-.4-.69.27,0,.7.47,1,0a3.43,3.43,0,0,0,.43-1.47c1-.48,2.68,1.45,2.82-.57.15.36-.13.85.2,1.07.55.12.95-1.39,1.47-.45,0,.2,0,.43.24.41.62.13.61-.91,1.11-.7-.06.79.51,1.48,0,2.2.07.58.86.47,1.09.71.53.64-.64,1.1-.28,1.82a2.29,2.29,0,0,1,1.59,1.15c-.84,0-.43.83-.45,1.19-1.33,0-.67,1.77-1.75,1.87.17.16.53.25.38.53-.5,0-.63-.87-1.22-.32-.18.3-.78.11-.82.6C481.6,308.57,482.13,308.82,481.77,309ZM464.46,89.44a8,8,0,0,1,.81.09c.15-.17.31-.34.46-.52s.13-.54,0-.81A10.27,10.27,0,0,0,464.46,89.44ZM169.21,59.24a1.12,1.12,0,0,1,.76-.43c.31-.33,0-.73-.13-1a2.07,2.07,0,0,1-.52.22A7.65,7.65,0,0,0,169.21,59.24ZM64.28,187.06c-.2-.22-.42-.45-.66-.67a.3.3,0,0,0,.05.17C63.74,186.9,64,187,64.28,187.06Zm57.38,97.41h-.11l0,0,0,0ZM109.59,384.64l.57,2.22.29.09a6.09,6.09,0,0,1,.44-.44A2.15,2.15,0,0,0,109.59,384.64Zm216.14,49.88h0s0,0,0,0Zm1.18-356.1v-.07s0,0,0,.06Zm-.76-4.2c-.3-1-.62-2.12-.87-3.19-.16.14-.26.42-.47.44l-.2,0C325.09,72.42,325.67,73.28,326.15,74.22Zm63.51,50.65a.45.45,0,0,0-.14-.38l-.12.57A.38.38,0,0,0,389.66,124.87Zm6.11-5.72a3.57,3.57,0,0,0,.06-1c-2.42.64-4.48,1.39-5.11,2.75-.06.13-.11.28-.17.42a1.31,1.31,0,0,1,.66.21c.67-.12.5-1,.76-1.3.72-.65,1.3.68,2.12.23a2.67,2.67,0,0,1,1.24-1.9C395.37,119,395.55,119.12,395.77,119.15ZM395,92.24c.67,0,1.34,0,2,0a.89.89,0,0,0,.21-.16C396.38,92.17,395.41,91.86,395,92.24Zm-.75,0-.07,0h.1ZM323.84,69c.2-.06.41-.08.6-.15a4.65,4.65,0,0,1,.49.17,5.85,5.85,0,0,1,.44-3.38,7.41,7.41,0,0,1,2.2-2.33c0-.37.06-.82-.17-1.06a6.55,6.55,0,0,0-3.41,4.4A6.92,6.92,0,0,0,323.84,69ZM267.27,424.81c-.61-.2-1.34-.17-1.77-.7l-.32-.53a8.75,8.75,0,0,0-.3.86,4.68,4.68,0,0,0-.09,1.91.21.21,0,0,0,.08-.1c.56.41,1.17-.15,1.65.31A2.35,2.35,0,0,0,267.27,424.81Zm4.2-9.33a3,3,0,0,0,0-.94,10.78,10.78,0,0,1-.66,1.19,2.39,2.39,0,0,1,.22.16A.65.65,0,0,0,271.47,415.48ZM171.39,350l1.24-.41c.28-.63.52-1.13.92-.34l0,0c2.58-.85,4.33-1.45,4-1.87-1.07-1.32-3.71.24-6.52,2.24A.94.94,0,0,1,171.39,350ZM127.1,171.69c0,.2,0,.39.22.46s.33-.26.47-.48A2.63,2.63,0,0,1,127.1,171.69ZM285,390.86c-1.58.22-1.28,5.52-3.26,12.14a5,5,0,0,1-1.15,1.83.57.57,0,0,1-.42.58.81.81,0,0,1,0-.16c-2.48,2.36-6.91,4.5-8.08,7.77l.75.37a5.67,5.67,0,0,1,.72-1.17c-.08.23.39.38.42.35l-.21.45c1-.49,2,.23,2.94-.31-.05.34-.46.83-.43,1.28-.64,1,1.06.95.82,1.9.66.37,1.51-.25,2.24-.27.29-.78,1.14-.88,1.29-1.67.53-.57.54.59,1,.61-.89,1-2.23,1.87-2.83,3.12.11,0,.21,0,.31.27a1,1,0,0,1-.24.46c.22.34-.74.72.1.95l.83-.19a.48.48,0,0,0,.16.74,7.54,7.54,0,0,0,1.71-.35c-.1.31-.48.74-.22,1.18l1.09.24a3.28,3.28,0,0,0-2.49,1.5c.17.46.92.15.94.38-.23,0-.79,0-.94.27a5.38,5.38,0,0,0,2.82,2c.25-3.26,1.12-6.7.95-9.76-.25-4.48-.18-8.74-.42-12.41C282.88,396,286.86,390.6,285,390.86Zm101.21-3.06-.06.18a.26.26,0,0,0,.15.07s0,0,0-.05A.84.84,0,0,0,386.18,387.8Zm.22,1.47-.33.34A.64.64,0,0,0,386.4,389.27Zm47.94-216.1-.48-.31c.21-.05.35-.18.28-.43a7.61,7.61,0,0,0-.62-.45,14.37,14.37,0,0,0-1.83,2.19,4.1,4.1,0,0,0,2.28-.27C433.7,173.26,434.69,173.79,434.34,173.17Zm1.33-3.3c-.46.43-.9.86-1.32,1.28a2.2,2.2,0,0,0,1,0c.14-.31-.36-.52-.26-.64.11.1.37.38.58.33A4.07,4.07,0,0,0,435.67,169.87Zm21.14-15.45.05,0,0-.17a5.92,5.92,0,0,0-1.12-.42.7.7,0,0,0,.15.23Zm.68,181.7.14.07c.24,0,.3-.2.28-.4S457.87,336.2,457.49,336.12Zm-6-.4c-1.06-.74-.72,1-1.7,1-.16.65.4,1.43.5,2.15,1.09.7,2,1.34,3.18.65-.32-.66.55-.81.84-1.13-.25-.44,0-.82,0-1.23a2.34,2.34,0,0,0-1.12-1.56C452.58,335.53,451.59,334.76,451.45,335.72ZM442.84,328a1.47,1.47,0,0,0,1.32.82c.42-.21,1-.22,1.24-.74.5-.59-.13-1.35-.46-1.88-.47-.37-1-.17-1.48-.06s-.33.74-.76.63C443.1,327.15,442.58,327.54,442.84,328Zm68.74-97.56.08-.09c0-.17-.1-.24-.24-.26S511.7,230.16,511.58,230.42Zm-13.7-15.53.2-.24c.15-.28.24-.62-.11-.82s-.23.21-.36.36C497.65,214.38,497.49,214.8,497.88,214.89Zm2.23,6.53c1.11,1,3,1.07,4.52,1.22-.32.13-.37.72-.81.74-.71.11-1.89-.67-2,.49a4.2,4.2,0,0,1-2.48,2.17c-.54,1.56,1.66,1.88,1.24,3.48a1,1,0,0,1-1,.09c-.85-.33-1-1.43-1.89-1.56-.2.34-.28.79-.66,1-1.13.35-2.3,1-3.26,1.17-.11-.51.27-1.06,0-1.49-.38.19-.74-.39-1,.13-.42-.06-.43-.58-.45-.91-.56-.13-1.16,1.61-1.36.61-.4-.2.24-.51.28-.68a.87.87,0,0,0,.39,0c.05-.22.13-.43.2-.64-.41.38-1.24.49-1.28,1.24a3,3,0,0,1,1.09,2.33c-1-.49-1,.68-1.29,1.08-1.53-.86-1.91,1.59-3.21,1,.09.29.44.62.1.85-.59-.3-.17-1.4-1.19-1.15-.4.23-1-.38-1.34.16-.22.21.23.83-.27.77-.48-.87-1.75-1.21-2.68-1.71-.54-.37.3-1.09-.57-1.17-.36.11-.47.68-1,.55-.52-1.73-.39-4.27-2.06-5.8a1.82,1.82,0,0,1,.94-1.47c1.75-.33,1.34-2.69,2.76-3.66.7-.39.72.78,1.43.57a7.34,7.34,0,0,0,0-1c.32.15.49,1,1.13.67a4.48,4.48,0,0,0,1.43-1.41c1.43.08,2.13,3.38,3.6,1.17-.07.5-.7.89-.46,1.35.55.49,2-1,2,.44-.16.21-.32.47,0,.62a.53.53,0,0,0,.54.11c-.3-.71.36-1.26.15-1.95.19.07.44.39.71.42.53.52.71-.51,1.26-.24.31-.35.05-.94.13-1.39-.43-.28-.38-.8-.84-1-.27-.4.43-.25.49-.5.58.76.92,1.84,1.81,2.31.35-.52.44.49.74-.08v-.52a.3.3,0,0,0,.47,0,4.86,4.86,0,0,0,0-1.08c.18.1.39.39.68.29l.29-.63a2.07,2.07,0,0,0,.58,1.7c.3,0,.22-.54.35-.52s-.1.48,0,.61a3.08,3.08,0,0,0,1.66-1.65c-.09.22.2.07.29.14a15.54,15.54,0,0,0-1.07,2.22c.52.05-.37.77.47.88C499.89,221.73,499.8,221.3,500.11,221.42ZM493,224.49a1.6,1.6,0,0,0-.9-.33,1.56,1.56,0,0,1-.81.91c-.28.71.69,1.09.8,1.51a.48.48,0,0,1,0,.12A12.53,12.53,0,0,0,493,224.49Zm17.33,10.12c-.71.62.59.68.44,1.38.43.22,1.08,0,1.61,0,.67-.65,1.27-1.15,1-2.13-.52.12-.48-.52-.66-.78-.35.1-.58-.1-.86-.2a1.71,1.71,0,0,0-1.3.53C510.34,233.78,509.63,234.35,510.28,234.61Zm-17.83-15c.11-.32-.3-.37-.46-.2S492.35,219.93,492.45,219.65Zm27.85,29.43c.14,0,.24.26.37.06-.34-.15-.84-.22-.92-.61.64-.73.12-1,1-1.55,0-.3-.33-.34-.42-.58s.16-.42.41-.36c.23-.37-.46-.82-.49-1.26,0-.17.14-.4,0-.58-.27.07-.55.39-.82.11s-.38-.69-.54-1.1l-.59.21c-.26-.07-.16-.35-.36-.48-.25.1-.52.17-.76.27-.42-.11-.5-.44-.63-.81a6.17,6.17,0,0,1-2.58,1c-.87,1.41-2.37,1.81-3.42,3.06l.25.79c-.2.34-.73.24-1,.42,0,.58.6-.09.67.48-.1.64-.77,1-1,1.44a1.23,1.23,0,0,0,.79-.13,2.7,2.7,0,0,1,.35,1.25.89.89,0,0,0-.48.61c.35.36.93-.59,1.09.29.36.41-.38.54-.19.92.35.31.4-.22.71-.21.56.24,0,.77.18,1.09.24,0,.31-.3.44-.44,1,0-.06.88.62,1.06a20.38,20.38,0,0,0,3.13-.56c.94.05.74,1.58,1.72,1.82.7-.26-.31-.59-.1-1.07a6.68,6.68,0,0,1,3-4.08l1.85.91s.11-.42.31-.35C522.05,250,521,249.83,520.3,249.08Zm-33.09-31.61a.55.55,0,0,0,.48.27C487.7,217.49,487.36,217.3,487.21,217.47Zm23.32,27.1c.72-.4.07-1,.48-1.54-.31-.18.13-.62-.32-.75.19-.82-1-.19-.78-1-.32.18-.7.26-.87-.14-.13.5-.64.32-1,.29-.21.07-.05.41-.18.56a1,1,0,0,1-.73.24c.72.48-.37.66,0,1.27.08,1.26,1.32,1.27,2,1.72C509.48,244.48,510.14,245.37,510.53,244.57Zm-13,.45c.25-.1.2-.45,0-.64a.41.41,0,0,0-.59.26C496.88,245,497.29,245,497.54,245Zm-9.73,3.82a1.92,1.92,0,0,0,1.5.65c.42.52-.45,1.1.1,1.54.23.15.85-.09,1,.37-.28.68.3,1.14.39,1.8.45.08.26-.76.78-.77.22-.07.26.12.27.29.59.68.65-.62,1.12-.63.31.12.17.57.35.84-.24-1.67,1.49-.4,2.2-1a2.91,2.91,0,0,1,.09-1.28c.16-.42.6-.09.81-.16-.17-.1-.27-.34-.44-.49.25-.41.75.14.91-.34.27-1.06-.92-2-.24-2.91a1.12,1.12,0,0,0-.18-1.09c-1.43,0-2.45-1.27-3.43-1.87-.29.15-.1.47-.23.67-.45.34-.35-.36-.76-.31-.65.16-1.4.53-2,.32-.27.19.21.29.19.49.06.41-.47.36-.56.64-.38.55-.65-.15-1.05,0-.07.25.23.26.4.36-.86.27,0,1.6-1.09,1.83C488,248.08,488.48,248.66,487.81,248.84Zm14.64-11.26c-.34.27-.29.68-.29,1s.46.36.31.64c.35-.21.54.21.89.11a1.08,1.08,0,0,0,.81-.8c-.08-.32,0-.71-.32-1S502.88,237.44,502.45,237.58Zm-35.18-8.2.09-.13c0-.22-.17-.29-.35-.3S467.39,229,467.27,229.38Zm-.21,7.33c.59.21,1.38-.23,2.07-.25.76-1,1.46-1.7.94-2.91-.65.23-.7-.6-1-.91-.43.19-.77,0-1.15-.11a2.22,2.22,0,0,0-1.58.88c-.16.51-1,1.36-.1,1.59C465.45,235.92,467.14,235.78,467.06,236.71Zm9.55-44.36,0,.1c.11.13.24.05.33-.06S476.75,192.58,476.61,192.35Zm19.58-3c.16.26.38.5.72.32s-.05-.29-.11-.47-.43-.41-.7-.14Zm-8.79-11.48c.27.5-.39.5-.43.9-.47,0-.72-.6-1.2-.76-.32.87-.4,2.13-.7,3.23,0,.4.29.69.47,1-.58.68-1.52.23-2.22.75a1,1,0,0,0-.42.82c1.09,1.15,2.46-.47,3.45.75a4,4,0,0,0,.5,3.11c.87.7-.35,1.27-.63,1.89-.2.37.25.7.19,1,.89-1.16,1.93-2.63,3.28-3,.25-.19-.15-.34-.08-.52.51-.62.64.47.95.07a13.69,13.69,0,0,1,1.25,2c.11,0,.13-.35.27-.16a2.92,2.92,0,0,1-.5-2.18c.18-.05.41.19.51.28.08-.11-.36-.28-.24-.55a1.94,1.94,0,0,1,1.67.39l-.36-.55c.06-.29.4-.32.57-.41a4.21,4.21,0,0,1-.86-.55c-.07-.21.05-.33.23-.38l-.42-.26c-.32-.53.55-.09.31-.64.82-.48,1.87-.21,2.78-.29-.17-.18.3-.67-.16-.65-.38.27-.78,0-1.22.17-.32-.29-.93-.38-1.06-.8.49-.31-.25-1,.44-1.14.17-.21.54-.24.7-.37-.76-.2-.8-1.23-1.85-1.11l-.28-.81c0-.35.45-.71.36-1-.83.6-.93,1.79-1.88,2.12-.84-.84-1.21-2-2.08-2.79a.81.81,0,0,1,.22-.3c-.11-.12,0-.8-.41-.58-.91-.34.2,1-.19,1.42C488.08,177.86,487.65,177.6,487.4,177.91Zm-13.53,11.26c-.15-.88-.85.14-1.34-.33-.39.23-.51.89-.81,1.29.18.88.29,1.62,1.22,1.88.17-.47.66-.12,1-.13.09-.34.37-.43.59-.61a1.62,1.62,0,0,0,.23-1.31C474.52,189.64,474.41,188.78,473.87,189.17ZM495.38,182c-.1-.32-.57.05-.38.27S495.44,182.24,495.38,182Zm4-2.87a.51.51,0,0,0-.46.25C499.13,179.55,499.47,179.37,499.4,179.16Zm-30.27,4.3a.93.93,0,0,1,.18-.71c-.75.34-.35-.63-1-.67-1.07-.57-1.7.43-2.39.72.38.74-.68.82-.23,1.54,0,.79.79.58,1,1.17.3-.17.43.41.77.12.56.57.67-.74,1.2-.13,0-.35.14-.7.55-.63-.34-.36.07-.68.29-1C469.55,183.68,469.19,183.64,469.13,183.46Zm6.29-2.13c0-.41-.4-.57-.69-.76s-.52.2-.68-.07c0,.39-.44.33-.54.67a1,1,0,0,0,.24,1.05c.3.11.58.37,1,.25S475.32,181.75,475.42,181.33Zm.12,44.52a.63.63,0,0,0,1,.31c.45-.36-.09-.72-.32-1.07C475.81,225,475.49,225.42,475.54,225.85Zm-11.17.83c-.63-.11-.41-.82-.93-1.06a1.66,1.66,0,0,0-1.78.09c-.25.46-.76.83-.68,1.5-.08.87,1,1.17,1.66,1.46.68,0,1.05-.49,1.43-.91S463.9,226.86,464.37,226.68Zm-9.72-47.85.12.06c.2,0,.24-.18.22-.34S455,178.89,454.65,178.83ZM469,158.65c0-.38-.3-.2-.5-.3-.2.1-.73.05-.7.51l.32.16C468.48,159.09,468.88,159.09,469,158.65Zm-17,22.19c-.22-.36-.06-.68,0-1a2,2,0,0,0-1-1.28c-.46-.08-1.31-.69-1.4.11-.91-.6-.58.87-1.4.91-.12.55.37,1.19.47,1.79.93.56,1.68,1.07,2.68.46C451.05,181.27,451.78,181.12,452,180.84Zm8.84-26.59c.38,0,.32-.44.08-.56S460.51,154.23,460.85,154.25Zm-18.66,18.14a1.21,1.21,0,0,0,1.13.65c.34-.18.8-.2,1-.65.39-.5-.15-1.12-.44-1.56s-.84-.12-1.24,0-.26.62-.62.54C442.38,171.68,442,172,442.19,172.39ZM469.14,134h.13c.17-.06.15-.23.09-.37S469.44,134,469.14,134Zm5.69-21.77.33,0c.35,0,.71-.17.68-.6s-.33-.08-.54-.11C475.15,111.73,474.67,111.84,474.83,112.25Zm-7.74,25.42c-.42-.39.18-.74.31-1.07-.31-.25-.27-.58-.36-.89a1.83,1.83,0,0,0-1.25-.85c-.44.07-1.38-.22-1.22.52-1-.25-.25,1-1,1.24.06.52.69.94,1,1.45C465.56,138.28,466.38,138.52,467.09,137.67Zm9-33.6c.07-.15-.41,0-.36-.39l-.06.15C475.65,104.07,475.87,104.11,476.06,104.07Zm24.43,14.31-.17.4c-.07.44,0,.92.5,1s.22-.38.33-.63C501,119,501.05,118.32,500.49,118.38Zm3.47-8c-.08-.63-.68-1.3-.42-1.89.83.12.63-1.32,1.56-.87.38-.06.83.25,1.13.26-.66-.94.27-2.13-1-3l.45-1.16c.34-.39,1.17-.38,1.34-.78-1.49-.11-2.73,1.12-4.09.59-.15-1.72.49-3.33.3-5.06a1.33,1.33,0,0,1,.53-.13c0-.24.7-.93.09-1-.7-1.25-.75,1.32-1.55,1.39-.17-.43-.4-1.12-1-1-.17.81-.91.19-1.32.6-.51-.45-.25-1.34-.62-2-1.18.67-2.46,2-3.82,3-.41.41-.33,1-.44,1.57-1.28.22-1.91-1.18-3.18-1.26a1.42,1.42,0,0,0-1.23.53c.1,1.73,1.85,1.87,2.69,2.81a1.56,1.56,0,0,0-1.13-.24,3.89,3.89,0,0,1-.73,1.55c-.41.45-.79-.18-1.1-.2.17.21.17.56.32.84-.51.38-.87-.55-1.31,0-.85,1.19.18,2.95-1.12,3.74a1.51,1.51,0,0,0-.31,1.44,3.66,3.66,0,0,1,.52.28,1.18,1.18,0,0,1-.29.67l.9-.2a22.34,22.34,0,0,1,2.23,3.27c.44,0,.37-.54.62-.73.72-.2.26.62.8.76.89.13,2,0,2.64.57.42-.1-.12-.46,0-.7a.42.42,0,0,1,.38-.33c-.05.25-.09.51-.12.76.15.06.47-.27.44.07a2.38,2.38,0,0,1,.16-.92.34.34,0,0,0,.16-.1c.74-.5.73.5,1.29.57.2-.29-.17-.45-.34-.65.85,0,.91-.92,1.36-1.44a2.91,2.91,0,0,1,.91,1.6l.11-1c.35-.26.76,0,1,.09a5.89,5.89,0,0,1-.44-1.43c.12-.3.37-.31.61-.2l-.23-.69c.15-.88.71.42.95-.42,1.37.24,2.29,1.53,3.38,2.29,0-.36,1-.47.43-.87C504.81,111.28,504.65,110.56,504,110.38Zm2.37-.57c.19-.45-.68-.47-.68-.06S506.2,110.11,506.33,109.81Zm7.19.58a.76.76,0,0,0-.76-.15C512.85,110.57,513.39,110.69,513.52,110.39ZM471.06,86.74c.49.09.1.87.75.86.09,1.16,1.45-.2,1.46,1,.35-.38.82-.65,1.21-.18,0-.73.71-.7,1.24-.82.25-.19-.11-.58,0-.83a1.32,1.32,0,0,1,.86-.63c-1.15-.32.21-1-.5-1.69-.65-1.64-2.29-1.11-3.33-1.44-.27,1.17-1.54.27-1.71,1.5C470.26,85.33,471.38,85.87,471.06,86.74Zm17-8.4c-.28.23-.06.68.29.83a.55.55,0,0,0,.67-.59C488.92,78.07,488.4,78.32,488,78.34Zm.41-2.72a1.56,1.56,0,0,0,.7,1.37c1.91-.59,3.8.64,5.35,1,.32-.33-.06-.68,0-1,.45-.63.62.33,1.14.09.8-.48,1.63-1.3,2.5-1.28.27-.35-.4-.29-.46-.56-.25-.52.47-.68.47-1.09.27-.89.92-.07,1.41-.39,0-.36-.43-.25-.7-.3,1-.74-.67-2.12.67-2.9-.19-.38-1.07-.94-.25-1.47A2.67,2.67,0,0,0,497,68.9c-.78-.52.13-1.66-.79-2-.37-.1-1.09.48-1.5-.06.08-1-.88-1.38-1.29-2.21-.63.08,0,1.12-.7,1.35-.26.18-.39,0-.48-.27-1.08-.64-.59,1.1-1.21,1.31-.46,0-.47-.68-.83-1,1,2.1-1.8,1.17-2.5,2.22a4,4,0,0,1,.44,1.72c0,.64-.76.38-1,.57.27.06.51.33.81.46-.16.64-1.06.14-1.07.84C487,73.4,489,74.14,488.45,75.62Zm-6.35,13.6-.42.27.45-.38a1.27,1.27,0,0,1,.63-.8.58.58,0,0,1,.37-.1c2.36-2.17,3.78-3.88,4.26-3.11s-1.19,1.71-3.41,3c-.07.43.6.37.69.71s.4,1,.06,1.5c-.51.36-1.23,1.06-1.86.61-.54-.24-.6-.79-.84-1.19A2.41,2.41,0,0,1,482.1,89.22ZM484,88.09l-.28.16A.43.43,0,0,0,484,88.09Zm-22.38,33.7c-.13.19,0,.35.17.44.14-.07-.3-.25,0-.51Zm9.63,27c0-.26.45-.71,0-1l-.37.19c-.33.28-.6.66-.27,1.07S471,148.89,471.21,148.77Zm10-6.2c.32.18.47.69.68.87.08-1.09,1.5-1.41,1.06-2.83l1-.59c.49-.08,1.1.43,1.47.24-1-1-2.71-.83-3.4-2.06.94-1.36,2.4-2.17,3.31-3.58a1.15,1.15,0,0,1,.47.23c.14-.19,1.09-.27.69-.71.24-1.35-1.37.53-2,.09.13-.42.38-1.07-.11-1.35-.62.5-.8-.41-1.36-.35-.1-.65.64-1.15.75-1.85-1.28-.22-3.05,0-4.64-.13-.56,0-.88.57-1.29.9-1.08-.62-.7-2-1.6-2.87a1.34,1.34,0,0,0-1.24-.36c-1.3,1.79,1.28,3.27-.15,4.94a5.61,5.61,0,0,0-4.15,1.5c-.75,1.38-1.84-.17-2.77-.39-.57-.18-.91.52-1.37.53,1.83.93,4.12,2,5,3.74.33.29.44-.29.69-.25,1,.55-.47,1,.16,1.33a19.94,19.94,0,0,1-2.42,2.24c.07.14.51.09.28.33a4.06,4.06,0,0,1,2.88-1.25c.12.23-.16.61-.25.77.16.09.3-.56.69-.47a2.71,2.71,0,0,1-.11,2.4l.67-.64c.42,0,.54.48.71.69a6.28,6.28,0,0,1,.54-1.33c.28-.15.47,0,.59.22l.24-.65c.65-.57.27.74,1,.26.88,1,.78,2.54,1.12,3.77.21-.29,1,.24.86-.39-.47-.46-.16-1.09-.56-1.65.32-.51.29-1.37.84-1.66C480.06,142.86,480.79,141.66,481.2,142.57Zm-.89,1.92c-.3.33.19.6.47.46S480.56,144.18,480.31,144.49Zm5.47,5.27a.77.77,0,0,0-.48-.58C485.17,149.48,485.5,149.9,485.78,149.76Zm1.14-38.62c.25-.42-.29-.56-.57-.76-.35,0-.46.47-.29.79A.53.53,0,0,0,486.92,111.14Zm-12.07,5.43c.2.72,1.15.64,1.76.68.55-.17.69-.71.87-1.15s-.41-.67-.08-1c-.54.1-.57-.52-1.06-.56a1.43,1.43,0,0,0-1.39.59C474.89,115.62,474.59,116.06,474.85,116.57ZM457.64,169c.46-.26.61-1,1-1.47-.19-1-.3-1.87-1.36-2.19-.21.54-.77.12-1.12.13-.12.38-.45.47-.7.68a1.88,1.88,0,0,0-.3,1.5c.24.38.34,1.37,1,.93C456.25,169.6,457.08,168.44,457.64,169Zm22.05,5.13c.17-.8-.73-.06-1-.55-1.25-1.61-2.12-3.15-2-5.19l1.94-1.15s-.32-.36-.13-.5c-.93.26-1.66.88-2.51,1.19l.09-.12c0-.31-.34,0-.49-.09-.36-.16-.05-.56-.23-.78-.25-.58.45-.44.57-.83-.18-.18-.34.06-.5.15.21-.84-1.29-.81-.93-1.81-.27-.12-1,0-.78-.66a1.81,1.81,0,0,0-1.29.89c-.63.07-.66-.93-1.29-.7-.24.11-.37.73-.82.63-.41-.57-1.07-.33-1.65-.59-.29.32.49.59.23,1-.06.21-.23.15-.37.07-.85.14.17.84-.06,1.22-.25.19-.55-.14-.85-.13,1,.42.47.9.05,1.42a2.61,2.61,0,0,1-.63-.11,6.82,6.82,0,0,1-.59,3c.77,1.66.24,3.27.76,5l.86.25c.2.38-.21.81-.21,1.16.54.34.28-.61.85-.32.53.48.44,1.3.72,1.8a1.46,1.46,0,0,0,.35-.81,3.21,3.21,0,0,1,1.36.42,1,1,0,0,0,.27.82c.55-.11,0-1.21.92-.83.6-.08.28.67.74.72.49-.13,0-.49.22-.77.57-.38.71.47,1.12.49.1-.25-.09-.46-.14-.67.54-.9.78.58,1.35.07a21.79,21.79,0,0,0,1.37-3.22C477.59,173.78,478.88,174.89,479.69,174.13Zm-14.28.22c.07-.91-.89-.69-1.13-1.37-.35.18-.49-.49-.88-.16-.63-.67-.79.84-1.39.12,0,.4-.18.8-.65.71.39.43-.09.78-.35,1.12-.07.24.35.3.4.51a1,1,0,0,1-.22.81c.88-.37.39.74,1.15.79,1.22.69,2-.45,2.77-.76C464.69,175.26,465.91,175.19,465.41,174.35Zm-9.73,4.21c0-.45.52-.37.64-.76a1.17,1.17,0,0,0-.25-1.21c-.35-.13-.66-.44-1.11-.32-.61,0-.71.82-.84,1.3,0,.47.45.67.78.89S455.51,178.25,455.68,178.56Zm-57.43-45.78c.07.35.57.37.86.13a.56.56,0,0,0-.21-.87C398.42,131.88,398.4,132.45,398.25,132.78Zm21.67-73.07.1-.13c.06-.25-.15-.35-.35-.37S420.08,59.33,419.92,59.71ZM399.16,38l.28-.35c.2-.42.31-.92-.2-1.18s-.33.31-.51.53C398.8,37.28,398.58,37.9,399.16,38Zm-6.59,14.21c-.33,1.76-1.43,3.2-1.72,5a1.38,1.38,0,0,1-.57,0c0,.25-1,.75-.37,1,.35,1.44,1.12-1.13,1.94-1,0,.48.09,1.24.7,1.29.4-.76,1,.06,1.5-.23.38.6-.13,1.41.06,2.16,1.37-.35,3-1.32,4.66-1.89.53-.3.62-.95.89-1.46,1.34.14,1.59,1.72,2.84,2.15a1.43,1.43,0,0,0,1.38-.19c.52-2.34-2.69-2.68-2-5a6.14,6.14,0,0,0,3.47-3.29c.14-1.7,1.9-.64,2.92-.83.63-.07.67-.91,1.13-1.12-2.22-.13-5-.17-6.62-1.52-.46-.15-.31.48-.59.55-1.21-.12,0-1.21-.73-1.25a23.39,23.39,0,0,1,1.42-3.28c-.13-.11-.54.14-.42-.2a4.43,4.43,0,0,1-2.31,2.49c-.22-.18-.11-.67-.09-.87-.2,0-.05.68-.48.77a3,3,0,0,1-.93-2.43l-.39.92c-.42.17-.75-.24-1-.37a6.82,6.82,0,0,1,0,1.56.44.44,0,0,1-.68,0l0,.75c-.39.85-.59-.62-1.07.16-1.31-.63-1.87-2.18-2.74-3.25-.09.37-1.11.2-.69.76.67.25.63,1,1.27,1.39-.09.65.32,1.49-.11,2-.8-.36-1,1.14-1.8.42-.4,0-.77-.48-1.06-.57.4,1.13-.87,2.06.18,3.27l-.78,1c-.45.29-1.27,0-1.56.4C389.76,52.18,391.35,51.29,392.57,52.21Zm25.7,13.65c-1,.94.9,1,.73,2,.63.29,1.55-.12,2.32-.08.94-1,1.78-1.75,1.32-3.15-.75.2-.72-.73-1-1.1-.5.17-.85-.11-1.27-.23a2.47,2.47,0,0,0-1.84.84C418.31,64.65,417.32,65.52,418.27,65.86ZM391.56,45.21c.16-.45-.45-.51-.67-.25S391.44,45.63,391.56,45.21Zm-7-2.48c0-.36-.5-.63-.72-.36A.8.8,0,0,0,384.56,42.73Zm15,38.45c-.07.52.53.42.89.5.35-.15.26-.66-.05-.91A.58.58,0,0,0,399.53,81.18Zm9-8a1.58,1.58,0,0,0,1.12-1.2c-.13-.47,0-1-.51-1.43-.51-.63-1.42-.13-2,.09-.48.41-.38,1-.36,1.52s.69.49.49.91C407.72,72.72,408,73.33,408.53,73.16ZM292.65,46.6l.16-.29c.09-.34.11-.72-.3-.85s-.2.28-.3.46C292.29,46.12,292.22,46.6,292.65,46.6ZM282.54,52c0-.27-.46-.4-.58-.18A.6.6,0,0,0,282.54,52ZM256.83,63.48l-.08-.09c-.16-.06-.25.07-.28.21S256.59,63.33,256.83,63.48ZM239.13,75.4c.2,0,.6.2.73-.18l-.21-.23c-.27-.18-.59-.31-.82,0S239,75.26,239.13,75.4ZM242.51,80c.24.1,0,.77.44.55.24-.43.75-.32,1.08-.71.43.13,1-.06,1.35.29-.33.5.67.81.1,1.27-.07.27-.41.47-.5.66.8-.15,1.3.81,2.24.23l.62.64c.15.33-.1.87.11,1.1.51-.93.08-2.11.84-2.84,1.15.42,2,1.32,3.2,1.71a1,1,0,0,1-.08.38c.17.07.4.74.64.37,1-.08-.64-.89-.44-1.43.33,0,.85.08.95-.33-.48-.35.15-.65,0-1,.45-.2.95.24,1.47.19-.08-1-.56-2.2-.77-3.37-.15-.39-.58-.52-.9-.76.24-.89,1.34-.89,1.77-1.69a1,1,0,0,0,0-1c-1.53-.6-2.11,1.53-3.58.82a4.23,4.23,0,0,0-1.86-2.71c-1.14-.28-.23-1.35-.25-2.07,0-.44-.54-.55-.63-.89-.33,1.5-.65,3.35-1.75,4.33-.15.3.29.26.31.46-.21.81-.82-.16-.93.36a15.35,15.35,0,0,1-2.07-1.32c-.09.08,0,.39-.18.26a3.06,3.06,0,0,1,1.44,1.84c-.15.13-.47,0-.6,0,0,.13.46.1.47.41a2.07,2.07,0,0,1-1.75.37l.58.36c.07.31-.24.48-.36.64a4.52,4.52,0,0,1,1.06.14c.16.17.09.33-.05.46l.52.06c.53.36-.49.33,0,.74C244.44,79.34,243.33,79.55,242.51,80Zm18.32-14.77c.53.77.74-.51,1.41-.28.27-.4.09-1.07.2-1.58-.57-.75-1-1.4-2-1.24.06.53-.57.41-.85.56.06.36-.17.57-.29.84a1.68,1.68,0,0,0,.36,1.34C260,65.11,260.49,65.87,260.83,65.26Zm-16.9,15.89c-.29-.15-.4.26-.24.43S244.2,81.28,243.93,81.15Zm-2.44,4.48c-.24,0-.48.28-.33.45A.54.54,0,0,0,241.49,85.63ZM267.31,68.3c0,.22.4.11.53.25a.91.91,0,0,1,.15.75c.56-.66.61.44,1.26.18,1.26.06,1.41-1.16,1.93-1.74-.68-.53.28-1.08-.46-1.56-.32-.76-1-.19-1.48-.66-.21.29-.59-.19-.78.23-.78-.28-.3,1-1.08.66.15.34.18.72-.24.84C267.63,67.44,267.38,67.92,267.31,68.3ZM269,79a.39.39,0,0,0,.18.61c.35.11.35-.31.44-.55S269.21,78.84,269,79Zm-5.17-5.25c.25,0,.41-.42.67-.24-.17-.37.28-.51.22-.87a1.09,1.09,0,0,0-.7-.89c-.33,0-.71-.09-1,.19-.49.28-.25,1-.16,1.4S263.49,73.72,263.84,73.77Zm-33.86,3,.37-.19c.32-.29.6-.67.26-1.08s-.39.14-.62.26C229.94,76.07,229.53,76.52,230,76.82Zm-14.16-1.41c.13-.3-.2-.72-.48-.58A.75.75,0,0,0,215.82,75.41ZM169.36,67c-1,.94-1.62-.7-2.55.34-1.26.31-.54,1.52-1.38,2.14.4.4-.45.88.17,1.27-.64,1.15,1.49.71.76,1.84.56-.14,1.17-.1,1.25.57.42-.7,1.11-.2,1.68,0,.36,0,.26-.61.52-.78a1.53,1.53,0,0,1,1.2,0c-.89-1,.84-.84.58-1.91C172,68.51,170.13,68,169.36,67ZM201,68.54l.12,0c.19,0,.18-.21.13-.36S201.35,68.53,201,68.54Zm8.34-21.08c.35,0,.72-.09.73-.52s-.32-.12-.52-.17c-.17.14-.66.19-.54.62Zm-15.77,1.2c-.31.19-.81.47-.65.9.65,0,.27.67.65.94-.29.46-1,.37-1.45.75.68.81,1.88,1.63,2.8,2.55.37.26.85.11,1.28.13.34,1-.66,1.63-.54,2.62a1.08,1.08,0,0,0,.57.88c1.76-.4,1-2.7,2.73-3a4.58,4.58,0,0,0,3.36,1.29c1.2-.46,1,1.08,1.51,1.72.25.41.84.15,1.13.4-.63-1.55-1.5-3.42-1.12-5,0-.36-.42-.06-.56-.22-.32-.87.83-.37.61-.91a15.92,15.92,0,0,1,2.69-.09c0-.13-.27-.33,0-.35a3.36,3.36,0,0,1-2.44-.77c0-.2.42-.29.56-.34-.05-.14-.48.19-.68-.08a2.21,2.21,0,0,1,1.35-1.42l-.76,0c-.24-.24-.07-.59-.06-.81a5.23,5.23,0,0,1-1.05.54c-.25-.06-.29-.25-.24-.45l-.5.27c-.71,0,.23-.6-.46-.68,0-1.09.87-2,1.32-2.92-.28.07-.49-.68-.74-.22.05.54-.48.76-.53,1.32-.47.15-.91.7-1.41.58,0-.66-1.1-.31-.87-1.09-.11-.28.07-.68,0-.9-.63.63-1.68.07-2.16,1.18l-1-.19c-.34-.21-.45-.85-.78-.93.12,1.17,1.24,2,1,3.09-1.3.34-2.64.06-3.95.45a1,1,0,0,1-.17-.39c-.19,0-.82-.42-.81.07C191.45,48.36,193.45,48.06,193.61,48.66Zm8.07-4.09c.36,0,.2-.48-.05-.54S201.36,44.62,201.68,44.57Zm-.58-6.17a.6.6,0,0,0,0,.61C201.33,38.89,201.35,38.46,201.1,38.4ZM185.43,73.63c.95.05.43,1.15,1.4,1.12.75.49,1-.45,1.74-.33,0-.39.65-.19.56-.69.88-.23-.35-1.09.56-1.26a.79.79,0,0,1-.42-.56c1.67.89,2.58,2.82,3.65,4,.51-.11.36-.67.64-.93.81-.31.38.7,1,.8,1,0,2.34-.22,3.15.35.48-.16-.2-.53-.09-.81.09-.65.87-.35,1.13-.74.8-.67.9.5,1.57.51.2-.35-.25-.49-.47-.72,1.42,0,.69-2.41,2.43-2.31.06-.47-.42-1.54.68-1.53a3,3,0,0,0-2-1.62c-.42-1,1.15-1.48.5-2.36-.29-.33-1.32-.24-1.38-1,.72-.91,0-1.85.17-2.88-.65-.31-.71,1-1.51.83-.35,0-.33-.29-.28-.55-.61-1.27-1.24.67-1.95.47-.42-.3,0-.93-.19-1.4-.33,2.62-2.42,0-3.73.53a4.51,4.51,0,0,1-.67,1.89c-.43.57-.95-.11-1.3-.1.22.23.26.63.46.94-.42.39-.83-.13-1.2-.1a.79.79,0,0,0,.28-.43c.26-.55-.37-1-.72-1.35s-.81.07-1.15.25-.11.63-.46.63c.38.22.07.63.35.91a1.15,1.15,0,0,0,1.17.37l.19-.13c-.81,1.49.56,3.41-.85,4.47a2,2,0,0,0-.31.8c-.15,0-.31.18-.46.14-.33-.08-.47-.37-.6-.58-.09.94-.82,0-1.24.62C184.92,71.58,185.55,72.78,185.43,73.63ZM180.38,62.1a.44.44,0,0,0-.55-.44c-.38.13-.12.5-.06.77C180,62.62,180.31,62.39,180.38,62.1Zm-91.2-30-.19,0c-.27.08-.25.33-.17.54C89,32.63,88.72,32.13,89.18,32.09ZM78.08,64.61c.23-.21,1-.33.75-.94l-.49-.09c-.52,0-1,.18-1,.82S77.77,64.55,78.08,64.61Zm4-6.85a4.91,4.91,0,0,1,3.63,1c-.06.31-.59.46-.8.55.09.21.7-.31,1,.06a3.28,3.28,0,0,1-1.88,2.19l1.1-.11c.38.33.16.86.16,1.17a7.48,7.48,0,0,1,1.5-.85c.37.07.44.34.38.64l.72-.43c1-.06-.3.9.71,1,.07,1.61-1.15,3-1.74,4.38.41-.12.77,1,1.1.27-.11-.78.66-1.14.69-2,.69-.25,1.29-1.09,2-1,.07,1,1.64.38,1.36,1.53.17.42-.07,1,0,1.34.89-1,2.46-.23,3.1-1.88l1.42.21c.52.29.72,1.22,1.21,1.31-.24-1.7-1.94-2.79-1.68-4.46,1.89-.59,3.87-.27,5.77-.92a1.55,1.55,0,0,1,.28.56c.27-.08,1.23.55,1.17-.16,1.23-1.09-1.68-.51-2-1.39.44-.3,1.16-.73.9-1.35-1,0-.45-1-1-1.34.38-.69,1.45-.61,2.07-1.19-1-1.16-2.87-2.27-4.27-3.56-.57-.37-1.25-.11-1.89-.11-.56-1.38.85-2.44.62-3.89a1.6,1.6,0,0,0-.9-1.25c-2.56.71-1.22,4-3.8,4.54a6.73,6.73,0,0,0-5-1.66c-1.74.74-1.62-1.52-2.34-2.42-.39-.59-1.24-.18-1.68-.52,1,2.24,2.42,4.92,2,7.25.09.53.62.06.83.29.52,1.24-1.2.59-.83,1.36a24.3,24.3,0,0,1-4,.32C82.07,57.43,82.52,57.71,82.13,57.76Zm10.29-28a2.73,2.73,0,0,0,1.77,1.36c.65-.07,2,.45,1.85-.67,1.43.47.45-1.37,1.54-1.73,0-.77-.93-1.46-1.29-2.22-1.45-.41-2.64-.83-3.76.35.58.62-.33,1.08-.55,1.55C92.41,28.83,92.32,29.32,92.42,29.79ZM89.93,68.1c.55.11.36-.88-.1-.78S89.57,68,89.93,68.1Zm11-56.51.76.65c.11.41-.35.51-.36.89.33.25.65.57,1,.82.18.68-.2,1.05-.62,1.54a10,10,0,0,1,3.55,2.72c2.66.06,4.42,1.8,7,2.24l.89-1c.63,0,.92.82,1.39,1,.79-.49-.62-.76.12-1.31,1-.39,2,.25,2.82.22a2.14,2.14,0,0,0-.83-1,4.52,4.52,0,0,1,1.44-1.5,1.45,1.45,0,0,0,1.24.17c.21-.78-1.57-.81-.49-1.74.28-.84,1.06.07,1.43-.49.14-.74-.63-.38-.87-.8-.13-1,1.08-.62,1.37-1.14-.26-.3-.67-.19-1-.25-.83-1.31,1.27-.65,1-1.72a30.76,30.76,0,0,0-3.32-3.88c-.69-1.35,1.59-2.31,1.13-3.86-.94-.75-.56.91-1.41,1-2.91.59-5.48.73-8.05-.79L108.88.14c0,.06-.68.19-.74-.14-.32,1.66.26,3.29-.23,4.85-.17-.16.16-.54-.22-.55.08.59.38,1.35-.08,1.77-1.53-.3-1.53.66-3-.13-.42.24-.2.72-.45,1.06-.36.18-.73.11-.84-.29-.7,0-.76,1.31-1.35,1.71-.26.08-.66.13-.79.48.32.32,1,.45.82,1C102,10.65,101.37,11,101,11.59ZM91.08,76.34a.9.9,0,0,0,0-.9C90.71,75.63,90.71,76.27,91.08,76.34ZM111,27.7c1.68-1.14.67-2.86.79-4.11-1.4,0-.7-1.66-2.12-1.55-1.14-.67-1.48.73-2.53.59,0,.57-1,.32-.78,1.06-1.28.39.59,1.57-.74,1.89.51.29.93.75.51,1.31.8-.23,1,.63,1.23,1.19.27.24.62-.26.93-.21a1.54,1.54,0,0,1,.92.82C109.24,27.3,110.38,28.67,111,27.7Zm9,12.47a.65.65,0,0,0,.84.61c.55-.21.14-.74,0-1.14C120.46,39.39,120,39.74,119.92,40.17Zm2.86,6.66c.45.28.74-.24,1.12-.23.83.35-.21.79.2,1.31.74.78,1.87,1.51,2.06,2.5.46.21.23-.53.51-.67.52-.41.88.36,1.35.26,1.06.08.31,1,.79,1.49.4-.11.17-.54.17-.86,1.08,1,2.22-1.29,3.43,0,.37-.31.78-1.44,1.58-.65a3.07,3.07,0,0,0-.32-2.61c.38-1,1.9-.27,2.05-1.38,0-.45-.81-1.11-.31-1.72,1.18-.15,1.34-1.33,2.17-2-.25-.68-1.26.27-1.7-.45-.27-.24,0-.45.18-.6.46-1.38-1.38-.4-1.77-1-.09-.53.65-.71.86-1.17-2.1,1.69-1.76-1.74-3.12-2.26a4.53,4.53,0,0,1-1.83.92c-.73.12-.62-.75-.89-1,0,.32-.26.65-.33,1-.76,0-.41-1.16-1.2-1-1.69.5-2,2.91-3.83,2.69a1.82,1.82,0,0,0-1.36,1.14C123.73,42.56,122.81,45,122.78,46.83ZM108.25,36.18a1.74,1.74,0,0,0-1.76-.46c-.39.37-1,.57-1.13,1.24-.35.83.61,1.46,1.15,1.94.65.25,1.18-.15,1.68-.44s.11-.93.63-1C108.24,37.2,108.68,36.58,108.25,36.18Zm22,93.47c.11-.36.13-.77-.31-.92s-.22.29-.33.49c.08.21,0,.73.46.74Zm-5.37,7c.06-.38-.43-.35-.57-.12S124.81,137,124.86,136.64Zm-6.51-1.33a.65.65,0,0,0,.62.2C118.92,135.22,118.48,135.07,118.35,135.31ZM62.72,208.2c0,.48.79.22.66-.17S62.74,207.87,62.72,208.2Zm-6.22,1.68c-.2-.29-.75-.23-.77.1A.79.79,0,0,0,56.5,209.88Zm32.74,22.28c.24.45.65.05,1-.09.19-.31-.17-.66-.55-.69A.56.56,0,0,0,89.24,232.16Zm-8.46,8c.14.33.48.09.76.06-.73,1,1.32,1.79.31,3,.3.29,1.31.54.71,1.3a2.59,2.59,0,0,0,2.21-.53c.91.24.42,1.61,1.4,1.64.38,0,.88-.8,1.44-.43.25,1,1.28,1,1.94,1.67.56-.28-.35-1.06.23-1.5.18-.26.38-.08.53.1,1.23.26.21-1.24.73-1.63.44-.13.67.49,1.09.63-1.66-1.66,1.33-1.69,1.64-2.91a3.94,3.94,0,0,1-1-1.49c-.17-.62.59-.61.77-.87-.27,0-.58-.15-.91-.18-.06-.66,1-.47.74-1.14-.59-1.4-2.71-1.46-2.69-3a1.58,1.58,0,0,0-1.11-1.06c-1.62,1.17-3.8.62-5.39.77-.2.41.28.62.31.94-.23.75-.7-.11-1.11.3-.6.71-1.12,1.76-2,2-.14.42.48.14.62.37.41.41-.22.8-.09,1.19C82,240.23,81.14,239.67,80.78,240.13Zm10.14-18.59c.21-.53.78-.21,1.08-.62a1.48,1.48,0,0,0,.24-1.56c-.36-.3-.59-.81-1.19-.85-.74-.23-1.19.66-1.56,1.18-.15.58.25,1,.54,1.4S90.85,221.1,90.92,221.54Zm-69-59.47-.16-.09c-.29,0-.36.23-.34.46S21.44,162,21.89,162.07ZM0,189.3c-.08.54.41.31.69.47.29-.13,1,0,1-.66l-.44-.25C.78,188.72.21,188.69,0,189.3Zm16.81,7,1.31.67c.4.44.29,1.4.73,1.65.32-1.71-1-3.31-.18-4.83,2,0,3.81,1,5.86,1a1.46,1.46,0,0,1,.08.63c.28,0,1,.93,1.18.23,1.54-.66-1.45-1-1.43-2,.52-.14,1.35-.33,1.3-1-.92-.3-.12-1.08-.54-1.62.59-.53,1.59-.11,2.38-.47-.64-1.45-2-3.11-3-4.81-.43-.53-1.17-.51-1.78-.71-.1-1.51,1.6-2.08,1.85-3.54a1.65,1.65,0,0,0-.46-1.5c-2.69-.14-2.48,3.48-5.13,3.15a6.8,6.8,0,0,0-4.29-3.23c-1.91.15-1.06-2-1.46-3.09-.19-.69-1.14-.57-1.45-1,.27,2.49.74,5.52-.45,7.62-.08.53.59.25.71.54.1,1.37-1.34.19-1.24,1A24.42,24.42,0,0,1,7,184c-.09.17.25.58-.14.51A5,5,0,0,1,10,186.58c-.16.27-.72.25-.95.26,0,.23.77-.07.94.39a3.3,3.3,0,0,1-2.51,1.49l1.09.25c.26.44-.13.88-.23,1.19a7.59,7.59,0,0,1,1.72-.34.48.48,0,0,1,.16.74l.83-.18c1,.28-.58.76.37,1.15C11,193.1,9.36,194,8.34,195.18c.42,0,.42,1.18,1,.62.15-.79,1-.89,1.31-1.67.73,0,1.59-.63,2.25-.25-.25,1,1.46.89.81,1.91,0,.46-.39,1-.43,1.28C14.4,196.43,15.68,197.65,16.82,196.26ZM27,162.78c.65.15,1.79,1.09,2,0,1.23.92.88-1.17,2-1.17.2-.75-.43-1.7-.53-2.55-1.26-.86-2.27-1.65-3.73-.87.36.78-.67.93-1,1.31.29.52,0,1,0,1.44A2.78,2.78,0,0,0,27,162.78ZM11.13,196.17c-.54-.08-.49.6-.16.79C11.47,197.24,11.61,196.23,11.13,196.17Zm28.2-46a10.2,10.2,0,0,1,2.53,3.76c2.54.92,3.67,3.17,6,4.42l1.17-.65c.61.2.62,1.08,1,1.45.92-.21-.35-.93.55-1.23,1-.06,1.83.89,2.64,1.13a2.13,2.13,0,0,0-.48-1.21,4.49,4.49,0,0,1,1.87-1,1.43,1.43,0,0,0,1.13.57c.46-.69-1.24-1.28.1-1.84.54-.71,1,.42,1.53,0,.37-.66-.48-.56-.57-1.05.19-1,1.23-.25,1.68-.65-.16-.38-.58-.4-.86-.55-.37-1.53,1.43-.22,1.49-1.35a32.06,32.06,0,0,0-1.94-4.81c-.23-1.51,2.28-1.7,2.33-3.34-.66-1-.83.69-1.67.51-3-.38-5.51-1.08-7.49-3.36l.82-3.25s-.71,0-.67-.38c-.84,1.49-.82,3.25-1.79,4.59-.11-.2.33-.46,0-.59-.11.59-.07,1.41-.65,1.67-1.38-.78-1.68.14-2.81-1.08-.49.09-.43.63-.79.87-.4.06-.73-.13-.7-.55-.67-.23-1.16,1-1.85,1.21-.29,0-.68-.09-.92.21.2.41.81.75.44,1.27s-1,.83-1.56,1.23l.52.87c0,.43-.5.37-.63.74.23.35.44.76.68,1.11C40.38,149.59,39.89,149.82,39.33,150.16ZM9.68,204.39c-.4.06-.6.68-.27.86A.87.87,0,0,0,9.68,204.39Zm32.54-39.13c.52-1.31,1.17.37,2-.38,2-.55,1.58-2.53,2.09-3.69-1.33-.47-.13-1.83-1.53-2.18-.89-1-1.66.23-2.63-.25-.17.56-1,0-1.09.77-1.36,0,.06,1.7-1.33,1.58.41.44.66,1,.07,1.42.85,0,.72.92.8,1.54.19.33.69,0,1,.11A1.6,1.6,0,0,1,42.22,165.26Zm7.64,14.3c-.23-.35-.78-.15-1,.23a.66.66,0,0,0,.61.86C50.06,180.62,49.84,180,49.86,179.56Zm-11-7.38a1.73,1.73,0,0,0-1.54-1c-.49.23-1.14.23-1.49.83-.6.68.12,1.6.49,2.24.54.45,1.18.23,1.75.12.4-.07.41-.86.92-.72C38.58,173.15,39.2,172.7,38.91,172.18Zm5.47,62.6c-.11.13,0,.25.11.33s-.22-.2,0-.38Zm5.67,19.66c-.25.2-.47.46-.24.78s.3-.09.47-.17.37-.49,0-.73ZM56.94,242c-.42,0-.67.38-1,.61-.77-.5-.43-1.53-1.05-2.18a1,1,0,0,0-.9-.32c-1,1.26.8,2.46-.33,3.63a4.15,4.15,0,0,0-3.12.92c-.61,1-1.35-.21-2-.41-.41-.16-.69.35-1,.33,1.3.77,2.94,1.64,3.53,3,.23.24.34-.19.53-.15.7.45-.4.72,0,1a15.14,15.14,0,0,1-1.88,1.54c.05.11.38.09.2.25a3,3,0,0,1,2.17-.79c.08.18-.14.44-.22.56.12.07.25-.4.53-.32a2,2,0,0,1-.18,1.76l.52-.44c.3,0,.37.38.49.54a4.47,4.47,0,0,1,.46-1c.21-.09.34,0,.42.19l.21-.47c.5-.39.16.56.69.24.6.79.46,1.9.66,2.82.16-.2.73.22.65-.25-.33-.36-.07-.81-.34-1.23.26-.37.27-1,.69-1.19.38.46,1-.38,1.23.3.23.15.31.53.46.67.11-.8,1.17-1,.91-2l.79-.4c.36,0,.79.37,1.07.24-.72-.77-2-.73-2.41-1.66.75-1,1.86-1.49,2.59-2.49a1,1,0,0,1,.34.19c.11-.13.81-.15.54-.49.23-1-1,.33-1.48,0,.12-.3.33-.78,0-1-.48.34-.57-.33-1-.32,0-.48.53-.82.63-1.33C59.41,242.08,58.1,242.15,56.94,242ZM44.62,231.9c.36,0,.49.33.7.53a1.68,1.68,0,0,0,1.37.07c.31-.26,1.18-.48.7-1,.89-.26-.25-.85.17-1.41-.29-.38-1-.41-1.43-.67-.87.3-1.62.5-1.77,1.49C44.87,231,44.57,231.59,44.62,231.9ZM57.5,252.66c.31-.14-.13-.57-.33-.36S57.29,252.76,57.5,252.66ZM53.05,213a18.36,18.36,0,0,0-3-.79c-.82-.44,0-1.73-.78-2.35-.74-.05,0,.66-.36,1a6.5,6.5,0,0,1-4.34,2.42l-1.28-1.57s-.28.33-.43.19c.42.95,1.29,1.57,1.59,2.53-.14,0-.11-.33-.3-.2.24.27.66.54.57.92-.88.39-.54.87-1.54,1-.13.26.15.43.14.69s-.33.31-.53.15c-.35.24.08.93-.08,1.33-.1.14-.28.3-.23.53.28,0,.66-.13.78.24s.05.78,0,1.2l.62.07c.2.16,0,.38.12.57.26,0,.54.06.79.07.33.28.27.6.23,1a6.26,6.26,0,0,1,2.75.14c1.36-.9,2.86-.64,4.32-1.33l.11-.8c.32-.23.75.08,1.06,0,.24-.52-.57-.16-.39-.71.35-.53,1.09-.56,1.5-.87a1.32,1.32,0,0,0-.76-.21,2.77,2.77,0,0,1,.19-1.26.9.9,0,0,0,.69-.35c-.17-.47-1.07.14-.86-.71-.15-.52.57-.33.55-.75-.18-.42-.45,0-.71-.1-.41-.45.32-.69.29-1.05-.24-.06-.41.13-.58.21C52.29,213.81,53.58,213.41,53.05,213Zm7.59,43c-.11.21.11.53.32.44A.53.53,0,0,0,60.64,256ZM50.2,224.48c-.51.64.85.59.29,1.21.36,0,.74.06.72.49.32-.4.7,0,1,.17.22,0,.22-.35.4-.43a1,1,0,0,1,.75.08c-.45-.72.6-.43.55-1.12.45-1.17-.66-1.68-1-2.35-.71.48-.94-.6-1.61-.05-.82.07-.49.89-1.08,1.19C50.43,224,49.86,224.17,50.2,224.48ZM62.86,228a.4.4,0,0,0,.64,0c.2-.3-.19-.42-.39-.59C62.86,227.45,62.75,227.79,62.86,228Zm2.76-4.5c-.68.85,0,2.19-1,2.71a1.13,1.13,0,0,0-.29,1.05c1.28.61,1.67,2.16,2.3,3.1.32,0,.29-.38.48-.51.54-.11.17.47.56.59.65.14,1.47.11,1.92.54.31-.05-.07-.35,0-.51.12-.39.58-.13.78-.34.56-.34.51.4.92.47.16-.2-.11-.33-.22-.49.89.11.67-1.43,1.74-1.19.09-.29-.11-1,.58-.89a1.87,1.87,0,0,0-1.08-1.2c-.16-.64.86-.8.55-1.42-.15-.23-.8-.28-.76-.76.54-.49.21-1.14.4-1.77-.37-.25-.55.58-1,.37-.22,0-.18-.22-.12-.37-.25-.85-.84.29-1.26.1-.23-.24.08-.58,0-.9-.47,1.6-1.5-.26-2.37,0a2.82,2.82,0,0,1-.61,1.11c-.32.31-.57-.17-.79-.2.11.16.1.42.19.63C66.19,223.88,66,223.18,65.62,223.54Zm-11.11,7c-.07.33-.3.64-.13,1s.81.52,1.26.58c.42-.11.54-.5.69-.81s-.27-.52,0-.71c-.4,0-.39-.41-.75-.47A1.07,1.07,0,0,0,54.51,230.49Zm69-51.54c.07-.33-.31-.29-.54-.36-.23.09-.19.42,0,.59A.37.37,0,0,0,123.49,179ZM92.28,263.56l0-.19c-.07-.27-.33-.26-.54-.18C91.74,263.37,92.25,263.1,92.28,263.56Zm-32.1-13c-.54.08-.17.48-.24.78.2.24.29,1,.91.79l.11-.49C61,251.15,60.82,250.61,60.18,250.59Zm1.57,8.15a7.08,7.08,0,0,1,.82,1.53c-.09.37-.36.44-.67.37l.42.73c0,1-.89-.33-1,.68-1.62,0-2.94-1.24-4.34-1.88.1.41-1,.74-.31,1.09.79-.08,1.13.71,2,.77.23.69,1,1.33.89,2.06-1,0-.44,1.64-1.59,1.32-.42.16-1-.1-1.34-.05.95.93.15,2.48,1.79,3.18L58.13,270c-.31.51-1.25.68-1.36,1.17,1.72-.19,2.87-1.86,4.53-1.55.54,1.92.16,3.9.75,5.83a1.48,1.48,0,0,1-.57.26c.06.27-.6,1.22.12,1.19,1.06,1.27.57-1.68,1.46-1.93.28.45.7,1.19,1.33.95,0-1,1-.42,1.38-1,.68.41.57,1.48,1.13,2.12,1.2-1,2.37-2.81,3.71-4.18.39-.56.16-1.25.17-1.89,1.41-.53,2.43.93,3.89.74a1.6,1.6,0,0,0,1.29-.87c-.64-2.59-4-1.35-4.45-4a6.79,6.79,0,0,0,1.83-5c-.69-1.77,1.58-1.58,2.51-2.27.6-.38.22-1.24.57-1.68-2.28,1-5,2.28-7.35,1.76-.53.07-.07.63-.31.83-1.27.49-.56-1.22-1.35-.88a24.8,24.8,0,0,1-.2-4c-.18,0-.48.41-.52,0a4.91,4.91,0,0,1-1.07,3.62c-.31-.07-.44-.62-.52-.83-.21.08.29.71-.1,1a3.29,3.29,0,0,1-2.13-2l.07,1.11C62.6,259,62.07,258.75,61.75,258.74Zm-5.7,4.44c-.12.55.88.39.79-.08S56.13,262.81,56.05,263.18Zm-8.31.9a.93.93,0,0,0,.9,0C48.46,263.72,47.82,263.71,47.74,264.08Zm39.13,15.59c-.82-.37-1.48.57-2,1.1-.27.65.12,1.19.39,1.7.18.36.93.14,1,.66.32-.57.92-.11,1.34-.53a1.71,1.71,0,0,0,.52-1.75C87.72,280.45,87.54,279.82,86.87,279.67ZM50.59,275v-.19c-.14-.23-.38-.16-.55,0C50.05,275,50.45,274.61,50.59,275Zm-33.24-3.72c-.47.21,0,.49,0,.79.25.17.53.83,1.06.5l0-.49C18.22,271.63,18,271.16,17.35,271.31ZM32.13,283.5a6.55,6.55,0,0,0,.41-5.12c-1.11-1.47,1.06-1.88,1.74-2.76.46-.51-.12-1.21.1-1.71-1.87,1.49-4.08,3.43-6.38,3.54-.48.21.09.61-.08.86-1.06.78-.84-1-1.48-.47a22.34,22.34,0,0,1-1.22-3.65c-.19,0-.34.51-.48.15a4.81,4.81,0,0,1-.06,3.65c-.3,0-.57-.46-.7-.63-.17.13.46.58.17,1a3.17,3.17,0,0,1-2.49-1.27l.35,1c-.22.44-.77.35-1.07.42a7.41,7.41,0,0,1,1.16,1.22c0,.36-.22.5-.52.51l.57.58c.29,1-.91-.07-.74.89-1.5.44-3.06-.39-4.53-.62.2.35-.74.95,0,1.09.72-.28,1.24.37,2,.2.39.59,1.32,1,1.36,1.7-.9.29,0,1.64-1.13,1.63-.35.26-1,.18-1.26.31,1.12.61.78,2.27,2.5,2.49l.13,1.39c-.16.55-1,1-1,1.44,1.55-.62,2.18-2.48,3.81-2.62,1,1.65,1.16,3.59,2.22,5.23a1.49,1.49,0,0,1-.47.39c.13.24-.24,1.29.42,1.07,1.32.91.09-1.7.86-2.17.38.35,1,.93,1.49.54-.23-.9.81-.65,1-1.27.74.2.92,1.23,1.61,1.68.84-1.26,1.47-3.24,2.36-4.86.21-.62-.18-1.21-.33-1.81,1.17-.85,2.5.24,3.81-.31a1.58,1.58,0,0,0,1-1.15C36,283.79,33.22,285.82,32.13,283.5Zm23.57-1.32c.72-.22,1.15-1.21,1.79-1.73,0-1.46.17-2.69-1.2-3.47-.46.7-1.1-.06-1.59-.16-.28.5-.77.53-1.18.73a2.63,2.63,0,0,0-.87,2c.21.6,0,2,1.05,1.59C53.59,282.59,55.1,281.24,55.7,282.18ZM16.79,284.1c0,.55.92.14.72-.28S16.77,283.74,16.79,284.1Zm-7.5,3a.88.88,0,0,0,.84-.23C9.87,286.58,9.27,286.73,9.29,287.1ZM64.83,292c.36-1.23-1-1.22-1.15-2.25-.54.15-.53-.82-1.18-.49-.66-1.12-1.35.92-2-.26-.15.55-.49,1.06-1.11.79.4.7-.37,1.05-.84,1.44-.17.31.39.52.41.83a1.54,1.54,0,0,1-.56,1.06c1.33-.25.3,1.14,1.35,1.45,1.47,1.32,2.86,0,4.06-.21C63.54,293,65.26,293.3,64.83,292Zm-15.1,14.87c.32.47.72,0,1.08-.24.16-.37-.28-.72-.71-.69A.62.62,0,0,0,49.73,306.85ZM51.16,294a1.67,1.67,0,0,0,0-1.76c-.44-.29-.77-.82-1.44-.78-.85-.14-1.23.91-1.56,1.54-.09.67.42,1.07.81,1.47s.9-.1,1,.38C50.2,294.2,50.88,294.47,51.16,294Zm33.3,82.62-.35.31c-.28.4-.49.89,0,1.26s.4-.27.62-.46C84.7,377.4,85,376.8,84.46,376.59Zm9.15-6.07c-.24.44.38.61.65.38S93.81,370.11,93.61,370.52Zm7.46,4.34a.86.86,0,0,0-.68-.51C100.32,374.72,100.8,375.09,101.07,374.86ZM90.45,387.52l-.06.17c0,.27.28.3.5.24C91,387.76,90.42,388,90.45,387.52Zm29.21,14.34-.16.46c0,.51,0,1.05.65,1.13s.22-.44.32-.73C120.29,402.46,120.28,401.75,119.66,401.86ZM89.83,380.65c.65-1.33-1.27-.63-1.48-1.73-.75-.07-1.53.7-2.33.94-.59,1.35-1.16,2.45-.16,3.7.68-.48,1,.47,1.42.74.45-.36.91-.2,1.38-.24a2.65,2.65,0,0,0,1.56-1.53C90.24,381.89,90.93,380.64,89.83,380.65Zm12.25-22.75c-.29.28,0,.77.4.91a.63.63,0,0,0,.7-.73C103.05,357.52,102.49,357.84,102.08,357.9Zm-1.87-7.17c.25,1.7,2.55,2.36,2.09,4.07a1.77,1.77,0,0,0,.92,1.48c2.09-.83,4.32.38,6.1.67.33-.4-.13-.76-.07-1.12.45-.75.73.31,1.3,0,.85-.61,1.71-1.61,2.7-1.66.27-.42-.48-.29-.57-.59-.33-.56.47-.8.43-1.27.22-1,1-.16,1.55-.57,0-.4-.5-.23-.81-.27,1.09-.92-.94-2.33.5-3.32-.25-.41-1.29-1-.42-1.63a3,3,0,0,0-2.57,0c-.92-.51,0-1.88-1.06-2.18-.43-.08-1.19.63-1.71.07,0-1.16-1.11-1.48-1.64-2.38-.7.15.09,1.26-.67,1.58-.27.23-.44,0-.56-.25-1.27-.63-.57,1.29-1.25,1.57-.52,0-.59-.72-1-1,1.36,2.27-1.92,1.47-2.61,2.72a4.34,4.34,0,0,1,.64,1.9c0,.72-.81.5-1.09.73.31,0,.6.33,1,.45C101.22,350.42,100.15,349.93,100.21,350.73Zm-.79,20.91c.33-.6,0-1.16-.2-1.69-.13-.36-.89-.23-.85-.74-.37.52-.9,0-1.35.38a1.66,1.66,0,0,0-.69,1.64c.3.42.41,1,1,1.26C98.13,372.94,98.87,372.1,99.42,371.64Zm2.83-87.08-.07.09c0,.18.13.23.27.24S102.16,284.83,102.25,284.56Zm.74-3.09c.12-.39.76-1,.09-1.22.63-.69-.67-.6-.6-1.31-.45-.17-1.06.16-1.59.17a2.78,2.78,0,0,0-.88,1.59c-.48-.54-1.47.72-1.71-.46-.3.51-.78.92-1.33.47.21.82-.66,1-1.23,1.2-.26.27.24.64.17.94-.11.49-.55.72-.85.91,1.39.12,0,1.22,1,1.82,1.09,1.73,2.85.77,4.1.93.06-1.41,1.69-.65,1.63-2.08.67-1.08-.56-1.48-.52-2.43.19,0,.36.1.54.13A1.66,1.66,0,0,0,103,281.47Zm-4.74-20.23a20.32,20.32,0,0,0-3,.9c-.94.06-.9-1.48-1.9-1.61-.67.34.37.55.21,1.05A6.65,6.65,0,0,1,91,266l-1.93-.69s-.07.43-.27.38c.86.6,1.94.69,2.7,1.36-.13.05-.27-.23-.37,0,.35.11.86.13,1,.5-.55.8,0,1-.82,1.65,0,.3.36.3.48.53s-.11.44-.37.4c-.18.4.55.77.63,1.2,0,.17-.1.41.07.57.26-.1.51-.45.81-.19s.44.64.65,1l.57-.26c.26,0,.2.32.41.42.23-.12.49-.22.72-.35.43.07.54.38.72.74a6.23,6.23,0,0,1,2.44-1.32c.71-1.5,2.15-2.06,3-3.42l-.33-.75c.16-.36.7-.32.94-.53-.07-.57-.59.16-.71-.4s.64-1.07.84-1.55a1.26,1.26,0,0,0-.77.22,2.71,2.71,0,0,1-.49-1.2.9.9,0,0,0,.41-.66c-.39-.32-.86.69-1.12-.16-.4-.37.32-.59.09-.94-.39-.26-.38.27-.68.29-.59-.17-.08-.76-.3-1.06-.24.07-.27.33-.39.49C98,262.37,98.94,261.34,98.25,261.24Zm7,9.83c-.22-1.24-1.45-1.11-2.13-1.49-.37.79-1.12,0-1.42.81-.67.48,0,1-.31,1.59.33.14,0,.63.41.71-.11.83,1,.07.88.9.3-.22.67-.34.88,0,.07-.51.6-.38,1-.39.2-.1,0-.42.12-.58a.93.93,0,0,1,.69-.32C104.62,271.94,105.68,271.64,105.27,271.07Zm9.37-1.94a.39.39,0,0,0,.55-.32c0-.37-.38-.27-.64-.31C114.33,268.63,114.41,269,114.64,269.13Zm0-5.33c-.14,1.08,1.14,1.89.56,2.85a1.17,1.17,0,0,0,.3,1.07c1.43-.14,2.58,1,3.61,1.48.28-.19.06-.49.16-.7.4-.38.39.32.79.22.63-.22,1.33-.68,1.94-.54.24-.21-.24-.26-.25-.46-.1-.4.43-.41.49-.7.32-.58.66.08,1-.07,0-.26-.26-.23-.45-.31.83-.37-.17-1.59.89-1.94-.08-.3-.62-.82,0-1.07a1.9,1.9,0,0,0-1.56-.48c-.48-.47.32-1.14-.27-1.51-.25-.13-.84.17-1-.26.21-.71-.42-1.1-.59-1.74-.45,0-.17.78-.69.85-.2.09-.26-.1-.29-.26-.67-.6-.58.69-1,.75-.32-.09-.24-.55-.45-.79.43,1.63-1.43.56-2.07,1.21a2.86,2.86,0,0,1,0,1.27c-.11.44-.58.16-.79.25.18.08.31.31.5.44C115.34,263.79,114.77,263.3,114.67,263.8Zm-4.15,12.63c.3-.3.21-.7.17-1.06s-.5-.3-.39-.6c-.31.25-.55-.15-.89,0a1.07,1.07,0,0,0-.71.88c.11.31.07.71.42,1S110.1,276.62,110.52,276.43Zm30.55,78.8c0,.28.25.33.47.3s-.47,0-.39-.46Zm.31-7.13c.82-1.26-1.2-.79-1.26-1.93-.75-.15-1.63.52-2.46.66-.76,1.28-1.47,2.31-.62,3.69.74-.4.94.6,1.33.92.5-.3.94-.09,1.41-.07a2.67,2.67,0,0,0,1.76-1.34C141.64,349.39,142.49,348.22,141.38,348.1Zm1.18-15c-.66-1.91-2.56-1.39-3.73-1.82-.37,1.33-1.76.24-2,1.63-.93.92.32,1.6-.08,2.57.55.13.06,1,.81,1,0,1.33,1.66-.15,1.62,1.2.41-.42,1-.7,1.38-.15,0-.83.85-.75,1.45-.87.31-.2-.09-.66.05-.94a1.53,1.53,0,0,1,1-.68C141.74,334.65,143.34,333.92,142.56,333.13Zm7.41,4.76a1.7,1.7,0,0,0-.89,1.56c.25.47.28,1.1.89,1.4.7.55,1.55-.21,2.16-.6.4-.56.15-1.16,0-1.72-.09-.38-.87-.35-.76-.85C150.94,338.16,150.47,337.58,150,337.89Zm16.35,94.69a.67.67,0,0,0-.12-.66C166,432.1,166,432.57,166.32,432.58ZM97.87,413.43h-.15c-.21.1-.16.31-.06.47S97.51,413.52,97.87,413.43ZM93.53,441c-.42.1-.84.3-.74.83s.41.06.68.06c.16-.2.73-.41.48-.88Zm6.68-29.95a2.3,2.3,0,0,0,1.67.87c.52-.15,1.72.07,1.42-.82,1.26.18.18-1.2,1-1.66-.15-.63-1-1.06-1.39-1.64-1.25-.13-2.3-.3-3.05.84.57.43-.11.94-.23,1.36C100.07,410.26,100.06,410.68,100.21,411.05Zm3.35,31.36c-.42.15-.11.63.2.63C104.23,443.05,103.93,442.26,103.56,442.41Zm2.35,7.26a.75.75,0,0,0-.14-.73C105.5,449.14,105.6,449.67,105.91,449.67Zm4.54-44c.47.16.89.48.62,1,.63-.3.88.38,1.19.81.26.16.47-.31.74-.31a1.34,1.34,0,0,1,.88.54c-.14-1.16,1-.2,1.32-1.08,1.22-1.19.14-2.46.06-3.51-1.16.2-.82-1.27-2-1-1-.38-1.11.82-2,.86.1.47-.74.41-.49,1C109.79,404.5,111.51,405.2,110.45,405.66Zm28.11,34,.1,0c.16,0,.18-.16.16-.29S138.82,439.66,138.56,439.63Zm36.74,4.56.11,0c.15,0,.14-.19.09-.31S175.56,444.16,175.3,444.19Zm6.2-18.33c-.13.12-.54.19-.42.53l.27.06c.29,0,.59-.11.59-.47S181.67,425.9,181.5,425.86Zm-8,19.63a1.5,1.5,0,0,0-1-.76c-.36,0-1.13-.26-1,.37-.81-.26-.26.78-.87,1,0,.44.52.82.73,1.25.82.23,1.49.46,2.11-.21-.32-.35.19-.61.31-.87C173.49,446,173.54,445.75,173.48,445.49Zm-7.39,2.39c-.29-.16-.53-.42-.29-.74-.45.13-.54-.35-.7-.67-.15-.13-.35.15-.52.12a.83.83,0,0,1-.52-.46c0,.78-.68,0-1,.56-.95.65-.38,1.61-.44,2.32.79,0,.39.93,1.19.87.65.37.83-.42,1.43-.34,0-.32.53-.18.43-.6C166.39,448.72,165.34,448.06,166.09,447.88Zm-8.58-8.53c-.31.12-.08.41,0,.64s.44-.06.48-.3A.35.35,0,0,0,157.51,439.35Zm-1.14-3.4c-.26-.16-.42.13-.63.13-.47-.2.12-.45-.12-.74-.41-.44-1.05-.85-1.16-1.4-.26-.12-.13.3-.29.37-.29.23-.49-.2-.76-.14-.6,0-.17-.57-.45-.84-.22.07-.09.31-.09.49-.61-.55-1.24.72-1.93,0-.21.17-.44.81-.89.36a1.69,1.69,0,0,0,.19,1.47c-.22.57-1.07.16-1.15.78,0,.25.45.63.17,1-.66.09-.75.75-1.21,1.13.14.38.7-.16.95.25.15.14,0,.25-.1.34-.25.77.78.22,1,.58,0,.3-.36.4-.48.66,1.18-1,1,1,1.76,1.26a2.64,2.64,0,0,1,1-.52c.4-.06.35.43.5.57,0-.18.14-.37.18-.58.43,0,.23.65.68.56,1-.29,1.14-1.65,2.15-1.52a1,1,0,0,0,.77-.65C155.84,438.35,156.35,437,156.37,436Zm9.16,4.43c-.36-.14-.66.09-.94.25s-.06.53-.35.54c.33.17.08.52.32.74a1,1,0,0,0,1,.26c.22-.21.56-.32.64-.7S165.84,440.65,165.53,440.38Zm102.07,1.53c-.12-.28-.54-.21-.74,0a.47.47,0,0,0,.32.68C267.6,442.69,267.53,442.21,267.6,441.91Zm8.83,6.73c-.09-.25.13-.31.33-.32.77-.72-.75-.74-.77-1.29.13-.37.66-.22,1-.44-1.93.33-.51-1.73-1.19-2.54a3.26,3.26,0,0,1-1.49-.06c-.5-.18-.13-.7-.21-.95-.11.21-.39.33-.57.54-.48-.28.15-.89-.42-1.06-1.25-.28-2.31,1.14-3.38.37a1.3,1.3,0,0,0-1.27.24c0,1.67-1.42,2.9-2.09,4.06.19.34.56.11.8.25.4.51-.42.42-.34.9.2.76.66,1.62.43,2.32.22.3.33-.26.56-.25.48-.07.44.54.77.64.65.43-.16.76,0,1.23.3.07.3-.28.41-.49.35,1,1.86,0,2.17,1.23.35-.07,1-.64,1.24.14a2.23,2.23,0,0,0,.71-1.77c.6-.5,1.31.5,1.79-.16.17-.27-.12-1,.41-1.2.81.32,1.32-.37,2.09-.51C277.43,449,276.45,449.25,276.43,448.64Z"/></g></g></svg>